<svg xmlns="http://www.w3.org/2000/svg" viewBox="0 0 600 200" width="600" height="200">
    <rect x="0" y="0" width="600" height="200" fill="#FFD967"/>
    <rect x="0" y="0" width="600" height="6" fill="#FFD46B"/>
    <rect x="0" y="160" width="600" height="27" fill="#FFD46B"/>
    <rect x="0" y="187" width="600" height="4" fill="#C8821C"/>
    <rect x="0" y="190" width="600" height="5" fill="#523B41"/>
    <rect x="0" y="195" width="600" height="5" fill="#895A46"/>
    <svg xmlns="http://www.w3.org/2000/svg" x="0" y="165" viewBox="0 0 1400 320" width="53" height="50">
        <path fill="#895A46" fill-opacity="1" d="M0,192L0,160L205.7,160L205.7,32L411.4,32L411.4,160L617.1,160L617.1,192L822.9,192L822.9,32L1028.6,32L1028.6,256L1234.3,256L1234.3,32L1440,32L1440,320L1234.3,320L1234.3,320L1028.6,320L1028.6,320L822.9,320L822.9,320L617.1,320L617.1,320L411.4,320L411.4,320L205.7,320L205.7,320L0,320L0,320Z"/>
    </svg>
    <svg xmlns="http://www.w3.org/2000/svg" x="50" y="165" viewBox="0 0 1400 320" width="53" height="50">
        <path fill="#895A46" fill-opacity="1" d="M0,96L0,224L205.7,224L205.7,224L411.4,224L411.4,96L617.1,96L617.1,32L822.9,32L822.9,64L1028.6,64L1028.6,128L1234.3,128L1234.3,96L1440,96L1440,320L1234.3,320L1234.3,320L1028.6,320L1028.6,320L822.9,320L822.9,320L617.1,320L617.1,320L411.4,320L411.4,320L205.7,320L205.7,320L0,320L0,320Z"/>
    </svg>
    <svg xmlns="http://www.w3.org/2000/svg" x="100" y="165" viewBox="0 0 1400 320" width="53" height="50">
        <path fill="#895A46" fill-opacity="1" d="M0,96L0,160L205.7,160L205.7,288L411.4,288L411.4,160L617.1,160L617.1,128L822.9,128L822.9,96L1028.6,96L1028.6,224L1234.3,224L1234.3,32L1440,32L1440,320L1234.3,320L1234.3,320L1028.6,320L1028.6,320L822.9,320L822.9,320L617.1,320L617.1,320L411.4,320L411.4,320L205.7,320L205.7,320L0,320L0,320Z"/>
    </svg>
    <svg xmlns="http://www.w3.org/2000/svg" x="150" y="165" viewBox="0 0 1400 320" width="53" height="50">
        <path fill="#895A46" fill-opacity="1" d="M0,288L0,96L205.7,96L205.7,128L411.4,128L411.4,96L617.1,96L617.1,256L822.9,256L822.9,128L1028.6,128L1028.6,160L1234.3,160L1234.3,32L1440,32L1440,320L1234.3,320L1234.3,320L1028.6,320L1028.6,320L822.9,320L822.9,320L617.1,320L617.1,320L411.4,320L411.4,320L205.7,320L205.7,320L0,320L0,320Z"/>
    </svg>
    <svg xmlns="http://www.w3.org/2000/svg" x="200" y="165" viewBox="0 0 1400 320" width="53" height="50">
        <path fill="#895A46" fill-opacity="1" d="M0,192L0,160L205.7,160L205.7,32L411.4,32L411.4,160L617.1,160L617.1,192L822.9,192L822.9,32L1028.6,32L1028.6,256L1234.3,256L1234.3,32L1440,32L1440,320L1234.3,320L1234.3,320L1028.6,320L1028.6,320L822.9,320L822.9,320L617.1,320L617.1,320L411.4,320L411.4,320L205.7,320L205.7,320L0,320L0,320Z"/>
    </svg>
    <svg xmlns="http://www.w3.org/2000/svg" x="250" y="165" viewBox="0 0 1400 320" width="53" height="50">
        <path fill="#895A46" fill-opacity="1" d="M0,64L0,160L205.7,160L205.7,64L411.4,64L411.4,64L617.1,64L617.1,128L822.9,128L822.9,256L1028.6,256L1028.6,288L1234.3,288L1234.3,64L1440,64L1440,320L1234.3,320L1234.3,320L1028.6,320L1028.6,320L822.9,320L822.9,320L617.1,320L617.1,320L411.4,320L411.4,320L205.7,320L205.7,320L0,320L0,320Z"/>
    </svg>
    <svg xmlns="http://www.w3.org/2000/svg" x="300" y="165" viewBox="0 0 1400 320" width="53" height="50">
        <path fill="#895A46" fill-opacity="1" d="M0,64L0,160L205.7,160L205.7,64L411.4,64L411.4,64L617.1,64L617.1,128L822.9,128L822.9,256L1028.6,256L1028.6,288L1234.3,288L1234.3,64L1440,64L1440,320L1234.3,320L1234.3,320L1028.6,320L1028.6,320L822.9,320L822.9,320L617.1,320L617.1,320L411.4,320L411.4,320L205.7,320L205.7,320L0,320L0,320Z"/>
    </svg>
    <svg xmlns="http://www.w3.org/2000/svg" x="350" y="165" viewBox="0 0 1400 320" width="53" height="50">
        <path fill="#895A46" fill-opacity="1" d="M0,192L0,160L205.7,160L205.7,32L411.4,32L411.4,160L617.1,160L617.1,192L822.9,192L822.9,32L1028.6,32L1028.6,256L1234.3,256L1234.3,32L1440,32L1440,320L1234.3,320L1234.3,320L1028.6,320L1028.6,320L822.9,320L822.9,320L617.1,320L617.1,320L411.4,320L411.4,320L205.7,320L205.7,320L0,320L0,320Z"/>
    </svg>
    <svg xmlns="http://www.w3.org/2000/svg" x="400" y="165" viewBox="0 0 1400 320" width="53" height="50">
        <path fill="#895A46" fill-opacity="1" d="M0,192L0,160L205.7,160L205.7,32L411.4,32L411.4,160L617.1,160L617.1,192L822.9,192L822.9,32L1028.6,32L1028.6,256L1234.3,256L1234.3,32L1440,32L1440,320L1234.3,320L1234.3,320L1028.6,320L1028.6,320L822.9,320L822.9,320L617.1,320L617.1,320L411.4,320L411.4,320L205.7,320L205.7,320L0,320L0,320Z"/>
    </svg>
    <svg xmlns="http://www.w3.org/2000/svg" x="450" y="165" viewBox="0 0 1400 320" width="53" height="50">
        <path fill="#895A46" fill-opacity="1" d="M0,96L0,224L205.7,224L205.7,224L411.4,224L411.4,96L617.1,96L617.1,32L822.9,32L822.9,64L1028.6,64L1028.6,128L1234.3,128L1234.3,96L1440,96L1440,320L1234.3,320L1234.3,320L1028.6,320L1028.6,320L822.9,320L822.9,320L617.1,320L617.1,320L411.4,320L411.4,320L205.7,320L205.7,320L0,320L0,320Z"/>
    </svg>
    <svg xmlns="http://www.w3.org/2000/svg" x="500" y="165" viewBox="0 0 1400 320" width="53" height="50">
        <path fill="#895A46" fill-opacity="1" d="M0,288L0,96L205.7,96L205.7,128L411.4,128L411.4,96L617.1,96L617.1,256L822.9,256L822.9,128L1028.6,128L1028.6,160L1234.3,160L1234.3,32L1440,32L1440,320L1234.3,320L1234.3,320L1028.6,320L1028.6,320L822.9,320L822.9,320L617.1,320L617.1,320L411.4,320L411.4,320L205.7,320L205.7,320L0,320L0,320Z"/>
    </svg>
    <svg xmlns="http://www.w3.org/2000/svg" x="550" y="165" viewBox="0 0 1400 320" width="51" height="50">
        <path fill="#895A46" fill-opacity="1" d="M0,192L0,160L205.7,160L205.7,32L411.4,32L411.4,160L617.1,160L617.1,192L822.9,192L822.9,32L1028.6,32L1028.6,256L1234.3,256L1234.3,32L1440,32L1440,320L1234.3,320L1234.3,320L1028.6,320L1028.6,320L822.9,320L822.9,320L617.1,320L617.1,320L411.4,320L411.4,320L205.7,320L205.7,320L0,320L0,320Z"/>
    </svg>
</svg>