<svg fill="none" overflow="visible" xmlns="http://www.w3.org/2000/svg">
    <a href="https://github.com/[[${username}]]">
        <g id="body-[[${id}]]">
            <svg viewBox="0 0 100 100" width="100" height="100" x="10" y="28">
                <g id="standing-[[${id}]]">
                    <g id="frame1-[[${id}]]">
                        <path stroke="#000000"
                              d="M33 3h12M33 4h12M33 5h12M27 6h15M45 6h6M27 7h15M45 7h6M27 8h15M45 8h6M21 9h24M51 9h3M21 10h24M51 10h3M21 11h24M51 11h3M15 12h9M33 12h3M39 12h9M54 12h3M63 12h9M15 13h9M33 13h3M39 13h9M54 13h3M63 13h9M15 14h9M33 14h3M39 14h9M54 14h3M63 14h9M15 15h9M36 15h6M45 15h6M54 15h3M60 15h3M69 15h3M15 16h9M36 16h6M45 16h6M54 16h3M60 16h3M69 16h3M15 17h9M36 17h6M45 17h6M54 17h3M60 17h3M69 17h3M15 18h6M36 18h3M45 18h6M54 18h6M66 18h3M15 19h6M36 19h3M45 19h6M54 19h6M66 19h3M15 20h6M36 20h3M45 20h6M54 20h6M66 20h3M18 21h3M36 21h3M42 21h9M54 21h3M60 21h6M18 22h3M36 22h3M42 22h9M54 22h3M60 22h6M18 23h3M36 23h3M42 23h9M54 23h3M60 23h6M15 24h6M33 24h3M45 24h3M54 24h3M66 24h3M15 25h6M33 25h3M45 25h3M54 25h3M66 25h3M15 26h6M33 26h3M45 26h3M54 26h3M66 26h3M15 27h30M51 27h3M57 27h12M15 28h30M51 28h3M57 28h12M15 29h30M51 29h3M57 29h12M21 30h6M33 30h3M42 30h3M48 30h9M60 30h3M21 31h6M33 31h3M42 31h3M48 31h9M60 31h3M21 32h6M33 32h3M42 32h3M48 32h9M60 32h3M21 33h15M39 33h3M45 33h6M57 33h6M21 34h15M39 34h3M45 34h6M57 34h6M21 35h15M39 35h3M45 35h6M57 35h6M15 36h12M33 36h3M39 36h3M45 36h6M60 36h9M15 37h12M33 37h3M39 37h3M45 37h6M60 37h9M15 38h12M33 38h3M39 38h3M45 38h6M60 38h9M15 39h3M21 39h3M27 39h3M33 39h3M39 39h6M48 39h3M54 39h3M66 39h3M15 40h3M21 40h3M27 40h3M33 40h3M39 40h6M48 40h3M54 40h3M66 40h3M15 41h3M21 41h3M27 41h3M33 41h3M39 41h6M48 41h3M54 41h3M66 41h3M18 42h3M24 42h3M33 42h6M42 42h3M48 42h3M57 42h9M18 43h3M24 43h3M33 43h6M42 43h3M48 43h3M57 43h9M18 44h3M24 44h3M33 44h6M42 44h3M48 44h3M57 44h9M15 45h3M24 45h3M33 45h6M42 45h3M51 45h3M60 45h3M15 46h3M24 46h3M33 46h6M42 46h3M51 46h3M60 46h3M15 47h3M24 47h3M33 47h6M42 47h3M51 47h3M60 47h3M15 48h12M30 48h3M36 48h6M45 48h3M51 48h12M15 49h12M30 49h3M36 49h6M45 49h3M51 49h12M15 50h12M30 50h3M36 50h6M45 50h3M51 50h12M15 51h3M24 51h3M30 51h3M36 51h3M42 51h3M48 51h9M60 51h3M15 52h3M24 52h3M30 52h3M36 52h3M42 52h3M48 52h9M60 52h3M15 53h3M24 53h3M30 53h3M36 53h3M42 53h3M48 53h9M60 53h3M12 54h3M21 54h6M30 54h6M39 54h3M45 54h3M57 54h3M63 54h3M12 55h3M21 55h6M30 55h6M39 55h3M45 55h3M57 55h3M63 55h3M12 56h3M21 56h6M30 56h6M39 56h3M45 56h3M57 56h3M63 56h3M12 57h12M30 57h6M42 57h3M48 57h18M12 58h12M30 58h6M42 58h3M48 58h18M12 59h12M30 59h6M42 59h3M48 59h18M21 60h24M21 61h24M21 62h24"/>
                        <path stroke="#ff80c0"
                              d="M42 6h3M42 7h3M42 8h3M45 9h6M45 10h6M45 11h6M48 12h6M48 13h6M48 14h6M51 15h3M51 16h3M51 17h3M51 18h3M51 19h3M51 20h3M51 21h3M51 22h3M51 23h3M48 24h6M48 25h6M48 26h6M45 27h6M45 28h6M45 29h6M45 30h3M45 31h3M45 32h3M42 33h3M42 34h3M42 35h3M42 36h3M42 37h3M42 38h3M39 42h3M39 43h3M39 44h3M39 45h3M39 46h3M39 47h3M42 48h3M42 49h3M42 50h3M18 51h6M45 51h3M18 52h6M45 52h3M18 53h6M45 53h3M15 54h6M48 54h9M15 55h6M48 55h9M15 56h6M48 56h9"/>
                        <path stroke="#505050"
                              d="M24 12h3M30 12h3M24 13h3M30 13h3M24 14h3M30 14h3M27 15h9M27 16h9M27 17h9M21 18h3M27 18h9M21 19h3M27 19h9M21 20h3M27 20h9M21 24h3M27 24h6M21 25h3M27 25h6M21 26h3M27 26h6M27 42h6M27 43h6M27 44h6"/>
                        <path stroke="#c0c0c0"
                              d="M27 12h3M27 13h3M27 14h3M24 15h3M24 16h3M24 17h3M24 18h3M24 19h3M24 20h3M21 21h15M21 22h15M21 23h15M24 24h3M24 25h3M24 26h3"/>
                        <path stroke="#fff03c"
                              d="M36 12h3M36 13h3M36 14h3M36 30h6M36 31h6M36 32h6M36 33h3M36 34h3M36 35h3M36 36h3M36 37h3M36 38h3M24 39h3M30 39h3M36 39h3M24 40h3M30 40h3M36 40h3M24 41h3M30 41h3M36 41h3M33 51h3M33 52h3M33 53h3"/>
                        <path stroke="#ffffff"
                              d="M42 15h3M63 15h6M42 16h3M63 16h6M42 17h3M63 17h6M39 18h6M60 18h6M39 19h6M60 19h6M39 20h6M60 20h6M39 21h3M57 21h3M39 22h3M57 22h3M39 23h3M57 23h3M36 24h9M57 24h9M36 25h9M57 25h9M36 26h9M57 26h9M54 27h3M54 28h3M54 29h3M30 30h3M57 30h3M30 31h3M57 31h3M30 32h3M57 32h3M51 33h6M51 34h6M51 35h6M27 36h3M51 36h9M27 37h3M51 37h9M27 38h3M51 38h9M18 39h3M51 39h3M57 39h9M18 40h3M51 40h3M57 40h9M18 41h3M51 41h3M57 41h9M45 42h3M51 42h6M45 43h3M51 43h6M45 44h3M51 44h6M27 45h6M45 45h6M54 45h6M27 46h6M45 46h6M54 46h6M27 47h6M45 47h6M54 47h6M33 48h3M48 48h3M33 49h3M48 49h3M33 50h3M48 50h3M57 51h3M57 52h3M57 53h3M27 54h3M36 54h3M60 54h3M27 55h3M36 55h3M60 55h3M27 56h3M36 56h3M60 56h3M24 57h6M36 57h6M24 58h6M36 58h6M24 59h6M36 59h6"/>
                        <path stroke="#ffcc98"
                              d="M27 30h3M27 31h3M27 32h3M30 36h3M30 37h3M30 38h3M45 39h3M45 40h3M45 41h3M21 42h3M21 43h3M21 44h3M18 45h6M18 46h6M18 47h6M27 48h3M27 49h3M27 50h3M27 51h3M27 52h3M27 53h3"/>
                    </g>
                    <g id="frame2-[[${id}]]">
                        <path stroke="#000000"
                              d="M33 0h12M33 1h12M33 2h12M27 3h15M45 3h6M27 4h15M45 4h6M27 5h15M45 5h6M24 6h21M51 6h3M24 7h21M51 7h3M24 8h21M51 8h3M21 9h18M45 9h3M51 9h3M21 10h18M45 10h3M51 10h3M21 11h18M45 11h3M51 11h3M12 12h12M33 12h3M39 12h12M54 12h3M66 12h9M12 13h12M33 13h3M39 13h12M54 13h3M66 13h9M12 14h12M33 14h3M39 14h12M54 14h3M66 14h9M12 15h3M18 15h6M36 15h6M45 15h6M54 15h3M60 15h6M72 15h3M12 16h3M18 16h6M36 16h6M45 16h6M54 16h3M60 16h6M72 16h3M12 17h3M18 17h6M36 17h6M45 17h6M54 17h3M60 17h6M72 17h3M12 18h3M18 18h3M36 18h3M45 18h6M54 18h6M69 18h3M12 19h3M18 19h3M36 19h3M45 19h6M54 19h6M69 19h3M12 20h3M18 20h3M36 20h3M45 20h6M54 20h6M69 20h3M15 21h6M36 21h3M42 21h6M54 21h3M63 21h6M15 22h6M36 22h3M42 22h6M54 22h3M63 22h6M15 23h6M36 23h3M42 23h6M54 23h3M63 23h6M12 24h3M18 24h3M33 24h3M45 24h3M54 24h3M69 24h3M12 25h3M18 25h3M33 25h3M45 25h3M54 25h3M69 25h3M12 26h3M18 26h3M33 26h3M45 26h3M54 26h3M69 26h3M12 27h33M51 27h3M60 27h12M12 28h33M51 28h3M60 28h12M12 29h33M51 29h3M60 29h12M21 30h6M33 30h3M42 30h3M48 30h9M63 30h3M21 31h6M33 31h3M42 31h3M48 31h9M63 31h3M21 32h6M33 32h3M42 32h3M48 32h9M63 32h3M18 33h18M39 33h3M45 33h6M57 33h6M18 34h18M39 34h3M45 34h6M57 34h6M18 35h18M39 35h3M45 35h6M57 35h6M12 36h6M21 36h6M33 36h3M39 36h3M45 36h6M63 36h9M12 37h6M21 37h6M33 37h3M39 37h3M45 37h6M63 37h9M12 38h6M21 38h6M33 38h3M39 38h3M45 38h6M63 38h9M12 39h3M21 39h3M27 39h3M33 39h3M39 39h6M48 39h3M54 39h6M69 39h3M12 40h3M21 40h3M27 40h3M33 40h3M39 40h6M48 40h3M54 40h6M69 40h3M12 41h3M21 41h3M27 41h3M33 41h3M39 41h6M48 41h3M54 41h6M69 41h3M15 42h6M24 42h3M33 42h6M42 42h3M48 42h3M57 42h12M15 43h6M24 43h3M33 43h6M42 43h3M48 43h3M57 43h12M15 44h6M24 44h3M33 44h6M42 44h3M48 44h3M57 44h12M15 45h3M24 45h3M33 45h6M42 45h3M51 45h6M63 45h3M15 46h3M24 46h3M33 46h6M42 46h3M51 46h6M63 46h3M15 47h3M24 47h3M33 47h6M42 47h3M51 47h6M63 47h3M15 48h12M30 48h3M36 48h6M45 48h3M51 48h3M57 48h9M15 49h12M30 49h3M36 49h6M45 49h3M51 49h3M57 49h9M15 50h12M30 50h3M36 50h6M45 50h3M51 50h3M57 50h9M18 51h3M24 51h3M30 51h3M36 51h3M42 51h3M48 51h9M63 51h3M18 52h3M24 52h3M30 52h3M36 52h3M42 52h3M48 52h9M63 52h3M18 53h3M24 53h3M30 53h3M36 53h3M42 53h3M48 53h9M63 53h3M15 54h3M21 54h6M30 54h6M39 54h3M45 54h3M54 54h6M66 54h3M15 55h3M21 55h6M30 55h6M39 55h3M45 55h3M54 55h6M66 55h3M15 56h3M21 56h6M30 56h6M39 56h3M45 56h3M54 56h6M66 56h3M12 57h3M21 57h3M30 57h6M42 57h3M48 57h3M57 57h12M12 58h3M21 58h3M30 58h6M42 58h3M48 58h3M57 58h12M12 59h3M21 59h3M30 59h6M42 59h3M48 59h3M57 59h12M12 60h33M48 60h12M12 61h33M48 61h12M12 62h33M48 62h12"/>
                        <path stroke="#ff80c0"
                              d="M42 3h3M42 4h3M42 5h3M45 6h6M45 7h6M45 8h6M48 9h3M48 10h3M48 11h3M51 12h3M51 13h3M51 14h3M51 15h3M51 16h3M51 17h3M51 18h3M51 19h3M51 20h3M48 21h6M48 22h6M48 23h6M48 24h6M48 25h6M48 26h6M45 27h6M45 28h6M45 29h6M45 30h3M45 31h3M45 32h3M42 33h3M42 34h3M42 35h3M42 36h3M42 37h3M42 38h3M39 42h3M39 43h3M39 44h3M39 45h3M39 46h3M39 47h3M42 48h3M42 49h3M42 50h3M21 51h3M45 51h3M21 52h3M45 52h3M21 53h3M45 53h3M18 54h3M48 54h6M18 55h3M48 55h6M18 56h3M48 56h6M15 57h6M51 57h6M15 58h6M51 58h6M15 59h6M51 59h6"/>
                        <path stroke="#505050"
                              d="M24 12h3M30 12h3M24 13h3M30 13h3M24 14h3M30 14h3M27 15h9M27 16h9M27 17h9M21 18h3M27 18h9M21 19h3M27 19h9M21 20h3M27 20h9M21 24h3M27 24h6M21 25h3M27 25h6M21 26h3M27 26h6M27 42h6M27 43h6M27 44h6"/>
                        <path stroke="#c0c0c0"
                              d="M27 12h3M27 13h3M27 14h3M24 15h3M24 16h3M24 17h3M24 18h3M24 19h3M24 20h3M21 21h15M21 22h15M21 23h15M24 24h3M24 25h3M24 26h3"/>
                        <path stroke="#fff03c"
                              d="M36 12h3M36 13h3M36 14h3M36 30h6M36 31h6M36 32h6M36 33h3M36 34h3M36 35h3M36 36h3M36 37h3M36 38h3M24 39h3M30 39h3M36 39h3M24 40h3M30 40h3M36 40h3M24 41h3M30 41h3M36 41h3M33 51h3M33 52h3M33 53h3"/>
                        <path stroke="#ffffff"
                              d="M15 15h3M42 15h3M66 15h6M15 16h3M42 16h3M66 16h6M15 17h3M42 17h3M66 17h6M15 18h3M39 18h6M60 18h9M15 19h3M39 19h6M60 19h9M15 20h3M39 20h6M60 20h9M39 21h3M57 21h6M39 22h3M57 22h6M39 23h3M57 23h6M15 24h3M36 24h9M57 24h12M15 25h3M36 25h9M57 25h12M15 26h3M36 26h9M57 26h12M54 27h6M54 28h6M54 29h6M30 30h3M57 30h6M30 31h3M57 31h6M30 32h3M57 32h6M51 33h6M51 34h6M51 35h6M18 36h3M27 36h3M51 36h12M18 37h3M27 37h3M51 37h12M18 38h3M27 38h3M51 38h12M15 39h6M51 39h3M60 39h9M15 40h6M51 40h3M60 40h9M15 41h6M51 41h3M60 41h9M45 42h3M51 42h6M45 43h3M51 43h6M45 44h3M51 44h6M27 45h6M45 45h6M57 45h6M27 46h6M45 46h6M57 46h6M27 47h6M45 47h6M57 47h6M33 48h3M48 48h3M54 48h3M33 49h3M48 49h3M54 49h3M33 50h3M48 50h3M54 50h3M57 51h6M57 52h6M57 53h6M27 54h3M36 54h3M60 54h6M27 55h3M36 55h3M60 55h6M27 56h3M36 56h3M60 56h6M24 57h6M36 57h6M24 58h6M36 58h6M24 59h6M36 59h6"/>
                        <path stroke="#ffcc98"
                              d="M27 30h3M27 31h3M27 32h3M30 36h3M30 37h3M30 38h3M45 39h3M45 40h3M45 41h3M21 42h3M21 43h3M21 44h3M18 45h6M18 46h6M18 47h6M27 48h3M27 49h3M27 50h3M27 51h3M27 52h3M27 53h3"/>
                    </g>
                </g>
                <g id="walking-[[${id}]]">
                    <g id="frame3-[[${id}]]">
                        <path stroke="#000000"
                              d="M33 3h12M33 4h12M33 5h12M27 6h15M45 6h6M27 7h15M45 7h6M27 8h15M45 8h6M21 9h24M51 9h3M21 10h24M51 10h3M21 11h24M51 11h3M15 12h9M33 12h3M39 12h9M54 12h3M63 12h9M15 13h9M33 13h3M39 13h9M54 13h3M63 13h9M15 14h9M33 14h3M39 14h9M54 14h3M63 14h9M15 15h9M36 15h6M45 15h6M54 15h3M60 15h3M69 15h3M15 16h9M36 16h6M45 16h6M54 16h3M60 16h3M69 16h3M15 17h9M36 17h6M45 17h6M54 17h3M60 17h3M69 17h3M15 18h6M36 18h3M45 18h6M54 18h6M66 18h3M15 19h6M36 19h3M45 19h6M54 19h6M66 19h3M15 20h6M36 20h3M45 20h6M54 20h6M66 20h3M18 21h3M36 21h3M42 21h9M54 21h3M60 21h6M18 22h3M36 22h3M42 22h9M54 22h3M60 22h6M18 23h3M36 23h3M42 23h9M54 23h3M60 23h6M15 24h6M33 24h3M45 24h3M54 24h3M66 24h3M15 25h6M33 25h3M45 25h3M54 25h3M66 25h3M15 26h6M33 26h3M45 26h3M54 26h3M66 26h3M15 27h30M51 27h3M57 27h12M15 28h30M51 28h3M57 28h12M15 29h30M51 29h3M57 29h12M21 30h6M33 30h3M42 30h3M48 30h9M60 30h3M21 31h6M33 31h3M42 31h3M48 31h9M60 31h3M21 32h6M33 32h3M42 32h3M48 32h9M60 32h3M21 33h15M39 33h3M45 33h6M57 33h6M21 34h15M39 34h3M45 34h6M57 34h6M21 35h15M39 35h3M45 35h6M57 35h6M15 36h12M33 36h3M39 36h3M45 36h6M60 36h9M15 37h12M33 37h3M39 37h3M45 37h6M60 37h9M15 38h12M33 38h3M39 38h3M45 38h6M60 38h9M15 39h3M21 39h3M27 39h3M33 39h3M39 39h6M48 39h3M54 39h3M66 39h3M15 40h3M21 40h3M27 40h3M33 40h3M39 40h6M48 40h3M54 40h3M66 40h3M15 41h3M21 41h3M27 41h3M33 41h3M39 41h6M48 41h3M54 41h3M66 41h3M18 42h3M24 42h3M33 42h6M42 42h3M48 42h3M57 42h9M18 43h3M24 43h3M33 43h6M42 43h3M48 43h3M57 43h9M18 44h3M24 44h3M33 44h6M42 44h3M48 44h3M57 44h9M15 45h3M24 45h3M33 45h6M42 45h3M51 45h3M60 45h3M15 46h3M24 46h3M33 46h6M42 46h3M51 46h3M60 46h3M15 47h3M24 47h3M33 47h6M42 47h3M51 47h3M60 47h3M15 48h12M30 48h3M36 48h6M45 48h3M51 48h12M15 49h12M30 49h3M36 49h6M45 49h3M51 49h12M15 50h12M30 50h3M36 50h6M45 50h3M51 50h12M15 51h3M24 51h9M36 51h3M42 51h3M48 51h9M60 51h3M15 52h3M24 52h9M36 52h3M42 52h3M48 52h9M60 52h3M15 53h3M24 53h9M36 53h3M42 53h3M48 53h9M60 53h3M12 54h3M21 54h12M39 54h3M45 54h3M57 54h3M63 54h3M12 55h3M21 55h12M39 55h3M45 55h3M57 55h3M63 55h3M12 56h3M21 56h12M39 56h3M45 56h3M57 56h3M63 56h3M12 57h9M24 57h3M30 57h12M48 57h18M12 58h9M24 58h3M30 58h12M48 58h18M12 59h9M24 59h3M30 59h12M48 59h18M24 60h9M24 61h9M24 62h9"/>
                        <path stroke="#ff80c0"
                              d="M42 6h3M42 7h3M42 8h3M45 9h6M45 10h6M45 11h6M48 12h6M48 13h6M48 14h6M51 15h3M51 16h3M51 17h3M51 18h3M51 19h3M51 20h3M51 21h3M51 22h3M51 23h3M48 24h6M48 25h6M48 26h6M45 27h6M45 28h6M45 29h6M45 30h3M45 31h3M45 32h3M42 33h3M42 34h3M42 35h3M42 36h3M42 37h3M42 38h3M39 42h3M39 43h3M39 44h3M39 45h3M39 46h3M39 47h3M42 48h3M42 49h3M42 50h3M18 51h6M45 51h3M18 52h6M45 52h3M18 53h6M45 53h3M15 54h6M48 54h9M15 55h6M48 55h9M15 56h6M48 56h9"/>
                        <path stroke="#505050"
                              d="M24 12h3M30 12h3M24 13h3M30 13h3M24 14h3M30 14h3M27 15h9M27 16h9M27 17h9M21 18h3M27 18h9M21 19h3M27 19h9M21 20h3M27 20h9M21 24h3M27 24h6M21 25h3M27 25h6M21 26h3M27 26h6M27 42h6M27 43h6M27 44h6"/>
                        <path stroke="#c0c0c0"
                              d="M27 12h3M27 13h3M27 14h3M24 15h3M24 16h3M24 17h3M24 18h3M24 19h3M24 20h3M21 21h15M21 22h15M21 23h15M24 24h3M24 25h3M24 26h3"/>
                        <path stroke="#fff03c"
                              d="M36 12h3M36 13h3M36 14h3M36 30h6M36 31h6M36 32h6M36 33h3M36 34h3M36 35h3M36 36h3M36 37h3M36 38h3M24 39h3M30 39h3M36 39h3M24 40h3M30 40h3M36 40h3M24 41h3M30 41h3M36 41h3"/>
                        <path stroke="#ffffff"
                              d="M42 15h3M63 15h6M42 16h3M63 16h6M42 17h3M63 17h6M39 18h6M60 18h6M39 19h6M60 19h6M39 20h6M60 20h6M39 21h3M57 21h3M39 22h3M57 22h3M39 23h3M57 23h3M36 24h9M57 24h9M36 25h9M57 25h9M36 26h9M57 26h9M54 27h3M54 28h3M54 29h3M30 30h3M57 30h3M30 31h3M57 31h3M30 32h3M57 32h3M51 33h6M51 34h6M51 35h6M27 36h3M51 36h9M27 37h3M51 37h9M27 38h3M51 38h9M18 39h3M51 39h3M57 39h9M18 40h3M51 40h3M57 40h9M18 41h3M51 41h3M57 41h9M45 42h3M51 42h6M45 43h3M51 43h6M45 44h3M51 44h6M27 45h6M45 45h6M54 45h6M27 46h6M45 46h6M54 46h6M27 47h6M45 47h6M54 47h6M33 48h3M48 48h3M33 49h3M48 49h3M33 50h3M48 50h3M33 51h3M57 51h3M33 52h3M57 52h3M33 53h3M57 53h3M33 54h6M60 54h3M33 55h6M60 55h3M33 56h6M60 56h3M27 57h3M27 58h3M27 59h3"/>
                        <path stroke="#ffcc98"
                              d="M27 30h3M27 31h3M27 32h3M30 36h3M30 37h3M30 38h3M45 39h3M45 40h3M45 41h3M21 42h3M21 43h3M21 44h3M18 45h6M18 46h6M18 47h6M27 48h3M27 49h3M27 50h3"/>
                    </g>
                    <g id="frame4-[[${id}]]">
                        <path stroke="#000000"
                              d="M33 0h12M33 1h12M33 2h12M27 3h15M45 3h6M27 4h15M45 4h6M27 5h15M45 5h6M24 6h21M51 6h3M24 7h21M51 7h3M24 8h21M51 8h3M21 9h18M45 9h3M51 9h3M21 10h18M45 10h3M51 10h3M21 11h18M45 11h3M51 11h3M12 12h12M33 12h3M39 12h12M54 12h3M66 12h9M12 13h12M33 13h3M39 13h12M54 13h3M66 13h9M12 14h12M33 14h3M39 14h12M54 14h3M66 14h9M12 15h3M18 15h6M36 15h6M45 15h6M54 15h3M60 15h6M72 15h3M12 16h3M18 16h6M36 16h6M45 16h6M54 16h3M60 16h6M72 16h3M12 17h3M18 17h6M36 17h6M45 17h6M54 17h3M60 17h6M72 17h3M12 18h3M18 18h3M36 18h3M45 18h6M54 18h6M69 18h3M12 19h3M18 19h3M36 19h3M45 19h6M54 19h6M69 19h3M12 20h3M18 20h3M36 20h3M45 20h6M54 20h6M69 20h3M15 21h6M36 21h3M42 21h6M54 21h3M63 21h6M15 22h6M36 22h3M42 22h6M54 22h3M63 22h6M15 23h6M36 23h3M42 23h6M54 23h3M63 23h6M12 24h3M18 24h3M33 24h3M45 24h3M54 24h3M69 24h3M12 25h3M18 25h3M33 25h3M45 25h3M54 25h3M69 25h3M12 26h3M18 26h3M33 26h3M45 26h3M54 26h3M69 26h3M12 27h33M51 27h3M60 27h12M12 28h33M51 28h3M60 28h12M12 29h33M51 29h3M60 29h12M21 30h6M33 30h3M42 30h3M48 30h9M63 30h3M21 31h6M33 31h3M42 31h3M48 31h9M63 31h3M21 32h6M33 32h3M42 32h3M48 32h9M63 32h3M18 33h18M39 33h3M45 33h6M57 33h6M18 34h18M39 34h3M45 34h6M57 34h6M18 35h18M39 35h3M45 35h6M57 35h6M12 36h6M21 36h6M33 36h3M39 36h3M45 36h6M63 36h9M12 37h6M21 37h6M33 37h3M39 37h3M45 37h6M63 37h9M12 38h6M21 38h6M33 38h3M39 38h3M45 38h6M63 38h9M12 39h3M21 39h3M27 39h3M33 39h3M39 39h9M54 39h6M69 39h3M12 40h3M21 40h3M27 40h3M33 40h3M39 40h9M54 40h6M69 40h3M12 41h3M21 41h3M27 41h3M33 41h3M39 41h9M54 41h6M69 41h3M15 42h12M33 42h6M42 42h9M57 42h12M15 43h12M33 43h6M42 43h9M57 43h12M15 44h12M33 44h6M42 44h9M57 44h12M18 45h3M24 45h3M33 45h9M48 45h9M63 45h3M18 46h3M24 46h3M33 46h9M48 46h9M63 46h3M18 47h3M24 47h3M33 47h9M48 47h9M63 47h3M18 48h9M30 48h3M36 48h6M48 48h3M57 48h9M18 49h9M30 49h3M36 49h6M48 49h3M57 49h9M18 50h9M30 50h3M36 50h6M48 50h3M57 50h9M18 51h3M24 51h3M30 51h3M36 51h3M42 51h15M63 51h3M18 52h3M24 52h3M30 52h3M36 52h3M42 52h15M63 52h3M18 53h3M24 53h3M30 53h3M36 53h3M42 53h15M63 53h3M15 54h3M21 54h3M30 54h6M39 54h3M45 54h3M54 54h6M66 54h3M15 55h3M21 55h3M30 55h6M39 55h3M45 55h3M54 55h6M66 55h3M15 56h3M21 56h3M30 56h6M39 56h3M45 56h3M54 56h6M66 56h3M12 57h3M21 57h15M42 57h3M48 57h3M57 57h12M12 58h3M21 58h15M42 58h3M48 58h3M57 58h12M12 59h3M21 59h15M42 59h3M48 59h3M57 59h12M12 60h12M33 60h12M48 60h12M12 61h12M33 61h12M48 61h12M12 62h12M33 62h12M48 62h12"/>
                        <path stroke="#ff80c0"
                              d="M42 3h3M42 4h3M42 5h3M45 6h6M45 7h6M45 8h6M48 9h3M48 10h3M48 11h3M51 12h3M51 13h3M51 14h3M51 15h3M51 16h3M51 17h3M51 18h3M51 19h3M51 20h3M48 21h6M48 22h6M48 23h6M48 24h6M48 25h6M48 26h6M45 27h6M45 28h6M45 29h6M45 30h3M45 31h3M45 32h3M42 33h3M42 34h3M42 35h3M42 36h3M42 37h3M42 38h3M39 42h3M39 43h3M39 44h3M21 51h3M21 52h3M21 53h3M18 54h3M48 54h6M18 55h3M48 55h6M18 56h3M48 56h6M15 57h6M51 57h6M15 58h6M51 58h6M15 59h6M51 59h6"/>
                        <path stroke="#505050"
                              d="M24 12h3M30 12h3M24 13h3M30 13h3M24 14h3M30 14h3M27 15h9M27 16h9M27 17h9M21 18h3M27 18h9M21 19h3M27 19h9M21 20h3M27 20h9M21 24h3M27 24h6M21 25h3M27 25h6M21 26h3M27 26h6M27 42h6M27 43h6M27 44h6"/>
                        <path stroke="#c0c0c0"
                              d="M27 12h3M27 13h3M27 14h3M24 15h3M24 16h3M24 17h3M24 18h3M24 19h3M24 20h3M21 21h15M21 22h15M21 23h15M24 24h3M24 25h3M24 26h3"/>
                        <path stroke="#fff03c"
                              d="M36 12h3M36 13h3M36 14h3M36 30h6M36 31h6M36 32h6M36 33h3M36 34h3M36 35h3M36 36h3M36 37h3M36 38h3M24 39h3M30 39h3M36 39h3M24 40h3M30 40h3M36 40h3M24 41h3M30 41h3M36 41h3M33 51h3M33 52h3M33 53h3"/>
                        <path stroke="#ffffff"
                              d="M15 15h3M42 15h3M66 15h6M15 16h3M42 16h3M66 16h6M15 17h3M42 17h3M66 17h6M15 18h3M39 18h6M60 18h9M15 19h3M39 19h6M60 19h9M15 20h3M39 20h6M60 20h9M39 21h3M57 21h6M39 22h3M57 22h6M39 23h3M57 23h6M15 24h3M36 24h9M57 24h12M15 25h3M36 25h9M57 25h12M15 26h3M36 26h9M57 26h12M54 27h6M54 28h6M54 29h6M30 30h3M57 30h6M30 31h3M57 31h6M30 32h3M57 32h6M51 33h6M51 34h6M51 35h6M18 36h3M27 36h3M51 36h12M18 37h3M27 37h3M51 37h12M18 38h3M27 38h3M51 38h12M15 39h6M48 39h6M60 39h9M15 40h6M48 40h6M60 40h9M15 41h6M48 41h6M60 41h9M51 42h6M51 43h6M51 44h6M27 45h6M42 45h6M57 45h6M27 46h6M42 46h6M57 46h6M27 47h6M42 47h6M57 47h6M33 48h3M42 48h6M51 48h6M33 49h3M42 49h6M51 49h6M33 50h3M42 50h6M51 50h6M27 51h3M57 51h6M27 52h3M57 52h6M27 53h3M57 53h6M24 54h6M36 54h3M60 54h6M24 55h6M36 55h3M60 55h6M24 56h6M36 56h3M60 56h6M36 57h6M36 58h6M36 59h6"/>
                        <path stroke="#ffcc98"
                              d="M27 30h3M27 31h3M27 32h3M30 36h3M30 37h3M30 38h3M21 45h3M21 46h3M21 47h3M27 48h3M27 49h3M27 50h3"/>
                    </g>
                </g>
            </svg>
            <svg viewBox="0 0 100 30" width="100" height="30" x="0" y="0">
                <g id="username-[[${id}]]">
                    <rect x="0" y="0" width="100" height="20" fill="black" fill-opacity="0.8" rx="5"/>
                    <svg x="4" y="2.5" width="15" height="15" viewBox="0 0 100 100">
                        <path fill-rule="evenodd" clip-rule="evenodd"
                              d="M48.854 0C21.839 0 0 22 0 49.217c0 21.756 13.993 40.172 33.405 46.69 2.427.49 3.316-1.059 3.316-2.362 0-1.141-.08-5.052-.08-9.127-13.59 2.934-16.42-5.867-16.42-5.867-2.184-5.704-5.42-7.17-5.42-7.17-4.448-3.015.324-3.015.324-3.015 4.934.326 7.523 5.052 7.523 5.052 4.367 7.496 11.404 5.378 14.235 4.074.404-3.178 1.699-5.378 3.074-6.6-10.839-1.141-22.243-5.378-22.243-24.283 0-5.378 1.94-9.778 5.014-13.2-.485-1.222-2.184-6.275.486-13.038 0 0 4.125-1.304 13.426 5.052a46.97 46.97 0 0 1 12.214-1.63c4.125 0 8.33.571 12.213 1.63 9.302-6.356 13.427-5.052 13.427-5.052 2.67 6.763.97 11.816.485 13.038 3.155 3.422 5.015 7.822 5.015 13.2 0 18.905-11.404 23.06-22.324 24.283 1.78 1.548 3.316 4.481 3.316 9.126 0 6.6-.08 11.897-.08 13.526 0 1.304.89 2.853 3.316 2.364 19.412-6.52 33.405-24.935 33.405-46.691C97.707 22 75.788 0 48.854 0z"
                              fill="#fff"/>
                    </svg>
                    <text x="25" y="11" dominant-baseline="middle" style="fill:white" font-size="13">
                        [[${#strings.abbreviate(username, 12)}]]
                    </text>
                    <rect x="0" y="23" width="[[${exp}]]" height="2" fill="#48ff00" rx="1"/>
                </g>
            </svg>
        </g>
    </a>
    <style>
        #frame1-[[${id}]] {
        animation: 1s frameToggle infinite;
        }
        #frame2-[[${id}]] {
        animation: 1s frameToggle infinite reverse;
        }
        #frame3-[[${id}]] {
        animation: 1s frameToggle infinite;
        }
        #frame4-[[${id}]] {
        animation: 1s frameToggle infinite reverse;
        }
        #standing-[[${id}]] {
        animation: standingToggle [[${motion.duration}]]s infinite;
        }
        #walking-[[${id}]] {
        animation: walkingToggle [[${motion.duration}]]s infinite;
        }
        #body-[[${id}]] {
        animation: move-body-[[${id}]] [[${motion.duration}]]s infinite;
        }
        #username-[[${id}]] {
        animation: move-username-[[${id}]] [[${motion.duration}]]s infinite;
        }
        @keyframes move-body-[[${id}]] {
        0%, 10% {
        transform: translate([[${motion.positions[0].x}]]%, [[${y}]]%) scaleX([[${motion.positions[0].direction}]]);
        }
        20%, 30% {
        transform: translate([[${motion.positions[1].x}]]%, [[${y}]]%) scaleX([[${motion.positions[1].direction}]]);
        }
        40%, 50% {
        transform: translate([[${motion.positions[2].x}]]%, [[${y}]]%) scaleX([[${motion.positions[2].direction}]]);
        }
        50.01% {
        transform: translate([[${motion.positions[3].x}]]%, [[${y}]]%) scaleX([[${motion.positions[3].direction}]]);
        }
        60%, 70% {
        transform: translate([[${motion.positions[4].x}]]%, [[${y}]]%) scaleX([[${motion.positions[4].direction}]]);
        }
        80%, 100% {
        transform: translate([[${motion.positions[5].x}]]%, [[${y}]]%) scaleX([[${motion.positions[5].direction}]]);
        }
        }
        @keyframes move-username-[[${id}]] {
        0%, 10% {
        transform: scaleX([[${motion.positions[0].direction}]])
        translateX([[${motion.positions[0].direction > 0 ? 0: -100}]]%);
        }
        20%, 30% {
        transform: scaleX([[${motion.positions[1].direction}]])
        translateX([[${motion.positions[1].direction > 0 ? 0: -100}]]%);
        }
        40%, 50% {
        transform: scaleX([[${motion.positions[2].direction}]])
        translateX([[${motion.positions[2].direction > 0 ? 0: -100}]]%);
        }
        50.01% {
        transform: scaleX([[${motion.positions[3].direction}]])
        translateX([[${motion.positions[3].direction > 0 ? 0: -100}]]%);
        }
        60%, 70% {
        transform: scaleX([[${motion.positions[4].direction}]])
        translateX([[${motion.positions[4].direction > 0 ? 0: -100}]]%);
        }
        80%, 100% {
        transform: scaleX([[${motion.positions[5].direction}]])
        translateX([[${motion.positions[5].direction > 0 ? 0: -100}]]%);
        }
        }
    </style>
</svg>
