<svg fill="none" overflow="visible" xmlns="http://www.w3.org/2000/svg">
    <a href="https://github.com/[[${username}]]">
        <g id="body-[[${id}]]">
            <svg viewBox="0 0 100 100" width="100" height="100" x="0" y="25">
                <g id="standing-[[${id}]]">
                    <g id="frame1-[[${id}]]">
                        <path stroke="#000000"
                              d="M48 3h9M48 4h9M48 5h9M36 6h12M57 6h9M36 7h12M57 7h9M36 8h12M57 8h9M36 9h3M42 9h3M60 9h3M66 9h6M36 10h3M42 10h3M60 10h3M66 10h6M36 11h3M42 11h3M60 11h3M66 11h6M15 12h6M24 12h6M33 12h6M45 12h3M60 12h3M72 12h3M15 13h6M24 13h6M33 13h6M45 13h3M60 13h3M72 13h3M15 14h6M24 14h6M33 14h6M45 14h3M60 14h3M72 14h3M12 15h3M18 15h3M24 15h3M30 15h24M57 15h3M72 15h9M12 16h3M18 16h3M24 16h3M30 16h24M57 16h3M72 16h9M12 17h3M18 17h3M24 17h3M30 17h24M57 17h3M72 17h9M9 18h3M18 18h9M33 18h3M42 18h3M54 18h3M63 18h12M78 18h3M9 19h3M18 19h9M33 19h3M42 19h3M54 19h3M63 19h12M78 19h3M9 20h3M18 20h9M33 20h3M42 20h3M54 20h3M63 20h12M78 20h3M9 21h3M33 21h3M39 21h3M48 21h6M57 21h3M63 21h3M78 21h6M9 22h3M33 22h3M39 22h3M48 22h6M57 22h3M63 22h3M78 22h6M9 23h3M33 23h3M39 23h3M48 23h6M57 23h3M63 23h3M78 23h6M9 24h3M15 24h6M24 24h6M33 24h6M54 24h6M66 24h6M75 24h9M9 25h3M15 25h6M24 25h6M33 25h6M54 25h6M66 25h6M75 25h9M9 26h3M15 26h6M24 26h6M33 26h6M54 26h6M66 26h6M75 26h9M9 27h6M18 27h3M24 27h12M45 27h9M57 27h3M63 27h9M75 27h9M9 28h6M18 28h3M24 28h12M45 28h9M57 28h3M63 28h9M75 28h9M9 29h6M18 29h3M24 29h12M45 29h9M57 29h3M63 29h9M75 29h9M18 30h3M27 30h6M54 30h9M69 30h9M84 30h3M18 31h3M27 31h6M54 31h9M69 31h9M84 31h3M18 32h3M27 32h6M54 32h9M69 32h9M84 32h3M18 33h3M45 33h6M60 33h3M72 33h6M84 33h3M18 34h3M45 34h6M60 34h3M72 34h6M84 34h3M18 35h3M45 35h6M60 35h3M72 35h6M84 35h3M21 36h3M42 36h6M51 36h6M60 36h3M72 36h3M84 36h3M21 37h3M42 37h6M51 37h6M60 37h3M72 37h3M84 37h3M21 38h3M42 38h6M51 38h6M60 38h3M72 38h3M84 38h3M24 39h9M39 39h3M45 39h3M54 39h3M60 39h15M84 39h3M24 40h9M39 40h3M45 40h3M54 40h3M60 40h15M84 40h3M24 41h9M39 41h3M45 41h3M54 41h3M60 41h15M84 41h3M27 42h12M48 42h9M60 42h9M75 42h3M84 42h3M27 43h12M48 43h9M60 43h9M75 43h3M84 43h3M27 44h12M48 44h9M60 44h9M75 44h3M84 44h3M18 45h9M30 45h9M48 45h3M54 45h6M63 45h15M84 45h3M18 46h9M30 46h9M48 46h3M54 46h6M63 46h15M84 46h3M18 47h9M30 47h9M48 47h3M54 47h6M63 47h15M84 47h3M18 48h3M24 48h3M30 48h21M57 48h15M75 48h3M84 48h3M18 49h3M24 49h3M30 49h21M57 49h15M75 49h3M84 49h3M18 50h3M24 50h3M30 50h21M57 50h15M75 50h3M84 50h3M15 51h6M24 51h6M45 51h3M51 51h6M63 51h9M75 51h3M84 51h3M15 52h6M24 52h6M45 52h3M51 52h6M63 52h9M75 52h3M84 52h3M15 53h6M24 53h6M45 53h3M51 53h6M63 53h9M75 53h3M84 53h3M12 54h3M27 54h3M39 54h6M48 54h3M57 54h9M78 54h6M12 55h3M27 55h3M39 55h6M48 55h3M57 55h9M78 55h6M12 56h3M27 56h3M39 56h6M48 56h3M57 56h9M78 56h6M12 57h12M27 57h3M39 57h3M45 57h6M54 57h6M63 57h12M78 57h6M12 58h12M27 58h3M39 58h3M45 58h6M54 58h6M63 58h12M78 58h6M12 59h12M27 59h3M39 59h3M45 59h6M54 59h6M63 59h12M78 59h6M24 60h6M33 60h9M48 60h6M60 60h3M72 60h9M24 61h6M33 61h9M48 61h6M60 61h3M72 61h9M24 62h6M33 62h9M48 62h6M60 62h3M72 62h9M30 63h3M42 63h3M48 63h3M57 63h3M63 63h3M69 63h3M75 63h3M30 64h3M42 64h3M48 64h3M57 64h3M63 64h3M69 64h3M75 64h3M30 65h3M42 65h3M48 65h3M57 65h3M63 65h3M69 65h3M75 65h3M30 66h21M57 66h21M30 67h21M57 67h21M30 68h21M57 68h21"/>
                        <path stroke="#ffffff"
                              d="M48 6h6M48 7h6M48 8h6M48 9h6M48 10h6M48 11h6M48 39h3M48 40h3M48 41h3M39 45h3M45 45h3M39 46h3M45 46h3M39 47h3M45 47h3"/>
                        <path stroke="#00f0b5"
                              d="M54 6h3M54 7h3M54 8h3M45 9h3M54 9h6M45 10h3M54 10h6M45 11h3M54 11h6M48 12h12M48 13h12M48 14h12M54 15h3M54 16h3M54 17h3"/>
                        <path stroke="#e80000"
                              d="M39 9h3M63 9h3M39 10h3M63 10h3M39 11h3M63 11h3M39 12h6M63 12h9M39 13h6M63 13h9M39 14h6M63 14h9M15 15h3M27 15h3M60 15h12M15 16h3M27 16h3M60 16h12M15 17h3M27 17h3M60 17h12M12 18h6M27 18h6M36 18h6M45 18h9M57 18h6M12 19h6M27 19h6M36 19h6M45 19h9M57 19h6M12 20h6M27 20h6M36 20h6M45 20h9M57 20h6M12 21h21M36 21h3M42 21h6M54 21h3M60 21h3M12 22h21M36 22h3M42 22h6M54 22h3M60 22h3M12 23h21M36 23h3M42 23h6M54 23h3M60 23h3M12 24h3M21 24h3M30 24h3M39 24h15M60 24h6M12 25h3M21 25h3M30 25h3M39 25h15M60 25h6M12 26h3M21 26h3M30 26h3M39 26h15M60 26h6M21 27h3M36 27h9M54 27h3M60 27h3M21 28h3M36 28h9M54 28h3M60 28h3M21 29h3M36 29h9M54 29h3M60 29h3M21 30h6M33 30h21M78 30h6M21 31h6M33 31h21M78 31h6M21 32h6M33 32h21M78 32h6M21 33h24M51 33h9M78 33h6M21 34h24M51 34h9M78 34h6M21 35h24M51 35h9M78 35h6M24 36h18M57 36h3M75 36h9M24 37h18M57 37h3M75 37h9M24 38h18M57 38h3M75 38h9M33 39h6M57 39h3M75 39h9M33 40h6M57 40h3M75 40h9M33 41h6M57 41h3M75 41h9M57 42h3M69 42h6M78 42h6M57 43h3M69 43h6M78 43h6M57 44h3M69 44h6M78 44h6M27 45h3M78 45h6M27 46h3M78 46h6M27 47h3M78 47h6M27 48h3M78 48h6M27 49h3M78 49h6M27 50h3M78 50h6M78 51h6M78 52h6M78 53h6M45 54h3M45 55h3M45 56h3"/>
                        <path stroke="#4637c8"
                              d="M75 18h3M75 19h3M75 20h3M66 21h12M66 22h12M66 23h12M72 24h3M72 25h3M72 26h3M72 27h3M72 28h3M72 29h3M21 48h3M72 48h3M21 49h3M72 49h3M21 50h3M72 50h3M21 51h3M72 51h3M21 52h3M72 52h3M21 53h3M72 53h3M15 54h12M66 54h12M15 55h12M66 55h12M15 56h12M66 56h12M24 57h3M42 57h3M60 57h3M75 57h3M24 58h3M42 58h3M60 58h3M75 58h3M24 59h3M42 59h3M60 59h3M75 59h3M42 60h6M63 60h9M42 61h6M63 61h9M42 62h6M63 62h9M33 63h9M45 63h3M60 63h3M66 63h3M72 63h3M33 64h9M45 64h3M60 64h3M66 64h3M72 64h3M33 65h9M45 65h3M60 65h3M66 65h3M72 65h3"/>
                        <path stroke="#ff6868"
                              d="M63 30h6M63 31h6M63 32h6M63 33h9M63 34h9M63 35h9M48 36h3M63 36h9M48 37h3M63 37h9M48 38h3M63 38h9M51 39h3M51 40h3M51 41h3M45 42h3M45 43h3M45 44h3M42 45h3M42 46h3M42 47h3"/>
                        <path stroke="#c00000" d="M42 39h3M42 40h3M42 41h3M39 42h6M39 43h6M39 44h6"/>
                        <path stroke="#ded6d3"
                              d="M51 45h3M60 45h3M51 46h3M60 46h3M51 47h3M60 47h3M51 48h6M51 49h6M51 50h6M48 51h3M57 51h6M48 52h3M57 52h6M48 53h3M57 53h6M51 54h6M51 55h6M51 56h6M51 57h3M51 58h3M51 59h3"/>
                        <path stroke="rgba(255,255,255,0.00392156862745098)"
                              d="M33 51h6M42 51h3M33 52h6M42 52h3M33 53h6M42 53h3M33 54h6M33 55h6M33 56h6M33 57h6M33 58h6M33 59h6M54 60h6M54 61h6M54 62h6M51 63h6M51 64h6M51 65h6M51 66h6M51 67h6M51 68h6"/>
                    </g>
                    <g id="frame2-[[${id}]]">
                        <path stroke="#000000"
                              d="M48 0h9M48 1h9M48 2h9M36 3h12M57 3h9M36 4h12M57 4h9M36 5h12M57 5h9M36 6h3M42 6h3M60 6h3M66 6h6M36 7h3M42 7h3M60 7h3M66 7h6M36 8h3M42 8h3M60 8h3M66 8h6M15 9h6M24 9h6M33 9h6M45 9h3M60 9h3M72 9h3M15 10h6M24 10h6M33 10h6M45 10h3M60 10h3M72 10h3M15 11h6M24 11h6M33 11h6M45 11h3M60 11h3M72 11h3M12 12h3M18 12h3M24 12h3M30 12h24M57 12h3M75 12h9M12 13h3M18 13h3M24 13h3M30 13h24M57 13h3M75 13h9M12 14h3M18 14h3M24 14h3M30 14h24M57 14h3M75 14h9M9 15h3M18 15h9M33 15h3M42 15h3M54 15h3M66 15h12M81 15h3M9 16h3M18 16h9M33 16h3M42 16h3M54 16h3M66 16h12M81 16h3M9 17h3M18 17h9M33 17h3M42 17h3M54 17h3M66 17h12M81 17h3M9 18h3M33 18h3M39 18h3M48 18h6M57 18h3M66 18h3M81 18h3M9 19h3M33 19h3M39 19h3M48 19h6M57 19h3M66 19h3M81 19h3M9 20h3M33 20h3M39 20h3M48 20h6M57 20h3M66 20h3M81 20h3M9 21h3M15 21h6M24 21h6M33 21h6M54 21h6M69 21h6M78 21h6M9 22h3M15 22h6M24 22h6M33 22h6M54 22h6M69 22h6M78 22h6M9 23h3M15 23h6M24 23h6M33 23h6M54 23h6M69 23h6M78 23h6M9 24h6M18 24h3M24 24h12M45 24h9M57 24h3M63 24h6M72 24h3M78 24h6M9 25h6M18 25h3M24 25h12M45 25h9M57 25h3M63 25h6M72 25h3M78 25h6M9 26h6M18 26h3M24 26h12M45 26h9M57 26h3M63 26h6M72 26h3M78 26h6M18 27h3M27 27h6M54 27h9M69 27h12M84 27h3M18 28h3M27 28h6M54 28h9M69 28h12M84 28h3M18 29h3M27 29h6M54 29h9M69 29h12M84 29h3M18 30h3M45 30h6M60 30h3M72 30h3M78 30h3M84 30h3M18 31h3M45 31h6M60 31h3M72 31h3M78 31h3M84 31h3M18 32h3M45 32h6M60 32h3M72 32h3M78 32h3M84 32h3M21 33h3M42 33h6M51 33h6M60 33h3M72 33h6M84 33h3M21 34h3M42 34h6M51 34h6M60 34h3M72 34h6M84 34h3M21 35h3M42 35h6M51 35h6M60 35h3M72 35h6M84 35h3M24 36h9M39 36h3M45 36h3M54 36h3M60 36h15M84 36h3M24 37h9M39 37h3M45 37h3M54 37h3M60 37h15M84 37h3M24 38h9M39 38h3M45 38h3M54 38h3M60 38h15M84 38h3M30 39h9M48 39h9M60 39h9M75 39h3M84 39h3M30 40h9M48 40h9M60 40h9M75 40h3M84 40h3M30 41h9M48 41h9M60 41h9M75 41h3M84 41h3M21 42h9M33 42h6M48 42h3M54 42h6M63 42h9M75 42h3M84 42h3M21 43h9M33 43h6M48 43h3M54 43h6M63 43h9M75 43h3M84 43h3M21 44h9M33 44h6M48 44h3M54 44h6M63 44h9M75 44h3M84 44h3M21 45h3M27 45h3M33 45h18M57 45h12M72 45h3M84 45h3M21 46h3M27 46h3M33 46h18M57 46h12M72 46h3M84 46h3M21 47h3M27 47h3M33 47h18M57 47h12M72 47h3M84 47h3M18 48h6M27 48h6M45 48h3M51 48h6M63 48h6M72 48h3M84 48h3M18 49h6M27 49h6M45 49h3M51 49h6M63 49h6M72 49h3M84 49h3M18 50h6M27 50h6M45 50h3M51 50h6M63 50h6M72 50h3M84 50h3M15 51h3M30 51h3M42 51h3M48 51h3M57 51h6M75 51h3M81 51h3M15 52h3M30 52h3M42 52h3M48 52h3M57 52h6M75 52h3M81 52h3M15 53h3M30 53h3M42 53h3M48 53h3M57 53h6M75 53h3M81 53h3M15 54h12M30 54h3M39 54h6M48 54h3M54 54h18M75 54h3M81 54h3M15 55h12M30 55h3M39 55h6M48 55h3M54 55h18M75 55h3M81 55h3M15 56h12M30 56h3M39 56h6M48 56h3M54 56h18M75 56h3M81 56h3M27 57h6M39 57h3M45 57h9M60 57h3M72 57h9M27 58h6M39 58h3M45 58h9M60 58h3M72 58h9M27 59h6M39 59h3M45 59h9M60 59h3M72 59h9M33 60h9M48 60h3M60 60h3M72 60h3M33 61h9M48 61h3M60 61h3M72 61h3M33 62h9M48 62h3M60 62h3M72 62h3M30 63h3M42 63h3M48 63h3M57 63h3M63 63h3M69 63h3M75 63h3M30 64h3M42 64h3M48 64h3M57 64h3M63 64h3M69 64h3M75 64h3M30 65h3M42 65h3M48 65h3M57 65h3M63 65h3M69 65h3M75 65h3M30 66h21M57 66h21M30 67h21M57 67h21M30 68h21M57 68h21"/>
                        <path stroke="#ffffff"
                              d="M48 3h6M48 4h6M48 5h6M48 6h6M48 7h6M48 8h6M48 36h3M48 37h3M48 38h3M39 42h3M45 42h3M39 43h3M45 43h3M39 44h3M45 44h3"/>
                        <path stroke="#00f0b5"
                              d="M54 3h3M54 4h3M54 5h3M45 6h3M54 6h6M45 7h3M54 7h6M45 8h3M54 8h6M48 9h12M48 10h12M48 11h12M54 12h3M54 13h3M54 14h3"/>
                        <path stroke="#e80000"
                              d="M39 6h3M63 6h3M39 7h3M63 7h3M39 8h3M63 8h3M39 9h6M63 9h9M39 10h6M63 10h9M39 11h6M63 11h9M15 12h3M27 12h3M60 12h15M15 13h3M27 13h3M60 13h15M15 14h3M27 14h3M60 14h15M12 15h6M27 15h6M36 15h6M45 15h9M57 15h9M12 16h6M27 16h6M36 16h6M45 16h9M57 16h9M12 17h6M27 17h6M36 17h6M45 17h9M57 17h9M12 18h21M36 18h3M42 18h6M54 18h3M60 18h6M12 19h21M36 19h3M42 19h6M54 19h3M60 19h6M12 20h21M36 20h3M42 20h6M54 20h3M60 20h6M12 21h3M21 21h3M30 21h3M39 21h15M60 21h9M12 22h3M21 22h3M30 22h3M39 22h15M60 22h9M12 23h3M21 23h3M30 23h3M39 23h15M60 23h9M21 24h3M36 24h9M54 24h3M60 24h3M69 24h3M21 25h3M36 25h9M54 25h3M60 25h3M69 25h3M21 26h3M36 26h9M54 26h3M60 26h3M69 26h3M21 27h6M33 27h21M81 27h3M21 28h6M33 28h21M81 28h3M21 29h6M33 29h21M81 29h3M21 30h24M51 30h9M75 30h3M81 30h3M21 31h24M51 31h9M75 31h3M81 31h3M21 32h24M51 32h9M75 32h3M81 32h3M24 33h18M57 33h3M78 33h6M24 34h18M57 34h3M78 34h6M24 35h18M57 35h3M78 35h6M33 36h6M57 36h3M75 36h9M33 37h6M57 37h3M75 37h9M33 38h6M57 38h3M75 38h9M57 39h3M69 39h6M78 39h6M57 40h3M69 40h6M78 40h6M57 41h3M69 41h6M78 41h6M30 42h3M72 42h3M78 42h6M30 43h3M72 43h3M78 43h6M30 44h3M72 44h3M78 44h6M30 45h3M75 45h9M30 46h3M75 46h9M30 47h3M75 47h9M75 48h9M75 49h9M75 50h9M45 51h3M78 51h3M45 52h3M78 52h3M45 53h3M78 53h3M45 54h3M78 54h3M45 55h3M78 55h3M45 56h3M78 56h3"/>
                        <path stroke="#4637c8"
                              d="M78 15h3M78 16h3M78 17h3M69 18h12M69 19h12M69 20h12M75 21h3M75 22h3M75 23h3M75 24h3M75 25h3M75 26h3M24 45h3M69 45h3M24 46h3M69 46h3M24 47h3M69 47h3M24 48h3M69 48h3M24 49h3M69 49h3M24 50h3M69 50h3M18 51h12M63 51h12M18 52h12M63 52h12M18 53h12M63 53h12M27 54h3M72 54h3M27 55h3M72 55h3M27 56h3M72 56h3M42 57h3M63 57h9M42 58h3M63 58h9M42 59h3M63 59h9M42 60h6M63 60h9M42 61h6M63 61h9M42 62h6M63 62h9M33 63h9M45 63h3M60 63h3M66 63h3M72 63h3M33 64h9M45 64h3M60 64h3M66 64h3M72 64h3M33 65h9M45 65h3M60 65h3M66 65h3M72 65h3"/>
                        <path stroke="#ff6868"
                              d="M63 27h6M63 28h6M63 29h6M63 30h9M63 31h9M63 32h9M48 33h3M63 33h9M48 34h3M63 34h9M48 35h3M63 35h9M51 36h3M51 37h3M51 38h3M45 39h3M45 40h3M45 41h3M42 42h3M42 43h3M42 44h3"/>
                        <path stroke="#c00000" d="M42 36h3M42 37h3M42 38h3M39 39h6M39 40h6M39 41h6"/>
                        <path stroke="#ded6d3"
                              d="M51 42h3M60 42h3M51 43h3M60 43h3M51 44h3M60 44h3M51 45h6M51 46h6M51 47h6M48 48h3M57 48h6M48 49h3M57 49h6M48 50h3M57 50h6M51 51h6M51 52h6M51 53h6M51 54h3M51 55h3M51 56h3"/>
                        <path stroke="rgba(255,255,255,0.00392156862745098)"
                              d="M33 48h12M33 49h12M33 50h12M33 51h9M33 52h9M33 53h9M33 54h6M33 55h6M33 56h6M33 57h6M54 57h6M33 58h6M54 58h6M33 59h6M54 59h6M51 60h9M51 61h9M51 62h9M51 63h6M51 64h6M51 65h6M51 66h6M51 67h6M51 68h6"/>
                    </g>
                </g>
                <g id="walking-[[${id}]]">
                    <g id="frame3-[[${id}]]">
                        <path stroke="#000000"
                              d="M48 0h9M48 1h9M48 2h9M36 3h12M57 3h9M36 4h12M57 4h9M36 5h12M57 5h9M36 6h3M42 6h3M60 6h3M66 6h6M36 7h3M42 7h3M60 7h3M66 7h6M36 8h3M42 8h3M60 8h3M66 8h6M15 9h6M24 9h6M33 9h6M45 9h3M60 9h3M72 9h3M15 10h6M24 10h6M33 10h6M45 10h3M60 10h3M72 10h3M15 11h6M24 11h6M33 11h6M45 11h3M60 11h3M72 11h3M12 12h3M18 12h3M24 12h3M30 12h24M57 12h3M72 12h9M12 13h3M18 13h3M24 13h3M30 13h24M57 13h3M72 13h9M12 14h3M18 14h3M24 14h3M30 14h24M57 14h3M72 14h9M9 15h3M18 15h9M33 15h3M42 15h3M54 15h3M63 15h12M78 15h3M9 16h3M18 16h9M33 16h3M42 16h3M54 16h3M63 16h12M78 16h3M9 17h3M18 17h9M33 17h3M42 17h3M54 17h3M63 17h12M78 17h3M9 18h3M33 18h3M39 18h3M48 18h6M57 18h3M63 18h3M78 18h6M9 19h3M33 19h3M39 19h3M48 19h6M57 19h3M63 19h3M78 19h6M9 20h3M33 20h3M39 20h3M48 20h6M57 20h3M63 20h3M78 20h6M9 21h3M15 21h6M24 21h6M33 21h6M54 21h6M66 21h6M75 21h9M9 22h3M15 22h6M24 22h6M33 22h6M54 22h6M66 22h6M75 22h9M9 23h3M15 23h6M24 23h6M33 23h6M54 23h6M66 23h6M75 23h9M9 24h6M18 24h3M24 24h12M45 24h9M57 24h3M63 24h9M75 24h3M81 24h3M9 25h6M18 25h3M24 25h12M45 25h9M57 25h3M63 25h9M75 25h3M81 25h3M9 26h6M18 26h3M24 26h12M45 26h9M57 26h3M63 26h9M75 26h3M81 26h3M18 27h3M27 27h6M54 27h9M69 27h9M84 27h3M18 28h3M27 28h6M54 28h9M69 28h9M84 28h3M18 29h3M27 29h6M54 29h9M69 29h9M84 29h3M18 30h3M45 30h6M60 30h3M72 30h6M84 30h3M18 31h3M45 31h6M60 31h3M72 31h6M84 31h3M18 32h3M45 32h6M60 32h3M72 32h6M84 32h3M21 33h3M42 33h6M51 33h6M60 33h3M72 33h3M84 33h3M21 34h3M42 34h6M51 34h6M60 34h3M72 34h3M84 34h3M21 35h3M42 35h6M51 35h6M60 35h3M72 35h3M84 35h3M24 36h9M39 36h3M45 36h3M54 36h3M60 36h15M84 36h3M24 37h9M39 37h3M45 37h3M54 37h3M60 37h15M84 37h3M24 38h9M39 38h3M45 38h3M54 38h3M60 38h15M84 38h3M27 39h12M48 39h9M60 39h9M75 39h3M84 39h3M27 40h12M48 40h9M60 40h9M75 40h3M84 40h3M27 41h12M48 41h9M60 41h9M75 41h3M84 41h3M18 42h9M30 42h9M48 42h3M54 42h6M63 42h15M84 42h3M18 43h9M30 43h9M48 43h3M54 43h6M63 43h15M84 43h3M18 44h9M30 44h9M48 44h3M54 44h6M63 44h15M84 44h3M18 45h3M24 45h3M30 45h21M57 45h15M75 45h3M84 45h3M18 46h3M24 46h3M30 46h21M57 46h15M75 46h3M84 46h3M18 47h3M24 47h3M30 47h21M57 47h15M75 47h3M84 47h3M15 48h6M24 48h6M45 48h3M51 48h6M63 48h9M75 48h3M84 48h3M15 49h6M24 49h6M45 49h3M51 49h6M63 49h9M75 49h3M84 49h3M15 50h6M24 50h6M45 50h3M51 50h6M63 50h9M75 50h3M84 50h3M12 51h3M27 51h3M45 51h6M57 51h9M78 51h6M12 52h3M27 52h3M45 52h6M57 52h9M78 52h6M12 53h3M27 53h3M45 53h6M57 53h9M78 53h6M12 54h12M27 54h3M42 54h9M54 54h6M63 54h12M78 54h6M12 55h12M27 55h3M42 55h9M54 55h6M63 55h12M78 55h6M12 56h12M27 56h3M42 56h9M54 56h6M63 56h12M78 56h6M24 57h6M42 57h3M48 57h6M60 57h3M72 57h9M24 58h6M42 58h3M48 58h6M60 58h3M72 58h9M24 59h6M42 59h3M48 59h6M60 59h3M72 59h9M36 60h9M51 60h3M57 60h3M63 60h3M69 60h3M75 60h3M36 61h9M51 61h3M57 61h3M63 61h3M69 61h3M75 61h3M36 62h9M51 62h3M57 62h3M63 62h3M69 62h3M75 62h3M33 63h3M45 63h3M51 63h3M57 63h21M33 64h3M45 64h3M51 64h3M57 64h21M33 65h3M45 65h3M51 65h3M57 65h21M33 66h21M33 67h21M33 68h21"/>
                        <path stroke="#ffffff"
                              d="M48 3h6M48 4h6M48 5h6M48 6h6M48 7h6M48 8h6M48 36h3M48 37h3M48 38h3M39 42h3M45 42h3M39 43h3M45 43h3M39 44h3M45 44h3"/>
                        <path stroke="#00f0b5"
                              d="M54 3h3M54 4h3M54 5h3M45 6h3M54 6h6M45 7h3M54 7h6M45 8h3M54 8h6M48 9h12M48 10h12M48 11h12M54 12h3M54 13h3M54 14h3"/>
                        <path stroke="#e80000"
                              d="M39 6h3M63 6h3M39 7h3M63 7h3M39 8h3M63 8h3M39 9h6M63 9h9M39 10h6M63 10h9M39 11h6M63 11h9M15 12h3M27 12h3M60 12h12M15 13h3M27 13h3M60 13h12M15 14h3M27 14h3M60 14h12M12 15h6M27 15h6M36 15h6M45 15h9M57 15h6M12 16h6M27 16h6M36 16h6M45 16h9M57 16h6M12 17h6M27 17h6M36 17h6M45 17h9M57 17h6M12 18h21M36 18h3M42 18h6M54 18h3M60 18h3M12 19h21M36 19h3M42 19h6M54 19h3M60 19h3M12 20h21M36 20h3M42 20h6M54 20h3M60 20h3M12 21h3M21 21h3M30 21h3M39 21h15M60 21h6M12 22h3M21 22h3M30 22h3M39 22h15M60 22h6M12 23h3M21 23h3M30 23h3M39 23h15M60 23h6M21 24h3M36 24h9M54 24h3M60 24h3M78 24h3M21 25h3M36 25h9M54 25h3M60 25h3M78 25h3M21 26h3M36 26h9M54 26h3M60 26h3M78 26h3M21 27h6M33 27h21M78 27h6M21 28h6M33 28h21M78 28h6M21 29h6M33 29h21M78 29h6M21 30h24M51 30h9M78 30h6M21 31h24M51 31h9M78 31h6M21 32h24M51 32h9M78 32h6M24 33h18M57 33h3M75 33h9M24 34h18M57 34h3M75 34h9M24 35h18M57 35h3M75 35h9M33 36h6M57 36h3M75 36h9M33 37h6M57 37h3M75 37h9M33 38h6M57 38h3M75 38h9M57 39h3M69 39h6M78 39h6M57 40h3M69 40h6M78 40h6M57 41h3M69 41h6M78 41h6M27 42h3M78 42h6M27 43h3M78 43h6M27 44h3M78 44h6M27 45h3M78 45h6M27 46h3M78 46h6M27 47h3M78 47h6M78 48h6M78 49h6M78 50h6"/>
                        <path stroke="#4637c8"
                              d="M75 15h3M75 16h3M75 17h3M66 18h12M66 19h12M66 20h12M72 21h3M72 22h3M72 23h3M72 24h3M72 25h3M72 26h3M21 45h3M72 45h3M21 46h3M72 46h3M21 47h3M72 47h3M21 48h3M72 48h3M21 49h3M72 49h3M21 50h3M72 50h3M15 51h12M66 51h12M15 52h12M66 52h12M15 53h12M66 53h12M24 54h3M60 54h3M75 54h3M24 55h3M60 55h3M75 55h3M24 56h3M60 56h3M75 56h3M45 57h3M63 57h9M45 58h3M63 58h9M45 59h3M63 59h9M45 60h6M60 60h3M66 60h3M72 60h3M45 61h6M60 61h3M66 61h3M72 61h3M45 62h6M60 62h3M66 62h3M72 62h3M36 63h9M48 63h3M36 64h9M48 64h3M36 65h9M48 65h3"/>
                        <path stroke="#ff6868"
                              d="M63 27h6M63 28h6M63 29h6M63 30h9M63 31h9M63 32h9M48 33h3M63 33h9M48 34h3M63 34h9M48 35h3M63 35h9M51 36h3M51 37h3M51 38h3M45 39h3M45 40h3M45 41h3M42 42h3M42 43h3M42 44h3"/>
                        <path stroke="#c00000" d="M42 36h3M42 37h3M42 38h3M39 39h6M39 40h6M39 41h6"/>
                        <path stroke="#ded6d3"
                              d="M51 42h3M60 42h3M51 43h3M60 43h3M51 44h3M60 44h3M51 45h6M51 46h6M51 47h6M48 48h3M57 48h6M48 49h3M57 49h6M48 50h3M57 50h6M51 51h6M51 52h6M51 53h6M51 54h3M51 55h3M51 56h3"/>
                    </g>
                    <g id="frame4-[[${id}]]">
                        <path stroke="#000000"
                              d="M48 0h9M48 1h9M48 2h9M36 3h12M57 3h9M36 4h12M57 4h9M36 5h12M57 5h9M36 6h3M42 6h3M60 6h3M66 6h6M36 7h3M42 7h3M60 7h3M66 7h6M36 8h3M42 8h3M60 8h3M66 8h6M15 9h6M24 9h6M33 9h6M45 9h3M60 9h3M72 9h3M15 10h6M24 10h6M33 10h6M45 10h3M60 10h3M72 10h3M15 11h6M24 11h6M33 11h6M45 11h3M60 11h3M72 11h3M12 12h3M18 12h3M24 12h3M30 12h24M57 12h3M75 12h9M12 13h3M18 13h3M24 13h3M30 13h24M57 13h3M75 13h9M12 14h3M18 14h3M24 14h3M30 14h24M57 14h3M75 14h9M9 15h3M18 15h9M33 15h3M42 15h3M54 15h3M66 15h12M81 15h3M9 16h3M18 16h9M33 16h3M42 16h3M54 16h3M66 16h12M81 16h3M9 17h3M18 17h9M33 17h3M42 17h3M54 17h3M66 17h12M81 17h3M9 18h3M33 18h3M39 18h3M48 18h6M57 18h3M66 18h3M81 18h3M9 19h3M33 19h3M39 19h3M48 19h6M57 19h3M66 19h3M81 19h3M9 20h3M33 20h3M39 20h3M48 20h6M57 20h3M66 20h3M81 20h3M9 21h3M15 21h6M24 21h6M33 21h6M54 21h6M69 21h6M78 21h6M9 22h3M15 22h6M24 22h6M33 22h6M54 22h6M69 22h6M78 22h6M9 23h3M15 23h6M24 23h6M33 23h6M54 23h6M69 23h6M78 23h6M9 24h6M18 24h3M24 24h12M45 24h9M57 24h3M63 24h6M72 24h3M78 24h6M9 25h6M18 25h3M24 25h12M45 25h9M57 25h3M63 25h6M72 25h3M78 25h6M9 26h6M18 26h3M24 26h12M45 26h9M57 26h3M63 26h6M72 26h3M78 26h6M18 27h3M27 27h6M54 27h9M69 27h12M84 27h3M18 28h3M27 28h6M54 28h9M69 28h12M84 28h3M18 29h3M27 29h6M54 29h9M69 29h12M84 29h3M18 30h3M45 30h6M60 30h3M72 30h3M78 30h3M84 30h3M18 31h3M45 31h6M60 31h3M72 31h3M78 31h3M84 31h3M18 32h3M45 32h6M60 32h3M72 32h3M78 32h3M84 32h3M21 33h3M42 33h6M51 33h6M60 33h3M72 33h6M84 33h3M21 34h3M42 34h6M51 34h6M60 34h3M72 34h6M84 34h3M21 35h3M42 35h6M51 35h6M60 35h3M72 35h6M84 35h3M24 36h9M39 36h3M45 36h3M54 36h3M60 36h15M84 36h3M24 37h9M39 37h3M45 37h3M54 37h3M60 37h15M84 37h3M24 38h9M39 38h3M45 38h3M54 38h3M60 38h15M84 38h3M30 39h9M48 39h9M60 39h9M75 39h3M84 39h3M30 40h9M48 40h9M60 40h9M75 40h3M84 40h3M30 41h9M48 41h9M60 41h9M75 41h3M84 41h3M21 42h9M33 42h6M48 42h3M54 42h6M63 42h9M75 42h3M84 42h3M21 43h9M33 43h6M48 43h3M54 43h6M63 43h9M75 43h3M84 43h3M21 44h9M33 44h6M48 44h3M54 44h6M63 44h9M75 44h3M84 44h3M21 45h3M27 45h3M33 45h18M57 45h12M72 45h3M84 45h3M21 46h3M27 46h3M33 46h18M57 46h12M72 46h3M84 46h3M21 47h3M27 47h3M33 47h18M57 47h12M72 47h3M84 47h3M18 48h6M27 48h6M45 48h3M51 48h6M63 48h6M72 48h3M84 48h3M18 49h6M27 49h6M45 49h3M51 49h6M63 49h6M72 49h3M84 49h3M18 50h6M27 50h6M45 50h3M51 50h6M63 50h6M72 50h3M84 50h3M15 51h3M30 51h3M39 51h6M48 51h3M57 51h6M75 51h3M81 51h3M15 52h3M30 52h3M39 52h6M48 52h3M57 52h6M75 52h3M81 52h3M15 53h3M30 53h3M39 53h6M48 53h3M57 53h6M75 53h3M81 53h3M15 54h12M30 54h3M39 54h3M45 54h6M54 54h18M75 54h3M81 54h3M15 55h12M30 55h3M39 55h3M45 55h6M54 55h18M75 55h3M81 55h3M15 56h12M30 56h3M39 56h3M45 56h6M54 56h18M75 56h3M81 56h3M27 57h15M48 57h6M60 57h3M72 57h9M27 58h15M48 58h6M60 58h3M72 58h9M27 59h15M48 59h6M60 59h3M72 59h9M30 60h3M42 60h3M48 60h3M63 60h3M75 60h3M30 61h3M42 61h3M48 61h3M63 61h3M75 61h3M30 62h3M42 62h3M48 62h3M63 62h3M75 62h3M30 63h21M60 63h3M66 63h3M72 63h3M78 63h3M30 64h21M60 64h3M66 64h3M72 64h3M78 64h3M30 65h21M60 65h3M66 65h3M72 65h3M78 65h3M60 66h21M60 67h21M60 68h21"/>
                        <path stroke="#ffffff"
                              d="M48 3h6M48 4h6M48 5h6M48 6h6M48 7h6M48 8h6M48 36h3M48 37h3M48 38h3M39 42h3M45 42h3M39 43h3M45 43h3M39 44h3M45 44h3"/>
                        <path stroke="#00f0b5"
                              d="M54 3h3M54 4h3M54 5h3M45 6h3M54 6h6M45 7h3M54 7h6M45 8h3M54 8h6M48 9h12M48 10h12M48 11h12M54 12h3M54 13h3M54 14h3"/>
                        <path stroke="#e80000"
                              d="M39 6h3M63 6h3M39 7h3M63 7h3M39 8h3M63 8h3M39 9h6M63 9h9M39 10h6M63 10h9M39 11h6M63 11h9M15 12h3M27 12h3M60 12h15M15 13h3M27 13h3M60 13h15M15 14h3M27 14h3M60 14h15M12 15h6M27 15h6M36 15h6M45 15h9M57 15h9M12 16h6M27 16h6M36 16h6M45 16h9M57 16h9M12 17h6M27 17h6M36 17h6M45 17h9M57 17h9M12 18h21M36 18h3M42 18h6M54 18h3M60 18h6M12 19h21M36 19h3M42 19h6M54 19h3M60 19h6M12 20h21M36 20h3M42 20h6M54 20h3M60 20h6M12 21h3M21 21h3M30 21h3M39 21h15M60 21h9M12 22h3M21 22h3M30 22h3M39 22h15M60 22h9M12 23h3M21 23h3M30 23h3M39 23h15M60 23h9M21 24h3M36 24h9M54 24h3M60 24h3M69 24h3M21 25h3M36 25h9M54 25h3M60 25h3M69 25h3M21 26h3M36 26h9M54 26h3M60 26h3M69 26h3M21 27h6M33 27h21M81 27h3M21 28h6M33 28h21M81 28h3M21 29h6M33 29h21M81 29h3M21 30h24M51 30h9M75 30h3M81 30h3M21 31h24M51 31h9M75 31h3M81 31h3M21 32h24M51 32h9M75 32h3M81 32h3M24 33h18M57 33h3M78 33h6M24 34h18M57 34h3M78 34h6M24 35h18M57 35h3M78 35h6M33 36h6M57 36h3M75 36h9M33 37h6M57 37h3M75 37h9M33 38h6M57 38h3M75 38h9M57 39h3M69 39h6M78 39h6M57 40h3M69 40h6M78 40h6M57 41h3M69 41h6M78 41h6M30 42h3M72 42h3M78 42h6M30 43h3M72 43h3M78 43h6M30 44h3M72 44h3M78 44h6M30 45h3M75 45h9M30 46h3M75 46h9M30 47h3M75 47h9M75 48h9M75 49h9M75 50h9M45 51h3M78 51h3M45 52h3M78 52h3M45 53h3M78 53h3M78 54h3M78 55h3M78 56h3"/>
                        <path stroke="#4637c8"
                              d="M78 15h3M78 16h3M78 17h3M69 18h12M69 19h12M69 20h12M75 21h3M75 22h3M75 23h3M75 24h3M75 25h3M75 26h3M24 45h3M69 45h3M24 46h3M69 46h3M24 47h3M69 47h3M24 48h3M69 48h3M24 49h3M69 49h3M24 50h3M69 50h3M18 51h12M63 51h12M18 52h12M63 52h12M18 53h12M63 53h12M27 54h3M42 54h3M72 54h3M27 55h3M42 55h3M72 55h3M27 56h3M42 56h3M72 56h3M42 57h6M63 57h9M42 58h6M63 58h9M42 59h6M63 59h9M33 60h9M45 60h3M66 60h9M33 61h9M45 61h3M66 61h9M33 62h9M45 62h3M66 62h9M63 63h3M69 63h3M75 63h3M63 64h3M69 64h3M75 64h3M63 65h3M69 65h3M75 65h3"/>
                        <path stroke="#ff6868"
                              d="M63 27h6M63 28h6M63 29h6M63 30h9M63 31h9M63 32h9M48 33h3M63 33h9M48 34h3M63 34h9M48 35h3M63 35h9M51 36h3M51 37h3M51 38h3M45 39h3M45 40h3M45 41h3M42 42h3M42 43h3M42 44h3"/>
                        <path stroke="#c00000" d="M42 36h3M42 37h3M42 38h3M39 39h6M39 40h6M39 41h6"/>
                        <path stroke="#ded6d3"
                              d="M51 42h3M60 42h3M51 43h3M60 43h3M51 44h3M60 44h3M51 45h6M51 46h6M51 47h6M48 48h3M57 48h6M48 49h3M57 49h6M48 50h3M57 50h6M51 51h6M51 52h6M51 53h6M51 54h3M51 55h3M51 56h3"/>
                        <path stroke="rgba(255,255,255,0.00392156862745098)"
                              d="M33 48h12M33 49h12M33 50h12M33 51h6M33 52h6M33 53h6M33 54h6M33 55h6M33 56h6"/>
                    </g>
                </g>
            </svg>
            <svg viewBox="0 0 100 30" width="100" height="30" x="0" y="0">
                <g id="username-[[${id}]]">
                    <rect x="0" y="0" width="100" height="20" fill="black" fill-opacity="0.8" rx="5"/>
                    <svg x="4" y="2.5" width="15" height="15" viewBox="0 0 100 100">
                        <path fill-rule="evenodd" clip-rule="evenodd"
                              d="M48.854 0C21.839 0 0 22 0 49.217c0 21.756 13.993 40.172 33.405 46.69 2.427.49 3.316-1.059 3.316-2.362 0-1.141-.08-5.052-.08-9.127-13.59 2.934-16.42-5.867-16.42-5.867-2.184-5.704-5.42-7.17-5.42-7.17-4.448-3.015.324-3.015.324-3.015 4.934.326 7.523 5.052 7.523 5.052 4.367 7.496 11.404 5.378 14.235 4.074.404-3.178 1.699-5.378 3.074-6.6-10.839-1.141-22.243-5.378-22.243-24.283 0-5.378 1.94-9.778 5.014-13.2-.485-1.222-2.184-6.275.486-13.038 0 0 4.125-1.304 13.426 5.052a46.97 46.97 0 0 1 12.214-1.63c4.125 0 8.33.571 12.213 1.63 9.302-6.356 13.427-5.052 13.427-5.052 2.67 6.763.97 11.816.485 13.038 3.155 3.422 5.015 7.822 5.015 13.2 0 18.905-11.404 23.06-22.324 24.283 1.78 1.548 3.316 4.481 3.316 9.126 0 6.6-.08 11.897-.08 13.526 0 1.304.89 2.853 3.316 2.364 19.412-6.52 33.405-24.935 33.405-46.691C97.707 22 75.788 0 48.854 0z"
                              fill="#fff"/>
                    </svg>
                    <text x="25" y="11" dominant-baseline="middle" style="fill:white" font-size="13">
                        [[${#strings.abbreviate(username, 12)}]]
                    </text>
                    <rect x="0" y="23" width="[[${exp}]]" height="2" fill="#48ff00" rx="1"/>
                </g>
            </svg>
        </g>
    </a>
    <style>
        #frame1-[[${id}]] {
        animation: 1s frameToggle infinite;
        }
        #frame2-[[${id}]] {
        animation: 1s frameToggle infinite reverse;
        }
        #frame3-[[${id}]] {
        animation: 1s frameToggle infinite;
        }
        #frame4-[[${id}]] {
        animation: 1s frameToggle infinite reverse;
        }
        #standing-[[${id}]] {
        animation: standingToggle [[${motion.duration}]]s infinite;
        }
        #walking-[[${id}]] {
        animation: walkingToggle [[${motion.duration}]]s infinite;
        }
        #body-[[${id}]] {
        animation: move-body-[[${id}]] [[${motion.duration}]]s infinite;
        }
        #username-[[${id}]] {
        animation: move-username-[[${id}]] [[${motion.duration}]]s infinite;
        }
        @keyframes move-body-[[${id}]] {
        0%, 10% {
        transform: translate([[${motion.positions[0].x}]]%, [[${y}]]%) scaleX([[${motion.positions[0].direction}]]);
        }
        20%, 30% {
        transform: translate([[${motion.positions[1].x}]]%, [[${y}]]%) scaleX([[${motion.positions[1].direction}]]);
        }
        40%, 50% {
        transform: translate([[${motion.positions[2].x}]]%, [[${y}]]%) scaleX([[${motion.positions[2].direction}]]);
        }
        50.01% {
        transform: translate([[${motion.positions[3].x}]]%, [[${y}]]%) scaleX([[${motion.positions[3].direction}]]);
        }
        60%, 70% {
        transform: translate([[${motion.positions[4].x}]]%, [[${y}]]%) scaleX([[${motion.positions[4].direction}]]);
        }
        80%, 100% {
        transform: translate([[${motion.positions[5].x}]]%, [[${y}]]%) scaleX([[${motion.positions[5].direction}]]);
        }
        }
        @keyframes move-username-[[${id}]] {
        0%, 10% {
        transform: scaleX([[${motion.positions[0].direction}]])
        translateX([[${motion.positions[0].direction > 0 ? 0: -100}]]%);
        }
        20%, 30% {
        transform: scaleX([[${motion.positions[1].direction}]])
        translateX([[${motion.positions[1].direction > 0 ? 0: -100}]]%);
        }
        40%, 50% {
        transform: scaleX([[${motion.positions[2].direction}]])
        translateX([[${motion.positions[2].direction > 0 ? 0: -100}]]%);
        }
        50.01% {
        transform: scaleX([[${motion.positions[3].direction}]])
        translateX([[${motion.positions[3].direction > 0 ? 0: -100}]]%);
        }
        60%, 70% {
        transform: scaleX([[${motion.positions[4].direction}]])
        translateX([[${motion.positions[4].direction > 0 ? 0: -100}]]%);
        }
        80%, 100% {
        transform: scaleX([[${motion.positions[5].direction}]])
        translateX([[${motion.positions[5].direction > 0 ? 0: -100}]]%);
        }
        }
    </style>
</svg>
