<svg fill="none" overflow="visible" xmlns="http://www.w3.org/2000/svg">
    <a href="https://github.com/[[${username}]]">
        <g id="body-[[${id}]]">
            <svg viewBox="0 0 100 100" width="100" height="100" x="0" y="25">
                <g id="frame1-[[${id}]]">
                    <path stroke="#000000"
                          d="M6 3h9M84 3h9M6 4h9M84 4h9M6 5h9M84 5h9M6 6h3M15 6h12M72 6h12M90 6h3M6 7h3M15 7h12M72 7h12M90 7h3M6 8h3M15 8h12M72 8h12M90 8h3M9 9h3M27 9h6M39 9h9M66 9h6M87 9h3M9 10h3M27 10h6M39 10h9M66 10h6M87 10h3M9 11h3M27 11h6M39 11h9M66 11h6M87 11h3M12 12h6M24 12h3M30 12h3M36 12h3M45 12h3M63 12h3M81 12h6M12 13h6M24 13h3M30 13h3M36 13h3M45 13h3M63 13h3M81 13h6M12 14h6M24 14h3M30 14h3M36 14h3M45 14h3M63 14h3M81 14h6M3 15h9M18 15h9M30 15h3M36 15h3M42 15h3M60 15h3M75 15h6M87 15h9M3 16h9M18 16h9M30 16h3M36 16h3M42 16h3M60 16h3M75 16h6M87 16h9M3 17h9M18 17h9M30 17h3M36 17h3M42 17h3M60 17h3M75 17h6M87 17h9M3 18h3M21 18h3M30 18h6M39 18h3M60 18h3M93 18h3M3 19h3M21 19h3M30 19h6M39 19h3M60 19h3M93 19h3M3 20h3M21 20h3M30 20h6M39 20h3M60 20h3M93 20h3M6 21h6M18 21h3M24 21h6M39 21h3M60 21h3M87 21h6M6 22h6M18 22h3M24 22h6M39 22h3M60 22h3M87 22h6M6 23h6M18 23h3M24 23h6M39 23h3M60 23h3M87 23h6M12 24h6M21 24h6M33 24h6M57 24h3M72 24h15M12 25h6M21 25h6M33 25h6M57 25h3M72 25h15M12 26h6M21 26h6M33 26h6M57 26h3M72 26h15M6 27h12M39 27h3M57 27h3M84 27h9M6 28h12M39 28h3M57 28h3M84 28h9M6 29h12M39 29h3M57 29h3M84 29h9M6 30h3M12 30h6M27 30h6M39 30h3M54 30h3M69 30h6M90 30h3M6 31h3M12 31h6M27 31h6M39 31h3M54 31h3M69 31h6M90 31h3M6 32h3M12 32h6M27 32h6M39 32h3M54 32h3M69 32h6M90 32h3M9 33h6M24 33h3M30 33h3M42 33h3M51 33h3M75 33h15M9 34h6M24 34h3M30 34h3M42 34h3M51 34h3M75 34h15M9 35h6M24 35h3M30 35h3M42 35h3M51 35h3M75 35h15M9 36h3M24 36h3M45 36h6M66 36h3M78 36h3M9 37h3M24 37h3M45 37h6M66 37h3M78 37h3M9 38h3M24 38h3M45 38h6M66 38h3M78 38h3M6 39h3M30 39h6M39 39h3M69 39h6M81 39h3M6 40h3M30 40h6M39 40h3M69 40h6M81 40h3M6 41h3M30 41h6M39 41h3M69 41h6M81 41h3M6 42h3M15 42h3M21 42h12M36 42h3M54 42h3M60 42h6M69 42h3M75 42h9M6 43h3M15 43h3M21 43h12M36 43h3M54 43h3M60 43h6M69 43h3M75 43h9M6 44h3M15 44h3M21 44h12M36 44h3M54 44h3M60 44h6M69 44h3M75 44h9M9 45h3M18 45h6M30 45h3M48 45h6M57 45h6M66 45h6M9 46h3M18 46h6M30 46h3M48 46h6M57 46h6M66 46h6M9 47h3M18 47h6M30 47h3M48 47h6M57 47h6M66 47h6M12 48h9M33 48h3M54 48h3M78 48h3M12 49h9M33 49h3M54 49h3M78 49h3M12 50h9M33 50h3M54 50h3M78 50h3M33 51h3M42 51h3M57 51h3M75 51h6M33 52h3M42 52h3M57 52h3M75 52h6M33 53h3M42 53h3M57 53h3M75 53h6M36 54h3M45 54h6M57 54h9M72 54h3M78 54h3M36 55h3M45 55h6M57 55h9M72 55h3M78 55h3M36 56h3M45 56h6M57 56h9M72 56h3M78 56h3M36 57h3M42 57h6M51 57h3M57 57h3M66 57h6M75 57h3M36 58h3M42 58h6M51 58h3M57 58h3M66 58h6M75 58h3M36 59h3M42 59h6M51 59h3M57 59h3M66 59h6M75 59h3M33 60h6M45 60h3M51 60h3M60 60h6M72 60h3M33 61h6M45 61h3M51 61h3M60 61h6M72 61h3M33 62h6M45 62h3M51 62h3M60 62h6M72 62h3M30 63h3M36 63h3M42 63h3M51 63h3M57 63h3M63 63h9M30 64h3M36 64h3M42 64h3M51 64h3M57 64h3M63 64h9M30 65h3M36 65h3M42 65h3M51 65h3M57 65h3M63 65h9M30 66h12M51 66h15M30 67h12M51 67h15M30 68h12M51 68h15"/>
                    <path stroke="#ff7900"
                          d="M9 6h6M84 6h6M9 7h6M84 7h6M9 8h6M84 8h6M12 9h15M72 9h15M12 10h15M72 10h15M12 11h15M72 11h15M18 12h6M27 12h3M39 12h6M66 12h15M18 13h6M27 13h3M39 13h6M66 13h15M18 14h6M27 14h3M39 14h6M66 14h15M12 15h6M27 15h3M39 15h3M63 15h12M81 15h6M12 16h6M27 16h3M39 16h3M63 16h12M81 16h6M12 17h6M27 17h3M39 17h3M63 17h12M81 17h6M6 18h15M24 18h6M36 18h3M63 18h30M6 19h15M24 19h6M36 19h3M63 19h30M6 20h15M24 20h6M36 20h3M63 20h30M12 21h6M21 21h3M30 21h9M63 21h24M12 22h6M21 22h3M30 22h9M63 22h24M12 23h6M21 23h3M30 23h9M63 23h24M18 24h3M27 24h6M60 24h12M18 25h3M27 25h6M60 25h12M18 26h3M27 26h6M60 26h12M18 27h21M60 27h24M18 28h21M60 28h24M18 29h21M60 29h24M9 30h3M18 30h9M33 30h6M57 30h12M75 30h15M9 31h3M18 31h9M33 31h6M57 31h12M75 31h15M9 32h3M18 32h9M33 32h6M57 32h12M75 32h15M15 33h9M33 33h9M54 33h21M15 34h9M33 34h9M54 34h21M15 35h9M33 35h9M54 35h21M18 36h6M27 36h18M51 36h15M69 36h9M18 37h6M27 37h18M51 37h15M69 37h9M18 38h6M27 38h18M51 38h15M69 38h9M21 39h9M36 39h3M42 39h27M75 39h6M21 40h9M36 40h3M42 40h27M75 40h6M21 41h9M36 41h3M42 41h27M75 41h6M33 42h3M39 42h15M57 42h3M66 42h3M33 43h3M39 43h15M57 43h3M66 43h3M33 44h3M39 44h15M57 44h3M66 44h3M33 45h15M33 46h15M33 47h15M36 48h18M36 49h18M36 50h18M36 51h6M45 51h12M36 52h6M45 52h12M36 53h6M45 53h12M39 54h6M51 54h6M75 54h3M39 55h6M51 55h6M75 55h3M39 56h6M51 56h6M75 56h3M60 57h6M72 57h3M60 58h6M72 58h3M60 59h6M72 59h3M66 60h6M66 61h6M66 62h6"/>
                    <path stroke="#ffffff"
                          d="M27 33h3M27 34h3M27 35h3M33 63h3M54 63h3M60 63h3M33 64h3M54 64h3M60 64h3M33 65h3M54 65h3M60 65h3"/>
                    <path stroke="#ffd1bf"
                          d="M12 36h6M12 37h6M12 38h6M9 39h12M9 40h12M9 41h12M9 42h6M18 42h3M9 43h6M18 43h3M9 44h6M18 44h3M12 45h6M12 46h6M12 47h6M39 57h3M54 57h3M39 58h3M54 58h3M39 59h3M54 59h3M39 60h6M54 60h6M39 61h6M54 61h6M39 62h6M54 62h6M39 63h3M39 64h3M39 65h3"/>
                </g>
                <g id="frame2-[[${id}]]">
                    <path stroke="#000000"
                          d="M30 0h6M42 0h9M30 1h6M42 1h9M30 2h6M42 2h9M27 3h3M33 3h3M39 3h3M48 3h3M27 4h3M33 4h3M39 4h3M48 4h3M27 5h3M33 5h3M39 5h3M48 5h3M27 6h3M33 6h3M39 6h3M45 6h3M27 7h3M33 7h3M39 7h3M45 7h3M27 8h3M33 8h3M39 8h3M45 8h3M24 9h3M33 9h6M42 9h3M24 10h3M33 10h6M42 10h3M24 11h3M33 11h6M42 11h3M21 12h3M27 12h6M42 12h3M21 13h3M27 13h6M42 13h3M21 14h3M27 14h6M42 14h3M18 15h3M24 15h6M36 15h6M18 16h3M24 16h6M36 16h6M18 17h3M24 17h6M36 17h6M18 18h3M42 18h3M18 19h3M42 19h3M18 20h3M42 20h3M15 21h6M30 21h6M42 21h3M15 22h6M30 22h6M42 22h3M15 23h6M30 23h6M42 23h3M15 24h3M27 24h3M33 24h3M45 24h3M54 24h9M15 25h3M27 25h3M33 25h3M45 25h3M54 25h9M15 26h3M27 26h3M33 26h3M45 26h3M54 26h9M12 27h3M27 27h3M48 27h6M63 27h3M72 27h6M12 28h3M27 28h3M48 28h6M63 28h3M72 28h6M12 29h3M27 29h3M48 29h6M63 29h3M72 29h6M9 30h3M33 30h6M42 30h3M66 30h6M75 30h3M9 31h3M33 31h6M42 31h3M66 31h6M75 31h3M9 32h3M33 32h6M42 32h3M66 32h6M75 32h3M9 33h3M18 33h3M24 33h12M39 33h3M69 33h3M75 33h3M9 34h3M18 34h3M24 34h12M39 34h3M69 34h3M75 34h3M9 35h3M18 35h3M24 35h12M39 35h3M69 35h3M75 35h3M12 36h3M21 36h6M33 36h3M51 36h3M72 36h3M12 37h3M21 37h6M33 37h3M51 37h3M72 37h3M12 38h3M21 38h6M33 38h3M51 38h3M72 38h3M15 39h9M33 39h6M51 39h3M72 39h3M15 40h9M33 40h6M51 40h3M72 40h3M15 41h9M33 41h6M51 41h3M72 41h3M30 42h3M36 42h3M45 42h3M54 42h3M75 42h3M30 43h3M36 43h3M45 43h3M54 43h3M75 43h3M30 44h3M36 44h3M45 44h3M54 44h3M75 44h3M30 45h3M39 45h3M48 45h9M75 45h3M30 46h3M39 46h3M48 46h9M75 46h3M30 47h3M39 47h3M48 47h9M75 47h3M30 48h3M39 48h3M45 48h6M54 48h3M75 48h3M30 49h3M39 49h3M45 49h6M54 49h3M75 49h3M30 50h3M39 50h3M45 50h6M54 50h3M75 50h3M30 51h3M36 51h6M48 51h3M54 51h3M69 51h3M75 51h3M30 52h3M36 52h6M48 52h3M54 52h3M69 52h3M75 52h3M30 53h3M36 53h6M48 53h3M54 53h3M69 53h3M75 53h3M27 54h9M39 54h3M45 54h3M54 54h6M69 54h6M27 55h9M39 55h3M45 55h3M54 55h6M69 55h6M27 56h9M39 56h3M45 56h3M54 56h6M69 56h6M27 57h18M54 57h6M63 57h3M69 57h3M27 58h18M54 58h6M63 58h3M69 58h3M27 59h18M54 59h6M63 59h3M69 59h3M27 60h3M33 60h3M39 60h3M57 60h3M63 60h3M69 60h3M27 61h3M33 61h3M39 61h3M57 61h3M63 61h3M69 61h3M27 62h3M33 62h3M39 62h3M57 62h3M63 62h3M69 62h3M27 63h3M33 63h6M57 63h3M63 63h6M27 64h3M33 64h6M57 64h3M63 64h6M27 65h3M33 65h6M57 65h3M63 65h6M27 66h3M33 66h3M57 66h3M63 66h3M27 67h3M33 67h3M57 67h3M63 67h3M27 68h3M33 68h3M57 68h3M63 68h3M27 69h6M57 69h6M27 70h6M57 70h6M27 71h6M57 71h6"/>
                    <path stroke="#ff7900"
                          d="M30 3h3M42 3h6M30 4h3M42 4h6M30 5h3M42 5h6M30 6h3M42 6h3M30 7h3M42 7h3M30 8h3M42 8h3M27 9h6M39 9h3M27 10h6M39 10h3M27 11h6M39 11h3M24 12h3M33 12h9M24 13h3M33 13h9M24 14h3M33 14h9M21 15h3M30 15h6M21 16h3M30 16h6M21 17h3M30 17h6M21 18h21M21 19h21M21 20h21M21 21h9M36 21h6M21 22h9M36 22h6M21 23h9M36 23h6M18 24h9M36 24h9M18 25h9M36 25h9M18 26h9M36 26h9M21 27h6M30 27h18M54 27h9M21 28h6M30 28h18M54 28h9M21 29h6M30 29h18M54 29h9M24 30h9M39 30h3M45 30h21M72 30h3M24 31h9M39 31h3M45 31h21M72 31h3M24 32h9M39 32h3M45 32h21M72 32h3M36 33h3M42 33h27M72 33h3M36 34h3M42 34h27M72 34h3M36 35h3M42 35h27M72 35h3M36 36h15M54 36h18M36 37h15M54 37h18M36 38h15M54 38h18M39 39h12M54 39h18M39 40h12M54 40h18M39 41h12M54 41h18M33 42h3M39 42h6M48 42h6M57 42h18M33 43h3M39 43h6M48 43h6M57 43h18M33 44h3M39 44h6M48 44h6M57 44h18M33 45h6M42 45h6M57 45h18M33 46h6M42 46h6M57 46h18M33 47h6M42 47h6M57 47h18M33 48h6M57 48h18M33 49h6M57 49h18M33 50h6M57 50h18M33 51h3M57 51h12M72 51h3M33 52h3M57 52h12M72 52h3M33 53h3M57 53h12M72 53h3M60 54h9M60 55h9M60 56h9M60 57h3M66 57h3M60 58h3M66 58h3M60 59h3M66 59h3M30 60h3M36 60h3M60 60h3M66 60h3M30 61h3M36 61h3M60 61h3M66 61h3M30 62h3M36 62h3M60 62h3M66 62h3M30 63h3M60 63h3M30 64h3M60 64h3M30 65h3M60 65h3M30 66h3M60 66h3M30 67h3M60 67h3M30 68h3M60 68h3"/>
                    <path stroke="#ffffff" d="M30 24h3M30 25h3M30 26h3M36 54h3M36 55h3M36 56h3"/>
                    <path stroke="#ffd1bf"
                          d="M15 27h6M15 28h6M15 29h6M12 30h12M12 31h12M12 32h12M12 33h6M21 33h3M12 34h6M21 34h3M12 35h6M21 35h3M15 36h6M15 37h6M15 38h6M42 48h3M42 49h3M42 50h3M42 51h6M42 52h6M42 53h6M42 54h3M42 55h3M42 56h3"/>
                </g>
            </svg>
            <svg viewBox="0 0 100 30" width="100" height="30" x="0" y="0">
                <g id="username-[[${id}]]">
                    <rect x="0" y="0" width="100" height="20" fill="black" fill-opacity="0.8" rx="5"/>
                    <svg x="4" y="2.5" width="15" height="15" viewBox="0 0 100 100">
                        <path fill-rule="evenodd" clip-rule="evenodd"
                              d="M48.854 0C21.839 0 0 22 0 49.217c0 21.756 13.993 40.172 33.405 46.69 2.427.49 3.316-1.059 3.316-2.362 0-1.141-.08-5.052-.08-9.127-13.59 2.934-16.42-5.867-16.42-5.867-2.184-5.704-5.42-7.17-5.42-7.17-4.448-3.015.324-3.015.324-3.015 4.934.326 7.523 5.052 7.523 5.052 4.367 7.496 11.404 5.378 14.235 4.074.404-3.178 1.699-5.378 3.074-6.6-10.839-1.141-22.243-5.378-22.243-24.283 0-5.378 1.94-9.778 5.014-13.2-.485-1.222-2.184-6.275.486-13.038 0 0 4.125-1.304 13.426 5.052a46.97 46.97 0 0 1 12.214-1.63c4.125 0 8.33.571 12.213 1.63 9.302-6.356 13.427-5.052 13.427-5.052 2.67 6.763.97 11.816.485 13.038 3.155 3.422 5.015 7.822 5.015 13.2 0 18.905-11.404 23.06-22.324 24.283 1.78 1.548 3.316 4.481 3.316 9.126 0 6.6-.08 11.897-.08 13.526 0 1.304.89 2.853 3.316 2.364 19.412-6.52 33.405-24.935 33.405-46.691C97.707 22 75.788 0 48.854 0z"
                              fill="#fff"/>
                    </svg>
                    <text x="25" y="11" dominant-baseline="middle" style="fill:white" textLength="70"
                          lengthAdjust="spacing">
                        [[${username}]]
                    </text>
                    <rect x="0" y="23" width="[[${exp}]]" height="2" fill="#48ff00" rx="1"/>
                </g>
            </svg>
        </g>
    </a>
    <style>
        #frame1-[[${id}]] {
        animation: 1s frameToggle infinite;
        }
        #frame2-[[${id}]] {
        animation: 1s frameToggle infinite reverse;
        }
        #body-[[${id}]] {
        animation: move-body-[[${id}]] [[${motion.duration}]]s infinite;
        }
        #username-[[${id}]] {
        animation: move-username-[[${id}]] [[${motion.duration}]]s infinite;
        }
        @keyframes move-body-[[${id}]] {
        0%, 10% {
        transform: translate([[${motion.positions[0].x}]]%, [[${y}]]%) scaleX([[${motion.positions[0].direction}]]);
        }
        20%, 30% {
        transform: translate([[${motion.positions[1].x}]]%, [[${y}]]%) scaleX([[${motion.positions[1].direction}]]);
        }
        40%, 50% {
        transform: translate([[${motion.positions[2].x}]]%, [[${y}]]%) scaleX([[${motion.positions[2].direction}]]);
        }
        50.01% {
        transform: translate([[${motion.positions[3].x}]]%, [[${y}]]%) scaleX([[${motion.positions[3].direction}]]);
        }
        60%, 70% {
        transform: translate([[${motion.positions[4].x}]]%, [[${y}]]%) scaleX([[${motion.positions[4].direction}]]);
        }
        80%, 100% {
        transform: translate([[${motion.positions[5].x}]]%, [[${y}]]%) scaleX([[${motion.positions[5].direction}]]);
        }
        }
        @keyframes move-username-[[${id}]] {
        0%, 10% {
        transform: scaleX([[${motion.positions[0].direction}]])
        translateX([[${motion.positions[0].direction > 0 ? 0: -100}]]%);
        }
        20%, 30% {
        transform: scaleX([[${motion.positions[1].direction}]])
        translateX([[${motion.positions[1].direction > 0 ? 0: -100}]]%);
        }
        40%, 50% {
        transform: scaleX([[${motion.positions[2].direction}]])
        translateX([[${motion.positions[2].direction > 0 ? 0: -100}]]%);
        }
        50.01% {
        transform: scaleX([[${motion.positions[3].direction}]])
        translateX([[${motion.positions[3].direction > 0 ? 0: -100}]]%);
        }
        60%, 70% {
        transform: scaleX([[${motion.positions[4].direction}]])
        translateX([[${motion.positions[4].direction > 0 ? 0: -100}]]%);
        }
        80%, 100% {
        transform: scaleX([[${motion.positions[5].direction}]])
        translateX([[${motion.positions[5].direction > 0 ? 0: -100}]]%);
        }
        }
    </style>
</svg>
