<svg fill="none" overflow="visible" xmlns="http://www.w3.org/2000/svg">
    <a href="https://github.com/[[${username}]]">
        <g id="body-[[${id}]]">
            <svg viewBox="0 0 100 100" width="100" height="100" x="32" y="32">
                <g id="frame1-[[${id}]]">
                    <path stroke="#000000"
                          d="M24 0h3M24 1h3M24 2h3M18 6h3M30 6h3M18 7h3M30 7h3M18 8h3M30 8h3M6 9h9M6 10h9M6 11h9M3 12h3M15 12h3M24 12h6M3 13h3M15 13h3M24 13h6M3 14h3M15 14h3M24 14h6M3 15h3M12 15h12M30 15h3M3 16h3M12 16h12M30 16h3M3 17h3M12 17h12M30 17h3M3 18h3M9 18h3M24 18h3M30 18h3M3 19h3M9 19h3M24 19h3M30 19h3M3 20h3M9 20h3M24 20h3M30 20h3M6 21h3M27 21h3M6 22h3M27 22h3M6 23h3M27 23h3M6 24h3M21 24h3M27 24h3M6 25h3M21 25h3M27 25h3M6 26h3M21 26h3M27 26h3M6 27h6M18 27h6M27 27h3M6 28h6M18 28h6M27 28h3M6 29h6M18 29h6M27 29h3M3 30h3M9 30h6M27 30h3M3 31h3M9 31h6M27 31h3M3 32h3M9 32h6M27 32h3M3 33h3M9 33h3M30 33h3M3 34h3M9 34h3M30 34h3M3 35h3M9 35h3M30 35h3M3 36h3M9 36h6M33 36h3M3 37h3M9 37h6M33 37h3M3 38h3M9 38h6M33 38h3M6 39h30M6 40h30M6 41h30"/>
                    <path stroke="#85ff6a"
                          d="M6 12h9M6 13h9M6 14h9M6 15h6M24 15h6M6 16h6M24 16h6M6 17h6M24 17h6M6 18h3M12 18h12M27 18h3M6 19h3M12 19h12M27 19h3M6 20h3M12 20h12M27 20h3M9 21h18M9 22h18M9 23h18M12 24h6M24 24h3M12 25h6M24 25h3M12 26h6M24 26h3M12 27h6M24 27h3M12 28h6M24 28h3M12 29h6M24 29h3M6 30h3M15 30h12M6 31h3M15 31h12M6 32h3M15 32h12M6 33h3M15 33h15M6 34h3M15 34h15M6 35h3M15 35h15M6 36h3M15 36h18M6 37h3M15 37h18M6 38h3M15 38h18"/>
                    <path stroke="#ffffff" d="M9 24h3M18 24h3M9 25h3M18 25h3M9 26h3M18 26h3"/>
                    <path stroke="#ffff00" d="M12 33h3M12 34h3M12 35h3"/>
                </g>
                <g id="frame2-[[${id}]]">
                    <path stroke="#000000"
                          d="M24 6h3M24 7h3M24 8h3M21 9h3M27 9h3M21 10h3M27 10h3M21 11h3M27 11h3M6 12h9M24 12h3M6 13h9M24 13h3M6 14h9M24 14h3M3 15h3M15 15h3M24 15h6M3 16h3M15 16h3M24 16h6M3 17h3M15 17h3M24 17h6M3 18h3M12 18h12M30 18h3M3 19h3M12 19h12M30 19h3M3 20h3M12 20h12M30 20h3M3 21h3M9 21h3M24 21h3M30 21h3M3 22h3M9 22h3M24 22h3M30 22h3M3 23h3M9 23h3M24 23h3M30 23h3M6 24h3M27 24h3M6 25h3M27 25h3M6 26h3M27 26h3M6 27h3M21 27h3M27 27h3M6 28h3M21 28h3M27 28h3M6 29h3M21 29h3M27 29h3M6 30h6M18 30h6M27 30h3M6 31h6M18 31h6M27 31h3M6 32h6M18 32h6M27 32h3M3 33h3M9 33h6M30 33h3M3 34h3M9 34h6M30 34h3M3 35h3M9 35h6M30 35h3M3 36h3M9 36h3M33 36h3M3 37h3M9 37h3M33 37h3M3 38h3M9 38h3M33 38h3M6 39h30M6 40h30M6 41h30"/>
                    <path stroke="#85ff6a"
                          d="M24 9h3M24 10h3M24 11h3M6 15h9M6 16h9M6 17h9M6 18h6M24 18h6M6 19h6M24 19h6M6 20h6M24 20h6M6 21h3M12 21h12M27 21h3M6 22h3M12 22h12M27 22h3M6 23h3M12 23h12M27 23h3M9 24h18M9 25h18M9 26h18M12 27h6M24 27h3M12 28h6M24 28h3M12 29h6M24 29h3M12 30h6M24 30h3M12 31h6M24 31h3M12 32h6M24 32h3M6 33h3M15 33h15M6 34h3M15 34h15M6 35h3M15 35h15M6 36h3M15 36h18M6 37h3M15 37h18M6 38h3M15 38h18"/>
                    <path stroke="#ffffff" d="M9 27h3M18 27h3M9 28h3M18 28h3M9 29h3M18 29h3"/>
                    <path stroke="#ffff00" d="M12 36h3M12 37h3M12 38h3"/>
                </g>
            </svg>
            <svg viewBox="0 0 100 30" width="100" height="30" x="0" y="0">
                <g id="username-[[${id}]]">
                    <rect x="0" y="0" width="100" height="20" fill="black" fill-opacity="0.8" rx="5"/>
                    <svg x="4" y="2.5" width="15" height="15" viewBox="0 0 100 100">
                        <path fill-rule="evenodd" clip-rule="evenodd"
                              d="M48.854 0C21.839 0 0 22 0 49.217c0 21.756 13.993 40.172 33.405 46.69 2.427.49 3.316-1.059 3.316-2.362 0-1.141-.08-5.052-.08-9.127-13.59 2.934-16.42-5.867-16.42-5.867-2.184-5.704-5.42-7.17-5.42-7.17-4.448-3.015.324-3.015.324-3.015 4.934.326 7.523 5.052 7.523 5.052 4.367 7.496 11.404 5.378 14.235 4.074.404-3.178 1.699-5.378 3.074-6.6-10.839-1.141-22.243-5.378-22.243-24.283 0-5.378 1.94-9.778 5.014-13.2-.485-1.222-2.184-6.275.486-13.038 0 0 4.125-1.304 13.426 5.052a46.97 46.97 0 0 1 12.214-1.63c4.125 0 8.33.571 12.213 1.63 9.302-6.356 13.427-5.052 13.427-5.052 2.67 6.763.97 11.816.485 13.038 3.155 3.422 5.015 7.822 5.015 13.2 0 18.905-11.404 23.06-22.324 24.283 1.78 1.548 3.316 4.481 3.316 9.126 0 6.6-.08 11.897-.08 13.526 0 1.304.89 2.853 3.316 2.364 19.412-6.52 33.405-24.935 33.405-46.691C97.707 22 75.788 0 48.854 0z"
                              fill="#fff"/>
                    </svg>
                    <text x="25" y="11" dominant-baseline="middle" style="fill:white" font-size="13">
                        [[${#strings.abbreviate(username, 12)}]]
                    </text>
                    <rect x="0" y="23" width="[[${exp}]]" height="2" fill="#48ff00" rx="1"/>
                </g>
            </svg>
        </g>
    </a>
    <style>
        #frame1-[[${id}]] {
        animation: 1s frameToggle infinite;
        }
        #frame2-[[${id}]] {
        animation: 1s frameToggle infinite reverse;
        }
        #body-[[${id}]] {
        animation: move-body-[[${id}]] [[${motion.duration}]]s infinite;
        }
        #username-[[${id}]] {
        animation: move-username-[[${id}]] [[${motion.duration}]]s infinite;
        }
        @keyframes move-body-[[${id}]] {
        0%, 10% {
        transform: translate([[${motion.positions[0].x}]]%, [[${y}]]%) scaleX([[${motion.positions[0].direction}]]);
        }
        20%, 30% {
        transform: translate([[${motion.positions[1].x}]]%, [[${y}]]%) scaleX([[${motion.positions[1].direction}]]);
        }
        40%, 50% {
        transform: translate([[${motion.positions[2].x}]]%, [[${y}]]%) scaleX([[${motion.positions[2].direction}]]);
        }
        50.01% {
        transform: translate([[${motion.positions[3].x}]]%, [[${y}]]%) scaleX([[${motion.positions[3].direction}]]);
        }
        60%, 70% {
        transform: translate([[${motion.positions[4].x}]]%, [[${y}]]%) scaleX([[${motion.positions[4].direction}]]);
        }
        80%, 100% {
        transform: translate([[${motion.positions[5].x}]]%, [[${y}]]%) scaleX([[${motion.positions[5].direction}]]);
        }
        }
        @keyframes move-username-[[${id}]] {
        0%, 10% {
        transform: scaleX([[${motion.positions[0].direction}]])
        translateX([[${motion.positions[0].direction > 0 ? 0: -100}]]%);
        }
        20%, 30% {
        transform: scaleX([[${motion.positions[1].direction}]])
        translateX([[${motion.positions[1].direction > 0 ? 0: -100}]]%);
        }
        40%, 50% {
        transform: scaleX([[${motion.positions[2].direction}]])
        translateX([[${motion.positions[2].direction > 0 ? 0: -100}]]%);
        }
        50.01% {
        transform: scaleX([[${motion.positions[3].direction}]])
        translateX([[${motion.positions[3].direction > 0 ? 0: -100}]]%);
        }
        60%, 70% {
        transform: scaleX([[${motion.positions[4].direction}]])
        translateX([[${motion.positions[4].direction > 0 ? 0: -100}]]%);
        }
        80%, 100% {
        transform: scaleX([[${motion.positions[5].direction}]])
        translateX([[${motion.positions[5].direction > 0 ? 0: -100}]]%);
        }
        }
    </style>
</svg>
