<svg fill="none" overflow="visible" xmlns="http://www.w3.org/2000/svg">
    <a href="https://github.com/[[${username}]]">
        <g id="body-[[${id}]]">
            [# th:switch="${username.length() % 4}"]
            [# th:case="0"]
            <svg viewBox="0 0 150 150" width="100" height="100" x="35" y="39">
                <g id="frame1-[[${id}]]">
                    <path stroke="#309ecd"
                          d="M16 8h16M16 9h16M16 10h16M16 11h16M12 12h4M32 12h4M12 13h4M32 13h4M12 14h4M32 14h4M12 15h4M32 15h4"/>
                    <path stroke="#447ee5"
                          d="M16 12h16M16 13h16M16 14h16M16 15h16M12 16h4M28 16h8M12 17h4M28 17h8M12 18h4M28 18h8M12 19h4M28 19h8M32 20h4M32 21h4M32 22h4M32 23h4M8 24h4M32 24h8M8 25h4M32 25h8M8 26h4M32 26h8M8 27h4M32 27h8M32 28h4M32 29h4M32 30h4M32 31h4M8 32h4M36 32h4M8 33h4M36 33h4M8 34h4M36 34h4M8 35h4M36 35h4M32 36h4M32 37h4M32 38h4M32 39h4M8 40h4M36 40h4M8 41h4M36 41h4M8 42h4M36 42h4M8 43h4M36 43h4M12 44h24M12 45h24M12 46h24M12 47h24"/>
                    <path stroke="#2684b5"
                          d="M8 16h4M36 16h4M8 17h4M36 17h4M8 18h4M36 18h4M8 19h4M36 19h4M8 20h4M36 20h4M8 21h4M36 21h4M8 22h4M36 22h4M8 23h4M36 23h4M4 28h4M40 28h4M4 29h4M40 29h4M4 30h4M40 30h4M4 31h4M40 31h4"/>
                    <path stroke="#639bff"
                          d="M16 16h12M16 17h12M16 18h12M16 19h12M12 20h20M12 21h20M12 22h20M12 23h20M12 24h20M12 25h20M12 26h20M12 27h20M12 28h20M12 29h20M12 30h20M12 31h20M12 36h20M12 37h20M12 38h20M12 39h20"/>
                    <path stroke="#db9e40"
                          d="M4 24h4M40 24h4M4 25h4M40 25h4M4 26h4M40 26h4M4 27h4M40 27h4M4 32h4M40 32h4M4 33h4M40 33h4M4 34h4M40 34h4M4 35h4M40 35h4"/>
                    <path stroke="#ebd067"
                          d="M8 28h4M36 28h4M8 29h4M36 29h4M8 30h4M36 30h4M8 31h4M36 31h4M32 32h4M32 33h4M32 34h4M32 35h4M8 36h4M36 36h4M8 37h4M36 37h4M8 38h4M36 38h4M8 39h4M36 39h4M12 40h4M28 40h8M12 41h4M28 41h8M12 42h4M28 42h8M12 43h4M28 43h8"/>
                    <path stroke="#fff57b"
                          d="M12 32h20M12 33h20M12 34h20M12 35h20M16 40h12M16 41h12M16 42h12M16 43h12"/>
                    <path stroke="#096a8f"
                          d="M4 36h4M40 36h4M4 37h4M40 37h4M4 38h4M40 38h4M4 39h4M40 39h4M4 40h4M40 40h4M4 41h4M40 41h4M4 42h4M40 42h4M4 43h4M40 43h4M8 44h4M36 44h4M8 45h4M36 45h4M8 46h4M36 46h4M8 47h4M36 47h4M12 48h24M12 49h24M12 50h24M12 51h24"/>
                </g>
                <g id="frame2-[[${id}]]">
                    <path stroke="#309ecd"
                          d="M16 4h16M16 5h16M16 6h16M16 7h16M12 8h4M32 8h4M12 9h4M32 9h4M12 10h4M32 10h4M12 11h4M32 11h4"/>
                    <path stroke="#447ee5"
                          d="M16 8h16M16 9h16M16 10h16M16 11h16M12 12h4M28 12h8M12 13h4M28 13h8M12 14h4M28 14h8M12 15h4M28 15h8M32 16h4M32 17h4M32 18h4M32 19h4M8 20h4M32 20h8M8 21h4M32 21h8M8 22h4M32 22h8M8 23h4M32 23h8M32 24h4M32 25h4M32 26h4M32 27h4M8 28h4M36 28h4M8 29h4M36 29h4M8 30h4M36 30h4M8 31h4M36 31h4M32 32h4M32 33h4M32 34h4M32 35h4M8 40h4M36 40h4M8 41h4M36 41h4M8 42h4M36 42h4M8 43h4M36 43h4M12 44h24M12 45h24M12 46h24M12 47h24"/>
                    <path stroke="#2684b5"
                          d="M8 12h4M36 12h4M8 13h4M36 13h4M8 14h4M36 14h4M8 15h4M36 15h4M8 16h4M36 16h4M8 17h4M36 17h4M8 18h4M36 18h4M8 19h4M36 19h4M4 24h4M40 24h4M4 25h4M40 25h4M4 26h4M40 26h4M4 27h4M40 27h4"/>
                    <path stroke="#639bff"
                          d="M16 12h12M16 13h12M16 14h12M16 15h12M12 16h20M12 17h20M12 18h20M12 19h20M12 20h20M12 21h20M12 22h20M12 23h20M12 24h20M12 25h20M12 26h20M12 27h20M12 32h20M12 33h20M12 34h20M12 35h20"/>
                    <path stroke="#db9e40"
                          d="M4 20h4M40 20h4M4 21h4M40 21h4M4 22h4M40 22h4M4 23h4M40 23h4M4 28h4M40 28h4M4 29h4M40 29h4M4 30h4M40 30h4M4 31h4M40 31h4M4 32h4M40 32h4M4 33h4M40 33h4M4 34h4M40 34h4M4 35h4M40 35h4"/>
                    <path stroke="#ebd067"
                          d="M8 24h4M36 24h4M8 25h4M36 25h4M8 26h4M36 26h4M8 27h4M36 27h4M32 28h4M32 29h4M32 30h4M32 31h4M8 32h4M36 32h4M8 33h4M36 33h4M8 34h4M36 34h4M8 35h4M36 35h4M8 36h4M32 36h8M8 37h4M32 37h8M8 38h4M32 38h8M8 39h4M32 39h8M12 40h4M28 40h8M12 41h4M28 41h8M12 42h4M28 42h8M12 43h4M28 43h8"/>
                    <path stroke="#fff57b"
                          d="M12 28h20M12 29h20M12 30h20M12 31h20M12 36h20M12 37h20M12 38h20M12 39h20M16 40h12M16 41h12M16 42h12M16 43h12"/>
                    <path stroke="#096a8f"
                          d="M4 36h4M40 36h4M4 37h4M40 37h4M4 38h4M40 38h4M4 39h4M40 39h4M4 40h4M40 40h4M4 41h4M40 41h4M4 42h4M40 42h4M4 43h4M40 43h4M8 44h4M36 44h4M8 45h4M36 45h4M8 46h4M36 46h4M8 47h4M36 47h4M12 48h24M12 49h24M12 50h24M12 51h24"/>
                </g>
            </svg>
            [/]
            [# th:case="1"]
            <svg viewBox="0 0 150 150" width="100" height="100" x="35" y="39">
                <g id="frame1-[[${id}]]">
                    <path stroke="#24c8b6" d="M16 8h16M16 9h16M16 10h16M16 11h16M12 12h4M12 13h4M12 14h4M12 15h4"/>
                    <path stroke="#40d78c"
                          d="M16 12h16M16 13h16M16 14h16M16 15h16M28 16h4M28 17h4M28 18h4M28 19h4M8 24h4M32 24h4M8 25h4M32 25h4M8 26h4M32 26h4M8 27h4M32 27h4M8 28h4M32 28h8M8 29h4M32 29h8M8 30h4M32 30h8M8 31h4M32 31h8M36 36h4M36 37h4M36 38h4M36 39h4M8 40h8M32 40h8M8 41h8M32 41h8M8 42h8M32 42h8M8 43h8M32 43h8M12 44h8M28 44h8M12 45h8M28 45h8M12 46h8M28 46h8M12 47h8M28 47h8"/>
                    <path stroke="#260578" d="M32 12h4M32 13h4M32 14h4M32 15h4"/>
                    <path stroke="#240352"
                          d="M8 16h4M36 16h4M8 17h4M36 17h4M8 18h4M36 18h4M8 19h4M36 19h4M8 20h4M36 20h4M8 21h4M36 21h4M8 22h4M36 22h4M8 23h4M36 23h4M40 24h4M40 25h4M40 26h4M40 27h4M40 32h4M40 33h4M40 34h4M40 35h4M4 36h4M4 37h4M4 38h4M4 39h4"/>
                    <path stroke="#1c0a68"
                          d="M12 16h4M32 16h4M12 17h4M32 17h4M12 18h4M32 18h4M12 19h4M32 19h4M32 20h4M32 21h4M32 22h4M32 23h4M36 24h4M36 25h4M36 26h4M36 27h4M8 32h4M32 32h8M8 33h4M32 33h8M8 34h4M32 34h8M8 35h4M32 35h8M8 36h4M32 36h4M8 37h4M32 37h4M8 38h4M32 38h4M8 39h4M32 39h4M28 40h4M28 41h4M28 42h4M28 43h4M20 44h8M20 45h8M20 46h8M20 47h8"/>
                    <path stroke="#7bffb1"
                          d="M16 16h12M16 17h12M16 18h12M16 19h12M20 20h12M20 21h12M20 22h12M20 23h12M20 24h12M20 25h12M20 26h12M20 27h12M20 28h12M20 29h12M20 30h12M20 31h12M20 32h12M20 33h12M20 34h12M20 35h12M16 36h12M16 37h12M16 38h12M16 39h12M16 40h8M16 41h8M16 42h8M16 43h8"/>
                    <path stroke="#1a1a86"
                          d="M12 20h8M12 21h8M12 22h8M12 23h8M12 24h8M12 25h8M12 26h8M12 27h8M12 28h8M12 29h8M12 30h8M12 31h8M12 32h8M12 33h8M12 34h8M12 35h8M12 36h4M28 36h4M12 37h4M28 37h4M12 38h4M28 38h4M12 39h4M28 39h4M24 40h4M24 41h4M24 42h4M24 43h4"/>
                    <path stroke="#19a595"
                          d="M4 24h4M4 25h4M4 26h4M4 27h4M4 28h4M40 28h4M4 29h4M40 29h4M4 30h4M40 30h4M4 31h4M40 31h4M4 32h4M4 33h4M4 34h4M4 35h4"/>
                    <path stroke="#068173"
                          d="M40 36h4M40 37h4M40 38h4M40 39h4M40 40h4M40 41h4M40 42h4M40 43h4M8 44h4M36 44h4M8 45h4M36 45h4M8 46h4M36 46h4M8 47h4M36 47h4M12 48h8M28 48h8M12 49h8M28 49h8M12 50h8M28 50h8M12 51h8M28 51h8"/>
                    <path stroke="#160035" d="M4 40h4M4 41h4M4 42h4M4 43h4M20 48h8M20 49h8M20 50h8M20 51h8"/>
                </g>
                <g id="frame2-[[${id}]]">
                    <path stroke="#24c8b6" d="M16 4h16M16 5h16M16 6h16M16 7h16M12 8h4M12 9h4M12 10h4M12 11h4"/>
                    <path stroke="#40d78c"
                          d="M16 8h16M16 9h16M16 10h16M16 11h16M28 12h4M28 13h4M28 14h4M28 15h4M8 20h4M32 20h4M8 21h4M32 21h4M8 22h4M32 22h4M8 23h4M32 23h4M8 24h4M32 24h8M8 25h4M32 25h8M8 26h4M32 26h8M8 27h4M32 27h8M36 36h4M36 37h4M36 38h4M36 39h4M8 40h8M32 40h8M8 41h8M32 41h8M8 42h8M32 42h8M8 43h8M32 43h8M12 44h8M28 44h8M12 45h8M28 45h8M12 46h8M28 46h8M12 47h8M28 47h8"/>
                    <path stroke="#260578" d="M32 8h4M32 9h4M32 10h4M32 11h4"/>
                    <path stroke="#240352"
                          d="M8 12h4M36 12h4M8 13h4M36 13h4M8 14h4M36 14h4M8 15h4M36 15h4M8 16h4M36 16h4M8 17h4M36 17h4M8 18h4M36 18h4M8 19h4M36 19h4M40 20h4M40 21h4M40 22h4M40 23h4M40 28h4M40 29h4M40 30h4M40 31h4M4 32h4M40 32h4M4 33h4M40 33h4M4 34h4M40 34h4M4 35h4M40 35h4"/>
                    <path stroke="#1c0a68"
                          d="M12 12h4M32 12h4M12 13h4M32 13h4M12 14h4M32 14h4M12 15h4M32 15h4M32 16h4M32 17h4M32 18h4M32 19h4M36 20h4M36 21h4M36 22h4M36 23h4M8 28h4M32 28h8M8 29h4M32 29h8M8 30h4M32 30h8M8 31h4M32 31h8M8 32h4M32 32h8M8 33h4M32 33h8M8 34h4M32 34h8M8 35h4M32 35h8M8 36h4M32 36h4M8 37h4M32 37h4M8 38h4M32 38h4M8 39h4M32 39h4M28 40h4M28 41h4M28 42h4M28 43h4M20 44h8M20 45h8M20 46h8M20 47h8"/>
                    <path stroke="#7bffb1"
                          d="M16 12h12M16 13h12M16 14h12M16 15h12M20 16h12M20 17h12M20 18h12M20 19h12M20 20h12M20 21h12M20 22h12M20 23h12M20 24h12M20 25h12M20 26h12M20 27h12M20 28h12M20 29h12M20 30h12M20 31h12M16 32h12M16 33h12M16 34h12M16 35h12M12 36h12M12 37h12M12 38h12M12 39h12M16 40h4M16 41h4M16 42h4M16 43h4"/>
                    <path stroke="#1a1a86"
                          d="M12 16h8M12 17h8M12 18h8M12 19h8M12 20h8M12 21h8M12 22h8M12 23h8M12 24h8M12 25h8M12 26h8M12 27h8M12 28h8M12 29h8M12 30h8M12 31h8M12 32h4M28 32h4M12 33h4M28 33h4M12 34h4M28 34h4M12 35h4M28 35h4M24 36h8M24 37h8M24 38h8M24 39h8M20 40h8M20 41h8M20 42h8M20 43h8"/>
                    <path stroke="#19a595"
                          d="M4 20h4M4 21h4M4 22h4M4 23h4M4 24h4M40 24h4M4 25h4M40 25h4M4 26h4M40 26h4M4 27h4M40 27h4M4 28h4M4 29h4M4 30h4M4 31h4"/>
                    <path stroke="#160035"
                          d="M4 36h4M4 37h4M4 38h4M4 39h4M4 40h4M4 41h4M4 42h4M4 43h4M20 48h8M20 49h8M20 50h8M20 51h8"/>
                    <path stroke="#068173"
                          d="M40 36h4M40 37h4M40 38h4M40 39h4M40 40h4M40 41h4M40 42h4M40 43h4M8 44h4M36 44h4M8 45h4M36 45h4M8 46h4M36 46h4M8 47h4M36 47h4M12 48h8M28 48h8M12 49h8M28 49h8M12 50h8M28 50h8M12 51h8M28 51h8"/>
                </g>
            </svg>
            [/]
            [# th:case="2"]
            <svg viewBox="0 0 150 150" width="100" height="100" x="35" y="39">
                <g id="frame1-[[${id}]]">
                    <path stroke="#a467a7" d="M16 8h12M16 9h12M16 10h12M16 11h12M12 12h4M12 13h4M12 14h4M12 15h4"/>
                    <path stroke="#bb154c" d="M28 8h4M28 9h4M28 10h4M28 11h4M32 12h4M32 13h4M32 14h4M32 15h4"/>
                    <path stroke="#c6a4d1"
                          d="M16 12h12M16 13h12M16 14h12M16 15h12M32 24h4M32 25h4M32 26h4M32 27h4M32 28h8M32 29h8M32 30h8M32 31h8M32 32h8M32 33h8M32 34h8M32 35h8M12 40h4M12 41h4M12 42h4M12 43h4M12 44h8M12 45h8M12 46h8M12 47h8"/>
                    <path stroke="#e13246"
                          d="M28 12h4M28 13h4M28 14h4M28 15h4M12 16h4M28 16h8M12 17h4M28 17h8M12 18h4M28 18h8M12 19h4M28 19h8M32 20h4M32 21h4M32 22h4M32 23h4M8 24h4M36 24h4M8 25h4M36 25h4M8 26h4M36 26h4M8 27h4M36 27h4M8 28h4M8 29h4M8 30h4M8 31h4M8 32h4M8 33h4M8 34h4M8 35h4M8 36h4M32 36h8M8 37h4M32 37h8M8 38h4M32 38h8M8 39h4M32 39h8M8 40h4M28 40h12M8 41h4M28 41h12M8 42h4M28 42h12M8 43h4M28 43h12M20 44h16M20 45h16M20 46h16M20 47h16"/>
                    <path stroke="#a5083c"
                          d="M8 16h4M36 16h4M8 17h4M36 17h4M8 18h4M36 18h4M8 19h4M36 19h4M8 20h4M36 20h4M8 21h4M36 21h4M8 22h4M36 22h4M8 23h4M36 23h4M4 24h4M40 24h4M4 25h4M40 25h4M4 26h4M40 26h4M4 27h4M40 27h4M4 28h4M4 29h4M4 30h4M4 31h4M4 32h4M4 33h4M4 34h4M4 35h4M4 36h4M40 36h4M4 37h4M40 37h4M4 38h4M40 38h4M4 39h4M40 39h4"/>
                    <path stroke="#d7c5e9"
                          d="M16 16h12M16 17h12M16 18h12M16 19h12M20 20h12M20 21h12M20 22h12M20 23h12M20 24h12M20 25h12M20 26h12M20 27h12M20 28h12M20 29h12M20 30h12M20 31h12M20 32h12M20 33h12M20 34h12M20 35h12M16 36h12M16 37h12M16 38h12M16 39h12M16 40h8M16 41h8M16 42h8M16 43h8"/>
                    <path stroke="#ff5656"
                          d="M12 20h8M12 21h8M12 22h8M12 23h8M12 24h8M12 25h8M12 26h8M12 27h8M12 28h8M12 29h8M12 30h8M12 31h8M12 32h8M12 33h8M12 34h8M12 35h8M12 36h4M28 36h4M12 37h4M28 37h4M12 38h4M28 38h4M12 39h4M28 39h4M24 40h4M24 41h4M24 42h4M24 43h4"/>
                    <path stroke="#6d4178" d="M40 28h4M40 29h4M40 30h4M40 31h4M40 32h4M40 33h4M40 34h4M40 35h4"/>
                    <path stroke="#770128"
                          d="M4 40h4M40 40h4M4 41h4M40 41h4M4 42h4M40 42h4M4 43h4M40 43h4M36 44h4M36 45h4M36 46h4M36 47h4M20 48h16M20 49h16M20 50h16M20 51h16"/>
                    <path stroke="#2c1937" d="M8 44h4M8 45h4M8 46h4M8 47h4M12 48h8M12 49h8M12 50h8M12 51h8"/>
                </g>
                <g id="frame2-[[${id}]]">
                    <path stroke="#a467a7" d="M16 4h12M16 5h12M16 6h12M16 7h12M12 8h4M12 9h4M12 10h4M12 11h4"/>
                    <path stroke="#bb154c" d="M28 4h4M28 5h4M28 6h4M28 7h4M32 8h4M32 9h4M32 10h4M32 11h4"/>
                    <path stroke="#c6a4d1"
                          d="M16 8h12M16 9h12M16 10h12M16 11h12M32 20h4M32 21h4M32 22h4M32 23h4M32 24h8M32 25h8M32 26h8M32 27h8M32 28h8M32 29h8M32 30h8M32 31h8M12 40h4M12 41h4M12 42h4M12 43h4M12 44h8M12 45h8M12 46h8M12 47h8"/>
                    <path stroke="#e13246"
                          d="M28 8h4M28 9h4M28 10h4M28 11h4M12 12h4M28 12h8M12 13h4M28 13h8M12 14h4M28 14h8M12 15h4M28 15h8M32 16h4M32 17h4M32 18h4M32 19h4M8 20h4M36 20h4M8 21h4M36 21h4M8 22h4M36 22h4M8 23h4M36 23h4M8 24h4M8 25h4M8 26h4M8 27h4M8 28h4M8 29h4M8 30h4M8 31h4M8 32h4M32 32h8M8 33h4M32 33h8M8 34h4M32 34h8M8 35h4M32 35h8M8 36h4M32 36h8M8 37h4M32 37h8M8 38h4M32 38h8M8 39h4M32 39h8M8 40h4M28 40h12M8 41h4M28 41h12M8 42h4M28 42h12M8 43h4M28 43h12M20 44h16M20 45h16M20 46h16M20 47h16"/>
                    <path stroke="#a5083c"
                          d="M8 12h4M36 12h4M8 13h4M36 13h4M8 14h4M36 14h4M8 15h4M36 15h4M8 16h4M36 16h4M8 17h4M36 17h4M8 18h4M36 18h4M8 19h4M36 19h4M4 20h4M40 20h4M4 21h4M40 21h4M4 22h4M40 22h4M4 23h4M40 23h4M4 24h4M4 25h4M4 26h4M4 27h4M4 28h4M4 29h4M4 30h4M4 31h4M4 32h4M40 32h4M4 33h4M40 33h4M4 34h4M40 34h4M4 35h4M40 35h4"/>
                    <path stroke="#d7c5e9"
                          d="M16 12h12M16 13h12M16 14h12M16 15h12M20 16h12M20 17h12M20 18h12M20 19h12M20 20h12M20 21h12M20 22h12M20 23h12M20 24h12M20 25h12M20 26h12M20 27h12M20 28h12M20 29h12M20 30h12M20 31h12M16 32h16M16 33h16M16 34h16M16 35h16M12 36h16M12 37h16M12 38h16M12 39h16M16 40h8M16 41h8M16 42h8M16 43h8"/>
                    <path stroke="#ff5656"
                          d="M12 16h8M12 17h8M12 18h8M12 19h8M12 20h8M12 21h8M12 22h8M12 23h8M12 24h8M12 25h8M12 26h8M12 27h8M12 28h8M12 29h8M12 30h8M12 31h8M12 32h4M12 33h4M12 34h4M12 35h4M28 36h4M28 37h4M28 38h4M28 39h4M24 40h4M24 41h4M24 42h4M24 43h4"/>
                    <path stroke="#6d4178" d="M40 24h4M40 25h4M40 26h4M40 27h4M40 28h4M40 29h4M40 30h4M40 31h4"/>
                    <path stroke="#770128"
                          d="M4 36h4M40 36h4M4 37h4M40 37h4M4 38h4M40 38h4M4 39h4M40 39h4M4 40h4M40 40h4M4 41h4M40 41h4M4 42h4M40 42h4M4 43h4M40 43h4M36 44h4M36 45h4M36 46h4M36 47h4M20 48h16M20 49h16M20 50h16M20 51h16"/>
                    <path stroke="#2c1937" d="M8 44h4M8 45h4M8 46h4M8 47h4M12 48h8M12 49h8M12 50h8M12 51h8"/>
                </g>
            </svg>
            [/]
            [# th:case="3"]
            <svg viewBox="0 0 150 150" width="100" height="100" x="35" y="39">
                <g id="frame1-[[${id}]]">
                    <path stroke="#4a0704"
                          d="M16 8h8M28 8h4M16 9h8M28 9h4M16 10h8M28 10h4M16 11h8M28 11h4M12 12h4M32 12h4M12 13h4M32 13h4M12 14h4M32 14h4M12 15h4M32 15h4"/>
                    <path stroke="#bd493e" d="M24 8h4M24 9h4M24 10h4M24 11h4"/>
                    <path stroke="#5b1007"
                          d="M16 12h8M28 12h4M16 13h8M28 13h4M16 14h8M28 14h4M16 15h8M28 15h4M12 16h4M28 16h8M12 17h4M28 17h8M12 18h4M28 18h8M12 19h4M28 19h8M32 20h4M32 21h4M32 22h4M32 23h4M8 24h4M8 25h4M8 26h4M8 27h4M36 28h4M36 29h4M36 30h4M36 31h4M32 32h8M32 33h8M32 34h8M32 35h8M8 36h4M32 36h4M8 37h4M32 37h4M8 38h4M32 38h4M8 39h4M32 39h4M8 40h8M28 40h4M8 41h8M28 41h4M8 42h8M28 42h4M8 43h8M28 43h4M16 44h12M16 45h12M16 46h12M16 47h12"/>
                    <path stroke="#9e4d3a"
                          d="M24 12h4M24 13h4M24 14h4M24 15h4M32 24h8M32 25h8M32 26h8M32 27h8M8 28h4M32 28h4M8 29h4M32 29h4M8 30h4M32 30h4M8 31h4M32 31h4M8 32h4M8 33h4M8 34h4M8 35h4M36 36h4M36 37h4M36 38h4M36 39h4M32 40h8M32 41h8M32 42h8M32 43h8M12 44h4M28 44h8M12 45h4M28 45h8M12 46h4M28 46h8M12 47h4M28 47h8"/>
                    <path stroke="#390206"
                          d="M8 16h4M8 17h4M8 18h4M8 19h4M8 20h4M8 21h4M8 22h4M8 23h4M4 24h4M40 24h4M4 25h4M40 25h4M4 26h4M40 26h4M4 27h4M40 27h4M4 28h4M40 28h4M4 29h4M40 29h4M4 30h4M40 30h4M4 31h4M40 31h4M40 32h4M40 33h4M40 34h4M40 35h4"/>
                    <path stroke="#69200f"
                          d="M16 16h4M16 17h4M16 18h4M16 19h4M12 20h4M24 20h8M12 21h4M24 21h8M12 22h4M24 22h8M12 23h4M24 23h8M20 24h12M20 25h12M20 26h12M20 27h12M16 28h12M16 29h12M16 30h12M16 31h12M12 32h12M12 33h12M12 34h12M12 35h12M12 36h8M28 36h4M12 37h8M28 37h4M12 38h8M28 38h4M12 39h8M28 39h4M24 40h4M24 41h4M24 42h4M24 43h4"/>
                    <path stroke="#b96c5a"
                          d="M20 16h8M20 17h8M20 18h8M20 19h8M16 20h8M16 21h8M16 22h8M16 23h8M12 24h8M12 25h8M12 26h8M12 27h8M12 28h4M28 28h4M12 29h4M28 29h4M12 30h4M28 30h4M12 31h4M28 31h4M24 32h8M24 33h8M24 34h8M24 35h8M20 36h8M20 37h8M20 38h8M20 39h8M16 40h8M16 41h8M16 42h8M16 43h8"/>
                    <path stroke="#a32e33"
                          d="M36 16h4M36 17h4M36 18h4M36 19h4M36 20h4M36 21h4M36 22h4M36 23h4M4 32h4M4 33h4M4 34h4M4 35h4M4 36h4M4 37h4M4 38h4M4 39h4"/>
                    <path stroke="#8e1a36"
                          d="M40 36h4M40 37h4M40 38h4M40 39h4M40 40h4M40 41h4M40 42h4M40 43h4M36 44h4M36 45h4M36 46h4M36 47h4M12 48h4M24 48h12M12 49h4M24 49h12M12 50h4M24 50h12M12 51h4M24 51h12"/>
                    <path stroke="#25000b"
                          d="M4 40h4M4 41h4M4 42h4M4 43h4M8 44h4M8 45h4M8 46h4M8 47h4M16 48h8M16 49h8M16 50h8M16 51h8"/>
                </g>
                <g id="frame2-[[${id}]]">
                    <path stroke="#4a0704"
                          d="M16 4h8M28 4h4M16 5h8M28 5h4M16 6h8M28 6h4M16 7h8M28 7h4M12 8h4M32 8h4M12 9h4M32 9h4M12 10h4M32 10h4M12 11h4M32 11h4"/>
                    <path stroke="#bd493e" d="M24 4h4M24 5h4M24 6h4M24 7h4"/>
                    <path stroke="#5b1007"
                          d="M16 8h8M28 8h4M16 9h8M28 9h4M16 10h8M28 10h4M16 11h8M28 11h4M12 12h4M28 12h8M12 13h4M28 13h8M12 14h4M28 14h8M12 15h4M28 15h8M32 16h4M32 17h4M32 18h4M32 19h4M8 20h4M8 21h4M8 22h4M8 23h4M36 24h4M36 25h4M36 26h4M36 27h4M32 28h8M32 29h8M32 30h8M32 31h8M8 32h4M32 32h8M8 33h4M32 33h8M8 34h4M32 34h8M8 35h4M32 35h8M8 36h4M32 36h4M8 37h4M32 37h4M8 38h4M32 38h4M8 39h4M32 39h4M8 40h4M28 40h4M8 41h4M28 41h4M8 42h4M28 42h4M8 43h4M28 43h4M16 44h12M16 45h12M16 46h12M16 47h12"/>
                    <path stroke="#9e4d3a"
                          d="M24 8h4M24 9h4M24 10h4M24 11h4M32 20h8M32 21h8M32 22h8M32 23h8M8 24h4M32 24h4M8 25h4M32 25h4M8 26h4M32 26h4M8 27h4M32 27h4M8 28h4M8 29h4M8 30h4M8 31h4M36 36h4M36 37h4M36 38h4M36 39h4M12 40h4M32 40h8M12 41h4M32 41h8M12 42h4M32 42h8M12 43h4M32 43h8M12 44h4M28 44h8M12 45h4M28 45h8M12 46h4M28 46h8M12 47h4M28 47h8"/>
                    <path stroke="#390206"
                          d="M8 12h4M8 13h4M8 14h4M8 15h4M8 16h4M8 17h4M8 18h4M8 19h4M4 20h4M40 20h4M4 21h4M40 21h4M4 22h4M40 22h4M4 23h4M40 23h4M4 24h4M40 24h4M4 25h4M40 25h4M4 26h4M40 26h4M4 27h4M40 27h4M40 28h4M40 29h4M40 30h4M40 31h4"/>
                    <path stroke="#69200f"
                          d="M16 12h4M16 13h4M16 14h4M16 15h4M12 16h4M24 16h8M12 17h4M24 17h8M12 18h4M24 18h8M12 19h4M24 19h8M20 20h12M20 21h12M20 22h12M20 23h12M16 24h12M16 25h12M16 26h12M16 27h12M12 28h12M12 29h12M12 30h12M12 31h12M12 32h8M28 32h4M12 33h8M28 33h4M12 34h8M28 34h4M12 35h8M28 35h4M12 36h4M24 36h8M12 37h4M24 37h8M12 38h4M24 38h8M12 39h4M24 39h8M20 40h8M20 41h8M20 42h8M20 43h8"/>
                    <path stroke="#b96c5a"
                          d="M20 12h8M20 13h8M20 14h8M20 15h8M16 16h8M16 17h8M16 18h8M16 19h8M12 20h8M12 21h8M12 22h8M12 23h8M12 24h4M28 24h4M12 25h4M28 25h4M12 26h4M28 26h4M12 27h4M28 27h4M24 28h8M24 29h8M24 30h8M24 31h8M20 32h8M20 33h8M20 34h8M20 35h8M16 36h8M16 37h8M16 38h8M16 39h8M16 40h4M16 41h4M16 42h4M16 43h4"/>
                    <path stroke="#a32e33"
                          d="M36 12h4M36 13h4M36 14h4M36 15h4M36 16h4M36 17h4M36 18h4M36 19h4M4 28h4M4 29h4M4 30h4M4 31h4M4 32h4M40 32h4M4 33h4M40 33h4M4 34h4M40 34h4M4 35h4M40 35h4"/>
                    <path stroke="#25000b"
                          d="M4 36h4M4 37h4M4 38h4M4 39h4M4 40h4M4 41h4M4 42h4M4 43h4M8 44h4M8 45h4M8 46h4M8 47h4M16 48h8M16 49h8M16 50h8M16 51h8"/>
                    <path stroke="#8e1a36"
                          d="M40 36h4M40 37h4M40 38h4M40 39h4M40 40h4M40 41h4M40 42h4M40 43h4M36 44h4M36 45h4M36 46h4M36 47h4M12 48h4M24 48h12M12 49h4M24 49h12M12 50h4M24 50h12M12 51h4M24 51h12"/>
                </g>
            </svg>
            [/]
            [/]
            <svg viewBox="0 0 100 30" width="100" height="30" x="0" y="0">
                <g id="username-[[${id}]]">
                    <rect x="0" y="0" width="100" height="20" fill="black" fill-opacity="0.8" rx="5"/>
                    <svg x="4" y="2.5" width="15" height="15" viewBox="0 0 100 100">
                        <path fill-rule="evenodd" clip-rule="evenodd"
                              d="M48.854 0C21.839 0 0 22 0 49.217c0 21.756 13.993 40.172 33.405 46.69 2.427.49 3.316-1.059 3.316-2.362 0-1.141-.08-5.052-.08-9.127-13.59 2.934-16.42-5.867-16.42-5.867-2.184-5.704-5.42-7.17-5.42-7.17-4.448-3.015.324-3.015.324-3.015 4.934.326 7.523 5.052 7.523 5.052 4.367 7.496 11.404 5.378 14.235 4.074.404-3.178 1.699-5.378 3.074-6.6-10.839-1.141-22.243-5.378-22.243-24.283 0-5.378 1.94-9.778 5.014-13.2-.485-1.222-2.184-6.275.486-13.038 0 0 4.125-1.304 13.426 5.052a46.97 46.97 0 0 1 12.214-1.63c4.125 0 8.33.571 12.213 1.63 9.302-6.356 13.427-5.052 13.427-5.052 2.67 6.763.97 11.816.485 13.038 3.155 3.422 5.015 7.822 5.015 13.2 0 18.905-11.404 23.06-22.324 24.283 1.78 1.548 3.316 4.481 3.316 9.126 0 6.6-.08 11.897-.08 13.526 0 1.304.89 2.853 3.316 2.364 19.412-6.52 33.405-24.935 33.405-46.691C97.707 22 75.788 0 48.854 0z"
                              fill="#fff"/>
                    </svg>
                    <text x="25" y="11" dominant-baseline="middle" style="fill:white" font-size="13">
                        [[${#strings.abbreviate(username, 12)}]]
                    </text>

                    <rect x="0" y="23" width="[[${exp}]]" height="2" fill="#48ff00" rx="1"/>
                </g>
            </svg>
        </g>
    </a>
    <style>
        #frame1-[[${id}]] {
        animation: 1s frameToggle infinite;
        }
        #frame2-[[${id}]] {
        animation: 1s frameToggle infinite reverse;
        }
        #body-[[${id}]] {
        transform: translate([[${motion.positions[0].x}]]%, [[${y}]]%);
        }
    </style>
</svg>
