<svg fill="none" overflow="visible" xmlns="http://www.w3.org/2000/svg">
    <a href="https://github.com/[[${username}]]">
        <g id="body-[[${id}]]">
            <g id="frame1-[[${id}]]">
                <path stroke="#000000"
                      d="M3 3h9M81 3h9M3 4h9M81 4h9M3 5h9M81 5h9M3 6h3M12 6h9M69 6h12M87 6h3M3 7h3M12 7h9M69 7h12M87 7h3M3 8h3M12 8h9M69 8h12M87 8h3M6 9h3M21 9h3M45 9h6M63 9h6M84 9h3M6 10h3M21 10h3M45 10h6M63 10h6M84 10h3M6 11h3M21 11h3M45 11h6M63 11h6M84 11h3M9 12h3M24 12h3M42 12h3M48 12h3M60 12h3M78 12h6M9 13h3M24 13h3M42 13h3M48 13h3M60 13h3M78 13h6M9 14h3M24 14h3M42 14h3M48 14h3M60 14h3M78 14h6M3 15h6M12 15h6M27 15h3M39 15h3M45 15h3M57 15h3M72 15h6M84 15h9M3 16h6M12 16h6M27 16h3M39 16h3M45 16h3M57 16h3M72 16h6M84 16h9M3 17h6M12 17h6M27 17h3M39 17h3M45 17h3M57 17h3M72 17h6M84 17h9M3 18h3M27 18h3M33 18h12M57 18h3M90 18h3M3 19h3M27 19h3M33 19h12M57 19h3M90 19h3M3 20h3M27 20h3M33 20h12M57 20h3M90 20h3M6 21h9M27 21h6M45 21h3M57 21h3M75 21h15M6 22h9M27 22h6M45 22h3M57 22h3M75 22h15M6 23h9M27 23h6M45 23h3M57 23h3M75 23h15M9 24h3M24 24h3M39 24h6M48 24h3M54 24h3M66 24h3M84 24h3M9 25h3M24 25h3M39 25h6M48 25h3M54 25h3M66 25h3M84 25h3M9 26h3M24 26h3M39 26h6M48 26h3M54 26h3M66 26h3M84 26h3M12 27h12M33 27h6M42 27h3M48 27h3M54 27h3M69 27h15M12 28h12M33 28h6M42 28h3M48 28h3M54 28h3M69 28h15M12 29h12M33 29h6M42 29h3M48 29h3M54 29h3M69 29h15M15 30h3M21 30h3M48 30h6M63 30h3M75 30h3M15 31h3M21 31h3M48 31h6M63 31h3M75 31h3M15 32h3M21 32h3M48 32h6M63 32h3M75 32h3M15 33h9M33 33h6M42 33h6M51 33h3M66 33h12M15 34h9M33 34h6M42 34h6M51 34h3M66 34h12M15 35h9M33 35h6M42 35h6M51 35h3M66 35h12M21 36h12M39 36h3M45 36h6M54 36h3M60 36h6M21 37h12M39 37h3M45 37h6M54 37h3M60 37h6M21 38h12M39 38h3M45 38h6M54 38h3M60 38h6M24 39h6M36 39h6M45 39h3M51 39h9M24 40h6M36 40h6M45 40h3M51 40h9M24 41h6M36 41h6M45 41h3M51 41h9M24 42h3M30 42h6M39 42h3M45 42h3M51 42h6M24 43h3M30 43h6M39 43h3M45 43h3M51 43h6M24 44h3M30 44h6M39 44h3M45 44h3M51 44h6M24 45h6M39 45h6M48 45h3M54 45h3M24 46h6M39 46h6M48 46h3M54 46h3M24 47h6M39 47h6M48 47h3M54 47h3M21 48h3M27 48h3M39 48h6M48 48h3M57 48h3M21 49h3M27 49h3M39 49h6M48 49h3M57 49h3M21 50h3M27 50h3M39 50h6M48 50h3M57 50h3M18 51h3M27 51h12M42 51h6M60 51h3M18 52h3M27 52h12M42 52h6M60 52h3M18 53h3M27 53h12M42 53h6M60 53h3M18 54h3M24 54h3M45 54h3M51 54h3M60 54h3M18 55h3M24 55h3M45 55h3M51 55h3M60 55h3M18 56h3M24 56h3M45 56h3M51 56h3M60 56h3M21 57h6M33 57h6M45 57h9M60 57h3M21 58h6M33 58h6M45 58h9M60 58h3M21 59h6M33 59h6M45 59h9M60 59h3M24 60h6M33 60h6M45 60h3M54 60h6M24 61h6M33 61h6M45 61h3M54 61h6M24 62h6M33 62h6M45 62h3M54 62h6M24 63h3M33 63h3M39 63h3M48 63h3M24 64h3M33 64h3M39 64h3M48 64h3M24 65h3M33 65h3M39 65h3M48 65h3M21 66h3M27 66h3M33 66h3M39 66h3M45 66h3M51 66h3M21 67h3M27 67h3M33 67h3M39 67h3M45 67h3M51 67h3M21 68h3M27 68h3M33 68h3M39 68h3M45 68h3M51 68h3M21 69h12M39 69h15M21 70h12M39 70h15M21 71h12M39 71h15"/>
                <path stroke="#ffff00"
                      d="M6 6h3M84 6h3M6 7h3M84 7h3M6 8h3M84 8h3M12 9h3M75 9h6M12 10h3M75 10h6M12 11h3M75 11h6M12 12h3M75 12h3M12 13h3M75 13h3M12 14h3M75 14h3M9 15h3M81 15h3M9 16h3M81 16h3M9 17h3M81 17h3M6 18h6M78 18h6M87 18h3M6 19h6M78 19h6M87 19h3M6 20h6M78 20h6M87 20h3M15 21h3M72 21h3M15 22h3M72 22h3M15 23h3M72 23h3M12 24h6M72 24h6M81 24h3M12 25h6M72 25h6M81 25h3M12 26h6M72 26h6M81 26h3M66 27h3M66 28h3M66 29h3M18 30h3M66 30h3M72 30h3M18 31h3M66 31h3M72 31h3M18 32h3M66 32h3M72 32h3M48 33h3M63 33h3M48 34h3M63 34h3M48 35h3M63 35h3M33 36h6M42 36h3M51 36h3M33 37h6M42 37h3M51 37h3M33 38h6M42 38h3M51 38h3M30 39h6M42 39h3M30 40h6M42 40h3M30 41h6M42 41h3M27 42h3M42 42h3M27 43h3M42 43h3M27 44h3M42 44h3M21 51h3M48 51h3M21 52h3M48 52h3M21 53h3M48 53h3M21 54h3M48 54h3M21 55h3M48 55h3M21 56h3M48 56h3M54 57h6M54 58h6M54 59h6M30 60h3M42 60h3M30 61h3M42 61h3M30 62h3M42 62h3M27 63h6M42 63h6M27 64h6M42 64h6M27 65h6M42 65h6M30 66h3M30 67h3M30 68h3"/>
                <path stroke="#ee2717"
                      d="M9 6h3M81 6h3M9 7h3M81 7h3M9 8h3M81 8h3M9 9h3M15 9h6M69 9h6M81 9h3M9 10h3M15 10h6M69 10h6M81 10h3M9 11h3M15 11h6M69 11h6M81 11h3M15 12h9M63 12h12M15 13h9M63 13h12M15 14h9M63 14h12M18 15h9M60 15h12M78 15h3M18 16h9M60 16h12M78 16h3M18 17h9M60 17h12M78 17h3M12 18h15M60 18h18M84 18h3M12 19h15M60 19h18M84 19h3M12 20h15M60 20h18M84 20h3M18 21h9M36 21h9M60 21h12M18 22h9M36 22h9M60 22h12M18 23h9M36 23h9M60 23h12M18 24h6M33 24h6M45 24h3M57 24h9M69 24h3M78 24h3M18 25h6M33 25h6M45 25h3M57 25h9M69 25h3M78 25h3M18 26h6M33 26h6M45 26h3M57 26h9M69 26h3M78 26h3M24 27h9M57 27h9M24 28h9M57 28h9M24 29h9M57 29h9M24 30h18M45 30h3M54 30h9M69 30h3M24 31h18M45 31h3M54 31h9M69 31h3M24 32h18M45 32h3M54 32h9M69 32h3M24 33h9M39 33h3M54 33h9M24 34h9M39 34h3M54 34h9M24 35h9M39 35h3M54 35h9M57 36h3M57 37h3M57 38h3M39 51h3M39 52h3M39 53h3M27 54h18M54 54h6M27 55h18M54 55h6M27 56h18M54 56h6M27 57h6M39 57h6M27 58h6M39 58h6M27 59h6M39 59h6M39 60h3M39 61h3M39 62h3"/>
                <path stroke="#0086ff" d="M45 12h3M45 13h3M45 14h3M33 21h3M33 22h3M33 23h3M27 24h6M27 25h6M27 26h6"/>
                <path stroke="#ffffff"
                      d="M42 15h3M42 16h3M42 17h3M39 27h3M45 27h3M39 28h3M45 28h3M39 29h3M45 29h3M42 30h3M42 31h3M42 32h3M36 42h3M36 43h3M36 44h3M30 45h9M30 46h9M30 47h9"/>
                <path stroke="#f7958c"
                      d="M48 39h3M48 40h3M48 41h3M48 42h3M48 43h3M48 44h3M51 45h3M51 46h3M51 47h3M24 48h3M30 48h9M51 48h6M24 49h3M30 49h9M51 49h6M24 50h3M30 50h9M51 50h6M24 51h3M51 51h9M24 52h3M51 52h9M24 53h3M51 53h9"/>
                <path stroke="#999999" d="M24 66h3M42 66h3M48 66h3M24 67h3M42 67h3M48 67h3M24 68h3M42 68h3M48 68h3"/>
            </g>
            <g id="frame2-[[${id}]]">
                <path stroke="#000000"
                      d="M45 0h6M45 1h6M45 2h6M42 3h3M48 3h3M42 4h3M48 4h3M42 5h3M48 5h3M39 6h3M45 6h3M39 7h3M45 7h3M39 8h3M45 8h3M33 9h12M33 10h12M33 11h12M27 12h6M45 12h3M27 13h6M45 13h3M27 14h6M45 14h3M24 15h3M39 15h6M48 15h3M24 16h3M39 16h6M48 16h3M24 17h3M39 17h6M48 17h3M21 18h3M33 18h6M42 18h3M48 18h3M54 18h9M21 19h3M33 19h6M42 19h3M48 19h3M54 19h9M21 20h3M33 20h6M42 20h3M48 20h3M54 20h9M18 21h6M48 21h6M63 21h3M18 22h6M48 22h6M63 22h3M18 23h6M48 23h6M63 23h3M15 24h3M21 24h3M33 24h6M42 24h6M51 24h3M66 24h3M15 25h3M21 25h3M33 25h6M42 25h6M51 25h3M66 25h3M15 26h3M21 26h3M33 26h6M42 26h6M51 26h3M66 26h3M12 27h3M21 27h12M39 27h3M45 27h6M54 27h3M69 27h3M12 28h3M21 28h12M39 28h3M45 28h6M54 28h3M69 28h3M12 29h3M21 29h12M39 29h3M45 29h6M54 29h3M69 29h3M12 30h3M24 30h6M36 30h6M45 30h3M51 30h6M69 30h3M12 31h3M24 31h6M36 31h6M45 31h3M51 31h6M69 31h3M12 32h3M24 32h6M36 32h6M45 32h3M51 32h6M69 32h3M12 33h3M21 33h6M30 33h6M39 33h3M45 33h3M51 33h3M69 33h3M12 34h3M21 34h6M30 34h6M39 34h3M45 34h3M51 34h3M69 34h3M12 35h3M21 35h6M30 35h6M39 35h3M45 35h3M51 35h3M69 35h3M9 36h3M21 36h9M39 36h6M48 36h6M72 36h3M9 37h3M21 37h9M39 37h6M48 37h6M72 37h3M9 38h3M21 38h9M39 38h6M48 38h6M72 38h3M9 39h3M21 39h3M27 39h3M39 39h6M48 39h6M72 39h3M9 40h3M21 40h3M27 40h3M39 40h6M48 40h6M72 40h3M9 41h3M21 41h3M27 41h3M39 41h6M48 41h6M72 41h3M9 42h3M21 42h3M27 42h12M42 42h6M51 42h3M72 42h3M9 43h3M21 43h3M27 43h12M42 43h6M51 43h3M72 43h3M9 44h3M21 44h3M27 44h12M42 44h6M51 44h3M72 44h3M9 45h3M24 45h3M45 45h6M72 45h3M9 46h3M24 46h3M45 46h6M72 46h3M9 47h3M24 47h3M45 47h6M72 47h3M9 48h6M24 48h3M33 48h6M45 48h6M66 48h3M72 48h3M9 49h6M24 49h3M33 49h6M45 49h6M66 49h3M72 49h3M9 50h6M24 50h3M33 50h6M45 50h6M66 50h3M72 50h3M12 51h6M24 51h6M33 51h6M45 51h6M57 51h3M66 51h6M12 52h6M24 52h6M33 52h6M45 52h6M57 52h3M66 52h6M12 53h6M24 53h6M33 53h6M45 53h6M57 53h3M66 53h6M12 54h6M24 54h3M33 54h3M39 54h3M48 54h3M57 54h3M63 54h6M12 55h6M24 55h3M33 55h3M39 55h3M48 55h3M57 55h3M63 55h6M12 56h6M24 56h3M33 56h3M39 56h3M48 56h3M57 56h3M63 56h6M15 57h6M27 57h3M33 57h3M39 57h3M45 57h3M54 57h3M63 57h3M15 58h6M27 58h3M33 58h3M39 58h3M45 58h3M54 58h3M63 58h3M15 59h6M27 59h3M33 59h3M39 59h3M45 59h3M54 59h3M63 59h3M18 60h3M27 60h6M39 60h9M54 60h3M60 60h3M18 61h3M27 61h6M39 61h9M54 61h3M60 61h3M18 62h3M27 62h6M39 62h9M54 62h3M60 62h3M18 63h6M27 63h3M42 63h3M51 63h9M18 64h6M27 64h3M42 64h3M51 64h9M18 65h6M27 65h3M42 65h3M51 65h9M24 66h3M30 66h3M39 66h3M45 66h6M24 67h3M30 67h3M39 67h3M45 67h6M24 68h3M30 68h3M39 68h3M45 68h6M27 69h6M39 69h6M27 70h6M39 70h6M27 71h6M39 71h6"/>
                <path stroke="#0086ff" d="M45 3h3M45 4h3M45 5h3M33 12h3M33 13h3M33 14h3M27 15h6M27 16h6M27 17h6"/>
                <path stroke="#ffffff"
                      d="M42 6h3M42 7h3M42 8h3M39 18h3M45 18h3M39 19h3M45 19h3M39 20h3M45 20h3M42 21h3M42 22h3M42 23h3M36 33h3M36 34h3M36 35h3M30 36h9M30 37h9M30 38h9"/>
                <path stroke="#ee2717"
                      d="M36 12h9M36 13h9M36 14h9M33 15h6M45 15h3M33 16h6M45 16h3M33 17h6M45 17h3M24 18h9M24 19h9M24 20h9M24 21h18M45 21h3M54 21h9M24 22h18M45 22h3M54 22h9M24 23h18M45 23h3M54 23h9M18 24h3M24 24h9M39 24h3M54 24h12M18 25h3M24 25h9M39 25h3M54 25h12M18 26h3M24 26h9M39 26h3M54 26h12M15 27h6M57 27h12M15 28h6M57 28h12M15 29h6M57 29h12M15 30h9M57 30h12M15 31h9M57 31h12M15 32h9M57 32h12M15 33h6M54 33h15M15 34h6M54 34h15M15 35h6M54 35h15M12 36h9M54 36h18M12 37h9M54 37h18M12 38h9M54 38h18M12 39h9M54 39h18M12 40h9M54 40h18M12 41h9M54 41h18M12 42h9M39 42h3M54 42h18M12 43h9M39 43h3M54 43h18M12 44h9M39 44h3M54 44h18M12 45h12M27 45h18M51 45h18M12 46h12M27 46h18M51 46h18M12 47h12M27 47h18M51 47h18M15 48h9M27 48h6M39 48h6M51 48h15M15 49h9M27 49h6M39 49h6M51 49h15M15 50h9M27 50h6M39 50h6M51 50h15M18 51h6M39 51h3M51 51h6M18 52h6M39 52h3M51 52h6M18 53h6M39 53h3M51 53h6M24 57h3M48 57h3M57 57h6M24 58h3M48 58h3M57 58h6M24 59h3M48 59h3M57 59h6M21 60h6M48 60h6M57 60h3M21 61h6M48 61h6M57 61h3M21 62h6M48 62h6M57 62h3"/>
                <path stroke="#ffff00"
                      d="M48 24h3M48 25h3M48 26h3M33 27h6M42 27h3M51 27h3M33 28h6M42 28h3M51 28h3M33 29h6M42 29h3M51 29h3M30 30h6M42 30h3M30 31h6M42 31h3M30 32h6M42 32h3M27 33h3M42 33h3M27 34h3M42 34h3M27 35h3M42 35h3M48 42h3M48 43h3M48 44h3M69 45h3M69 46h3M69 47h3M69 48h3M69 49h3M69 50h3M30 51h3M42 51h3M60 51h6M30 52h3M42 52h3M60 52h6M30 53h3M42 53h3M60 53h6M18 54h6M27 54h6M42 54h6M51 54h6M60 54h3M18 55h6M27 55h6M42 55h6M51 55h6M60 55h3M18 56h6M27 56h6M42 56h6M51 56h6M60 56h3M21 57h3M30 57h3M51 57h3M21 58h3M30 58h3M51 58h3M21 59h3M30 59h3M51 59h3M24 63h3M45 63h6M24 64h3M45 64h6M24 65h3M45 65h6M27 66h3M42 66h3M27 67h3M42 67h3M27 68h3M42 68h3"/>
                <path stroke="#f7958c"
                      d="M48 30h3M48 31h3M48 32h3M48 33h3M48 34h3M48 35h3M24 39h3M30 39h9M24 40h3M30 40h9M24 41h3M30 41h9M24 42h3M24 43h3M24 44h3"/>
                <path stroke="#999999" d="M42 57h3M42 58h3M42 59h3"/>
            </g>
            <svg viewBox="0 0 100 30" width="100" height="30" x="0" y="-20">
                <g id="username-[[${id}]]">
                    <rect x="0" y="0" width="100" height="20" fill="black" fill-opacity="0.8" rx="5"/>
                    <svg x="4" y="2.5" width="15" height="15" viewBox="0 0 100 100">
                        <path fill-rule="evenodd" clip-rule="evenodd"
                              d="M48.854 0C21.839 0 0 22 0 49.217c0 21.756 13.993 40.172 33.405 46.69 2.427.49 3.316-1.059 3.316-2.362 0-1.141-.08-5.052-.08-9.127-13.59 2.934-16.42-5.867-16.42-5.867-2.184-5.704-5.42-7.17-5.42-7.17-4.448-3.015.324-3.015.324-3.015 4.934.326 7.523 5.052 7.523 5.052 4.367 7.496 11.404 5.378 14.235 4.074.404-3.178 1.699-5.378 3.074-6.6-10.839-1.141-22.243-5.378-22.243-24.283 0-5.378 1.94-9.778 5.014-13.2-.485-1.222-2.184-6.275.486-13.038 0 0 4.125-1.304 13.426 5.052a46.97 46.97 0 0 1 12.214-1.63c4.125 0 8.33.571 12.213 1.63 9.302-6.356 13.427-5.052 13.427-5.052 2.67 6.763.97 11.816.485 13.038 3.155 3.422 5.015 7.822 5.015 13.2 0 18.905-11.404 23.06-22.324 24.283 1.78 1.548 3.316 4.481 3.316 9.126 0 6.6-.08 11.897-.08 13.526 0 1.304.89 2.853 3.316 2.364 19.412-6.52 33.405-24.935 33.405-46.691C97.707 22 75.788 0 48.854 0z"
                              fill="#fff"/>
                    </svg>
                    <text x="25" y="11" dominant-baseline="middle" style="fill:white" textLength="70"
                          lengthAdjust="spacing">
                        [[${username}]]
                    </text>
                    <rect x="0" y="23" width="[[${exp}]]" height="2" fill="#48ff00" rx="1"/>
                </g>
            </svg>
        </g>
    </a>
    <style>
        #frame1-[[${id}]] {
        animation: 1s frameToggle infinite;
        }
        #frame2-[[${id}]] {
        animation: 1s frameToggle infinite reverse;
        }
        #body-[[${id}]] {
        animation: move-body-[[${id}]] [[${motion.duration}]]s infinite;
        }
        #username-[[${id}]] {
        animation: move-username-[[${id}]] [[${motion.duration}]]s infinite;
        }
        @keyframes move-body-[[${id}]] {
        0%, 10% {
        transform: translate([[${motion.positions[0].x}]]%, [[${y}]]%) scaleX([[${motion.positions[0].direction}]]);
        }
        20%, 30% {
        transform: translate([[${motion.positions[1].x}]]%, [[${y}]]%) scaleX([[${motion.positions[1].direction}]]);
        }
        40%, 50% {
        transform: translate([[${motion.positions[2].x}]]%, [[${y}]]%) scaleX([[${motion.positions[2].direction}]]);
        }
        50.01% {
        transform: translate([[${motion.positions[3].x}]]%, [[${y}]]%) scaleX([[${motion.positions[3].direction}]]);
        }
        60%, 70% {
        transform: translate([[${motion.positions[4].x}]]%, [[${y}]]%) scaleX([[${motion.positions[4].direction}]]);
        }
        80%, 100% {
        transform: translate([[${motion.positions[5].x}]]%, [[${y}]]%) scaleX([[${motion.positions[5].direction}]]);
        }
        }
        @keyframes move-username-[[${id}]] {
        0%, 10% {
        transform: scaleX([[${motion.positions[0].direction}]])
        translateX([[${motion.positions[0].direction > 0 ? 0: -100}]]%);
        }
        20%, 30% {
        transform: scaleX([[${motion.positions[1].direction}]])
        translateX([[${motion.positions[1].direction > 0 ? 0: -100}]]%);
        }
        40%, 50% {
        transform: scaleX([[${motion.positions[2].direction}]])
        translateX([[${motion.positions[2].direction > 0 ? 0: -100}]]%);
        }
        50.01% {
        transform: scaleX([[${motion.positions[3].direction}]])
        translateX([[${motion.positions[3].direction > 0 ? 0: -100}]]%);
        }
        60%, 70% {
        transform: scaleX([[${motion.positions[4].direction}]])
        translateX([[${motion.positions[4].direction > 0 ? 0: -100}]]%);
        }
        80%, 100% {
        transform: scaleX([[${motion.positions[5].direction}]])
        translateX([[${motion.positions[5].direction > 0 ? 0: -100}]]%);
        }
        }
    </style>
</svg>
