<svg fill="none" overflow="visible" xmlns="http://www.w3.org/2000/svg">
    <a href="https://github.com/[[${username}]]">
        <g id="body-[[${id}]]">
            <g id="standing-[[${id}]]">
                <g id="frame1-[[${id}]]">
                    <path stroke="#000000" d="M24 3h9M36 3h9M24 4h9M36 4h9M24 5h9M36 5h9M21 6h9M33 6h3M39 6h3M21 7h9M33 7h3M39 7h3M21 8h9M33 8h3M39 8h3M18 9h6M27 9h6M39 9h3M18 10h6M27 10h6M39 10h3M18 11h6M27 11h6M39 11h3M18 12h3M27 12h3M36 12h3M18 13h3M27 13h3M36 13h3M18 14h3M27 14h3M36 14h3M15 15h3M36 15h12M15 16h3M36 16h12M15 17h3M36 17h12M15 18h3M33 18h3M45 18h3M60 18h6M15 19h3M33 19h3M45 19h3M60 19h6M15 20h3M33 20h3M45 20h3M60 20h6M12 21h3M42 21h6M60 21h3M66 21h3M12 22h3M42 22h6M60 22h3M66 22h3M12 23h3M42 23h6M60 23h3M66 23h3M9 24h3M24 24h6M36 24h3M42 24h3M48 24h6M63 24h6M9 25h3M24 25h6M36 25h3M42 25h3M48 25h6M63 25h6M9 26h3M24 26h6M36 26h3M42 26h3M48 26h6M63 26h6M6 27h3M27 27h3M36 27h12M51 27h3M63 27h3M69 27h3M6 28h3M27 28h3M36 28h12M51 28h3M63 28h3M69 28h3M6 29h3M27 29h3M36 29h12M51 29h3M63 29h3M69 29h3M6 30h9M21 30h6M33 30h3M42 30h3M48 30h6M63 30h3M69 30h3M6 31h9M21 31h6M33 31h3M42 31h3M48 31h6M63 31h3M69 31h3M6 32h9M21 32h6M33 32h3M42 32h3M48 32h6M63 32h3M69 32h3M6 33h3M36 33h3M45 33h3M54 33h3M60 33h3M66 33h6M6 34h3M36 34h3M45 34h3M54 34h3M60 34h3M66 34h6M6 35h3M36 35h3M45 35h3M54 35h3M60 35h3M66 35h6M9 36h6M24 36h15M57 36h6M66 36h3M9 37h6M24 37h15M57 37h6M66 37h3M9 38h6M24 38h15M57 38h6M66 38h3M15 39h15M57 39h3M63 39h3M15 40h15M57 40h3M63 40h3M15 41h15M57 41h3M63 41h3M18 42h3M27 42h6M42 42h9M60 42h3M18 43h3M27 43h6M42 43h9M60 43h3M18 44h3M27 44h6M42 44h9M60 44h3M18 45h3M24 45h12M42 45h3M48 45h6M60 45h3M18 46h3M24 46h12M42 46h3M48 46h6M60 46h3M18 47h3M24 47h12M42 47h3M48 47h6M60 47h3M15 48h3M27 48h3M33 48h3M42 48h3M48 48h9M60 48h3M15 49h3M27 49h3M33 49h3M42 49h3M48 49h9M60 49h3M15 50h3M27 50h3M33 50h3M42 50h3M48 50h9M60 50h3M12 51h3M18 51h3M24 51h3M30 51h3M36 51h3M45 51h6M60 51h3M12 52h3M18 52h3M24 52h3M30 52h3M36 52h3M45 52h6M60 52h3M12 53h3M18 53h3M24 53h3M30 53h3M36 53h3M45 53h6M60 53h3M12 54h15M30 54h30M12 55h15M30 55h30M12 56h15M30 56h30" />
                    <path stroke="#7851ff" d="M36 6h3M36 7h3M36 8h3M24 9h3M33 9h6M24 10h3M33 10h6M24 11h3M33 11h6M24 12h3M33 12h3M24 13h3M33 13h3M24 14h3M33 14h3M18 15h6M18 16h6M18 17h6M18 18h3M36 18h9M18 19h3M36 19h9M18 20h3M36 20h9M24 21h6M39 21h3M63 21h3M24 22h6M39 22h3M63 22h3M24 23h6M39 23h3M63 23h3M12 24h3M21 24h3M30 24h3M39 24h3M12 25h3M21 25h3M30 25h3M39 25h3M12 26h3M21 26h3M30 26h3M39 26h3M9 27h3M18 27h3M33 27h3M48 27h3M9 28h3M18 28h3M33 28h3M48 28h3M9 29h3M18 29h3M33 29h3M48 29h3M36 30h3M45 30h3M36 31h3M45 31h3M36 32h3M45 32h3M30 33h6M42 33h3M51 33h3M63 33h3M30 34h6M42 34h3M51 34h3M63 34h3M30 35h6M42 35h3M51 35h3M63 35h3M42 36h3M51 36h3M63 36h3M42 37h3M51 37h3M63 37h3M42 38h3M51 38h3M63 38h3M30 39h6M30 40h6M30 41h6M21 42h3M51 42h6M21 43h3M51 43h6M21 44h3M51 44h6M36 45h3M36 46h3M36 47h3M21 48h6M57 48h3M21 49h6M57 49h3M21 50h6M57 50h3" />
                    <path stroke="#f8f0ff" d="M21 12h3M30 12h3M21 13h3M30 13h3M21 14h3M30 14h3M24 15h12M24 16h12M24 17h12M21 18h12M21 19h12M21 20h12M15 21h9M30 21h9M15 22h9M30 22h9M15 23h9M30 23h9M15 24h6M33 24h3M15 25h6M33 25h3M15 26h6M33 26h3M12 27h6M21 27h3M30 27h3M66 27h3M12 28h6M21 28h3M30 28h3M66 28h3M12 29h6M21 29h3M30 29h3M66 29h3M15 30h6M27 30h6M39 30h3M66 30h3M15 31h6M27 31h6M39 31h3M66 31h3M15 32h6M27 32h6M39 32h3M66 32h3M9 33h21M39 33h3M48 33h3M9 34h21M39 34h3M48 34h3M9 35h21M39 35h3M48 35h3M15 36h9M39 36h3M45 36h6M54 36h3M15 37h9M39 37h3M45 37h6M54 37h3M15 38h9M39 38h3M45 38h6M54 38h3M36 39h21M60 39h3M36 40h21M60 40h3M36 41h21M60 41h3M24 42h3M33 42h9M57 42h3M24 43h3M33 43h9M57 43h3M24 44h3M33 44h9M57 44h3M21 45h3M39 45h3M54 45h6M21 46h3M39 46h3M54 46h6M21 47h3M39 47h3M54 47h6M18 48h3M36 48h6M18 49h3M36 49h6M18 50h3M36 50h6M21 51h3M42 51h3M54 51h3M21 52h3M42 52h3M54 52h3M21 53h3M42 53h3M54 53h3" />
                    <path stroke="#ff9d0b" d="M24 27h3M24 28h3M24 29h3" />
                    <path stroke="#ca0065" d="M15 51h3M33 51h3M39 51h3M51 51h3M57 51h3M15 52h3M33 52h3M39 52h3M51 52h3M57 52h3M15 53h3M33 53h3M39 53h3M51 53h3M57 53h3" />
                </g>
                <g id="frame2-[[${id}]]">
                    <path stroke="#000000" d="M24 0h9M36 0h9M24 1h9M36 1h9M24 2h9M36 2h9M21 3h9M33 3h3M39 3h3M21 4h9M33 4h3M39 4h3M21 5h9M33 5h3M39 5h3M18 6h6M27 6h6M39 6h3M18 7h6M27 7h6M39 7h3M18 8h6M27 8h6M39 8h3M18 9h3M27 9h3M36 9h3M18 10h3M27 10h3M36 10h3M18 11h3M27 11h3M36 11h3M15 12h3M36 12h12M15 13h3M36 13h12M15 14h3M36 14h12M15 15h3M33 15h3M45 15h3M63 15h6M15 16h3M33 16h3M45 16h3M63 16h6M15 17h3M33 17h3M45 17h3M63 17h6M12 18h3M42 18h6M60 18h3M66 18h3M12 19h3M42 19h6M60 19h3M66 19h3M12 20h3M42 20h6M60 20h3M66 20h3M9 21h3M24 21h6M36 21h3M42 21h3M48 21h6M60 21h6M9 22h3M24 22h6M36 22h3M42 22h3M48 22h6M60 22h6M9 23h3M24 23h6M36 23h3M42 23h3M48 23h6M60 23h6M6 24h3M27 24h3M36 24h12M51 24h3M57 24h3M63 24h3M6 25h3M27 25h3M36 25h12M51 25h3M57 25h3M63 25h3M6 26h3M27 26h3M36 26h12M51 26h3M57 26h3M63 26h3M6 27h9M21 27h6M33 27h3M42 27h3M48 27h3M57 27h3M63 27h3M6 28h9M21 28h6M33 28h3M42 28h3M48 28h3M57 28h3M63 28h3M6 29h9M21 29h6M33 29h3M42 29h3M48 29h3M57 29h3M63 29h3M6 30h3M36 30h3M45 30h12M60 30h3M66 30h3M6 31h3M36 31h3M45 31h12M60 31h3M66 31h3M6 32h3M36 32h3M45 32h12M60 32h3M66 32h3M9 33h6M24 33h15M57 33h6M66 33h3M9 34h6M24 34h15M57 34h6M66 34h3M9 35h6M24 35h15M57 35h6M66 35h3M15 36h9M57 36h3M63 36h3M15 37h9M57 37h3M63 37h3M15 38h9M57 38h3M63 38h3M15 39h3M24 39h6M60 39h3M15 40h3M24 40h6M60 40h3M15 41h3M24 41h6M60 41h3M18 42h3M27 42h6M42 42h9M60 42h3M18 43h3M27 43h6M42 43h9M60 43h3M18 44h3M27 44h6M42 44h9M60 44h3M18 45h3M24 45h12M42 45h3M48 45h6M60 45h3M18 46h3M24 46h12M42 46h3M48 46h6M60 46h3M18 47h3M24 47h12M42 47h3M48 47h6M60 47h3M15 48h3M27 48h3M33 48h3M42 48h3M48 48h9M60 48h3M15 49h3M27 49h3M33 49h3M42 49h3M48 49h9M60 49h3M15 50h3M27 50h3M33 50h3M42 50h3M48 50h9M60 50h3M12 51h3M18 51h3M24 51h3M30 51h3M36 51h3M45 51h6M60 51h3M12 52h3M18 52h3M24 52h3M30 52h3M36 52h3M45 52h6M60 52h3M12 53h3M18 53h3M24 53h3M30 53h3M36 53h3M45 53h6M60 53h3M12 54h15M30 54h30M12 55h15M30 55h30M12 56h15M30 56h30" />
                    <path stroke="#7851ff" d="M36 3h3M36 4h3M36 5h3M24 6h3M33 6h6M24 7h3M33 7h6M24 8h3M33 8h6M24 9h3M33 9h3M24 10h3M33 10h3M24 11h3M33 11h3M18 12h6M18 13h6M18 14h6M18 15h3M36 15h9M18 16h3M36 16h9M18 17h3M36 17h9M24 18h6M39 18h3M63 18h3M24 19h6M39 19h3M63 19h3M24 20h6M39 20h3M63 20h3M12 21h3M21 21h3M30 21h3M39 21h3M12 22h3M21 22h3M30 22h3M39 22h3M12 23h3M21 23h3M30 23h3M39 23h3M9 24h3M18 24h3M33 24h3M48 24h3M9 25h3M18 25h3M33 25h3M48 25h3M9 26h3M18 26h3M33 26h3M48 26h3M36 27h3M45 27h3M36 28h3M45 28h3M36 29h3M45 29h3M30 30h6M42 30h3M63 30h3M30 31h6M42 31h3M63 31h3M30 32h6M42 32h3M63 32h3M42 33h3M51 33h3M63 33h3M42 34h3M51 34h3M63 34h3M42 35h3M51 35h3M63 35h3M51 36h3M51 37h3M51 38h3M18 39h3M30 39h6M18 40h3M30 40h6M18 41h3M30 41h6M21 42h3M51 42h6M21 43h3M51 43h6M21 44h3M51 44h6M36 45h3M36 46h3M36 47h3M21 48h6M57 48h3M21 49h6M57 49h3M21 50h6M57 50h3" />
                    <path stroke="#f8f0ff" d="M21 9h3M30 9h3M21 10h3M30 10h3M21 11h3M30 11h3M24 12h12M24 13h12M24 14h12M21 15h12M21 16h12M21 17h12M15 18h9M30 18h9M15 19h9M30 19h9M15 20h9M30 20h9M15 21h6M33 21h3M15 22h6M33 22h3M15 23h6M33 23h3M12 24h6M21 24h3M30 24h3M60 24h3M12 25h6M21 25h3M30 25h3M60 25h3M12 26h6M21 26h3M30 26h3M60 26h3M15 27h6M27 27h6M39 27h3M60 27h3M15 28h6M27 28h6M39 28h3M60 28h3M15 29h6M27 29h6M39 29h3M60 29h3M9 30h21M39 30h3M9 31h21M39 31h3M9 32h21M39 32h3M15 33h9M39 33h3M45 33h6M54 33h3M15 34h9M39 34h3M45 34h6M54 34h3M15 35h9M39 35h3M45 35h6M54 35h3M24 36h27M54 36h3M60 36h3M24 37h27M54 37h3M60 37h3M24 38h27M54 38h3M60 38h3M21 39h3M36 39h24M21 40h3M36 40h24M21 41h3M36 41h24M24 42h3M33 42h9M57 42h3M24 43h3M33 43h9M57 43h3M24 44h3M33 44h9M57 44h3M21 45h3M39 45h3M54 45h6M21 46h3M39 46h3M54 46h6M21 47h3M39 47h3M54 47h6M18 48h3M36 48h6M18 49h3M36 49h6M18 50h3M36 50h6M21 51h3M42 51h3M54 51h3M21 52h3M42 52h3M54 52h3M21 53h3M42 53h3M54 53h3" />
                    <path stroke="#ff9d0b" d="M24 24h3M24 25h3M24 26h3" />
                    <path stroke="#ca0065" d="M15 51h3M33 51h3M39 51h3M51 51h3M57 51h3M15 52h3M33 52h3M39 52h3M51 52h3M57 52h3M15 53h3M33 53h3M39 53h3M51 53h3M57 53h3" />
                </g>
            </g>
            <g id="walking-[[${id}]]">
                <g id="frame3-[[${id}]]">
                    <path stroke="#000000" d="M24 0h9M36 0h9M24 1h9M36 1h9M24 2h9M36 2h9M21 3h9M33 3h3M39 3h3M21 4h9M33 4h3M39 4h3M21 5h9M33 5h3M39 5h3M18 6h6M27 6h6M39 6h3M18 7h6M27 7h6M39 7h3M18 8h6M27 8h6M39 8h3M18 9h3M27 9h3M36 9h3M18 10h3M27 10h3M36 10h3M18 11h3M27 11h3M36 11h3M15 12h3M36 12h12M15 13h3M36 13h12M15 14h3M36 14h12M15 15h3M33 15h3M45 15h3M15 16h3M33 16h3M45 16h3M15 17h3M33 17h3M45 17h3M12 18h3M42 18h6M63 18h6M12 19h3M42 19h6M63 19h6M12 20h3M42 20h6M63 20h6M9 21h3M24 21h6M36 21h3M42 21h3M48 21h6M60 21h3M66 21h3M9 22h3M24 22h6M36 22h3M42 22h3M48 22h6M60 22h3M66 22h3M9 23h3M24 23h6M36 23h3M42 23h3M48 23h6M60 23h3M66 23h3M6 24h3M27 24h3M36 24h12M51 24h3M60 24h6M6 25h3M27 25h3M36 25h12M51 25h3M60 25h6M6 26h3M27 26h3M36 26h12M51 26h3M60 26h6M6 27h9M21 27h6M33 27h3M42 27h3M48 27h3M57 27h3M63 27h3M6 28h9M21 28h6M33 28h3M42 28h3M48 28h3M57 28h3M63 28h3M6 29h9M21 29h6M33 29h3M42 29h3M48 29h3M57 29h3M63 29h3M6 30h3M36 30h3M45 30h9M57 30h3M63 30h3M6 31h3M36 31h3M45 31h9M57 31h3M63 31h3M6 32h3M36 32h3M45 32h9M57 32h3M63 32h3M9 33h6M24 33h15M54 33h3M60 33h3M66 33h3M9 34h6M24 34h15M54 34h3M60 34h3M66 34h3M9 35h6M24 35h15M54 35h3M60 35h3M66 35h3M15 36h9M57 36h6M66 36h3M15 37h9M57 37h6M66 37h3M15 38h9M57 38h6M66 38h3M18 39h3M24 39h6M57 39h3M63 39h3M18 40h3M24 40h6M57 40h3M63 40h3M18 41h3M24 41h6M57 41h3M63 41h3M18 42h3M24 42h9M42 42h9M60 42h3M18 43h3M24 43h9M42 43h9M60 43h3M18 44h3M24 44h9M42 44h9M60 44h3M15 45h3M27 45h9M42 45h3M48 45h9M60 45h3M15 46h3M27 46h9M42 46h3M48 46h9M60 46h3M15 47h3M27 47h9M42 47h3M48 47h9M60 47h3M12 48h3M18 48h3M24 48h3M33 48h3M42 48h3M48 48h3M60 48h3M12 49h3M18 49h3M24 49h3M33 49h3M42 49h3M48 49h3M60 49h3M12 50h3M18 50h3M24 50h3M33 50h3M42 50h3M48 50h3M60 50h3M12 51h15M30 51h3M36 51h3M45 51h15M12 52h15M30 52h3M36 52h3M45 52h15M12 53h15M30 53h3M36 53h3M45 53h15M30 54h18M30 55h18M30 56h18" />
                    <path stroke="#7851ff" d="M36 3h3M36 4h3M36 5h3M24 6h3M33 6h6M24 7h3M33 7h6M24 8h3M33 8h6M24 9h3M33 9h3M24 10h3M33 10h3M24 11h3M33 11h3M18 12h6M18 13h6M18 14h6M18 15h3M36 15h9M18 16h3M36 16h9M18 17h3M36 17h9M24 18h6M39 18h3M24 19h6M39 19h3M24 20h6M39 20h3M12 21h3M21 21h3M30 21h3M39 21h3M63 21h3M12 22h3M21 22h3M30 22h3M39 22h3M63 22h3M12 23h3M21 23h3M30 23h3M39 23h3M63 23h3M9 24h3M18 24h3M33 24h3M48 24h3M9 25h3M18 25h3M33 25h3M48 25h3M9 26h3M18 26h3M33 26h3M48 26h3M36 27h3M45 27h3M36 28h3M45 28h3M36 29h3M45 29h3M30 30h6M42 30h3M30 31h6M42 31h3M30 32h6M42 32h3M42 33h3M51 33h3M63 33h3M42 34h3M51 34h3M63 34h3M42 35h3M51 35h3M63 35h3M51 36h3M63 36h3M51 37h3M63 37h3M51 38h3M63 38h3M21 39h3M30 39h6M21 40h3M30 40h6M21 41h3M30 41h6M51 42h6M51 43h6M51 44h6M21 45h6M36 45h3M57 45h3M21 46h6M36 46h3M57 46h3M21 47h6M36 47h3M57 47h3" />
                    <path stroke="#f8f0ff" d="M21 9h3M30 9h3M21 10h3M30 10h3M21 11h3M30 11h3M24 12h12M24 13h12M24 14h12M21 15h12M21 16h12M21 17h12M15 18h9M30 18h9M15 19h9M30 19h9M15 20h9M30 20h9M15 21h6M33 21h3M15 22h6M33 22h3M15 23h6M33 23h3M12 24h6M30 24h3M12 25h6M30 25h3M12 26h6M30 26h3M15 27h6M27 27h6M39 27h3M60 27h3M15 28h6M27 28h6M39 28h3M60 28h3M15 29h6M27 29h6M39 29h3M60 29h3M9 30h21M39 30h3M60 30h3M9 31h21M39 31h3M60 31h3M9 32h21M39 32h3M60 32h3M15 33h9M39 33h3M45 33h6M15 34h9M39 34h3M45 34h6M15 35h9M39 35h3M45 35h6M24 36h27M54 36h3M24 37h27M54 37h3M24 38h27M54 38h3M36 39h21M60 39h3M36 40h21M60 40h3M36 41h21M60 41h3M21 42h3M33 42h9M57 42h3M21 43h3M33 43h9M57 43h3M21 44h3M33 44h9M57 44h3M18 45h3M39 45h3M18 46h3M39 46h3M18 47h3M39 47h3M21 48h3M36 48h6M54 48h3M21 49h3M36 49h6M54 49h3M21 50h3M36 50h6M54 50h3M42 51h3M42 52h3M42 53h3" />
                    <path stroke="#ffffff" d="M21 24h3M21 25h3M21 26h3" />
                    <path stroke="#ff9d0b" d="M24 24h3M24 25h3M24 26h3" />
                    <path stroke="#ca0065" d="M15 48h3M51 48h3M57 48h3M15 49h3M51 49h3M57 49h3M15 50h3M51 50h3M57 50h3M33 51h3M39 51h3M33 52h3M39 52h3M33 53h3M39 53h3" />
                </g>
                <g id="frame4-[[${id}]]">
                    <path stroke="#000000" d="M27 0h18M27 1h18M27 2h18M24 3h12M39 3h3M24 4h12M39 4h3M24 5h12M39 5h3M21 6h3M27 6h6M39 6h3M21 7h3M27 7h6M39 7h3M21 8h3M27 8h6M39 8h3M18 9h3M27 9h3M36 9h3M18 10h3M27 10h3M36 10h3M18 11h3M27 11h3M36 11h3M15 12h3M36 12h12M15 13h3M36 13h12M15 14h3M36 14h12M15 15h3M33 15h3M45 15h3M15 16h3M33 16h3M45 16h3M15 17h3M33 17h3M45 17h3M12 18h3M42 18h6M60 18h6M12 19h3M42 19h6M60 19h6M12 20h3M42 20h6M60 20h6M9 21h3M21 21h6M36 21h3M42 21h3M48 21h6M60 21h3M66 21h3M9 22h3M21 22h6M36 22h3M42 22h3M48 22h6M60 22h3M66 22h3M9 23h3M21 23h6M36 23h3M42 23h3M48 23h6M60 23h3M66 23h3M6 24h3M24 24h3M36 24h12M51 24h3M63 24h6M6 25h3M24 25h3M36 25h12M51 25h3M63 25h6M6 26h3M24 26h3M36 26h12M51 26h3M63 26h6M6 27h6M18 27h6M33 27h3M42 27h3M48 27h3M63 27h3M69 27h3M6 28h6M18 28h6M33 28h3M42 28h3M48 28h3M63 28h3M69 28h3M6 29h6M18 29h6M33 29h3M42 29h3M48 29h3M63 29h3M69 29h3M6 30h3M36 30h3M45 30h9M63 30h3M69 30h3M6 31h3M36 31h3M45 31h9M63 31h3M69 31h3M6 32h3M36 32h3M45 32h9M63 32h3M69 32h3M9 33h6M24 33h15M54 33h3M60 33h3M66 33h6M9 34h6M24 34h15M54 34h3M60 34h3M66 34h6M9 35h6M24 35h15M54 35h3M60 35h3M66 35h6M15 36h9M57 36h6M66 36h3M15 37h9M57 37h6M66 37h3M15 38h9M57 38h6M66 38h3M15 39h3M24 39h6M57 39h3M63 39h3M15 40h3M24 40h6M57 40h3M63 40h3M15 41h3M24 41h6M57 41h3M63 41h3M18 42h3M27 42h6M39 42h12M60 42h3M18 43h3M27 43h6M39 43h12M60 43h3M18 44h3M27 44h6M39 44h12M60 44h3M21 45h3M27 45h6M39 45h6M48 45h6M60 45h3M21 46h3M27 46h6M39 46h6M48 46h6M60 46h3M21 47h3M27 47h6M39 47h6M48 47h6M60 47h3M18 48h3M27 48h3M33 48h3M42 48h6M51 48h9M63 48h3M18 49h3M27 49h3M33 49h3M42 49h6M51 49h9M63 49h3M18 50h3M27 50h3M33 50h3M42 50h6M51 50h9M63 50h3M15 51h3M21 51h3M27 51h21M51 51h3M63 51h3M15 52h3M21 52h3M27 52h21M51 52h3M63 52h3M15 53h3M21 53h3M27 53h21M51 53h3M63 53h3M15 54h15M51 54h12M15 55h15M51 55h12M15 56h15M51 56h12" />
                    <path stroke="#7851ff" d="M36 3h3M36 4h3M36 5h3M24 6h3M33 6h6M24 7h3M33 7h6M24 8h3M33 8h6M24 9h3M33 9h3M24 10h3M33 10h3M24 11h3M33 11h3M18 12h6M18 13h6M18 14h6M18 15h3M36 15h9M18 16h3M36 16h9M18 17h3M36 17h9M21 18h6M39 18h3M21 19h6M39 19h3M21 20h6M39 20h3M18 21h3M27 21h3M39 21h3M63 21h3M18 22h3M27 22h3M39 22h3M63 22h3M18 23h3M27 23h3M39 23h3M63 23h3M9 24h3M15 24h3M33 24h3M48 24h3M9 25h3M15 25h3M33 25h3M48 25h3M9 26h3M15 26h3M33 26h3M48 26h3M36 27h3M45 27h3M36 28h3M45 28h3M36 29h3M45 29h3M30 30h6M42 30h3M30 31h6M42 31h3M30 32h6M42 32h3M42 33h3M51 33h3M63 33h3M42 34h3M51 34h3M63 34h3M42 35h3M51 35h3M63 35h3M51 36h3M63 36h3M51 37h3M63 37h3M51 38h3M63 38h3M18 39h3M30 39h6M18 40h3M30 40h6M18 41h3M30 41h6M21 42h3M33 42h3M51 42h6M21 43h3M33 43h3M51 43h6M21 44h3M33 44h3M51 44h6M24 48h3M60 48h3M24 49h3M60 49h3M24 50h3M60 50h3" />
                    <path stroke="#f8f0ff" d="M21 9h3M30 9h3M21 10h3M30 10h3M21 11h3M30 11h3M24 12h12M24 13h12M24 14h12M21 15h12M21 16h12M21 17h12M15 18h6M27 18h12M15 19h6M27 19h12M15 20h6M27 20h12M12 21h6M30 21h6M12 22h6M30 22h6M12 23h6M30 23h6M12 24h3M18 24h3M27 24h6M12 25h3M18 25h3M27 25h6M12 26h3M18 26h3M27 26h6M12 27h6M24 27h9M39 27h3M66 27h3M12 28h6M24 28h9M39 28h3M66 28h3M12 29h6M24 29h9M39 29h3M66 29h3M9 30h21M39 30h3M66 30h3M9 31h21M39 31h3M66 31h3M9 32h21M39 32h3M66 32h3M15 33h9M39 33h3M45 33h6M15 34h9M39 34h3M45 34h6M15 35h9M39 35h3M45 35h6M24 36h27M54 36h3M24 37h27M54 37h3M24 38h27M54 38h3M21 39h3M36 39h21M60 39h3M21 40h3M36 40h21M60 40h3M21 41h3M36 41h21M60 41h3M24 42h3M36 42h3M57 42h3M24 43h3M36 43h3M57 43h3M24 44h3M36 44h3M57 44h3M24 45h3M33 45h6M54 45h6M24 46h3M33 46h6M54 46h6M24 47h3M33 47h6M54 47h6M21 48h3M39 48h3M21 49h3M39 49h3M21 50h3M39 50h3M24 51h3M57 51h3M24 52h3M57 52h3M24 53h3M57 53h3" />
                    <path stroke="#ff9d0b" d="M21 24h3M21 25h3M21 26h3" />
                    <path stroke="#ca0065" d="M30 48h3M36 48h3M30 49h3M36 49h3M30 50h3M36 50h3M18 51h3M54 51h3M60 51h3M18 52h3M54 52h3M60 52h3M18 53h3M54 53h3M60 53h3" />
                </g>
            </g>
        </g>
        <g id="username-[[${id}]]">
            <text style="stroke:white; stroke-width:0.6em">[[${username}]]</text>
            <text style="fill:black">[[${username}]]</text>
        </g>
    </a>
    <style>
        #frame1-[[${id}]] {
            animation: 1s frameToggle infinite;
        }
        #frame2-[[${id}]] {
            animation: 1s frameToggle infinite reverse;
        }
        #frame3-[[${id}]] {
            animation: 1s frameToggle infinite;
        }
        #frame4-[[${id}]] {
            animation: 1s frameToggle infinite reverse;
        }
        #standing-[[${id}]] {
            animation: standingToggle [[${motion.duration}]]s infinite;
        }
        #walking-[[${id}]] {
            animation: walkingToggle [[${motion.duration}]]s infinite;
        }
        #body-[[${id}]] {
            animation: move-body-[[${id}]] [[${motion.duration}]]s infinite;
        }
        #username-[[${id}]] {
            animation: move-username-[[${id}]] [[${motion.duration}]]s infinite;
        }
        @keyframes move-body-[[${id}]] {
            0%, 10% {
                transform: translate([[${motion.positions[0].x}]]%, [[${y}]]%) scaleX([[${motion.positions[0].direction}]]);
            }
            20%, 30% {
                transform: translate([[${motion.positions[1].x}]]%, [[${y}]]%) scaleX([[${motion.positions[1].direction}]]);
            }
            40%, 50% {
                transform: translate([[${motion.positions[2].x}]]%, [[${y}]]%) scaleX([[${motion.positions[2].direction}]]);
            }
            50.01% {
                transform: translate([[${motion.positions[3].x}]]%, [[${y}]]%) scaleX([[${motion.positions[3].direction}]]);
            }
            60%, 70% {
                transform: translate([[${motion.positions[4].x}]]%, [[${y}]]%) scaleX([[${motion.positions[4].direction}]]);
            }
            80%, 100% {
                transform: translate([[${motion.positions[5].x}]]%, [[${y}]]%) scaleX([[${motion.positions[5].direction}]]);
            }
        }
        @keyframes move-username-[[${id}]] {
            0%, 10% {
                transform: translate([[${motion.namePositions[0].x}]]%, [[${y}-1]]%);
            }
            20%, 30% {
                transform: translate([[${motion.namePositions[1].x}]]%, [[${y}-1]]%);
            }
            40%, 50% {
                transform: translate([[${motion.namePositions[2].x}]]%, [[${y}-1]]%);
            }
            50.01% {
                transform: translate([[${motion.namePositions[3].x}]]%, [[${y}-1]]%);
            }
            60%, 70% {
                transform: translate([[${motion.namePositions[4].x}]]%, [[${y}-1]]%);
            }
            80%, 100% {
                transform: translate([[${motion.namePositions[5].x}]]%, [[${y}-1]]%);
            }
        }
    </style>
</svg>
