<svg fill="none" overflow="visible" xmlns="http://www.w3.org/2000/svg" viewBox="0 0 100 100" width="100" height="100">
    <a href="https://github.com/[[${username}]]">
        <g id="body-[[${id}]]">
            <svg viewBox="0 0 100 100" width="100" height="100" x="1" y="35">
                <g id="standing-[[${id}]]">
                    <g id="frame1-[[${id}]]">
                        <path stroke="#000000"
                              d="M18 0h6M63 0h6M18 1h6M63 1h6M18 2h6M63 2h6M18 3h3M24 3h6M48 3h15M66 3h3M18 4h3M24 4h6M48 4h15M66 4h3M18 5h3M24 5h6M48 5h15M66 5h3M15 6h3M30 6h18M69 6h3M15 7h3M30 7h18M69 7h3M15 8h3M30 8h18M69 8h3M15 9h6M24 9h3M51 9h6M63 9h9M15 10h6M24 10h3M51 10h6M63 10h9M15 11h6M24 11h3M51 11h6M63 11h9M21 12h3M51 12h3M60 12h3M21 13h3M51 13h3M60 13h3M21 14h3M51 14h3M60 14h3M21 15h3M39 15h6M54 15h6M21 16h3M39 16h6M54 16h6M21 17h3M39 17h6M54 17h6M21 18h6M36 18h3M45 18h6M54 18h3M63 18h6M21 19h6M36 19h3M45 19h6M54 19h3M63 19h6M21 20h6M36 20h3M45 20h6M54 20h3M63 20h6M18 21h3M24 21h3M36 21h3M45 21h3M54 21h3M60 21h3M69 21h3M18 22h3M24 22h3M36 22h3M45 22h3M54 22h3M60 22h3M69 22h3M18 23h3M24 23h3M36 23h3M45 23h3M54 23h3M60 23h3M69 23h3M27 24h3M57 24h3M63 24h6M72 24h6M27 25h3M57 25h3M63 25h6M72 25h6M27 26h3M57 26h3M63 26h6M72 26h6M21 27h3M51 27h6M60 27h3M69 27h3M78 27h3M21 28h3M51 28h6M60 28h3M69 28h3M78 28h3M21 29h3M51 29h6M60 29h3M69 29h3M78 29h3M24 30h6M45 30h6M54 30h3M60 30h3M69 30h3M75 30h6M24 31h6M45 31h6M54 31h3M60 31h3M69 31h3M75 31h6M24 32h6M45 32h6M54 32h3M60 32h3M69 32h3M75 32h6M27 33h15M51 33h3M57 33h3M63 33h3M69 33h6M27 34h15M51 34h3M57 34h3M63 34h3M69 34h6M27 35h15M51 35h3M57 35h3M63 35h3M69 35h6M27 36h3M36 36h3M45 36h3M54 36h6M63 36h3M27 37h3M36 37h3M45 37h3M54 37h6M63 37h3M27 38h3M36 38h3M45 38h3M54 38h6M63 38h3M24 39h3M33 39h3M48 39h3M54 39h9M24 40h3M33 40h3M48 40h3M54 40h9M24 41h3M33 41h3M48 41h3M54 41h9M21 42h3M33 42h3M48 42h6M57 42h3M21 43h3M33 43h3M48 43h6M57 43h3M21 44h3M33 44h3M48 44h6M57 44h3M21 45h39M21 46h39M21 47h39"/>
                        <path stroke="#9339b5"
                              d="M21 3h3M63 3h3M21 4h3M63 4h3M21 5h3M63 5h3M18 6h3M63 6h6M18 7h3M63 7h6M18 8h3M63 8h6M60 24h3M60 25h3M60 26h3M72 27h6M72 28h6M72 29h6M57 30h3M72 30h3M57 31h3M72 31h3M57 32h3M72 32h3M60 36h3M60 37h3M60 38h3"/>
                        <path stroke="#ffffff"
                              d="M21 6h9M48 6h15M21 7h9M48 7h15M21 8h9M48 8h15M27 9h24M60 9h3M27 10h24M60 10h3M27 11h24M60 11h3M24 12h27M24 13h27M24 14h27M24 15h15M45 15h9M24 16h15M45 16h9M24 17h15M45 17h9M27 18h9M39 18h3M51 18h3M27 19h9M39 19h3M51 19h3M27 20h9M39 20h3M51 20h3M27 21h9M48 21h6M63 21h3M27 22h9M48 22h6M63 22h3M27 23h9M48 23h6M63 23h3M21 24h6M30 24h18M21 25h6M30 25h18M21 26h6M30 26h18M24 27h6M33 27h15M57 27h3M24 28h6M33 28h15M57 28h3M24 29h6M33 29h15M57 29h3M30 30h3M39 30h6M30 31h3M39 31h6M30 32h3M39 32h6M42 33h9M60 33h3M42 34h9M60 34h3M42 35h9M60 35h3M48 36h6M48 37h6M48 38h6M51 39h3M51 40h3M51 41h3M54 42h3M54 43h3M54 44h3"/>
                        <path stroke="#ff86a5"
                              d="M21 9h3M57 9h3M21 10h3M57 10h3M21 11h3M57 11h3M54 12h6M54 13h6M54 14h6"/>
                        <path stroke="#00a2e8"
                              d="M42 18h3M42 19h3M42 20h3M21 21h3M39 21h3M21 22h3M39 22h3M21 23h3M39 23h3"/>
                        <path stroke="#3f48cc" d="M42 21h3M42 22h3M42 23h3"/>
                        <path stroke="#ffdf00" d="M66 21h3M66 22h3M66 23h3M69 24h3M69 25h3M69 26h3"/>
                        <path stroke="#808080"
                              d="M15 24h6M48 24h9M15 25h6M48 25h9M15 26h6M48 26h9M30 27h3M48 27h3M30 28h3M48 28h3M30 29h3M48 29h3M18 30h3M33 30h6M51 30h3M18 31h3M33 31h6M51 31h3M18 32h3M33 32h6M51 32h3M24 42h3M30 42h3M36 42h3M42 42h3M24 43h3M30 43h3M36 43h3M42 43h3M24 44h3M30 44h3M36 44h3M42 44h3"/>
                        <path stroke="#ff4600"
                              d="M30 36h3M42 36h3M30 37h3M42 37h3M30 38h3M42 38h3M45 39h3M45 40h3M45 41h3"/>
                        <path stroke="#dee300"
                              d="M33 36h3M39 36h3M33 37h3M39 37h3M33 38h3M39 38h3M27 39h6M36 39h9M27 40h6M36 40h9M27 41h6M36 41h9M27 42h3M39 42h3M45 42h3M27 43h3M39 43h3M45 43h3M27 44h3M39 44h3M45 44h3"/>
                    </g>
                    <g id="frame2-[[${id}]]">
                        <path stroke="#000000"
                              d="M18 3h6M63 3h6M18 4h6M63 4h6M18 5h6M63 5h6M18 6h3M24 6h6M48 6h15M66 6h3M18 7h3M24 7h6M48 7h15M66 7h3M18 8h3M24 8h6M48 8h15M66 8h3M15 9h3M30 9h18M69 9h3M15 10h3M30 10h18M69 10h3M15 11h3M30 11h18M69 11h3M15 12h6M24 12h3M51 12h6M63 12h9M15 13h6M24 13h3M51 13h6M63 13h9M15 14h6M24 14h3M51 14h6M63 14h9M21 15h3M51 15h3M60 15h3M21 16h3M51 16h3M60 16h3M21 17h3M51 17h3M60 17h3M21 18h3M39 18h6M54 18h15M21 19h3M39 19h6M54 19h15M21 20h3M39 20h6M54 20h15M21 21h6M36 21h3M45 21h6M54 21h6M69 21h6M21 22h6M36 22h3M45 22h6M54 22h6M69 22h6M21 23h6M36 23h3M45 23h6M54 23h6M69 23h6M18 24h3M24 24h3M36 24h3M45 24h3M54 24h3M60 24h9M75 24h3M18 25h3M24 25h3M36 25h3M45 25h3M54 25h3M60 25h9M75 25h3M18 26h3M24 26h3M36 26h3M45 26h3M54 26h3M60 26h9M75 26h3M27 27h3M60 27h3M66 27h3M72 27h6M27 28h3M60 28h3M66 28h3M72 28h6M27 29h3M60 29h3M66 29h3M72 29h6M21 30h3M51 30h6M60 30h3M66 30h6M21 31h3M51 31h6M60 31h3M66 31h6M21 32h3M51 32h6M60 32h3M66 32h6M24 33h6M45 33h6M57 33h3M63 33h3M24 34h6M45 34h6M57 34h3M63 34h3M24 35h6M45 35h6M57 35h3M63 35h3M27 36h15M45 36h3M51 36h9M63 36h3M27 37h15M45 37h3M51 37h9M63 37h3M27 38h15M45 38h3M51 38h9M63 38h3M24 39h3M33 39h3M48 39h3M54 39h9M24 40h3M33 40h3M48 40h3M54 40h9M24 41h3M33 41h3M48 41h3M54 41h9M21 42h3M33 42h3M48 42h6M57 42h3M21 43h3M33 43h3M48 43h6M57 43h3M21 44h3M33 44h3M48 44h6M57 44h3M21 45h39M21 46h39M21 47h39"/>
                        <path stroke="#9339b5"
                              d="M21 6h3M63 6h3M21 7h3M63 7h3M21 8h3M63 8h3M18 9h3M63 9h6M18 10h3M63 10h6M18 11h3M63 11h6M57 24h3M69 24h6M57 25h3M69 25h6M57 26h3M69 26h6M69 27h3M69 28h3M69 29h3M57 30h3M57 31h3M57 32h3M60 36h3M60 37h3M60 38h3"/>
                        <path stroke="#ffffff"
                              d="M21 9h9M48 9h15M21 10h9M48 10h15M21 11h9M48 11h15M27 12h24M60 12h3M27 13h24M60 13h3M27 14h24M60 14h3M24 15h27M24 16h27M24 17h27M24 18h15M45 18h9M24 19h15M45 19h9M24 20h15M45 20h9M27 21h9M39 21h3M51 21h3M60 21h3M27 22h9M39 22h3M51 22h3M60 22h3M27 23h9M39 23h3M51 23h3M60 23h3M27 24h9M48 24h6M27 25h9M48 25h6M27 26h9M48 26h6M21 27h6M30 27h18M57 27h3M21 28h6M30 28h18M57 28h3M21 29h6M30 29h18M57 29h3M24 30h6M33 30h15M24 31h6M33 31h15M24 32h6M33 32h15M30 33h3M39 33h6M60 33h3M30 34h3M39 34h6M60 34h3M30 35h3M39 35h6M60 35h3M48 36h3M48 37h3M48 38h3M51 39h3M51 40h3M51 41h3M54 42h3M54 43h3M54 44h3"/>
                        <path stroke="#ff86a5"
                              d="M21 12h3M57 12h3M21 13h3M57 13h3M21 14h3M57 14h3M54 15h6M54 16h6M54 17h6"/>
                        <path stroke="#00a2e8"
                              d="M42 21h3M42 22h3M42 23h3M21 24h3M39 24h3M21 25h3M39 25h3M21 26h3M39 26h3"/>
                        <path stroke="#ffdf00" d="M63 21h6M63 22h6M63 23h6"/>
                        <path stroke="#3f48cc" d="M42 24h3M42 25h3M42 26h3"/>
                        <path stroke="#808080"
                              d="M15 27h6M48 27h9M15 28h6M48 28h9M15 29h6M48 29h9M30 30h3M48 30h3M30 31h3M48 31h3M30 32h3M48 32h3M18 33h3M33 33h6M51 33h3M18 34h3M33 34h6M51 34h3M18 35h3M33 35h6M51 35h3M24 42h3M30 42h3M36 42h3M42 42h3M24 43h3M30 43h3M36 43h3M42 43h3M24 44h3M30 44h3M36 44h3M42 44h3"/>
                        <path stroke="#ff4600" d="M42 36h3M42 37h3M42 38h3M45 39h3M45 40h3M45 41h3"/>
                        <path stroke="#dee300"
                              d="M27 39h6M36 39h9M27 40h6M36 40h9M27 41h6M36 41h9M27 42h3M39 42h3M45 42h3M27 43h3M39 43h3M45 43h3M27 44h3M39 44h3M45 44h3"/>
                    </g>
                </g>
                <g id="walking-[[${id}]]">
                    <g id="frame3-[[${id}]]">
                        <path stroke="#000000"
                              d="M15 0h6M60 0h6M15 1h6M60 1h6M15 2h6M60 2h6M15 3h3M21 3h6M45 3h15M63 3h3M15 4h3M21 4h6M45 4h15M63 4h3M15 5h3M21 5h6M45 5h15M63 5h3M12 6h3M27 6h18M66 6h3M12 7h3M27 7h18M66 7h3M12 8h3M27 8h18M66 8h3M12 9h6M21 9h3M48 9h6M60 9h9M12 10h6M21 10h3M48 10h6M60 10h9M12 11h6M21 11h3M48 11h6M60 11h9M18 12h3M48 12h3M57 12h3M18 13h3M48 13h3M57 13h3M18 14h3M48 14h3M57 14h3M18 15h3M36 15h6M51 15h6M18 16h3M36 16h6M51 16h6M18 17h3M36 17h6M51 17h6M18 18h6M33 18h3M42 18h6M51 18h3M18 19h6M33 19h3M42 19h6M51 19h3M18 20h6M33 20h3M42 20h6M51 20h3M15 21h3M21 21h6M33 21h3M42 21h3M51 21h3M15 22h3M21 22h6M33 22h3M42 22h3M51 22h3M15 23h3M21 23h6M33 23h3M42 23h3M51 23h3M18 27h3M48 27h3M81 27h6M18 28h3M48 28h3M81 28h6M18 29h3M48 29h3M81 29h6M21 30h6M42 30h9M75 30h6M84 30h3M21 31h6M42 31h9M75 31h6M84 31h3M21 32h6M42 32h9M75 32h6M84 32h3M21 33h18M51 33h6M72 33h3M87 33h3M21 34h18M51 34h6M72 34h3M87 34h3M21 35h18M51 35h6M72 35h3M87 35h3M18 36h3M27 36h3M42 36h3M57 36h3M69 36h3M75 36h15M18 37h3M27 37h3M42 37h3M57 37h3M69 37h3M75 37h15M18 38h3M27 38h3M42 38h3M57 38h3M69 38h3M75 38h15M15 39h3M27 39h3M42 39h3M48 39h6M60 39h9M72 39h3M15 40h3M27 40h3M42 40h3M48 40h6M60 40h9M72 40h3M15 41h3M27 41h3M42 41h3M48 41h6M60 41h9M72 41h3M15 42h48M69 42h3M15 43h48M69 43h3M15 44h48M69 44h3M54 45h15M54 46h15M54 47h15"/>
                        <path stroke="#9339b5"
                              d="M18 3h3M60 3h3M18 4h3M60 4h3M18 5h3M60 5h3M15 6h3M60 6h6M15 7h3M60 7h6M15 8h3M60 8h6M81 30h3M81 31h3M81 32h3M81 33h6M81 34h6M81 35h6M69 39h3M69 40h3M69 41h3M63 42h3M63 43h3M63 44h3"/>
                        <path stroke="#ffffff"
                              d="M18 6h9M45 6h15M18 7h9M45 7h15M18 8h9M45 8h15M24 9h24M57 9h3M24 10h24M57 10h3M24 11h24M57 11h3M21 12h27M21 13h27M21 14h27M21 15h15M42 15h9M21 16h15M42 16h9M21 17h15M42 17h9M24 18h9M36 18h3M48 18h3M24 19h9M36 19h3M48 19h3M24 20h9M36 20h3M48 20h3M27 21h6M45 21h6M27 22h6M45 22h6M27 23h6M45 23h6M18 24h27M18 25h27M18 26h27M21 27h3M33 27h12M21 28h3M33 28h12M21 29h3M33 29h12M36 30h6M36 31h6M36 32h6M39 33h12M39 34h12M39 35h12M45 36h12M72 36h3M45 37h12M72 37h3M45 38h12M72 38h3M45 39h3M54 39h6M45 40h3M54 40h6M45 41h3M54 41h6M66 42h3M66 43h3M66 44h3"/>
                        <path stroke="#ff86a5"
                              d="M18 9h3M54 9h3M18 10h3M54 10h3M18 11h3M54 11h3M51 12h6M51 13h6M51 14h6"/>
                        <path stroke="#00a2e8"
                              d="M39 18h3M39 19h3M39 20h3M18 21h3M36 21h3M18 22h3M36 22h3M18 23h3M36 23h3"/>
                        <path stroke="#3f48cc" d="M39 21h3M39 22h3M39 23h3"/>
                        <path stroke="#808080"
                              d="M12 24h6M45 24h9M12 25h6M45 25h9M12 26h6M45 26h9M45 27h3M45 28h3M45 29h3M15 30h3M15 31h3M15 32h3M18 39h3M24 39h3M30 39h3M36 39h3M18 40h3M24 40h3M30 40h3M36 40h3M18 41h3M24 41h3M30 41h3M36 41h3"/>
                        <path stroke="#c00000" d="M24 27h9M24 28h9M24 29h9M27 30h9M27 31h9M27 32h9"/>
                        <path stroke="#ffdf00" d="M75 33h6M75 34h6M75 35h6"/>
                        <path stroke="#dee300"
                              d="M21 36h6M30 36h9M21 37h6M30 37h9M21 38h6M30 38h9M21 39h3M33 39h3M39 39h3M21 40h3M33 40h3M39 40h3M21 41h3M33 41h3M39 41h3"/>
                        <path stroke="#ff4600" d="M39 36h3M39 37h3M39 38h3"/>
                    </g>
                    <g id="frame4-[[${id}]]">
                        <path stroke="#000000"
                              d="M21 0h6M60 0h6M21 1h6M60 1h6M21 2h6M60 2h6M21 3h3M27 3h3M45 3h15M63 3h3M21 4h3M27 4h3M45 4h15M63 4h3M21 5h3M27 5h3M45 5h15M63 5h3M18 6h3M30 6h15M66 6h3M18 7h3M30 7h15M66 7h3M18 8h3M30 8h15M66 8h3M18 9h9M51 9h6M63 9h6M18 10h9M51 10h6M63 10h6M18 11h9M51 11h6M63 11h6M21 12h3M51 12h3M60 12h3M21 13h3M51 13h3M60 13h3M21 14h3M51 14h3M60 14h3M21 15h3M36 15h6M54 15h6M21 16h3M36 16h6M54 16h6M21 17h3M36 17h6M54 17h6M21 18h3M33 18h3M42 18h6M54 18h3M60 18h9M21 19h3M33 19h3M42 19h6M54 19h3M60 19h9M21 20h3M33 20h3M42 20h6M54 20h3M60 20h9M18 21h6M33 21h3M42 21h3M54 21h6M69 21h6M18 22h6M33 22h3M42 22h3M54 22h6M69 22h6M18 23h6M33 23h3M42 23h3M54 23h6M69 23h6M18 24h3M24 24h3M54 24h3M60 24h9M75 24h3M18 25h3M24 25h3M54 25h3M60 25h9M75 25h3M18 26h3M24 26h3M54 26h3M60 26h9M75 26h3M21 27h3M51 27h6M60 27h3M66 27h3M72 27h6M21 28h3M51 28h6M60 28h3M66 28h3M72 28h6M21 29h3M51 29h6M60 29h3M66 29h3M72 29h6M24 30h6M45 30h3M54 30h3M60 30h3M66 30h6M24 31h6M45 31h3M54 31h3M60 31h3M66 31h6M24 32h6M45 32h3M54 32h3M60 32h3M66 32h6M27 33h15M51 33h3M57 33h3M63 33h3M27 34h15M51 34h3M57 34h3M63 34h3M27 35h15M51 35h3M57 35h3M63 35h3M30 36h6M42 36h3M54 36h6M63 36h3M30 37h6M42 37h3M54 37h6M63 37h3M30 38h6M42 38h3M54 38h6M63 38h3M27 39h6M45 39h3M54 39h9M27 40h6M45 40h3M54 40h9M27 41h6M45 41h3M54 41h9M24 42h3M30 42h3M45 42h6M54 42h3M24 43h3M30 43h3M45 43h6M54 43h3M24 44h3M30 44h3M45 44h6M54 44h3M24 45h33M24 46h33M24 47h33"/>
                        <path stroke="#9339b5"
                              d="M24 3h3M60 3h3M24 4h3M60 4h3M24 5h3M60 5h3M21 6h3M60 6h6M21 7h3M60 7h6M21 8h3M60 8h6M57 24h3M69 24h6M57 25h3M69 25h6M57 26h3M69 26h6M69 27h3M69 28h3M69 29h3M57 30h3M57 31h3M57 32h3M60 36h3M60 37h3M60 38h3"/>
                        <path stroke="#ffffff"
                              d="M24 6h6M45 6h15M24 7h6M45 7h15M24 8h6M45 8h15M27 9h24M60 9h3M27 10h24M60 10h3M27 11h24M60 11h3M24 12h27M24 13h27M24 14h27M24 15h12M42 15h12M24 16h12M42 16h12M24 17h12M42 17h12M24 18h9M36 18h3M48 18h6M24 19h9M36 19h3M48 19h6M24 20h9M36 20h3M48 20h6M24 21h9M45 21h9M60 21h3M24 22h9M45 22h9M60 22h3M24 23h9M45 23h9M60 23h3M21 24h3M27 24h18M21 25h3M27 25h18M21 26h3M27 26h18M24 27h3M30 27h15M48 27h3M57 27h3M24 28h3M30 28h15M48 28h3M57 28h3M24 29h3M30 29h15M48 29h3M57 29h3M36 30h9M36 31h9M36 32h9M42 33h9M60 33h3M42 34h9M60 34h3M42 35h9M60 35h3M45 36h9M45 37h9M45 38h9M48 39h6M48 40h6M48 41h6M51 42h3M51 43h3M51 44h3"/>
                        <path stroke="#ff86a5" d="M57 9h3M57 10h3M57 11h3M54 12h6M54 13h6M54 14h6"/>
                        <path stroke="#00a2e8" d="M39 18h3M39 19h3M39 20h3M36 21h3M36 22h3M36 23h3"/>
                        <path stroke="#3f48cc" d="M39 21h3M39 22h3M39 23h3"/>
                        <path stroke="#ffdf00" d="M63 21h6M63 22h6M63 23h6"/>
                        <path stroke="#808080"
                              d="M15 24h3M45 24h9M15 25h3M45 25h9M15 26h3M45 26h9M27 27h3M45 27h3M27 28h3M45 28h3M27 29h3M45 29h3M18 30h3M30 30h6M48 30h3M18 31h3M30 31h6M48 31h3M18 32h3M30 32h6M48 32h3M27 42h3M33 42h3M39 42h3M27 43h3M33 43h3M39 43h3M27 44h3M33 44h3M39 44h3"/>
                        <path stroke="#dee300"
                              d="M36 36h3M36 37h3M36 38h3M33 39h9M33 40h9M33 41h9M36 42h3M42 42h3M36 43h3M42 43h3M36 44h3M42 44h3"/>
                        <path stroke="#ff4600" d="M39 36h3M39 37h3M39 38h3M42 39h3M42 40h3M42 41h3"/>
                    </g>
                </g>
            </svg>
            <svg viewBox="0 0 100 30" width="100" height="30" x="0" y="0">
                <g id="username-[[${id}]]">
                    <rect x="0" y="0" width="100" height="20" fill="black" fill-opacity="0.8" rx="5"/>
                    <svg x="4" y="2.5" width="15" height="15" viewBox="0 0 100 100">
                        <path fill-rule="evenodd" clip-rule="evenodd"
                              d="M48.854 0C21.839 0 0 22 0 49.217c0 21.756 13.993 40.172 33.405 46.69 2.427.49 3.316-1.059 3.316-2.362 0-1.141-.08-5.052-.08-9.127-13.59 2.934-16.42-5.867-16.42-5.867-2.184-5.704-5.42-7.17-5.42-7.17-4.448-3.015.324-3.015.324-3.015 4.934.326 7.523 5.052 7.523 5.052 4.367 7.496 11.404 5.378 14.235 4.074.404-3.178 1.699-5.378 3.074-6.6-10.839-1.141-22.243-5.378-22.243-24.283 0-5.378 1.94-9.778 5.014-13.2-.485-1.222-2.184-6.275.486-13.038 0 0 4.125-1.304 13.426 5.052a46.97 46.97 0 0 1 12.214-1.63c4.125 0 8.33.571 12.213 1.63 9.302-6.356 13.427-5.052 13.427-5.052 2.67 6.763.97 11.816.485 13.038 3.155 3.422 5.015 7.822 5.015 13.2 0 18.905-11.404 23.06-22.324 24.283 1.78 1.548 3.316 4.481 3.316 9.126 0 6.6-.08 11.897-.08 13.526 0 1.304.89 2.853 3.316 2.364 19.412-6.52 33.405-24.935 33.405-46.691C97.707 22 75.788 0 48.854 0z"
                              fill="#fff"/>
                    </svg>
                    <text x="25" y="11" dominant-baseline="middle" style="fill:white" font-size="13">
                        [[${#strings.abbreviate(username, 12)}]]
                    </text>
                    <rect x="0" y="23" width="[[${exp}]]" height="2" fill="#48ff00" rx="1"/>
                </g>
            </svg>
        </g>
    </a>
    <style>
        #frame1-[[${id}]] {
        animation: 1s frameToggle infinite;
        }
        #frame2-[[${id}]] {
        animation: 1s frameToggle infinite reverse;
        }
        #frame3-[[${id}]] {
        animation: 1s frameToggle infinite;
        }
        #frame4-[[${id}]] {
        animation: 1s frameToggle infinite reverse;
        }
        #standing-[[${id}]] {
        animation: standingToggle [[${motion.duration}]]s infinite;
        }
        #walking-[[${id}]] {
        animation: walkingToggle [[${motion.duration}]]s infinite;
        }
        #body-[[${id}]] {
        animation: move-body-[[${id}]] [[${motion.duration}]]s infinite;
        }
        #username-[[${id}]] {
        animation: move-username-[[${id}]] [[${motion.duration}]]s infinite;
        }
        @keyframes move-body-[[${id}]] {
        0%, 10% {
        transform: translate([[${motion.positions[0].x}]]%, [[${y}]]%) scaleX([[${motion.positions[0].direction}]]);
        }
        20%, 30% {
        transform: translate([[${motion.positions[1].x}]]%, [[${y}]]%) scaleX([[${motion.positions[1].direction}]]);
        }
        40%, 50% {
        transform: translate([[${motion.positions[2].x}]]%, [[${y}]]%) scaleX([[${motion.positions[2].direction}]]);
        }
        50.01% {
        transform: translate([[${motion.positions[3].x}]]%, [[${y}]]%) scaleX([[${motion.positions[3].direction}]]);
        }
        60%, 70% {
        transform: translate([[${motion.positions[4].x}]]%, [[${y}]]%) scaleX([[${motion.positions[4].direction}]]);
        }
        80%, 100% {
        transform: translate([[${motion.positions[5].x}]]%, [[${y}]]%) scaleX([[${motion.positions[5].direction}]]);
        }
        }
        @keyframes move-username-[[${id}]] {
        0%, 10% {
        transform: scaleX([[${motion.positions[0].direction}]])
        translateX([[${motion.positions[0].direction > 0 ? 0: -100}]]%);
        }
        20%, 30% {
        transform: scaleX([[${motion.positions[1].direction}]])
        translateX([[${motion.positions[1].direction > 0 ? 0: -100}]]%);
        }
        40%, 50% {
        transform: scaleX([[${motion.positions[2].direction}]])
        translateX([[${motion.positions[2].direction > 0 ? 0: -100}]]%);
        }
        50.01% {
        transform: scaleX([[${motion.positions[3].direction}]])
        translateX([[${motion.positions[3].direction > 0 ? 0: -100}]]%);
        }
        60%, 70% {
        transform: scaleX([[${motion.positions[4].direction}]])
        translateX([[${motion.positions[4].direction > 0 ? 0: -100}]]%);
        }
        80%, 100% {
        transform: scaleX([[${motion.positions[5].direction}]])
        translateX([[${motion.positions[5].direction > 0 ? 0: -100}]]%);
        }
        }
    </style>
</svg>
