<svg fill="none" overflow="visible" xmlns="http://www.w3.org/2000/svg">
    <a href="https://github.com/[[${username}]]">
        <g id="body-[[${id}]]">
            <svg viewBox="0 0 100 100" width="100" height="100" x="26" y="35">
                <g id="standing-[[${id}]]">
                    <g id="frame1-[[${id}]]">
                        <path stroke="#000000"
                              d="M12 3h6M21 3h9M33 3h9M12 4h6M21 4h9M33 4h9M12 5h6M21 5h9M33 5h9M9 6h3M15 6h6M27 6h6M39 6h3M9 7h3M15 7h6M27 7h6M39 7h3M9 8h3M15 8h6M27 8h6M39 8h3M9 9h3M15 9h3M21 9h6M36 9h3M9 10h3M15 10h3M21 10h6M36 10h3M9 11h3M15 11h3M21 11h6M36 11h3M9 12h6M33 12h3M9 13h6M33 13h3M9 14h6M33 14h3M9 15h3M33 15h3M9 16h3M33 16h3M9 17h3M33 17h3M9 18h3M24 18h6M36 18h3M9 19h3M24 19h6M36 19h3M9 20h3M24 20h6M36 20h3M6 21h6M21 21h3M27 21h3M36 21h3M6 22h6M21 22h3M27 22h3M36 22h3M6 23h6M21 23h3M27 23h3M36 23h3M6 24h3M36 24h3M6 25h3M36 25h3M6 26h3M36 26h3M6 27h3M36 27h9M6 28h3M36 28h9M6 29h3M36 29h9M9 30h3M33 30h6M42 30h3M9 31h3M33 31h6M42 31h3M9 32h3M33 32h6M42 32h3M12 33h9M27 33h15M12 34h9M27 34h15M12 35h9M27 35h15M12 36h9M39 36h6M12 37h9M39 37h6M12 38h9M39 38h6M9 39h3M15 39h3M21 39h6M30 39h3M36 39h3M42 39h3M9 40h3M15 40h3M21 40h6M30 40h3M36 40h3M42 40h3M9 41h3M15 41h3M21 41h6M30 41h3M36 41h3M42 41h3M9 42h15M27 42h18M9 43h15M27 43h18M9 44h15M27 44h18"/>
                        <path stroke="#922ecd"
                              d="M12 6h3M33 6h6M12 7h3M33 7h6M12 8h3M33 8h6M15 12h9M15 13h9M15 14h9M15 15h3M27 15h6M15 16h3M27 16h6M15 17h3M27 17h6M9 24h3M24 24h9M9 25h3M24 25h9M9 26h3M24 26h9M33 36h6M33 37h6M33 38h6"/>
                        <path stroke="#fd6500" d="M21 6h6M21 7h6M21 8h6M18 9h3M18 10h3M18 11h3"/>
                        <path stroke="#fefefe"
                              d="M12 9h3M27 9h9M12 10h3M27 10h9M12 11h3M27 11h9M24 12h9M24 13h9M24 14h9M12 15h3M18 15h9M12 16h3M18 16h9M12 17h3M18 17h9M12 18h12M30 18h6M12 19h12M30 19h6M12 20h12M30 20h6M12 21h9M24 21h3M30 21h6M12 22h9M24 22h3M30 22h6M12 23h9M24 23h3M30 23h6M12 24h12M33 24h3M12 25h12M33 25h3M12 26h12M33 26h3M9 27h6M18 27h18M9 28h6M18 28h18M9 29h6M18 29h18M24 30h9M24 31h9M24 32h9M21 33h6M21 34h6M21 35h6M21 36h12M21 37h12M21 38h12M27 39h3M27 40h3M27 41h3"/>
                        <path stroke="#538b9b"
                              d="M15 27h3M15 28h3M15 29h3M12 30h3M18 30h6M12 31h3M18 31h6M12 32h3M18 32h6"/>
                        <path stroke="#f7f7f7" d="M15 30h3M15 31h3M15 32h3M18 39h3M18 40h3M18 41h3"/>
                        <path stroke="#ffffff" d="M39 30h3M39 31h3M39 32h3"/>
                        <path stroke="#41495c"
                              d="M12 39h3M33 39h3M39 39h3M12 40h3M33 40h3M39 40h3M12 41h3M33 41h3M39 41h3"/>
                    </g>
                    <g id="frame2-[[${id}]]">
                        <path stroke="#000000"
                              d="M12 0h6M21 0h9M33 0h9M12 1h6M21 1h9M33 1h9M12 2h6M21 2h9M33 2h9M9 3h3M15 3h6M27 3h6M39 3h3M9 4h3M15 4h6M27 4h6M39 4h3M9 5h3M15 5h6M27 5h6M39 5h3M9 6h3M15 6h3M21 6h6M36 6h3M9 7h3M15 7h3M21 7h6M36 7h3M9 8h3M15 8h3M21 8h6M36 8h3M9 9h6M33 9h3M9 10h6M33 10h3M9 11h6M33 11h3M9 12h3M33 12h3M9 13h3M33 13h3M9 14h3M33 14h3M9 15h3M24 15h6M36 15h3M9 16h3M24 16h6M36 16h3M9 17h3M24 17h6M36 17h3M6 18h6M21 18h3M27 18h3M36 18h3M6 19h6M21 19h3M27 19h3M36 19h3M6 20h6M21 20h3M27 20h3M36 20h3M6 21h3M36 21h3M6 22h3M36 22h3M6 23h3M36 23h3M6 24h3M36 24h3M6 25h3M36 25h3M6 26h3M36 26h3M9 27h3M33 27h12M9 28h3M33 28h12M9 29h3M33 29h12M12 30h9M27 30h9M42 30h3M12 31h9M27 31h9M42 31h3M12 32h9M27 32h9M42 32h3M15 33h3M33 33h9M15 34h3M33 34h9M15 35h3M33 35h9M12 36h9M39 36h6M12 37h9M39 37h6M12 38h9M39 38h6M9 39h3M15 39h3M21 39h6M30 39h3M36 39h3M42 39h3M9 40h3M15 40h3M21 40h6M30 40h3M36 40h3M42 40h3M9 41h3M15 41h3M21 41h6M30 41h3M36 41h3M42 41h3M9 42h15M27 42h18M9 43h15M27 43h18M9 44h15M27 44h18"/>
                        <path stroke="#922ecd"
                              d="M12 3h3M33 3h6M12 4h3M33 4h6M12 5h3M33 5h6M15 9h9M15 10h9M15 11h9M15 12h3M27 12h6M15 13h3M27 13h6M15 14h3M27 14h6M9 21h3M24 21h9M9 22h3M24 22h9M9 23h3M24 23h9M33 36h6M33 37h6M33 38h6"/>
                        <path stroke="#fd6500" d="M21 3h6M21 4h6M21 5h6M18 6h3M18 7h3M18 8h3"/>
                        <path stroke="#fefefe"
                              d="M12 6h3M27 6h9M12 7h3M27 7h9M12 8h3M27 8h9M24 9h9M24 10h9M24 11h9M12 12h3M18 12h9M12 13h3M18 13h9M12 14h3M18 14h9M12 15h12M30 15h6M12 16h12M30 16h6M12 17h12M30 17h6M12 18h9M24 18h3M30 18h6M12 19h9M24 19h3M30 19h6M12 20h9M24 20h3M30 20h6M12 21h12M33 21h3M12 22h12M33 22h3M12 23h12M33 23h3M9 24h6M18 24h18M9 25h6M18 25h18M9 26h6M18 26h18M24 27h9M24 28h9M24 29h9M21 30h6M21 31h6M21 32h6M18 33h15M18 34h15M18 35h15M21 36h12M21 37h12M21 38h12M27 39h3M27 40h3M27 41h3"/>
                        <path stroke="#538b9b"
                              d="M15 24h3M15 25h3M15 26h3M12 27h3M18 27h6M12 28h3M18 28h6M12 29h3M18 29h6"/>
                        <path stroke="#f7f7f7" d="M15 27h3M15 28h3M15 29h3M18 39h3M18 40h3M18 41h3"/>
                        <path stroke="#ffffff" d="M36 30h6M36 31h6M36 32h6"/>
                        <path stroke="#41495c"
                              d="M12 39h3M33 39h3M39 39h3M12 40h3M33 40h3M39 40h3M12 41h3M33 41h3M39 41h3"/>
                    </g>
                </g>
                <g id="walking-[[${id}]]">
                    <g id="frame3-[[${id}]]">
                        <path stroke="#000000"
                              d="M15 0h24M15 1h24M15 2h24M12 3h9M27 3h3M36 3h3M12 4h9M27 4h3M36 4h3M12 5h9M27 5h3M36 5h3M12 6h6M21 6h6M33 6h3M12 7h6M21 7h6M33 7h3M12 8h6M21 8h6M33 8h3M12 9h3M30 9h6M12 10h3M30 10h6M12 11h3M30 11h6M9 12h3M33 12h3M9 13h3M33 13h3M9 14h3M33 14h3M9 15h3M21 15h6M36 15h3M9 16h3M21 16h6M36 16h3M9 17h3M21 17h6M36 17h3M9 18h3M18 18h3M24 18h3M36 18h3M9 19h3M18 19h3M24 19h3M36 19h3M9 20h3M18 20h3M24 20h3M36 20h3M6 21h3M36 21h3M6 22h3M36 22h3M6 23h3M36 23h3M6 24h3M36 24h3M6 25h3M36 25h3M6 26h3M36 26h3M9 27h3M33 27h12M9 28h3M33 28h12M9 29h3M33 29h12M12 30h9M27 30h9M42 30h3M12 31h9M27 31h9M42 31h3M12 32h9M27 32h9M42 32h3M15 33h3M33 33h3M39 33h3M15 34h3M33 34h3M39 34h3M15 35h3M33 35h3M39 35h3M15 36h6M36 36h6M15 37h6M36 37h6M15 38h6M36 38h6M12 39h3M18 39h6M27 39h3M33 39h3M39 39h3M12 40h3M18 40h6M27 40h3M33 40h3M39 40h3M12 41h3M18 41h6M27 41h3M33 41h3M39 41h3M12 42h30M12 43h30M12 44h30"/>
                        <path stroke="#fd6500" d="M21 3h6M21 4h6M21 5h6M18 6h3M18 7h3M18 8h3"/>
                        <path stroke="#922ecd"
                              d="M30 3h6M30 4h6M30 5h6M15 9h9M15 10h9M15 11h9M15 12h3M24 12h6M15 13h3M24 13h6M15 14h3M24 14h6M21 21h9M21 22h9M21 23h9M30 36h6M30 37h6M30 38h6"/>
                        <path stroke="#fefefe"
                              d="M27 6h6M27 7h6M27 8h6M24 9h6M24 10h6M24 11h6M12 12h3M18 12h6M30 12h3M12 13h3M18 13h6M30 13h3M12 14h3M18 14h6M30 14h3M12 15h9M27 15h9M12 16h9M27 16h9M12 17h9M27 17h9M12 18h6M21 18h3M27 18h9M12 19h6M21 19h3M27 19h9M12 20h6M21 20h3M27 20h9M9 21h12M30 21h6M9 22h12M30 22h6M9 23h12M30 23h6M9 24h3M15 24h21M9 25h3M15 25h21M9 26h3M15 26h21M12 27h3M21 27h12M12 28h3M21 28h12M12 29h3M21 29h12M21 30h6M21 31h6M21 32h6M18 33h15M18 34h15M18 35h15M21 36h9M21 37h9M21 38h9M24 39h3M24 40h3M24 41h3"/>
                        <path stroke="#538b9b" d="M12 24h3M12 25h3M12 26h3M15 27h6M15 28h6M15 29h6"/>
                        <path stroke="#ffffff" d="M36 30h6M36 31h6M36 32h6M36 33h3M36 34h3M36 35h3"/>
                        <path stroke="#41495c"
                              d="M15 39h3M30 39h3M36 39h3M15 40h3M30 40h3M36 40h3M15 41h3M30 41h3M36 41h3"/>
                    </g>
                    <g id="frame4-[[${id}]]">
                        <path stroke="#000000"
                              d="M12 0h6M21 0h9M33 0h9M12 1h6M21 1h9M33 1h9M12 2h6M21 2h9M33 2h9M9 3h3M15 3h6M27 3h6M39 3h3M9 4h3M15 4h6M27 4h6M39 4h3M9 5h3M15 5h6M27 5h6M39 5h3M9 6h3M15 6h3M21 6h6M36 6h3M9 7h3M15 7h3M21 7h6M36 7h3M9 8h3M15 8h3M21 8h6M36 8h3M9 9h6M33 9h3M9 10h6M33 10h3M9 11h6M33 11h3M9 12h3M33 12h3M9 13h3M33 13h3M9 14h3M33 14h3M9 15h3M24 15h6M36 15h3M9 16h3M24 16h6M36 16h3M9 17h3M24 17h6M36 17h3M6 18h6M21 18h3M27 18h3M36 18h3M6 19h6M21 19h3M27 19h3M36 19h3M6 20h6M21 20h3M27 20h3M36 20h3M6 21h3M36 21h3M6 22h3M36 22h3M6 23h3M36 23h3M6 24h3M36 24h3M6 25h3M36 25h3M6 26h3M36 26h3M9 27h3M33 27h12M9 28h3M33 28h12M9 29h3M33 29h12M12 30h9M27 30h9M42 30h3M12 31h9M27 31h9M42 31h3M12 32h9M27 32h9M42 32h3M15 33h3M33 33h9M15 34h3M33 34h9M15 35h3M33 35h9M12 36h9M39 36h6M12 37h9M39 37h6M12 38h9M39 38h6M9 39h3M15 39h3M21 39h6M30 39h3M36 39h3M42 39h3M9 40h3M15 40h3M21 40h6M30 40h3M36 40h3M42 40h3M9 41h3M15 41h3M21 41h6M30 41h3M36 41h3M42 41h3M9 42h15M27 42h18M9 43h15M27 43h18M9 44h15M27 44h18"/>
                        <path stroke="#922ecd"
                              d="M12 3h3M33 3h6M12 4h3M33 4h6M12 5h3M33 5h6M15 9h9M15 10h9M15 11h9M15 12h3M27 12h6M15 13h3M27 13h6M15 14h3M27 14h6M9 21h3M24 21h9M9 22h3M24 22h9M9 23h3M24 23h9M33 36h6M33 37h6M33 38h6"/>
                        <path stroke="#fd6500" d="M21 3h6M21 4h6M21 5h6M18 6h3M18 7h3M18 8h3"/>
                        <path stroke="#fefefe"
                              d="M12 6h3M27 6h9M12 7h3M27 7h9M12 8h3M27 8h9M24 9h9M24 10h9M24 11h9M12 12h3M18 12h9M12 13h3M18 13h9M12 14h3M18 14h9M12 15h12M30 15h6M12 16h12M30 16h6M12 17h12M30 17h6M12 18h9M24 18h3M30 18h6M12 19h9M24 19h3M30 19h6M12 20h9M24 20h3M30 20h6M12 21h12M33 21h3M12 22h12M33 22h3M12 23h12M33 23h3M9 24h6M18 24h18M9 25h6M18 25h18M9 26h6M18 26h18M24 27h9M24 28h9M24 29h9M21 30h6M21 31h6M21 32h6M18 33h15M18 34h15M18 35h15M21 36h12M21 37h12M21 38h12M27 39h3M27 40h3M27 41h3"/>
                        <path stroke="#538b9b"
                              d="M15 24h3M15 25h3M15 26h3M12 27h3M18 27h6M12 28h3M18 28h6M12 29h3M18 29h6"/>
                        <path stroke="#f7f7f7" d="M15 27h3M15 28h3M15 29h3M18 39h3M18 40h3M18 41h3"/>
                        <path stroke="#ffffff" d="M36 30h6M36 31h6M36 32h6"/>
                        <path stroke="#41495c"
                              d="M12 39h3M33 39h3M39 39h3M12 40h3M33 40h3M39 40h3M12 41h3M33 41h3M39 41h3"/>
                    </g>
                </g>
            </svg>
            <svg viewBox="0 0 100 30" width="100" height="30" x="0" y="0">
                <g id="username-[[${id}]]">
                    <rect x="0" y="0" width="100" height="20" fill="black" fill-opacity="0.8" rx="5"/>
                    <svg x="4" y="2.5" width="15" height="15" viewBox="0 0 100 100">
                        <path fill-rule="evenodd" clip-rule="evenodd"
                              d="M48.854 0C21.839 0 0 22 0 49.217c0 21.756 13.993 40.172 33.405 46.69 2.427.49 3.316-1.059 3.316-2.362 0-1.141-.08-5.052-.08-9.127-13.59 2.934-16.42-5.867-16.42-5.867-2.184-5.704-5.42-7.17-5.42-7.17-4.448-3.015.324-3.015.324-3.015 4.934.326 7.523 5.052 7.523 5.052 4.367 7.496 11.404 5.378 14.235 4.074.404-3.178 1.699-5.378 3.074-6.6-10.839-1.141-22.243-5.378-22.243-24.283 0-5.378 1.94-9.778 5.014-13.2-.485-1.222-2.184-6.275.486-13.038 0 0 4.125-1.304 13.426 5.052a46.97 46.97 0 0 1 12.214-1.63c4.125 0 8.33.571 12.213 1.63 9.302-6.356 13.427-5.052 13.427-5.052 2.67 6.763.97 11.816.485 13.038 3.155 3.422 5.015 7.822 5.015 13.2 0 18.905-11.404 23.06-22.324 24.283 1.78 1.548 3.316 4.481 3.316 9.126 0 6.6-.08 11.897-.08 13.526 0 1.304.89 2.853 3.316 2.364 19.412-6.52 33.405-24.935 33.405-46.691C97.707 22 75.788 0 48.854 0z"
                              fill="#fff"/>
                    </svg>
                    <text x="25" y="11" dominant-baseline="middle" style="fill:white" font-size="13">
                        [[${#strings.abbreviate(username, 12)}]]
                    </text>
                    <rect x="0" y="23" width="[[${exp}]]" height="2" fill="#48ff00" rx="1"/>
                </g>
            </svg>
        </g>
    </a>
    <style>
        #frame1-[[${id}]] {
        animation: 1s frameToggle infinite;
        }
        #frame2-[[${id}]] {
        animation: 1s frameToggle infinite reverse;
        }
        #frame3-[[${id}]] {
        animation: 1s frameToggle infinite;
        }
        #frame4-[[${id}]] {
        animation: 1s frameToggle infinite reverse;
        }
        #standing-[[${id}]] {
        animation: standingToggle [[${motion.duration}]]s infinite;
        }
        #walking-[[${id}]] {
        animation: walkingToggle [[${motion.duration}]]s infinite;
        }
        #body-[[${id}]] {
        animation: move-body-[[${id}]] [[${motion.duration}]]s infinite;
        }
        #username-[[${id}]] {
        animation: move-username-[[${id}]] [[${motion.duration}]]s infinite;
        }
        @keyframes move-body-[[${id}]] {
        0%, 10% {
        transform: translate([[${motion.positions[0].x}]]%, [[${y}]]%) scaleX([[${motion.positions[0].direction}]]);
        }
        20%, 30% {
        transform: translate([[${motion.positions[1].x}]]%, [[${y}]]%) scaleX([[${motion.positions[1].direction}]]);
        }
        40%, 50% {
        transform: translate([[${motion.positions[2].x}]]%, [[${y}]]%) scaleX([[${motion.positions[2].direction}]]);
        }
        50.01% {
        transform: translate([[${motion.positions[3].x}]]%, [[${y}]]%) scaleX([[${motion.positions[3].direction}]]);
        }
        60%, 70% {
        transform: translate([[${motion.positions[4].x}]]%, [[${y}]]%) scaleX([[${motion.positions[4].direction}]]);
        }
        80%, 100% {
        transform: translate([[${motion.positions[5].x}]]%, [[${y}]]%) scaleX([[${motion.positions[5].direction}]]);
        }
        }
        @keyframes move-username-[[${id}]] {
        0%, 10% {
        transform: scaleX([[${motion.positions[0].direction}]])
        translateX([[${motion.positions[0].direction > 0 ? 0: -100}]]%);
        }
        20%, 30% {
        transform: scaleX([[${motion.positions[1].direction}]])
        translateX([[${motion.positions[1].direction > 0 ? 0: -100}]]%);
        }
        40%, 50% {
        transform: scaleX([[${motion.positions[2].direction}]])
        translateX([[${motion.positions[2].direction > 0 ? 0: -100}]]%);
        }
        50.01% {
        transform: scaleX([[${motion.positions[3].direction}]])
        translateX([[${motion.positions[3].direction > 0 ? 0: -100}]]%);
        }
        60%, 70% {
        transform: scaleX([[${motion.positions[4].direction}]])
        translateX([[${motion.positions[4].direction > 0 ? 0: -100}]]%);
        }
        80%, 100% {
        transform: scaleX([[${motion.positions[5].direction}]])
        translateX([[${motion.positions[5].direction > 0 ? 0: -100}]]%);
        }
        }
    </style>
</svg>
