<svg fill="none" overflow="visible" xmlns="http://www.w3.org/2000/svg">
    <a href="https://github.com/[[${username}]]">
        <g id="body-[[${id}]]">
            <g id="standing-[[${id}]]">
                <g id="frame1-[[${id}]]">
                    <path stroke="#000000" d="M9 3h9M21 3h12M45 3h6M9 4h9M21 4h12M45 4h6M9 5h9M21 5h12M45 5h6M0 6h6M9 6h6M18 6h6M33 6h12M48 6h3M0 7h6M9 7h6M18 7h6M33 7h12M48 7h3M0 8h6M9 8h6M18 8h6M33 8h12M48 8h3M0 9h3M6 9h6M24 9h9M48 9h3M0 10h3M6 10h6M24 10h9M48 10h3M0 11h3M6 11h6M24 11h9M48 11h3M0 12h3M6 12h3M27 12h6M42 12h6M0 13h3M6 13h3M27 13h6M42 13h6M0 14h3M6 14h3M27 14h6M42 14h6M0 15h3M9 15h3M21 15h9M39 15h6M0 16h3M9 16h3M21 16h9M39 16h6M0 17h3M9 17h3M21 17h9M39 17h6M0 18h3M33 18h6M42 18h3M0 19h3M33 19h6M42 19h3M0 20h3M33 20h6M42 20h3M3 21h3M24 21h9M39 21h6M3 22h3M24 22h9M39 22h6M3 23h3M24 23h9M39 23h6M3 24h21M39 24h3M3 25h21M39 25h3M3 26h21M39 26h3M6 27h6M36 27h3M6 28h6M36 28h3M6 29h6M36 29h3M9 30h9M24 30h6M36 30h3M9 31h9M24 31h6M36 31h3M9 32h9M24 32h6M36 32h3M9 33h3M18 33h6M36 33h3M48 33h6M9 34h3M18 34h6M36 34h3M48 34h6M9 35h3M18 35h6M36 35h3M48 35h6M12 36h6M24 36h6M39 36h9M51 36h3M12 37h6M24 37h6M39 37h9M51 37h3M12 38h6M24 38h6M39 38h9M51 38h3M15 39h3M30 39h3M39 39h3M51 39h3M15 40h3M30 40h3M39 40h3M51 40h3M15 41h3M30 41h3M39 41h3M51 41h3M15 42h3M30 42h3M39 42h3M51 42h3M15 43h3M30 43h3M39 43h3M51 43h3M15 44h3M30 44h3M39 44h3M51 44h3M9 45h6M18 45h15M42 45h9M9 46h6M18 46h15M42 46h9M9 47h6M18 47h15M42 47h9M6 48h3M12 48h3M21 48h3M27 48h3M33 48h3M39 48h3M45 48h3M6 49h3M12 49h3M21 49h3M27 49h3M33 49h3M39 49h3M45 49h3M6 50h3M12 50h3M21 50h3M27 50h3M33 50h3M39 50h3M45 50h3M6 51h18M27 51h21M6 52h18M27 52h21M6 53h18M27 53h21" />
                    <path stroke="#683a31" d="M15 6h3M24 6h9M45 6h3M15 7h3M24 7h9M45 7h3M15 8h3M24 8h9M45 8h3M3 9h3M12 9h12M33 9h3M42 9h3M3 10h3M12 10h12M33 10h3M42 10h3M3 11h3M12 11h12M33 11h3M42 11h3M3 12h3M9 12h15M33 12h6M3 13h3M9 13h15M33 13h6M3 14h3M9 14h15M33 14h6M3 15h6M12 15h9M30 15h9M3 16h6M12 16h9M30 16h9M3 17h6M12 17h9M30 17h9M3 18h30M39 18h3M3 19h30M39 19h3M3 20h30M39 20h3M6 21h18M6 22h18M6 23h18" />
                    <path stroke="#11263c" d="M36 9h6M45 9h3M36 10h6M45 10h3M36 11h6M45 11h3M39 12h3M39 13h3M39 14h3" />
                    <path stroke="#ffffff" d="M24 12h3M24 13h3M24 14h3M12 33h3M24 33h3M12 34h3M24 34h3M12 35h3M24 35h3M9 48h3M30 48h3M36 48h3M42 48h3M9 49h3M30 49h3M36 49h3M42 49h3M9 50h3M30 50h3M36 50h3M42 50h3" />
                    <path stroke="#ff8c24" d="M33 21h6M33 22h6M33 23h6M24 24h15M24 25h15M24 26h15M12 27h24M12 28h24M12 29h24M18 30h3M30 30h6M18 31h3M30 31h6M18 32h3M30 32h6M15 33h3M27 33h6M15 34h3M27 34h6M15 35h3M27 35h6M18 36h3M30 36h9M48 36h3M18 37h3M30 37h9M48 37h3M18 38h3M30 38h9M48 38h3M18 39h12M33 39h3M42 39h6M18 40h12M33 40h3M42 40h6M18 41h12M33 41h3M42 41h6M18 42h9M33 42h6M45 42h3M18 43h9M33 43h6M45 43h3M18 44h9M33 44h6M45 44h3M33 45h9M33 46h9M33 47h9M15 48h6M15 49h6M15 50h6" />
                    <path stroke="#1c54b4" d="M21 30h3M21 31h3M21 32h3M33 33h3M33 34h3M33 35h3M21 36h3M21 37h3M21 38h3M36 39h3M48 39h3M36 40h3M48 40h3M36 41h3M48 41h3M27 42h3M42 42h3M48 42h3M27 43h3M42 43h3M48 43h3M27 44h3M42 44h3M48 44h3M15 45h3M15 46h3M15 47h3" />
                </g>
                <g id="frame2-[[${id}]]">
                    <path stroke="#000000" d="M9 6h9M21 6h12M45 6h6M9 7h9M21 7h12M45 7h6M9 8h9M21 8h12M45 8h6M0 9h6M9 9h6M18 9h6M33 9h12M48 9h3M0 10h6M9 10h6M18 10h6M33 10h12M48 10h3M0 11h6M9 11h6M18 11h6M33 11h12M48 11h3M0 12h3M6 12h6M24 12h9M48 12h3M0 13h3M6 13h6M24 13h9M48 13h3M0 14h3M6 14h6M24 14h9M48 14h3M0 15h3M6 15h3M27 15h6M42 15h6M0 16h3M6 16h3M27 16h6M42 16h6M0 17h3M6 17h3M27 17h6M42 17h6M0 18h3M9 18h3M21 18h9M39 18h6M0 19h3M9 19h3M21 19h9M39 19h6M0 20h3M9 20h3M21 20h9M39 20h6M0 21h3M33 21h6M42 21h3M0 22h3M33 22h6M42 22h3M0 23h3M33 23h6M42 23h3M3 24h3M24 24h9M39 24h6M3 25h3M24 25h9M39 25h6M3 26h3M24 26h9M39 26h6M3 27h21M39 27h3M3 28h21M39 28h3M3 29h21M39 29h3M6 30h6M36 30h3M48 30h6M6 31h6M36 31h3M48 31h6M6 32h6M36 32h3M48 32h6M9 33h9M24 33h6M36 33h3M45 33h3M51 33h3M9 34h9M24 34h6M36 34h3M45 34h3M51 34h3M9 35h9M24 35h6M36 35h3M45 35h3M51 35h3M9 36h3M18 36h6M39 36h6M51 36h3M9 37h3M18 37h6M39 37h6M51 37h3M9 38h3M18 38h6M39 38h6M51 38h3M12 39h6M24 39h6M39 39h3M51 39h3M12 40h6M24 40h6M39 40h3M51 40h3M12 41h6M24 41h6M39 41h3M51 41h3M15 42h3M30 42h3M39 42h3M48 42h3M15 43h3M30 43h3M39 43h3M48 43h3M15 44h3M30 44h3M39 44h3M48 44h3M9 45h6M18 45h15M42 45h6M9 46h6M18 46h15M42 46h6M9 47h6M18 47h15M42 47h6M6 48h3M12 48h3M21 48h3M27 48h3M33 48h3M39 48h3M45 48h3M6 49h3M12 49h3M21 49h3M27 49h3M33 49h3M39 49h3M45 49h3M6 50h3M12 50h3M21 50h3M27 50h3M33 50h3M39 50h3M45 50h3M6 51h18M27 51h21M6 52h18M27 52h21M6 53h18M27 53h21" />
                    <path stroke="#683a31" d="M15 9h3M24 9h9M45 9h3M15 10h3M24 10h9M45 10h3M15 11h3M24 11h9M45 11h3M3 12h3M12 12h12M33 12h3M42 12h3M3 13h3M12 13h12M33 13h3M42 13h3M3 14h3M12 14h12M33 14h3M42 14h3M3 15h3M9 15h15M33 15h6M3 16h3M9 16h15M33 16h6M3 17h3M9 17h15M33 17h6M3 18h6M12 18h9M30 18h9M3 19h6M12 19h9M30 19h9M3 20h6M12 20h9M30 20h9M3 21h30M39 21h3M3 22h30M39 22h3M3 23h30M39 23h3M6 24h18M6 25h18M6 26h18" />
                    <path stroke="#11263c" d="M36 12h6M45 12h3M36 13h6M45 13h3M36 14h6M45 14h3M39 15h3M39 16h3M39 17h3" />
                    <path stroke="#ffffff" d="M24 15h3M24 16h3M24 17h3M12 36h3M24 36h3M12 37h3M24 37h3M12 38h3M24 38h3M9 48h3M30 48h3M36 48h3M42 48h3M9 49h3M30 49h3M36 49h3M42 49h3M9 50h3M30 50h3M36 50h3M42 50h3" />
                    <path stroke="#ff8c24" d="M33 24h6M33 25h6M33 26h6M24 27h15M24 28h15M24 29h15M12 30h24M12 31h24M12 32h24M18 33h3M30 33h3M48 33h3M18 34h3M30 34h3M48 34h3M18 35h3M30 35h3M48 35h3M15 36h3M27 36h12M45 36h3M15 37h3M27 37h12M45 37h3M15 38h3M27 38h12M45 38h3M18 39h3M30 39h6M42 39h6M18 40h3M30 40h6M42 40h6M18 41h3M30 41h6M42 41h6M18 42h9M33 42h6M45 42h3M18 43h9M33 43h6M45 43h3M18 44h9M33 44h6M45 44h3M33 45h9M33 46h9M33 47h9M15 48h6M15 49h6M15 50h6" />
                    <path stroke="#1c54b4" d="M21 33h3M33 33h3M21 34h3M33 34h3M21 35h3M33 35h3M48 36h3M48 37h3M48 38h3M21 39h3M36 39h3M48 39h3M21 40h3M36 40h3M48 40h3M21 41h3M36 41h3M48 41h3M27 42h3M42 42h3M27 43h3M42 43h3M27 44h3M42 44h3M15 45h3M15 46h3M15 47h3" />
                </g>
            </g>
            <g id="walking-[[${id}]]">
                <g id="frame3-[[${id}]]">
                    <path stroke="#000000" d="M9 6h9M21 6h12M45 6h6M9 7h9M21 7h12M45 7h6M9 8h9M21 8h12M45 8h6M0 9h6M9 9h6M18 9h6M33 9h12M48 9h3M0 10h6M9 10h6M18 10h6M33 10h12M48 10h3M0 11h6M9 11h6M18 11h6M33 11h12M48 11h3M0 12h3M6 12h6M24 12h9M48 12h3M0 13h3M6 13h6M24 13h9M48 13h3M0 14h3M6 14h6M24 14h9M48 14h3M0 15h3M6 15h3M27 15h6M42 15h6M0 16h3M6 16h3M27 16h6M42 16h6M0 17h3M6 17h3M27 17h6M42 17h6M0 18h3M9 18h3M21 18h9M39 18h6M0 19h3M9 19h3M21 19h9M39 19h6M0 20h3M9 20h3M21 20h9M39 20h6M0 21h3M33 21h6M42 21h3M0 22h3M33 22h6M42 22h3M0 23h3M33 23h6M42 23h3M3 24h3M24 24h9M39 24h6M3 25h3M24 25h9M39 25h6M3 26h3M24 26h9M39 26h6M3 27h21M39 27h3M3 28h21M39 28h3M3 29h21M39 29h3M6 30h6M36 30h3M48 30h6M6 31h6M36 31h3M48 31h6M6 32h6M36 32h3M48 32h6M9 33h9M36 33h3M45 33h3M51 33h3M9 34h9M36 34h3M45 34h3M51 34h3M9 35h9M36 35h3M45 35h3M51 35h3M9 36h3M18 36h12M39 36h6M51 36h3M9 37h3M18 37h12M39 37h6M51 37h3M9 38h3M18 38h12M39 38h6M51 38h3M12 39h6M21 39h3M39 39h3M51 39h3M12 40h6M21 40h3M39 40h3M51 40h3M12 41h6M21 41h3M39 41h3M51 41h3M15 42h3M24 42h9M42 42h9M15 43h3M24 43h9M42 43h9M15 44h3M24 44h9M42 44h9M9 45h6M18 45h12M33 45h3M39 45h3M45 45h3M9 46h6M18 46h12M33 46h3M39 46h3M45 46h3M9 47h6M18 47h12M33 47h3M39 47h3M45 47h3M6 48h3M12 48h3M21 48h3M27 48h21M6 49h3M12 49h3M21 49h3M27 49h21M6 50h3M12 50h3M21 50h3M27 50h21M6 51h18M6 52h18M6 53h18" />
                    <path stroke="#683a31" d="M15 9h3M24 9h9M45 9h3M15 10h3M24 10h9M45 10h3M15 11h3M24 11h9M45 11h3M3 12h3M12 12h12M33 12h3M42 12h3M3 13h3M12 13h12M33 13h3M42 13h3M3 14h3M12 14h12M33 14h3M42 14h3M3 15h3M9 15h15M33 15h6M3 16h3M9 16h15M33 16h6M3 17h3M9 17h15M33 17h6M3 18h6M12 18h9M30 18h9M3 19h6M12 19h9M30 19h9M3 20h6M12 20h9M30 20h9M3 21h30M39 21h3M3 22h30M39 22h3M3 23h30M39 23h3M6 24h18M6 25h18M6 26h18" />
                    <path stroke="#11263c" d="M36 12h6M45 12h3M36 13h6M45 13h3M36 14h6M45 14h3M39 15h3M39 16h3M39 17h3" />
                    <path stroke="#ffffff" d="M24 15h3M24 16h3M24 17h3M12 36h3M12 37h3M12 38h3M24 39h3M24 40h3M24 41h3M30 45h3M36 45h3M42 45h3M30 46h3M36 46h3M42 46h3M30 47h3M36 47h3M42 47h3M9 48h3M9 49h3M9 50h3" />
                    <path stroke="#ff8c24" d="M33 24h6M33 25h6M33 26h6M24 27h15M24 28h15M24 29h15M12 30h24M12 31h24M12 32h24M18 33h3M24 33h9M48 33h3M18 34h3M24 34h9M48 34h3M18 35h3M24 35h9M48 35h3M15 36h3M30 36h9M45 36h3M15 37h3M30 37h9M45 37h3M15 38h3M30 38h9M45 38h3M18 39h3M27 39h9M42 39h6M18 40h3M27 40h9M42 40h6M18 41h3M27 41h9M42 41h6M18 42h6M33 42h9M18 43h6M33 43h9M18 44h6M33 44h9M15 48h6M15 49h6M15 50h6" />
                    <path stroke="#1c54b4" d="M21 33h3M33 33h3M21 34h3M33 34h3M21 35h3M33 35h3M48 36h3M48 37h3M48 38h3M36 39h3M48 39h3M36 40h3M48 40h3M36 41h3M48 41h3M15 45h3M15 46h3M15 47h3" />
                </g>
                <g id="frame4-[[${id}]]">
                    <path stroke="#000000" d="M9 6h9M21 6h12M45 6h6M9 7h9M21 7h12M45 7h6M9 8h9M21 8h12M45 8h6M0 9h6M9 9h6M18 9h6M33 9h12M48 9h3M0 10h6M9 10h6M18 10h6M33 10h12M48 10h3M0 11h6M9 11h6M18 11h6M33 11h12M48 11h3M0 12h3M6 12h6M24 12h9M48 12h3M0 13h3M6 13h6M24 13h9M48 13h3M0 14h3M6 14h6M24 14h9M48 14h3M0 15h3M6 15h3M27 15h6M42 15h6M0 16h3M6 16h3M27 16h6M42 16h6M0 17h3M6 17h3M27 17h6M42 17h6M0 18h3M9 18h3M21 18h9M39 18h6M0 19h3M9 19h3M21 19h9M39 19h6M0 20h3M9 20h3M21 20h9M39 20h6M0 21h3M33 21h6M42 21h3M0 22h3M33 22h6M42 22h3M0 23h3M33 23h6M42 23h3M3 24h3M24 24h9M39 24h6M3 25h3M24 25h9M39 25h6M3 26h3M24 26h9M39 26h6M3 27h21M39 27h3M3 28h21M39 28h3M3 29h21M39 29h3M6 30h6M36 30h3M48 30h6M6 31h6M36 31h3M48 31h6M6 32h6M36 32h3M48 32h6M9 33h9M24 33h6M36 33h3M45 33h3M51 33h3M9 34h9M24 34h6M36 34h3M45 34h3M51 34h3M9 35h9M24 35h6M36 35h3M45 35h3M51 35h3M12 36h12M39 36h6M51 36h3M12 37h12M39 37h6M51 37h3M12 38h12M39 38h6M51 38h3M9 39h3M24 39h6M39 39h3M51 39h3M9 40h3M24 40h6M39 40h3M51 40h3M9 41h3M24 41h6M39 41h3M51 41h3M9 42h9M30 42h3M39 42h3M48 42h3M9 43h9M30 43h3M39 43h3M48 43h3M9 44h9M30 44h3M39 44h3M48 44h3M6 45h3M12 45h3M18 45h15M42 45h6M6 46h3M12 46h3M18 46h15M42 46h6M6 47h3M12 47h3M18 47h15M42 47h6M6 48h18M27 48h3M33 48h3M39 48h3M45 48h3M6 49h18M27 49h3M33 49h3M39 49h3M45 49h3M6 50h18M27 50h3M33 50h3M39 50h3M45 50h3M27 51h21M27 52h21M27 53h21" />
                    <path stroke="#683a31" d="M15 9h3M24 9h9M45 9h3M15 10h3M24 10h9M45 10h3M15 11h3M24 11h9M45 11h3M3 12h3M12 12h12M33 12h3M42 12h3M3 13h3M12 13h12M33 13h3M42 13h3M3 14h3M12 14h12M33 14h3M42 14h3M3 15h3M9 15h15M33 15h6M3 16h3M9 16h15M33 16h6M3 17h3M9 17h15M33 17h6M3 18h6M12 18h9M30 18h9M3 19h6M12 19h9M30 19h9M3 20h6M12 20h9M30 20h9M3 21h30M39 21h3M3 22h30M39 22h3M3 23h30M39 23h3M6 24h18M6 25h18M6 26h18" />
                    <path stroke="#11263c" d="M36 12h6M45 12h3M36 13h6M45 13h3M36 14h6M45 14h3M39 15h3M39 16h3M39 17h3" />
                    <path stroke="#ffffff" d="M24 15h3M24 16h3M24 17h3M24 36h3M24 37h3M24 38h3M12 39h3M12 40h3M12 41h3M9 45h3M9 46h3M9 47h3M30 48h3M36 48h3M42 48h3M30 49h3M36 49h3M42 49h3M30 50h3M36 50h3M42 50h3" />
                    <path stroke="#ff8c24" d="M33 24h6M33 25h6M33 26h6M24 27h15M24 28h15M24 29h15M12 30h24M12 31h24M12 32h24M18 33h3M30 33h3M48 33h3M18 34h3M30 34h3M48 34h3M18 35h3M30 35h3M48 35h3M27 36h12M45 36h3M27 37h12M45 37h3M27 38h12M45 38h3M15 39h6M30 39h6M42 39h6M15 40h6M30 40h6M42 40h6M15 41h6M30 41h6M42 41h6M18 42h9M33 42h6M45 42h3M18 43h9M33 43h6M45 43h3M18 44h9M33 44h6M45 44h3M15 45h3M33 45h9M15 46h3M33 46h9M15 47h3M33 47h9" />
                    <path stroke="#1c54b4" d="M21 33h3M33 33h3M21 34h3M33 34h3M21 35h3M33 35h3M48 36h3M48 37h3M48 38h3M21 39h3M36 39h3M48 39h3M21 40h3M36 40h3M48 40h3M21 41h3M36 41h3M48 41h3M27 42h3M42 42h3M27 43h3M42 43h3M27 44h3M42 44h3" />
                </g>
            </g>
        </g>
        <g id="username-[[${id}]]">
            <text style="stroke:white; stroke-width:0.6em">[[${username}]]</text>
            <text style="fill:black">[[${username}]]</text>
        </g>
    </a>
    <style>
        #frame1-[[${id}]] {
            animation: 1s frameToggle infinite;
        }
        #frame2-[[${id}]] {
            animation: 1s frameToggle infinite reverse;
        }
        #frame3-[[${id}]] {
            animation: 1s frameToggle infinite;
        }
        #frame4-[[${id}]] {
            animation: 1s frameToggle infinite reverse;
        }
        #standing-[[${id}]] {
            animation: standingToggle [[${motion.duration}]]s infinite;
        }
        #walking-[[${id}]] {
            animation: walkingToggle [[${motion.duration}]]s infinite;
        }
        #body-[[${id}]] {
            animation: move-body-[[${id}]] [[${motion.duration}]]s infinite;
        }
        #username-[[${id}]] {
            animation: move-username-[[${id}]] [[${motion.duration}]]s infinite;
        }
        @keyframes move-body-[[${id}]] {
            0%, 10% {
                transform: translate([[${motion.positions[0].x}]]%, [[${y}]]%) scaleX([[${motion.positions[0].direction}]]);
            }
            20%, 30% {
                transform: translate([[${motion.positions[1].x}]]%, [[${y}]]%) scaleX([[${motion.positions[1].direction}]]);
            }
            40%, 50% {
                transform: translate([[${motion.positions[2].x}]]%, [[${y}]]%) scaleX([[${motion.positions[2].direction}]]);
            }
            50.01% {
                transform: translate([[${motion.positions[3].x}]]%, [[${y}]]%) scaleX([[${motion.positions[3].direction}]]);
            }
            60%, 70% {
                transform: translate([[${motion.positions[4].x}]]%, [[${y}]]%) scaleX([[${motion.positions[4].direction}]]);
            }
            80%, 100% {
                transform: translate([[${motion.positions[5].x}]]%, [[${y}]]%) scaleX([[${motion.positions[5].direction}]]);
            }
        }
        @keyframes move-username-[[${id}]] {
            0%, 10% {
                transform: translate([[${motion.namePositions[0].x}]]%, [[${y}-1]]%);
            }
            20%, 30% {
                transform: translate([[${motion.namePositions[1].x}]]%, [[${y}-1]]%);
            }
            40%, 50% {
                transform: translate([[${motion.namePositions[2].x}]]%, [[${y}-1]]%);
            }
            50.01% {
                transform: translate([[${motion.namePositions[3].x}]]%, [[${y}-1]]%);
            }
            60%, 70% {
                transform: translate([[${motion.namePositions[4].x}]]%, [[${y}-1]]%);
            }
            80%, 100% {
                transform: translate([[${motion.namePositions[5].x}]]%, [[${y}-1]]%);
            }
        }
    </style>
</svg>
