<svg fill="none" overflow="visible" xmlns="http://www.w3.org/2000/svg">
    <a href="https://github.com/[[${username}]]">
        <g id="body-[[${id}]]">
            <svg viewBox="0 0 100 100" width="100" height="100" x="0" y="23">
                <g id="standing-[[${id}]]">
                    <g id="frame1-[[${id}]]">
                        <path stroke="#000000"
                              d="M36 6h12M60 6h18M36 7h12M60 7h18M36 8h12M60 8h18M30 9h9M48 9h3M57 9h3M78 9h6M30 10h9M48 10h3M57 10h3M78 10h6M30 11h9M48 11h3M57 11h3M78 11h6M12 12h9M30 12h3M39 12h12M57 12h3M66 12h15M84 12h3M12 13h9M30 13h3M39 13h12M57 13h3M66 13h15M84 13h3M12 14h9M30 14h3M39 14h12M57 14h3M66 14h15M84 14h3M9 15h3M18 15h3M27 15h3M33 15h3M39 15h3M51 15h6M63 15h15M81 15h3M87 15h3M9 16h3M18 16h3M27 16h3M33 16h3M39 16h3M51 16h6M63 16h15M81 16h3M87 16h3M9 17h3M18 17h3M27 17h3M33 17h3M39 17h3M51 17h6M63 17h15M81 17h3M87 17h3M6 18h3M15 18h3M27 18h6M42 18h6M57 18h3M63 18h15M81 18h6M90 18h3M6 19h3M15 19h3M27 19h6M42 19h6M57 19h3M63 19h15M81 19h6M90 19h3M6 20h3M15 20h3M27 20h6M42 20h6M57 20h3M63 20h15M81 20h6M90 20h3M6 21h3M15 21h3M24 21h6M48 21h3M57 21h21M81 21h9M93 21h3M6 22h3M15 22h3M24 22h6M48 22h3M57 22h21M81 22h9M93 22h3M6 23h3M15 23h3M24 23h6M48 23h3M57 23h21M81 23h9M93 23h3M6 24h9M18 24h9M30 24h3M48 24h3M57 24h12M84 24h9M96 24h3M6 25h9M18 25h9M30 25h3M48 25h3M57 25h12M84 25h9M96 25h3M6 26h9M18 26h9M30 26h3M48 26h3M57 26h12M84 26h9M96 26h3M6 27h6M15 27h3M21 27h9M42 27h6M57 27h18M87 27h6M96 27h3M6 28h6M15 28h3M21 28h9M42 28h6M57 28h18M87 28h6M96 28h3M6 29h6M15 29h3M21 29h9M42 29h6M57 29h18M87 29h6M96 29h3M9 30h3M21 30h6M54 30h3M63 30h3M72 30h3M81 30h3M87 30h12M9 31h3M21 31h6M54 31h3M63 31h3M72 31h3M81 31h3M87 31h12M9 32h3M21 32h6M54 32h3M63 32h3M72 32h3M81 32h3M87 32h12M12 33h3M39 33h15M57 33h18M78 33h3M84 33h6M12 34h3M39 34h15M57 34h18M78 34h3M84 34h6M12 35h3M39 35h15M57 35h18M78 35h3M84 35h6M15 36h3M36 36h6M45 36h12M63 36h3M69 36h3M75 36h3M15 37h3M36 37h6M45 37h12M63 37h3M69 37h3M75 37h3M15 38h3M36 38h6M45 38h12M63 38h3M69 38h3M75 38h3M18 39h18M39 39h3M48 39h3M54 39h3M60 39h3M69 39h6M78 39h6M18 40h18M39 40h3M48 40h3M54 40h3M60 40h3M69 40h6M78 40h6M18 41h18M39 41h3M48 41h3M54 41h3M60 41h3M69 41h6M78 41h6M24 42h9M42 42h9M57 42h6M69 42h3M84 42h6M24 43h9M42 43h9M57 43h6M69 43h3M84 43h6M24 44h9M42 44h9M57 44h6M69 44h3M84 44h6M21 45h3M27 45h3M42 45h3M48 45h3M57 45h3M72 45h3M90 45h3M21 46h3M27 46h3M42 46h3M48 46h3M57 46h3M72 46h3M90 46h3M21 47h3M27 47h3M42 47h3M48 47h3M57 47h3M72 47h3M90 47h3M18 48h3M30 48h15M51 48h6M72 48h9M93 48h3M18 49h3M30 49h15M51 49h6M72 49h9M93 49h3M18 50h3M30 50h15M51 50h6M72 50h9M93 50h3M18 51h3M24 51h3M30 51h12M45 51h9M57 51h3M63 51h3M72 51h3M81 51h15M18 52h3M24 52h3M30 52h12M45 52h9M57 52h3M63 52h3M72 52h3M81 52h15M18 53h3M24 53h3M30 53h12M45 53h9M57 53h3M63 53h3M72 53h3M81 53h15M15 54h3M21 54h3M27 54h3M33 54h6M42 54h3M51 54h3M57 54h6M66 54h6M75 54h3M15 55h3M21 55h3M27 55h3M33 55h6M42 55h3M51 55h3M57 55h6M66 55h6M75 55h3M15 56h3M21 56h3M27 56h3M33 56h6M42 56h3M51 56h3M57 56h6M66 56h6M75 56h3M15 57h3M21 57h3M27 57h3M33 57h3M39 57h9M51 57h12M66 57h6M75 57h3M15 58h3M21 58h3M27 58h3M33 58h3M39 58h9M51 58h12M66 58h6M75 58h3M15 59h3M21 59h3M27 59h3M33 59h3M39 59h9M51 59h12M66 59h6M75 59h3M15 60h9M27 60h3M33 60h3M42 60h6M51 60h12M66 60h12M15 61h9M27 61h3M33 61h3M42 61h6M51 61h12M66 61h12M15 62h9M27 62h3M33 62h3M42 62h6M51 62h12M66 62h12M24 63h12M45 63h6M54 63h3M60 63h15M24 64h12M45 64h6M54 64h3M60 64h15M24 65h12M45 65h6M54 65h3M60 65h15M24 66h3M36 66h3M45 66h3M54 66h6M66 66h3M75 66h3M24 67h3M36 67h3M45 67h3M54 67h6M66 67h3M75 67h3M24 68h3M36 68h3M45 68h3M54 68h6M66 68h3M75 68h3M24 69h24M54 69h24M24 70h24M54 70h24M24 71h24M54 71h24"/>
                        <path stroke="#e0d33d"
                              d="M39 9h9M60 9h18M39 10h9M60 10h18M39 11h9M60 11h18M33 12h6M60 12h6M81 12h3M33 13h6M60 13h6M81 13h3M33 14h6M60 14h6M81 14h3M12 15h6M30 15h3M36 15h3M42 15h9M57 15h6M78 15h3M84 15h3M12 16h6M30 16h3M36 16h3M42 16h9M57 16h6M78 16h3M84 16h3M12 17h6M30 17h3M36 17h3M42 17h9M57 17h6M78 17h3M84 17h3M9 18h6M33 18h9M48 18h9M60 18h3M78 18h3M87 18h3M9 19h6M33 19h9M48 19h9M60 19h3M78 19h3M87 19h3M9 20h6M33 20h9M48 20h9M60 20h3M78 20h3M87 20h3M9 21h6M30 21h18M51 21h6M78 21h3M90 21h3M9 22h6M30 22h18M51 22h6M78 22h3M90 22h3M9 23h6M30 23h18M51 23h6M78 23h3M90 23h3M15 24h3M27 24h3M33 24h15M51 24h6M69 24h15M93 24h3M15 25h3M27 25h3M33 25h15M51 25h6M69 25h15M93 25h3M15 26h3M27 26h3M33 26h15M51 26h6M69 26h15M93 26h3M12 27h3M18 27h3M30 27h12M48 27h9M75 27h12M93 27h3M12 28h3M18 28h3M30 28h12M48 28h9M75 28h12M93 28h3M12 29h3M18 29h3M30 29h12M48 29h9M75 29h12M93 29h3M12 30h9M27 30h27M57 30h6M75 30h6M84 30h3M12 31h9M27 31h27M57 31h6M75 31h6M84 31h3M12 32h9M27 32h27M57 32h6M75 32h6M84 32h3M15 33h24M54 33h3M75 33h3M15 34h24M54 34h3M75 34h3M15 35h24M54 35h3M75 35h3M18 36h18M57 36h6M66 36h3M72 36h3M18 37h18M57 37h6M66 37h3M72 37h3M18 38h18M57 38h6M66 38h3M72 38h3M51 39h3M63 39h6M51 40h3M63 40h6M51 41h3M63 41h6M51 42h6M63 42h6M51 43h6M63 43h6M51 44h6M63 44h6M24 45h3M45 45h3M51 45h6M60 45h12M24 46h3M45 46h3M51 46h6M60 46h12M24 47h3M45 47h3M51 47h6M60 47h12M21 48h9M57 48h15M21 49h9M57 49h15M21 50h9M57 50h15M21 51h3M27 51h3M42 51h3M54 51h3M60 51h3M66 51h6M21 52h3M27 52h3M42 52h3M54 52h3M60 52h3M66 52h6M21 53h3M27 53h3M42 53h3M54 53h3M60 53h3M66 53h6M18 54h3M24 54h3M39 54h3M45 54h6M54 54h3M63 54h3M72 54h3M18 55h3M24 55h3M39 55h3M45 55h6M54 55h3M63 55h3M72 55h3M18 56h3M24 56h3M39 56h3M45 56h6M54 56h3M63 56h3M72 56h3M18 57h3M24 57h3M36 57h3M48 57h3M63 57h3M72 57h3M18 58h3M24 58h3M36 58h3M48 58h3M63 58h3M72 58h3M18 59h3M24 59h3M36 59h3M48 59h3M63 59h3M72 59h3M24 60h3M36 60h6M48 60h3M63 60h3M24 61h3M36 61h6M48 61h3M63 61h3M24 62h3M36 62h6M48 62h3M63 62h3M36 63h9M57 63h3M36 64h9M57 64h3M36 65h9M57 65h3M27 66h9M39 66h6M60 66h6M69 66h6M27 67h9M39 67h6M60 67h6M69 67h6M27 68h9M39 68h6M60 68h6M69 68h6"/>
                        <path stroke="#ff3409"
                              d="M42 36h3M42 37h3M42 38h3M45 39h3M57 39h3M45 40h3M57 40h3M45 41h3M57 41h3M33 45h3M39 45h3M33 46h3M39 46h3M33 47h3M39 47h3M45 48h6M45 49h6M45 50h6"/>
                        <path stroke="#c00000" d="M36 39h3M36 40h3M36 41h3M33 42h6M33 43h6M33 44h6"/>
                        <path stroke="#ffffff"
                              d="M42 39h3M42 40h3M42 41h3M39 42h3M39 43h3M39 44h3M30 45h3M36 45h3M30 46h3M36 46h3M30 47h3M36 47h3"/>
                        <path stroke="#c4e1f0"
                              d="M75 39h3M75 40h3M75 41h3M72 42h12M72 43h12M72 44h12M75 45h15M75 46h15M75 47h15M81 48h12M81 49h12M81 50h12"/>
                        <path stroke="rgba(255,255,255,0.00392156862745098)"
                              d="M30 57h3M30 58h3M30 59h3M30 60h3M30 61h3M30 62h3"/>
                    </g>
                    <g id="frame2-[[${id}]]">
                        <path stroke="#000000"
                              d="M36 3h12M60 3h18M36 4h12M60 4h18M36 5h12M60 5h18M30 6h9M48 6h3M57 6h3M78 6h6M30 7h9M48 7h3M57 7h3M78 7h6M30 8h9M48 8h3M57 8h3M78 8h6M12 9h9M30 9h3M39 9h12M57 9h3M66 9h12M84 9h3M12 10h9M30 10h3M39 10h12M57 10h3M66 10h12M84 10h3M12 11h9M30 11h3M39 11h12M57 11h3M66 11h12M84 11h3M9 12h3M18 12h3M27 12h3M33 12h3M39 12h3M51 12h6M63 12h12M78 12h6M87 12h3M9 13h3M18 13h3M27 13h3M33 13h3M39 13h3M51 13h6M63 13h12M78 13h6M87 13h3M9 14h3M18 14h3M27 14h3M33 14h3M39 14h3M51 14h6M63 14h12M78 14h6M87 14h3M6 15h3M15 15h3M27 15h6M42 15h6M57 15h3M63 15h12M78 15h9M90 15h3M6 16h3M15 16h3M27 16h6M42 16h6M57 16h3M63 16h12M78 16h9M90 16h3M6 17h3M15 17h3M27 17h6M42 17h6M57 17h3M63 17h12M78 17h9M90 17h3M6 18h3M15 18h3M24 18h6M48 18h3M57 18h18M78 18h12M93 18h3M6 19h3M15 19h3M24 19h6M48 19h3M57 19h18M78 19h12M93 19h3M6 20h3M15 20h3M24 20h6M48 20h3M57 20h18M78 20h12M93 20h3M6 21h9M18 21h9M30 21h3M48 21h3M57 21h9M81 21h12M96 21h3M6 22h9M18 22h9M30 22h3M48 22h3M57 22h9M81 22h12M96 22h3M6 23h9M18 23h9M30 23h3M48 23h3M57 23h9M81 23h12M96 23h3M6 24h6M15 24h3M21 24h9M42 24h6M57 24h15M84 24h9M96 24h3M6 25h6M15 25h3M21 25h9M42 25h6M57 25h15M84 25h9M96 25h3M6 26h6M15 26h3M21 26h9M42 26h6M57 26h15M84 26h9M96 26h3M9 27h3M21 27h6M54 27h3M63 27h3M69 27h3M78 27h3M84 27h15M9 28h3M21 28h6M54 28h3M63 28h3M69 28h3M78 28h3M84 28h15M9 29h3M21 29h6M54 29h3M63 29h3M69 29h3M78 29h3M84 29h15M12 30h3M39 30h15M57 30h21M81 30h6M12 31h3M39 31h15M57 31h21M81 31h6M12 32h3M39 32h15M57 32h21M81 32h6M15 33h3M36 33h6M45 33h12M66 33h3M72 33h6M15 34h3M36 34h6M45 34h12M66 34h3M72 34h6M15 35h3M36 35h6M45 35h12M66 35h3M72 35h6M18 36h18M39 36h3M48 36h3M54 36h3M63 36h3M72 36h3M78 36h6M18 37h18M39 37h3M48 37h3M54 37h3M63 37h3M72 37h3M78 37h6M18 38h18M39 38h3M48 38h3M54 38h3M63 38h3M72 38h3M78 38h6M21 39h12M42 39h9M57 39h9M72 39h3M84 39h6M21 40h12M42 40h9M57 40h9M72 40h3M84 40h6M21 41h12M42 41h9M57 41h9M72 41h3M84 41h6M18 42h3M27 42h3M42 42h3M48 42h3M57 42h6M75 42h3M90 42h3M18 43h3M27 43h3M42 43h3M48 43h3M57 43h6M75 43h3M90 43h3M18 44h3M27 44h3M42 44h3M48 44h3M57 44h6M75 44h3M90 44h3M15 45h3M30 45h15M51 45h9M75 45h6M93 45h3M15 46h3M30 46h15M51 46h9M75 46h6M93 46h3M15 47h3M30 47h15M51 47h9M75 47h6M93 47h3M15 48h3M21 48h3M27 48h6M36 48h6M45 48h6M54 48h3M60 48h3M66 48h3M75 48h3M81 48h15M15 49h3M21 49h3M27 49h6M36 49h6M45 49h6M54 49h3M60 49h3M66 49h3M75 49h3M81 49h15M15 50h3M21 50h3M27 50h6M36 50h6M45 50h6M54 50h3M60 50h3M66 50h3M75 50h3M81 50h15M12 51h3M18 51h3M24 51h3M30 51h3M36 51h3M42 51h3M51 51h6M60 51h6M69 51h6M78 51h3M12 52h3M18 52h3M24 52h3M30 52h3M36 52h3M42 52h3M51 52h6M60 52h6M69 52h6M78 52h3M12 53h3M18 53h3M24 53h3M30 53h3M36 53h3M42 53h3M51 53h6M60 53h6M69 53h6M78 53h3M12 54h3M18 54h3M24 54h3M33 54h6M45 54h3M51 54h15M69 54h6M78 54h3M12 55h3M18 55h3M24 55h3M33 55h6M45 55h3M51 55h15M69 55h6M78 55h3M12 56h3M18 56h3M24 56h3M33 56h6M45 56h3M51 56h15M69 56h6M78 56h3M12 57h9M24 57h3M33 57h3M39 57h9M51 57h9M63 57h3M69 57h3M75 57h6M12 58h9M24 58h3M33 58h3M39 58h9M51 58h9M63 58h3M69 58h3M75 58h6M12 59h9M24 59h3M33 59h3M39 59h9M51 59h9M63 59h3M69 59h3M75 59h6M21 60h6M33 60h3M42 60h9M57 60h3M63 60h9M21 61h6M33 61h3M42 61h9M57 61h3M63 61h9M21 62h6M33 62h3M42 62h9M57 62h3M63 62h9M27 63h9M45 63h3M54 63h3M60 63h6M69 63h6M27 64h9M45 64h3M54 64h3M60 64h6M69 64h6M27 65h9M45 65h3M54 65h3M60 65h6M69 65h6M24 66h3M36 66h3M45 66h3M54 66h6M66 66h3M75 66h3M24 67h3M36 67h3M45 67h3M54 67h6M66 67h3M75 67h3M24 68h3M36 68h3M45 68h3M54 68h6M66 68h3M75 68h3M24 69h24M54 69h24M24 70h24M54 70h24M24 71h24M54 71h24"/>
                        <path stroke="#e0d33d"
                              d="M39 6h9M60 6h18M39 7h9M60 7h18M39 8h9M60 8h18M33 9h6M60 9h6M78 9h6M33 10h6M60 10h6M78 10h6M33 11h6M60 11h6M78 11h6M12 12h6M30 12h3M36 12h3M42 12h9M57 12h6M75 12h3M84 12h3M12 13h6M30 13h3M36 13h3M42 13h9M57 13h6M75 13h3M84 13h3M12 14h6M30 14h3M36 14h3M42 14h9M57 14h6M75 14h3M84 14h3M9 15h6M33 15h9M48 15h9M60 15h3M75 15h3M87 15h3M9 16h6M33 16h9M48 16h9M60 16h3M75 16h3M87 16h3M9 17h6M33 17h9M48 17h9M60 17h3M75 17h3M87 17h3M9 18h6M30 18h18M51 18h6M75 18h3M90 18h3M9 19h6M30 19h18M51 19h6M75 19h3M90 19h3M9 20h6M30 20h18M51 20h6M75 20h3M90 20h3M15 21h3M27 21h3M33 21h15M51 21h6M66 21h15M93 21h3M15 22h3M27 22h3M33 22h15M51 22h6M66 22h15M93 22h3M15 23h3M27 23h3M33 23h15M51 23h6M66 23h15M93 23h3M12 24h3M18 24h3M30 24h12M48 24h9M72 24h12M93 24h3M12 25h3M18 25h3M30 25h12M48 25h9M72 25h12M93 25h3M12 26h3M18 26h3M30 26h12M48 26h9M72 26h12M93 26h3M12 27h9M27 27h27M57 27h6M72 27h6M81 27h3M12 28h9M27 28h27M57 28h6M72 28h6M81 28h3M12 29h9M27 29h27M57 29h6M72 29h6M81 29h3M15 30h24M54 30h3M15 31h24M54 31h3M15 32h24M54 32h3M18 33h18M57 33h9M69 33h3M18 34h18M57 34h9M69 34h3M18 35h18M57 35h9M69 35h3M51 36h3M66 36h6M51 37h3M66 37h6M51 38h3M66 38h6M51 39h6M66 39h6M51 40h6M66 40h6M51 41h6M66 41h6M21 42h6M45 42h3M51 42h6M63 42h12M21 43h6M45 43h3M51 43h6M63 43h12M21 44h6M45 44h3M51 44h6M63 44h12M18 45h12M60 45h15M18 46h12M60 46h15M18 47h12M60 47h15M18 48h3M24 48h3M33 48h3M42 48h3M51 48h3M57 48h3M63 48h3M69 48h6M18 49h3M24 49h3M33 49h3M42 49h3M51 49h3M57 49h3M63 49h3M69 49h6M18 50h3M24 50h3M33 50h3M42 50h3M51 50h3M57 50h3M63 50h3M69 50h6M15 51h3M21 51h3M33 51h3M39 51h3M45 51h6M57 51h3M66 51h3M75 51h3M15 52h3M21 52h3M33 52h3M39 52h3M45 52h6M57 52h3M66 52h3M75 52h3M15 53h3M21 53h3M33 53h3M39 53h3M45 53h6M57 53h3M66 53h3M75 53h3M15 54h3M21 54h3M48 54h3M66 54h3M75 54h3M15 55h3M21 55h3M48 55h3M66 55h3M75 55h3M15 56h3M21 56h3M48 56h3M66 56h3M75 56h3M21 57h3M36 57h3M48 57h3M60 57h3M66 57h3M21 58h3M36 58h3M48 58h3M60 58h3M66 58h3M21 59h3M36 59h3M48 59h3M60 59h3M66 59h3M36 60h6M60 60h3M36 61h6M60 61h3M36 62h6M60 62h3M36 63h9M57 63h3M66 63h3M36 64h9M57 64h3M66 64h3M36 65h9M57 65h3M66 65h3M27 66h9M39 66h6M60 66h6M69 66h6M27 67h9M39 67h6M60 67h6M69 67h6M27 68h9M39 68h6M60 68h6M69 68h6"/>
                        <path stroke="#ff3409"
                              d="M42 33h3M42 34h3M42 35h3M45 36h3M57 36h6M45 37h3M57 37h6M45 38h3M57 38h6M33 42h3M39 42h3M33 43h3M39 43h3M33 44h3M39 44h3M45 45h6M45 46h6M45 47h6M39 54h6M39 55h6M39 56h6"/>
                        <path stroke="#c00000" d="M36 36h3M36 37h3M36 38h3M33 39h6M33 40h6M33 41h6"/>
                        <path stroke="#ffffff"
                              d="M42 36h3M42 37h3M42 38h3M39 39h3M39 40h3M39 41h3M30 42h3M36 42h3M30 43h3M36 43h3M30 44h3M36 44h3"/>
                        <path stroke="#c4e1f0"
                              d="M75 36h3M75 37h3M75 38h3M75 39h9M75 40h9M75 41h9M78 42h12M78 43h12M78 44h12M81 45h12M81 46h12M81 47h12"/>
                        <path stroke="rgba(255,255,255,0.00392156862745098)"
                              d="M27 51h3M27 52h3M27 53h3M27 54h6M27 55h6M27 56h6M27 57h6M27 58h6M27 59h6"/>
                    </g>
                </g>
                <g id="walking-[[${id}]]">
                    <g id="frame3-[[${id}]]">
                        <path stroke="#000000"
                              d="M36 3h12M60 3h18M36 4h12M60 4h18M36 5h12M60 5h18M30 6h9M48 6h3M57 6h3M78 6h6M30 7h9M48 7h3M57 7h3M78 7h6M30 8h9M48 8h3M57 8h3M78 8h6M12 9h9M30 9h3M39 9h12M57 9h3M66 9h15M84 9h3M12 10h9M30 10h3M39 10h12M57 10h3M66 10h15M84 10h3M12 11h9M30 11h3M39 11h12M57 11h3M66 11h15M84 11h3M9 12h3M18 12h3M27 12h3M33 12h3M39 12h3M51 12h6M63 12h15M81 12h3M87 12h3M9 13h3M18 13h3M27 13h3M33 13h3M39 13h3M51 13h6M63 13h15M81 13h3M87 13h3M9 14h3M18 14h3M27 14h3M33 14h3M39 14h3M51 14h6M63 14h15M81 14h3M87 14h3M6 15h3M15 15h3M27 15h6M42 15h6M57 15h3M63 15h15M81 15h6M90 15h3M6 16h3M15 16h3M27 16h6M42 16h6M57 16h3M63 16h15M81 16h6M90 16h3M6 17h3M15 17h3M27 17h6M42 17h6M57 17h3M63 17h15M81 17h6M90 17h3M6 18h3M15 18h3M24 18h6M48 18h3M57 18h21M81 18h9M93 18h3M6 19h3M15 19h3M24 19h6M48 19h3M57 19h21M81 19h9M93 19h3M6 20h3M15 20h3M24 20h6M48 20h3M57 20h21M81 20h9M93 20h3M6 21h9M18 21h9M30 21h3M48 21h3M57 21h12M84 21h9M96 21h3M6 22h9M18 22h9M30 22h3M48 22h3M57 22h12M84 22h9M96 22h3M6 23h9M18 23h9M30 23h3M48 23h3M57 23h12M84 23h9M96 23h3M6 24h6M15 24h3M21 24h9M42 24h6M57 24h18M87 24h6M96 24h3M6 25h6M15 25h3M21 25h9M42 25h6M57 25h18M87 25h6M96 25h3M6 26h6M15 26h3M21 26h9M42 26h6M57 26h18M87 26h6M96 26h3M9 27h3M21 27h6M54 27h3M63 27h3M72 27h3M81 27h3M87 27h12M9 28h3M21 28h6M54 28h3M63 28h3M72 28h3M81 28h3M87 28h12M9 29h3M21 29h6M54 29h3M63 29h3M72 29h3M81 29h3M87 29h12M12 30h3M39 30h15M57 30h18M78 30h12M12 31h3M39 31h15M57 31h18M78 31h12M12 32h3M39 32h15M57 32h18M78 32h12M15 33h3M36 33h6M45 33h12M63 33h3M69 33h3M75 33h3M15 34h3M36 34h6M45 34h12M63 34h3M69 34h3M75 34h3M15 35h3M36 35h6M45 35h12M63 35h3M69 35h3M75 35h3M18 36h18M39 36h3M48 36h3M54 36h3M60 36h3M69 36h6M78 36h6M18 37h18M39 37h3M48 37h3M54 37h3M60 37h3M69 37h6M78 37h6M18 38h18M39 38h3M48 38h3M54 38h3M60 38h3M69 38h6M78 38h6M21 39h12M42 39h9M57 39h6M69 39h3M84 39h6M21 40h12M42 40h9M57 40h6M69 40h3M84 40h6M21 41h12M42 41h9M57 41h6M69 41h3M84 41h6M21 42h3M27 42h3M42 42h3M48 42h3M57 42h3M72 42h3M90 42h3M21 43h3M27 43h3M42 43h3M48 43h3M57 43h3M72 43h3M90 43h3M21 44h3M27 44h3M42 44h3M48 44h3M57 44h3M72 44h3M90 44h3M18 45h3M30 45h15M51 45h6M72 45h9M93 45h3M18 46h3M30 46h15M51 46h6M72 46h9M93 46h3M18 47h3M30 47h15M51 47h6M72 47h9M93 47h3M18 48h3M24 48h3M30 48h12M45 48h9M57 48h3M63 48h3M72 48h3M81 48h15M18 49h3M24 49h3M30 49h12M45 49h9M57 49h3M63 49h3M72 49h3M81 49h15M18 50h3M24 50h3M30 50h12M45 50h9M57 50h3M63 50h3M72 50h3M81 50h15M15 51h3M21 51h3M27 51h3M33 51h6M42 51h3M51 51h3M57 51h6M66 51h6M75 51h3M15 52h3M21 52h3M27 52h3M33 52h6M42 52h3M51 52h3M57 52h6M66 52h6M75 52h3M15 53h3M21 53h3M27 53h3M33 53h6M42 53h3M51 53h3M57 53h6M66 53h6M75 53h3M15 54h3M21 54h3M27 54h3M33 54h3M39 54h3M45 54h3M51 54h6M60 54h3M66 54h6M75 54h3M15 55h3M21 55h3M27 55h3M33 55h3M39 55h3M45 55h3M51 55h6M60 55h3M66 55h6M75 55h3M15 56h3M21 56h3M27 56h3M33 56h3M39 56h3M45 56h3M51 56h6M60 56h3M66 56h6M75 56h3M15 57h9M27 57h3M33 57h3M42 57h6M51 57h12M66 57h3M72 57h6M15 58h9M27 58h3M33 58h3M42 58h6M51 58h12M66 58h3M72 58h6M15 59h9M27 59h3M33 59h3M42 59h6M51 59h12M66 59h3M72 59h6M24 60h12M45 60h6M57 60h9M69 60h3M24 61h12M45 61h6M57 61h9M69 61h3M24 62h12M45 62h6M57 62h9M69 62h3M24 63h3M36 63h3M45 63h3M54 63h3M60 63h6M69 63h6M24 64h3M36 64h3M45 64h3M54 64h3M60 64h6M69 64h6M24 65h3M36 65h3M45 65h3M54 65h3M60 65h6M69 65h6M24 66h24M54 66h6M66 66h3M75 66h3M24 67h24M54 67h6M66 67h3M75 67h3M24 68h24M54 68h6M66 68h3M75 68h3M54 69h24M54 70h24M54 71h24"/>
                        <path stroke="#e0d33d"
                              d="M39 6h9M60 6h18M39 7h9M60 7h18M39 8h9M60 8h18M33 9h6M60 9h6M81 9h3M33 10h6M60 10h6M81 10h3M33 11h6M60 11h6M81 11h3M12 12h6M30 12h3M36 12h3M42 12h9M57 12h6M78 12h3M84 12h3M12 13h6M30 13h3M36 13h3M42 13h9M57 13h6M78 13h3M84 13h3M12 14h6M30 14h3M36 14h3M42 14h9M57 14h6M78 14h3M84 14h3M9 15h6M33 15h9M48 15h9M60 15h3M78 15h3M87 15h3M9 16h6M33 16h9M48 16h9M60 16h3M78 16h3M87 16h3M9 17h6M33 17h9M48 17h9M60 17h3M78 17h3M87 17h3M9 18h6M30 18h18M51 18h6M78 18h3M90 18h3M9 19h6M30 19h18M51 19h6M78 19h3M90 19h3M9 20h6M30 20h18M51 20h6M78 20h3M90 20h3M15 21h3M27 21h3M33 21h15M51 21h6M69 21h15M93 21h3M15 22h3M27 22h3M33 22h15M51 22h6M69 22h15M93 22h3M15 23h3M27 23h3M33 23h15M51 23h6M69 23h15M93 23h3M12 24h3M18 24h3M30 24h12M48 24h9M75 24h12M93 24h3M12 25h3M18 25h3M30 25h12M48 25h9M75 25h12M93 25h3M12 26h3M18 26h3M30 26h12M48 26h9M75 26h12M93 26h3M12 27h9M27 27h27M57 27h6M75 27h6M84 27h3M12 28h9M27 28h27M57 28h6M75 28h6M84 28h3M12 29h9M27 29h27M57 29h6M75 29h6M84 29h3M15 30h24M54 30h3M75 30h3M15 31h24M54 31h3M75 31h3M15 32h24M54 32h3M75 32h3M18 33h18M57 33h6M66 33h3M72 33h3M18 34h18M57 34h6M66 34h3M72 34h3M18 35h18M57 35h6M66 35h3M72 35h3M51 36h3M63 36h6M51 37h3M63 37h6M51 38h3M63 38h6M51 39h6M63 39h6M51 40h6M63 40h6M51 41h6M63 41h6M24 42h3M45 42h3M51 42h6M60 42h12M24 43h3M45 43h3M51 43h6M60 43h12M24 44h3M45 44h3M51 44h6M60 44h12M21 45h9M57 45h15M21 46h9M57 46h15M21 47h9M57 47h15M21 48h3M27 48h3M42 48h3M54 48h3M60 48h3M66 48h6M21 49h3M27 49h3M42 49h3M54 49h3M60 49h3M66 49h6M21 50h3M27 50h3M42 50h3M54 50h3M60 50h3M66 50h6M18 51h3M24 51h3M39 51h3M45 51h6M54 51h3M63 51h3M72 51h3M18 52h3M24 52h3M39 52h3M45 52h6M54 52h3M63 52h3M72 52h3M18 53h3M24 53h3M39 53h3M45 53h6M54 53h3M63 53h3M72 53h3M18 54h3M24 54h3M36 54h3M48 54h3M57 54h3M63 54h3M72 54h3M18 55h3M24 55h3M36 55h3M48 55h3M57 55h3M63 55h3M72 55h3M18 56h3M24 56h3M36 56h3M48 56h3M57 56h3M63 56h3M72 56h3M24 57h3M36 57h6M48 57h3M63 57h3M24 58h3M36 58h6M48 58h3M63 58h3M24 59h3M36 59h6M48 59h3M63 59h3M36 60h9M66 60h3M36 61h9M66 61h3M36 62h9M66 62h3M27 63h9M39 63h6M57 63h3M66 63h3M27 64h9M39 64h6M57 64h3M66 64h3M27 65h9M39 65h6M57 65h3M66 65h3M60 66h6M69 66h6M60 67h6M69 67h6M60 68h6M69 68h6"/>
                        <path stroke="rgba(255,255,255,0.00392156862745098)"
                              d="M66 27h3M66 28h3M66 29h3M30 54h3M30 55h3M30 56h3M30 57h3M30 58h3M30 59h3"/>
                        <path stroke="#ff3409"
                              d="M42 33h3M42 34h3M42 35h3M45 36h3M57 36h3M45 37h3M57 37h3M45 38h3M57 38h3M33 42h3M39 42h3M33 43h3M39 43h3M33 44h3M39 44h3M45 45h6M45 46h6M45 47h6M42 54h3M42 55h3M42 56h3"/>
                        <path stroke="#c00000" d="M36 36h3M36 37h3M36 38h3M33 39h6M33 40h6M33 41h6"/>
                        <path stroke="#ffffff"
                              d="M42 36h3M42 37h3M42 38h3M39 39h3M39 40h3M39 41h3M30 42h3M36 42h3M30 43h3M36 43h3M30 44h3M36 44h3"/>
                        <path stroke="#c4e1f0"
                              d="M75 36h3M75 37h3M75 38h3M72 39h12M72 40h12M72 41h12M75 42h15M75 43h15M75 44h15M81 45h12M81 46h12M81 47h12"/>
                    </g>
                    <g id="frame4-[[${id}]]">
                        <path stroke="#000000"
                              d="M36 3h12M60 3h18M36 4h12M60 4h18M36 5h12M60 5h18M30 6h9M48 6h3M57 6h3M78 6h6M30 7h9M48 7h3M57 7h3M78 7h6M30 8h9M48 8h3M57 8h3M78 8h6M12 9h9M30 9h3M39 9h12M57 9h3M66 9h12M84 9h3M12 10h9M30 10h3M39 10h12M57 10h3M66 10h12M84 10h3M12 11h9M30 11h3M39 11h12M57 11h3M66 11h12M84 11h3M9 12h3M18 12h3M27 12h3M33 12h3M39 12h3M51 12h6M63 12h12M78 12h6M87 12h3M9 13h3M18 13h3M27 13h3M33 13h3M39 13h3M51 13h6M63 13h12M78 13h6M87 13h3M9 14h3M18 14h3M27 14h3M33 14h3M39 14h3M51 14h6M63 14h12M78 14h6M87 14h3M6 15h3M15 15h3M27 15h6M42 15h6M57 15h3M63 15h12M78 15h9M90 15h3M6 16h3M15 16h3M27 16h6M42 16h6M57 16h3M63 16h12M78 16h9M90 16h3M6 17h3M15 17h3M27 17h6M42 17h6M57 17h3M63 17h12M78 17h9M90 17h3M6 18h3M15 18h3M24 18h6M48 18h3M57 18h18M78 18h12M93 18h3M6 19h3M15 19h3M24 19h6M48 19h3M57 19h18M78 19h12M93 19h3M6 20h3M15 20h3M24 20h6M48 20h3M57 20h18M78 20h12M93 20h3M6 21h9M18 21h9M30 21h3M48 21h3M57 21h9M81 21h12M96 21h3M6 22h9M18 22h9M30 22h3M48 22h3M57 22h9M81 22h12M96 22h3M6 23h9M18 23h9M30 23h3M48 23h3M57 23h9M81 23h12M96 23h3M6 24h6M15 24h3M21 24h9M42 24h6M57 24h15M84 24h9M96 24h3M6 25h6M15 25h3M21 25h9M42 25h6M57 25h15M84 25h9M96 25h3M6 26h6M15 26h3M21 26h9M42 26h6M57 26h15M84 26h9M96 26h3M9 27h3M21 27h6M54 27h3M63 27h3M69 27h3M78 27h3M84 27h15M9 28h3M21 28h6M54 28h3M63 28h3M69 28h3M78 28h3M84 28h15M9 29h3M21 29h6M54 29h3M63 29h3M69 29h3M78 29h3M84 29h15M12 30h3M39 30h15M57 30h21M81 30h6M12 31h3M39 31h15M57 31h21M81 31h6M12 32h3M39 32h15M57 32h21M81 32h6M15 33h3M36 33h6M45 33h12M66 33h3M72 33h6M15 34h3M36 34h6M45 34h12M66 34h3M72 34h6M15 35h3M36 35h6M45 35h12M66 35h3M72 35h6M18 36h18M39 36h3M48 36h3M54 36h3M63 36h3M72 36h3M78 36h6M18 37h18M39 37h3M48 37h3M54 37h3M63 37h3M72 37h3M78 37h6M18 38h18M39 38h3M48 38h3M54 38h3M63 38h3M72 38h3M78 38h6M21 39h12M42 39h9M57 39h9M72 39h3M84 39h6M21 40h12M42 40h9M57 40h9M72 40h3M84 40h6M21 41h12M42 41h9M57 41h9M72 41h3M84 41h6M18 42h3M27 42h3M42 42h3M48 42h3M57 42h6M75 42h3M90 42h3M18 43h3M27 43h3M42 43h3M48 43h3M57 43h6M75 43h3M90 43h3M18 44h3M27 44h3M42 44h3M48 44h3M57 44h6M75 44h3M90 44h3M15 45h3M30 45h15M51 45h9M75 45h6M93 45h3M15 46h3M30 46h15M51 46h9M75 46h6M93 46h3M15 47h3M30 47h15M51 47h9M75 47h6M93 47h3M15 48h3M21 48h3M27 48h6M36 48h6M45 48h6M54 48h3M60 48h3M66 48h3M75 48h3M81 48h15M15 49h3M21 49h3M27 49h6M36 49h6M45 49h6M54 49h3M60 49h3M66 49h3M75 49h3M81 49h15M15 50h3M21 50h3M27 50h6M36 50h6M45 50h6M54 50h3M60 50h3M66 50h3M75 50h3M81 50h15M12 51h3M18 51h3M24 51h3M30 51h3M36 51h3M42 51h3M51 51h6M60 51h6M69 51h6M78 51h3M12 52h3M18 52h3M24 52h3M30 52h3M36 52h3M42 52h3M51 52h6M60 52h6M69 52h6M78 52h3M12 53h3M18 53h3M24 53h3M30 53h3M36 53h3M42 53h3M51 53h6M60 53h6M69 53h6M78 53h3M12 54h3M18 54h3M24 54h3M33 54h9M45 54h3M51 54h15M69 54h6M78 54h3M12 55h3M18 55h3M24 55h3M33 55h9M45 55h3M51 55h15M69 55h6M78 55h3M12 56h3M18 56h3M24 56h3M33 56h9M45 56h3M51 56h15M69 56h6M78 56h3M12 57h9M24 57h3M36 57h3M42 57h6M51 57h6M63 57h3M69 57h3M75 57h6M12 58h9M24 58h3M36 58h3M42 58h6M51 58h6M63 58h3M69 58h3M75 58h6M12 59h9M24 59h3M36 59h3M42 59h6M51 59h6M63 59h3M69 59h3M75 59h6M21 60h6M36 60h3M45 60h9M57 60h15M21 61h6M36 61h3M45 61h9M57 61h15M21 62h6M36 62h3M45 62h9M57 62h15M30 63h9M48 63h9M63 63h3M72 63h3M30 64h9M48 64h9M63 64h3M72 64h3M30 65h9M48 65h9M63 65h3M72 65h3M27 66h3M39 66h3M48 66h27M27 67h3M39 67h3M48 67h27M27 68h3M39 68h3M48 68h27M27 69h24M27 70h24M27 71h24"/>
                        <path stroke="#e0d33d"
                              d="M39 6h9M60 6h18M39 7h9M60 7h18M39 8h9M60 8h18M33 9h6M60 9h6M78 9h6M33 10h6M60 10h6M78 10h6M33 11h6M60 11h6M78 11h6M12 12h6M30 12h3M36 12h3M42 12h9M57 12h6M75 12h3M84 12h3M12 13h6M30 13h3M36 13h3M42 13h9M57 13h6M75 13h3M84 13h3M12 14h6M30 14h3M36 14h3M42 14h9M57 14h6M75 14h3M84 14h3M9 15h6M33 15h9M48 15h9M60 15h3M75 15h3M87 15h3M9 16h6M33 16h9M48 16h9M60 16h3M75 16h3M87 16h3M9 17h6M33 17h9M48 17h9M60 17h3M75 17h3M87 17h3M9 18h6M30 18h18M51 18h6M75 18h3M90 18h3M9 19h6M30 19h18M51 19h6M75 19h3M90 19h3M9 20h6M30 20h18M51 20h6M75 20h3M90 20h3M15 21h3M27 21h3M33 21h15M51 21h6M66 21h15M93 21h3M15 22h3M27 22h3M33 22h15M51 22h6M66 22h15M93 22h3M15 23h3M27 23h3M33 23h15M51 23h6M66 23h15M93 23h3M12 24h3M18 24h3M30 24h12M48 24h9M72 24h12M93 24h3M12 25h3M18 25h3M30 25h12M48 25h9M72 25h12M93 25h3M12 26h3M18 26h3M30 26h12M48 26h9M72 26h12M93 26h3M12 27h9M27 27h27M57 27h6M72 27h6M81 27h3M12 28h9M27 28h27M57 28h6M72 28h6M81 28h3M12 29h9M27 29h27M57 29h6M72 29h6M81 29h3M15 30h24M54 30h3M15 31h24M54 31h3M15 32h24M54 32h3M18 33h18M57 33h9M69 33h3M18 34h18M57 34h9M69 34h3M18 35h18M57 35h9M69 35h3M51 36h3M66 36h6M51 37h3M66 37h6M51 38h3M66 38h6M51 39h6M66 39h6M51 40h6M66 40h6M51 41h6M66 41h6M21 42h6M45 42h3M51 42h6M63 42h12M21 43h6M45 43h3M51 43h6M63 43h12M21 44h6M45 44h3M51 44h6M63 44h12M18 45h12M60 45h15M18 46h12M60 46h15M18 47h12M60 47h15M18 48h3M24 48h3M33 48h3M42 48h3M51 48h3M57 48h3M63 48h3M69 48h6M18 49h3M24 49h3M33 49h3M42 49h3M51 49h3M57 49h3M63 49h3M69 49h6M18 50h3M24 50h3M33 50h3M42 50h3M51 50h3M57 50h3M63 50h3M69 50h6M15 51h3M21 51h3M33 51h3M39 51h3M45 51h6M57 51h3M66 51h3M75 51h3M15 52h3M21 52h3M33 52h3M39 52h3M45 52h6M57 52h3M66 52h3M75 52h3M15 53h3M21 53h3M33 53h3M39 53h3M45 53h6M57 53h3M66 53h3M75 53h3M15 54h3M21 54h3M48 54h3M66 54h3M75 54h3M15 55h3M21 55h3M48 55h3M66 55h3M75 55h3M15 56h3M21 56h3M48 56h3M66 56h3M75 56h3M21 57h3M39 57h3M48 57h3M57 57h6M66 57h3M21 58h3M39 58h3M48 58h3M57 58h6M66 58h3M21 59h3M39 59h3M48 59h3M57 59h6M66 59h3M39 60h6M54 60h3M39 61h6M54 61h3M39 62h6M54 62h3M39 63h9M57 63h6M66 63h6M39 64h9M57 64h6M66 64h6M39 65h9M57 65h6M66 65h6M30 66h9M42 66h6M30 67h9M42 67h6M30 68h9M42 68h6"/>
                        <path stroke="#ff3409"
                              d="M42 33h3M42 34h3M42 35h3M45 36h3M57 36h6M45 37h3M57 37h6M45 38h3M57 38h6M33 42h3M39 42h3M33 43h3M39 43h3M33 44h3M39 44h3M45 45h6M45 46h6M45 47h6M42 54h3M42 55h3M42 56h3"/>
                        <path stroke="#c00000" d="M36 36h3M36 37h3M36 38h3M33 39h6M33 40h6M33 41h6"/>
                        <path stroke="#ffffff"
                              d="M42 36h3M42 37h3M42 38h3M39 39h3M39 40h3M39 41h3M30 42h3M36 42h3M30 43h3M36 43h3M30 44h3M36 44h3"/>
                        <path stroke="#c4e1f0"
                              d="M75 36h3M75 37h3M75 38h3M75 39h9M75 40h9M75 41h9M78 42h12M78 43h12M78 44h12M81 45h12M81 46h12M81 47h12"/>
                    </g>
                </g>
            </svg>
            <svg viewBox="0 0 100 30" width="100" height="30" x="0" y="0">
                <g id="username-[[${id}]]">
                    <rect x="0" y="0" width="100" height="20" fill="black" fill-opacity="0.8" rx="5"/>
                    <svg x="4" y="2.5" width="15" height="15" viewBox="0 0 100 100">
                        <path fill-rule="evenodd" clip-rule="evenodd"
                              d="M48.854 0C21.839 0 0 22 0 49.217c0 21.756 13.993 40.172 33.405 46.69 2.427.49 3.316-1.059 3.316-2.362 0-1.141-.08-5.052-.08-9.127-13.59 2.934-16.42-5.867-16.42-5.867-2.184-5.704-5.42-7.17-5.42-7.17-4.448-3.015.324-3.015.324-3.015 4.934.326 7.523 5.052 7.523 5.052 4.367 7.496 11.404 5.378 14.235 4.074.404-3.178 1.699-5.378 3.074-6.6-10.839-1.141-22.243-5.378-22.243-24.283 0-5.378 1.94-9.778 5.014-13.2-.485-1.222-2.184-6.275.486-13.038 0 0 4.125-1.304 13.426 5.052a46.97 46.97 0 0 1 12.214-1.63c4.125 0 8.33.571 12.213 1.63 9.302-6.356 13.427-5.052 13.427-5.052 2.67 6.763.97 11.816.485 13.038 3.155 3.422 5.015 7.822 5.015 13.2 0 18.905-11.404 23.06-22.324 24.283 1.78 1.548 3.316 4.481 3.316 9.126 0 6.6-.08 11.897-.08 13.526 0 1.304.89 2.853 3.316 2.364 19.412-6.52 33.405-24.935 33.405-46.691C97.707 22 75.788 0 48.854 0z"
                              fill="#fff"/>
                    </svg>
                    <text x="25" y="11" dominant-baseline="middle" style="fill:white" font-size="13">
                        [[${#strings.abbreviate(username, 12)}]]
                    </text>
                    <rect x="0" y="23" width="[[${exp}]]" height="2" fill="#48ff00" rx="1"/>
                </g>
            </svg>
        </g>
    </a>
    <style>
        #frame1-[[${id}]] {
        animation: 1s frameToggle infinite;
        }
        #frame2-[[${id}]] {
        animation: 1s frameToggle infinite reverse;
        }
        #frame3-[[${id}]] {
        animation: 1s frameToggle infinite;
        }
        #frame4-[[${id}]] {
        animation: 1s frameToggle infinite reverse;
        }
        #standing-[[${id}]] {
        animation: standingToggle [[${motion.duration}]]s infinite;
        }
        #walking-[[${id}]] {
        animation: walkingToggle [[${motion.duration}]]s infinite;
        }
        #body-[[${id}]] {
        animation: move-body-[[${id}]] [[${motion.duration}]]s infinite;
        }
        #username-[[${id}]] {
        animation: move-username-[[${id}]] [[${motion.duration}]]s infinite;
        }
        @keyframes move-body-[[${id}]] {
        0%, 10% {
        transform: translate([[${motion.positions[0].x}]]%, [[${y}]]%) scaleX([[${motion.positions[0].direction}]]);
        }
        20%, 30% {
        transform: translate([[${motion.positions[1].x}]]%, [[${y}]]%) scaleX([[${motion.positions[1].direction}]]);
        }
        40%, 50% {
        transform: translate([[${motion.positions[2].x}]]%, [[${y}]]%) scaleX([[${motion.positions[2].direction}]]);
        }
        50.01% {
        transform: translate([[${motion.positions[3].x}]]%, [[${y}]]%) scaleX([[${motion.positions[3].direction}]]);
        }
        60%, 70% {
        transform: translate([[${motion.positions[4].x}]]%, [[${y}]]%) scaleX([[${motion.positions[4].direction}]]);
        }
        80%, 100% {
        transform: translate([[${motion.positions[5].x}]]%, [[${y}]]%) scaleX([[${motion.positions[5].direction}]]);
        }
        }
        @keyframes move-username-[[${id}]] {
        0%, 10% {
        transform: scaleX([[${motion.positions[0].direction}]])
        translateX([[${motion.positions[0].direction > 0 ? 0: -100}]]%);
        }
        20%, 30% {
        transform: scaleX([[${motion.positions[1].direction}]])
        translateX([[${motion.positions[1].direction > 0 ? 0: -100}]]%);
        }
        40%, 50% {
        transform: scaleX([[${motion.positions[2].direction}]])
        translateX([[${motion.positions[2].direction > 0 ? 0: -100}]]%);
        }
        50.01% {
        transform: scaleX([[${motion.positions[3].direction}]])
        translateX([[${motion.positions[3].direction > 0 ? 0: -100}]]%);
        }
        60%, 70% {
        transform: scaleX([[${motion.positions[4].direction}]])
        translateX([[${motion.positions[4].direction > 0 ? 0: -100}]]%);
        }
        80%, 100% {
        transform: scaleX([[${motion.positions[5].direction}]])
        translateX([[${motion.positions[5].direction > 0 ? 0: -100}]]%);
        }
        }
    </style>
</svg>
