<svg fill="none" overflow="visible" xmlns="http://www.w3.org/2000/svg">
    <a href="https://github.com/[[${username}]]">
        <g id="body-[[${id}]]">
            <svg viewBox="0 0 100 100" width="100" height="100" x="18" y="28">
                <g id="standing-[[${id}]]">
                    <g id="frame1-[[${id}]]">
                        <path stroke="#000000"
                              d="M30 3h9M30 4h9M30 5h9M27 6h3M33 6h6M27 7h3M33 7h6M27 8h3M33 8h6M24 9h3M30 9h3M36 9h3M24 10h3M30 10h3M36 10h3M24 11h3M30 11h3M36 11h3M21 12h3M27 12h3M36 12h9M57 12h6M21 13h3M27 13h3M36 13h9M57 13h6M21 14h3M27 14h3M36 14h9M57 14h6M15 15h9M27 15h3M33 15h6M42 15h3M48 15h9M60 15h3M15 16h9M27 16h3M33 16h6M42 16h3M48 16h9M60 16h3M15 17h9M27 17h3M33 17h6M42 17h3M48 17h9M60 17h3M12 18h3M18 18h6M27 18h9M42 18h6M54 18h9M12 19h3M18 19h6M27 19h9M42 19h6M54 19h9M12 20h3M18 20h6M27 20h9M42 20h6M54 20h9M12 21h3M18 21h3M33 21h9M45 21h6M57 21h6M12 22h3M18 22h3M33 22h9M45 22h6M57 22h6M12 23h3M18 23h3M33 23h9M45 23h6M57 23h6M12 24h3M18 24h6M27 24h9M42 24h9M57 24h3M12 25h3M18 25h6M27 25h9M42 25h9M57 25h3M12 26h3M18 26h6M27 26h9M42 26h9M57 26h3M15 27h3M21 27h6M33 27h15M54 27h6M15 28h3M21 28h6M33 28h15M54 28h6M15 29h3M21 29h6M33 29h15M54 29h6M18 30h3M24 30h15M45 30h3M51 30h6M18 31h3M24 31h15M45 31h3M51 31h6M18 32h3M24 32h15M45 32h3M51 32h6M21 33h6M30 33h6M39 33h3M45 33h9M21 34h6M30 34h6M39 34h3M45 34h9M21 35h6M30 35h6M39 35h3M45 35h9M18 36h6M27 36h3M36 36h9M51 36h3M18 37h6M27 37h3M36 37h9M51 37h3M18 38h6M27 38h3M36 38h9M51 38h3M15 39h12M30 39h6M39 39h3M45 39h3M51 39h3M15 40h12M30 40h6M39 40h3M45 40h3M51 40h3M15 41h12M30 41h6M39 41h3M45 41h3M51 41h3M12 42h6M21 42h3M27 42h3M39 42h6M48 42h6M12 43h6M21 43h3M27 43h3M39 43h6M48 43h6M12 44h6M21 44h3M27 44h3M39 44h6M48 44h6M9 45h3M15 45h12M33 45h12M48 45h6M9 46h3M15 46h12M33 46h12M48 46h6M9 47h3M15 47h12M33 47h12M48 47h6M6 48h3M12 48h3M21 48h3M27 48h6M39 48h12M54 48h3M6 49h3M12 49h3M21 49h3M27 49h6M39 49h12M54 49h3M6 50h3M12 50h3M21 50h3M27 50h6M39 50h12M54 50h3M3 51h3M9 51h3M15 51h9M27 51h3M33 51h3M39 51h12M57 51h3M3 52h3M9 52h3M15 52h9M27 52h3M33 52h3M39 52h12M57 52h3M3 53h3M9 53h3M15 53h9M27 53h3M33 53h3M39 53h12M57 53h3M3 54h6M12 54h3M24 54h6M33 54h6M48 54h12M3 55h6M12 55h3M24 55h6M33 55h6M48 55h12M3 56h6M12 56h3M24 56h6M33 56h6M48 56h12M12 57h18M33 57h18M12 58h18M33 58h18M12 59h18M33 59h18"/>
                        <path stroke="#ffffff"
                              d="M30 6h3M30 7h3M30 8h3M27 9h3M27 10h3M27 11h3M24 12h3M24 13h3M24 14h3M24 15h3M24 16h3M24 17h3M24 18h3M24 19h3M24 20h3M21 21h12M21 22h12M21 23h12M24 24h3M24 25h3M24 26h3"/>
                        <path stroke="#d146ff"
                              d="M33 9h3M33 10h3M33 11h3M30 12h6M30 13h6M30 14h6M30 15h3M30 16h3M30 17h3M39 30h6M39 31h6M39 32h6M42 33h3M42 34h3M42 35h3M45 36h6M45 37h6M45 38h6M48 39h3M48 40h3M48 41h3M12 45h3M12 46h3M12 47h3M9 48h3M9 49h3M9 50h3M6 51h3M6 52h3M6 53h3"/>
                        <path stroke="#e3ecec"
                              d="M39 15h3M57 15h3M39 16h3M57 16h3M39 17h3M57 17h3M15 18h3M36 18h6M48 18h6M15 19h3M36 19h6M48 19h6M15 20h3M36 20h6M48 20h6M15 21h3M42 21h3M51 21h6M15 22h3M42 22h3M51 22h6M15 23h3M42 23h3M51 23h6M15 24h3M36 24h6M51 24h6M15 25h3M36 25h6M51 25h6M15 26h3M36 26h6M51 26h6M18 27h3M48 27h6M18 28h3M48 28h6M18 29h3M48 29h6M21 30h3M48 30h3M21 31h3M48 31h3M21 32h3M48 32h3M36 39h3M36 40h3M36 41h3M24 42h3M30 42h9M24 43h3M30 43h9M24 44h3M30 44h9M27 45h6M27 46h6M27 47h6M51 48h3M51 49h3M51 50h3M51 51h6M51 52h6M51 53h6"/>
                        <path stroke="#fad7ba" d="M27 27h6M27 28h6M27 29h6"/>
                        <path stroke="#ffff00"
                              d="M27 33h3M27 34h3M27 35h3M24 36h3M30 36h6M24 37h3M30 37h6M24 38h3M30 38h6"/>
                        <path stroke="#525252"
                              d="M36 33h3M36 34h3M36 35h3M27 39h3M42 39h3M27 40h3M42 40h3M27 41h3M42 41h3M18 42h3M45 42h3M18 43h3M45 43h3M18 44h3M45 44h3M45 45h3M45 46h3M45 47h3M24 48h3M36 48h3M24 49h3M36 49h3M24 50h3M36 50h3"/>
                        <path stroke="#c0c0c0"
                              d="M33 48h3M33 49h3M33 50h3M24 51h3M36 51h3M24 52h3M36 52h3M24 53h3M36 53h3M15 54h9M39 54h9M15 55h9M39 55h9M15 56h9M39 56h9"/>
                    </g>
                    <g id="frame2-[[${id}]]">
                        <path stroke="#000000"
                              d="M30 0h9M30 1h9M30 2h9M27 3h3M33 3h6M27 4h3M33 4h6M27 5h3M33 5h6M24 6h3M30 6h3M36 6h3M24 7h3M30 7h3M36 7h3M24 8h3M30 8h3M36 8h3M21 9h3M27 9h3M36 9h9M60 9h6M21 10h3M27 10h3M36 10h9M60 10h6M21 11h3M27 11h3M36 11h9M60 11h6M15 12h9M27 12h3M33 12h6M42 12h3M48 12h6M57 12h3M63 12h3M15 13h9M27 13h3M33 13h6M42 13h3M48 13h6M57 13h3M63 13h3M15 14h9M27 14h3M33 14h6M42 14h3M48 14h6M57 14h3M63 14h3M12 15h3M18 15h6M27 15h9M42 15h6M54 15h6M63 15h3M12 16h3M18 16h6M27 16h9M42 16h6M54 16h6M63 16h3M12 17h3M18 17h6M27 17h9M42 17h6M54 17h6M63 17h3M12 18h3M18 18h3M33 18h9M45 18h6M57 18h3M63 18h3M12 19h3M18 19h3M33 19h9M45 19h6M57 19h3M63 19h3M12 20h3M18 20h3M33 20h9M45 20h6M57 20h3M63 20h3M12 21h3M18 21h6M27 21h9M42 21h9M57 21h6M12 22h3M18 22h6M27 22h9M42 22h9M57 22h6M12 23h3M18 23h6M27 23h9M42 23h9M57 23h6M15 24h3M21 24h6M33 24h15M54 24h3M60 24h3M15 25h3M21 25h6M33 25h15M54 25h3M60 25h3M15 26h3M21 26h6M33 26h15M54 26h3M60 26h3M18 27h3M24 27h15M45 27h3M51 27h9M18 28h3M24 28h15M45 28h3M51 28h9M18 29h3M24 29h15M45 29h3M51 29h9M21 30h6M30 30h6M39 30h3M45 30h9M21 31h6M30 31h6M39 31h3M45 31h9M21 32h6M30 32h6M39 32h3M45 32h9M18 33h6M27 33h3M36 33h9M51 33h3M18 34h6M27 34h3M36 34h9M51 34h3M18 35h6M27 35h3M36 35h9M51 35h3M15 36h12M30 36h6M39 36h3M45 36h3M51 36h3M15 37h12M30 37h6M39 37h3M45 37h3M51 37h3M15 38h12M30 38h6M39 38h3M45 38h3M51 38h3M12 39h6M21 39h3M27 39h3M39 39h6M48 39h6M12 40h6M21 40h3M27 40h3M39 40h6M48 40h6M12 41h6M21 41h3M27 41h3M39 41h6M48 41h6M9 42h3M15 42h12M33 42h12M48 42h3M54 42h3M9 43h3M15 43h12M33 43h12M48 43h3M54 43h3M9 44h3M15 44h12M33 44h12M48 44h3M54 44h3M6 45h3M12 45h3M21 45h3M27 45h6M39 45h3M45 45h6M57 45h3M6 46h3M12 46h3M21 46h3M27 46h6M39 46h3M45 46h6M57 46h3M6 47h3M12 47h3M21 47h3M27 47h6M39 47h3M45 47h6M57 47h3M3 48h3M9 48h3M21 48h3M27 48h3M33 48h3M42 48h3M48 48h6M60 48h3M3 49h3M9 49h3M21 49h3M27 49h3M33 49h3M42 49h3M48 49h6M60 49h3M3 50h3M9 50h3M21 50h3M27 50h3M33 50h3M42 50h3M48 50h6M60 50h3M3 51h6M15 51h9M27 51h3M33 51h3M39 51h9M54 51h9M3 52h6M15 52h9M27 52h3M33 52h3M39 52h9M54 52h9M3 53h6M15 53h9M27 53h3M33 53h3M39 53h9M54 53h9M12 54h3M24 54h6M33 54h6M48 54h3M12 55h3M24 55h6M33 55h6M48 55h3M12 56h3M24 56h6M33 56h6M48 56h3M12 57h18M33 57h18M12 58h18M33 58h18M12 59h18M33 59h18"/>
                        <path stroke="#ffffff"
                              d="M30 3h3M30 4h3M30 5h3M27 6h3M27 7h3M27 8h3M24 9h3M24 10h3M24 11h3M24 12h3M24 13h3M24 14h3M24 15h3M24 16h3M24 17h3M21 18h12M21 19h12M21 20h12M24 21h3M24 22h3M24 23h3"/>
                        <path stroke="#d146ff"
                              d="M33 6h3M33 7h3M33 8h3M30 9h6M30 10h6M30 11h6M30 12h3M30 13h3M30 14h3M39 27h6M39 28h6M39 29h6M42 30h3M42 31h3M42 32h3M45 33h6M45 34h6M45 35h6M48 36h3M48 37h3M48 38h3M12 42h3M12 43h3M12 44h3M9 45h3M9 46h3M9 47h3M6 48h3M6 49h3M6 50h3"/>
                        <path stroke="#e3ecec"
                              d="M39 12h3M60 12h3M39 13h3M60 13h3M39 14h3M60 14h3M15 15h3M36 15h6M48 15h6M60 15h3M15 16h3M36 16h6M48 16h6M60 16h3M15 17h3M36 17h6M48 17h6M60 17h3M15 18h3M42 18h3M51 18h6M60 18h3M15 19h3M42 19h3M51 19h6M60 19h3M15 20h3M42 20h3M51 20h6M60 20h3M15 21h3M36 21h6M51 21h6M15 22h3M36 22h6M51 22h6M15 23h3M36 23h6M51 23h6M18 24h3M48 24h6M57 24h3M18 25h3M48 25h6M57 25h3M18 26h3M48 26h6M57 26h3M21 27h3M48 27h3M21 28h3M48 28h3M21 29h3M48 29h3M36 36h3M36 37h3M36 38h3M24 39h3M30 39h9M24 40h3M30 40h9M24 41h3M30 41h9M27 42h6M51 42h3M27 43h6M51 43h3M27 44h6M51 44h3M51 45h6M51 46h6M51 47h6M54 48h6M54 49h6M54 50h6"/>
                        <path stroke="#fad7ba" d="M27 24h6M27 25h6M27 26h6"/>
                        <path stroke="#ffff00"
                              d="M27 30h3M27 31h3M27 32h3M24 33h3M30 33h6M24 34h3M30 34h6M24 35h3M30 35h6"/>
                        <path stroke="#525252"
                              d="M36 30h3M36 31h3M36 32h3M27 36h3M42 36h3M27 37h3M42 37h3M27 38h3M42 38h3M18 39h3M45 39h3M18 40h3M45 40h3M18 41h3M45 41h3M45 42h3M45 43h3M45 44h3M24 45h3M36 45h3M24 46h3M36 46h3M24 47h3M36 47h3"/>
                        <path stroke="#c0c0c0"
                              d="M33 45h3M33 46h3M33 47h3M24 48h3M36 48h6M24 49h3M36 49h6M24 50h3M36 50h6M24 51h3M36 51h3M24 52h3M36 52h3M24 53h3M36 53h3M15 54h9M39 54h9M15 55h9M39 55h9M15 56h9M39 56h9"/>
                    </g>
                </g>
                <g id="walking-[[${id}]]">
                    <g id="frame3-[[${id}]]">
                        <path stroke="#000000"
                              d="M30 3h9M30 4h9M30 5h9M27 6h3M33 6h6M27 7h3M33 7h6M27 8h3M33 8h6M24 9h3M30 9h3M36 9h3M24 10h3M30 10h3M36 10h3M24 11h3M30 11h3M36 11h3M21 12h3M27 12h3M36 12h9M57 12h6M21 13h3M27 13h3M36 13h9M57 13h6M21 14h3M27 14h3M36 14h9M57 14h6M15 15h9M27 15h3M33 15h6M42 15h3M48 15h9M60 15h3M15 16h9M27 16h3M33 16h6M42 16h3M48 16h9M60 16h3M15 17h9M27 17h3M33 17h6M42 17h3M48 17h9M60 17h3M12 18h3M18 18h6M27 18h9M42 18h6M54 18h9M12 19h3M18 19h6M27 19h9M42 19h6M54 19h9M12 20h3M18 20h6M27 20h9M42 20h6M54 20h9M12 21h3M18 21h3M33 21h9M45 21h6M57 21h6M12 22h3M18 22h3M33 22h9M45 22h6M57 22h6M12 23h3M18 23h3M33 23h9M45 23h6M57 23h6M12 24h3M18 24h6M27 24h9M42 24h9M57 24h3M12 25h3M18 25h6M27 25h9M42 25h9M57 25h3M12 26h3M18 26h6M27 26h9M42 26h9M57 26h3M15 27h3M21 27h6M33 27h15M54 27h6M15 28h3M21 28h6M33 28h15M54 28h6M15 29h3M21 29h6M33 29h15M54 29h6M18 30h3M24 30h12M42 30h6M51 30h6M18 31h3M24 31h12M42 31h6M51 31h6M18 32h3M24 32h12M42 32h6M51 32h6M21 33h6M30 33h9M45 33h9M21 34h6M30 34h9M45 34h9M21 35h6M30 35h9M45 35h9M21 36h3M27 36h3M36 36h6M48 36h3M21 37h3M27 37h3M36 37h6M48 37h3M21 38h3M27 38h3M36 38h6M48 38h3M18 39h9M30 39h6M39 39h6M48 39h3M18 40h9M30 40h6M39 40h6M48 40h3M18 41h9M30 41h6M39 41h6M48 41h3M15 42h9M27 42h3M39 42h3M45 42h6M15 43h9M27 43h3M39 43h3M45 43h6M15 44h9M27 44h3M39 44h3M45 44h6M12 45h3M18 45h9M33 45h9M45 45h3M51 45h3M12 46h3M18 46h9M33 46h9M45 46h3M51 46h3M12 47h3M18 47h9M33 47h9M45 47h3M51 47h3M9 48h3M15 48h9M27 48h6M39 48h12M54 48h3M9 49h3M15 49h9M27 49h6M39 49h12M54 49h3M9 50h3M15 50h9M27 50h6M39 50h12M54 50h3M6 51h3M12 51h3M24 51h6M33 51h3M39 51h12M57 51h3M6 52h3M12 52h3M24 52h6M33 52h3M39 52h12M57 52h3M6 53h3M12 53h3M24 53h6M33 53h3M39 53h12M57 53h3M6 54h24M33 54h6M48 54h12M6 55h24M33 55h6M48 55h12M6 56h24M33 56h6M48 56h12M33 57h18M33 58h18M33 59h18"/>
                        <path stroke="#ffffff"
                              d="M30 6h3M30 7h3M30 8h3M27 9h3M27 10h3M27 11h3M24 12h3M24 13h3M24 14h3M24 15h3M24 16h3M24 17h3M24 18h3M24 19h3M24 20h3M21 21h12M21 22h12M21 23h12M24 24h3M24 25h3M24 26h3"/>
                        <path stroke="#d146ff"
                              d="M33 9h3M33 10h3M33 11h3M30 12h6M30 13h6M30 14h6M30 15h3M30 16h3M30 17h3M36 30h6M36 31h6M36 32h6M39 33h6M39 34h6M39 35h6M42 36h6M42 37h6M42 38h6M45 39h3M45 40h3M45 41h3M15 45h3M15 46h3M15 47h3M12 48h3M12 49h3M12 50h3M9 51h3M9 52h3M9 53h3"/>
                        <path stroke="#e3ecec"
                              d="M39 15h3M57 15h3M39 16h3M57 16h3M39 17h3M57 17h3M15 18h3M36 18h6M48 18h6M15 19h3M36 19h6M48 19h6M15 20h3M36 20h6M48 20h6M15 21h3M42 21h3M51 21h6M15 22h3M42 22h3M51 22h6M15 23h3M42 23h3M51 23h6M15 24h3M36 24h6M51 24h6M15 25h3M36 25h6M51 25h6M15 26h3M36 26h6M51 26h6M18 27h3M48 27h6M18 28h3M48 28h6M18 29h3M48 29h6M21 30h3M48 30h3M21 31h3M48 31h3M21 32h3M48 32h3M36 39h3M36 40h3M36 41h3M24 42h3M30 42h9M24 43h3M30 43h9M24 44h3M30 44h9M27 45h6M48 45h3M27 46h6M48 46h3M27 47h6M48 47h3M51 48h3M51 49h3M51 50h3M51 51h6M51 52h6M51 53h6"/>
                        <path stroke="#fad7ba" d="M27 27h6M27 28h6M27 29h6"/>
                        <path stroke="#ffff00"
                              d="M27 33h3M27 34h3M27 35h3M24 36h3M30 36h6M24 37h3M30 37h6M24 38h3M30 38h6"/>
                        <path stroke="#525252"
                              d="M27 39h3M27 40h3M27 41h3M42 42h3M42 43h3M42 44h3M42 45h3M42 46h3M42 47h3M36 48h3M36 49h3M36 50h3"/>
                        <path stroke="#c0c0c0"
                              d="M24 48h3M33 48h3M24 49h3M33 49h3M24 50h3M33 50h3M15 51h9M36 51h3M15 52h9M36 52h3M15 53h9M36 53h3M39 54h9M39 55h9M39 56h9"/>
                    </g>
                    <g id="frame4-[[${id}]]">
                        <path stroke="#000000"
                              d="M30 0h9M30 1h9M30 2h9M27 3h3M33 3h6M27 4h3M33 4h6M27 5h3M33 5h6M24 6h3M30 6h3M36 6h3M24 7h3M30 7h3M36 7h3M24 8h3M30 8h3M36 8h3M21 9h3M27 9h3M36 9h9M60 9h6M21 10h3M27 10h3M36 10h9M60 10h6M21 11h3M27 11h3M36 11h9M60 11h6M15 12h9M27 12h3M33 12h6M42 12h3M48 12h6M57 12h3M63 12h3M15 13h9M27 13h3M33 13h6M42 13h3M48 13h6M57 13h3M63 13h3M15 14h9M27 14h3M33 14h6M42 14h3M48 14h6M57 14h3M63 14h3M12 15h3M18 15h6M27 15h9M42 15h6M54 15h6M63 15h3M12 16h3M18 16h6M27 16h9M42 16h6M54 16h6M63 16h3M12 17h3M18 17h6M27 17h9M42 17h6M54 17h6M63 17h3M12 18h3M18 18h3M33 18h9M45 18h6M57 18h3M63 18h3M12 19h3M18 19h3M33 19h9M45 19h6M57 19h3M63 19h3M12 20h3M18 20h3M33 20h9M45 20h6M57 20h3M63 20h3M12 21h3M18 21h6M27 21h9M42 21h9M57 21h6M12 22h3M18 22h6M27 22h9M42 22h9M57 22h6M12 23h3M18 23h6M27 23h9M42 23h9M57 23h6M15 24h3M21 24h6M33 24h15M54 24h3M60 24h3M15 25h3M21 25h6M33 25h15M54 25h3M60 25h3M15 26h3M21 26h6M33 26h15M54 26h3M60 26h3M18 27h3M24 27h15M45 27h3M51 27h9M18 28h3M24 28h15M45 28h3M51 28h9M18 29h3M24 29h15M45 29h3M51 29h9M21 30h6M30 30h6M39 30h3M45 30h9M21 31h6M30 31h6M39 31h3M45 31h9M21 32h6M30 32h6M39 32h3M45 32h9M18 33h6M27 33h3M36 33h9M51 33h3M18 34h6M27 34h3M36 34h9M51 34h3M18 35h6M27 35h3M36 35h9M51 35h3M15 36h12M30 36h6M39 36h3M45 36h3M51 36h3M15 37h12M30 37h6M39 37h3M45 37h3M51 37h3M15 38h12M30 38h6M39 38h3M45 38h3M51 38h3M12 39h6M21 39h3M27 39h3M39 39h6M48 39h6M12 40h6M21 40h3M27 40h3M39 40h6M48 40h6M12 41h6M21 41h3M27 41h3M39 41h6M48 41h6M9 42h3M15 42h12M33 42h12M48 42h3M54 42h3M9 43h3M15 43h12M33 43h12M48 43h3M54 43h3M9 44h3M15 44h12M33 44h12M48 44h3M54 44h3M6 45h3M12 45h3M21 45h3M27 45h6M39 45h3M45 45h6M57 45h3M6 46h3M12 46h3M21 46h3M27 46h6M39 46h3M45 46h6M57 46h3M6 47h3M12 47h3M21 47h3M27 47h6M39 47h3M45 47h6M57 47h3M3 48h3M9 48h3M21 48h3M27 48h6M36 48h9M48 48h6M60 48h3M3 49h3M9 49h3M21 49h3M27 49h6M36 49h9M48 49h6M60 49h3M3 50h3M9 50h3M21 50h3M27 50h6M36 50h9M48 50h6M60 50h3M3 51h6M15 51h9M27 51h9M45 51h3M54 51h9M3 52h6M15 52h9M27 52h9M45 52h3M54 52h9M3 53h6M15 53h9M27 53h9M45 53h3M54 53h9M12 54h3M24 54h24M12 55h3M24 55h24M12 56h3M24 56h24M12 57h18M12 58h18M12 59h18"/>
                        <path stroke="#ffffff"
                              d="M30 3h3M30 4h3M30 5h3M27 6h3M27 7h3M27 8h3M24 9h3M24 10h3M24 11h3M24 12h3M24 13h3M24 14h3M24 15h3M24 16h3M24 17h3M21 18h12M21 19h12M21 20h12M24 21h3M24 22h3M24 23h3"/>
                        <path stroke="#d146ff"
                              d="M33 6h3M33 7h3M33 8h3M30 9h6M30 10h6M30 11h6M30 12h3M30 13h3M30 14h3M39 27h6M39 28h6M39 29h6M42 30h3M42 31h3M42 32h3M45 33h6M45 34h6M45 35h6M48 36h3M48 37h3M48 38h3M12 42h3M12 43h3M12 44h3M9 45h3M9 46h3M9 47h3M6 48h3M6 49h3M6 50h3"/>
                        <path stroke="#e3ecec"
                              d="M39 12h3M60 12h3M39 13h3M60 13h3M39 14h3M60 14h3M15 15h3M36 15h6M48 15h6M60 15h3M15 16h3M36 16h6M48 16h6M60 16h3M15 17h3M36 17h6M48 17h6M60 17h3M15 18h3M42 18h3M51 18h6M60 18h3M15 19h3M42 19h3M51 19h6M60 19h3M15 20h3M42 20h3M51 20h6M60 20h3M15 21h3M36 21h6M51 21h6M15 22h3M36 22h6M51 22h6M15 23h3M36 23h6M51 23h6M18 24h3M48 24h6M57 24h3M18 25h3M48 25h6M57 25h3M18 26h3M48 26h6M57 26h3M21 27h3M48 27h3M21 28h3M48 28h3M21 29h3M48 29h3M36 36h3M36 37h3M36 38h3M24 39h3M30 39h9M24 40h3M30 40h9M24 41h3M30 41h9M27 42h6M51 42h3M27 43h6M51 43h3M27 44h6M51 44h3M51 45h6M51 46h6M51 47h6M54 48h6M54 49h6M54 50h6"/>
                        <path stroke="#fad7ba" d="M27 24h6M27 25h6M27 26h6"/>
                        <path stroke="#ffff00"
                              d="M27 30h3M27 31h3M27 32h3M24 33h3M30 33h6M24 34h3M30 34h6M24 35h3M30 35h6"/>
                        <path stroke="#525252"
                              d="M36 30h3M36 31h3M36 32h3M27 36h3M42 36h3M27 37h3M42 37h3M27 38h3M42 38h3M18 39h3M45 39h3M18 40h3M45 40h3M18 41h3M45 41h3M45 42h3M45 43h3M45 44h3M24 45h3M36 45h3M24 46h3M36 46h3M24 47h3M36 47h3"/>
                        <path stroke="#c0c0c0"
                              d="M33 45h3M33 46h3M33 47h3M24 48h3M33 48h3M24 49h3M33 49h3M24 50h3M33 50h3M24 51h3M36 51h9M24 52h3M36 52h9M24 53h3M36 53h9M15 54h9M15 55h9M15 56h9"/>
                    </g>
                </g>
            </svg>
            <svg viewBox="0 0 100 30" width="100" height="30" x="0" y="0">
                <g id="username-[[${id}]]">
                    <rect x="0" y="0" width="100" height="20" fill="black" fill-opacity="0.8" rx="5"/>
                    <svg x="4" y="2.5" width="15" height="15" viewBox="0 0 100 100">
                        <path fill-rule="evenodd" clip-rule="evenodd"
                              d="M48.854 0C21.839 0 0 22 0 49.217c0 21.756 13.993 40.172 33.405 46.69 2.427.49 3.316-1.059 3.316-2.362 0-1.141-.08-5.052-.08-9.127-13.59 2.934-16.42-5.867-16.42-5.867-2.184-5.704-5.42-7.17-5.42-7.17-4.448-3.015.324-3.015.324-3.015 4.934.326 7.523 5.052 7.523 5.052 4.367 7.496 11.404 5.378 14.235 4.074.404-3.178 1.699-5.378 3.074-6.6-10.839-1.141-22.243-5.378-22.243-24.283 0-5.378 1.94-9.778 5.014-13.2-.485-1.222-2.184-6.275.486-13.038 0 0 4.125-1.304 13.426 5.052a46.97 46.97 0 0 1 12.214-1.63c4.125 0 8.33.571 12.213 1.63 9.302-6.356 13.427-5.052 13.427-5.052 2.67 6.763.97 11.816.485 13.038 3.155 3.422 5.015 7.822 5.015 13.2 0 18.905-11.404 23.06-22.324 24.283 1.78 1.548 3.316 4.481 3.316 9.126 0 6.6-.08 11.897-.08 13.526 0 1.304.89 2.853 3.316 2.364 19.412-6.52 33.405-24.935 33.405-46.691C97.707 22 75.788 0 48.854 0z"
                              fill="#fff"/>
                    </svg>
                    <text x="25" y="11" dominant-baseline="middle" style="fill:white" font-size="13">
                        [[${#strings.abbreviate(username, 12)}]]
                    </text>
                    <rect x="0" y="23" width="[[${exp}]]" height="2" fill="#48ff00" rx="1"/>
                </g>
            </svg>
        </g>
    </a>
    <style>
        #frame1-[[${id}]] {
        animation: 1s frameToggle infinite;
        }
        #frame2-[[${id}]] {
        animation: 1s frameToggle infinite reverse;
        }
        #frame3-[[${id}]] {
        animation: 1s frameToggle infinite;
        }
        #frame4-[[${id}]] {
        animation: 1s frameToggle infinite reverse;
        }
        #standing-[[${id}]] {
        animation: standingToggle [[${motion.duration}]]s infinite;
        }
        #walking-[[${id}]] {
        animation: walkingToggle [[${motion.duration}]]s infinite;
        }
        #body-[[${id}]] {
        animation: move-body-[[${id}]] [[${motion.duration}]]s infinite;
        }
        #username-[[${id}]] {
        animation: move-username-[[${id}]] [[${motion.duration}]]s infinite;
        }
        @keyframes move-body-[[${id}]] {
        0%, 10% {
        transform: translate([[${motion.positions[0].x}]]%, [[${y}]]%) scaleX([[${motion.positions[0].direction}]]);
        }
        20%, 30% {
        transform: translate([[${motion.positions[1].x}]]%, [[${y}]]%) scaleX([[${motion.positions[1].direction}]]);
        }
        40%, 50% {
        transform: translate([[${motion.positions[2].x}]]%, [[${y}]]%) scaleX([[${motion.positions[2].direction}]]);
        }
        50.01% {
        transform: translate([[${motion.positions[3].x}]]%, [[${y}]]%) scaleX([[${motion.positions[3].direction}]]);
        }
        60%, 70% {
        transform: translate([[${motion.positions[4].x}]]%, [[${y}]]%) scaleX([[${motion.positions[4].direction}]]);
        }
        80%, 100% {
        transform: translate([[${motion.positions[5].x}]]%, [[${y}]]%) scaleX([[${motion.positions[5].direction}]]);
        }
        }
        @keyframes move-username-[[${id}]] {
        0%, 10% {
        transform: scaleX([[${motion.positions[0].direction}]])
        translateX([[${motion.positions[0].direction > 0 ? 0: -100}]]%);
        }
        20%, 30% {
        transform: scaleX([[${motion.positions[1].direction}]])
        translateX([[${motion.positions[1].direction > 0 ? 0: -100}]]%);
        }
        40%, 50% {
        transform: scaleX([[${motion.positions[2].direction}]])
        translateX([[${motion.positions[2].direction > 0 ? 0: -100}]]%);
        }
        50.01% {
        transform: scaleX([[${motion.positions[3].direction}]])
        translateX([[${motion.positions[3].direction > 0 ? 0: -100}]]%);
        }
        60%, 70% {
        transform: scaleX([[${motion.positions[4].direction}]])
        translateX([[${motion.positions[4].direction > 0 ? 0: -100}]]%);
        }
        80%, 100% {
        transform: scaleX([[${motion.positions[5].direction}]])
        translateX([[${motion.positions[5].direction > 0 ? 0: -100}]]%);
        }
        }
    </style>
</svg>
