<svg fill="none" overflow="visible" xmlns="http://www.w3.org/2000/svg">
    <a href="https://github.com/[[${username}]]">
        <g id="body-[[${id}]]">
            <svg viewBox="0 0 145 145" width="100" height="100" x="2" y="33">
                <g id="standing-[[${id}]]">
                    <g id="frame1-[[${id}]]">
                        <path stroke="#000000"
                              d="M30 3h12M45 3h24M30 4h12M45 4h24M30 5h12M45 5h24M27 6h18M69 6h6M27 7h18M69 7h6M27 8h18M69 8h6M24 9h12M39 9h3M51 9h15M72 9h3M81 9h6M24 10h12M39 10h3M51 10h15M72 10h3M81 10h6M24 11h12M39 11h3M51 11h15M72 11h3M81 11h6M15 12h6M24 12h9M36 12h3M48 12h3M57 12h15M75 12h6M84 12h3M15 13h6M24 13h9M36 13h3M48 13h3M57 13h15M75 13h6M84 13h3M15 14h6M24 14h9M36 14h3M48 14h3M57 14h15M75 14h6M84 14h3M15 15h3M21 15h18M48 15h9M69 15h6M81 15h3M15 16h3M21 16h18M48 16h9M69 16h6M81 16h3M15 17h3M21 17h18M48 17h9M69 17h6M81 17h3M12 18h3M21 18h6M33 18h3M42 18h9M75 18h6M87 18h12M12 19h3M21 19h6M33 19h3M42 19h9M75 19h6M87 19h12M12 20h3M21 20h6M33 20h3M42 20h9M75 20h6M87 20h12M12 21h3M18 21h6M63 21h12M81 21h6M99 21h3M12 22h3M18 22h6M63 22h12M81 22h6M99 22h3M12 23h3M18 23h6M63 23h12M81 23h6M99 23h3M15 24h9M33 24h9M51 24h15M78 24h3M90 24h12M15 25h9M33 25h9M51 25h15M78 25h3M90 25h12M15 26h9M33 26h9M51 26h15M78 26h3M90 26h12M15 27h3M33 27h3M39 27h3M45 27h6M57 27h6M66 27h12M93 27h3M15 28h3M33 28h3M39 28h3M45 28h6M57 28h6M66 28h12M93 28h3M15 29h3M33 29h3M39 29h3M45 29h6M57 29h6M66 29h12M93 29h3M12 30h6M21 30h6M30 30h3M39 30h3M60 30h3M72 30h21M12 31h6M21 31h6M30 31h3M39 31h3M60 31h3M72 31h21M12 32h6M21 32h6M30 32h3M39 32h3M60 32h3M72 32h21M6 33h15M48 33h12M84 33h3M90 33h12M6 34h15M48 34h12M84 34h3M90 34h12M6 35h15M48 35h12M84 35h3M90 35h12M6 36h3M12 36h6M30 36h6M57 36h9M87 36h3M102 36h3M6 37h3M12 37h6M30 37h6M57 37h9M87 37h3M102 37h3M6 38h3M12 38h6M30 38h6M57 38h9M87 38h3M102 38h3M6 39h3M27 39h3M36 39h3M63 39h3M78 39h3M87 39h3M93 39h12M6 40h3M27 40h3M36 40h3M63 40h3M78 40h3M87 40h3M93 40h12M6 41h3M27 41h3M36 41h3M63 41h3M78 41h3M87 41h3M93 41h12M9 42h18M36 42h3M51 42h12M81 42h9M96 42h3M9 43h18M36 43h3M51 43h12M81 43h9M96 43h3M9 44h18M36 44h3M51 44h12M81 44h9M96 44h3M9 45h3M15 45h6M24 45h3M36 45h3M45 45h3M54 45h3M60 45h3M78 45h3M87 45h9M9 46h3M15 46h6M24 46h3M36 46h3M45 46h3M54 46h3M60 46h3M78 46h3M87 46h9M9 47h3M15 47h6M24 47h3M36 47h3M45 47h3M54 47h3M60 47h3M78 47h3M87 47h9M12 48h6M21 48h3M33 48h3M45 48h9M60 48h3M78 48h3M93 48h6M120 48h9M12 49h6M21 49h3M33 49h3M45 49h9M60 49h3M78 49h3M93 49h6M120 49h9M12 50h6M21 50h3M33 50h3M45 50h9M60 50h3M78 50h3M93 50h6M120 50h9M18 51h15M39 51h9M54 51h9M75 51h3M84 51h6M93 51h3M99 51h3M117 51h6M129 51h3M18 52h15M39 52h9M54 52h9M75 52h3M84 52h6M93 52h3M99 52h3M117 52h6M129 52h3M18 53h15M39 53h9M54 53h9M75 53h3M84 53h6M93 53h3M99 53h3M117 53h6M129 53h3M18 54h3M33 54h6M45 54h15M75 54h27M114 54h6M123 54h6M132 54h3M18 55h3M33 55h6M45 55h15M75 55h27M114 55h6M123 55h6M132 55h3M18 56h3M33 56h6M45 56h15M75 56h27M114 56h6M123 56h6M132 56h3M21 57h3M30 57h3M45 57h3M51 57h6M75 57h3M81 57h3M87 57h3M93 57h3M99 57h3M111 57h3M117 57h3M129 57h6M21 58h3M30 58h3M45 58h3M51 58h6M75 58h3M81 58h3M87 58h3M93 58h3M99 58h3M111 58h3M117 58h3M129 58h6M21 59h3M30 59h3M45 59h3M51 59h6M75 59h3M81 59h3M87 59h3M93 59h3M99 59h3M111 59h3M117 59h3M129 59h6M24 60h3M30 60h3M48 60h6M72 60h3M78 60h21M111 60h3M117 60h3M24 61h3M30 61h3M48 61h6M72 61h3M78 61h21M111 61h3M117 61h3M24 62h3M30 62h3M48 62h6M72 62h3M78 62h21M111 62h3M117 62h3M27 63h6M51 63h3M75 63h9M96 63h15M117 63h3M27 64h6M51 64h3M75 64h9M96 64h15M117 64h3M27 65h6M51 65h3M75 65h9M96 65h15M117 65h3M48 66h6M90 66h3M96 66h3M114 66h3M48 67h6M90 67h3M96 67h3M114 67h3M48 68h6M90 68h3M96 68h3M114 68h3M42 69h6M51 69h3M81 69h3M93 69h3M111 69h3M42 70h6M51 70h3M81 70h3M93 70h3M111 70h3M42 71h6M51 71h3M81 71h3M93 71h3M111 71h3M39 72h3M45 72h3M54 72h3M81 72h3M90 72h3M96 72h3M102 72h9M39 73h3M45 73h3M54 73h3M81 73h3M90 73h3M96 73h3M102 73h9M39 74h3M45 74h3M54 74h3M81 74h3M90 74h3M96 74h3M102 74h9M39 75h6M48 75h6M57 75h3M78 75h3M84 75h6M93 75h9M39 76h6M48 76h6M57 76h3M78 76h3M84 76h6M93 76h9M39 77h6M48 77h6M57 77h3M78 77h3M84 77h6M93 77h9M45 78h6M54 78h30M87 78h6M45 79h6M54 79h30M87 79h6M45 80h6M54 80h30M87 80h6"/>
                        <path stroke="#ec0076"
                              d="M45 6h6M57 6h6M66 6h3M45 7h6M57 7h6M66 7h3M45 8h6M57 8h6M66 8h3M69 9h3M69 10h3M69 11h3M39 12h6M39 13h6M39 14h6M45 15h3M78 15h3M45 16h3M78 16h3M45 17h3M78 17h3"/>
                        <path stroke="#5e5e5e"
                              d="M51 6h6M63 6h3M51 7h6M63 7h3M51 8h6M63 8h3M42 9h9M66 9h3M42 10h9M66 10h3M42 11h9M66 11h3M45 12h3M72 12h3M81 12h3M45 13h3M72 13h3M81 13h3M45 14h3M72 14h3M81 14h3M39 15h6M75 15h3M39 16h6M75 16h3M39 17h6M75 17h3"/>
                        <path stroke="#ffd2e0"
                              d="M18 15h3M18 16h3M18 17h3M15 18h3M30 18h3M57 18h18M15 19h3M30 19h3M57 19h18M15 20h3M30 20h3M57 20h18M36 21h6M51 21h12M36 22h6M51 22h12M36 23h6M51 23h12M30 24h3M42 24h9M30 25h3M42 25h9M30 26h3M42 26h9M24 27h9M42 27h3M63 27h3M24 28h9M42 28h3M63 28h3M24 29h9M42 29h3M63 29h3M18 30h3M27 30h3M42 30h18M66 30h6M18 31h3M27 31h3M42 31h18M66 31h6M18 32h3M27 32h3M42 32h18M66 32h6M27 33h21M69 33h15M27 34h21M69 34h15M27 35h21M69 35h15M24 36h6M36 36h6M72 36h15M24 37h6M36 37h6M72 37h15M24 38h6M36 38h6M72 38h15M12 39h6M21 39h6M39 39h18M75 39h3M81 39h6M12 40h6M21 40h6M39 40h18M75 40h3M81 40h6M12 41h6M21 41h6M39 41h18M75 41h3M81 41h6M39 42h9M75 42h6M39 43h9M75 43h6M39 44h9M75 44h6M39 45h6M48 45h3M57 45h3M75 45h3M81 45h6M39 46h6M48 46h3M57 46h3M75 46h3M81 46h6M39 47h6M48 47h3M57 47h3M75 47h3M81 47h6M39 48h6M54 48h6M75 48h3M81 48h12M39 49h6M54 49h6M75 49h3M81 49h12M39 50h6M54 50h6M75 50h3M81 50h12M33 51h6M48 51h6M72 51h3M78 51h6M90 51h3M96 51h3M33 52h6M48 52h6M72 52h3M78 52h6M90 52h3M96 52h3M33 53h6M48 53h6M72 53h3M78 53h6M90 53h3M96 53h3M27 54h6M72 54h3M27 55h6M72 55h3M27 56h6M72 56h3M27 57h3M69 57h6M84 57h3M114 57h3M27 58h3M69 58h6M84 58h3M114 58h3M27 59h3M69 59h6M84 59h3M114 59h3M66 60h6M75 60h3M114 60h3M66 61h6M75 61h3M114 61h3M66 62h6M75 62h3M114 62h3M66 63h9M84 63h9M111 63h3M66 64h9M84 64h9M111 64h3M66 65h9M84 65h9M111 65h3M69 66h21M99 66h12M69 67h21M99 67h12M69 68h21M99 68h12M48 69h3M84 69h9M99 69h3M48 70h3M84 70h9M99 70h3M48 71h3M84 71h9M99 71h3M48 72h6M84 72h6M48 73h6M84 73h6M48 74h6M84 74h6"/>
                        <path stroke="#ffb5c6"
                              d="M57 15h12M57 16h12M57 17h12M18 18h3M36 18h6M51 18h6M18 19h3M36 19h6M51 19h6M18 20h3M36 20h6M51 20h6M15 21h3M30 21h6M42 21h9M87 21h12M15 22h3M30 22h6M42 22h9M87 22h12M15 23h3M30 23h6M42 23h9M87 23h12M24 24h6M81 24h9M24 25h6M81 25h9M24 26h6M81 26h9M21 27h3M78 27h15M21 28h3M78 28h15M21 29h3M78 29h15M63 30h3M63 31h3M63 32h3M24 33h3M66 33h3M24 34h3M66 34h3M24 35h3M66 35h3M42 36h9M69 36h3M90 36h12M42 37h9M69 37h3M90 37h12M42 38h9M69 38h3M90 38h12M9 39h3M18 39h3M57 39h3M72 39h3M90 39h3M9 40h3M18 40h3M57 40h3M72 40h3M90 40h3M9 41h3M18 41h3M57 41h3M72 41h3M90 41h3M48 42h3M72 42h3M90 42h6M48 43h3M72 43h3M90 43h6M48 44h3M72 44h3M90 44h6M72 45h3M72 46h3M72 47h3M36 48h3M72 48h3M36 49h3M72 49h3M36 50h3M72 50h3M69 51h3M123 51h6M69 52h3M123 52h6M69 53h3M123 53h6M21 54h6M69 54h3M129 54h3M21 55h6M69 55h3M129 55h3M21 56h6M69 56h3M129 56h3M66 57h3M66 58h3M66 59h3M63 60h3M63 61h3M63 62h3M63 63h3M93 63h3M114 63h3M63 64h3M93 64h3M114 64h3M63 65h3M93 65h3M114 65h3M66 66h3M111 66h3M66 67h3M111 67h3M66 68h3M111 68h3M69 69h12M96 69h3M102 69h9M69 70h12M96 70h3M102 70h9M69 71h12M96 71h3M102 71h9M99 72h3M99 73h3M99 74h3"/>
                        <path stroke="#fd8ea2"
                              d="M27 18h3M27 19h3M27 20h3M24 21h6M24 22h6M24 23h6M18 27h3M51 27h6M18 28h3M51 28h6M18 29h3M51 29h6M21 33h3M60 33h6M21 34h3M60 34h6M21 35h3M60 35h6M9 36h3M18 36h6M51 36h6M66 36h3M9 37h3M18 37h6M51 37h6M66 37h3M9 38h3M18 38h6M51 38h6M66 38h3M60 39h3M66 39h6M60 40h3M66 40h6M60 41h3M66 41h6M63 42h9M63 43h9M63 44h9M51 45h3M63 45h9M51 46h3M63 46h9M51 47h3M63 47h9M63 48h9M63 49h9M63 50h9M63 51h6M63 52h6M63 53h6M60 54h9M60 55h9M60 56h9M24 57h3M48 57h3M57 57h9M78 57h3M90 57h3M96 57h3M24 58h3M48 58h3M57 58h9M78 58h3M90 58h3M96 58h3M24 59h3M48 59h3M57 59h9M78 59h3M90 59h3M96 59h3M27 60h3M54 60h9M27 61h3M54 61h9M27 62h3M54 62h9M54 63h9M54 64h9M54 65h9M54 66h12M93 66h3M54 67h12M93 67h3M54 68h12M93 68h3M54 69h15M54 70h15M54 71h15M42 72h3M57 72h24M93 72h3M42 73h3M57 73h24M93 73h3M42 74h3M57 74h24M93 74h3M45 75h3M54 75h3M60 75h18M81 75h3M90 75h3M45 76h3M54 76h3M60 76h18M81 76h3M90 76h3M45 77h3M54 77h3M60 77h18M81 77h3M90 77h3"/>
                        <path stroke="#217421" d="M36 27h3M36 28h3M36 29h3"/>
                        <path stroke="#ffffff"
                              d="M33 30h3M33 31h3M33 32h3M33 39h3M33 40h3M33 41h3M27 42h3M27 43h3M27 44h3M12 45h3M21 45h3M12 46h3M21 46h3M12 47h3M21 47h3M24 48h3M30 48h3M24 49h3M30 49h3M24 50h3M30 50h3"/>
                        <path stroke="#3fc93f" d="M36 30h3M36 31h3M36 32h3"/>
                        <path stroke="#c00000"
                              d="M30 39h3M30 40h3M30 41h3M30 42h6M30 43h6M30 44h6M27 45h9M27 46h9M27 47h9M27 48h3M27 49h3M27 50h3"/>
                    </g>
                    <g id="frame2-[[${id}]]">
                        <path stroke="#000000"
                              d="M30 0h12M45 0h24M30 1h12M45 1h24M30 2h12M45 2h24M27 3h18M69 3h6M27 4h18M69 4h6M27 5h18M69 5h6M24 6h12M39 6h3M51 6h15M72 6h3M81 6h6M24 7h12M39 7h3M51 7h15M72 7h3M81 7h6M24 8h12M39 8h3M51 8h15M72 8h3M81 8h6M15 9h6M24 9h9M36 9h3M48 9h3M57 9h15M75 9h6M84 9h3M15 10h6M24 10h9M36 10h3M48 10h3M57 10h15M75 10h6M84 10h3M15 11h6M24 11h9M36 11h3M48 11h3M57 11h15M75 11h6M84 11h3M15 12h3M21 12h18M48 12h9M69 12h6M81 12h3M15 13h3M21 13h18M48 13h9M69 13h6M81 13h3M15 14h3M21 14h18M48 14h9M69 14h6M81 14h3M12 15h3M21 15h6M33 15h3M42 15h9M75 15h6M87 15h12M12 16h3M21 16h6M33 16h3M42 16h9M75 16h6M87 16h12M12 17h3M21 17h6M33 17h3M42 17h9M75 17h6M87 17h12M12 18h3M18 18h6M63 18h12M81 18h6M99 18h3M12 19h3M18 19h6M63 19h12M81 19h6M99 19h3M12 20h3M18 20h6M63 20h12M81 20h6M99 20h3M15 21h9M33 21h9M51 21h15M78 21h3M90 21h12M15 22h9M33 22h9M51 22h15M78 22h3M90 22h12M15 23h9M33 23h9M51 23h15M78 23h3M90 23h12M15 24h3M33 24h3M39 24h3M45 24h6M57 24h6M66 24h12M93 24h3M15 25h3M33 25h3M39 25h3M45 25h6M57 25h6M66 25h12M93 25h3M15 26h3M33 26h3M39 26h3M45 26h6M57 26h6M66 26h12M93 26h3M12 27h6M21 27h6M30 27h3M39 27h3M60 27h3M72 27h21M12 28h6M21 28h6M30 28h3M39 28h3M60 28h3M72 28h21M12 29h6M21 29h6M30 29h3M39 29h3M60 29h3M72 29h21M6 30h15M48 30h12M84 30h3M90 30h12M6 31h15M48 31h12M84 31h3M90 31h12M6 32h15M48 32h12M84 32h3M90 32h12M6 33h3M12 33h6M30 33h6M57 33h9M87 33h3M102 33h3M6 34h3M12 34h6M30 34h6M57 34h9M87 34h3M102 34h3M6 35h3M12 35h6M30 35h6M57 35h9M87 35h3M102 35h3M6 36h3M27 36h3M36 36h3M63 36h3M78 36h3M87 36h3M93 36h12M6 37h3M27 37h3M36 37h3M63 37h3M78 37h3M87 37h3M93 37h12M6 38h3M27 38h3M36 38h3M63 38h3M78 38h3M87 38h3M93 38h12M9 39h18M36 39h3M51 39h12M81 39h9M96 39h3M9 40h18M36 40h3M51 40h12M81 40h9M96 40h3M9 41h18M36 41h3M51 41h12M81 41h9M96 41h3M9 42h3M15 42h6M24 42h3M36 42h3M45 42h3M54 42h3M60 42h3M78 42h3M87 42h9M9 43h3M15 43h6M24 43h3M36 43h3M45 43h3M54 43h3M60 43h3M78 43h3M87 43h9M9 44h3M15 44h6M24 44h3M36 44h3M45 44h3M54 44h3M60 44h3M78 44h3M87 44h9M12 45h6M21 45h3M33 45h3M45 45h9M60 45h3M78 45h3M93 45h6M12 46h6M21 46h3M33 46h3M45 46h9M60 46h3M78 46h3M93 46h6M12 47h6M21 47h3M33 47h3M45 47h9M60 47h3M78 47h3M93 47h6M18 48h15M39 48h9M54 48h9M75 48h3M84 48h6M93 48h3M99 48h3M18 49h15M39 49h9M54 49h9M75 49h3M84 49h6M93 49h3M99 49h3M18 50h15M39 50h9M54 50h9M75 50h3M84 50h6M93 50h3M99 50h3M18 51h3M33 51h6M45 51h15M75 51h27M120 51h9M18 52h3M33 52h6M45 52h15M75 52h27M120 52h9M18 53h3M33 53h6M45 53h15M75 53h27M120 53h9M21 54h3M30 54h3M45 54h3M51 54h6M75 54h3M81 54h3M87 54h3M93 54h3M99 54h3M117 54h6M129 54h3M21 55h3M30 55h3M45 55h3M51 55h6M75 55h3M81 55h3M87 55h3M93 55h3M99 55h3M117 55h6M129 55h3M21 56h3M30 56h3M45 56h3M51 56h6M75 56h3M81 56h3M87 56h3M93 56h3M99 56h3M117 56h6M129 56h3M24 57h3M30 57h3M48 57h6M72 57h12M87 57h12M114 57h6M123 57h6M132 57h3M24 58h3M30 58h3M48 58h6M72 58h12M87 58h12M114 58h6M123 58h6M132 58h3M24 59h3M30 59h3M48 59h6M72 59h12M87 59h12M114 59h6M123 59h6M132 59h3M27 60h6M51 60h3M72 60h3M84 60h6M96 60h3M111 60h3M117 60h3M129 60h6M27 61h6M51 61h3M72 61h3M84 61h6M96 61h3M111 61h3M117 61h3M129 61h6M27 62h6M51 62h3M72 62h3M84 62h6M96 62h3M111 62h3M117 62h3M129 62h6M51 63h3M75 63h9M96 63h6M111 63h3M117 63h3M51 64h3M75 64h9M96 64h6M111 64h3M117 64h3M51 65h3M75 65h9M96 65h6M111 65h3M117 65h3M48 66h6M90 66h3M96 66h3M102 66h9M117 66h3M48 67h6M90 67h3M96 67h3M102 67h9M117 67h3M48 68h6M90 68h3M96 68h3M102 68h9M117 68h3M42 69h6M51 69h3M81 69h3M93 69h3M114 69h3M42 70h6M51 70h3M81 70h3M93 70h3M114 70h3M42 71h6M51 71h3M81 71h3M93 71h3M114 71h3M39 72h3M45 72h3M54 72h3M81 72h3M90 72h3M96 72h3M111 72h3M39 73h3M45 73h3M54 73h3M81 73h3M90 73h3M96 73h3M111 73h3M39 74h3M45 74h3M54 74h3M81 74h3M90 74h3M96 74h3M111 74h3M39 75h6M48 75h6M57 75h3M78 75h3M84 75h6M93 75h18M39 76h6M48 76h6M57 76h3M78 76h3M84 76h6M93 76h18M39 77h6M48 77h6M57 77h3M78 77h3M84 77h6M93 77h18M45 78h6M54 78h30M87 78h6M45 79h6M54 79h30M87 79h6M45 80h6M54 80h30M87 80h6"/>
                        <path stroke="#ec0076"
                              d="M45 3h6M57 3h6M66 3h3M45 4h6M57 4h6M66 4h3M45 5h6M57 5h6M66 5h3M69 6h3M69 7h3M69 8h3M39 9h6M39 10h6M39 11h6M45 12h3M78 12h3M45 13h3M78 13h3M45 14h3M78 14h3"/>
                        <path stroke="#5e5e5e"
                              d="M51 3h6M63 3h3M51 4h6M63 4h3M51 5h6M63 5h3M42 6h9M66 6h3M42 7h9M66 7h3M42 8h9M66 8h3M45 9h3M72 9h3M81 9h3M45 10h3M72 10h3M81 10h3M45 11h3M72 11h3M81 11h3M39 12h6M75 12h3M39 13h6M75 13h3M39 14h6M75 14h3"/>
                        <path stroke="#ffd2e0"
                              d="M18 12h3M18 13h3M18 14h3M15 15h3M30 15h3M57 15h18M15 16h3M30 16h3M57 16h18M15 17h3M30 17h3M57 17h18M36 18h6M51 18h12M36 19h6M51 19h12M36 20h6M51 20h12M30 21h3M42 21h9M30 22h3M42 22h9M30 23h3M42 23h9M24 24h9M42 24h3M63 24h3M24 25h9M42 25h3M63 25h3M24 26h9M42 26h3M63 26h3M18 27h3M27 27h3M42 27h18M66 27h6M18 28h3M27 28h3M42 28h18M66 28h6M18 29h3M27 29h3M42 29h18M66 29h6M27 30h21M69 30h15M27 31h21M69 31h15M27 32h21M69 32h15M24 33h6M36 33h6M72 33h15M24 34h6M36 34h6M72 34h15M24 35h6M36 35h6M72 35h15M12 36h6M21 36h6M39 36h18M75 36h3M81 36h6M12 37h6M21 37h6M39 37h18M75 37h3M81 37h6M12 38h6M21 38h6M39 38h18M75 38h3M81 38h6M39 39h9M75 39h6M39 40h9M75 40h6M39 41h9M75 41h6M39 42h6M48 42h3M57 42h3M75 42h3M81 42h6M39 43h6M48 43h3M57 43h3M75 43h3M81 43h6M39 44h6M48 44h3M57 44h3M75 44h3M81 44h6M39 45h6M54 45h6M75 45h3M81 45h12M39 46h6M54 46h6M75 46h3M81 46h12M39 47h6M54 47h6M75 47h3M81 47h12M33 48h6M48 48h6M72 48h3M78 48h6M90 48h3M96 48h3M33 49h6M48 49h6M72 49h3M78 49h6M90 49h3M96 49h3M33 50h6M48 50h6M72 50h3M78 50h6M90 50h3M96 50h3M27 51h6M72 51h3M27 52h6M72 52h3M27 53h6M72 53h3M27 54h3M69 54h6M84 54h3M27 55h3M69 55h6M84 55h3M27 56h3M69 56h6M84 56h3M66 57h6M84 57h3M66 58h6M84 58h3M66 59h6M84 59h3M66 60h6M75 60h9M90 60h6M114 60h3M66 61h6M75 61h9M90 61h6M114 61h3M66 62h6M75 62h9M90 62h6M114 62h3M66 63h9M84 63h9M114 63h3M66 64h9M84 64h9M114 64h3M66 65h9M84 65h9M114 65h3M69 66h21M99 66h3M111 66h3M69 67h21M99 67h3M111 67h3M69 68h21M99 68h3M111 68h3M48 69h3M84 69h9M99 69h12M48 70h3M84 70h9M99 70h12M48 71h3M84 71h9M99 71h12M48 72h6M84 72h6M48 73h6M84 73h6M48 74h6M84 74h6"/>
                        <path stroke="#ffb5c6"
                              d="M57 12h12M57 13h12M57 14h12M18 15h3M36 15h6M51 15h6M18 16h3M36 16h6M51 16h6M18 17h3M36 17h6M51 17h6M15 18h3M30 18h6M42 18h9M87 18h12M15 19h3M30 19h6M42 19h9M87 19h12M15 20h3M30 20h6M42 20h9M87 20h12M24 21h6M81 21h9M24 22h6M81 22h9M24 23h6M81 23h9M21 24h3M78 24h15M21 25h3M78 25h15M21 26h3M78 26h15M63 27h3M63 28h3M63 29h3M24 30h3M66 30h3M24 31h3M66 31h3M24 32h3M66 32h3M42 33h9M69 33h3M90 33h12M42 34h9M69 34h3M90 34h12M42 35h9M69 35h3M90 35h12M9 36h3M18 36h3M57 36h3M72 36h3M90 36h3M9 37h3M18 37h3M57 37h3M72 37h3M90 37h3M9 38h3M18 38h3M57 38h3M72 38h3M90 38h3M48 39h3M72 39h3M90 39h6M48 40h3M72 40h3M90 40h6M48 41h3M72 41h3M90 41h6M72 42h3M72 43h3M72 44h3M36 45h3M72 45h3M36 46h3M72 46h3M36 47h3M72 47h3M69 48h3M69 49h3M69 50h3M21 51h6M69 51h3M21 52h6M69 52h3M21 53h6M69 53h3M66 54h3M123 54h6M66 55h3M123 55h6M66 56h3M123 56h6M63 57h3M129 57h3M63 58h3M129 58h3M63 59h3M129 59h3M63 60h3M63 61h3M63 62h3M63 63h3M93 63h3M63 64h3M93 64h3M63 65h3M93 65h3M66 66h3M114 66h3M66 67h3M114 67h3M66 68h3M114 68h3M69 69h12M96 69h3M111 69h3M69 70h12M96 70h3M111 70h3M69 71h12M96 71h3M111 71h3M99 72h12M99 73h12M99 74h12"/>
                        <path stroke="#fd8ea2"
                              d="M27 15h3M27 16h3M27 17h3M24 18h6M24 19h6M24 20h6M18 24h3M51 24h6M18 25h3M51 25h6M18 26h3M51 26h6M21 30h3M60 30h6M21 31h3M60 31h6M21 32h3M60 32h6M9 33h3M18 33h6M51 33h6M66 33h3M9 34h3M18 34h6M51 34h6M66 34h3M9 35h3M18 35h6M51 35h6M66 35h3M60 36h3M66 36h6M60 37h3M66 37h6M60 38h3M66 38h6M63 39h9M63 40h9M63 41h9M51 42h3M63 42h9M51 43h3M63 43h9M51 44h3M63 44h9M63 45h9M63 46h9M63 47h9M63 48h6M63 49h6M63 50h6M60 51h9M60 52h9M60 53h9M24 54h3M48 54h3M57 54h9M78 54h3M90 54h3M96 54h3M24 55h3M48 55h3M57 55h9M78 55h3M90 55h3M96 55h3M24 56h3M48 56h3M57 56h9M78 56h3M90 56h3M96 56h3M27 57h3M54 57h9M27 58h3M54 58h9M27 59h3M54 59h9M54 60h9M54 61h9M54 62h9M54 63h9M54 64h9M54 65h9M54 66h12M93 66h3M54 67h12M93 67h3M54 68h12M93 68h3M54 69h15M54 70h15M54 71h15M42 72h3M57 72h24M93 72h3M42 73h3M57 73h24M93 73h3M42 74h3M57 74h24M93 74h3M45 75h3M54 75h3M60 75h18M81 75h3M90 75h3M45 76h3M54 76h3M60 76h18M81 76h3M90 76h3M45 77h3M54 77h3M60 77h18M81 77h3M90 77h3"/>
                        <path stroke="#217421" d="M36 24h3M36 25h3M36 26h3"/>
                        <path stroke="#ffffff"
                              d="M33 27h3M33 28h3M33 29h3M33 36h3M33 37h3M33 38h3M27 39h3M27 40h3M27 41h3M12 42h3M21 42h3M12 43h3M21 43h3M12 44h3M21 44h3M24 45h3M30 45h3M24 46h3M30 46h3M24 47h3M30 47h3"/>
                        <path stroke="#3fc93f" d="M36 27h3M36 28h3M36 29h3"/>
                        <path stroke="#c00000"
                              d="M30 36h3M30 37h3M30 38h3M30 39h6M30 40h6M30 41h6M27 42h9M27 43h9M27 44h9M27 45h3M27 46h3M27 47h3"/>
                    </g>
                </g>
                <g id="walking-[[${id}]]">
                    <g id="frame3-[[${id}]]">
                        <path stroke="#000000"
                              d="M24 6h12M39 6h24M24 7h12M39 7h24M24 8h12M39 8h24M21 9h18M63 9h6M21 10h18M63 10h6M21 11h18M63 11h6M18 12h12M33 12h3M45 12h15M66 12h3M75 12h6M18 13h12M33 13h3M45 13h15M66 13h3M75 13h6M18 14h12M33 14h3M45 14h15M66 14h3M75 14h6M9 15h6M18 15h9M30 15h3M42 15h3M51 15h15M69 15h6M78 15h3M9 16h6M18 16h9M30 16h3M42 16h3M51 16h15M69 16h6M78 16h3M9 17h6M18 17h9M30 17h3M42 17h3M51 17h15M69 17h6M78 17h3M9 18h3M15 18h18M42 18h9M63 18h6M75 18h3M9 19h3M15 19h18M42 19h9M63 19h6M75 19h3M9 20h3M15 20h18M42 20h9M63 20h6M75 20h3M6 21h3M15 21h6M27 21h3M36 21h9M69 21h6M81 21h12M6 22h3M15 22h6M27 22h3M36 22h9M69 22h6M81 22h12M6 23h3M15 23h6M27 23h3M36 23h9M69 23h6M81 23h12M6 24h3M12 24h6M57 24h12M75 24h6M93 24h3M6 25h3M12 25h6M57 25h12M75 25h6M93 25h3M6 26h3M12 26h6M57 26h12M75 26h6M93 26h3M9 27h9M27 27h9M45 27h15M72 27h3M84 27h12M9 28h9M27 28h9M45 28h15M72 28h3M84 28h12M9 29h9M27 29h9M45 29h15M72 29h3M84 29h12M6 30h6M15 30h6M27 30h3M33 30h3M39 30h6M51 30h6M60 30h12M87 30h3M6 31h6M15 31h6M27 31h3M33 31h3M39 31h6M51 31h6M60 31h12M87 31h3M6 32h6M15 32h6M27 32h3M33 32h3M39 32h6M51 32h6M60 32h12M87 32h3M0 33h15M24 33h3M33 33h3M54 33h3M66 33h21M0 34h15M24 34h3M33 34h3M54 34h3M66 34h21M0 35h15M24 35h3M33 35h3M54 35h3M66 35h21M0 36h3M6 36h6M42 36h12M78 36h3M84 36h12M0 37h3M6 37h6M42 37h12M78 37h3M84 37h12M0 38h3M6 38h6M42 38h12M78 38h3M84 38h12M0 39h3M21 39h12M51 39h9M81 39h3M96 39h3M0 40h3M21 40h12M51 40h9M81 40h3M96 40h3M0 41h3M21 41h12M51 41h9M81 41h3M96 41h3M3 42h18M30 42h3M57 42h3M72 42h3M81 42h3M87 42h12M3 43h18M30 43h3M57 43h3M72 43h3M81 43h3M87 43h12M3 44h18M30 44h3M57 44h3M72 44h3M81 44h3M87 44h12M3 45h3M9 45h6M18 45h3M30 45h3M45 45h12M75 45h9M90 45h3M3 46h3M9 46h6M18 46h3M30 46h3M45 46h12M75 46h9M90 46h3M3 47h3M9 47h6M18 47h3M30 47h3M45 47h12M75 47h9M90 47h3M6 48h6M15 48h3M30 48h3M39 48h3M48 48h3M54 48h3M72 48h3M81 48h9M123 48h9M6 49h6M15 49h3M30 49h3M39 49h3M48 49h3M54 49h3M72 49h3M81 49h9M123 49h9M6 50h6M15 50h3M30 50h3M39 50h3M48 50h3M54 50h3M72 50h3M81 50h9M123 50h9M18 51h3M30 51h3M39 51h9M54 51h3M72 51h3M87 51h6M120 51h6M132 51h3M18 52h3M30 52h3M39 52h9M54 52h3M72 52h3M87 52h6M120 52h6M132 52h3M18 53h3M30 53h3M39 53h9M54 53h3M72 53h3M87 53h6M120 53h6M132 53h3M27 54h3M36 54h6M48 54h9M69 54h3M78 54h6M87 54h3M93 54h3M117 54h6M126 54h6M135 54h3M27 55h3M36 55h6M48 55h9M69 55h3M78 55h6M87 55h3M93 55h3M117 55h6M126 55h6M135 55h3M27 56h3M36 56h6M48 56h9M69 56h3M78 56h6M87 56h3M93 56h3M117 56h6M126 56h6M135 56h3M18 57h12M36 57h18M69 57h27M114 57h3M120 57h3M132 57h6M18 58h12M36 58h18M69 58h27M114 58h3M120 58h3M132 58h6M18 59h12M36 59h18M69 59h27M114 59h3M120 59h3M132 59h6M18 60h3M33 60h3M39 60h3M45 60h3M51 60h3M69 60h3M75 60h3M81 60h3M87 60h3M93 60h6M114 60h3M120 60h3M18 61h3M33 61h3M39 61h3M45 61h3M51 61h3M69 61h3M75 61h3M81 61h3M87 61h3M93 61h6M114 61h3M120 61h3M18 62h3M33 62h3M39 62h3M45 62h3M51 62h3M69 62h3M75 62h3M81 62h3M87 62h3M93 62h6M114 62h3M120 62h3M21 63h3M30 63h3M42 63h6M51 63h3M72 63h21M99 63h15M120 63h3M21 64h3M30 64h3M42 64h6M51 64h3M72 64h21M99 64h15M120 64h3M21 65h3M30 65h3M42 65h6M51 65h3M72 65h21M99 65h15M120 65h3M24 66h3M30 66h3M51 66h6M93 66h3M99 66h3M117 66h3M24 67h3M30 67h3M51 67h6M93 67h3M99 67h3M117 67h3M24 68h3M30 68h3M51 68h6M93 68h3M99 68h3M117 68h3M27 69h6M45 69h6M54 69h3M84 69h3M96 69h3M114 69h3M27 70h6M45 70h6M54 70h3M84 70h3M96 70h3M114 70h3M27 71h6M45 71h6M54 71h3M84 71h3M96 71h3M114 71h3M42 72h3M48 72h3M57 72h3M84 72h3M93 72h3M99 72h3M105 72h9M42 73h3M48 73h3M57 73h3M84 73h3M93 73h3M99 73h3M105 73h9M42 74h3M48 74h3M57 74h3M84 74h3M93 74h3M99 74h3M105 74h9M42 75h6M51 75h6M60 75h3M81 75h3M87 75h6M96 75h9M42 76h6M51 76h6M60 76h3M81 76h3M87 76h6M96 76h9M42 77h6M51 77h6M60 77h3M81 77h3M87 77h6M96 77h9M48 78h6M57 78h30M90 78h6M48 79h6M57 79h30M90 79h6M48 80h6M57 80h30M90 80h6"/>
                        <path stroke="#ec0076"
                              d="M39 9h6M51 9h6M60 9h3M39 10h6M51 10h6M60 10h3M39 11h6M51 11h6M60 11h3M63 12h3M63 13h3M63 14h3M33 15h6M33 16h6M33 17h6M39 18h3M72 18h3M39 19h3M72 19h3M39 20h3M72 20h3"/>
                        <path stroke="#5e5e5e"
                              d="M45 9h6M57 9h3M45 10h6M57 10h3M45 11h6M57 11h3M36 12h9M60 12h3M36 13h9M60 13h3M36 14h9M60 14h3M39 15h3M66 15h3M75 15h3M39 16h3M66 16h3M75 16h3M39 17h3M66 17h3M75 17h3M33 18h6M69 18h3M33 19h6M69 19h3M33 20h6M69 20h3"/>
                        <path stroke="#ffd2e0"
                              d="M12 18h3M12 19h3M12 20h3M9 21h3M24 21h3M51 21h18M9 22h3M24 22h3M51 22h18M9 23h3M24 23h3M51 23h18M30 24h6M45 24h12M30 25h6M45 25h12M30 26h6M45 26h12M24 27h3M36 27h9M24 28h3M36 28h9M24 29h3M36 29h9M12 30h3M21 30h6M36 30h3M57 30h3M12 31h3M21 31h6M36 31h3M57 31h3M12 32h3M21 32h6M36 32h3M57 32h3M21 33h3M36 33h18M60 33h6M21 34h3M36 34h18M60 34h6M21 35h3M36 35h18M60 35h6M18 36h24M63 36h15M18 37h24M63 37h15M18 38h24M63 38h15M6 39h6M15 39h6M33 39h3M66 39h15M6 40h6M15 40h6M33 40h3M66 40h15M6 41h6M15 41h6M33 41h3M66 41h15M33 42h18M69 42h3M75 42h6M33 43h18M69 43h3M75 43h6M33 44h18M69 44h3M75 44h6M33 45h9M69 45h6M33 46h9M69 46h6M33 47h9M69 47h6M33 48h6M42 48h3M51 48h3M69 48h3M75 48h6M33 49h6M42 49h3M51 49h3M69 49h3M75 49h6M33 50h6M42 50h3M51 50h3M69 50h3M75 50h6M33 51h6M48 51h6M69 51h3M75 51h12M33 52h6M48 52h6M69 52h3M75 52h12M33 53h6M48 53h6M69 53h3M75 53h12M30 54h6M42 54h6M66 54h3M72 54h6M84 54h3M90 54h3M30 55h6M42 55h6M66 55h3M72 55h6M84 55h3M90 55h3M30 56h6M42 56h6M66 56h3M72 56h6M84 56h3M90 56h3M30 57h3M66 57h3M117 57h3M30 58h3M66 58h3M117 58h3M30 59h3M66 59h3M117 59h3M27 60h6M66 60h3M78 60h3M117 60h3M27 61h6M66 61h3M78 61h3M117 61h3M27 62h6M66 62h3M78 62h3M117 62h3M27 63h3M69 63h3M93 63h3M114 63h3M27 64h3M69 64h3M93 64h3M114 64h3M27 65h3M69 65h3M93 65h3M114 65h3M72 66h21M102 66h12M72 67h21M102 67h12M72 68h21M102 68h12M51 69h3M87 69h9M102 69h3M51 70h3M87 70h9M102 70h3M51 71h3M87 71h9M102 71h3M51 72h6M87 72h6M51 73h6M87 73h6M51 74h6M87 74h6"/>
                        <path stroke="#ffb5c6"
                              d="M51 18h12M51 19h12M51 20h12M12 21h3M30 21h6M45 21h6M12 22h3M30 22h6M45 22h6M12 23h3M30 23h6M45 23h6M9 24h3M24 24h6M36 24h9M81 24h12M9 25h3M24 25h6M36 25h9M81 25h12M9 26h3M24 26h6M36 26h9M81 26h12M18 27h6M75 27h9M18 28h6M75 28h9M18 29h6M75 29h9M72 30h15M72 31h15M72 32h15M18 33h3M57 33h3M18 34h3M57 34h3M18 35h3M57 35h3M60 36h3M60 37h3M60 38h3M3 39h3M12 39h3M36 39h9M63 39h3M84 39h12M3 40h3M12 40h3M36 40h9M63 40h3M84 40h12M3 41h3M12 41h3M36 41h9M63 41h3M84 41h12M51 42h3M66 42h3M84 42h3M51 43h3M66 43h3M84 43h3M51 44h3M66 44h3M84 44h3M42 45h3M66 45h3M84 45h6M42 46h3M66 46h3M84 46h6M42 47h3M66 47h3M84 47h6M66 48h3M66 49h3M66 50h3M66 51h3M126 51h6M66 52h3M126 52h6M66 53h3M126 53h6M63 54h3M132 54h3M63 55h3M132 55h3M63 56h3M132 56h3M63 57h3M63 58h3M63 59h3M21 60h6M63 60h3M21 61h6M63 61h3M21 62h6M63 62h3M66 63h3M96 63h3M117 63h3M66 64h3M96 64h3M117 64h3M66 65h3M96 65h3M117 65h3M69 66h3M114 66h3M69 67h3M114 67h3M69 68h3M114 68h3M72 69h12M99 69h3M105 69h9M72 70h12M99 70h3M105 70h9M72 71h12M99 71h3M105 71h9M102 72h3M102 73h3M102 74h3"/>
                        <path stroke="#fd8ea2"
                              d="M21 21h3M21 22h3M21 23h3M18 24h6M18 25h6M18 26h6M45 30h6M45 31h6M45 32h6M15 33h3M15 34h3M15 35h3M3 36h3M12 36h6M54 36h6M3 37h3M12 37h6M54 37h6M3 38h3M12 38h6M54 38h6M45 39h6M60 39h3M45 40h6M60 40h3M45 41h6M60 41h3M54 42h3M60 42h6M54 43h3M60 43h6M54 44h3M60 44h6M57 45h9M57 46h9M57 47h9M45 48h3M57 48h9M45 49h3M57 49h9M45 50h3M57 50h9M57 51h9M57 52h9M57 53h9M57 54h6M57 55h6M57 56h6M54 57h9M54 58h9M54 59h9M42 60h3M54 60h9M72 60h3M84 60h3M90 60h3M42 61h3M54 61h9M72 61h3M84 61h3M90 61h3M42 62h3M54 62h9M72 62h3M84 62h3M90 62h3M24 63h3M54 63h12M24 64h3M54 64h12M24 65h3M54 65h12M27 66h3M57 66h12M96 66h3M27 67h3M57 67h12M96 67h3M27 68h3M57 68h12M96 68h3M57 69h15M57 70h15M57 71h15M45 72h3M60 72h24M96 72h3M45 73h3M60 73h24M96 73h3M45 74h3M60 74h24M96 74h3M48 75h3M57 75h3M63 75h18M84 75h3M93 75h3M48 76h3M57 76h3M63 76h18M84 76h3M93 76h3M48 77h3M57 77h3M63 77h18M84 77h3M93 77h3"/>
                        <path stroke="#217421" d="M30 30h3M30 31h3M30 32h3"/>
                        <path stroke="#ffffff"
                              d="M27 33h3M27 34h3M27 35h3M21 42h3M27 42h3M21 43h3M27 43h3M21 44h3M27 44h3M6 45h3M15 45h3M6 46h3M15 46h3M6 47h3M15 47h3M18 54h3M24 54h3M18 55h3M24 55h3M18 56h3M24 56h3"/>
                        <path stroke="#3fc93f" d="M30 33h3M30 34h3M30 35h3"/>
                        <path stroke="#c00000"
                              d="M24 42h3M24 43h3M24 44h3M21 45h9M21 46h9M21 47h9M18 48h12M18 49h12M18 50h12M21 51h9M21 52h9M21 53h9M21 54h3M21 55h3M21 56h3"/>
                    </g>
                    <g id="frame4-[[${id}]]">
                        <path stroke="#000000"
                              d="M30 0h12M45 0h24M30 1h12M45 1h24M30 2h12M45 2h24M27 3h18M69 3h6M27 4h18M69 4h6M27 5h18M69 5h6M24 6h12M39 6h3M51 6h15M72 6h3M81 6h6M24 7h12M39 7h3M51 7h15M72 7h3M81 7h6M24 8h12M39 8h3M51 8h15M72 8h3M81 8h6M15 9h6M24 9h9M36 9h3M48 9h3M57 9h15M75 9h6M84 9h3M15 10h6M24 10h9M36 10h3M48 10h3M57 10h15M75 10h6M84 10h3M15 11h6M24 11h9M36 11h3M48 11h3M57 11h15M75 11h6M84 11h3M15 12h3M21 12h18M48 12h9M69 12h6M81 12h3M15 13h3M21 13h18M48 13h9M69 13h6M81 13h3M15 14h3M21 14h18M48 14h9M69 14h6M81 14h3M12 15h3M21 15h6M33 15h3M42 15h9M75 15h6M87 15h12M12 16h3M21 16h6M33 16h3M42 16h9M75 16h6M87 16h12M12 17h3M21 17h6M33 17h3M42 17h9M75 17h6M87 17h12M12 18h3M18 18h6M63 18h12M81 18h6M99 18h3M12 19h3M18 19h6M63 19h12M81 19h6M99 19h3M12 20h3M18 20h6M63 20h12M81 20h6M99 20h3M15 21h9M33 21h9M51 21h15M78 21h3M90 21h12M15 22h9M33 22h9M51 22h15M78 22h3M90 22h12M15 23h9M33 23h9M51 23h15M78 23h3M90 23h12M15 24h3M33 24h3M39 24h3M45 24h6M57 24h6M66 24h12M93 24h3M15 25h3M33 25h3M39 25h3M45 25h6M57 25h6M66 25h12M93 25h3M15 26h3M33 26h3M39 26h3M45 26h6M57 26h6M66 26h12M93 26h3M12 27h6M21 27h6M30 27h3M39 27h3M60 27h3M72 27h21M12 28h6M21 28h6M30 28h3M39 28h3M60 28h3M72 28h21M12 29h6M21 29h6M30 29h3M39 29h3M60 29h3M72 29h21M6 30h15M48 30h12M84 30h3M90 30h12M6 31h15M48 31h12M84 31h3M90 31h12M6 32h15M48 32h12M84 32h3M90 32h12M6 33h3M12 33h6M30 33h6M57 33h9M87 33h3M102 33h3M6 34h3M12 34h6M30 34h6M57 34h9M87 34h3M102 34h3M6 35h3M12 35h6M30 35h6M57 35h9M87 35h3M102 35h3M6 36h3M27 36h3M36 36h3M63 36h3M78 36h3M87 36h3M93 36h12M6 37h3M27 37h3M36 37h3M63 37h3M78 37h3M87 37h3M93 37h12M6 38h3M27 38h3M36 38h3M63 38h3M78 38h3M87 38h3M93 38h12M9 39h18M36 39h3M51 39h12M81 39h9M96 39h3M9 40h18M36 40h3M51 40h12M81 40h9M96 40h3M9 41h18M36 41h3M51 41h12M81 41h9M96 41h3M9 42h3M15 42h6M24 42h3M36 42h3M45 42h3M54 42h3M60 42h3M78 42h3M87 42h9M9 43h3M15 43h6M24 43h3M36 43h3M45 43h3M54 43h3M60 43h3M78 43h3M87 43h9M9 44h3M15 44h6M24 44h3M36 44h3M45 44h3M54 44h3M60 44h3M78 44h3M87 44h9M12 45h6M21 45h3M33 45h3M45 45h9M60 45h3M78 45h3M93 45h6M12 46h6M21 46h3M33 46h3M45 46h9M60 46h3M78 46h3M93 46h6M12 47h6M21 47h3M33 47h3M45 47h9M60 47h3M78 47h3M93 47h6M18 48h15M39 48h9M54 48h9M75 48h3M84 48h6M93 48h3M99 48h3M18 49h15M39 49h9M54 49h9M75 49h3M84 49h6M93 49h3M99 49h3M18 50h15M39 50h9M54 50h9M75 50h3M84 50h6M93 50h3M99 50h3M18 51h3M33 51h6M45 51h15M75 51h27M120 51h9M18 52h3M33 52h6M45 52h15M75 52h27M120 52h9M18 53h3M33 53h6M45 53h15M75 53h27M120 53h9M21 54h3M30 54h3M45 54h3M51 54h6M75 54h3M81 54h3M87 54h3M93 54h3M99 54h3M117 54h6M129 54h3M21 55h3M30 55h3M45 55h3M51 55h6M75 55h3M81 55h3M87 55h3M93 55h3M99 55h3M117 55h6M129 55h3M21 56h3M30 56h3M45 56h3M51 56h6M75 56h3M81 56h3M87 56h3M93 56h3M99 56h3M117 56h6M129 56h3M24 57h3M30 57h3M48 57h6M72 57h12M87 57h12M114 57h6M123 57h6M132 57h3M24 58h3M30 58h3M48 58h6M72 58h12M87 58h12M114 58h6M123 58h6M132 58h3M24 59h3M30 59h3M48 59h6M72 59h12M87 59h12M114 59h6M123 59h6M132 59h3M27 60h6M51 60h3M72 60h3M84 60h6M96 60h3M111 60h3M117 60h3M129 60h6M27 61h6M51 61h3M72 61h3M84 61h6M96 61h3M111 61h3M117 61h3M129 61h6M27 62h6M51 62h3M72 62h3M84 62h6M96 62h3M111 62h3M117 62h3M129 62h6M51 63h3M75 63h9M96 63h6M111 63h3M117 63h3M51 64h3M75 64h9M96 64h6M111 64h3M117 64h3M51 65h3M75 65h9M96 65h6M111 65h3M117 65h3M48 66h6M90 66h3M96 66h3M102 66h9M117 66h3M48 67h6M90 67h3M96 67h3M102 67h9M117 67h3M48 68h6M90 68h3M96 68h3M102 68h9M117 68h3M42 69h6M51 69h3M81 69h3M93 69h3M114 69h3M42 70h6M51 70h3M81 70h3M93 70h3M114 70h3M42 71h6M51 71h3M81 71h3M93 71h3M114 71h3M39 72h3M45 72h3M54 72h3M81 72h3M90 72h3M96 72h3M111 72h3M39 73h3M45 73h3M54 73h3M81 73h3M90 73h3M96 73h3M111 73h3M39 74h3M45 74h3M54 74h3M81 74h3M90 74h3M96 74h3M111 74h3M39 75h6M48 75h6M57 75h3M78 75h3M84 75h6M93 75h18M39 76h6M48 76h6M57 76h3M78 76h3M84 76h6M93 76h18M39 77h6M48 77h6M57 77h3M78 77h3M84 77h6M93 77h18M45 78h6M54 78h30M87 78h6M45 79h6M54 79h30M87 79h6M45 80h6M54 80h30M87 80h6"/>
                        <path stroke="#ec0076"
                              d="M45 3h6M57 3h6M66 3h3M45 4h6M57 4h6M66 4h3M45 5h6M57 5h6M66 5h3M69 6h3M69 7h3M69 8h3M39 9h6M39 10h6M39 11h6M45 12h3M78 12h3M45 13h3M78 13h3M45 14h3M78 14h3"/>
                        <path stroke="#5e5e5e"
                              d="M51 3h6M63 3h3M51 4h6M63 4h3M51 5h6M63 5h3M42 6h9M66 6h3M42 7h9M66 7h3M42 8h9M66 8h3M45 9h3M72 9h3M81 9h3M45 10h3M72 10h3M81 10h3M45 11h3M72 11h3M81 11h3M39 12h6M75 12h3M39 13h6M75 13h3M39 14h6M75 14h3"/>
                        <path stroke="#ffd2e0"
                              d="M18 12h3M18 13h3M18 14h3M15 15h3M30 15h3M57 15h18M15 16h3M30 16h3M57 16h18M15 17h3M30 17h3M57 17h18M36 18h6M51 18h12M36 19h6M51 19h12M36 20h6M51 20h12M30 21h3M42 21h9M30 22h3M42 22h9M30 23h3M42 23h9M24 24h9M42 24h3M63 24h3M24 25h9M42 25h3M63 25h3M24 26h9M42 26h3M63 26h3M18 27h3M27 27h3M42 27h18M66 27h6M18 28h3M27 28h3M42 28h18M66 28h6M18 29h3M27 29h3M42 29h18M66 29h6M27 30h21M69 30h15M27 31h21M69 31h15M27 32h21M69 32h15M24 33h6M36 33h6M72 33h15M24 34h6M36 34h6M72 34h15M24 35h6M36 35h6M72 35h15M12 36h6M21 36h6M39 36h18M75 36h3M81 36h6M12 37h6M21 37h6M39 37h18M75 37h3M81 37h6M12 38h6M21 38h6M39 38h18M75 38h3M81 38h6M39 39h9M75 39h6M39 40h9M75 40h6M39 41h9M75 41h6M39 42h6M48 42h3M57 42h3M75 42h3M81 42h6M39 43h6M48 43h3M57 43h3M75 43h3M81 43h6M39 44h6M48 44h3M57 44h3M75 44h3M81 44h6M39 45h6M54 45h6M75 45h3M81 45h12M39 46h6M54 46h6M75 46h3M81 46h12M39 47h6M54 47h6M75 47h3M81 47h12M33 48h6M48 48h6M72 48h3M78 48h6M90 48h3M96 48h3M33 49h6M48 49h6M72 49h3M78 49h6M90 49h3M96 49h3M33 50h6M48 50h6M72 50h3M78 50h6M90 50h3M96 50h3M27 51h6M72 51h3M27 52h6M72 52h3M27 53h6M72 53h3M27 54h3M69 54h6M84 54h3M27 55h3M69 55h6M84 55h3M27 56h3M69 56h6M84 56h3M66 57h6M84 57h3M66 58h6M84 58h3M66 59h6M84 59h3M66 60h6M75 60h9M90 60h6M114 60h3M66 61h6M75 61h9M90 61h6M114 61h3M66 62h6M75 62h9M90 62h6M114 62h3M66 63h9M84 63h9M114 63h3M66 64h9M84 64h9M114 64h3M66 65h9M84 65h9M114 65h3M69 66h21M99 66h3M111 66h3M69 67h21M99 67h3M111 67h3M69 68h21M99 68h3M111 68h3M48 69h3M84 69h9M99 69h12M48 70h3M84 70h9M99 70h12M48 71h3M84 71h9M99 71h12M48 72h6M84 72h6M48 73h6M84 73h6M48 74h6M84 74h6"/>
                        <path stroke="#ffb5c6"
                              d="M57 12h12M57 13h12M57 14h12M18 15h3M36 15h6M51 15h6M18 16h3M36 16h6M51 16h6M18 17h3M36 17h6M51 17h6M15 18h3M30 18h6M42 18h9M87 18h12M15 19h3M30 19h6M42 19h9M87 19h12M15 20h3M30 20h6M42 20h9M87 20h12M24 21h6M81 21h9M24 22h6M81 22h9M24 23h6M81 23h9M21 24h3M78 24h15M21 25h3M78 25h15M21 26h3M78 26h15M63 27h3M63 28h3M63 29h3M24 30h3M66 30h3M24 31h3M66 31h3M24 32h3M66 32h3M42 33h9M69 33h3M90 33h12M42 34h9M69 34h3M90 34h12M42 35h9M69 35h3M90 35h12M9 36h3M18 36h3M57 36h3M72 36h3M90 36h3M9 37h3M18 37h3M57 37h3M72 37h3M90 37h3M9 38h3M18 38h3M57 38h3M72 38h3M90 38h3M48 39h3M72 39h3M90 39h6M48 40h3M72 40h3M90 40h6M48 41h3M72 41h3M90 41h6M72 42h3M72 43h3M72 44h3M36 45h3M72 45h3M36 46h3M72 46h3M36 47h3M72 47h3M69 48h3M69 49h3M69 50h3M21 51h6M69 51h3M21 52h6M69 52h3M21 53h6M69 53h3M66 54h3M123 54h6M66 55h3M123 55h6M66 56h3M123 56h6M63 57h3M129 57h3M63 58h3M129 58h3M63 59h3M129 59h3M63 60h3M63 61h3M63 62h3M63 63h3M93 63h3M63 64h3M93 64h3M63 65h3M93 65h3M66 66h3M114 66h3M66 67h3M114 67h3M66 68h3M114 68h3M69 69h12M96 69h3M111 69h3M69 70h12M96 70h3M111 70h3M69 71h12M96 71h3M111 71h3M99 72h12M99 73h12M99 74h12"/>
                        <path stroke="#fd8ea2"
                              d="M27 15h3M27 16h3M27 17h3M24 18h6M24 19h6M24 20h6M18 24h3M51 24h6M18 25h3M51 25h6M18 26h3M51 26h6M21 30h3M60 30h6M21 31h3M60 31h6M21 32h3M60 32h6M9 33h3M18 33h6M51 33h6M66 33h3M9 34h3M18 34h6M51 34h6M66 34h3M9 35h3M18 35h6M51 35h6M66 35h3M60 36h3M66 36h6M60 37h3M66 37h6M60 38h3M66 38h6M63 39h9M63 40h9M63 41h9M51 42h3M63 42h9M51 43h3M63 43h9M51 44h3M63 44h9M63 45h9M63 46h9M63 47h9M63 48h6M63 49h6M63 50h6M60 51h9M60 52h9M60 53h9M24 54h3M48 54h3M57 54h9M78 54h3M90 54h3M96 54h3M24 55h3M48 55h3M57 55h9M78 55h3M90 55h3M96 55h3M24 56h3M48 56h3M57 56h9M78 56h3M90 56h3M96 56h3M27 57h3M54 57h9M27 58h3M54 58h9M27 59h3M54 59h9M54 60h9M54 61h9M54 62h9M54 63h9M54 64h9M54 65h9M54 66h12M93 66h3M54 67h12M93 67h3M54 68h12M93 68h3M54 69h15M54 70h15M54 71h15M42 72h3M57 72h24M93 72h3M42 73h3M57 73h24M93 73h3M42 74h3M57 74h24M93 74h3M45 75h3M54 75h3M60 75h18M81 75h3M90 75h3M45 76h3M54 76h3M60 76h18M81 76h3M90 76h3M45 77h3M54 77h3M60 77h18M81 77h3M90 77h3"/>
                        <path stroke="#217421" d="M36 24h3M36 25h3M36 26h3"/>
                        <path stroke="#ffffff"
                              d="M33 27h3M33 28h3M33 29h3M33 36h3M33 37h3M33 38h3M27 39h3M27 40h3M27 41h3M12 42h3M21 42h3M12 43h3M21 43h3M12 44h3M21 44h3M24 45h3M30 45h3M24 46h3M30 46h3M24 47h3M30 47h3"/>
                        <path stroke="#3fc93f" d="M36 27h3M36 28h3M36 29h3"/>
                        <path stroke="#c00000"
                              d="M30 36h3M30 37h3M30 38h3M30 39h6M30 40h6M30 41h6M27 42h9M27 43h9M27 44h9M27 45h3M27 46h3M27 47h3"/>
                    </g>
                </g>
            </svg>
            <svg viewBox="0 0 100 30" width="100" height="30" x="0" y="0">
                <g id="username-[[${id}]]">
                    <rect x="0" y="0" width="100" height="20" fill="black" fill-opacity="0.8" rx="5"/>
                    <svg x="4" y="2.5" width="15" height="15" viewBox="0 0 100 100">
                        <path fill-rule="evenodd" clip-rule="evenodd"
                              d="M48.854 0C21.839 0 0 22 0 49.217c0 21.756 13.993 40.172 33.405 46.69 2.427.49 3.316-1.059 3.316-2.362 0-1.141-.08-5.052-.08-9.127-13.59 2.934-16.42-5.867-16.42-5.867-2.184-5.704-5.42-7.17-5.42-7.17-4.448-3.015.324-3.015.324-3.015 4.934.326 7.523 5.052 7.523 5.052 4.367 7.496 11.404 5.378 14.235 4.074.404-3.178 1.699-5.378 3.074-6.6-10.839-1.141-22.243-5.378-22.243-24.283 0-5.378 1.94-9.778 5.014-13.2-.485-1.222-2.184-6.275.486-13.038 0 0 4.125-1.304 13.426 5.052a46.97 46.97 0 0 1 12.214-1.63c4.125 0 8.33.571 12.213 1.63 9.302-6.356 13.427-5.052 13.427-5.052 2.67 6.763.97 11.816.485 13.038 3.155 3.422 5.015 7.822 5.015 13.2 0 18.905-11.404 23.06-22.324 24.283 1.78 1.548 3.316 4.481 3.316 9.126 0 6.6-.08 11.897-.08 13.526 0 1.304.89 2.853 3.316 2.364 19.412-6.52 33.405-24.935 33.405-46.691C97.707 22 75.788 0 48.854 0z"
                              fill="#fff"/>
                    </svg>
                    <text x="25" y="11" dominant-baseline="middle" style="fill:white" font-size="13">
                        [[${#strings.abbreviate(username, 12)}]]
                    </text>
                    <rect x="0" y="23" width="[[${exp}]]" height="2" fill="#48ff00" rx="1"/>
                </g>
            </svg>
        </g>
    </a>
    <style>
        #frame1-[[${id}]] {
        animation: 1s frameToggle infinite;
        }
        #frame2-[[${id}]] {
        animation: 1s frameToggle infinite reverse;
        }
        #frame3-[[${id}]] {
        animation: 1s frameToggle infinite;
        }
        #frame4-[[${id}]] {
        animation: 1s frameToggle infinite reverse;
        }
        #standing-[[${id}]] {
        animation: standingToggle [[${motion.duration}]]s infinite;
        }
        #walking-[[${id}]] {
        animation: walkingToggle [[${motion.duration}]]s infinite;
        }
        #body-[[${id}]] {
        animation: move-body-[[${id}]] [[${motion.duration}]]s infinite;
        }
        #username-[[${id}]] {
        animation: move-username-[[${id}]] [[${motion.duration}]]s infinite;
        }
        @keyframes move-body-[[${id}]] {
        0%, 10% {
        transform: translate([[${motion.positions[0].x}]]%, [[${y}]]%) scaleX([[${motion.positions[0].direction}]]);
        }
        20%, 30% {
        transform: translate([[${motion.positions[1].x}]]%, [[${y}]]%) scaleX([[${motion.positions[1].direction}]]);
        }
        40%, 50% {
        transform: translate([[${motion.positions[2].x}]]%, [[${y}]]%) scaleX([[${motion.positions[2].direction}]]);
        }
        50.01% {
        transform: translate([[${motion.positions[3].x}]]%, [[${y}]]%) scaleX([[${motion.positions[3].direction}]]);
        }
        60%, 70% {
        transform: translate([[${motion.positions[4].x}]]%, [[${y}]]%) scaleX([[${motion.positions[4].direction}]]);
        }
        80%, 100% {
        transform: translate([[${motion.positions[5].x}]]%, [[${y}]]%) scaleX([[${motion.positions[5].direction}]]);
        }
        }
        @keyframes move-username-[[${id}]] {
        0%, 10% {
        transform: scaleX([[${motion.positions[0].direction}]])
        translateX([[${motion.positions[0].direction > 0 ? 0: -100}]]%);
        }
        20%, 30% {
        transform: scaleX([[${motion.positions[1].direction}]])
        translateX([[${motion.positions[1].direction > 0 ? 0: -100}]]%);
        }
        40%, 50% {
        transform: scaleX([[${motion.positions[2].direction}]])
        translateX([[${motion.positions[2].direction > 0 ? 0: -100}]]%);
        }
        50.01% {
        transform: scaleX([[${motion.positions[3].direction}]])
        translateX([[${motion.positions[3].direction > 0 ? 0: -100}]]%);
        }
        60%, 70% {
        transform: scaleX([[${motion.positions[4].direction}]])
        translateX([[${motion.positions[4].direction > 0 ? 0: -100}]]%);
        }
        80%, 100% {
        transform: scaleX([[${motion.positions[5].direction}]])
        translateX([[${motion.positions[5].direction > 0 ? 0: -100}]]%);
        }
        }
    </style>
</svg>
