<svg fill="none" overflow="visible" xmlns="http://www.w3.org/2000/svg">
    <a href="https://github.com/[[${username}]]">
        <g id="body-[[${id}]]">
            <svg viewBox="0 0 100 100" width="100" height="100" x="13" y="27">
                <g id="standing-[[${id}]]">
                    <g id="frame1-[[${id}]]">
                        <path stroke="#000000"
                              d="M9 3h6M9 4h6M9 5h6M9 6h3M15 6h3M9 7h3M15 7h3M9 8h3M15 8h3M9 9h6M18 9h3M24 9h6M33 9h9M9 10h6M18 10h3M24 10h6M33 10h9M9 11h6M18 11h3M24 11h6M33 11h9M12 12h3M21 12h12M39 12h9M12 13h3M21 13h12M39 13h9M12 14h3M21 14h12M39 14h9M12 15h3M24 15h3M45 15h6M12 16h3M24 16h3M45 16h6M12 17h3M24 17h3M45 17h6M12 18h6M24 18h3M51 18h6M12 19h6M24 19h3M51 19h6M12 20h6M24 20h3M51 20h6M6 21h6M15 21h9M33 21h3M39 21h3M45 21h6M57 21h9M6 22h6M15 22h9M33 22h3M39 22h3M45 22h6M57 22h9M6 23h6M15 23h9M33 23h3M39 23h3M45 23h6M57 23h9M6 24h3M12 24h6M30 24h9M42 24h15M63 24h3M6 25h3M12 25h6M30 25h9M42 25h15M63 25h3M6 26h3M12 26h6M30 26h9M42 26h15M63 26h3M9 27h12M27 27h3M48 27h3M54 27h9M9 28h12M27 28h3M48 28h3M54 28h9M9 29h12M27 29h3M48 29h3M54 29h9M18 30h9M51 30h3M18 31h9M51 31h3M18 32h9M51 32h3M15 33h3M45 33h3M54 33h3M15 34h3M45 34h3M54 34h3M15 35h3M45 35h3M54 35h3M15 36h3M21 36h6M36 36h3M42 36h3M48 36h9M15 37h3M21 37h6M36 37h3M42 37h3M48 37h9M15 38h3M21 38h6M36 38h3M42 38h3M48 38h9M15 39h9M27 39h12M42 39h3M51 39h6M15 40h9M27 40h12M42 40h3M51 40h6M15 41h9M27 41h12M42 41h3M51 41h6M15 42h3M21 42h3M30 42h3M36 42h3M45 42h9M57 42h3M15 43h3M21 43h3M30 43h3M36 43h3M45 43h9M57 43h3M15 44h3M21 44h3M30 44h3M36 44h3M45 44h9M57 44h3M15 45h3M21 45h12M36 45h15M60 45h3M15 46h3M21 46h12M36 46h15M60 46h3M15 47h3M21 47h12M36 47h15M60 47h3M18 48h6M27 48h3M33 48h9M51 48h3M63 48h3M18 49h6M27 49h3M33 49h9M51 49h3M63 49h3M18 50h6M27 50h3M33 50h9M51 50h3M63 50h3M18 51h3M27 51h3M39 51h3M54 51h3M63 51h3M18 52h3M27 52h3M39 52h3M54 52h3M63 52h3M18 53h3M27 53h3M39 53h3M54 53h3M63 53h3M15 54h6M30 54h3M39 54h3M54 54h3M63 54h6M15 55h6M30 55h3M39 55h3M54 55h3M63 55h6M15 56h6M30 56h3M39 56h3M54 56h3M63 56h6M12 57h3M21 57h3M30 57h12M45 57h3M51 57h3M57 57h6M69 57h3M12 58h3M21 58h3M30 58h12M45 58h3M51 58h3M57 58h6M69 58h3M12 59h3M21 59h3M30 59h12M45 59h3M51 59h3M57 59h6M69 59h3M12 60h21M39 60h33M12 61h21M39 61h33M12 62h21M39 62h33"/>
                        <path stroke="#483344"
                              d="M12 6h3M12 7h3M12 8h3M15 9h3M15 10h3M15 11h3M15 12h6M15 13h6M15 14h6M15 15h9M15 16h9M15 17h9M18 18h6M18 19h6M18 20h6M21 27h6M36 27h6M21 28h6M36 28h6M21 29h6M36 29h6M30 30h9M30 31h9M30 32h9M24 39h3M24 40h3M24 41h3M21 54h3M27 54h3M42 54h6M51 54h3M60 54h3M21 55h3M27 55h3M42 55h6M51 55h3M60 55h3M21 56h3M27 56h3M42 56h6M51 56h3M60 56h3M18 57h3M24 57h6M63 57h3M18 58h3M24 58h6M63 58h3M18 59h3M24 59h6M63 59h3"/>
                        <path stroke="#e6f2f9"
                              d="M33 12h6M33 13h6M33 14h6M27 15h18M27 16h18M27 17h18M27 18h24M27 19h24M27 20h24M12 21h3M24 21h9M36 21h3M42 21h3M51 21h6M12 22h3M24 22h9M36 22h3M42 22h3M51 22h6M12 23h3M24 23h9M36 23h3M42 23h3M51 23h6M9 24h3M18 24h12M39 24h3M57 24h6M9 25h3M18 25h12M39 25h3M57 25h6M9 26h3M18 26h12M39 26h3M57 26h6M42 27h6M42 28h6M42 29h6M27 30h3M39 30h12M27 31h3M39 31h12M27 32h3M39 32h12M18 33h27M48 33h6M18 34h27M48 34h6M18 35h27M48 35h6M18 36h3M27 36h9M39 36h3M45 36h3M18 37h3M27 37h9M39 37h3M45 37h3M18 38h3M27 38h9M39 38h3M45 38h3M39 39h3M45 39h6M39 40h3M45 40h6M39 41h3M45 41h6M24 42h6M39 42h6M54 42h3M24 43h6M39 43h6M54 43h3M24 44h6M39 44h6M54 44h3M51 45h9M51 46h9M51 47h9M24 48h3M30 48h3M42 48h9M54 48h9M24 49h3M30 49h3M42 49h9M54 49h9M24 50h3M30 50h3M42 50h9M54 50h9M21 51h6M30 51h9M42 51h12M57 51h6M21 52h6M30 52h9M42 52h12M57 52h6M21 53h6M30 53h9M42 53h12M57 53h6M24 54h3M33 54h6M48 54h3M57 54h3M24 55h3M33 55h6M48 55h3M57 55h3M24 56h3M33 56h6M48 56h3M57 56h3"/>
                        <path stroke="#ffffff" d="M30 27h3M30 28h3M30 29h3"/>
                        <path stroke="#0086ff" d="M33 27h3M33 28h3M33 29h3"/>
                        <path stroke="#efe4b0"
                              d="M18 42h3M33 42h3M18 43h3M33 43h3M18 44h3M33 44h3M18 45h3M33 45h3M18 46h3M33 46h3M18 47h3M33 47h3"/>
                        <path stroke="#ff0000"
                              d="M15 57h3M42 57h3M48 57h3M54 57h3M66 57h3M15 58h3M42 58h3M48 58h3M54 58h3M66 58h3M15 59h3M42 59h3M48 59h3M54 59h3M66 59h3"/>
                    </g>
                    <g id="frame2-[[${id}]]">
                        <path stroke="#000000"
                              d="M9 0h6M9 1h6M9 2h6M9 3h3M15 3h3M9 4h3M15 4h3M9 5h3M15 5h3M9 6h6M18 6h3M24 6h6M33 6h9M9 7h6M18 7h3M24 7h6M33 7h9M9 8h6M18 8h3M24 8h6M33 8h9M12 9h3M21 9h12M39 9h9M12 10h3M21 10h12M39 10h9M12 11h3M21 11h12M39 11h9M12 12h3M24 12h3M45 12h12M12 13h3M24 13h3M45 13h12M12 14h3M24 14h3M45 14h12M6 15h6M15 15h3M24 15h3M57 15h9M6 16h6M15 16h3M24 16h3M57 16h9M6 17h6M15 17h3M24 17h3M57 17h9M6 18h3M12 18h12M33 18h3M39 18h3M45 18h12M63 18h3M6 19h3M12 19h12M33 19h3M39 19h3M45 19h12M63 19h3M6 20h3M12 20h12M33 20h3M39 20h3M45 20h12M63 20h3M9 21h9M30 21h9M42 21h9M54 21h9M9 22h9M30 22h9M42 22h9M54 22h9M9 23h9M30 23h9M42 23h9M54 23h9M15 24h6M27 24h3M48 24h3M15 25h6M27 25h3M48 25h3M15 26h6M27 26h3M48 26h3M18 27h9M51 27h3M18 28h9M51 28h3M18 29h9M51 29h3M15 30h3M45 30h3M54 30h3M15 31h3M45 31h3M54 31h3M15 32h3M45 32h3M54 32h3M15 33h3M21 33h6M36 33h3M42 33h3M48 33h9M15 34h3M21 34h6M36 34h3M42 34h3M48 34h9M15 35h3M21 35h6M36 35h3M42 35h3M48 35h9M15 36h9M27 36h12M42 36h3M51 36h3M15 37h9M27 37h12M42 37h3M51 37h3M15 38h9M27 38h12M42 38h3M51 38h3M15 39h3M21 39h3M30 39h3M36 39h3M45 39h12M15 40h3M21 40h3M30 40h3M36 40h3M45 40h12M15 41h3M21 41h3M30 41h3M36 41h3M45 41h12M15 42h3M21 42h12M36 42h12M57 42h3M15 43h3M21 43h12M36 43h12M57 43h3M15 44h3M21 44h12M36 44h12M57 44h3M18 45h6M27 45h3M33 45h9M48 45h3M60 45h3M18 46h6M27 46h3M33 46h9M48 46h3M60 46h3M18 47h6M27 47h3M33 47h9M48 47h3M60 47h3M21 48h3M27 48h3M39 48h3M51 48h3M63 48h3M21 49h3M27 49h3M39 49h3M51 49h3M63 49h3M21 50h3M27 50h3M39 50h3M51 50h3M63 50h3M18 51h3M27 51h3M39 51h3M54 51h3M63 51h3M18 52h3M27 52h3M39 52h3M54 52h3M63 52h3M18 53h3M27 53h3M39 53h3M54 53h3M63 53h3M15 54h6M30 54h3M39 54h3M54 54h3M63 54h6M15 55h6M30 55h3M39 55h3M54 55h3M63 55h6M15 56h6M30 56h3M39 56h3M54 56h3M63 56h6M12 57h3M21 57h3M30 57h12M45 57h3M51 57h3M57 57h6M69 57h3M12 58h3M21 58h3M30 58h12M45 58h3M51 58h3M57 58h6M69 58h3M12 59h3M21 59h3M30 59h12M45 59h3M51 59h3M57 59h6M69 59h3M12 60h21M39 60h33M12 61h21M39 61h33M12 62h21M39 62h33"/>
                        <path stroke="#483344"
                              d="M12 3h3M12 4h3M12 5h3M15 6h3M15 7h3M15 8h3M15 9h6M15 10h6M15 11h6M15 12h9M15 13h9M15 14h9M18 15h6M18 16h6M18 17h6M21 24h6M36 24h6M21 25h6M36 25h6M21 26h6M36 26h6M30 27h9M30 28h9M30 29h9M24 36h3M24 37h3M24 38h3M21 54h3M27 54h3M42 54h6M51 54h3M60 54h3M21 55h3M27 55h3M42 55h6M51 55h3M60 55h3M21 56h3M27 56h3M42 56h6M51 56h3M60 56h3M18 57h3M24 57h6M63 57h3M18 58h3M24 58h6M63 58h3M18 59h3M24 59h6M63 59h3"/>
                        <path stroke="#e6f2f9"
                              d="M33 9h6M33 10h6M33 11h6M27 12h18M27 13h18M27 14h18M12 15h3M27 15h30M12 16h3M27 16h30M12 17h3M27 17h30M9 18h3M24 18h9M36 18h3M42 18h3M57 18h6M9 19h3M24 19h9M36 19h3M42 19h3M57 19h6M9 20h3M24 20h9M36 20h3M42 20h3M57 20h6M18 21h12M39 21h3M18 22h12M39 22h3M18 23h12M39 23h3M42 24h6M42 25h6M42 26h6M27 27h3M39 27h12M27 28h3M39 28h12M27 29h3M39 29h12M18 30h27M48 30h6M18 31h27M48 31h6M18 32h27M48 32h6M18 33h3M27 33h9M39 33h3M45 33h3M18 34h3M27 34h9M39 34h3M45 34h3M18 35h3M27 35h9M39 35h3M45 35h3M39 36h3M45 36h6M39 37h3M45 37h6M39 38h3M45 38h6M24 39h6M39 39h6M24 40h6M39 40h6M24 41h6M39 41h6M48 42h9M48 43h9M48 44h9M24 45h3M30 45h3M42 45h6M51 45h9M24 46h3M30 46h3M42 46h6M51 46h9M24 47h3M30 47h3M42 47h6M51 47h9M24 48h3M30 48h9M42 48h9M54 48h9M24 49h3M30 49h9M42 49h9M54 49h9M24 50h3M30 50h9M42 50h9M54 50h9M21 51h6M30 51h9M42 51h12M57 51h6M21 52h6M30 52h9M42 52h12M57 52h6M21 53h6M30 53h9M42 53h12M57 53h6M24 54h3M33 54h6M48 54h3M57 54h3M24 55h3M33 55h6M48 55h3M57 55h3M24 56h3M33 56h6M48 56h3M57 56h3"/>
                        <path stroke="#ffffff" d="M30 24h3M30 25h3M30 26h3"/>
                        <path stroke="#0086ff" d="M33 24h3M33 25h3M33 26h3"/>
                        <path stroke="#efe4b0"
                              d="M18 39h3M33 39h3M18 40h3M33 40h3M18 41h3M33 41h3M18 42h3M33 42h3M18 43h3M33 43h3M18 44h3M33 44h3"/>
                        <path stroke="#ff0000"
                              d="M15 57h3M42 57h3M48 57h3M54 57h3M66 57h3M15 58h3M42 58h3M48 58h3M54 58h3M66 58h3M15 59h3M42 59h3M48 59h3M54 59h3M66 59h3"/>
                    </g>
                </g>
                <g id="walking-[[${id}]]">
                    <g id="frame3-[[${id}]]">
                        <path stroke="#000000"
                              d="M9 0h6M9 1h6M9 2h6M9 3h3M15 3h3M9 4h3M15 4h3M9 5h3M15 5h3M9 6h6M18 6h3M27 6h6M36 6h9M9 7h6M18 7h3M27 7h6M36 7h9M9 8h6M18 8h3M27 8h6M36 8h9M12 9h3M21 9h6M30 9h6M42 9h6M12 10h3M21 10h6M30 10h6M42 10h6M12 11h3M21 11h6M30 11h6M42 11h6M12 12h3M24 12h3M45 12h9M12 13h3M24 13h3M45 13h9M12 14h3M24 14h3M45 14h9M9 15h9M24 15h3M54 15h9M9 16h9M24 16h3M54 16h9M9 17h9M24 17h3M54 17h9M9 18h3M15 18h9M30 18h3M36 18h3M45 18h9M60 18h3M9 19h3M15 19h9M30 19h3M36 19h3M45 19h9M60 19h3M9 20h3M15 20h9M30 20h3M36 20h3M45 20h9M60 20h3M12 21h6M27 21h9M39 21h21M12 22h6M27 22h9M39 22h21M12 23h6M27 23h9M39 23h21M15 24h6M24 24h3M48 24h3M15 25h6M24 25h3M48 25h3M15 26h6M24 26h3M48 26h3M18 27h6M51 27h3M18 28h6M51 28h3M18 29h6M51 29h3M15 30h3M45 30h3M54 30h3M15 31h3M45 31h3M54 31h3M15 32h3M45 32h3M54 32h3M15 33h9M33 33h3M42 33h3M48 33h9M15 34h9M33 34h3M42 34h3M48 34h9M15 35h9M33 35h3M42 35h3M48 35h9M15 36h6M24 36h12M42 36h3M51 36h3M15 37h6M24 37h12M42 37h3M51 37h3M15 38h6M24 38h12M42 38h3M51 38h3M15 39h6M27 39h3M33 39h6M45 39h12M15 40h6M27 40h3M33 40h6M45 40h12M15 41h6M27 41h3M33 41h6M45 41h12M15 42h15M33 42h15M57 42h3M15 43h15M33 43h15M57 43h3M15 44h15M33 44h15M57 44h3M18 45h21M45 45h3M60 45h3M18 46h21M45 46h3M60 46h3M18 47h21M45 47h3M60 47h3M24 48h6M36 48h3M48 48h3M60 48h3M24 49h6M36 49h3M48 49h3M60 49h3M24 50h6M36 50h3M48 50h3M60 50h3M21 51h3M27 51h3M36 51h3M51 51h3M63 51h3M21 52h3M27 52h3M36 52h3M51 52h3M63 52h3M21 53h3M27 53h3M36 53h3M51 53h3M63 53h3M18 54h6M30 54h3M36 54h3M51 54h3M60 54h6M18 55h6M30 55h3M36 55h3M51 55h3M60 55h6M18 56h6M30 56h3M36 56h3M51 56h3M60 56h6M15 57h3M24 57h3M33 57h6M42 57h3M48 57h3M54 57h6M66 57h3M15 58h3M24 58h3M33 58h6M42 58h3M48 58h3M54 58h6M66 58h3M15 59h3M24 59h3M33 59h6M42 59h3M48 59h3M54 59h6M66 59h3M15 60h54M15 61h54M15 62h54"/>
                        <path stroke="#483344"
                              d="M12 3h3M12 4h3M12 5h3M15 6h3M15 7h3M15 8h3M15 9h6M15 10h6M15 11h6M15 12h9M15 13h9M15 14h9M18 15h6M18 16h6M18 17h6M21 24h3M33 24h6M21 25h3M33 25h6M21 26h3M33 26h6M27 27h9M27 28h9M27 29h9M21 36h3M21 37h3M21 38h3M24 54h3M39 54h6M48 54h3M57 54h3M24 55h3M39 55h6M48 55h3M57 55h3M24 56h3M39 56h6M48 56h3M57 56h3M21 57h3M27 57h6M60 57h3M21 58h3M27 58h6M60 58h3M21 59h3M27 59h6M60 59h3"/>
                        <path stroke="#e6f2f9"
                              d="M27 9h3M36 9h6M27 10h3M36 10h6M27 11h3M36 11h6M27 12h18M27 13h18M27 14h18M27 15h27M27 16h27M27 17h27M12 18h3M24 18h6M33 18h3M39 18h6M54 18h6M12 19h3M24 19h6M33 19h3M39 19h6M54 19h6M12 20h3M24 20h6M33 20h3M39 20h6M54 20h6M18 21h9M36 21h3M18 22h9M36 22h3M18 23h9M36 23h3M39 24h9M39 25h9M39 26h9M24 27h3M36 27h15M24 28h3M36 28h15M24 29h3M36 29h15M18 30h27M48 30h6M18 31h27M48 31h6M18 32h27M48 32h6M24 33h9M36 33h6M45 33h3M24 34h9M36 34h6M45 34h3M24 35h9M36 35h6M45 35h3M36 36h6M45 36h6M36 37h6M45 37h6M36 38h6M45 38h6M21 39h6M39 39h6M21 40h6M39 40h6M21 41h6M39 41h6M48 42h9M48 43h9M48 44h9M39 45h6M48 45h12M39 46h6M48 46h12M39 47h6M48 47h12M30 48h6M39 48h9M51 48h9M30 49h6M39 49h9M51 49h9M30 50h6M39 50h9M51 50h9M24 51h3M30 51h6M39 51h12M54 51h9M24 52h3M30 52h6M39 52h12M54 52h9M24 53h3M30 53h6M39 53h12M54 53h9M27 54h3M33 54h3M45 54h3M54 54h3M27 55h3M33 55h3M45 55h3M54 55h3M27 56h3M33 56h3M45 56h3M54 56h3"/>
                        <path stroke="#ffffff" d="M27 24h3M27 25h3M27 26h3"/>
                        <path stroke="#0086ff" d="M30 24h3M30 25h3M30 26h3"/>
                        <path stroke="#efe4b0" d="M30 39h3M30 40h3M30 41h3M30 42h3M30 43h3M30 44h3"/>
                        <path stroke="#ff0000"
                              d="M18 57h3M39 57h3M45 57h3M51 57h3M63 57h3M18 58h3M39 58h3M45 58h3M51 58h3M63 58h3M18 59h3M39 59h3M45 59h3M51 59h3M63 59h3"/>
                    </g>
                    <g id="frame4-[[${id}]]">
                        <path stroke="#000000"
                              d="M9 0h6M9 1h6M9 2h6M9 3h3M15 3h3M9 4h3M15 4h3M9 5h3M15 5h3M9 6h6M18 6h3M24 6h6M33 6h9M9 7h6M18 7h3M24 7h6M33 7h9M9 8h6M18 8h3M24 8h6M33 8h9M12 9h3M21 9h12M39 9h9M12 10h3M21 10h12M39 10h9M12 11h3M21 11h12M39 11h9M12 12h3M24 12h3M45 12h12M12 13h3M24 13h3M45 13h12M12 14h3M24 14h3M45 14h12M6 15h6M15 15h3M24 15h3M57 15h9M6 16h6M15 16h3M24 16h3M57 16h9M6 17h6M15 17h3M24 17h3M57 17h9M6 18h3M12 18h12M33 18h3M39 18h3M45 18h12M63 18h3M6 19h3M12 19h12M33 19h3M39 19h3M45 19h12M63 19h3M6 20h3M12 20h12M33 20h3M39 20h3M45 20h12M63 20h3M9 21h9M30 21h9M42 21h9M54 21h9M9 22h9M30 22h9M42 22h9M54 22h9M9 23h9M30 23h9M42 23h9M54 23h9M15 24h6M27 24h3M48 24h3M15 25h6M27 25h3M48 25h3M15 26h6M27 26h3M48 26h3M18 27h9M51 27h3M18 28h9M51 28h3M18 29h9M51 29h3M15 30h3M45 30h3M54 30h3M15 31h3M45 31h3M54 31h3M15 32h3M45 32h3M54 32h3M15 33h3M21 33h6M36 33h3M42 33h3M48 33h9M15 34h3M21 34h6M36 34h3M42 34h3M48 34h9M15 35h3M21 35h6M36 35h3M42 35h3M48 35h9M15 36h9M27 36h12M42 36h3M51 36h3M15 37h9M27 37h12M42 37h3M51 37h3M15 38h9M27 38h12M42 38h3M51 38h3M15 39h3M21 39h3M30 39h3M36 39h3M45 39h12M15 40h3M21 40h3M30 40h3M36 40h3M45 40h12M15 41h3M21 41h3M30 41h3M36 41h3M45 41h12M15 42h3M21 42h12M36 42h12M57 42h3M15 43h3M21 43h12M36 43h12M57 43h3M15 44h3M21 44h12M36 44h12M57 44h3M18 45h6M27 45h3M33 45h9M48 45h3M60 45h3M18 46h6M27 46h3M33 46h9M48 46h3M60 46h3M18 47h6M27 47h3M33 47h9M48 47h3M60 47h3M21 48h3M27 48h3M39 48h3M51 48h3M63 48h3M21 49h3M27 49h3M39 49h3M51 49h3M63 49h3M21 50h3M27 50h3M39 50h3M51 50h3M63 50h3M18 51h3M27 51h3M39 51h3M54 51h3M63 51h3M18 52h3M27 52h3M39 52h3M54 52h3M63 52h3M18 53h3M27 53h3M39 53h3M54 53h3M63 53h3M15 54h6M30 54h3M39 54h3M54 54h3M63 54h6M15 55h6M30 55h3M39 55h3M54 55h3M63 55h6M15 56h6M30 56h3M39 56h3M54 56h3M63 56h6M12 57h3M21 57h3M30 57h12M45 57h3M51 57h3M57 57h6M69 57h3M12 58h3M21 58h3M30 58h12M45 58h3M51 58h3M57 58h6M69 58h3M12 59h3M21 59h3M30 59h12M45 59h3M51 59h3M57 59h6M69 59h3M12 60h21M39 60h33M12 61h21M39 61h33M12 62h21M39 62h33"/>
                        <path stroke="#483344"
                              d="M12 3h3M12 4h3M12 5h3M15 6h3M15 7h3M15 8h3M15 9h6M15 10h6M15 11h6M15 12h9M15 13h9M15 14h9M18 15h6M18 16h6M18 17h6M21 24h6M36 24h6M21 25h6M36 25h6M21 26h6M36 26h6M30 27h9M30 28h9M30 29h9M24 36h3M24 37h3M24 38h3M21 54h3M27 54h3M42 54h6M51 54h3M60 54h3M21 55h3M27 55h3M42 55h6M51 55h3M60 55h3M21 56h3M27 56h3M42 56h6M51 56h3M60 56h3M18 57h3M24 57h6M63 57h3M18 58h3M24 58h6M63 58h3M18 59h3M24 59h6M63 59h3"/>
                        <path stroke="#e6f2f9"
                              d="M33 9h6M33 10h6M33 11h6M27 12h18M27 13h18M27 14h18M12 15h3M27 15h30M12 16h3M27 16h30M12 17h3M27 17h30M9 18h3M24 18h9M36 18h3M42 18h3M57 18h6M9 19h3M24 19h9M36 19h3M42 19h3M57 19h6M9 20h3M24 20h9M36 20h3M42 20h3M57 20h6M18 21h12M39 21h3M18 22h12M39 22h3M18 23h12M39 23h3M42 24h6M42 25h6M42 26h6M27 27h3M39 27h12M27 28h3M39 28h12M27 29h3M39 29h12M18 30h27M48 30h6M18 31h27M48 31h6M18 32h27M48 32h6M18 33h3M27 33h9M39 33h3M45 33h3M18 34h3M27 34h9M39 34h3M45 34h3M18 35h3M27 35h9M39 35h3M45 35h3M39 36h3M45 36h6M39 37h3M45 37h6M39 38h3M45 38h6M24 39h6M39 39h6M24 40h6M39 40h6M24 41h6M39 41h6M48 42h9M48 43h9M48 44h9M24 45h3M30 45h3M42 45h6M51 45h9M24 46h3M30 46h3M42 46h6M51 46h9M24 47h3M30 47h3M42 47h6M51 47h9M24 48h3M30 48h9M42 48h9M54 48h9M24 49h3M30 49h9M42 49h9M54 49h9M24 50h3M30 50h9M42 50h9M54 50h9M21 51h6M30 51h9M42 51h12M57 51h6M21 52h6M30 52h9M42 52h12M57 52h6M21 53h6M30 53h9M42 53h12M57 53h6M24 54h3M33 54h6M48 54h3M57 54h3M24 55h3M33 55h6M48 55h3M57 55h3M24 56h3M33 56h6M48 56h3M57 56h3"/>
                        <path stroke="#ffffff" d="M30 24h3M30 25h3M30 26h3"/>
                        <path stroke="#0086ff" d="M33 24h3M33 25h3M33 26h3"/>
                        <path stroke="#efe4b0"
                              d="M18 39h3M33 39h3M18 40h3M33 40h3M18 41h3M33 41h3M18 42h3M33 42h3M18 43h3M33 43h3M18 44h3M33 44h3"/>
                        <path stroke="#ff0000"
                              d="M15 57h3M42 57h3M48 57h3M54 57h3M66 57h3M15 58h3M42 58h3M48 58h3M54 58h3M66 58h3M15 59h3M42 59h3M48 59h3M54 59h3M66 59h3"/>
                    </g>
                </g>
            </svg>
            <svg viewBox="0 0 100 30" width="100" height="30" x="0" y="0">
                <g id="username-[[${id}]]">
                    <rect x="0" y="0" width="100" height="20" fill="black" fill-opacity="0.8" rx="5"/>
                    <svg x="4" y="2.5" width="15" height="15" viewBox="0 0 100 100">
                        <path fill-rule="evenodd" clip-rule="evenodd"
                              d="M48.854 0C21.839 0 0 22 0 49.217c0 21.756 13.993 40.172 33.405 46.69 2.427.49 3.316-1.059 3.316-2.362 0-1.141-.08-5.052-.08-9.127-13.59 2.934-16.42-5.867-16.42-5.867-2.184-5.704-5.42-7.17-5.42-7.17-4.448-3.015.324-3.015.324-3.015 4.934.326 7.523 5.052 7.523 5.052 4.367 7.496 11.404 5.378 14.235 4.074.404-3.178 1.699-5.378 3.074-6.6-10.839-1.141-22.243-5.378-22.243-24.283 0-5.378 1.94-9.778 5.014-13.2-.485-1.222-2.184-6.275.486-13.038 0 0 4.125-1.304 13.426 5.052a46.97 46.97 0 0 1 12.214-1.63c4.125 0 8.33.571 12.213 1.63 9.302-6.356 13.427-5.052 13.427-5.052 2.67 6.763.97 11.816.485 13.038 3.155 3.422 5.015 7.822 5.015 13.2 0 18.905-11.404 23.06-22.324 24.283 1.78 1.548 3.316 4.481 3.316 9.126 0 6.6-.08 11.897-.08 13.526 0 1.304.89 2.853 3.316 2.364 19.412-6.52 33.405-24.935 33.405-46.691C97.707 22 75.788 0 48.854 0z"
                              fill="#fff"/>
                    </svg>
                    <text x="25" y="11" dominant-baseline="middle" style="fill:white" font-size="13">
                        [[${#strings.abbreviate(username, 12)}]]
                    </text>
                    <rect x="0" y="23" width="[[${exp}]]" height="2" fill="#48ff00" rx="1"/>
                </g>
            </svg>
        </g>
    </a>
    <style>
        #frame1-[[${id}]] {
        animation: 1s frameToggle infinite;
        }
        #frame2-[[${id}]] {
        animation: 1s frameToggle infinite reverse;
        }
        #frame3-[[${id}]] {
        animation: 1s frameToggle infinite;
        }
        #frame4-[[${id}]] {
        animation: 1s frameToggle infinite reverse;
        }
        #standing-[[${id}]] {
        animation: standingToggle [[${motion.duration}]]s infinite;
        }
        #walking-[[${id}]] {
        animation: walkingToggle [[${motion.duration}]]s infinite;
        }
        #body-[[${id}]] {
        animation: move-body-[[${id}]] [[${motion.duration}]]s infinite;
        }
        #username-[[${id}]] {
        animation: move-username-[[${id}]] [[${motion.duration}]]s infinite;
        }
        @keyframes move-body-[[${id}]] {
        0%, 10% {
        transform: translate([[${motion.positions[0].x}]]%, [[${y}]]%) scaleX([[${motion.positions[0].direction}]]);
        }
        20%, 30% {
        transform: translate([[${motion.positions[1].x}]]%, [[${y}]]%) scaleX([[${motion.positions[1].direction}]]);
        }
        40%, 50% {
        transform: translate([[${motion.positions[2].x}]]%, [[${y}]]%) scaleX([[${motion.positions[2].direction}]]);
        }
        50.01% {
        transform: translate([[${motion.positions[3].x}]]%, [[${y}]]%) scaleX([[${motion.positions[3].direction}]]);
        }
        60%, 70% {
        transform: translate([[${motion.positions[4].x}]]%, [[${y}]]%) scaleX([[${motion.positions[4].direction}]]);
        }
        80%, 100% {
        transform: translate([[${motion.positions[5].x}]]%, [[${y}]]%) scaleX([[${motion.positions[5].direction}]]);
        }
        }
        @keyframes move-username-[[${id}]] {
        0%, 10% {
        transform: scaleX([[${motion.positions[0].direction}]])
        translateX([[${motion.positions[0].direction > 0 ? 0: -100}]]%);
        }
        20%, 30% {
        transform: scaleX([[${motion.positions[1].direction}]])
        translateX([[${motion.positions[1].direction > 0 ? 0: -100}]]%);
        }
        40%, 50% {
        transform: scaleX([[${motion.positions[2].direction}]])
        translateX([[${motion.positions[2].direction > 0 ? 0: -100}]]%);
        }
        50.01% {
        transform: scaleX([[${motion.positions[3].direction}]])
        translateX([[${motion.positions[3].direction > 0 ? 0: -100}]]%);
        }
        60%, 70% {
        transform: scaleX([[${motion.positions[4].direction}]])
        translateX([[${motion.positions[4].direction > 0 ? 0: -100}]]%);
        }
        80%, 100% {
        transform: scaleX([[${motion.positions[5].direction}]])
        translateX([[${motion.positions[5].direction > 0 ? 0: -100}]]%);
        }
        }
    </style>
</svg>
