<svg fill="none" overflow="visible" xmlns="http://www.w3.org/2000/svg">
    <a href="https://github.com/[[${username}]]">
        <g id="body-[[${id}]]">
            <svg viewBox="0 0 100 100" width="100" height="100" x="15" y="30">
                <g id="standing-[[${id}]]">
                    <g id="frame1-[[${id}]]">
                        <path stroke="#000000"
                              d="M9 3h6M21 3h6M57 3h6M9 4h6M21 4h6M57 4h6M9 5h6M21 5h6M57 5h6M6 6h3M12 6h3M21 6h3M27 6h3M51 6h6M60 6h3M6 7h3M12 7h3M21 7h3M27 7h3M51 7h6M60 7h3M6 8h3M12 8h3M21 8h3M27 8h3M51 8h6M60 8h3M6 9h3M12 9h3M24 9h15M48 9h3M60 9h3M6 10h3M12 10h3M24 10h15M48 10h3M60 10h3M6 11h3M12 11h3M24 11h15M48 11h3M60 11h3M6 12h3M15 12h3M21 12h6M39 12h9M60 12h3M6 13h3M15 13h3M21 13h6M39 13h9M60 13h3M6 14h3M15 14h3M21 14h6M39 14h9M60 14h3M6 15h3M15 15h6M45 15h3M57 15h3M6 16h3M15 16h6M45 16h3M57 16h3M6 17h3M15 17h6M45 17h3M57 17h3M6 18h3M18 18h3M45 18h3M57 18h3M6 19h3M18 19h3M45 19h3M57 19h3M6 20h3M18 20h3M45 20h3M57 20h3M9 21h3M21 21h3M45 21h3M54 21h15M9 22h3M21 22h3M45 22h3M54 22h15M9 23h3M21 23h3M45 23h3M54 23h15M9 24h3M21 24h3M45 24h3M51 24h3M66 24h3M9 25h3M21 25h3M45 25h3M51 25h3M66 25h3M9 26h3M21 26h3M45 26h3M51 26h3M66 26h3M12 27h3M30 27h6M42 27h9M63 27h3M12 28h3M30 28h6M42 28h9M63 28h3M12 29h3M30 29h6M42 29h9M63 29h3M6 30h12M27 30h6M36 30h9M51 30h18M6 31h12M27 31h6M36 31h9M51 31h18M6 32h12M27 32h6M36 32h9M51 32h18M6 33h3M15 33h3M24 33h3M30 33h3M39 33h6M54 33h3M60 33h3M66 33h3M6 34h3M15 34h3M24 34h3M30 34h3M39 34h6M54 34h3M60 34h3M66 34h3M6 35h3M15 35h3M24 35h3M30 35h3M39 35h6M54 35h3M60 35h3M66 35h3M9 36h15M33 36h6M42 36h15M63 36h3M9 37h15M33 37h6M42 37h15M63 37h3M9 38h15M33 38h6M42 38h15M63 38h3M9 39h3M15 39h9M33 39h3M45 39h12M60 39h3M9 40h3M15 40h9M33 40h3M45 40h12M60 40h3M9 41h3M15 41h9M33 41h3M45 41h12M60 41h3M9 42h24M45 42h18M9 43h24M45 43h18M9 44h24M45 44h18M15 45h12M33 45h3M42 45h3M48 45h3M54 45h9M15 46h12M33 46h3M42 46h3M48 46h3M54 46h9M15 47h12M33 47h3M42 47h3M48 47h3M54 47h9M15 48h3M21 48h6M30 48h15M51 48h6M60 48h3M15 49h3M21 49h6M30 49h15M51 49h6M60 49h3M15 50h3M21 50h6M30 50h15M51 50h6M60 50h3M18 51h9M33 51h3M42 51h3M54 51h3M18 52h9M33 52h3M42 52h3M54 52h3M18 53h9M33 53h3M42 53h3M54 53h3M15 54h3M27 54h3M33 54h3M39 54h3M45 54h3M51 54h3M57 54h3M15 55h3M27 55h3M33 55h3M39 55h3M45 55h3M51 55h3M57 55h3M15 56h3M27 56h3M33 56h3M39 56h3M45 56h3M51 56h3M57 56h3M15 57h21M39 57h21M15 58h21M39 58h21M15 59h21M39 59h21"/>
                        <path stroke="#3f3f3f"
                              d="M9 6h3M9 7h3M9 8h3M9 9h3M9 10h3M9 11h3M9 12h6M27 12h6M36 12h3M9 13h6M27 13h6M36 13h3M9 14h6M27 14h6M36 14h3M9 15h6M21 15h12M39 15h6M9 16h6M21 16h12M39 16h6M9 17h6M21 17h12M39 17h6M9 18h9M21 18h9M33 18h6M9 19h9M21 19h9M33 19h6M9 20h9M21 20h9M33 20h6M12 21h9M24 21h3M36 21h9M12 22h9M24 22h3M36 22h9M12 23h9M24 23h3M36 23h9M12 24h9M24 24h12M42 24h3M12 25h9M24 25h12M42 25h3M12 26h9M24 26h12M42 26h3M15 27h15M36 27h6M15 28h15M36 28h6M15 29h15M36 29h6M18 30h9M18 31h9M18 32h9M18 33h6M48 33h6M18 34h6M48 34h6M18 35h6M48 35h6M36 39h9M36 40h9M36 41h9M36 42h3M36 43h3M36 44h3M30 45h3M45 45h3M30 46h3M45 46h3M30 47h3M45 47h3M30 51h3M30 52h3M30 53h3"/>
                        <path stroke="#005ab5"
                              d="M24 6h3M57 6h3M24 7h3M57 7h3M24 8h3M57 8h3M51 9h6M51 10h6M51 11h6M48 12h3M48 13h3M48 14h3M54 24h12M54 25h12M54 26h12M51 27h3M51 28h3M51 29h3M45 30h6M45 31h6M45 32h6M9 33h6M45 33h3M57 33h3M63 33h3M9 34h6M45 34h3M57 34h3M63 34h3M9 35h6M45 35h3M57 35h3M63 35h3M30 36h3M39 36h3M57 36h6M30 37h3M39 37h3M57 37h6M30 38h3M39 38h3M57 38h6M12 39h3M27 39h3M57 39h3M12 40h3M27 40h3M57 40h3M12 41h3M27 41h3M57 41h3M33 42h3M39 42h6M33 43h3M39 43h6M33 44h3M39 44h6M27 45h3M36 45h6M27 46h3M36 46h6M27 47h3M36 47h6M27 48h3M45 48h6M27 49h3M45 49h6M27 50h3M45 50h6M27 51h3M45 51h9M27 52h3M45 52h9M27 53h3M45 53h9M18 54h9M30 54h3M42 54h3M48 54h3M54 54h3M18 55h9M30 55h3M42 55h3M48 55h3M54 55h3M18 56h9M30 56h3M42 56h3M48 56h3M54 56h3"/>
                        <path stroke="#ffffaa"
                              d="M57 9h3M57 10h3M57 11h3M51 12h9M51 13h9M51 14h9M48 15h9M48 16h9M48 17h9M48 18h9M48 19h9M48 20h9M48 21h6M48 22h6M48 23h6M48 24h3M48 25h3M48 26h3M54 27h9M54 28h9M54 29h9"/>
                        <path stroke="#171717"
                              d="M33 12h3M33 13h3M33 14h3M33 15h6M33 16h6M33 17h6M30 18h3M39 18h6M30 19h3M39 19h6M30 20h3M39 20h6M27 21h9M27 22h9M27 23h9M36 24h6M36 25h6M36 26h6"/>
                        <path stroke="#ff3131" d="M33 30h3M33 31h3M33 32h3M36 33h3M36 34h3M36 35h3"/>
                        <path stroke="#c00000" d="M27 33h3M27 34h3M27 35h3M24 36h6M24 37h6M24 38h6"/>
                        <path stroke="#ffffff"
                              d="M33 33h3M33 34h3M33 35h3M24 39h3M30 39h3M24 40h3M30 40h3M24 41h3M30 41h3"/>
                    </g>
                    <g id="frame2-[[${id}]]">
                        <path stroke="#000000"
                              d="M9 0h6M18 0h6M60 0h6M9 1h6M18 1h6M60 1h6M9 2h6M18 2h6M60 2h6M6 3h3M12 3h3M18 3h3M24 3h3M54 3h6M63 3h3M6 4h3M12 4h3M18 4h3M24 4h3M54 4h6M63 4h3M6 5h3M12 5h3M18 5h3M24 5h3M54 5h6M63 5h3M6 6h3M12 6h3M21 6h3M27 6h12M51 6h3M63 6h3M6 7h3M12 7h3M21 7h3M27 7h12M51 7h3M63 7h3M6 8h3M12 8h3M21 8h3M27 8h12M51 8h3M63 8h3M6 9h3M15 9h3M21 9h6M39 9h12M63 9h3M6 10h3M15 10h3M21 10h6M39 10h12M63 10h3M6 11h3M15 11h3M21 11h6M39 11h12M63 11h3M6 12h3M15 12h6M45 12h3M60 12h3M6 13h3M15 13h6M45 13h3M60 13h3M6 14h3M15 14h6M45 14h3M60 14h3M6 15h3M18 15h3M45 15h3M60 15h3M6 16h3M18 16h3M45 16h3M60 16h3M6 17h3M18 17h3M45 17h3M60 17h3M9 18h3M21 18h3M45 18h3M57 18h15M9 19h3M21 19h3M45 19h3M57 19h15M9 20h3M21 20h3M45 20h3M57 20h15M9 21h3M21 21h3M45 21h3M54 21h3M69 21h3M9 22h3M21 22h3M45 22h3M54 22h3M69 22h3M9 23h3M21 23h3M45 23h3M54 23h3M69 23h3M12 24h3M30 24h6M42 24h12M66 24h3M12 25h3M30 25h6M42 25h12M66 25h3M12 26h3M30 26h6M42 26h12M66 26h3M6 27h12M27 27h6M36 27h9M51 27h18M6 28h12M27 28h6M36 28h9M51 28h18M6 29h12M27 29h6M36 29h9M51 29h18M6 30h3M15 30h3M24 30h3M30 30h3M39 30h6M54 30h3M60 30h3M66 30h3M6 31h3M15 31h3M24 31h3M30 31h3M39 31h6M54 31h3M60 31h3M66 31h3M6 32h3M15 32h3M24 32h3M30 32h3M39 32h6M54 32h3M60 32h3M66 32h3M9 33h15M33 33h6M42 33h15M63 33h3M9 34h15M33 34h6M42 34h15M63 34h3M9 35h15M33 35h6M42 35h15M63 35h3M9 36h3M15 36h3M21 36h3M33 36h3M45 36h3M51 36h6M60 36h3M9 37h3M15 37h3M21 37h3M33 37h3M45 37h3M51 37h6M60 37h3M9 38h3M15 38h3M21 38h3M33 38h3M45 38h3M51 38h6M60 38h3M9 39h6M18 39h15M45 39h15M9 40h6M18 40h15M45 40h15M9 41h6M18 41h15M45 41h15M15 42h15M33 42h3M42 42h3M48 42h15M15 43h15M33 43h3M42 43h3M48 43h15M15 44h15M33 44h3M42 44h3M48 44h15M12 45h9M24 45h3M33 45h9M48 45h3M57 45h9M12 46h9M24 46h3M33 46h9M48 46h3M57 46h9M12 47h9M24 47h3M33 47h9M48 47h3M57 47h9M12 48h3M18 48h3M24 48h3M30 48h3M42 48h3M51 48h3M57 48h3M63 48h3M12 49h3M18 49h3M24 49h3M30 49h3M42 49h3M51 49h3M57 49h3M63 49h3M12 50h3M18 50h3M24 50h3M30 50h3M42 50h3M51 50h3M57 50h3M63 50h3M18 51h9M33 51h3M42 51h3M54 51h3M18 52h9M33 52h3M42 52h3M54 52h3M18 53h9M33 53h3M42 53h3M54 53h3M15 54h3M27 54h3M33 54h3M39 54h3M45 54h3M51 54h3M57 54h3M15 55h3M27 55h3M33 55h3M39 55h3M45 55h3M51 55h3M57 55h3M15 56h3M27 56h3M33 56h3M39 56h3M45 56h3M51 56h3M57 56h3M15 57h21M39 57h21M15 58h21M39 58h21M15 59h21M39 59h21"/>
                        <path stroke="#3f3f3f"
                              d="M9 3h3M9 4h3M9 5h3M9 6h3M9 7h3M9 8h3M9 9h6M27 9h6M36 9h3M9 10h6M27 10h6M36 10h3M9 11h6M27 11h6M36 11h3M9 12h6M21 12h12M39 12h6M9 13h6M21 13h12M39 13h6M9 14h6M21 14h12M39 14h6M9 15h9M21 15h9M33 15h6M9 16h9M21 16h9M33 16h6M9 17h9M21 17h9M33 17h6M12 18h9M24 18h3M36 18h9M12 19h9M24 19h3M36 19h9M12 20h9M24 20h3M36 20h9M12 21h9M24 21h12M42 21h3M12 22h9M24 22h12M42 22h3M12 23h9M24 23h12M42 23h3M15 24h15M36 24h6M15 25h15M36 25h6M15 26h15M36 26h6M18 27h9M18 28h9M18 29h9M18 30h6M48 30h6M18 31h6M48 31h6M18 32h6M48 32h6M36 36h9M36 37h9M36 38h9M36 39h3M36 40h3M36 41h3M30 45h3M45 45h3M30 46h3M45 46h3M30 47h3M45 47h3M30 51h3M30 52h3M30 53h3"/>
                        <path stroke="#005ab5"
                              d="M21 3h3M60 3h3M21 4h3M60 4h3M21 5h3M60 5h3M24 6h3M54 6h6M24 7h3M54 7h6M24 8h3M54 8h6M51 9h3M51 10h3M51 11h3M48 12h3M48 13h3M48 14h3M57 21h12M57 22h12M57 23h12M54 24h3M54 25h3M54 26h3M45 27h6M45 28h6M45 29h6M9 30h6M45 30h3M57 30h3M63 30h3M9 31h6M45 31h3M57 31h3M63 31h3M9 32h6M45 32h3M57 32h3M63 32h3M30 33h3M39 33h3M57 33h6M30 34h3M39 34h3M57 34h6M30 35h3M39 35h3M57 35h6M12 36h3M27 36h3M57 36h3M12 37h3M27 37h3M57 37h3M12 38h3M27 38h3M57 38h3M33 39h3M39 39h6M33 40h3M39 40h6M33 41h3M39 41h6M30 42h3M36 42h6M45 42h3M30 43h3M36 43h6M45 43h3M30 44h3M36 44h6M45 44h3M27 45h3M42 45h3M27 46h3M42 46h3M27 47h3M42 47h3M27 48h3M45 48h6M27 49h3M45 49h6M27 50h3M45 50h6M27 51h3M45 51h9M27 52h3M45 52h9M27 53h3M45 53h9M18 54h9M30 54h3M42 54h3M48 54h3M54 54h3M18 55h9M30 55h3M42 55h3M48 55h3M54 55h3M18 56h9M30 56h3M42 56h3M48 56h3M54 56h3"/>
                        <path stroke="#ffffaa"
                              d="M60 6h3M60 7h3M60 8h3M54 9h9M54 10h9M54 11h9M51 12h9M51 13h9M51 14h9M48 15h12M48 16h12M48 17h12M48 18h9M48 19h9M48 20h9M48 21h6M48 22h6M48 23h6M57 24h9M57 25h9M57 26h9"/>
                        <path stroke="#171717"
                              d="M33 9h3M33 10h3M33 11h3M33 12h6M33 13h6M33 14h6M30 15h3M39 15h6M30 16h3M39 16h6M30 17h3M39 17h6M27 18h9M27 19h9M27 20h9M36 21h6M36 22h6M36 23h6"/>
                        <path stroke="#ff3131" d="M33 27h3M33 28h3M33 29h3M36 30h3M36 31h3M36 32h3"/>
                        <path stroke="#c00000" d="M27 30h3M27 31h3M27 32h3M24 33h6M24 34h6M24 35h6"/>
                        <path stroke="#ffffff"
                              d="M33 30h3M33 31h3M33 32h3M24 36h3M30 36h3M24 37h3M30 37h3M24 38h3M30 38h3"/>
                        <path stroke="rgba(255,255,255,0.00392156862745098)" d="M54 48h3M54 49h3M54 50h3"/>
                    </g>
                </g>
                <g id="walking-[[${id}]]">
                    <g id="frame3-[[${id}]]">
                        <path stroke="#000000"
                              d="M9 0h6M21 0h6M57 0h6M9 1h6M21 1h6M57 1h6M9 2h6M21 2h6M57 2h6M6 3h3M12 3h3M21 3h3M27 3h3M51 3h6M60 3h3M6 4h3M12 4h3M21 4h3M27 4h3M51 4h6M60 4h3M6 5h3M12 5h3M21 5h3M27 5h3M51 5h6M60 5h3M6 6h3M12 6h3M24 6h15M48 6h3M60 6h3M6 7h3M12 7h3M24 7h15M48 7h3M60 7h3M6 8h3M12 8h3M24 8h15M48 8h3M60 8h3M6 9h3M15 9h3M21 9h6M39 9h9M60 9h3M6 10h3M15 10h3M21 10h6M39 10h9M60 10h3M6 11h3M15 11h3M21 11h6M39 11h9M60 11h3M6 12h3M15 12h6M45 12h3M57 12h3M6 13h3M15 13h6M45 13h3M57 13h3M6 14h3M15 14h6M45 14h3M57 14h3M6 15h3M18 15h3M45 15h3M57 15h3M6 16h3M18 16h3M45 16h3M57 16h3M6 17h3M18 17h3M45 17h3M57 17h3M9 18h3M21 18h3M45 18h3M54 18h15M9 19h3M21 19h3M45 19h3M54 19h15M9 20h3M21 20h3M45 20h3M54 20h15M9 21h3M21 21h3M45 21h3M51 21h3M66 21h3M9 22h3M21 22h3M45 22h3M51 22h3M66 22h3M9 23h3M21 23h3M45 23h3M51 23h3M66 23h3M12 24h3M30 24h6M42 24h12M63 24h3M12 25h3M30 25h6M42 25h12M63 25h3M12 26h3M30 26h6M42 26h12M63 26h3M6 27h12M27 27h6M36 27h9M51 27h18M6 28h12M27 28h6M36 28h9M51 28h18M6 29h12M27 29h6M36 29h9M51 29h18M6 30h3M15 30h3M24 30h3M30 30h3M39 30h6M54 30h3M60 30h3M66 30h3M6 31h3M15 31h3M24 31h3M30 31h3M39 31h6M54 31h3M60 31h3M66 31h3M6 32h3M15 32h3M24 32h3M30 32h3M39 32h6M54 32h3M60 32h3M66 32h3M9 33h15M33 33h6M42 33h15M63 33h3M9 34h15M33 34h6M42 34h15M63 34h3M9 35h15M33 35h6M42 35h15M63 35h3M9 36h3M15 36h3M21 36h3M33 36h3M45 36h3M51 36h6M60 36h3M9 37h3M15 37h3M21 37h3M33 37h3M45 37h3M51 37h6M60 37h3M9 38h3M15 38h3M21 38h3M33 38h3M45 38h3M51 38h6M60 38h3M9 39h6M21 39h12M45 39h15M9 40h6M21 40h12M45 40h15M9 41h6M21 41h12M45 41h15M18 42h12M33 42h3M42 42h3M48 42h12M18 43h12M33 43h3M42 43h3M48 43h12M18 44h12M33 44h3M42 44h3M48 44h12M15 45h12M33 45h9M48 45h3M54 45h9M15 46h12M33 46h9M48 46h3M54 46h9M15 47h12M33 47h9M48 47h3M54 47h9M15 48h3M21 48h6M30 48h6M39 48h3M51 48h6M60 48h3M15 49h3M21 49h6M30 49h6M39 49h3M51 49h6M60 49h3M15 50h3M21 50h6M30 50h6M39 50h3M51 50h6M60 50h3M21 51h9M36 51h3M42 51h3M48 51h3M54 51h3M21 52h9M36 52h3M42 52h3M48 52h3M54 52h3M21 53h9M36 53h3M42 53h3M48 53h3M54 53h3M18 54h3M30 54h3M36 54h21M18 55h3M30 55h3M36 55h21M18 56h3M30 56h3M36 56h21M18 57h21M18 58h21M18 59h21"/>
                        <path stroke="rgba(255,255,255,0.00392156862745098)"
                              d="M51 0h6M51 1h6M51 2h6M48 3h3M48 4h3M48 5h3"/>
                        <path stroke="#3f3f3f"
                              d="M9 3h3M9 4h3M9 5h3M9 6h3M9 7h3M9 8h3M9 9h6M27 9h6M36 9h3M9 10h6M27 10h6M36 10h3M9 11h6M27 11h6M36 11h3M9 12h6M21 12h12M39 12h6M9 13h6M21 13h12M39 13h6M9 14h6M21 14h12M39 14h6M9 15h9M21 15h9M33 15h6M9 16h9M21 16h9M33 16h6M9 17h9M21 17h9M33 17h6M12 18h9M24 18h3M36 18h9M12 19h9M24 19h3M36 19h9M12 20h9M24 20h3M36 20h9M12 21h9M24 21h12M42 21h3M12 22h9M24 22h12M42 22h3M12 23h9M24 23h12M42 23h3M15 24h15M36 24h6M15 25h15M36 25h6M15 26h15M36 26h6M18 27h9M18 28h9M18 29h9M18 30h6M48 30h6M18 31h6M48 31h6M18 32h6M48 32h6M36 36h9M36 37h9M36 38h9M36 39h3M36 40h3M36 41h3M30 45h3M45 45h3M30 46h3M45 46h3M30 47h3M45 47h3M33 51h3M33 52h3M33 53h3"/>
                        <path stroke="#005ab5"
                              d="M24 3h3M57 3h3M24 4h3M57 4h3M24 5h3M57 5h3M51 6h6M51 7h6M51 8h6M48 9h3M48 10h3M48 11h3M54 21h12M54 22h12M54 23h12M45 27h6M45 28h6M45 29h6M9 30h6M45 30h3M57 30h3M63 30h3M9 31h6M45 31h3M57 31h3M63 31h3M9 32h6M45 32h3M57 32h3M63 32h3M30 33h3M39 33h3M57 33h6M30 34h3M39 34h3M57 34h6M30 35h3M39 35h3M57 35h6M12 36h3M27 36h3M57 36h3M12 37h3M27 37h3M57 37h3M12 38h3M27 38h3M57 38h3M33 39h3M39 39h6M33 40h3M39 40h6M33 41h3M39 41h6M30 42h3M36 42h6M45 42h3M30 43h3M36 43h6M45 43h3M30 44h3M36 44h6M45 44h3M27 45h3M42 45h3M27 46h3M42 46h3M27 47h3M42 47h3M27 48h3M42 48h9M27 49h3M42 49h9M27 50h3M42 50h9M30 51h3M39 51h3M45 51h3M51 51h3M30 52h3M39 52h3M45 52h3M51 52h3M30 53h3M39 53h3M45 53h3M51 53h3M21 54h9M33 54h3M21 55h9M33 55h3M21 56h9M33 56h3"/>
                        <path stroke="#ffffaa"
                              d="M57 6h3M57 7h3M57 8h3M51 9h9M51 10h9M51 11h9M48 12h9M48 13h9M48 14h9M48 15h9M48 16h9M48 17h9M48 18h6M48 19h6M48 20h6M48 21h3M48 22h3M48 23h3M54 24h9M54 25h9M54 26h9"/>
                        <path stroke="#171717"
                              d="M33 9h3M33 10h3M33 11h3M33 12h6M33 13h6M33 14h6M30 15h3M39 15h6M30 16h3M39 16h6M30 17h3M39 17h6M27 18h9M27 19h9M27 20h9M36 21h6M36 22h6M36 23h6"/>
                        <path stroke="#ff3131" d="M33 27h3M33 28h3M33 29h3M36 30h3M36 31h3M36 32h3"/>
                        <path stroke="#c00000" d="M27 30h3M27 31h3M27 32h3M24 33h6M24 34h6M24 35h6"/>
                        <path stroke="#ffffff"
                              d="M33 30h3M33 31h3M33 32h3M24 36h3M30 36h3M24 37h3M30 37h3M24 38h3M30 38h3"/>
                    </g>
                    <g id="frame4-[[${id}]]">
                        <path stroke="#000000"
                              d="M9 0h6M18 0h6M60 0h6M9 1h6M18 1h6M60 1h6M9 2h6M18 2h6M60 2h6M6 3h3M12 3h3M18 3h3M24 3h3M54 3h6M63 3h3M6 4h3M12 4h3M18 4h3M24 4h3M54 4h6M63 4h3M6 5h3M12 5h3M18 5h3M24 5h3M54 5h6M63 5h3M6 6h3M12 6h3M21 6h3M27 6h12M51 6h3M63 6h3M6 7h3M12 7h3M21 7h3M27 7h12M51 7h3M63 7h3M6 8h3M12 8h3M21 8h3M27 8h12M51 8h3M63 8h3M6 9h3M15 9h3M21 9h6M39 9h12M63 9h3M6 10h3M15 10h3M21 10h6M39 10h12M63 10h3M6 11h3M15 11h3M21 11h6M39 11h12M63 11h3M6 12h3M15 12h6M45 12h3M60 12h3M6 13h3M15 13h6M45 13h3M60 13h3M6 14h3M15 14h6M45 14h3M60 14h3M6 15h3M18 15h3M45 15h3M60 15h3M6 16h3M18 16h3M45 16h3M60 16h3M6 17h3M18 17h3M45 17h3M60 17h3M9 18h3M21 18h3M45 18h3M57 18h15M9 19h3M21 19h3M45 19h3M57 19h15M9 20h3M21 20h3M45 20h3M57 20h15M9 21h3M21 21h3M45 21h3M54 21h3M69 21h3M9 22h3M21 22h3M45 22h3M54 22h3M69 22h3M9 23h3M21 23h3M45 23h3M54 23h3M69 23h3M12 24h3M30 24h6M42 24h12M66 24h3M12 25h3M30 25h6M42 25h12M66 25h3M12 26h3M30 26h6M42 26h12M66 26h3M9 27h9M27 27h6M36 27h9M51 27h6M60 27h6M9 28h9M27 28h6M36 28h9M51 28h6M60 28h6M9 29h9M27 29h6M36 29h9M51 29h6M60 29h6M9 30h3M15 30h3M24 30h3M30 30h3M39 30h6M51 30h3M57 30h3M63 30h3M9 31h3M15 31h3M24 31h3M30 31h3M39 31h6M51 31h3M57 31h3M63 31h3M9 32h3M15 32h3M24 32h3M30 32h3M39 32h6M51 32h3M57 32h3M63 32h3M12 33h12M33 33h6M42 33h12M60 33h3M12 34h12M33 34h6M42 34h12M60 34h3M12 35h12M33 35h6M42 35h12M60 35h3M12 36h3M18 36h6M33 36h3M45 36h3M51 36h3M57 36h3M12 37h3M18 37h6M33 37h3M45 37h3M51 37h3M57 37h3M12 38h3M18 38h6M33 38h3M45 38h3M51 38h3M57 38h3M12 39h21M45 39h12M12 40h21M45 40h12M12 41h21M45 41h12M15 42h12M33 42h3M42 42h3M48 42h15M15 43h12M33 43h3M42 43h3M48 43h15M15 44h12M33 44h3M42 44h3M48 44h15M12 45h9M24 45h3M30 45h12M48 45h3M57 45h9M12 46h9M24 46h3M30 46h12M48 46h3M57 46h9M12 47h9M24 47h3M30 47h12M48 47h3M57 47h9M12 48h3M18 48h9M33 48h3M42 48h3M51 48h3M57 48h3M63 48h3M12 49h3M18 49h9M33 49h3M42 49h3M51 49h3M57 49h3M63 49h3M12 50h3M18 50h9M33 50h3M42 50h3M51 50h3M57 50h3M63 50h3M15 51h3M27 51h3M33 51h3M42 51h3M54 51h3M15 52h3M27 52h3M33 52h3M42 52h3M54 52h3M15 53h3M27 53h3M33 53h3M42 53h3M54 53h3M15 54h21M39 54h3M45 54h3M51 54h3M57 54h3M15 55h21M39 55h3M45 55h3M51 55h3M57 55h3M15 56h21M39 56h3M45 56h3M51 56h3M57 56h3M39 57h21M39 58h21M39 59h21"/>
                        <path stroke="#3f3f3f"
                              d="M9 3h3M9 4h3M9 5h3M9 6h3M9 7h3M9 8h3M9 9h6M27 9h6M36 9h3M9 10h6M27 10h6M36 10h3M9 11h6M27 11h6M36 11h3M9 12h6M21 12h12M39 12h6M9 13h6M21 13h12M39 13h6M9 14h6M21 14h12M39 14h6M9 15h9M21 15h9M33 15h6M9 16h9M21 16h9M33 16h6M9 17h9M21 17h9M33 17h6M12 18h9M24 18h3M36 18h9M12 19h9M24 19h3M36 19h9M12 20h9M24 20h3M36 20h9M12 21h9M24 21h12M42 21h3M12 22h9M24 22h12M42 22h3M12 23h9M24 23h12M42 23h3M15 24h15M36 24h6M15 25h15M36 25h6M15 26h15M36 26h6M18 27h9M18 28h9M18 29h9M18 30h6M48 30h3M18 31h6M48 31h3M18 32h6M48 32h3M36 36h9M36 37h9M36 38h9M36 39h3M36 40h3M36 41h3M45 45h3M45 46h3M45 47h3M30 48h3M30 49h3M30 50h3"/>
                        <path stroke="#005ab5"
                              d="M21 3h3M60 3h3M21 4h3M60 4h3M21 5h3M60 5h3M24 6h3M54 6h6M24 7h3M54 7h6M24 8h3M54 8h6M51 9h3M51 10h3M51 11h3M48 12h3M48 13h3M48 14h3M57 21h12M57 22h12M57 23h12M54 24h3M54 25h3M54 26h3M45 27h6M45 28h6M45 29h6M12 30h3M45 30h3M54 30h3M60 30h3M12 31h3M45 31h3M54 31h3M60 31h3M12 32h3M45 32h3M54 32h3M60 32h3M30 33h3M39 33h3M54 33h6M30 34h3M39 34h3M54 34h6M30 35h3M39 35h3M54 35h6M15 36h3M27 36h3M54 36h3M15 37h3M27 37h3M54 37h3M15 38h3M27 38h3M54 38h3M33 39h3M39 39h6M33 40h3M39 40h6M33 41h3M39 41h6M27 42h6M36 42h6M45 42h3M27 43h6M36 43h6M45 43h3M27 44h6M36 44h6M45 44h3M27 45h3M42 45h3M27 46h3M42 46h3M27 47h3M42 47h3M27 48h3M45 48h6M27 49h3M45 49h6M27 50h3M45 50h6M18 51h9M30 51h3M45 51h9M18 52h9M30 52h3M45 52h9M18 53h9M30 53h3M45 53h9M42 54h3M48 54h3M54 54h3M42 55h3M48 55h3M54 55h3M42 56h3M48 56h3M54 56h3"/>
                        <path stroke="#ffffaa"
                              d="M60 6h3M60 7h3M60 8h3M54 9h9M54 10h9M54 11h9M51 12h9M51 13h9M51 14h9M48 15h12M48 16h12M48 17h12M48 18h9M48 19h9M48 20h9M48 21h6M48 22h6M48 23h6M57 24h9M57 25h9M57 26h9M57 27h3M57 28h3M57 29h3"/>
                        <path stroke="#171717"
                              d="M33 9h3M33 10h3M33 11h3M33 12h6M33 13h6M33 14h6M30 15h3M39 15h6M30 16h3M39 16h6M30 17h3M39 17h6M27 18h9M27 19h9M27 20h9M36 21h6M36 22h6M36 23h6"/>
                        <path stroke="#ff3131" d="M33 27h3M33 28h3M33 29h3M36 30h3M36 31h3M36 32h3"/>
                        <path stroke="#c00000" d="M27 30h3M27 31h3M27 32h3M24 33h6M24 34h6M24 35h6"/>
                        <path stroke="#ffffff"
                              d="M33 30h3M33 31h3M33 32h3M24 36h3M30 36h3M24 37h3M30 37h3M24 38h3M30 38h3"/>
                        <path stroke="rgba(255,255,255,0.00392156862745098)"
                              d="M15 48h3M54 48h3M15 49h3M54 49h3M15 50h3M54 50h3"/>
                    </g>
                </g>
            </svg>
            <svg viewBox="0 0 100 30" width="100" height="30" x="0" y="0">
                <g id="username-[[${id}]]">
                    <rect x="0" y="0" width="100" height="20" fill="black" fill-opacity="0.8" rx="5"/>
                    <svg x="4" y="2.5" width="15" height="15" viewBox="0 0 100 100">
                        <path fill-rule="evenodd" clip-rule="evenodd"
                              d="M48.854 0C21.839 0 0 22 0 49.217c0 21.756 13.993 40.172 33.405 46.69 2.427.49 3.316-1.059 3.316-2.362 0-1.141-.08-5.052-.08-9.127-13.59 2.934-16.42-5.867-16.42-5.867-2.184-5.704-5.42-7.17-5.42-7.17-4.448-3.015.324-3.015.324-3.015 4.934.326 7.523 5.052 7.523 5.052 4.367 7.496 11.404 5.378 14.235 4.074.404-3.178 1.699-5.378 3.074-6.6-10.839-1.141-22.243-5.378-22.243-24.283 0-5.378 1.94-9.778 5.014-13.2-.485-1.222-2.184-6.275.486-13.038 0 0 4.125-1.304 13.426 5.052a46.97 46.97 0 0 1 12.214-1.63c4.125 0 8.33.571 12.213 1.63 9.302-6.356 13.427-5.052 13.427-5.052 2.67 6.763.97 11.816.485 13.038 3.155 3.422 5.015 7.822 5.015 13.2 0 18.905-11.404 23.06-22.324 24.283 1.78 1.548 3.316 4.481 3.316 9.126 0 6.6-.08 11.897-.08 13.526 0 1.304.89 2.853 3.316 2.364 19.412-6.52 33.405-24.935 33.405-46.691C97.707 22 75.788 0 48.854 0z"
                              fill="#fff"/>
                    </svg>
                    <text x="25" y="11" dominant-baseline="middle" style="fill:white" font-size="13">
                        [[${#strings.abbreviate(username, 12)}]]
                    </text>
                    <rect x="0" y="23" width="[[${exp}]]" height="2" fill="#48ff00" rx="1"/>
                </g>
            </svg>
        </g>
    </a>
    <style>
        #frame1-[[${id}]] {
        animation: 1s frameToggle infinite;
        }
        #frame2-[[${id}]] {
        animation: 1s frameToggle infinite reverse;
        }
        #frame3-[[${id}]] {
        animation: 1s frameToggle infinite;
        }
        #frame4-[[${id}]] {
        animation: 1s frameToggle infinite reverse;
        }
        #standing-[[${id}]] {
        animation: standingToggle [[${motion.duration}]]s infinite;
        }
        #walking-[[${id}]] {
        animation: walkingToggle [[${motion.duration}]]s infinite;
        }
        #body-[[${id}]] {
        animation: move-body-[[${id}]] [[${motion.duration}]]s infinite;
        }
        #username-[[${id}]] {
        animation: move-username-[[${id}]] [[${motion.duration}]]s infinite;
        }
        @keyframes move-body-[[${id}]] {
        0%, 10% {
        transform: translate([[${motion.positions[0].x}]]%, [[${y}]]%) scaleX([[${motion.positions[0].direction}]]);
        }
        20%, 30% {
        transform: translate([[${motion.positions[1].x}]]%, [[${y}]]%) scaleX([[${motion.positions[1].direction}]]);
        }
        40%, 50% {
        transform: translate([[${motion.positions[2].x}]]%, [[${y}]]%) scaleX([[${motion.positions[2].direction}]]);
        }
        50.01% {
        transform: translate([[${motion.positions[3].x}]]%, [[${y}]]%) scaleX([[${motion.positions[3].direction}]]);
        }
        60%, 70% {
        transform: translate([[${motion.positions[4].x}]]%, [[${y}]]%) scaleX([[${motion.positions[4].direction}]]);
        }
        80%, 100% {
        transform: translate([[${motion.positions[5].x}]]%, [[${y}]]%) scaleX([[${motion.positions[5].direction}]]);
        }
        }
        @keyframes move-username-[[${id}]] {
        0%, 10% {
        transform: scaleX([[${motion.positions[0].direction}]])
        translateX([[${motion.positions[0].direction > 0 ? 0: -100}]]%);
        }
        20%, 30% {
        transform: scaleX([[${motion.positions[1].direction}]])
        translateX([[${motion.positions[1].direction > 0 ? 0: -100}]]%);
        }
        40%, 50% {
        transform: scaleX([[${motion.positions[2].direction}]])
        translateX([[${motion.positions[2].direction > 0 ? 0: -100}]]%);
        }
        50.01% {
        transform: scaleX([[${motion.positions[3].direction}]])
        translateX([[${motion.positions[3].direction > 0 ? 0: -100}]]%);
        }
        60%, 70% {
        transform: scaleX([[${motion.positions[4].direction}]])
        translateX([[${motion.positions[4].direction > 0 ? 0: -100}]]%);
        }
        80%, 100% {
        transform: scaleX([[${motion.positions[5].direction}]])
        translateX([[${motion.positions[5].direction > 0 ? 0: -100}]]%);
        }
        }
    </style>
</svg>
