<svg fill="none" overflow="visible" xmlns="http://www.w3.org/2000/svg">
    <a href="https://github.com/[[${username}]]">
        <g id="body-[[${id}]]">
            <svg viewBox="0 0 100 100" width="100" height="100" x="20" y="30">
                <g id="standing-[[${id}]]">
                    <g id="frame1-[[${id}]]">
                        <path stroke="#000000"
                              d="M9 6h9M21 6h12M45 6h6M9 7h9M21 7h12M45 7h6M9 8h9M21 8h12M45 8h6M0 9h6M9 9h6M18 9h6M33 9h12M48 9h3M0 10h6M9 10h6M18 10h6M33 10h12M48 10h3M0 11h6M9 11h6M18 11h6M33 11h12M48 11h3M0 12h3M6 12h6M24 12h9M36 12h3M48 12h3M0 13h3M6 13h6M24 13h9M36 13h3M48 13h3M0 14h3M6 14h6M24 14h9M36 14h3M48 14h3M0 15h3M6 15h3M27 15h6M36 15h3M42 15h6M51 15h9M0 16h3M6 16h3M27 16h6M36 16h3M42 16h6M51 16h9M0 17h3M6 17h3M27 17h6M36 17h3M42 17h6M51 17h9M0 18h3M9 18h3M21 18h9M39 18h12M57 18h3M0 19h3M9 19h3M21 19h9M39 19h12M57 19h3M0 20h3M9 20h3M21 20h9M39 20h12M57 20h3M0 21h3M9 21h3M33 21h6M42 21h6M54 21h3M0 22h3M9 22h3M33 22h6M42 22h6M54 22h3M0 23h3M9 23h3M33 23h6M42 23h6M54 23h3M3 24h6M24 24h9M39 24h6M48 24h15M3 25h6M24 25h9M39 25h6M48 25h15M3 26h6M24 26h9M39 26h6M48 26h15M3 27h21M39 27h3M45 27h6M60 27h3M3 28h21M39 28h3M45 28h6M60 28h3M3 29h21M39 29h3M45 29h6M60 29h3M6 30h6M36 30h9M57 30h3M6 31h6M36 31h9M57 31h3M6 32h6M36 32h9M57 32h3M12 33h3M30 33h9M45 33h12M12 34h3M30 34h9M45 34h12M12 35h3M30 35h9M45 35h12M12 36h18M36 36h12M51 36h3M57 36h3M12 37h18M36 37h12M51 37h3M57 37h3M12 38h18M36 38h12M51 38h3M57 38h3M9 39h3M18 39h6M36 39h9M51 39h9M9 40h3M18 40h6M36 40h9M51 40h9M9 41h3M18 41h6M36 41h9M51 41h9M9 42h27M39 42h3M51 42h3M9 43h27M39 43h3M51 43h3M9 44h27M39 44h3M51 44h3M15 45h3M30 45h3M39 45h3M48 45h3M15 46h3M30 46h3M39 46h3M48 46h3M15 47h3M30 47h3M39 47h3M48 47h3M9 48h6M18 48h15M42 48h6M9 49h6M18 49h15M42 49h6M9 50h6M18 50h15M42 50h6M6 51h3M12 51h3M21 51h3M27 51h3M33 51h3M39 51h3M45 51h3M6 52h3M12 52h3M21 52h3M27 52h3M33 52h3M39 52h3M45 52h3M6 53h3M12 53h3M21 53h3M27 53h3M33 53h3M39 53h3M45 53h3M6 54h18M27 54h21M6 55h18M27 55h21M6 56h18M27 56h21"/>
                        <path stroke="#848c90"
                              d="M15 9h3M24 9h9M15 10h3M24 10h9M15 11h3M24 11h9M12 12h12M33 12h3M12 13h12M33 13h3M12 14h12M33 14h3M9 15h15M33 15h3M9 16h15M33 16h3M9 17h15M33 17h3M12 18h9M30 18h9M12 19h9M30 19h9M12 20h9M30 20h9M12 21h21M39 21h3M12 22h21M39 22h3M12 23h21M39 23h3M9 24h15M9 25h15M9 26h15M30 36h6M30 37h6M30 38h6M27 39h9M45 39h3M27 40h9M45 40h3M27 41h9M45 41h3M42 42h3M42 43h3M42 44h3"/>
                        <path stroke="#683a31"
                              d="M45 9h3M45 10h3M45 11h3M3 12h3M42 12h3M3 13h3M42 13h3M3 14h3M42 14h3M3 15h3M3 16h3M3 17h3M3 18h6M3 19h6M3 20h6M3 21h6M3 22h6M3 23h6"/>
                        <path stroke="#11263c"
                              d="M39 12h3M45 12h3M39 13h3M45 13h3M39 14h3M45 14h3M39 15h3M39 16h3M39 17h3"/>
                        <path stroke="#ffffff"
                              d="M24 15h3M24 16h3M24 17h3M12 39h3M24 39h3M12 40h3M24 40h3M12 41h3M24 41h3M9 51h3M30 51h3M36 51h3M42 51h3M9 52h3M30 52h3M36 52h3M42 52h3M9 53h3M30 53h3M36 53h3M42 53h3"/>
                        <path stroke="#5844a8"
                              d="M51 18h6M51 19h6M51 20h6M51 21h3M51 22h3M51 23h3M51 27h3M57 27h3M51 28h3M57 28h3M51 29h3M57 29h3M48 30h9M48 31h9M48 32h9M54 36h3M54 37h3M54 38h3"/>
                        <path stroke="#ff8c24"
                              d="M33 24h6M33 25h6M33 26h6M24 27h15M24 28h15M24 29h15M12 30h24M12 31h24M12 32h24M18 33h3M24 33h3M18 34h3M24 34h3M18 35h3M24 35h3M48 36h3M48 37h3M48 38h3M15 39h3M48 39h3M15 40h3M48 40h3M15 41h3M48 41h3M45 42h3M45 43h3M45 44h3M18 45h9M33 45h6M45 45h3M18 46h9M33 46h6M45 46h3M18 47h9M33 47h6M45 47h3M33 48h9M33 49h9M33 50h9M15 51h6M15 52h6M15 53h6"/>
                        <path stroke="#ec1c00"
                              d="M45 24h3M45 25h3M45 26h3M42 27h3M42 28h3M42 29h3M39 33h6M39 34h6M39 35h6"/>
                        <path stroke="#1c54b4"
                              d="M15 33h3M21 33h3M27 33h3M15 34h3M21 34h3M27 34h3M15 35h3M21 35h3M27 35h3M36 42h3M48 42h3M36 43h3M48 43h3M36 44h3M48 44h3M27 45h3M42 45h3M27 46h3M42 46h3M27 47h3M42 47h3M15 48h3M15 49h3M15 50h3"/>
                    </g>
                    <g id="frame2-[[${id}]]">
                        <path stroke="#000000"
                              d="M9 3h9M21 3h12M45 3h6M9 4h9M21 4h12M45 4h6M9 5h9M21 5h12M45 5h6M0 6h6M9 6h6M18 6h6M33 6h12M48 6h3M0 7h6M9 7h6M18 7h6M33 7h12M48 7h3M0 8h6M9 8h6M18 8h6M33 8h12M48 8h3M0 9h3M6 9h6M24 9h9M36 9h3M48 9h3M0 10h3M6 10h6M24 10h9M36 10h3M48 10h3M0 11h3M6 11h6M24 11h9M36 11h3M48 11h3M0 12h3M6 12h3M27 12h6M36 12h3M42 12h6M0 13h3M6 13h3M27 13h6M36 13h3M42 13h6M0 14h3M6 14h3M27 14h6M36 14h3M42 14h6M0 15h3M9 15h3M21 15h9M39 15h6M0 16h3M9 16h3M21 16h9M39 16h6M0 17h3M9 17h3M21 17h9M39 17h6M0 18h3M9 18h3M33 18h6M42 18h6M51 18h9M0 19h3M9 19h3M33 19h6M42 19h6M51 19h9M0 20h3M9 20h3M33 20h6M42 20h6M51 20h9M3 21h6M24 21h9M39 21h6M48 21h3M57 21h3M3 22h6M24 22h9M39 22h6M48 22h3M57 22h3M3 23h6M24 23h9M39 23h6M48 23h3M57 23h3M3 24h21M39 24h3M45 24h3M54 24h3M3 25h21M39 25h3M45 25h3M54 25h3M3 26h21M39 26h3M45 26h3M54 26h3M6 27h6M36 27h27M6 28h6M36 28h27M6 29h6M36 29h27M12 30h3M30 30h9M45 30h3M60 30h3M12 31h3M30 31h9M45 31h3M60 31h3M12 32h3M30 32h9M45 32h3M60 32h3M9 33h9M24 33h6M36 33h18M57 33h3M9 34h9M24 34h6M36 34h18M57 34h3M9 35h9M24 35h6M36 35h18M57 35h3M9 36h3M18 36h6M36 36h9M48 36h9M9 37h3M18 37h6M36 37h9M48 37h9M9 38h3M18 38h6M36 38h9M48 38h9M12 39h6M24 39h12M39 39h9M51 39h6M12 40h6M24 40h12M39 40h9M51 40h6M12 41h6M24 41h12M39 41h9M51 41h6M15 42h12M39 42h3M51 42h3M15 43h12M39 43h3M51 43h3M15 44h12M39 44h3M51 44h3M15 45h3M30 45h3M39 45h3M51 45h3M15 46h3M30 46h3M39 46h3M51 46h3M15 47h3M30 47h3M39 47h3M51 47h3M9 48h6M18 48h15M42 48h9M9 49h6M18 49h15M42 49h9M9 50h6M18 50h15M42 50h9M6 51h3M12 51h3M21 51h3M27 51h3M33 51h3M39 51h3M45 51h3M6 52h3M12 52h3M21 52h3M27 52h3M33 52h3M39 52h3M45 52h3M6 53h3M12 53h3M21 53h3M27 53h3M33 53h3M39 53h3M45 53h3M6 54h18M27 54h21M6 55h18M27 55h21M6 56h18M27 56h21"/>
                        <path stroke="#848c90"
                              d="M15 6h3M24 6h9M15 7h3M24 7h9M15 8h3M24 8h9M12 9h12M33 9h3M12 10h12M33 10h3M12 11h12M33 11h3M9 12h15M33 12h3M9 13h15M33 13h3M9 14h15M33 14h3M12 15h9M30 15h9M12 16h9M30 16h9M12 17h9M30 17h9M12 18h21M39 18h3M12 19h21M39 19h3M12 20h21M39 20h3M9 21h15M9 22h15M9 23h15M30 33h6M30 34h6M30 35h6M27 36h9M27 37h9M27 38h9M18 39h6M18 40h6M18 41h6M42 42h6M42 43h6M42 44h6"/>
                        <path stroke="#683a31"
                              d="M45 6h3M45 7h3M45 8h3M3 9h3M42 9h3M3 10h3M42 10h3M3 11h3M42 11h3M3 12h3M3 13h3M3 14h3M3 15h6M3 16h6M3 17h6M3 18h6M3 19h6M3 20h6"/>
                        <path stroke="#11263c"
                              d="M39 9h3M45 9h3M39 10h3M45 10h3M39 11h3M45 11h3M39 12h3M39 13h3M39 14h3"/>
                        <path stroke="#ffffff"
                              d="M24 12h3M24 13h3M24 14h3M12 36h3M24 36h3M12 37h3M24 37h3M12 38h3M24 38h3M9 51h3M30 51h3M36 51h3M42 51h3M9 52h3M30 52h3M36 52h3M42 52h3M9 53h3M30 53h3M36 53h3M42 53h3"/>
                        <path stroke="#ff8c24"
                              d="M33 21h6M33 22h6M33 23h6M24 24h15M24 25h15M24 26h15M12 27h24M12 28h24M12 29h24M18 30h3M24 30h3M18 31h3M24 31h3M18 32h3M24 32h3M18 33h3M18 34h3M18 35h3M15 36h3M15 37h3M15 38h3M48 39h3M48 40h3M48 41h3M27 42h12M27 43h12M27 44h12M18 45h9M33 45h6M45 45h3M18 46h9M33 46h6M45 46h3M18 47h9M33 47h6M45 47h3M33 48h9M33 49h9M33 50h9M15 51h6M15 52h6M15 53h6"/>
                        <path stroke="#ec1c00"
                              d="M45 21h3M45 22h3M45 23h3M42 24h3M42 25h3M42 26h3M39 30h6M39 31h6M39 32h6"/>
                        <path stroke="#5844a8"
                              d="M51 21h6M51 22h6M51 23h6M51 24h3M51 25h3M51 26h3M48 30h6M57 30h3M48 31h6M57 31h3M48 32h6M57 32h3M54 33h3M54 34h3M54 35h3M45 36h3M45 37h3M45 38h3"/>
                        <path stroke="#1c54b4"
                              d="M15 30h3M21 30h3M27 30h3M15 31h3M21 31h3M27 31h3M15 32h3M21 32h3M27 32h3M21 33h3M21 34h3M21 35h3M36 39h3M36 40h3M36 41h3M48 42h3M48 43h3M48 44h3M27 45h3M42 45h3M48 45h3M27 46h3M42 46h3M48 46h3M27 47h3M42 47h3M48 47h3M15 48h3M15 49h3M15 50h3"/>
                    </g>
                </g>
                <g id="walking-[[${id}]]">
                    <g id="frame3-[[${id}]]">
                        <path stroke="#000000"
                              d="M9 6h9M21 6h12M45 6h6M9 7h9M21 7h12M45 7h6M9 8h9M21 8h12M45 8h6M0 9h6M9 9h6M18 9h6M33 9h12M48 9h3M0 10h6M9 10h6M18 10h6M33 10h12M48 10h3M0 11h6M9 11h6M18 11h6M33 11h12M48 11h3M0 12h3M6 12h6M24 12h9M36 12h3M48 12h3M0 13h3M6 13h6M24 13h9M36 13h3M48 13h3M0 14h3M6 14h6M24 14h9M36 14h3M48 14h3M0 15h3M6 15h3M27 15h6M36 15h3M42 15h6M0 16h3M6 16h3M27 16h6M36 16h3M42 16h6M0 17h3M6 17h3M27 17h6M36 17h3M42 17h6M0 18h3M9 18h3M21 18h9M39 18h21M0 19h3M9 19h3M21 19h9M39 19h21M0 20h3M9 20h3M21 20h9M39 20h21M0 21h3M9 21h3M33 21h6M42 21h6M57 21h3M0 22h3M9 22h3M33 22h6M42 22h6M57 22h3M0 23h3M9 23h3M33 23h6M42 23h6M57 23h3M3 24h6M24 24h9M39 24h6M48 24h9M3 25h6M24 25h9M39 25h6M48 25h9M3 26h6M24 26h9M39 26h6M48 26h9M3 27h21M39 27h3M45 27h6M54 27h9M3 28h21M39 28h3M45 28h6M54 28h9M3 29h21M39 29h3M45 29h6M54 29h9M6 30h6M36 30h9M60 30h3M6 31h6M36 31h9M60 31h3M6 32h6M36 32h9M60 32h3M12 33h3M36 33h3M45 33h9M57 33h3M12 34h3M36 34h3M45 34h9M57 34h3M12 35h3M36 35h3M45 35h9M57 35h3M9 36h39M51 36h6M9 37h39M51 37h6M9 38h39M51 38h6M9 39h3M18 39h3M24 39h6M36 39h9M51 39h6M9 40h3M18 40h3M24 40h6M36 40h9M51 40h6M9 41h3M18 41h3M24 41h6M36 41h9M51 41h6M12 42h12M36 42h6M51 42h3M12 43h12M36 43h6M51 43h3M12 44h12M36 44h6M51 44h3M15 45h3M24 45h12M42 45h9M15 46h3M24 46h12M42 46h9M15 47h3M24 47h12M42 47h9M9 48h6M18 48h12M33 48h3M39 48h3M45 48h3M9 49h6M18 49h12M33 49h3M39 49h3M45 49h3M9 50h6M18 50h12M33 50h3M39 50h3M45 50h3M6 51h3M12 51h3M21 51h3M27 51h21M6 52h3M12 52h3M21 52h3M27 52h21M6 53h3M12 53h3M21 53h3M27 53h21M6 54h18M6 55h18M6 56h18"/>
                        <path stroke="#848c90"
                              d="M15 9h3M24 9h9M15 10h3M24 10h9M15 11h3M24 11h9M12 12h12M33 12h3M12 13h12M33 13h3M12 14h12M33 14h3M9 15h15M33 15h3M9 16h15M33 16h3M9 17h15M33 17h3M12 18h9M30 18h9M12 19h9M30 19h9M12 20h9M30 20h9M12 21h21M39 21h3M12 22h21M39 22h3M12 23h21M39 23h3M9 24h15M9 25h15M9 26h15M21 39h3M30 39h6M45 39h3M21 40h3M30 40h6M45 40h3M21 41h3M30 41h6M45 41h3M27 42h9M42 42h3M27 43h9M42 43h3M27 44h9M42 44h3"/>
                        <path stroke="#683a31"
                              d="M45 9h3M45 10h3M45 11h3M3 12h3M42 12h3M3 13h3M42 13h3M3 14h3M42 14h3M3 15h3M3 16h3M3 17h3M3 18h6M3 19h6M3 20h6M3 21h6M3 22h6M3 23h6"/>
                        <path stroke="#11263c"
                              d="M39 12h3M45 12h3M39 13h3M45 13h3M39 14h3M45 14h3M39 15h3M39 16h3M39 17h3"/>
                        <path stroke="#ffffff"
                              d="M24 15h3M24 16h3M24 17h3M12 39h3M12 40h3M12 41h3M24 42h3M24 43h3M24 44h3M30 48h3M36 48h3M42 48h3M30 49h3M36 49h3M42 49h3M30 50h3M36 50h3M42 50h3M9 51h3M9 52h3M9 53h3"/>
                        <path stroke="#5844a8"
                              d="M51 21h6M51 22h6M51 23h6M51 27h3M51 28h3M51 29h3M48 30h6M57 30h3M48 31h6M57 31h3M48 32h6M57 32h3M54 33h3M54 34h3M54 35h3"/>
                        <path stroke="#ff8c24"
                              d="M33 24h6M33 25h6M33 26h6M24 27h15M24 28h15M24 29h15M12 30h24M12 31h24M12 32h24M18 33h3M24 33h12M18 34h3M24 34h12M18 35h3M24 35h12M48 36h3M48 37h3M48 38h3M15 39h3M48 39h3M15 40h3M48 40h3M15 41h3M48 41h3M45 42h3M45 43h3M45 44h3M18 45h6M39 45h3M18 46h6M39 46h3M18 47h6M39 47h3M15 51h6M15 52h6M15 53h6"/>
                        <path stroke="#ec1c00"
                              d="M45 24h3M45 25h3M45 26h3M42 27h3M42 28h3M42 29h3M39 33h6M39 34h6M39 35h6"/>
                        <path stroke="#1c54b4"
                              d="M15 33h3M21 33h3M15 34h3M21 34h3M15 35h3M21 35h3M48 42h3M48 43h3M48 44h3M36 45h3M36 46h3M36 47h3M15 48h3M15 49h3M15 50h3"/>
                    </g>
                    <g id="frame4-[[${id}]]">
                        <path stroke="#000000"
                              d="M9 6h9M21 6h12M45 6h6M9 7h9M21 7h12M45 7h6M9 8h9M21 8h12M45 8h6M0 9h6M9 9h6M18 9h6M33 9h12M48 9h3M0 10h6M9 10h6M18 10h6M33 10h12M48 10h3M0 11h6M9 11h6M18 11h6M33 11h12M48 11h3M0 12h3M6 12h6M24 12h9M36 12h3M48 12h3M0 13h3M6 13h6M24 13h9M36 13h3M48 13h3M0 14h3M6 14h6M24 14h9M36 14h3M48 14h3M0 15h3M6 15h3M27 15h6M36 15h3M42 15h6M51 15h9M0 16h3M6 16h3M27 16h6M36 16h3M42 16h6M51 16h9M0 17h3M6 17h3M27 17h6M36 17h3M42 17h6M51 17h9M0 18h3M9 18h3M21 18h9M39 18h12M57 18h3M0 19h3M9 19h3M21 19h9M39 19h12M57 19h3M0 20h3M9 20h3M21 20h9M39 20h12M57 20h3M0 21h3M9 21h3M33 21h6M42 21h6M54 21h3M0 22h3M9 22h3M33 22h6M42 22h6M54 22h3M0 23h3M9 23h3M33 23h6M42 23h6M54 23h3M3 24h6M24 24h9M39 24h6M48 24h15M3 25h6M24 25h9M39 25h6M48 25h15M3 26h6M24 26h9M39 26h6M48 26h15M3 27h21M39 27h3M45 27h6M60 27h3M3 28h21M39 28h3M45 28h6M60 28h3M3 29h21M39 29h3M45 29h6M60 29h3M6 30h6M36 30h9M57 30h3M6 31h6M36 31h9M57 31h3M6 32h6M36 32h9M57 32h3M12 33h3M30 33h9M45 33h12M12 34h3M30 34h9M45 34h12M12 35h3M30 35h9M45 35h12M15 36h15M36 36h12M51 36h3M57 36h3M15 37h15M36 37h12M51 37h3M57 37h3M15 38h15M36 38h12M51 38h3M57 38h3M12 39h6M21 39h3M36 39h9M51 39h9M12 40h6M21 40h3M36 40h9M51 40h9M12 41h6M21 41h3M36 41h9M51 41h9M9 42h3M18 42h18M39 42h3M51 42h3M9 43h3M18 43h18M39 43h3M51 43h3M9 44h3M18 44h18M39 44h3M51 44h3M9 45h9M30 45h3M39 45h3M48 45h3M9 46h9M30 46h3M39 46h3M48 46h3M9 47h9M30 47h3M39 47h3M48 47h3M6 48h3M12 48h3M18 48h15M42 48h6M6 49h3M12 49h3M18 49h15M42 49h6M6 50h3M12 50h3M18 50h15M42 50h6M6 51h18M27 51h3M33 51h3M39 51h3M45 51h3M6 52h18M27 52h3M33 52h3M39 52h3M45 52h3M6 53h18M27 53h3M33 53h3M39 53h3M45 53h3M27 54h21M27 55h21M27 56h21"/>
                        <path stroke="#848c90"
                              d="M15 9h3M24 9h9M15 10h3M24 10h9M15 11h3M24 11h9M12 12h12M33 12h3M12 13h12M33 13h3M12 14h12M33 14h3M9 15h15M33 15h3M9 16h15M33 16h3M9 17h15M33 17h3M12 18h9M30 18h9M12 19h9M30 19h9M12 20h9M30 20h9M12 21h21M39 21h3M12 22h21M39 22h3M12 23h21M39 23h3M9 24h15M9 25h15M9 26h15M30 36h6M30 37h6M30 38h6M18 39h3M27 39h9M45 39h3M18 40h3M27 40h9M45 40h3M18 41h3M27 41h9M45 41h3M42 42h3M42 43h3M42 44h3"/>
                        <path stroke="#683a31"
                              d="M45 9h3M45 10h3M45 11h3M3 12h3M42 12h3M3 13h3M42 13h3M3 14h3M42 14h3M3 15h3M3 16h3M3 17h3M3 18h6M3 19h6M3 20h6M3 21h6M3 22h6M3 23h6"/>
                        <path stroke="#11263c"
                              d="M39 12h3M45 12h3M39 13h3M45 13h3M39 14h3M45 14h3M39 15h3M39 16h3M39 17h3"/>
                        <path stroke="#ffffff"
                              d="M24 15h3M24 16h3M24 17h3M24 39h3M24 40h3M24 41h3M12 42h3M12 43h3M12 44h3M9 48h3M9 49h3M9 50h3M30 51h3M36 51h3M42 51h3M30 52h3M36 52h3M42 52h3M30 53h3M36 53h3M42 53h3"/>
                        <path stroke="#5844a8"
                              d="M51 18h6M51 19h6M51 20h6M51 21h3M51 22h3M51 23h3M51 27h3M57 27h3M51 28h3M57 28h3M51 29h3M57 29h3M48 30h9M48 31h9M48 32h9M54 36h3M54 37h3M54 38h3"/>
                        <path stroke="#ff8c24"
                              d="M33 24h6M33 25h6M33 26h6M24 27h15M24 28h15M24 29h15M12 30h24M12 31h24M12 32h24M18 33h3M24 33h3M18 34h3M24 34h3M18 35h3M24 35h3M48 36h3M48 37h3M48 38h3M48 39h3M48 40h3M48 41h3M15 42h3M45 42h3M15 43h3M45 43h3M15 44h3M45 44h3M18 45h9M33 45h6M45 45h3M18 46h9M33 46h6M45 46h3M18 47h9M33 47h6M45 47h3M15 48h3M33 48h9M15 49h3M33 49h9M15 50h3M33 50h9"/>
                        <path stroke="#ec1c00"
                              d="M45 24h3M45 25h3M45 26h3M42 27h3M42 28h3M42 29h3M39 33h6M39 34h6M39 35h6"/>
                        <path stroke="#1c54b4"
                              d="M15 33h3M21 33h3M27 33h3M15 34h3M21 34h3M27 34h3M15 35h3M21 35h3M27 35h3M36 42h3M48 42h3M36 43h3M48 43h3M36 44h3M48 44h3M27 45h3M42 45h3M27 46h3M42 46h3M27 47h3M42 47h3"/>
                    </g>
                </g>
            </svg>
            <svg viewBox="0 0 100 30" width="100" height="30" x="0" y="0">
                <g id="username-[[${id}]]">
                    <rect x="0" y="0" width="100" height="20" fill="black" fill-opacity="0.8" rx="5"/>
                    <svg x="4" y="2.5" width="15" height="15" viewBox="0 0 100 100">
                        <path fill-rule="evenodd" clip-rule="evenodd"
                              d="M48.854 0C21.839 0 0 22 0 49.217c0 21.756 13.993 40.172 33.405 46.69 2.427.49 3.316-1.059 3.316-2.362 0-1.141-.08-5.052-.08-9.127-13.59 2.934-16.42-5.867-16.42-5.867-2.184-5.704-5.42-7.17-5.42-7.17-4.448-3.015.324-3.015.324-3.015 4.934.326 7.523 5.052 7.523 5.052 4.367 7.496 11.404 5.378 14.235 4.074.404-3.178 1.699-5.378 3.074-6.6-10.839-1.141-22.243-5.378-22.243-24.283 0-5.378 1.94-9.778 5.014-13.2-.485-1.222-2.184-6.275.486-13.038 0 0 4.125-1.304 13.426 5.052a46.97 46.97 0 0 1 12.214-1.63c4.125 0 8.33.571 12.213 1.63 9.302-6.356 13.427-5.052 13.427-5.052 2.67 6.763.97 11.816.485 13.038 3.155 3.422 5.015 7.822 5.015 13.2 0 18.905-11.404 23.06-22.324 24.283 1.78 1.548 3.316 4.481 3.316 9.126 0 6.6-.08 11.897-.08 13.526 0 1.304.89 2.853 3.316 2.364 19.412-6.52 33.405-24.935 33.405-46.691C97.707 22 75.788 0 48.854 0z"
                              fill="#fff"/>
                    </svg>
                    <text x="25" y="11" dominant-baseline="middle" style="fill:white" textLength="70"
                          lengthAdjust="spacing">
                        [[${username}]]
                    </text>
                    <rect x="0" y="23" width="[[${exp}]]" height="2" fill="#48ff00" rx="1"/>
                </g>
            </svg>
        </g>
    </a>
    <style>
        #frame1-[[${id}]] {
        animation: 1s frameToggle infinite;
        }
        #frame2-[[${id}]] {
        animation: 1s frameToggle infinite reverse;
        }
        #frame3-[[${id}]] {
        animation: 1s frameToggle infinite;
        }
        #frame4-[[${id}]] {
        animation: 1s frameToggle infinite reverse;
        }
        #standing-[[${id}]] {
        animation: standingToggle [[${motion.duration}]]s infinite;
        }
        #walking-[[${id}]] {
        animation: walkingToggle [[${motion.duration}]]s infinite;
        }
        #body-[[${id}]] {
        animation: move-body-[[${id}]] [[${motion.duration}]]s infinite;
        }
        #username-[[${id}]] {
        animation: move-username-[[${id}]] [[${motion.duration}]]s infinite;
        }
        @keyframes move-body-[[${id}]] {
        0%, 10% {
        transform: translate([[${motion.positions[0].x}]]%, [[${y}]]%) scaleX([[${motion.positions[0].direction}]]);
        }
        20%, 30% {
        transform: translate([[${motion.positions[1].x}]]%, [[${y}]]%) scaleX([[${motion.positions[1].direction}]]);
        }
        40%, 50% {
        transform: translate([[${motion.positions[2].x}]]%, [[${y}]]%) scaleX([[${motion.positions[2].direction}]]);
        }
        50.01% {
        transform: translate([[${motion.positions[3].x}]]%, [[${y}]]%) scaleX([[${motion.positions[3].direction}]]);
        }
        60%, 70% {
        transform: translate([[${motion.positions[4].x}]]%, [[${y}]]%) scaleX([[${motion.positions[4].direction}]]);
        }
        80%, 100% {
        transform: translate([[${motion.positions[5].x}]]%, [[${y}]]%) scaleX([[${motion.positions[5].direction}]]);
        }
        }
        @keyframes move-username-[[${id}]] {
        0%, 10% {
        transform: scaleX([[${motion.positions[0].direction}]])
        translateX([[${motion.positions[0].direction > 0 ? 0: -100}]]%);
        }
        20%, 30% {
        transform: scaleX([[${motion.positions[1].direction}]])
        translateX([[${motion.positions[1].direction > 0 ? 0: -100}]]%);
        }
        40%, 50% {
        transform: scaleX([[${motion.positions[2].direction}]])
        translateX([[${motion.positions[2].direction > 0 ? 0: -100}]]%);
        }
        50.01% {
        transform: scaleX([[${motion.positions[3].direction}]])
        translateX([[${motion.positions[3].direction > 0 ? 0: -100}]]%);
        }
        60%, 70% {
        transform: scaleX([[${motion.positions[4].direction}]])
        translateX([[${motion.positions[4].direction > 0 ? 0: -100}]]%);
        }
        80%, 100% {
        transform: scaleX([[${motion.positions[5].direction}]])
        translateX([[${motion.positions[5].direction > 0 ? 0: -100}]]%);
        }
        }
    </style>
</svg>
