<svg fill="none" overflow="visible" xmlns="http://www.w3.org/2000/svg">
    <a href="https://github.com/[[${username}]]">
        <g id="body-[[${id}]]">
            <g id="standing-[[${id}]]">
                <g id="frame1-[[${id}]]">
                    <path stroke="#000000" d="M33 3h6M45 3h6M33 4h6M45 4h6M33 5h6M45 5h6M30 6h3M36 6h3M42 6h3M48 6h3M30 7h3M36 7h3M42 7h3M48 7h3M30 8h3M36 8h3M42 8h3M48 8h3M27 9h3M36 9h6M48 9h3M27 10h3M36 10h6M48 10h3M27 11h3M36 11h6M48 11h3M21 12h18M45 12h3M21 13h18M45 13h3M21 14h18M45 14h3M18 15h3M27 15h3M39 15h6M66 15h9M18 16h3M27 16h3M39 16h6M66 16h9M18 17h3M27 17h3M39 17h6M66 17h9M9 18h18M30 18h3M36 18h3M42 18h9M60 18h6M72 18h3M9 19h18M30 19h3M36 19h3M42 19h9M60 19h6M72 19h3M9 20h18M30 20h3M36 20h3M42 20h9M60 20h6M72 20h3M6 21h3M15 21h3M24 21h6M36 21h6M48 21h3M57 21h3M69 21h3M6 22h3M15 22h3M24 22h6M36 22h6M48 22h3M57 22h3M69 22h3M6 23h3M15 23h3M24 23h6M36 23h6M48 23h3M57 23h3M69 23h3M6 24h9M30 24h6M42 24h9M54 24h3M60 24h9M6 25h9M30 25h6M42 25h9M54 25h3M60 25h9M6 26h9M30 26h6M42 26h9M54 26h3M60 26h9M6 27h3M12 27h3M39 27h3M48 27h9M63 27h3M6 28h3M12 28h3M39 28h3M48 28h9M63 28h3M6 29h3M12 29h3M39 29h3M48 29h9M63 29h3M9 30h3M15 30h3M27 30h12M45 30h6M57 30h6M72 30h9M9 31h3M15 31h3M27 31h12M45 31h6M57 31h6M72 31h9M9 32h3M15 32h3M27 32h12M45 32h6M57 32h6M72 32h9M12 33h15M39 33h21M66 33h6M78 33h3M12 34h15M39 34h21M66 34h6M78 34h3M12 35h15M39 35h21M66 35h6M78 35h3M18 36h3M33 36h6M42 36h3M51 36h3M57 36h9M69 36h3M75 36h3M18 37h3M33 37h6M42 37h3M51 37h3M57 37h9M69 37h3M75 37h3M18 38h3M33 38h6M42 38h3M51 38h3M57 38h9M69 38h3M75 38h3M21 39h12M39 39h3M51 39h6M63 39h12M21 40h12M39 40h3M51 40h6M63 40h12M21 41h12M39 41h3M51 41h6M63 41h12M24 42h3M30 42h3M39 42h3M48 42h3M54 42h3M63 42h3M24 43h3M30 43h3M39 43h3M48 43h3M54 43h3M63 43h3M24 44h3M30 44h3M39 44h3M48 44h3M54 44h3M63 44h3M27 45h3M33 45h3M42 45h3M48 45h9M66 45h3M27 46h3M33 46h3M42 46h3M48 46h9M66 46h3M27 47h3M33 47h3M42 47h3M48 47h9M66 47h3M21 48h9M36 48h12M51 48h3M57 48h12M21 49h9M36 49h12M51 49h3M57 49h12M21 50h9M36 50h12M51 50h3M57 50h12M18 51h3M27 51h3M33 51h3M39 51h3M48 51h9M66 51h6M18 52h3M27 52h3M33 52h3M39 52h3M48 52h9M66 52h6M18 53h3M27 53h3M33 53h3M39 53h3M48 53h9M66 53h6M15 54h3M21 54h3M30 54h3M36 54h3M42 54h3M54 54h6M63 54h3M69 54h3M15 55h3M21 55h3M30 55h3M36 55h3M42 55h3M54 55h6M63 55h3M69 55h3M15 56h3M21 56h3M30 56h3M36 56h3M42 56h3M54 56h6M63 56h3M69 56h3M15 57h18M36 57h36M15 58h18M36 58h36M15 59h18M36 59h36" />
                    <path stroke="#8a79ff" d="M33 6h3M45 6h3M33 7h3M45 7h3M33 8h3M45 8h3M30 9h6M42 9h6M30 10h6M42 10h6M30 11h6M42 11h6M39 12h6M39 13h6M39 14h6M21 15h6M30 15h9M21 16h6M30 16h9M21 17h6M30 17h9M27 18h3M39 18h3M27 19h3M39 19h3M27 20h3M39 20h3M18 21h6M42 21h6M18 22h6M42 22h6M18 23h6M42 23h6M15 24h15M36 24h6M15 25h15M36 25h6M15 26h15M36 26h6M9 27h3M15 27h3M21 27h3M27 27h12M42 27h6M9 28h3M15 28h3M21 28h3M27 28h12M42 28h6M9 29h3M15 29h3M21 29h3M27 29h12M42 29h6M12 30h3M18 30h9M39 30h6M12 31h3M18 31h9M39 31h6M12 32h3M18 32h9M39 32h6M45 36h6M54 36h3M45 37h6M54 37h3M45 38h6M54 38h3M42 39h9M60 39h3M42 40h9M60 40h3M42 41h9M60 41h3M27 42h3M42 42h6M60 42h3M27 43h3M42 43h6M60 43h3M27 44h3M42 44h6M60 44h3M30 45h3M45 45h3M57 45h6M30 46h3M45 46h3M57 46h6M30 47h3M45 47h3M57 47h6M33 48h3M48 48h3M33 49h3M48 49h3M33 50h3M48 50h3M30 51h3M30 52h3M30 53h3" />
                    <path stroke="#800000" d="M33 18h3M33 19h3M33 20h3" />
                    <path stroke="#ffff00" d="M66 18h6M66 19h6M66 20h6M60 21h9M60 22h9M60 23h9M57 24h3M57 25h3M57 26h3M57 27h6M57 28h6M57 29h6M72 33h6M72 34h6M72 35h6M39 36h3M66 36h3M72 36h3M39 37h3M66 37h3M72 37h3M39 38h3M66 38h3M72 38h3M33 39h6M33 40h6M33 41h6M33 42h6M51 42h3M33 43h6M51 43h3M33 44h6M51 44h3M36 45h6M36 46h6M36 47h6" />
                    <path stroke="#ff0000" d="M9 21h6M33 21h3M9 22h6M33 22h3M9 23h6M33 23h3M57 39h3M57 40h3M57 41h3M57 42h3M57 43h3M57 44h3" />
                    <path stroke="#ffffff" d="M30 21h3M30 22h3M30 23h3" />
                    <path stroke="#404040" d="M18 27h3M24 27h3M18 28h3M24 28h3M18 29h3M24 29h3M63 45h3M63 46h3M63 47h3M30 48h3M30 49h3M30 50h3" />
                    <path stroke="#efefef" d="M51 30h6M51 31h6M51 32h6M27 33h12M27 34h12M27 35h12M21 36h12M21 37h12M21 38h12" />
                    <path stroke="#c7c2ef" d="M21 51h6M42 51h6M57 51h9M21 52h6M42 52h6M57 52h9M21 53h6M42 53h6M57 53h9M24 54h6M48 54h6M66 54h3M24 55h6M48 55h6M66 55h3M24 56h6M48 56h6M66 56h3" />
                    <path stroke="#d90067" d="M18 54h3M39 54h3M45 54h3M60 54h3M18 55h3M39 55h3M45 55h3M60 55h3M18 56h3M39 56h3M45 56h3M60 56h3" />
                </g>
                <g id="frame2-[[${id}]]">
                    <path stroke="#000000" d="M33 0h6M45 0h6M33 1h6M45 1h6M33 2h6M45 2h6M30 3h3M36 3h3M42 3h3M48 3h3M30 4h3M36 4h3M42 4h3M48 4h3M30 5h3M36 5h3M42 5h3M48 5h3M27 6h3M36 6h6M48 6h3M27 7h3M36 7h6M48 7h3M27 8h3M36 8h6M48 8h3M21 9h18M45 9h3M21 10h18M45 10h3M21 11h18M45 11h3M18 12h3M27 12h3M39 12h6M66 12h9M18 13h3M27 13h3M39 13h6M66 13h9M18 14h3M27 14h3M39 14h6M66 14h9M9 15h18M30 15h3M36 15h3M42 15h9M60 15h6M72 15h3M9 16h18M30 16h3M36 16h3M42 16h9M60 16h6M72 16h3M9 17h18M30 17h3M36 17h3M42 17h9M60 17h6M72 17h3M6 18h3M15 18h3M24 18h6M36 18h6M48 18h3M57 18h3M69 18h3M6 19h3M15 19h3M24 19h6M36 19h6M48 19h3M57 19h3M69 19h3M6 20h3M15 20h3M24 20h6M36 20h6M48 20h3M57 20h3M69 20h3M6 21h9M30 21h6M42 21h9M54 21h3M60 21h9M6 22h9M30 22h6M42 22h9M54 22h3M60 22h9M6 23h9M30 23h6M42 23h9M54 23h3M60 23h9M6 24h3M12 24h3M39 24h3M48 24h9M63 24h3M6 25h3M12 25h3M39 25h3M48 25h9M63 25h3M6 26h3M12 26h3M39 26h3M48 26h9M63 26h3M9 27h3M15 27h3M27 27h12M45 27h6M57 27h6M72 27h9M9 28h3M15 28h3M27 28h12M45 28h6M57 28h6M72 28h9M9 29h3M15 29h3M27 29h12M45 29h6M57 29h6M72 29h9M12 30h15M39 30h21M66 30h6M78 30h3M12 31h15M39 31h21M66 31h6M78 31h3M12 32h15M39 32h21M66 32h6M78 32h3M18 33h3M33 33h6M42 33h3M51 33h3M57 33h9M69 33h3M75 33h3M18 34h3M33 34h6M42 34h3M51 34h3M57 34h9M69 34h3M75 34h3M18 35h3M33 35h6M42 35h3M51 35h3M57 35h9M69 35h3M75 35h3M21 36h12M39 36h3M51 36h6M63 36h12M21 37h12M39 37h3M51 37h6M63 37h12M21 38h12M39 38h3M51 38h6M63 38h12M24 39h3M30 39h3M39 39h3M48 39h3M54 39h3M63 39h3M24 40h3M30 40h3M39 40h3M48 40h3M54 40h3M63 40h3M24 41h3M30 41h3M39 41h3M48 41h3M54 41h3M63 41h3M27 42h3M33 42h3M42 42h3M48 42h9M66 42h3M27 43h3M33 43h3M42 43h3M48 43h9M66 43h3M27 44h3M33 44h3M42 44h3M48 44h9M66 44h3M27 45h3M36 45h9M51 45h3M57 45h3M66 45h3M27 46h3M36 46h9M51 46h3M57 46h3M66 46h3M27 47h3M36 47h9M51 47h3M57 47h3M66 47h3M21 48h6M33 48h3M42 48h6M51 48h3M57 48h9M69 48h3M21 49h6M33 49h3M42 49h6M51 49h3M57 49h9M69 49h3M21 50h6M33 50h3M42 50h6M51 50h3M57 50h9M69 50h3M18 51h3M27 51h3M33 51h3M39 51h3M48 51h9M66 51h6M18 52h3M27 52h3M33 52h3M39 52h3M48 52h9M66 52h6M18 53h3M27 53h3M33 53h3M39 53h3M48 53h9M66 53h6M15 54h3M21 54h3M30 54h3M36 54h3M42 54h3M54 54h6M63 54h3M69 54h3M15 55h3M21 55h3M30 55h3M36 55h3M42 55h3M54 55h6M63 55h3M69 55h3M15 56h3M21 56h3M30 56h3M36 56h3M42 56h3M54 56h6M63 56h3M69 56h3M15 57h18M36 57h36M15 58h18M36 58h36M15 59h18M36 59h36" />
                    <path stroke="#8a79ff" d="M33 3h3M45 3h3M33 4h3M45 4h3M33 5h3M45 5h3M30 6h6M42 6h6M30 7h6M42 7h6M30 8h6M42 8h6M39 9h6M39 10h6M39 11h6M21 12h6M30 12h9M21 13h6M30 13h9M21 14h6M30 14h9M27 15h3M39 15h3M27 16h3M39 16h3M27 17h3M39 17h3M18 18h6M42 18h6M18 19h6M42 19h6M18 20h6M42 20h6M15 21h15M36 21h6M15 22h15M36 22h6M15 23h15M36 23h6M9 24h3M15 24h3M21 24h3M27 24h12M42 24h6M9 25h3M15 25h3M21 25h3M27 25h12M42 25h6M9 26h3M15 26h3M21 26h3M27 26h12M42 26h6M12 27h3M18 27h9M39 27h6M12 28h3M18 28h9M39 28h6M12 29h3M18 29h9M39 29h6M45 33h6M54 33h3M45 34h6M54 34h3M45 35h6M54 35h3M42 36h9M60 36h3M42 37h9M60 37h3M42 38h9M60 38h3M27 39h3M42 39h6M60 39h3M27 40h3M42 40h6M60 40h3M27 41h3M42 41h6M60 41h3M30 42h3M45 42h3M57 42h6M30 43h3M45 43h3M57 43h6M30 44h3M45 44h3M57 44h6M33 45h3M48 45h3M60 45h6M33 46h3M48 46h3M60 46h6M33 47h3M48 47h3M60 47h6M27 48h3M48 48h3M66 48h3M27 49h3M48 49h3M66 49h3M27 50h3M48 50h3M66 50h3M30 51h3M30 52h3M30 53h3" />
                    <path stroke="#800000" d="M33 15h3M33 16h3M33 17h3" />
                    <path stroke="#ffff00" d="M66 15h6M66 16h6M66 17h6M60 18h9M60 19h9M60 20h9M57 21h3M57 22h3M57 23h3M57 24h6M57 25h6M57 26h6M72 30h6M72 31h6M72 32h6M39 33h3M66 33h3M72 33h3M39 34h3M66 34h3M72 34h3M39 35h3M66 35h3M72 35h3M33 36h6M33 37h6M33 38h6M33 39h6M51 39h3M33 40h6M51 40h3M33 41h6M51 41h3M36 42h6M36 43h6M36 44h6" />
                    <path stroke="#ff0000" d="M9 18h6M33 18h3M9 19h6M33 19h3M9 20h6M33 20h3M57 36h3M57 37h3M57 38h3M57 39h3M57 40h3M57 41h3" />
                    <path stroke="#ffffff" d="M30 18h3M30 19h3M30 20h3" />
                    <path stroke="#404040" d="M18 24h3M24 24h3M18 25h3M24 25h3M18 26h3M24 26h3M63 42h3M63 43h3M63 44h3M30 45h3M45 45h3M30 46h3M45 46h3M30 47h3M45 47h3M30 48h3M30 49h3M30 50h3" />
                    <path stroke="#efefef" d="M51 27h6M51 28h6M51 29h6M27 30h12M27 31h12M27 32h12M21 33h12M21 34h12M21 35h12" />
                    <path stroke="#c7c2ef" d="M21 51h6M42 51h6M57 51h9M21 52h6M42 52h6M57 52h9M21 53h6M42 53h6M57 53h9M24 54h6M48 54h6M66 54h3M24 55h6M48 55h6M66 55h3M24 56h6M48 56h6M66 56h3" />
                    <path stroke="#d90067" d="M18 54h3M39 54h3M45 54h3M60 54h3M18 55h3M39 55h3M45 55h3M60 55h3M18 56h3M39 56h3M45 56h3M60 56h3" />
                </g>
            </g>
            <g id="walking-[[${id}]]">
                <g id="frame3-[[${id}]]">
                    <path stroke="#000000" d="M33 0h6M45 0h6M33 1h6M45 1h6M33 2h6M45 2h6M30 3h3M36 3h3M42 3h3M48 3h3M30 4h3M36 4h3M42 4h3M48 4h3M30 5h3M36 5h3M42 5h3M48 5h3M27 6h3M36 6h6M48 6h3M27 7h3M36 7h6M48 7h3M27 8h3M36 8h6M48 8h3M21 9h18M45 9h3M21 10h18M45 10h3M21 11h18M45 11h3M18 12h3M27 12h3M39 12h6M66 12h9M18 13h3M27 13h3M39 13h6M66 13h9M18 14h3M27 14h3M39 14h6M66 14h9M9 15h18M30 15h3M36 15h3M42 15h9M60 15h6M72 15h3M9 16h18M30 16h3M36 16h3M42 16h9M60 16h6M72 16h3M9 17h18M30 17h3M36 17h3M42 17h9M60 17h6M72 17h3M6 18h3M15 18h3M24 18h6M36 18h6M48 18h3M57 18h3M69 18h3M6 19h3M15 19h3M24 19h6M36 19h6M48 19h3M57 19h3M69 19h3M6 20h3M15 20h3M24 20h6M36 20h6M48 20h3M57 20h3M69 20h3M6 21h9M30 21h6M42 21h9M54 21h3M60 21h9M6 22h9M30 22h6M42 22h9M54 22h3M60 22h9M6 23h9M30 23h6M42 23h9M54 23h3M60 23h9M6 24h3M12 24h3M39 24h3M48 24h9M63 24h3M6 25h3M12 25h3M39 25h3M48 25h9M63 25h3M6 26h3M12 26h3M39 26h3M48 26h9M63 26h3M9 27h3M15 27h3M27 27h12M45 27h6M57 27h6M72 27h9M9 28h3M15 28h3M27 28h12M45 28h6M57 28h6M72 28h9M9 29h3M15 29h3M27 29h12M45 29h6M57 29h6M72 29h9M12 30h15M39 30h21M66 30h6M78 30h3M12 31h15M39 31h21M66 31h6M78 31h3M12 32h15M39 32h21M66 32h6M78 32h3M18 33h3M33 33h6M42 33h3M51 33h3M57 33h9M69 33h3M75 33h3M18 34h3M33 34h6M42 34h3M51 34h3M57 34h9M69 34h3M75 34h3M18 35h3M33 35h6M42 35h3M51 35h3M57 35h9M69 35h3M75 35h3M21 36h12M39 36h3M51 36h6M63 36h12M21 37h12M39 37h3M51 37h6M63 37h12M21 38h12M39 38h3M51 38h6M63 38h12M24 39h3M30 39h3M39 39h3M48 39h3M54 39h3M63 39h3M24 40h3M30 40h3M39 40h3M48 40h3M54 40h3M63 40h3M24 41h3M30 41h3M39 41h3M48 41h3M54 41h3M63 41h3M27 42h3M33 42h3M42 42h3M48 42h12M66 42h3M27 43h3M33 43h3M42 43h3M48 43h12M66 43h3M27 44h3M33 44h3M42 44h3M48 44h12M66 44h3M21 45h6M33 45h12M51 45h3M57 45h9M69 45h3M21 46h6M33 46h12M51 46h3M57 46h9M69 46h3M21 47h6M33 47h12M51 47h3M57 47h9M69 47h3M18 48h3M27 48h3M33 48h3M42 48h6M51 48h6M66 48h6M18 49h3M27 49h3M33 49h3M42 49h6M51 49h6M66 49h6M18 50h3M27 50h3M33 50h3M42 50h6M51 50h6M66 50h6M15 51h3M21 51h3M30 51h3M39 51h3M48 51h12M63 51h3M69 51h3M15 52h3M21 52h3M30 52h3M39 52h3M48 52h12M63 52h3M69 52h3M15 53h3M21 53h3M30 53h3M39 53h3M48 53h12M63 53h3M69 53h3M15 54h18M36 54h3M42 54h3M54 54h18M15 55h18M36 55h3M42 55h3M54 55h18M15 56h18M36 56h3M42 56h3M54 56h18M36 57h21M36 58h21M36 59h21" />
                    <path stroke="#8a79ff" d="M33 3h3M45 3h3M33 4h3M45 4h3M33 5h3M45 5h3M30 6h6M42 6h6M30 7h6M42 7h6M30 8h6M42 8h6M39 9h6M39 10h6M39 11h6M21 12h6M30 12h9M21 13h6M30 13h9M21 14h6M30 14h9M27 15h3M39 15h3M27 16h3M39 16h3M27 17h3M39 17h3M18 18h6M42 18h6M18 19h6M42 19h6M18 20h6M42 20h6M15 21h15M36 21h6M15 22h15M36 22h6M15 23h15M36 23h6M9 24h3M15 24h3M21 24h3M27 24h12M42 24h6M9 25h3M15 25h3M21 25h3M27 25h12M42 25h6M9 26h3M15 26h3M21 26h3M27 26h12M42 26h6M12 27h3M18 27h9M39 27h6M12 28h3M18 28h9M39 28h6M12 29h3M18 29h9M39 29h6M45 33h6M54 33h3M45 34h6M54 34h3M45 35h6M54 35h3M42 36h9M60 36h3M42 37h9M60 37h3M42 38h9M60 38h3M27 39h3M42 39h6M60 39h3M27 40h3M42 40h6M60 40h3M27 41h3M42 41h6M60 41h3M45 42h3M60 42h6M45 43h3M60 43h6M45 44h3M60 44h6M27 45h3M48 45h3M66 45h3M27 46h3M48 46h3M66 46h3M27 47h3M48 47h3M66 47h3M30 48h3M48 48h3M30 49h3M48 49h3M30 50h3M48 50h3" />
                    <path stroke="#800000" d="M33 15h3M33 16h3M33 17h3" />
                    <path stroke="#ffff00" d="M66 15h6M66 16h6M66 17h6M60 18h9M60 19h9M60 20h9M57 21h3M57 22h3M57 23h3M57 24h6M57 25h6M57 26h6M72 30h6M72 31h6M72 32h6M39 33h3M66 33h3M72 33h3M39 34h3M66 34h3M72 34h3M39 35h3M66 35h3M72 35h3M33 36h6M33 37h6M33 38h6M33 39h6M51 39h3M33 40h6M51 40h3M33 41h6M51 41h3M36 42h6M36 43h6M36 44h6" />
                    <path stroke="#ff0000" d="M9 18h6M33 18h3M9 19h6M33 19h3M9 20h6M33 20h3M57 36h3M57 37h3M57 38h3M57 39h3M57 40h3M57 41h3" />
                    <path stroke="#ffffff" d="M30 18h3M30 19h3M30 20h3" />
                    <path stroke="#404040" d="M18 24h3M24 24h3M18 25h3M24 25h3M18 26h3M24 26h3M30 42h3M30 43h3M30 44h3M30 45h3M45 45h3M30 46h3M45 46h3M30 47h3M45 47h3" />
                    <path stroke="#efefef" d="M51 27h6M51 28h6M51 29h6M27 30h12M27 31h12M27 32h12M21 33h12M21 34h12M21 35h12" />
                    <path stroke="#c7c2ef" d="M21 48h6M57 48h9M21 49h6M57 49h9M21 50h6M57 50h9M24 51h6M42 51h6M66 51h3M24 52h6M42 52h6M66 52h3M24 53h6M42 53h6M66 53h3M48 54h6M48 55h6M48 56h6" />
                    <path stroke="#d90067" d="M18 51h3M60 51h3M18 52h3M60 52h3M18 53h3M60 53h3M39 54h3M45 54h3M39 55h3M45 55h3M39 56h3M45 56h3" />
                </g>
                <g id="frame4-[[${id}]]">
                    <path stroke="#000000" d="M36 0h6M45 0h6M36 1h6M45 1h6M36 2h6M45 2h6M33 3h3M39 3h6M48 3h3M33 4h3M39 4h6M48 4h3M33 5h3M39 5h6M48 5h3M30 6h3M39 6h3M48 6h3M30 7h3M39 7h3M48 7h3M30 8h3M39 8h3M48 8h3M21 9h18M45 9h3M21 10h18M45 10h3M21 11h18M45 11h3M18 12h3M24 12h3M39 12h6M63 12h9M18 13h3M24 13h3M39 13h6M63 13h9M18 14h3M24 14h3M39 14h6M63 14h9M9 15h15M27 15h3M33 15h3M42 15h9M57 15h6M69 15h3M9 16h15M27 16h3M33 16h3M42 16h9M57 16h6M69 16h3M9 17h15M27 17h3M33 17h3M42 17h9M57 17h6M69 17h3M6 18h3M15 18h3M21 18h6M33 18h9M48 18h3M54 18h3M66 18h3M6 19h3M15 19h3M21 19h6M33 19h9M48 19h3M54 19h3M66 19h3M6 20h3M15 20h3M21 20h6M33 20h9M48 20h3M54 20h3M66 20h3M6 21h9M27 21h6M42 21h12M57 21h9M6 22h9M27 22h6M42 22h12M57 22h9M6 23h9M27 23h6M42 23h12M57 23h9M6 24h6M39 24h3M48 24h6M60 24h3M72 24h9M6 25h6M39 25h3M48 25h6M60 25h3M72 25h9M6 26h6M39 26h3M48 26h6M60 26h3M72 26h9M9 27h6M27 27h12M45 27h6M54 27h6M66 27h6M78 27h3M9 28h6M27 28h12M45 28h6M54 28h6M66 28h6M78 28h3M9 29h6M27 29h12M45 29h6M54 29h6M66 29h6M78 29h3M12 30h15M39 30h21M63 30h3M69 30h3M75 30h3M12 31h15M39 31h21M63 31h3M69 31h3M75 31h3M12 32h15M39 32h21M63 32h3M69 32h3M75 32h3M18 33h3M33 33h6M42 33h3M51 33h3M57 33h18M18 34h3M33 34h6M42 34h3M51 34h3M57 34h18M18 35h3M33 35h6M42 35h3M51 35h3M57 35h18M21 36h12M39 36h3M51 36h6M63 36h3M21 37h12M39 37h3M51 37h6M63 37h3M21 38h12M39 38h3M51 38h6M63 38h3M24 39h3M30 39h3M39 39h3M48 39h3M54 39h3M63 39h3M24 40h3M30 40h3M39 40h3M48 40h3M54 40h3M63 40h3M24 41h3M30 41h3M39 41h3M48 41h3M54 41h3M63 41h3M27 42h3M33 42h3M42 42h3M48 42h9M66 42h3M27 43h3M33 43h3M42 43h3M48 43h9M66 43h3M27 44h3M33 44h3M42 44h3M48 44h9M66 44h3M27 45h3M36 45h9M48 45h3M57 45h6M69 45h3M27 46h3M36 46h9M48 46h3M57 46h6M69 46h3M27 47h3M36 47h9M48 47h3M57 47h6M69 47h3M24 48h6M36 48h3M45 48h6M60 48h9M72 48h3M24 49h6M36 49h3M45 49h6M60 49h9M72 49h3M24 50h6M36 50h3M45 50h6M60 50h9M72 50h3M21 51h3M30 51h6M39 51h3M51 51h3M57 51h3M69 51h6M21 52h3M30 52h6M39 52h3M51 52h3M57 52h3M69 52h6M21 53h3M30 53h6M39 53h3M51 53h3M57 53h3M69 53h6M18 54h3M24 54h3M33 54h21M57 54h6M66 54h3M72 54h3M18 55h3M24 55h3M33 55h21M57 55h6M66 55h3M72 55h3M18 56h3M24 56h3M33 56h21M57 56h6M66 56h3M72 56h3M18 57h18M57 57h18M18 58h18M57 58h18M18 59h18M57 59h18" />
                    <path stroke="#8a79ff" d="M36 3h3M45 3h3M36 4h3M45 4h3M36 5h3M45 5h3M33 6h6M42 6h6M33 7h6M42 7h6M33 8h6M42 8h6M39 9h6M39 10h6M39 11h6M21 12h3M27 12h12M21 13h3M27 13h12M21 14h3M27 14h12M24 15h3M36 15h6M24 16h3M36 16h6M24 17h3M36 17h6M18 18h3M42 18h6M18 19h3M42 19h6M18 20h3M42 20h6M15 21h12M33 21h9M15 22h12M33 22h9M15 23h12M33 23h9M12 24h3M18 24h3M24 24h15M42 24h6M12 25h3M18 25h3M24 25h15M42 25h6M12 26h3M18 26h3M24 26h15M42 26h6M15 27h12M39 27h6M15 28h12M39 28h6M15 29h12M39 29h6M45 33h6M54 33h3M45 34h6M54 34h3M45 35h6M54 35h3M42 36h9M60 36h3M42 37h9M60 37h3M42 38h9M60 38h3M27 39h3M42 39h6M60 39h3M27 40h3M42 40h6M60 40h3M27 41h3M42 41h6M60 41h3M30 42h3M57 42h6M30 43h3M57 43h6M30 44h3M57 44h6M33 45h3M45 45h3M63 45h6M33 46h3M45 46h3M63 46h6M33 47h3M45 47h3M63 47h6M30 48h3M69 48h3M30 49h3M69 49h3M30 50h3M69 50h3" />
                    <path stroke="#800000" d="M30 15h3M30 16h3M30 17h3" />
                    <path stroke="#ffff00" d="M63 15h6M63 16h6M63 17h6M57 18h9M57 19h9M57 20h9M54 21h3M54 22h3M54 23h3M54 24h6M54 25h6M54 26h6M72 27h6M72 28h6M72 29h6M66 30h3M72 30h3M66 31h3M72 31h3M66 32h3M72 32h3M39 33h3M39 34h3M39 35h3M33 36h6M33 37h6M33 38h6M33 39h6M51 39h3M33 40h6M51 40h3M33 41h6M51 41h3M36 42h6M36 43h6M36 44h6" />
                    <path stroke="#ff0000" d="M9 18h6M30 18h3M9 19h6M30 19h3M9 20h6M30 20h3M57 36h3M57 37h3M57 38h3M57 39h3M57 40h3M57 41h3" />
                    <path stroke="#ffffff" d="M27 18h3M27 19h3M27 20h3" />
                    <path stroke="#404040" d="M15 24h3M21 24h3M15 25h3M21 25h3M15 26h3M21 26h3M45 42h3M63 42h3M45 43h3M63 43h3M45 44h3M63 44h3M30 45h3M30 46h3M30 47h3M33 48h3M33 49h3M33 50h3" />
                    <path stroke="#efefef" d="M51 27h3M51 28h3M51 29h3M27 30h12M27 31h12M27 32h12M21 33h12M21 34h12M21 35h12" />
                    <path stroke="#c7c2ef" d="M39 48h6M39 49h6M39 50h6M24 51h6M45 51h6M60 51h9M24 52h6M45 52h6M60 52h9M24 53h6M45 53h6M60 53h9M27 54h6M69 54h3M27 55h6M69 55h3M27 56h6M69 56h3" />
                    <path stroke="#d90067" d="M36 51h3M42 51h3M36 52h3M42 52h3M36 53h3M42 53h3M21 54h3M63 54h3M21 55h3M63 55h3M21 56h3M63 56h3" />
                </g>
            </g>
        </g>
        <g id="username-[[${id}]]">
            <text style="stroke:white; stroke-width:0.6em">[[${username}]]</text>
            <text style="fill:black">[[${username}]]</text>
        </g>
    </a>
    <style>
        #frame1-[[${id}]] {
            animation: 1s frameToggle infinite;
        }
        #frame2-[[${id}]] {
            animation: 1s frameToggle infinite reverse;
        }
        #frame3-[[${id}]] {
            animation: 1s frameToggle infinite;
        }
        #frame4-[[${id}]] {
            animation: 1s frameToggle infinite reverse;
        }
        #standing-[[${id}]] {
            animation: standingToggle [[${motion.duration}]]s infinite;
        }
        #walking-[[${id}]] {
            animation: walkingToggle [[${motion.duration}]]s infinite;
        }
        #body-[[${id}]] {
            animation: move-body-[[${id}]] [[${motion.duration}]]s infinite;
        }
        #username-[[${id}]] {
            animation: move-username-[[${id}]] [[${motion.duration}]]s infinite;
        }
        @keyframes move-body-[[${id}]] {
            0%, 10% {
                transform: translate([[${motion.positions[0].x}]]%, [[${y}]]%) scaleX([[${motion.positions[0].direction}]]);
            }
            20%, 30% {
                transform: translate([[${motion.positions[1].x}]]%, [[${y}]]%) scaleX([[${motion.positions[1].direction}]]);
            }
            40%, 50% {
                transform: translate([[${motion.positions[2].x}]]%, [[${y}]]%) scaleX([[${motion.positions[2].direction}]]);
            }
            50.01% {
                transform: translate([[${motion.positions[3].x}]]%, [[${y}]]%) scaleX([[${motion.positions[3].direction}]]);
            }
            60%, 70% {
                transform: translate([[${motion.positions[4].x}]]%, [[${y}]]%) scaleX([[${motion.positions[4].direction}]]);
            }
            80%, 100% {
                transform: translate([[${motion.positions[5].x}]]%, [[${y}]]%) scaleX([[${motion.positions[5].direction}]]);
            }
        }
        @keyframes move-username-[[${id}]] {
            0%, 10% {
                transform: translate([[${motion.namePositions[0].x}]]%, [[${y}-1]]%);
            }
            20%, 30% {
                transform: translate([[${motion.namePositions[1].x}]]%, [[${y}-1]]%);
            }
            40%, 50% {
                transform: translate([[${motion.namePositions[2].x}]]%, [[${y}-1]]%);
            }
            50.01% {
                transform: translate([[${motion.namePositions[3].x}]]%, [[${y}-1]]%);
            }
            60%, 70% {
                transform: translate([[${motion.namePositions[4].x}]]%, [[${y}-1]]%);
            }
            80%, 100% {
                transform: translate([[${motion.namePositions[5].x}]]%, [[${y}-1]]%);
            }
        }
    </style>
</svg>
