<svg fill="none" overflow="visible" xmlns="http://www.w3.org/2000/svg">
    <a href="https://github.com/[[${username}]]">
        <g id="body-[[${id}]]">
            <svg viewBox="0 0 100 100" width="100" height="100" x="28" y="41">
                <g id="standing-[[${id}]]">
                    <g id="frame1-[[${id}]]">
                        <path stroke="#000000"
                              d="M15 0h6M27 0h6M15 1h6M27 1h6M15 2h6M27 2h6M12 3h3M18 3h3M24 3h3M30 3h3M12 4h3M18 4h3M24 4h3M30 4h3M12 5h3M18 5h3M24 5h3M30 5h3M9 6h3M15 6h9M30 6h3M9 7h3M15 7h9M30 7h3M9 8h3M15 8h9M30 8h3M6 9h3M30 9h3M6 10h3M30 10h3M6 11h3M30 11h3M6 12h3M21 12h6M33 12h3M6 13h3M21 13h6M33 13h3M6 14h3M21 14h6M33 14h3M3 15h3M9 15h3M18 15h3M24 15h6M33 15h6M3 16h3M9 16h3M18 16h3M24 16h6M33 16h6M3 17h3M9 17h3M18 17h3M24 17h6M33 17h6M3 18h3M33 18h3M39 18h6M3 19h3M33 19h3M39 19h6M3 20h3M33 20h3M39 20h6M3 21h3M33 21h3M42 21h3M3 22h3M33 22h3M42 22h3M3 23h3M33 23h3M42 23h3M6 24h3M30 24h12M6 25h3M30 25h12M6 26h3M30 26h12M9 27h21M9 28h21M9 29h21"/>
                        <path stroke="#f9ec00"
                              d="M15 3h3M27 3h3M15 4h3M27 4h3M15 5h3M27 5h3M12 6h3M24 6h6M12 7h3M24 7h6M12 8h3M24 8h6M9 9h21M9 10h21M9 11h21M9 12h12M27 12h6M9 13h12M27 13h6M9 14h12M27 14h6M12 15h6M30 15h3M12 16h6M30 16h3M12 17h6M30 17h3M6 18h27M36 18h3M6 19h27M36 19h3M6 20h27M36 20h3M6 21h27M6 22h27M6 23h27M9 24h21M9 25h21M9 26h21"/>
                        <path stroke="#ffffff" d="M6 15h3M21 15h3M6 16h3M21 16h3M6 17h3M21 17h3"/>
                        <path stroke="#9b5fde" d="M36 21h6M36 22h6M36 23h6"/>
                    </g>
                    <g id="frame2-[[${id}]]">
                        <path stroke="#000000"
                              d="M15 3h6M27 3h6M15 4h6M27 4h6M15 5h6M27 5h6M12 6h3M18 6h3M24 6h3M30 6h3M12 7h3M18 7h3M24 7h3M30 7h3M12 8h3M18 8h3M24 8h3M30 8h3M9 9h3M15 9h9M30 9h3M9 10h3M15 10h9M30 10h3M9 11h3M15 11h9M30 11h3M6 12h3M30 12h3M36 12h6M6 13h3M30 13h3M36 13h6M6 14h3M30 14h3M36 14h6M6 15h3M21 15h6M33 15h3M42 15h3M6 16h3M21 16h6M33 16h3M42 16h3M6 17h3M21 17h6M33 17h3M42 17h3M3 18h3M9 18h3M18 18h3M24 18h6M33 18h3M39 18h6M3 19h3M9 19h3M18 19h3M24 19h6M33 19h3M39 19h6M3 20h3M9 20h3M18 20h3M24 20h6M33 20h3M39 20h6M3 21h3M33 21h6M3 22h3M33 22h6M3 23h3M33 23h6M6 24h3M30 24h6M6 25h3M30 25h6M6 26h3M30 26h6M9 27h21M9 28h21M9 29h21"/>
                        <path stroke="#f9ec00"
                              d="M15 6h3M27 6h3M15 7h3M27 7h3M15 8h3M27 8h3M12 9h3M24 9h6M12 10h3M24 10h6M12 11h3M24 11h6M9 12h21M9 13h21M9 14h21M9 15h12M27 15h6M9 16h12M27 16h6M9 17h12M27 17h6M12 18h6M30 18h3M36 18h3M12 19h6M30 19h3M36 19h3M12 20h6M30 20h3M36 20h3M6 21h27M6 22h27M6 23h27M9 24h21M9 25h21M9 26h21"/>
                        <path stroke="#9b5fde" d="M36 15h6M36 16h6M36 17h6"/>
                        <path stroke="#ffffff" d="M6 18h3M21 18h3M6 19h3M21 19h3M6 20h3M21 20h3"/>
                    </g>
                </g>
                <g id="walking-[[${id}]]">
                    <g id="frame3-[[${id}]]">
                        <path stroke="#000000"
                              d="M15 3h6M27 3h6M15 4h6M27 4h6M15 5h6M27 5h6M12 6h3M18 6h3M24 6h3M30 6h3M12 7h3M18 7h3M24 7h3M30 7h3M12 8h3M18 8h3M24 8h3M30 8h3M9 9h3M15 9h9M30 9h3M9 10h3M15 10h9M30 10h3M9 11h3M15 11h9M30 11h3M6 12h3M30 12h3M36 12h6M6 13h3M30 13h3M36 13h6M6 14h3M30 14h3M36 14h6M6 15h3M21 15h6M33 15h3M42 15h3M6 16h3M21 16h6M33 16h3M42 16h3M6 17h3M21 17h6M33 17h3M42 17h3M3 18h3M9 18h3M18 18h3M24 18h6M33 18h3M39 18h6M3 19h3M9 19h3M18 19h3M24 19h6M33 19h3M39 19h6M3 20h3M9 20h3M18 20h3M24 20h6M33 20h3M39 20h6M3 21h3M33 21h6M3 22h3M33 22h6M3 23h3M33 23h6M6 24h3M30 24h6M6 25h3M30 25h6M6 26h3M30 26h6M9 27h21M9 28h21M9 29h21"/>
                        <path stroke="#f9ec00"
                              d="M15 6h3M27 6h3M15 7h3M27 7h3M15 8h3M27 8h3M12 9h3M24 9h6M12 10h3M24 10h6M12 11h3M24 11h6M9 12h21M9 13h21M9 14h21M9 15h12M27 15h6M9 16h12M27 16h6M9 17h12M27 17h6M12 18h6M30 18h3M36 18h3M12 19h6M30 19h3M36 19h3M12 20h6M30 20h3M36 20h3M6 21h27M6 22h27M6 23h27M9 24h21M9 25h21M9 26h21"/>
                        <path stroke="#9b5fde" d="M36 15h6M36 16h6M36 17h6"/>
                        <path stroke="#ffffff" d="M6 18h3M21 18h3M6 19h3M21 19h3M6 20h3M21 20h3"/>
                    </g>
                    <g id="frame4-[[${id}]]">
                        <path stroke="#000000"
                              d="M15 3h6M27 3h6M15 4h6M27 4h6M15 5h6M27 5h6M12 6h3M18 6h3M24 6h3M30 6h3M12 7h3M18 7h3M24 7h3M30 7h3M12 8h3M18 8h3M24 8h3M30 8h3M9 9h3M15 9h9M30 9h3M9 10h3M15 10h9M30 10h3M9 11h3M15 11h9M30 11h3M6 12h3M30 12h3M6 13h3M30 13h3M6 14h3M30 14h3M6 15h3M18 15h6M33 15h6M6 16h3M18 16h6M33 16h6M6 17h3M18 17h6M33 17h6M3 18h6M15 18h3M21 18h6M33 18h3M39 18h6M3 19h6M15 19h3M21 19h6M33 19h3M39 19h6M3 20h6M15 20h3M21 20h6M33 20h3M39 20h6M3 21h3M33 21h3M42 21h3M3 22h3M33 22h3M42 22h3M3 23h3M33 23h3M42 23h3M6 24h3M30 24h12M6 25h3M30 25h12M6 26h3M30 26h12M9 27h21M9 28h21M9 29h21"/>
                        <path stroke="#f9ec00"
                              d="M15 6h3M27 6h3M15 7h3M27 7h3M15 8h3M27 8h3M12 9h3M24 9h6M12 10h3M24 10h6M12 11h3M24 11h6M9 12h21M9 13h21M9 14h21M9 15h9M24 15h9M9 16h9M24 16h9M9 17h9M24 17h9M9 18h6M27 18h6M36 18h3M9 19h6M27 19h6M36 19h3M9 20h6M27 20h6M36 20h3M6 21h27M6 22h27M6 23h27M9 24h21M9 25h21M9 26h21"/>
                        <path stroke="rgba(255,255,255,0.00392156862745098)"
                              d="M39 15h6M39 16h6M39 17h6M42 24h3M42 25h3M42 26h3"/>
                        <path stroke="#ffffff" d="M18 18h3M18 19h3M18 20h3"/>
                        <path stroke="#9b5fde" d="M36 21h6M36 22h6M36 23h6"/>
                    </g>
                </g>
            </svg>
            <svg viewBox="0 0 100 30" width="100" height="30" x="0" y="0">
                <g id="username-[[${id}]]">
                    <rect x="0" y="0" width="100" height="20" fill="black" fill-opacity="0.8" rx="5"/>
                    <svg x="4" y="2.5" width="15" height="15" viewBox="0 0 100 100">
                        <path fill-rule="evenodd" clip-rule="evenodd"
                              d="M48.854 0C21.839 0 0 22 0 49.217c0 21.756 13.993 40.172 33.405 46.69 2.427.49 3.316-1.059 3.316-2.362 0-1.141-.08-5.052-.08-9.127-13.59 2.934-16.42-5.867-16.42-5.867-2.184-5.704-5.42-7.17-5.42-7.17-4.448-3.015.324-3.015.324-3.015 4.934.326 7.523 5.052 7.523 5.052 4.367 7.496 11.404 5.378 14.235 4.074.404-3.178 1.699-5.378 3.074-6.6-10.839-1.141-22.243-5.378-22.243-24.283 0-5.378 1.94-9.778 5.014-13.2-.485-1.222-2.184-6.275.486-13.038 0 0 4.125-1.304 13.426 5.052a46.97 46.97 0 0 1 12.214-1.63c4.125 0 8.33.571 12.213 1.63 9.302-6.356 13.427-5.052 13.427-5.052 2.67 6.763.97 11.816.485 13.038 3.155 3.422 5.015 7.822 5.015 13.2 0 18.905-11.404 23.06-22.324 24.283 1.78 1.548 3.316 4.481 3.316 9.126 0 6.6-.08 11.897-.08 13.526 0 1.304.89 2.853 3.316 2.364 19.412-6.52 33.405-24.935 33.405-46.691C97.707 22 75.788 0 48.854 0z"
                              fill="#fff"/>
                    </svg>
                    <text x="25" y="11" dominant-baseline="middle" style="fill:white" font-size="13">
                        [[${#strings.abbreviate(username, 12)}]]
                    </text>
                    <rect x="0" y="23" width="[[${exp}]]" height="2" fill="#48ff00" rx="1"/>
                </g>
            </svg>
        </g>
    </a>
    <style>
        #frame1-[[${id}]] {
        animation: 1s frameToggle infinite;
        }
        #frame2-[[${id}]] {
        animation: 1s frameToggle infinite reverse;
        }
        #frame3-[[${id}]] {
        animation: 1s frameToggle infinite;
        }
        #frame4-[[${id}]] {
        animation: 1s frameToggle infinite reverse;
        }
        #standing-[[${id}]] {
        animation: standingToggle [[${motion.duration}]]s infinite;
        }
        #walking-[[${id}]] {
        animation: walkingToggle [[${motion.duration}]]s infinite;
        }
        #body-[[${id}]] {
        animation: move-body-[[${id}]] [[${motion.duration}]]s infinite;
        }
        #username-[[${id}]] {
        animation: move-username-[[${id}]] [[${motion.duration}]]s infinite;
        }
        @keyframes move-body-[[${id}]] {
        0%, 10% {
        transform: translate([[${motion.positions[0].x}]]%, [[${y}]]%) scaleX([[${motion.positions[0].direction}]]);
        }
        20%, 30% {
        transform: translate([[${motion.positions[1].x}]]%, [[${y}]]%) scaleX([[${motion.positions[1].direction}]]);
        }
        40%, 50% {
        transform: translate([[${motion.positions[2].x}]]%, [[${y}]]%) scaleX([[${motion.positions[2].direction}]]);
        }
        50.01% {
        transform: translate([[${motion.positions[3].x}]]%, [[${y}]]%) scaleX([[${motion.positions[3].direction}]]);
        }
        60%, 70% {
        transform: translate([[${motion.positions[4].x}]]%, [[${y}]]%) scaleX([[${motion.positions[4].direction}]]);
        }
        80%, 100% {
        transform: translate([[${motion.positions[5].x}]]%, [[${y}]]%) scaleX([[${motion.positions[5].direction}]]);
        }
        }
        @keyframes move-username-[[${id}]] {
        0%, 10% {
        transform: scaleX([[${motion.positions[0].direction}]])
        translateX([[${motion.positions[0].direction > 0 ? 0: -100}]]%);
        }
        20%, 30% {
        transform: scaleX([[${motion.positions[1].direction}]])
        translateX([[${motion.positions[1].direction > 0 ? 0: -100}]]%);
        }
        40%, 50% {
        transform: scaleX([[${motion.positions[2].direction}]])
        translateX([[${motion.positions[2].direction > 0 ? 0: -100}]]%);
        }
        50.01% {
        transform: scaleX([[${motion.positions[3].direction}]])
        translateX([[${motion.positions[3].direction > 0 ? 0: -100}]]%);
        }
        60%, 70% {
        transform: scaleX([[${motion.positions[4].direction}]])
        translateX([[${motion.positions[4].direction > 0 ? 0: -100}]]%);
        }
        80%, 100% {
        transform: scaleX([[${motion.positions[5].direction}]])
        translateX([[${motion.positions[5].direction > 0 ? 0: -100}]]%);
        }
        }
    </style>
</svg>
