<svg fill="none" overflow="visible" xmlns="http://www.w3.org/2000/svg">
    <a href="https://github.com/[[${username}]]">
        <g id="body-[[${id}]]">
            <svg viewBox="0 0 100 100" width="100" height="100" x="27" y="33">
                <g id="standing-[[${id}]]">
                    <g id="frame1-[[${id}]]">
                        <path stroke="#000000"
                              d="M27 0h6M27 1h6M27 2h6M24 3h3M30 3h6M24 4h3M30 4h6M24 5h3M30 5h6M15 6h6M24 6h6M15 7h6M24 7h6M15 8h6M24 8h6M12 9h3M21 9h3M30 9h3M12 10h3M21 10h3M30 10h3M12 11h3M21 11h3M30 11h3M9 12h27M9 13h27M9 14h27M6 15h3M21 15h3M27 15h3M36 15h3M6 16h3M21 16h3M27 16h3M36 16h3M6 17h3M21 17h3M27 17h3M36 17h3M3 18h3M12 18h9M27 18h6M39 18h3M3 19h3M12 19h9M27 19h6M39 19h3M3 20h3M12 20h9M27 20h6M39 20h3M3 21h9M15 21h3M24 21h3M33 21h9M3 22h9M15 22h3M24 22h3M33 22h9M3 23h9M15 23h3M24 23h3M33 23h9M9 24h3M15 24h9M27 24h3M33 24h3M9 25h3M15 25h9M27 25h3M33 25h3M9 26h3M15 26h9M27 26h3M33 26h3M9 27h6M24 27h6M33 27h3M9 28h6M24 28h6M33 28h3M9 29h6M24 29h6M33 29h3M12 30h3M30 30h3M12 31h3M30 31h3M12 32h3M30 32h3M15 33h18M15 34h18M15 35h18M12 36h6M27 36h3M33 36h3M12 37h6M27 37h3M33 37h3M12 38h6M27 38h3M33 38h3M9 39h3M15 39h3M30 39h3M36 39h3M9 40h3M15 40h3M30 40h3M36 40h3M9 41h3M15 41h3M30 41h3M36 41h3M6 42h3M12 42h3M18 42h9M30 42h3M39 42h3M6 43h3M12 43h3M18 43h9M30 43h3M39 43h3M6 44h3M12 44h3M18 44h9M30 44h3M39 44h3M3 45h3M9 45h3M18 45h6M33 45h3M42 45h3M3 46h3M9 46h3M18 46h6M33 46h3M42 46h3M3 47h3M9 47h3M18 47h6M33 47h3M42 47h3M3 48h42M3 49h42M3 50h42"/>
                        <path stroke="#ff3577"
                              d="M15 9h3M27 9h3M15 10h3M27 10h3M15 11h3M27 11h3M9 15h9M30 15h6M9 16h9M30 16h6M9 17h9M30 17h6M6 18h6M21 18h6M33 18h6M6 19h6M21 19h6M33 19h6M6 20h6M21 20h6M33 20h6M18 21h6M18 22h6M18 23h6"/>
                        <path stroke="#ffff00"
                              d="M18 9h3M24 9h3M18 10h3M24 10h3M18 11h3M24 11h3M18 15h3M24 15h3M18 16h3M24 16h3M18 17h3M24 17h3"/>
                        <path stroke="#86e835"
                              d="M12 21h3M27 21h6M12 22h3M27 22h6M12 23h3M27 23h6M30 24h3M30 25h3M30 26h3M15 27h9M30 27h3M15 28h9M30 28h3M15 29h9M30 29h3M15 30h15M15 31h15M15 32h15M18 36h9M30 36h3M18 37h9M30 37h3M18 38h9M30 38h3M12 39h3M18 39h12M33 39h3M12 40h3M18 40h12M33 40h3M12 41h3M18 41h12M33 41h3M9 42h3M15 42h3M27 42h3M33 42h6M9 43h3M15 43h3M27 43h3M33 43h6M9 44h3M15 44h3M27 44h3M33 44h6"/>
                        <path stroke="#ffffff" d="M12 24h3M24 24h3M12 25h3M24 25h3M12 26h3M24 26h3"/>
                        <path stroke="#8080ff" d="M6 45h3M36 45h6M6 46h3M36 46h6M6 47h3M36 47h6"/>
                        <path stroke="#a05925" d="M12 45h6M24 45h9M12 46h6M24 46h9M12 47h6M24 47h9"/>
                    </g>
                    <g id="frame2-[[${id}]]">
                        <path stroke="#000000"
                              d="M24 0h6M24 1h6M24 2h6M21 3h3M27 3h3M21 4h3M27 4h3M21 5h3M27 5h3M21 6h3M21 7h3M21 8h3M15 9h6M24 9h6M15 10h6M24 10h6M15 11h6M24 11h6M12 12h3M18 12h9M30 12h3M12 13h3M18 13h9M30 13h3M12 14h3M18 14h9M30 14h3M6 15h18M27 15h12M6 16h18M27 16h12M6 17h18M27 17h12M3 18h3M18 18h3M27 18h3M39 18h3M3 19h3M18 19h3M27 19h3M39 19h3M3 20h3M18 20h3M27 20h3M39 20h3M3 21h15M24 21h18M3 22h15M24 22h18M3 23h15M24 23h18M9 24h3M15 24h9M33 24h3M9 25h3M15 25h9M33 25h3M9 26h3M15 26h9M33 26h3M9 27h3M27 27h3M33 27h3M9 28h3M27 28h3M33 28h3M9 29h3M27 29h3M33 29h3M9 30h6M24 30h6M33 30h3M9 31h6M24 31h6M33 31h3M9 32h6M24 32h6M33 32h3M12 33h3M30 33h3M12 34h3M30 34h3M12 35h3M30 35h3M12 36h18M33 36h3M12 37h18M33 37h3M12 38h18M33 38h3M6 39h6M15 39h3M30 39h3M36 39h6M6 40h6M15 40h3M30 40h3M36 40h6M6 41h6M15 41h3M30 41h3M36 41h6M3 42h3M12 42h3M18 42h9M30 42h3M42 42h3M3 43h3M12 43h3M18 43h9M30 43h3M42 43h3M3 44h3M12 44h3M18 44h9M30 44h3M42 44h3M3 45h9M18 45h6M33 45h12M3 46h9M18 46h6M33 46h12M3 47h9M18 47h6M33 47h12M9 48h27M9 49h27M9 50h27"/>
                        <path stroke="#ff3577"
                              d="M15 12h3M27 12h3M15 13h3M27 13h3M15 14h3M27 14h3M6 18h12M21 18h6M30 18h9M6 19h12M21 19h6M30 19h9M6 20h12M21 20h6M30 20h9M18 21h6M18 22h6M18 23h6"/>
                        <path stroke="#ffff00" d="M24 15h3M24 16h3M24 17h3"/>
                        <path stroke="#86e835"
                              d="M12 24h3M24 24h9M12 25h3M24 25h9M12 26h3M24 26h9M15 27h9M30 27h3M15 28h9M30 28h3M15 29h9M30 29h3M15 30h9M30 30h3M15 31h9M30 31h3M15 32h9M30 32h3M15 33h15M15 34h15M15 35h15M30 36h3M30 37h3M30 38h3M12 39h3M18 39h12M33 39h3M12 40h3M18 40h12M33 40h3M12 41h3M18 41h12M33 41h3M9 42h3M15 42h3M27 42h3M33 42h3M9 43h3M15 43h3M27 43h3M33 43h3M9 44h3M15 44h3M27 44h3M33 44h3"/>
                        <path stroke="#ffffff" d="M12 27h3M24 27h3M12 28h3M24 28h3M12 29h3M24 29h3"/>
                        <path stroke="#8080ff" d="M6 42h3M36 42h6M6 43h3M36 43h6M6 44h3M36 44h6"/>
                        <path stroke="#a05925" d="M12 45h6M24 45h9M12 46h6M24 46h9M12 47h6M24 47h9"/>
                    </g>
                </g>
                <g id="walking-[[${id}]]">
                    <g id="frame3-[[${id}]]">
                        <path stroke="#000000"
                              d="M27 0h6M27 1h6M27 2h6M24 3h3M33 3h3M24 4h3M33 4h3M24 5h3M33 5h3M15 6h6M24 6h6M15 7h6M24 7h6M15 8h6M24 8h6M12 9h3M21 9h3M30 9h3M12 10h3M21 10h3M30 10h3M12 11h3M21 11h3M30 11h3M9 12h27M9 13h27M9 14h27M6 15h3M21 15h3M27 15h3M36 15h3M6 16h3M21 16h3M27 16h3M36 16h3M6 17h3M21 17h3M27 17h3M36 17h3M3 18h3M12 18h9M27 18h6M39 18h3M3 19h3M12 19h9M27 19h6M39 19h3M3 20h3M12 20h9M27 20h6M39 20h3M3 21h9M15 21h3M24 21h3M33 21h9M3 22h9M15 22h3M24 22h3M33 22h9M3 23h9M15 23h3M24 23h3M33 23h9M9 24h3M15 24h9M27 24h3M33 24h3M9 25h3M15 25h9M27 25h3M33 25h3M9 26h3M15 26h9M27 26h3M33 26h3M9 27h6M24 27h6M33 27h3M9 28h6M24 28h6M33 28h3M9 29h6M24 29h6M33 29h3M12 30h3M30 30h3M12 31h3M30 31h3M12 32h3M30 32h3M15 33h18M15 34h18M15 35h18M15 36h3M27 36h3M33 36h3M15 37h3M27 37h3M33 37h3M15 38h3M27 38h3M33 38h3M12 39h3M21 39h3M30 39h3M36 39h3M12 40h3M21 40h3M30 40h3M36 40h3M12 41h3M21 41h3M30 41h3M36 41h3M9 42h3M18 42h9M30 42h3M39 42h3M9 43h3M18 43h9M30 43h3M39 43h3M9 44h3M18 44h9M30 44h3M39 44h3M6 45h18M33 45h9M6 46h18M33 46h9M6 47h18M33 47h9M6 48h9M21 48h15M6 49h9M21 49h15M6 50h9M21 50h15"/>
                        <path stroke="#ff3577"
                              d="M15 9h3M27 9h3M15 10h3M27 10h3M15 11h3M27 11h3M9 15h9M30 15h6M9 16h9M30 16h6M9 17h9M30 17h6M6 18h6M21 18h6M33 18h6M6 19h6M21 19h6M33 19h6M6 20h6M21 20h6M33 20h6M18 21h6M18 22h6M18 23h6"/>
                        <path stroke="#ffff00"
                              d="M18 9h3M24 9h3M18 10h3M24 10h3M18 11h3M24 11h3M18 15h3M24 15h3M18 16h3M24 16h3M18 17h3M24 17h3"/>
                        <path stroke="#86e835"
                              d="M12 21h3M27 21h6M12 22h3M27 22h6M12 23h3M27 23h6M30 24h3M30 25h3M30 26h3M15 27h9M30 27h3M15 28h9M30 28h3M15 29h9M30 29h3M15 30h15M15 31h15M15 32h15M18 36h9M30 36h3M18 37h9M30 37h3M18 38h9M30 38h3M15 39h6M24 39h6M33 39h3M15 40h6M24 40h6M33 40h3M15 41h6M24 41h6M33 41h3M27 42h3M27 43h3M27 44h3"/>
                        <path stroke="#ffffff" d="M12 24h3M24 24h3M12 25h3M24 25h3M12 26h3M24 26h3"/>
                        <path stroke="#a05925" d="M12 42h6M12 43h6M12 44h6M24 45h9M24 46h9M24 47h9"/>
                        <path stroke="#8080ff" d="M33 42h6M33 43h6M33 44h6"/>
                    </g>
                    <g id="frame4-[[${id}]]">
                        <path stroke="#000000"
                              d="M27 0h6M27 1h6M27 2h6M24 3h3M30 3h6M24 4h3M30 4h6M24 5h3M30 5h6M15 6h6M24 6h6M15 7h6M24 7h6M15 8h6M24 8h6M12 9h3M18 9h9M30 9h3M12 10h3M18 10h9M30 10h3M12 11h3M18 11h9M30 11h3M6 12h18M27 12h12M6 13h18M27 13h12M6 14h18M27 14h12M3 15h3M18 15h3M27 15h3M39 15h3M3 16h3M18 16h3M27 16h3M39 16h3M3 17h3M18 17h3M27 17h3M39 17h3M3 18h15M24 18h18M3 19h15M24 19h18M3 20h15M24 20h18M9 21h3M15 21h9M33 21h3M9 22h3M15 22h9M33 22h3M9 23h3M15 23h9M33 23h3M9 24h3M24 24h3M33 24h3M9 25h3M24 25h3M33 25h3M9 26h3M24 26h3M33 26h3M9 27h3M21 27h6M33 27h3M9 28h3M21 28h6M33 28h3M9 29h3M21 29h6M33 29h3M12 30h3M30 30h3M12 31h3M30 31h3M12 32h3M30 32h3M15 33h18M15 34h18M15 35h18M12 36h6M27 36h3M33 36h3M12 37h6M27 37h3M33 37h3M12 38h6M27 38h3M33 38h3M6 39h6M15 39h3M21 39h3M30 39h3M36 39h3M6 40h6M15 40h3M21 40h3M30 40h3M36 40h3M6 41h6M15 41h3M21 41h3M30 41h3M36 41h3M3 42h3M12 42h9M30 42h3M39 42h3M3 43h3M12 43h9M30 43h3M39 43h3M3 44h3M12 44h9M30 44h3M39 44h3M3 45h12M18 45h18M42 45h3M3 46h12M18 46h18M42 46h3M3 47h12M18 47h18M42 47h3M12 48h12M33 48h12M12 49h12M33 49h12M12 50h12M33 50h12"/>
                        <path stroke="#ff3577"
                              d="M15 9h3M27 9h3M15 10h3M27 10h3M15 11h3M27 11h3M6 15h12M21 15h6M30 15h9M6 16h12M21 16h6M30 16h9M6 17h12M21 17h6M30 17h9M18 18h6M18 19h6M18 20h6"/>
                        <path stroke="#ffff00" d="M24 12h3M24 13h3M24 14h3"/>
                        <path stroke="#86e835"
                              d="M12 21h3M24 21h9M12 22h3M24 22h9M12 23h3M24 23h9M12 24h9M27 24h6M12 25h9M27 25h6M12 26h9M27 26h6M12 27h9M27 27h6M12 28h9M27 28h6M12 29h9M27 29h6M15 30h15M15 31h15M15 32h15M18 36h9M30 36h3M18 37h9M30 37h3M18 38h9M30 38h3M12 39h3M18 39h3M24 39h6M33 39h3M12 40h3M18 40h3M24 40h6M33 40h3M12 41h3M18 41h3M24 41h6M33 41h3M33 42h6M33 43h6M33 44h6"/>
                        <path stroke="#ffffff" d="M21 24h3M21 25h3M21 26h3"/>
                        <path stroke="#8080ff" d="M6 42h6M6 43h6M6 44h6M36 45h6M36 46h6M36 47h6"/>
                        <path stroke="#a05925" d="M21 42h9M21 43h9M21 44h9M15 45h3M15 46h3M15 47h3"/>
                    </g>
                </g>
            </svg>
            <svg viewBox="0 0 100 30" width="100" height="30" x="0" y="0">
                <g id="username-[[${id}]]">
                    <rect x="0" y="0" width="100" height="20" fill="black" fill-opacity="0.8" rx="5"/>
                    <svg x="4" y="2.5" width="15" height="15" viewBox="0 0 100 100">
                        <path fill-rule="evenodd" clip-rule="evenodd"
                              d="M48.854 0C21.839 0 0 22 0 49.217c0 21.756 13.993 40.172 33.405 46.69 2.427.49 3.316-1.059 3.316-2.362 0-1.141-.08-5.052-.08-9.127-13.59 2.934-16.42-5.867-16.42-5.867-2.184-5.704-5.42-7.17-5.42-7.17-4.448-3.015.324-3.015.324-3.015 4.934.326 7.523 5.052 7.523 5.052 4.367 7.496 11.404 5.378 14.235 4.074.404-3.178 1.699-5.378 3.074-6.6-10.839-1.141-22.243-5.378-22.243-24.283 0-5.378 1.94-9.778 5.014-13.2-.485-1.222-2.184-6.275.486-13.038 0 0 4.125-1.304 13.426 5.052a46.97 46.97 0 0 1 12.214-1.63c4.125 0 8.33.571 12.213 1.63 9.302-6.356 13.427-5.052 13.427-5.052 2.67 6.763.97 11.816.485 13.038 3.155 3.422 5.015 7.822 5.015 13.2 0 18.905-11.404 23.06-22.324 24.283 1.78 1.548 3.316 4.481 3.316 9.126 0 6.6-.08 11.897-.08 13.526 0 1.304.89 2.853 3.316 2.364 19.412-6.52 33.405-24.935 33.405-46.691C97.707 22 75.788 0 48.854 0z"
                              fill="#fff"/>
                    </svg>
                    <text x="25" y="11" dominant-baseline="middle" style="fill:white" font-size="13">
                        [[${#strings.abbreviate(username, 12)}]]
                    </text>
                    <rect x="0" y="23" width="[[${exp}]]" height="2" fill="#48ff00" rx="1"/>
                </g>
            </svg>
        </g>
    </a>
    <style>
        #frame1-[[${id}]] {
        animation: 1s frameToggle infinite;
        }
        #frame2-[[${id}]] {
        animation: 1s frameToggle infinite reverse;
        }
        #frame3-[[${id}]] {
        animation: 1s frameToggle infinite;
        }
        #frame4-[[${id}]] {
        animation: 1s frameToggle infinite reverse;
        }
        #standing-[[${id}]] {
        animation: standingToggle [[${motion.duration}]]s infinite;
        }
        #walking-[[${id}]] {
        animation: walkingToggle [[${motion.duration}]]s infinite;
        }
        #body-[[${id}]] {
        animation: move-body-[[${id}]] [[${motion.duration}]]s infinite;
        }
        #username-[[${id}]] {
        animation: move-username-[[${id}]] [[${motion.duration}]]s infinite;
        }
        @keyframes move-body-[[${id}]] {
        0%, 10% {
        transform: translate([[${motion.positions[0].x}]]%, [[${y}]]%) scaleX([[${motion.positions[0].direction}]]);
        }
        20%, 30% {
        transform: translate([[${motion.positions[1].x}]]%, [[${y}]]%) scaleX([[${motion.positions[1].direction}]]);
        }
        40%, 50% {
        transform: translate([[${motion.positions[2].x}]]%, [[${y}]]%) scaleX([[${motion.positions[2].direction}]]);
        }
        50.01% {
        transform: translate([[${motion.positions[3].x}]]%, [[${y}]]%) scaleX([[${motion.positions[3].direction}]]);
        }
        60%, 70% {
        transform: translate([[${motion.positions[4].x}]]%, [[${y}]]%) scaleX([[${motion.positions[4].direction}]]);
        }
        80%, 100% {
        transform: translate([[${motion.positions[5].x}]]%, [[${y}]]%) scaleX([[${motion.positions[5].direction}]]);
        }
        }
        @keyframes move-username-[[${id}]] {
        0%, 10% {
        transform: scaleX([[${motion.positions[0].direction}]])
        translateX([[${motion.positions[0].direction > 0 ? 0: -100}]]%);
        }
        20%, 30% {
        transform: scaleX([[${motion.positions[1].direction}]])
        translateX([[${motion.positions[1].direction > 0 ? 0: -100}]]%);
        }
        40%, 50% {
        transform: scaleX([[${motion.positions[2].direction}]])
        translateX([[${motion.positions[2].direction > 0 ? 0: -100}]]%);
        }
        50.01% {
        transform: scaleX([[${motion.positions[3].direction}]])
        translateX([[${motion.positions[3].direction > 0 ? 0: -100}]]%);
        }
        60%, 70% {
        transform: scaleX([[${motion.positions[4].direction}]])
        translateX([[${motion.positions[4].direction > 0 ? 0: -100}]]%);
        }
        80%, 100% {
        transform: scaleX([[${motion.positions[5].direction}]])
        translateX([[${motion.positions[5].direction > 0 ? 0: -100}]]%);
        }
        }
    </style>
</svg>
