<svg fill="none" overflow="visible" xmlns="http://www.w3.org/2000/svg">
    <a href="https://github.com/[[${username}]]">
        <g id="body-[[${id}]]">
            <svg viewBox="0 0 100 100" width="100" height="100" x="-3" y="13">
                <g id="frame1-[[${id}]]">
                    <path stroke="#000000"
                          d="M33 0h6M84 0h9M33 1h6M84 1h9M33 2h6M84 2h9M33 3h3M39 3h3M72 3h12M90 3h3M33 4h3M39 4h3M72 4h12M90 4h3M33 5h3M39 5h3M72 5h12M90 5h3M36 6h3M42 6h3M66 6h6M87 6h3M36 7h3M42 7h3M66 7h6M87 7h3M36 8h3M42 8h3M66 8h6M87 8h3M36 9h3M42 9h3M63 9h3M81 9h6M36 10h3M42 10h3M63 10h3M81 10h6M36 11h3M42 11h3M63 11h3M81 11h6M30 12h6M45 12h3M60 12h3M75 12h6M87 12h9M30 13h6M45 13h3M60 13h3M75 13h6M87 13h9M30 14h6M45 14h3M60 14h3M75 14h6M87 14h9M30 15h3M45 15h3M60 15h3M93 15h3M30 16h3M45 16h3M60 16h3M93 16h3M30 17h3M45 17h3M60 17h3M93 17h3M33 18h3M48 18h3M57 18h3M87 18h6M33 19h3M48 19h3M57 19h3M87 19h6M33 20h3M48 20h3M57 20h3M87 20h6M36 21h3M48 21h3M57 21h3M72 21h15M36 22h3M48 22h3M57 22h3M72 22h15M36 23h3M48 23h3M57 23h3M72 23h15M30 24h12M48 24h3M57 24h3M84 24h9M30 25h12M48 25h3M57 25h3M84 25h9M30 26h12M48 26h3M57 26h3M84 26h9M27 27h9M39 27h3M51 27h6M69 27h6M90 27h3M27 28h9M39 28h3M51 28h6M69 28h6M90 28h3M27 29h9M39 29h3M51 29h6M69 29h6M90 29h3M27 30h3M39 30h9M51 30h6M75 30h15M27 31h3M39 31h9M51 31h6M75 31h15M27 32h3M39 32h9M51 32h6M75 32h15M24 33h3M33 33h6M45 33h3M54 33h3M66 33h3M78 33h3M24 34h3M33 34h6M45 34h3M54 34h3M66 34h3M78 34h3M24 35h3M33 35h6M45 35h3M54 35h3M66 35h3M78 35h3M18 36h15M42 36h3M51 36h3M69 36h6M81 36h3M18 37h15M42 37h3M51 37h3M69 37h6M81 37h3M18 38h15M42 38h3M51 38h3M69 38h6M81 38h3M15 39h12M33 39h3M39 39h12M60 39h6M69 39h3M75 39h9M15 40h12M33 40h3M39 40h12M60 40h6M69 40h3M75 40h9M15 41h12M33 41h3M39 41h12M60 41h6M69 41h3M75 41h9M12 42h9M27 42h3M33 42h3M45 42h3M60 42h3M66 42h6M81 42h9M12 43h9M27 43h3M33 43h3M45 43h3M60 43h3M66 43h6M81 43h9M12 44h9M27 44h3M33 44h3M45 44h3M60 44h3M66 44h6M81 44h9M6 45h6M24 45h3M36 45h9M57 45h3M72 45h3M78 45h3M87 45h9M6 46h6M24 46h3M36 46h9M57 46h3M72 46h3M78 46h3M87 46h9M6 47h6M24 47h3M36 47h9M57 47h3M72 47h3M78 47h3M87 47h9M6 48h3M21 48h3M36 48h3M45 48h3M60 48h3M75 48h3M93 48h3M6 49h3M21 49h3M36 49h3M45 49h3M60 49h3M75 49h3M93 49h3M6 50h3M21 50h3M36 50h3M45 50h3M60 50h3M75 50h3M93 50h3M6 51h3M30 51h12M48 51h3M57 51h6M75 51h6M96 51h3M6 52h3M30 52h12M48 52h3M57 52h6M75 52h6M96 52h3M6 53h3M30 53h12M48 53h3M57 53h6M75 53h6M96 53h3M6 54h3M24 54h6M36 54h3M42 54h9M60 54h3M78 54h3M99 54h3M6 55h3M24 55h6M36 55h3M42 55h9M60 55h3M78 55h3M99 55h3M6 56h3M24 56h6M36 56h3M42 56h9M60 56h3M78 56h3M99 56h3M9 57h3M15 57h9M33 57h3M39 57h6M63 57h3M78 57h9M99 57h6M9 58h3M15 58h9M33 58h3M39 58h6M63 58h3M78 58h9M99 58h6M9 59h3M15 59h9M33 59h3M39 59h6M63 59h3M78 59h9M99 59h6M12 60h6M24 60h15M63 60h3M84 60h3M102 60h3M12 61h6M24 61h15M63 61h3M84 61h3M102 61h3M12 62h6M24 62h15M63 62h3M84 62h3M102 62h3M18 63h6M30 63h3M39 63h3M51 63h3M63 63h3M78 63h6M99 63h3M18 64h6M30 64h3M39 64h3M51 64h3M63 64h3M78 64h6M99 64h3M18 65h6M30 65h3M39 65h3M51 65h3M63 65h3M78 65h6M99 65h3M33 66h3M39 66h3M51 66h3M63 66h6M84 66h3M93 66h6M33 67h3M39 67h3M51 67h3M63 67h6M84 67h3M93 67h6M33 68h3M39 68h3M51 68h3M63 68h6M84 68h3M93 68h6M36 69h9M51 69h6M66 69h6M81 69h3M87 69h3M93 69h3M36 70h9M51 70h6M66 70h6M81 70h3M87 70h3M93 70h3M36 71h9M51 71h6M66 71h6M81 71h3M87 71h3M93 71h3M39 72h9M54 72h6M69 72h6M81 72h15M39 73h9M54 73h6M69 73h6M81 73h15M39 74h9M54 74h6M69 74h6M81 74h15M39 75h9M51 75h3M57 75h9M69 75h6M81 75h3M39 76h9M51 76h3M57 76h9M69 76h6M81 76h3M39 77h9M51 77h3M57 77h9M69 77h6M81 77h3M39 78h3M48 78h12M66 78h12M81 78h3M39 79h3M48 79h12M66 79h12M81 79h3M39 80h3M48 80h12M66 80h12M81 80h3M39 81h12M57 81h12M78 81h6M39 82h12M57 82h12M78 82h6M39 83h12M57 83h12M78 83h6"/>
                    <path stroke="#e18200"
                          d="M36 3h3M84 3h6M36 4h3M84 4h6M36 5h3M84 5h6M39 6h3M72 6h15M39 7h3M72 7h15M39 8h3M72 8h15M39 9h3M72 9h9M39 10h3M72 10h9M39 11h3M72 11h9M36 12h6M72 12h3M81 12h6M36 13h6M72 13h3M81 13h6M36 14h6M72 14h3M81 14h6M33 15h6M72 15h21M33 16h6M72 16h21M33 17h6M72 17h21M36 18h3M72 18h15M36 19h3M72 19h15M36 20h3M72 20h15M69 21h3M69 22h3M69 23h3M69 24h15M69 25h15M69 26h15M66 27h3M75 27h15M66 28h3M75 28h15M66 29h3M75 29h15M66 30h9M66 31h9M66 32h9M63 33h3M69 33h9M63 34h3M69 34h9M63 35h3M69 35h9M60 36h9M75 36h6M60 37h9M75 37h6M60 38h9M75 38h6M66 39h3M66 40h3M66 41h3M78 60h6M78 61h6M78 62h6M75 63h3M75 64h3M75 65h3M75 66h9M75 67h9M75 68h9M72 69h9M84 69h3M72 70h9M84 70h3M72 71h9M84 71h3M75 72h6M75 73h6M75 74h6M75 75h6M75 76h6M75 77h6M78 78h3M78 79h3M78 80h3"/>
                    <path stroke="#ffd50f"
                          d="M66 9h6M66 10h6M66 11h6M42 12h3M63 12h9M42 13h3M63 13h9M42 14h3M63 14h9M39 15h6M63 15h9M39 16h6M63 16h9M39 17h6M63 17h9M39 18h9M60 18h12M39 19h9M60 19h12M39 20h9M60 20h12M39 21h9M60 21h9M39 22h9M60 22h9M39 23h9M60 23h9M42 24h6M60 24h9M42 25h6M60 25h9M42 26h6M60 26h9M42 27h9M57 27h9M42 28h9M57 28h9M42 29h9M57 29h9M48 30h3M57 30h9M48 31h3M57 31h9M48 32h3M57 32h9M27 33h6M48 33h6M57 33h6M27 34h6M48 34h6M57 34h6M27 35h6M48 35h6M57 35h6M33 36h3M45 36h6M54 36h6M33 37h3M45 37h6M54 37h6M33 38h3M45 38h6M54 38h6M36 39h3M51 39h9M36 40h3M51 40h9M36 41h3M51 41h9M36 42h3M48 42h12M63 42h3M36 43h3M48 43h12M63 43h3M36 44h3M48 44h12M63 44h3M45 45h12M60 45h12M81 45h6M45 46h12M60 46h12M81 46h6M45 47h12M60 47h12M81 47h6M48 48h12M63 48h12M78 48h6M90 48h3M48 49h12M63 49h12M78 49h6M90 49h3M48 50h12M63 50h12M78 50h6M90 50h3M54 51h3M63 51h12M84 51h12M54 52h3M63 52h12M84 52h12M54 53h3M63 53h12M84 53h12M57 54h3M63 54h15M81 54h6M57 55h3M63 55h15M81 55h6M57 56h3M63 56h15M81 56h6M57 57h6M66 57h12M87 57h6M57 58h6M66 58h12M87 58h6M57 59h6M66 59h12M87 59h6M54 60h9M66 60h12M87 60h15M54 61h9M66 61h12M87 61h15M54 62h9M66 62h12M87 62h15M33 63h6M54 63h9M66 63h9M93 63h6M33 64h6M54 64h9M66 64h9M93 64h6M33 65h6M54 65h9M66 65h9M93 65h6M36 66h3M42 66h9M54 66h9M69 66h6M36 67h3M42 67h9M54 67h9M69 67h6M36 68h3M42 68h9M54 68h9M69 68h6M45 69h6M57 69h9M45 70h6M57 70h9M45 71h6M57 71h9"/>
                    <path stroke="#782088"
                          d="M36 27h3M36 28h3M36 29h3M36 30h3M36 31h3M36 32h3M39 33h6M39 34h6M39 35h6M42 42h3M42 43h3M42 44h3M45 51h3M45 52h3M45 53h3"/>
                    <path stroke="#e83404"
                          d="M30 30h6M30 31h6M30 32h6M36 36h6M36 37h6M36 38h6M39 42h3M39 43h3M39 44h3M42 48h3M84 48h6M42 49h3M84 49h6M42 50h3M84 50h6M42 51h3M81 51h3M42 52h3M81 52h3M42 53h3M81 53h3M39 54h3M87 54h12M39 55h3M87 55h12M39 56h3M87 56h12M93 57h6M93 58h6M93 59h6M84 63h9M84 64h9M84 65h9M87 66h6M87 67h6M87 68h6M90 69h3M90 70h3M90 71h3"/>
                    <path stroke="#f2d6b3"
                          d="M27 39h6M27 40h6M27 41h6M30 42h3M30 43h3M30 44h3M12 45h6M33 45h3M12 46h6M33 46h3M12 47h6M33 47h3M15 48h6M33 48h3M15 49h6M33 49h3M15 50h6M33 50h3M18 51h6M18 52h6M18 53h6M18 54h6M18 55h6M18 56h6"/>
                    <path stroke="#da8925"
                          d="M21 42h6M21 43h6M21 44h6M18 45h6M30 45h3M18 46h6M30 46h3M18 47h6M30 47h3M9 48h6M30 48h3M9 49h6M30 49h3M9 50h6M30 50h3M9 51h9M24 51h6M9 52h9M24 52h6M9 53h9M24 53h6M9 54h9M9 55h9M9 56h9M12 57h3M12 58h3M12 59h3"/>
                    <path stroke="#0058b0" d="M27 45h3M27 46h3M27 47h3M27 48h3M27 49h3M27 50h3"/>
                    <path stroke="#ffffff" d="M24 48h3M24 49h3M24 50h3"/>
                    <path stroke="#ffc010" d="M39 48h3M39 49h3M39 50h3"/>
                    <path stroke="#7c5c50"
                          d="M51 51h3M51 52h3M51 53h3M30 54h6M51 54h6M30 55h6M51 55h6M30 56h6M51 56h6M24 57h9M36 57h3M45 57h12M24 58h9M36 58h3M45 58h12M24 59h9M36 59h3M45 59h12M18 60h6M39 60h15M18 61h6M39 61h15M18 62h6M39 62h15M42 63h9M42 64h9M42 65h9M48 72h6M60 72h9M48 73h6M60 73h9M48 74h6M60 74h9M48 75h3M66 75h3M48 76h3M66 76h3M48 77h3M66 77h3"/>
                    <path stroke="#c3c3c3"
                          d="M54 75h3M54 76h3M54 77h3M42 78h6M60 78h6M42 79h6M60 79h6M42 80h6M60 80h6"/>
                </g>
                <g id="frame2-[[${id}]]">
                    <path stroke="#000000"
                          d="M66 15h6M66 16h6M66 17h6M30 18h12M57 18h9M69 18h3M75 18h6M30 19h12M57 19h9M69 19h3M75 19h6M30 20h12M57 20h9M69 20h3M75 20h6M27 21h9M39 21h3M57 21h3M63 21h3M72 21h3M78 21h3M27 22h9M39 22h3M57 22h3M63 22h3M72 22h3M78 22h3M27 23h9M39 23h3M57 23h3M63 23h3M72 23h3M78 23h3M27 24h3M39 24h9M54 24h3M72 24h12M27 25h3M39 25h9M54 25h3M72 25h12M27 26h3M39 26h9M54 26h3M72 26h12M24 27h3M33 27h6M45 27h9M63 27h9M75 27h3M81 27h9M24 28h3M33 28h6M45 28h9M63 28h9M75 28h3M81 28h9M24 29h3M33 29h6M45 29h9M63 29h9M75 29h3M81 29h9M18 30h15M42 30h3M51 30h12M78 30h9M90 30h3M18 31h15M42 31h3M51 31h12M78 31h9M90 31h3M18 32h15M42 32h3M51 32h12M78 32h9M90 32h3M15 33h12M33 33h3M39 33h12M87 33h6M15 34h12M33 34h3M39 34h12M87 34h6M15 35h12M33 35h3M39 35h12M87 35h6M12 36h9M27 36h3M33 36h3M45 36h3M93 36h3M12 37h9M27 37h3M33 37h3M45 37h3M93 37h3M12 38h9M27 38h3M33 38h3M45 38h3M93 38h3M6 39h6M24 39h3M36 39h9M57 39h9M96 39h3M6 40h6M24 40h3M36 40h9M57 40h9M96 40h3M6 41h6M24 41h3M36 41h9M57 41h9M96 41h3M6 42h3M21 42h3M36 42h3M45 42h3M66 42h6M87 42h12M6 43h3M21 43h3M36 43h3M45 43h3M66 43h6M87 43h12M6 44h3M21 44h3M36 44h3M45 44h3M66 44h6M87 44h12M6 45h3M30 45h12M48 45h3M57 45h6M72 45h15M93 45h3M6 46h3M30 46h12M48 46h3M57 46h6M72 46h15M93 46h3M6 47h3M30 47h12M48 47h3M57 47h6M72 47h15M93 47h3M6 48h3M24 48h6M36 48h3M42 48h9M63 48h3M81 48h9M99 48h3M6 49h3M24 49h6M36 49h3M42 49h9M63 49h3M81 49h9M99 49h3M6 50h3M24 50h6M36 50h3M42 50h9M63 50h3M81 50h9M99 50h3M9 51h3M15 51h9M33 51h3M39 51h6M63 51h6M87 51h3M99 51h6M9 52h3M15 52h9M33 52h3M39 52h6M63 52h6M87 52h3M99 52h6M9 53h3M15 53h9M33 53h3M39 53h6M63 53h6M87 53h3M99 53h6M12 54h6M24 54h15M66 54h9M90 54h3M102 54h3M12 55h6M24 55h15M66 55h9M90 55h3M102 55h3M12 56h6M24 56h15M66 56h9M90 56h3M102 56h3M18 57h6M39 57h3M51 57h3M66 57h3M75 57h18M99 57h3M18 58h6M39 58h3M51 58h3M66 58h3M75 58h18M99 58h3M18 59h6M39 59h3M51 59h3M66 59h3M75 59h18M99 59h3M42 60h3M54 60h6M69 60h9M93 60h6M42 61h3M54 61h6M69 61h9M93 61h6M42 62h3M54 62h6M69 62h9M93 62h6M42 63h9M54 63h3M60 63h3M69 63h6M78 63h6M93 63h3M42 64h9M54 64h3M60 64h3M69 64h6M78 64h6M93 64h3M42 65h9M54 65h3M60 65h3M69 65h6M78 65h6M93 65h3M42 66h6M51 66h3M57 66h9M69 66h3M75 66h3M84 66h12M42 67h6M51 67h3M57 67h9M69 67h3M75 67h3M84 67h12M42 68h6M51 68h3M57 68h9M69 68h3M75 68h3M84 68h12M39 69h3M48 69h12M66 69h12M39 70h3M48 70h12M66 70h12M39 71h3M48 71h12M66 71h12M39 72h12M57 72h12M39 73h12M57 73h12M39 74h12M57 74h12"/>
                    <path stroke="#782088"
                          d="M66 18h3M66 19h3M66 20h3M36 21h3M60 21h3M75 21h3M36 22h3M60 22h3M75 22h3M36 23h3M60 23h3M75 23h3M36 24h3M36 25h3M36 26h3M39 27h6M39 28h6M39 29h6M42 36h3M42 37h3M42 38h3M45 45h3M45 46h3M45 47h3"/>
                    <path stroke="#e83404"
                          d="M66 21h6M66 22h6M66 23h6M30 24h6M57 24h6M69 24h3M30 25h6M57 25h6M69 25h3M30 26h6M57 26h6M69 26h3M60 27h3M60 28h3M60 29h3M36 30h6M36 31h6M36 32h6M39 36h3M39 37h3M39 38h3M42 42h3M42 43h3M42 44h3M42 45h3M42 46h3M42 47h3M39 48h3M90 48h9M39 49h3M90 49h9M39 50h3M90 50h9M93 51h6M93 52h6M93 53h6M87 60h6M87 61h6M87 62h6M90 63h3M90 64h3M90 65h3"/>
                    <path stroke="#ffd50f"
                          d="M63 24h6M63 25h6M63 26h6M27 27h6M54 27h6M72 27h3M27 28h6M54 28h6M72 28h3M27 29h6M54 29h6M72 29h3M33 30h3M45 30h6M63 30h12M33 31h3M45 31h6M63 31h12M33 32h3M45 32h6M63 32h12M36 33h3M51 33h24M36 34h3M51 34h24M36 35h3M51 35h24M36 36h3M48 36h30M36 37h3M48 37h30M36 38h3M48 38h30M45 39h12M66 39h12M45 40h12M66 40h12M45 41h12M66 41h12M48 42h18M72 42h3M48 43h18M72 43h3M48 44h18M72 44h3M54 45h3M63 45h9M87 45h6M54 46h3M63 46h9M87 46h6M54 47h3M63 47h9M87 47h6M57 48h6M66 48h15M57 49h6M66 49h15M57 50h6M66 50h15M57 51h6M69 51h9M90 51h3M57 52h6M69 52h9M90 52h3M57 53h6M69 53h9M90 53h3M54 54h12M93 54h9M54 55h12M93 55h9M54 56h12M93 56h9M54 57h12M69 57h6M93 57h6M54 58h12M69 58h6M93 58h6M54 59h12M69 59h6M93 59h6M45 60h9M60 60h9M78 60h9M45 61h9M60 61h9M78 61h9M45 62h9M60 62h9M78 62h9M84 63h6M84 64h6M84 65h6"/>
                    <path stroke="#e18200"
                          d="M78 27h3M78 28h3M78 29h3M75 30h3M87 30h3M75 31h3M87 31h3M75 32h3M87 32h3M75 33h12M75 34h12M75 35h12M78 36h15M78 37h15M78 38h15M78 39h18M78 40h18M78 41h18M75 42h12M75 43h12M75 44h12M78 51h9M78 52h9M78 53h9M75 54h15M75 55h15M75 56h15"/>
                    <path stroke="#f2d6b3"
                          d="M27 33h6M27 34h6M27 35h6M30 36h3M30 37h3M30 38h3M12 39h6M33 39h3M12 40h6M33 40h3M12 41h6M33 41h3M15 42h6M33 42h3M15 43h6M33 43h3M15 44h6M33 44h3M18 45h6M18 46h6M18 47h6M18 48h6M18 49h6M18 50h6"/>
                    <path stroke="#da8925"
                          d="M21 36h6M21 37h6M21 38h6M18 39h6M30 39h3M18 40h6M30 40h3M18 41h6M30 41h3M9 42h6M30 42h3M9 43h6M30 43h3M9 44h6M30 44h3M9 45h9M24 45h6M9 46h9M24 46h6M9 47h9M24 47h6M9 48h9M9 49h9M9 50h9M12 51h3M12 52h3M12 53h3"/>
                    <path stroke="#0058b0" d="M27 39h3M27 40h3M27 41h3M27 42h3M27 43h3M27 44h3"/>
                    <path stroke="#ffffff" d="M24 42h3M24 43h3M24 44h3"/>
                    <path stroke="#ffc010" d="M39 42h3M39 43h3M39 44h3"/>
                    <path stroke="#7c5c50"
                          d="M51 45h3M51 46h3M51 47h3M30 48h6M51 48h6M30 49h6M51 49h6M30 50h6M51 50h6M24 51h9M36 51h3M45 51h12M24 52h9M36 52h3M45 52h12M24 53h9M36 53h3M45 53h12M18 54h6M39 54h15M18 55h6M39 55h15M18 56h6M39 56h15M42 57h9M42 58h9M42 59h9M51 63h3M63 63h6M51 64h3M63 64h6M51 65h3M63 65h6M48 66h3M66 66h3M48 67h3M66 67h3M48 68h3M66 68h3"/>
                    <path stroke="#c3c3c3"
                          d="M54 66h3M72 66h3M54 67h3M72 67h3M54 68h3M72 68h3M42 69h6M60 69h6M42 70h6M60 70h6M42 71h6M60 71h6"/>
                </g>
            </svg>
            <svg viewBox="0 0 100 30" width="100" height="30" x="0" y="0">
                <g id="username-[[${id}]]">
                    <rect x="0" y="0" width="100" height="20" fill="black" fill-opacity="0.8" rx="5"/>
                    <svg x="4" y="2.5" width="15" height="15" viewBox="0 0 100 100">
                        <path fill-rule="evenodd" clip-rule="evenodd"
                              d="M48.854 0C21.839 0 0 22 0 49.217c0 21.756 13.993 40.172 33.405 46.69 2.427.49 3.316-1.059 3.316-2.362 0-1.141-.08-5.052-.08-9.127-13.59 2.934-16.42-5.867-16.42-5.867-2.184-5.704-5.42-7.17-5.42-7.17-4.448-3.015.324-3.015.324-3.015 4.934.326 7.523 5.052 7.523 5.052 4.367 7.496 11.404 5.378 14.235 4.074.404-3.178 1.699-5.378 3.074-6.6-10.839-1.141-22.243-5.378-22.243-24.283 0-5.378 1.94-9.778 5.014-13.2-.485-1.222-2.184-6.275.486-13.038 0 0 4.125-1.304 13.426 5.052a46.97 46.97 0 0 1 12.214-1.63c4.125 0 8.33.571 12.213 1.63 9.302-6.356 13.427-5.052 13.427-5.052 2.67 6.763.97 11.816.485 13.038 3.155 3.422 5.015 7.822 5.015 13.2 0 18.905-11.404 23.06-22.324 24.283 1.78 1.548 3.316 4.481 3.316 9.126 0 6.6-.08 11.897-.08 13.526 0 1.304.89 2.853 3.316 2.364 19.412-6.52 33.405-24.935 33.405-46.691C97.707 22 75.788 0 48.854 0z"
                              fill="#fff"/>
                    </svg>
                    <text x="25" y="11" dominant-baseline="middle" style="fill:white" textLength="70"
                          lengthAdjust="spacing">
                        [[${username}]]
                    </text>
                    <rect x="0" y="23" width="[[${exp}]]" height="2" fill="#48ff00" rx="1"/>
                </g>
            </svg>
        </g>
    </a>
    <style>
        #frame1-[[${id}]] {
        animation: 1s frameToggle infinite;
        }
        #frame2-[[${id}]] {
        animation: 1s frameToggle infinite reverse;
        }
        #body-[[${id}]] {
        animation: move-body-[[${id}]] [[${motion.duration}]]s infinite;
        }
        #username-[[${id}]] {
        animation: move-username-[[${id}]] [[${motion.duration}]]s infinite;
        }
        @keyframes move-body-[[${id}]] {
        0%, 10% {
        transform: translate([[${motion.positions[0].x}]]%, [[${y}]]%) scaleX([[${motion.positions[0].direction}]]);
        }
        20%, 30% {
        transform: translate([[${motion.positions[1].x}]]%, [[${y}]]%) scaleX([[${motion.positions[1].direction}]]);
        }
        40%, 50% {
        transform: translate([[${motion.positions[2].x}]]%, [[${y}]]%) scaleX([[${motion.positions[2].direction}]]);
        }
        50.01% {
        transform: translate([[${motion.positions[3].x}]]%, [[${y}]]%) scaleX([[${motion.positions[3].direction}]]);
        }
        60%, 70% {
        transform: translate([[${motion.positions[4].x}]]%, [[${y}]]%) scaleX([[${motion.positions[4].direction}]]);
        }
        80%, 100% {
        transform: translate([[${motion.positions[5].x}]]%, [[${y}]]%) scaleX([[${motion.positions[5].direction}]]);
        }
        }
        @keyframes move-username-[[${id}]] {
        0%, 10% {
        transform: scaleX([[${motion.positions[0].direction}]])
        translateX([[${motion.positions[0].direction > 0 ? 0: -100}]]%);
        }
        20%, 30% {
        transform: scaleX([[${motion.positions[1].direction}]])
        translateX([[${motion.positions[1].direction > 0 ? 0: -100}]]%);
        }
        40%, 50% {
        transform: scaleX([[${motion.positions[2].direction}]])
        translateX([[${motion.positions[2].direction > 0 ? 0: -100}]]%);
        }
        50.01% {
        transform: scaleX([[${motion.positions[3].direction}]])
        translateX([[${motion.positions[3].direction > 0 ? 0: -100}]]%);
        }
        60%, 70% {
        transform: scaleX([[${motion.positions[4].direction}]])
        translateX([[${motion.positions[4].direction > 0 ? 0: -100}]]%);
        }
        80%, 100% {
        transform: scaleX([[${motion.positions[5].direction}]])
        translateX([[${motion.positions[5].direction > 0 ? 0: -100}]]%);
        }
        }
    </style>
</svg>
