<svg fill="none" overflow="visible" xmlns="http://www.w3.org/2000/svg">
    <a href="https://github.com/[[${username}]]">
        <g id="body-[[${id}]]">
            <g id="frame1-[[${id}]]">
                <path stroke="#000000"
                      d="M21 6h9M21 7h9M21 8h9M21 9h3M30 9h3M21 10h3M30 10h3M21 11h3M30 11h3M24 12h3M30 12h3M24 13h3M30 13h3M24 14h3M30 14h3M15 15h9M27 15h12M15 16h9M27 16h12M15 17h9M27 17h12M12 18h3M18 18h3M24 18h6M36 18h3M12 19h3M18 19h3M24 19h6M36 19h3M12 20h3M18 20h3M24 20h6M36 20h3M9 21h3M15 21h3M21 21h6M33 21h3M9 22h3M15 22h3M21 22h6M33 22h3M9 23h3M15 23h3M21 23h6M33 23h3M9 24h3M33 24h9M9 25h3M33 25h9M9 26h3M33 26h9M6 27h3M21 27h6M39 27h3M6 28h3M21 28h6M39 28h3M6 29h3M21 29h6M39 29h3M6 30h3M18 30h3M27 30h3M36 30h12M6 31h3M18 31h3M27 31h3M36 31h12M6 32h3M18 32h3M27 32h3M36 32h12M6 33h6M18 33h3M24 33h3M33 33h6M45 33h3M6 34h6M18 34h3M24 34h3M33 34h6M45 34h3M6 35h6M18 35h3M24 35h3M33 35h6M45 35h3M6 36h3M12 36h3M30 36h3M39 36h9M6 37h3M12 37h3M30 37h3M39 37h9M6 38h3M12 38h3M30 38h3M39 38h9M6 39h3M15 39h3M27 39h6M45 39h6M6 40h3M15 40h3M27 40h6M45 40h6M6 41h3M15 41h3M27 41h6M45 41h6M6 42h21M30 42h3M42 42h3M48 42h3M6 43h21M30 43h3M42 43h3M48 43h3M6 44h21M30 44h3M42 44h3M48 44h3M12 45h6M24 45h6M36 45h6M48 45h3M12 46h6M24 46h6M36 46h6M48 46h3M12 47h6M24 47h6M36 47h6M48 47h3M15 48h9M36 48h12M15 49h9M36 49h12M15 50h9M36 50h12M18 51h24M18 52h24M18 53h24M18 54h3M27 54h6M42 54h3M18 55h3M27 55h6M42 55h3M18 56h3M27 56h6M42 56h3M18 57h9M33 57h12M18 58h9M33 58h12M18 59h9M33 59h12"/>
                <path stroke="#563eff"
                      d="M24 9h3M24 10h3M24 11h3M27 12h3M27 13h3M27 14h3M21 18h3M21 19h3M21 20h3M24 30h3M24 31h3M24 32h3M21 33h3M21 34h3M21 35h3M45 42h3M45 43h3M45 44h3"/>
                <path stroke="#ff8ebb"
                      d="M27 9h3M27 10h3M27 11h3M24 15h3M24 16h3M24 17h3M15 18h3M30 18h6M15 19h3M30 19h6M15 20h3M30 20h6M12 21h3M18 21h3M27 21h6M12 22h3M18 22h3M27 22h6M12 23h3M18 23h3M27 23h6M12 24h21M12 25h21M12 26h21M9 27h12M27 27h12M9 28h12M27 28h12M9 29h12M27 29h12M9 30h9M30 30h6M9 31h9M30 31h6M9 32h9M30 32h6M12 33h6M27 33h6M12 34h6M27 34h6M12 35h6M27 35h6M15 36h15M33 36h6M15 37h15M33 37h6M15 38h15M33 38h6M18 39h9M33 39h12M18 40h9M33 40h12M18 41h9M33 41h12M27 42h3M33 42h9M27 43h3M33 43h9M27 44h3M33 44h9M18 45h6M30 45h6M42 45h6M18 46h6M30 46h6M42 46h6M18 47h6M30 47h6M42 47h6M24 48h12M24 49h12M24 50h12"/>
                <path stroke="#ffffff" d="M21 30h3M21 31h3M21 32h3"/>
                <path stroke="#ff2000"
                      d="M39 33h6M39 34h6M39 35h6M9 36h3M9 37h3M9 38h3M9 39h6M9 40h6M9 41h6M21 54h3M36 54h6M21 55h3M36 55h6M21 56h3M36 56h6"/>
                <path stroke="#f8d800" d="M24 54h3M33 54h3M24 55h3M33 55h3M24 56h3M33 56h3"/>
            </g>
            <g id="frame2-[[${id}]]">
                <path stroke="#000000"
                      d="M21 3h9M21 4h9M21 5h9M21 6h3M30 6h3M21 7h3M30 7h3M21 8h3M30 8h3M24 9h3M30 9h3M24 10h3M30 10h3M24 11h3M30 11h3M15 12h9M27 12h12M15 13h9M27 13h12M15 14h9M27 14h12M12 15h3M18 15h3M24 15h6M36 15h3M12 16h3M18 16h3M24 16h6M36 16h3M12 17h3M18 17h3M24 17h6M36 17h3M9 18h3M15 18h3M21 18h6M33 18h3M9 19h3M15 19h3M21 19h6M33 19h3M9 20h3M15 20h3M21 20h6M33 20h3M9 21h3M33 21h9M9 22h3M33 22h9M9 23h3M33 23h9M6 24h3M21 24h6M39 24h3M6 25h3M21 25h6M39 25h3M6 26h3M21 26h6M39 26h3M6 27h3M18 27h3M27 27h3M36 27h3M6 28h3M18 28h3M27 28h3M36 28h3M6 29h3M18 29h3M27 29h3M36 29h3M6 30h6M18 30h3M24 30h3M33 30h3M6 31h6M18 31h3M24 31h3M33 31h3M6 32h6M18 32h3M24 32h3M33 32h3M6 33h3M12 33h3M36 33h3M42 33h6M6 34h3M12 34h3M36 34h3M42 34h6M6 35h3M12 35h3M36 35h3M42 35h6M6 36h3M15 36h3M27 36h15M45 36h3M6 37h3M15 37h3M27 37h15M45 37h3M6 38h3M15 38h3M27 38h15M45 38h3M6 39h21M36 39h6M45 39h3M6 40h21M36 40h6M45 40h3M6 41h21M36 41h6M45 41h3M12 42h6M24 42h3M39 42h6M12 43h6M24 43h3M39 43h6M12 44h6M24 44h3M39 44h6M12 45h3M18 45h6M27 45h3M36 45h3M42 45h3M12 46h3M18 46h6M27 46h3M36 46h3M42 46h3M12 47h3M18 47h6M27 47h3M36 47h3M42 47h3M15 48h18M36 48h3M42 48h3M15 49h18M36 49h3M42 49h3M15 50h18M36 50h3M42 50h3M18 51h3M27 51h18M18 52h3M27 52h18M18 53h3M27 53h18M18 54h9M33 54h12M18 55h9M33 55h12M18 56h9M33 56h12"/>
                <path stroke="#563eff"
                      d="M24 6h3M24 7h3M24 8h3M27 9h3M27 10h3M27 11h3M21 15h3M21 16h3M21 17h3M24 27h3M24 28h3M24 29h3M21 30h3M21 31h3M21 32h3M42 36h3M42 37h3M42 38h3"/>
                <path stroke="#ff8ebb"
                      d="M27 6h3M27 7h3M27 8h3M24 12h3M24 13h3M24 14h3M15 15h3M30 15h6M15 16h3M30 16h6M15 17h3M30 17h6M12 18h3M18 18h3M27 18h6M12 19h3M18 19h3M27 19h6M12 20h3M18 20h3M27 20h6M12 21h21M12 22h21M12 23h21M9 24h12M27 24h12M9 25h12M27 25h12M9 26h12M27 26h12M9 27h9M30 27h6M9 28h9M30 28h6M9 29h9M30 29h6M12 30h6M27 30h6M12 31h6M27 31h6M12 32h6M27 32h6M15 33h21M15 34h21M15 35h21M18 36h9M18 37h9M18 38h9M27 39h9M42 39h3M27 40h9M42 40h3M27 41h9M42 41h3M18 42h6M27 42h12M18 43h6M27 43h12M18 44h6M27 44h12M15 45h3M24 45h3M30 45h6M15 46h3M24 46h3M30 46h6M15 47h3M24 47h3M30 47h6M33 48h3M33 49h3M33 50h3"/>
                <path stroke="#ffffff" d="M21 27h3M21 28h3M21 29h3"/>
                <path stroke="#ff2000"
                      d="M9 33h3M9 34h3M9 35h3M9 36h6M9 37h6M9 38h6M39 45h3M39 46h3M39 47h3M39 48h3M39 49h3M39 50h3M21 51h3M21 52h3M21 53h3"/>
                <path stroke="#f8d800" d="M24 51h3M24 52h3M24 53h3"/>
            </g>
            <svg viewBox="0 0 100 30" width="100" height="30" x="0" y="-20">
                <g id="username-[[${id}]]">
                    <rect x="0" y="0" width="100" height="20" fill="black" fill-opacity="0.8" rx="5"/>
                    <svg x="4" y="2.5" width="15" height="15" viewBox="0 0 100 100">
                        <path fill-rule="evenodd" clip-rule="evenodd"
                              d="M48.854 0C21.839 0 0 22 0 49.217c0 21.756 13.993 40.172 33.405 46.69 2.427.49 3.316-1.059 3.316-2.362 0-1.141-.08-5.052-.08-9.127-13.59 2.934-16.42-5.867-16.42-5.867-2.184-5.704-5.42-7.17-5.42-7.17-4.448-3.015.324-3.015.324-3.015 4.934.326 7.523 5.052 7.523 5.052 4.367 7.496 11.404 5.378 14.235 4.074.404-3.178 1.699-5.378 3.074-6.6-10.839-1.141-22.243-5.378-22.243-24.283 0-5.378 1.94-9.778 5.014-13.2-.485-1.222-2.184-6.275.486-13.038 0 0 4.125-1.304 13.426 5.052a46.97 46.97 0 0 1 12.214-1.63c4.125 0 8.33.571 12.213 1.63 9.302-6.356 13.427-5.052 13.427-5.052 2.67 6.763.97 11.816.485 13.038 3.155 3.422 5.015 7.822 5.015 13.2 0 18.905-11.404 23.06-22.324 24.283 1.78 1.548 3.316 4.481 3.316 9.126 0 6.6-.08 11.897-.08 13.526 0 1.304.89 2.853 3.316 2.364 19.412-6.52 33.405-24.935 33.405-46.691C97.707 22 75.788 0 48.854 0z"
                              fill="#fff"/>
                    </svg>
                    <text x="25" y="11" dominant-baseline="middle" style="fill:white" textLength="70"
                          lengthAdjust="spacing">
                        [[${username}]]
                    </text>
                    <rect x="0" y="23" width="[[${exp}]]" height="2" fill="#48ff00" rx="1"/>
                </g>
            </svg>
        </g>
    </a>
    <style>
        #frame1-[[${id}]] {
        animation: 1s frameToggle infinite;
        }
        #frame2-[[${id}]] {
        animation: 1s frameToggle infinite reverse;
        }
        #body-[[${id}]] {
        animation: move-body-[[${id}]] [[${motion.duration}]]s infinite;
        }
        #username-[[${id}]] {
        animation: move-username-[[${id}]] [[${motion.duration}]]s infinite;
        }
        @keyframes move-body-[[${id}]] {
        0%, 10% {
        transform: translate([[${motion.positions[0].x}]]%, [[${y}]]%) scaleX([[${motion.positions[0].direction}]]);
        }
        20%, 30% {
        transform: translate([[${motion.positions[1].x}]]%, [[${y}]]%) scaleX([[${motion.positions[1].direction}]]);
        }
        40%, 50% {
        transform: translate([[${motion.positions[2].x}]]%, [[${y}]]%) scaleX([[${motion.positions[2].direction}]]);
        }
        50.01% {
        transform: translate([[${motion.positions[3].x}]]%, [[${y}]]%) scaleX([[${motion.positions[3].direction}]]);
        }
        60%, 70% {
        transform: translate([[${motion.positions[4].x}]]%, [[${y}]]%) scaleX([[${motion.positions[4].direction}]]);
        }
        80%, 100% {
        transform: translate([[${motion.positions[5].x}]]%, [[${y}]]%) scaleX([[${motion.positions[5].direction}]]);
        }
        }
        @keyframes move-username-[[${id}]] {
        0%, 10% {
        transform: scaleX([[${motion.positions[0].direction}]])
        translateX([[${motion.positions[0].direction > 0 ? 0: -100}]]%);
        }
        20%, 30% {
        transform: scaleX([[${motion.positions[1].direction}]])
        translateX([[${motion.positions[1].direction > 0 ? 0: -100}]]%);
        }
        40%, 50% {
        transform: scaleX([[${motion.positions[2].direction}]])
        translateX([[${motion.positions[2].direction > 0 ? 0: -100}]]%);
        }
        50.01% {
        transform: scaleX([[${motion.positions[3].direction}]])
        translateX([[${motion.positions[3].direction > 0 ? 0: -100}]]%);
        }
        60%, 70% {
        transform: scaleX([[${motion.positions[4].direction}]])
        translateX([[${motion.positions[4].direction > 0 ? 0: -100}]]%);
        }
        80%, 100% {
        transform: scaleX([[${motion.positions[5].direction}]])
        translateX([[${motion.positions[5].direction > 0 ? 0: -100}]]%);
        }
        }
    </style>
</svg>
