<svg fill="none" overflow="visible" xmlns="http://www.w3.org/2000/svg">
    <a href="https://github.com/[[${username}]]">
        <g id="body-[[${id}]]">
            <svg viewBox="0 0 100 100" width="100" height="100" x="37" y="42">
                <g id="frame1-[[${id}]]">
                    <path stroke="#000000"
                          d="M6 0h12M6 1h12M6 2h12M3 3h3M18 3h3M3 4h3M18 4h3M3 5h3M18 5h3M0 6h6M12 6h3M21 6h3M0 7h6M12 7h3M21 7h3M0 8h6M12 8h3M21 8h3M0 9h3M21 9h3M0 10h3M21 10h3M0 11h3M21 11h3M0 12h3M21 12h3M0 13h3M21 13h3M0 14h3M21 14h3M0 15h3M21 15h3M0 16h3M21 16h3M0 17h3M21 17h3M3 18h3M21 18h3M3 19h3M21 19h3M3 20h3M21 20h3M3 21h3M9 21h3M15 21h3M21 21h3M3 22h3M9 22h3M15 22h3M21 22h3M3 23h3M9 23h3M15 23h3M21 23h3M6 24h3M12 24h3M18 24h3M6 25h3M12 25h3M18 25h3M6 26h3M12 26h3M18 26h3"/>
                    <path stroke="#d9edff"
                          d="M6 3h12M6 4h12M6 5h12M6 6h6M15 6h6M6 7h6M15 7h6M6 8h6M15 8h6M3 9h18M3 10h18M3 11h18M3 12h3M12 12h9M3 13h3M12 13h9M3 14h3M12 14h9M3 15h18M3 16h18M3 17h18M6 18h15M6 19h15M6 20h15M6 21h3M12 21h3M18 21h3M6 22h3M12 22h3M18 22h3M6 23h3M12 23h3M18 23h3"/>
                    <path stroke="#ff0000" d="M6 12h6M6 13h6M6 14h6"/>
                </g>
                <g id="frame2-[[${id}]]">
                    <path stroke="#000000"
                          d="M6 3h12M6 4h12M6 5h12M3 6h3M18 6h3M3 7h3M18 7h3M3 8h3M18 8h3M0 9h6M12 9h3M21 9h3M0 10h6M12 10h3M21 10h3M0 11h6M12 11h3M21 11h3M0 12h3M21 12h3M0 13h3M21 13h3M0 14h3M21 14h3M0 15h3M21 15h3M0 16h3M21 16h3M0 17h3M21 17h3M0 18h3M21 18h3M0 19h3M21 19h3M0 20h3M21 20h3M3 21h3M9 21h3M15 21h3M21 21h3M3 22h3M9 22h3M15 22h3M21 22h3M3 23h3M9 23h3M15 23h3M21 23h3M6 24h3M12 24h3M18 24h3M6 25h3M12 25h3M18 25h3M6 26h3M12 26h3M18 26h3"/>
                    <path stroke="#d9edff"
                          d="M6 6h12M6 7h12M6 8h12M6 9h6M15 9h6M6 10h6M15 10h6M6 11h6M15 11h6M3 12h18M3 13h18M3 14h18M3 15h3M12 15h9M3 16h3M12 16h9M3 17h3M12 17h9M3 18h18M3 19h18M3 20h18M6 21h3M12 21h3M18 21h3M6 22h3M12 22h3M18 22h3M6 23h3M12 23h3M18 23h3"/>
                    <path stroke="#ff0000" d="M6 15h6M6 16h6M6 17h6"/>
                </g>
            </svg>
            <svg viewBox="0 0 100 30" width="100" height="30" x="0" y="0">
                <g id="username-[[${id}]]">
                    <rect x="0" y="0" width="100" height="20" fill="black" fill-opacity="0.8" rx="5"/>
                    <svg x="4" y="2.5" width="15" height="15" viewBox="0 0 100 100">
                        <path fill-rule="evenodd" clip-rule="evenodd"
                              d="M48.854 0C21.839 0 0 22 0 49.217c0 21.756 13.993 40.172 33.405 46.69 2.427.49 3.316-1.059 3.316-2.362 0-1.141-.08-5.052-.08-9.127-13.59 2.934-16.42-5.867-16.42-5.867-2.184-5.704-5.42-7.17-5.42-7.17-4.448-3.015.324-3.015.324-3.015 4.934.326 7.523 5.052 7.523 5.052 4.367 7.496 11.404 5.378 14.235 4.074.404-3.178 1.699-5.378 3.074-6.6-10.839-1.141-22.243-5.378-22.243-24.283 0-5.378 1.94-9.778 5.014-13.2-.485-1.222-2.184-6.275.486-13.038 0 0 4.125-1.304 13.426 5.052a46.97 46.97 0 0 1 12.214-1.63c4.125 0 8.33.571 12.213 1.63 9.302-6.356 13.427-5.052 13.427-5.052 2.67 6.763.97 11.816.485 13.038 3.155 3.422 5.015 7.822 5.015 13.2 0 18.905-11.404 23.06-22.324 24.283 1.78 1.548 3.316 4.481 3.316 9.126 0 6.6-.08 11.897-.08 13.526 0 1.304.89 2.853 3.316 2.364 19.412-6.52 33.405-24.935 33.405-46.691C97.707 22 75.788 0 48.854 0z"
                              fill="#fff"/>
                    </svg>
                    <text x="25" y="11" dominant-baseline="middle" style="fill:white" font-size="13">
                        [[${#strings.abbreviate(username, 12)}]]
                    </text>
                    <rect x="0" y="23" width="[[${exp}]]" height="2" fill="#48ff00" rx="1"/>
                </g>
            </svg>
        </g>
    </a>
    <style>
        #frame1-[[${id}]] {
        animation: 1s frameToggle infinite;
        }
        #frame2-[[${id}]] {
        animation: 1s frameToggle infinite reverse;
        }
        #body-[[${id}]] {
        animation: move-body-[[${id}]] [[${motion.duration}]]s infinite;
        }
        #username-[[${id}]] {
        animation: move-username-[[${id}]] [[${motion.duration}]]s infinite;
        }
        @keyframes move-body-[[${id}]] {
        0%, 10% {
        transform: translate([[${motion.positions[0].x}]]%, [[${y}]]%) scaleX([[${motion.positions[0].direction}]]);
        }
        20%, 30% {
        transform: translate([[${motion.positions[1].x}]]%, [[${y}]]%) scaleX([[${motion.positions[1].direction}]]);
        }
        40%, 50% {
        transform: translate([[${motion.positions[2].x}]]%, [[${y}]]%) scaleX([[${motion.positions[2].direction}]]);
        }
        50.01% {
        transform: translate([[${motion.positions[3].x}]]%, [[${y}]]%) scaleX([[${motion.positions[3].direction}]]);
        }
        60%, 70% {
        transform: translate([[${motion.positions[4].x}]]%, [[${y}]]%) scaleX([[${motion.positions[4].direction}]]);
        }
        80%, 100% {
        transform: translate([[${motion.positions[5].x}]]%, [[${y}]]%) scaleX([[${motion.positions[5].direction}]]);
        }
        }
        @keyframes move-username-[[${id}]] {
        0%, 10% {
        transform: scaleX([[${motion.positions[0].direction}]])
        translateX([[${motion.positions[0].direction > 0 ? 0: -100}]]%);
        }
        20%, 30% {
        transform: scaleX([[${motion.positions[1].direction}]])
        translateX([[${motion.positions[1].direction > 0 ? 0: -100}]]%);
        }
        40%, 50% {
        transform: scaleX([[${motion.positions[2].direction}]])
        translateX([[${motion.positions[2].direction > 0 ? 0: -100}]]%);
        }
        50.01% {
        transform: scaleX([[${motion.positions[3].direction}]])
        translateX([[${motion.positions[3].direction > 0 ? 0: -100}]]%);
        }
        60%, 70% {
        transform: scaleX([[${motion.positions[4].direction}]])
        translateX([[${motion.positions[4].direction > 0 ? 0: -100}]]%);
        }
        80%, 100% {
        transform: scaleX([[${motion.positions[5].direction}]])
        translateX([[${motion.positions[5].direction > 0 ? 0: -100}]]%);
        }
        }
    </style>
</svg>
