<svg fill="none" overflow="visible" xmlns="http://www.w3.org/2000/svg">
    <a href="https://github.com/[[${username}]]">
        <g id="body-[[${id}]]">
            <svg viewBox="0 0 100 100" width="100" height="100" x="32" y="40">
                <g id="frame1-[[${id}]]">
                    <path stroke="#000000"
                          d="M6 3h6M18 3h12M6 4h6M18 4h12M6 5h6M18 5h12M3 6h3M12 6h6M21 6h3M30 6h3M3 7h3M12 7h6M21 7h3M30 7h3M3 8h3M12 8h6M21 8h3M30 8h3M3 9h3M9 9h12M30 9h3M3 10h3M9 10h12M30 10h3M3 11h3M9 11h12M30 11h3M6 12h3M27 12h3M6 13h3M27 13h3M6 14h3M27 14h3M3 15h3M21 15h3M30 15h3M3 16h3M21 16h3M30 16h3M3 17h3M21 17h3M30 17h3M3 18h6M18 18h6M30 18h3M3 19h6M18 19h6M30 19h3M3 20h6M18 20h6M30 20h3M3 21h3M30 21h3M3 22h3M30 22h3M3 23h3M30 23h3M6 24h3M27 24h3M6 25h3M27 25h3M6 26h3M27 26h3M9 27h18M9 28h18M9 29h18"/>
                    <path stroke="#ff2047"
                          d="M6 6h6M18 6h3M24 6h6M6 7h6M18 7h3M24 7h6M6 8h6M18 8h3M24 8h6M6 9h3M21 9h9M6 10h3M21 10h9M6 11h3M21 11h9M9 12h18M9 13h18M9 14h18M9 15h9M24 15h6M9 16h9M24 16h6M9 17h9M24 17h6M9 18h9M24 18h6M9 19h9M24 19h6M9 20h9M24 20h6M6 21h24M6 22h24M6 23h24M9 24h18M9 25h18M9 26h18"/>
                    <path stroke="#ffffff" d="M6 15h3M18 15h3M6 16h3M18 16h3M6 17h3M18 17h3"/>
                </g>
                <g id="frame2-[[${id}]]">
                    <path stroke="#000000"
                          d="M9 6h6M18 6h9M9 7h6M18 7h9M9 8h6M18 8h9M6 9h3M15 9h6M27 9h3M6 10h3M15 10h6M27 10h3M6 11h3M15 11h6M27 11h3M6 12h15M27 12h3M6 13h15M27 13h3M6 14h15M27 14h3M6 15h3M27 15h3M6 16h3M27 16h3M6 17h3M27 17h3M3 18h3M21 18h3M30 18h3M3 19h3M21 19h3M30 19h3M3 20h3M21 20h3M30 20h3M3 21h6M18 21h6M30 21h3M3 22h6M18 22h6M30 22h3M3 23h6M18 23h6M30 23h3M3 24h3M30 24h3M3 25h3M30 25h3M3 26h3M30 26h3M6 27h24M6 28h24M6 29h24"/>
                    <path stroke="#ff2047"
                          d="M9 9h6M21 9h6M9 10h6M21 10h6M9 11h6M21 11h6M21 12h6M21 13h6M21 14h6M9 15h18M9 16h18M9 17h18M9 18h9M24 18h6M9 19h9M24 19h6M9 20h9M24 20h6M9 21h9M24 21h6M9 22h9M24 22h6M9 23h9M24 23h6M6 24h24M6 25h24M6 26h24"/>
                    <path stroke="#ffffff" d="M6 18h3M18 18h3M6 19h3M18 19h3M6 20h3M18 20h3"/>
                </g>
            </svg>
            <svg viewBox="0 0 100 30" width="100" height="30" x="0" y="0">
                <g id="username-[[${id}]]">
                    <rect x="0" y="0" width="100" height="20" fill="black" fill-opacity="0.8" rx="5"/>
                    <svg x="4" y="2.5" width="15" height="15" viewBox="0 0 100 100">
                        <path fill-rule="evenodd" clip-rule="evenodd"
                              d="M48.854 0C21.839 0 0 22 0 49.217c0 21.756 13.993 40.172 33.405 46.69 2.427.49 3.316-1.059 3.316-2.362 0-1.141-.08-5.052-.08-9.127-13.59 2.934-16.42-5.867-16.42-5.867-2.184-5.704-5.42-7.17-5.42-7.17-4.448-3.015.324-3.015.324-3.015 4.934.326 7.523 5.052 7.523 5.052 4.367 7.496 11.404 5.378 14.235 4.074.404-3.178 1.699-5.378 3.074-6.6-10.839-1.141-22.243-5.378-22.243-24.283 0-5.378 1.94-9.778 5.014-13.2-.485-1.222-2.184-6.275.486-13.038 0 0 4.125-1.304 13.426 5.052a46.97 46.97 0 0 1 12.214-1.63c4.125 0 8.33.571 12.213 1.63 9.302-6.356 13.427-5.052 13.427-5.052 2.67 6.763.97 11.816.485 13.038 3.155 3.422 5.015 7.822 5.015 13.2 0 18.905-11.404 23.06-22.324 24.283 1.78 1.548 3.316 4.481 3.316 9.126 0 6.6-.08 11.897-.08 13.526 0 1.304.89 2.853 3.316 2.364 19.412-6.52 33.405-24.935 33.405-46.691C97.707 22 75.788 0 48.854 0z"
                              fill="#fff"/>
                    </svg>
                     <text x="25" y="11" dominant-baseline="middle" style="fill:white" font-size="13">
                        [[${#strings.abbreviate(username, 12)}]]
                    </text>
                    <rect x="0" y="23" width="[[${exp}]]" height="2" fill="#48ff00" rx="1"/>
                </g>
            </svg>
        </g>
    </a>
    <style>
        #frame1-[[${id}]] {
        animation: 1s frameToggle infinite;
        }
        #frame2-[[${id}]] {
        animation: 1s frameToggle infinite reverse;
        }
        #body-[[${id}]] {
        animation: move-body-[[${id}]] [[${motion.duration}]]s infinite;
        }
        #username-[[${id}]] {
        animation: move-username-[[${id}]] [[${motion.duration}]]s infinite;
        }
        @keyframes move-body-[[${id}]] {
        0%, 10% {
        transform: translate([[${motion.positions[0].x}]]%, [[${y}]]%) scaleX([[${motion.positions[0].direction}]]);
        }
        20%, 30% {
        transform: translate([[${motion.positions[1].x}]]%, [[${y}]]%) scaleX([[${motion.positions[1].direction}]]);
        }
        40%, 50% {
        transform: translate([[${motion.positions[2].x}]]%, [[${y}]]%) scaleX([[${motion.positions[2].direction}]]);
        }
        50.01% {
        transform: translate([[${motion.positions[3].x}]]%, [[${y}]]%) scaleX([[${motion.positions[3].direction}]]);
        }
        60%, 70% {
        transform: translate([[${motion.positions[4].x}]]%, [[${y}]]%) scaleX([[${motion.positions[4].direction}]]);
        }
        80%, 100% {
        transform: translate([[${motion.positions[5].x}]]%, [[${y}]]%) scaleX([[${motion.positions[5].direction}]]);
        }
        }
        @keyframes move-username-[[${id}]] {
        0%, 10% {
        transform: scaleX([[${motion.positions[0].direction}]])
        translateX([[${motion.positions[0].direction > 0 ? 0: -100}]]%);
        }
        20%, 30% {
        transform: scaleX([[${motion.positions[1].direction}]])
        translateX([[${motion.positions[1].direction > 0 ? 0: -100}]]%);
        }
        40%, 50% {
        transform: scaleX([[${motion.positions[2].direction}]])
        translateX([[${motion.positions[2].direction > 0 ? 0: -100}]]%);
        }
        50.01% {
        transform: scaleX([[${motion.positions[3].direction}]])
        translateX([[${motion.positions[3].direction > 0 ? 0: -100}]]%);
        }
        60%, 70% {
        transform: scaleX([[${motion.positions[4].direction}]])
        translateX([[${motion.positions[4].direction > 0 ? 0: -100}]]%);
        }
        80%, 100% {
        transform: scaleX([[${motion.positions[5].direction}]])
        translateX([[${motion.positions[5].direction > 0 ? 0: -100}]]%);
        }
        }
    </style>
</svg>
