<svg fill="none" overflow="visible" xmlns="http://www.w3.org/2000/svg">
    <a href="https://github.com/[[${username}]]">
        <g id="body-[[${id}]]">
            <svg viewBox="0 0 100 100" width="100" height="100" x="27" y="30">
                <g id="frame1-[[${id}]]">
                    <path stroke="#000000"
                          d="M21 6h6M21 7h6M21 8h6M21 9h3M27 9h3M21 10h3M27 10h3M21 11h3M27 11h3M21 12h3M27 12h3M21 13h3M27 13h3M21 14h3M27 14h3M6 15h18M27 15h12M6 16h18M27 16h12M6 17h18M27 17h12M3 18h3M9 18h3M21 18h6M36 18h6M3 19h3M9 19h3M21 19h6M36 19h6M3 20h3M9 20h3M21 20h6M36 20h6M3 21h6M15 21h6M24 21h6M39 21h3M3 22h6M15 22h6M24 22h6M39 22h3M3 23h6M15 23h6M24 23h6M39 23h3M6 24h3M12 24h24M39 24h3M6 25h3M12 25h24M39 25h3M6 26h3M12 26h24M39 26h3M6 27h6M15 27h3M27 27h3M36 27h6M6 28h6M15 28h3M27 28h3M36 28h6M6 29h6M15 29h3M27 29h3M36 29h6M12 30h3M24 30h3M30 30h3M12 31h3M24 31h3M30 31h3M12 32h3M24 32h3M30 32h3M9 33h3M15 33h3M21 33h3M27 33h3M33 33h3M9 34h3M15 34h3M21 34h3M27 34h3M33 34h3M9 35h3M15 35h3M21 35h3M27 35h3M33 35h3M9 36h6M24 36h3M33 36h3M9 37h6M24 37h3M33 37h3M9 38h6M24 38h3M33 38h3M9 39h3M33 39h3M9 40h3M33 40h3M9 41h3M33 41h3M12 42h21M12 43h21M12 44h21"/>
                    <path stroke="#ff0000" d="M24 9h3M24 10h3M24 11h3"/>
                    <path stroke="#ff9300" d="M24 12h3M24 13h3M24 14h3"/>
                    <path stroke="#ffff00"
                          d="M24 15h3M24 16h3M24 17h3M15 18h6M27 18h6M15 19h6M27 19h6M15 20h6M27 20h6"/>
                    <path stroke="#1e51ff"
                          d="M6 18h3M12 18h3M33 18h3M6 19h3M12 19h3M33 19h3M6 20h3M12 20h3M33 20h3M9 21h6M21 21h3M30 21h9M9 22h6M21 22h3M30 22h9M9 23h6M21 23h3M30 23h9M9 24h3M36 24h3M9 25h3M36 25h3M9 26h3M36 26h3"/>
                    <path stroke="#ffbfd1"
                          d="M18 27h9M18 28h9M18 29h9M15 30h9M27 30h3M15 31h9M27 31h3M15 32h9M27 32h3M18 33h3M30 33h3M18 34h3M30 34h3M18 35h3M30 35h3M15 36h9M27 36h6M15 37h9M27 37h6M15 38h9M27 38h6M12 39h21M12 40h21M12 41h21"/>
                    <path stroke="#71ff71" d="M12 33h3M24 33h3M12 34h3M24 34h3M12 35h3M24 35h3"/>
                </g>
                <g id="frame2-[[${id}]]">
                    <path stroke="#000000"
                          d="M21 6h6M21 7h6M21 8h6M18 9h3M27 9h3M18 10h3M27 10h3M18 11h3M27 11h3M9 12h15M27 12h9M9 13h15M27 13h9M9 14h15M27 14h9M6 15h3M12 15h3M21 15h6M33 15h6M6 16h3M12 16h3M21 16h6M33 16h6M6 17h3M12 17h3M21 17h6M33 17h6M3 18h3M9 18h3M18 18h3M24 18h3M36 18h6M3 19h3M9 19h3M18 19h3M24 19h3M36 19h6M3 20h3M9 20h3M18 20h3M24 20h3M36 20h6M3 21h3M9 21h3M15 21h18M36 21h6M3 22h3M9 22h3M15 22h18M36 22h6M3 23h3M9 23h3M15 23h18M36 23h6M6 24h3M12 24h6M27 24h3M33 24h6M6 25h3M12 25h6M27 25h3M33 25h6M6 26h3M12 26h6M27 26h3M33 26h6M12 27h3M24 27h3M30 27h3M12 28h3M24 28h3M30 28h3M12 29h3M24 29h3M30 29h3M9 30h3M15 30h3M21 30h3M27 30h3M33 30h3M9 31h3M15 31h3M21 31h3M27 31h3M33 31h3M9 32h3M15 32h3M21 32h3M27 32h3M33 32h3M9 33h6M24 33h3M33 33h3M9 34h6M24 34h3M33 34h3M9 35h6M24 35h3M33 35h3M9 36h3M33 36h3M9 37h3M33 37h3M9 38h3M33 38h3M12 39h21M12 40h21M12 41h21M15 42h6M24 42h6M15 43h6M24 43h6M15 44h6M24 44h6"/>
                    <path stroke="#ff0000" d="M21 9h3M21 10h3M21 11h3"/>
                    <path stroke="#ff9300" d="M24 9h3M24 10h3M24 11h3"/>
                    <path stroke="#ffff00"
                          d="M24 12h3M24 13h3M24 14h3M9 15h3M15 15h6M27 15h6M9 16h3M15 16h6M27 16h6M9 17h3M15 17h6M27 17h6"/>
                    <path stroke="#1e51ff"
                          d="M6 18h3M12 18h6M21 18h3M27 18h9M6 19h3M12 19h6M21 19h3M27 19h9M6 20h3M12 20h6M21 20h3M27 20h9M6 21h3M12 21h3M33 21h3M6 22h3M12 22h3M33 22h3M6 23h3M12 23h3M33 23h3"/>
                    <path stroke="#ffbfd1"
                          d="M18 24h9M18 25h9M18 26h9M15 27h9M27 27h3M15 28h9M27 28h3M15 29h9M27 29h3M18 30h3M30 30h3M18 31h3M30 31h3M18 32h3M30 32h3M15 33h9M27 33h6M15 34h9M27 34h6M15 35h9M27 35h6M12 36h21M12 37h21M12 38h21"/>
                    <path stroke="#71ff71" d="M12 30h3M24 30h3M12 31h3M24 31h3M12 32h3M24 32h3"/>
                </g>
            </svg>
            <svg viewBox="0 0 100 30" width="100" height="30" x="0" y="0">
                <g id="username-[[${id}]]">
                    <rect x="0" y="0" width="100" height="20" fill="black" fill-opacity="0.8" rx="5"/>
                    <svg x="4" y="2.5" width="15" height="15" viewBox="0 0 100 100">
                        <path fill-rule="evenodd" clip-rule="evenodd"
                              d="M48.854 0C21.839 0 0 22 0 49.217c0 21.756 13.993 40.172 33.405 46.69 2.427.49 3.316-1.059 3.316-2.362 0-1.141-.08-5.052-.08-9.127-13.59 2.934-16.42-5.867-16.42-5.867-2.184-5.704-5.42-7.17-5.42-7.17-4.448-3.015.324-3.015.324-3.015 4.934.326 7.523 5.052 7.523 5.052 4.367 7.496 11.404 5.378 14.235 4.074.404-3.178 1.699-5.378 3.074-6.6-10.839-1.141-22.243-5.378-22.243-24.283 0-5.378 1.94-9.778 5.014-13.2-.485-1.222-2.184-6.275.486-13.038 0 0 4.125-1.304 13.426 5.052a46.97 46.97 0 0 1 12.214-1.63c4.125 0 8.33.571 12.213 1.63 9.302-6.356 13.427-5.052 13.427-5.052 2.67 6.763.97 11.816.485 13.038 3.155 3.422 5.015 7.822 5.015 13.2 0 18.905-11.404 23.06-22.324 24.283 1.78 1.548 3.316 4.481 3.316 9.126 0 6.6-.08 11.897-.08 13.526 0 1.304.89 2.853 3.316 2.364 19.412-6.52 33.405-24.935 33.405-46.691C97.707 22 75.788 0 48.854 0z"
                              fill="#fff"/>
                    </svg>
                     <text x="25" y="11" dominant-baseline="middle" style="fill:white" font-size="13">
                        [[${#strings.abbreviate(username, 12)}]]
                    </text>
                    <rect x="0" y="23" width="[[${exp}]]" height="2" fill="#48ff00" rx="1"/>
                </g>
            </svg>
        </g>
    </a>
    <style>
        #frame1-[[${id}]] {
        animation: 1s frameToggle infinite;
        }
        #frame2-[[${id}]] {
        animation: 1s frameToggle infinite reverse;
        }
        #body-[[${id}]] {
        animation: move-body-[[${id}]] [[${motion.duration}]]s infinite;
        }
        #username-[[${id}]] {
        animation: move-username-[[${id}]] [[${motion.duration}]]s infinite;
        }
        @keyframes move-body-[[${id}]] {
        0%, 10% {
        transform: translate([[${motion.positions[0].x}]]%, [[${y}]]%) scaleX([[${motion.positions[0].direction}]]);
        }
        20%, 30% {
        transform: translate([[${motion.positions[1].x}]]%, [[${y}]]%) scaleX([[${motion.positions[1].direction}]]);
        }
        40%, 50% {
        transform: translate([[${motion.positions[2].x}]]%, [[${y}]]%) scaleX([[${motion.positions[2].direction}]]);
        }
        50.01% {
        transform: translate([[${motion.positions[3].x}]]%, [[${y}]]%) scaleX([[${motion.positions[3].direction}]]);
        }
        60%, 70% {
        transform: translate([[${motion.positions[4].x}]]%, [[${y}]]%) scaleX([[${motion.positions[4].direction}]]);
        }
        80%, 100% {
        transform: translate([[${motion.positions[5].x}]]%, [[${y}]]%) scaleX([[${motion.positions[5].direction}]]);
        }
        }
        @keyframes move-username-[[${id}]] {
        0%, 10% {
        transform: scaleX([[${motion.positions[0].direction}]])
        translateX([[${motion.positions[0].direction > 0 ? 0: -100}]]%);
        }
        20%, 30% {
        transform: scaleX([[${motion.positions[1].direction}]])
        translateX([[${motion.positions[1].direction > 0 ? 0: -100}]]%);
        }
        40%, 50% {
        transform: scaleX([[${motion.positions[2].direction}]])
        translateX([[${motion.positions[2].direction > 0 ? 0: -100}]]%);
        }
        50.01% {
        transform: scaleX([[${motion.positions[3].direction}]])
        translateX([[${motion.positions[3].direction > 0 ? 0: -100}]]%);
        }
        60%, 70% {
        transform: scaleX([[${motion.positions[4].direction}]])
        translateX([[${motion.positions[4].direction > 0 ? 0: -100}]]%);
        }
        80%, 100% {
        transform: scaleX([[${motion.positions[5].direction}]])
        translateX([[${motion.positions[5].direction > 0 ? 0: -100}]]%);
        }
        }
    </style>
</svg>
