<svg fill="none" overflow="visible" xmlns="http://www.w3.org/2000/svg">
    <a href="https://github.com/[[${username}]]">
        <g id="body-[[${id}]]">
            <svg viewBox="0 0 100 100" width="100" height="100" x="15" y="25">
                <g id="standing-[[${id}]]">
                    <g id="frame1-[[${id}]]">
                        <path stroke="rgba(255,255,255,0.00392156862745098)"
                              d="M45 0h9M45 1h9M45 2h9M21 3h3M48 3h3M21 4h3M48 4h3M21 5h3M48 5h3M54 18h3M54 19h3M54 20h3M18 30h3M18 31h3M18 32h3M18 33h3M51 33h6M18 34h3M51 34h6M18 35h3M51 35h6M18 36h3M54 36h3M18 37h3M54 37h3M18 38h3M54 38h3M18 39h3M54 39h3M18 40h3M54 40h3M18 41h3M54 41h3M18 42h3M54 42h3M18 43h3M54 43h3M18 44h3M54 44h3M21 45h3M21 46h3M21 47h3M21 48h3M21 49h3M21 50h3M18 51h3M63 51h3M18 52h3M63 52h3M18 53h3M63 53h3M18 54h3M18 55h3M18 56h3M57 63h3M57 64h3M57 65h3M57 66h9M57 67h9M57 68h9M51 69h3M51 70h3M51 71h3M33 72h3M39 72h3M51 72h3M33 73h3M39 73h3M51 73h3M33 74h3M39 74h3M51 74h3"/>
                        <path stroke="#000000"
                              d="M27 3h6M36 3h9M27 4h6M36 4h9M27 5h6M36 5h9M24 6h12M42 6h6M24 7h12M42 7h6M24 8h12M42 8h6M21 9h6M42 9h3M48 9h6M21 10h6M42 10h3M48 10h6M21 11h6M42 11h3M48 11h6M21 12h6M39 12h3M51 12h3M21 13h6M39 13h3M51 13h3M21 14h6M39 14h3M51 14h3M24 15h3M39 15h3M48 15h3M24 16h3M39 16h3M48 16h3M24 17h3M39 17h3M48 17h3M21 18h6M39 18h3M48 18h6M21 19h6M39 19h3M48 19h6M21 20h6M39 20h3M48 20h6M18 21h9M36 21h3M42 21h3M51 21h9M18 22h9M36 22h3M42 22h3M51 22h9M18 23h9M36 23h3M42 23h3M51 23h9M18 24h6M27 24h9M42 24h3M51 24h3M57 24h3M18 25h6M27 25h9M42 25h3M51 25h3M57 25h3M18 26h6M27 26h9M42 26h3M51 26h3M57 26h3M18 27h9M39 27h3M48 27h3M57 27h3M18 28h9M39 28h3M48 28h3M57 28h3M18 29h9M39 29h3M48 29h3M57 29h3M21 30h9M36 30h12M51 30h6M21 31h9M36 31h12M51 31h6M21 32h9M36 32h12M51 32h6M24 33h15M48 33h3M24 34h15M48 34h3M24 35h15M48 35h3M27 36h3M36 36h9M51 36h3M27 37h3M36 37h9M51 37h3M27 38h3M36 38h9M51 38h3M24 39h3M30 39h6M45 39h9M24 40h3M30 40h6M45 40h9M24 41h3M30 41h6M45 41h9M24 42h3M42 42h6M51 42h3M24 43h3M42 43h6M51 43h3M24 44h3M42 44h6M51 44h3M24 45h6M39 45h3M45 45h3M51 45h6M24 46h6M39 46h3M45 46h3M51 46h6M24 47h6M39 47h3M45 47h3M51 47h6M24 48h6M39 48h3M45 48h3M51 48h3M57 48h3M24 49h6M39 49h3M45 49h3M51 49h3M57 49h3M24 50h6M39 50h3M45 50h3M51 50h3M57 50h3M21 51h3M27 51h3M42 51h6M54 51h3M60 51h3M21 52h3M27 52h3M42 52h6M54 52h3M60 52h3M21 53h3M27 53h3M42 53h6M54 53h3M60 53h3M21 54h3M27 54h3M33 54h3M42 54h6M54 54h3M63 54h3M21 55h3M27 55h3M33 55h3M42 55h6M54 55h3M63 55h3M21 56h3M27 56h3M33 56h3M42 56h6M54 56h3M63 56h3M21 57h9M33 57h3M42 57h3M48 57h6M63 57h3M21 58h9M33 58h3M42 58h3M48 58h6M63 58h3M21 59h9M33 59h3M42 59h3M48 59h6M63 59h3M18 60h24M45 60h3M54 60h6M63 60h3M18 61h24M45 61h3M54 61h6M63 61h3M18 62h24M45 62h3M54 62h6M63 62h3M15 63h6M24 63h6M33 63h6M45 63h6M54 63h3M60 63h6M15 64h6M24 64h6M33 64h6M45 64h6M54 64h3M60 64h6M15 65h6M24 65h6M33 65h6M45 65h6M54 65h3M60 65h6M12 66h6M27 66h3M36 66h3M51 66h6M12 67h6M27 67h3M36 67h3M51 67h6M12 68h6M27 68h3M36 68h3M51 68h6M24 69h3M33 69h9M48 69h3M24 70h3M33 70h9M48 70h3M24 71h3M33 71h9M48 71h3M24 72h9M36 72h3M42 72h9M24 73h9M36 73h3M42 73h9M24 74h9M36 74h3M42 74h9"/>
                        <path stroke="#ff0000"
                              d="M36 6h6M36 7h6M36 8h6M27 9h15M45 9h3M27 10h15M45 10h3M27 11h15M45 11h3M27 12h12M42 12h9M27 13h12M42 13h9M27 14h12M42 14h9M27 15h12M42 15h6M27 16h12M42 16h6M27 17h12M42 17h6M27 18h12M42 18h6M27 19h12M42 19h6M27 20h12M42 20h6M27 21h9M45 21h6M27 22h9M45 22h6M27 23h9M45 23h6M24 24h3M45 24h6M24 25h3M45 25h6M24 26h3M45 26h6M42 27h6M42 28h6M42 29h6M39 39h3M39 40h3M39 41h3M27 42h3M33 42h9M48 42h3M27 43h3M33 43h9M48 43h3M27 44h3M33 44h9M48 44h3M33 45h6M48 45h3M33 46h6M48 46h3M33 47h6M48 47h3M36 48h3M48 48h3M36 49h3M48 49h3M36 50h3M48 50h3M24 51h3M33 51h9M48 51h6M24 52h3M33 52h9M48 52h6M24 53h3M33 53h9M48 53h6M24 54h3M30 54h3M36 54h6M48 54h6M24 55h3M30 55h3M36 55h6M48 55h6M24 56h3M30 56h3M36 56h6M48 56h6M30 57h3M36 57h6M30 58h3M36 58h6M30 59h3M36 59h6"/>
                        <path stroke="#ffe0d2"
                              d="M39 21h3M39 22h3M39 23h3M36 24h6M36 25h6M36 26h6M27 27h12M27 28h12M27 29h12M33 30h3M33 31h3M33 32h3M27 39h3M36 39h3M42 39h3M27 40h3M36 40h3M42 40h3M27 41h3M36 41h3M42 41h3M30 42h3M30 43h3M30 44h3M30 45h3M30 46h3M30 47h3M30 48h6M30 49h6M30 50h6M30 51h3M30 52h3M30 53h3"/>
                        <path stroke="#00c000"
                              d="M54 24h3M54 25h3M54 26h3M51 27h6M51 28h6M51 29h6M48 30h3M48 31h3M48 32h3M39 33h9M39 34h9M39 35h9M45 36h6M45 37h6M45 38h6"/>
                        <path stroke="#ed6f5c" d="M30 30h3M30 31h3M30 32h3"/>
                        <path stroke="#ff80b3" d="M30 36h6M30 37h6M30 38h6"/>
                        <path stroke="#dddddd"
                              d="M42 45h3M42 46h3M42 47h3M42 48h3M54 48h3M42 49h3M54 49h3M42 50h3M54 50h3M57 51h3M57 52h3M57 53h3M60 54h3M60 55h3M60 56h3M45 57h3M54 57h3M45 58h3M54 58h3M45 59h3M54 59h3M60 60h3M60 61h3M60 62h3M51 63h3M51 64h3M51 65h3"/>
                        <path stroke="#ffff00"
                              d="M57 54h3M57 55h3M57 56h3M57 57h6M57 58h6M57 59h6M48 60h6M48 61h6M48 62h6"/>
                        <path stroke="#404040"
                              d="M42 60h3M42 61h3M42 62h3M30 63h3M39 63h6M30 64h3M39 64h6M30 65h3M39 65h6M30 66h6M39 66h6M30 67h6M39 67h6M30 68h6M39 68h6M27 69h6M42 69h6M27 70h6M42 70h6M27 71h6M42 71h6"/>
                        <path stroke="#010101" d="M45 66h3M45 67h3M45 68h3"/>
                        <path stroke="#ffffff" d="M48 66h3M48 67h3M48 68h3"/>
                    </g>
                    <g id="frame2-[[${id}]]">
                        <path stroke="rgba(255,255,255,0.00392156862745098)"
                              d="M45 0h9M45 1h9M45 2h9M21 6h3M48 6h3M21 7h3M48 7h3M21 8h3M48 8h3M54 21h3M54 22h3M54 23h3M18 33h3M18 34h3M18 35h3M18 36h3M51 36h6M18 37h3M51 37h6M18 38h3M51 38h6M18 39h3M54 39h3M18 40h3M54 40h3M18 41h3M54 41h3M18 42h3M54 42h3M18 43h3M54 43h3M18 44h3M54 44h3M18 45h3M54 45h3M18 46h3M54 46h3M18 47h3M54 47h3M18 48h3M18 49h3M18 50h3M18 51h3M18 52h3M18 53h3M15 54h3M63 54h3M15 55h3M63 55h3M15 56h3M63 56h3M15 57h3M15 58h3M15 59h3M57 66h3M57 67h3M57 68h3M57 69h9M57 70h9M57 71h9M33 72h3M39 72h3M51 72h3M33 73h3M39 73h3M51 73h3M33 74h3M39 74h3M51 74h3"/>
                        <path stroke="#000000"
                              d="M27 6h6M36 6h9M27 7h6M36 7h9M27 8h6M36 8h9M24 9h12M42 9h6M24 10h12M42 10h6M24 11h12M42 11h6M21 12h6M42 12h3M48 12h6M21 13h6M42 13h3M48 13h6M21 14h6M42 14h3M48 14h6M21 15h6M39 15h3M51 15h3M21 16h6M39 16h3M51 16h3M21 17h6M39 17h3M51 17h3M24 18h3M39 18h3M48 18h3M24 19h3M39 19h3M48 19h3M24 20h3M39 20h3M48 20h3M21 21h6M39 21h3M48 21h6M21 22h6M39 22h3M48 22h6M21 23h6M39 23h3M48 23h6M18 24h9M36 24h3M42 24h3M51 24h9M18 25h9M36 25h3M42 25h3M51 25h9M18 26h9M36 26h3M42 26h3M51 26h9M18 27h6M27 27h9M42 27h3M51 27h3M57 27h3M18 28h6M27 28h9M42 28h3M51 28h3M57 28h3M18 29h6M27 29h9M42 29h3M51 29h3M57 29h3M18 30h9M39 30h3M48 30h3M57 30h3M18 31h9M39 31h3M48 31h3M57 31h3M18 32h9M39 32h3M48 32h3M57 32h3M21 33h9M36 33h12M51 33h6M21 34h9M36 34h12M51 34h6M21 35h9M36 35h12M51 35h6M24 36h15M48 36h3M24 37h15M48 37h3M24 38h15M48 38h3M27 39h3M36 39h9M51 39h3M27 40h3M36 40h9M51 40h3M27 41h3M36 41h9M51 41h3M24 42h3M30 42h6M45 42h9M24 43h3M30 43h6M45 43h9M24 44h3M30 44h6M45 44h9M24 45h3M42 45h6M51 45h3M24 46h3M42 46h6M51 46h3M24 47h3M42 47h6M51 47h3M24 48h6M39 48h3M45 48h3M51 48h6M24 49h6M39 49h3M45 49h3M51 49h6M24 50h6M39 50h3M45 50h3M51 50h6M21 51h9M39 51h3M48 51h3M54 51h6M21 52h9M39 52h3M48 52h3M54 52h6M21 53h9M39 53h3M48 53h3M54 53h6M18 54h3M27 54h3M42 54h3M48 54h3M57 54h6M18 55h3M27 55h3M42 55h3M48 55h3M57 55h6M18 56h3M27 56h3M42 56h3M48 56h3M57 56h6M18 57h3M27 57h3M33 57h3M42 57h3M48 57h3M57 57h3M63 57h3M18 58h3M27 58h3M33 58h3M42 58h3M48 58h3M57 58h3M63 58h3M18 59h3M27 59h3M33 59h3M42 59h3M48 59h3M57 59h3M63 59h3M18 60h24M45 60h3M51 60h6M63 60h3M18 61h24M45 61h3M51 61h6M63 61h3M18 62h24M45 62h3M51 62h6M63 62h3M15 63h6M24 63h6M33 63h6M45 63h3M54 63h6M63 63h3M15 64h6M24 64h6M33 64h6M45 64h3M54 64h6M63 64h3M15 65h6M24 65h6M33 65h6M45 65h3M54 65h6M63 65h3M12 66h6M24 66h6M36 66h3M48 66h3M54 66h3M60 66h6M12 67h6M24 67h6M36 67h3M48 67h3M54 67h3M60 67h6M12 68h6M24 68h6M36 68h3M48 68h3M54 68h3M60 68h6M9 69h6M24 69h3M33 69h9M48 69h9M9 70h6M24 70h3M33 70h9M48 70h9M9 71h6M24 71h3M33 71h9M48 71h9M24 72h9M36 72h3M42 72h9M24 73h9M36 73h3M42 73h9M24 74h9M36 74h3M42 74h9"/>
                        <path stroke="#ff0000"
                              d="M36 9h6M36 10h6M36 11h6M27 12h15M45 12h3M27 13h15M45 13h3M27 14h15M45 14h3M27 15h12M42 15h9M27 16h12M42 16h9M27 17h12M42 17h9M27 18h12M42 18h6M27 19h12M42 19h6M27 20h12M42 20h6M27 21h12M42 21h6M27 22h12M42 22h6M27 23h12M42 23h6M27 24h9M45 24h6M27 25h9M45 25h6M27 26h9M45 26h6M24 27h3M45 27h6M24 28h3M45 28h6M24 29h3M45 29h6M42 30h6M42 31h6M42 32h6M39 42h3M39 43h3M39 44h3M27 45h3M33 45h9M48 45h3M27 46h3M33 46h9M48 46h3M27 47h3M33 47h9M48 47h3M33 48h6M48 48h3M33 49h6M48 49h3M33 50h6M48 50h3M36 51h3M51 51h3M36 52h3M51 52h3M36 53h3M51 53h3M21 54h6M33 54h9M51 54h6M21 55h6M33 55h9M51 55h6M21 56h6M33 56h9M51 56h6M21 57h6M30 57h3M36 57h6M51 57h6M21 58h6M30 58h3M36 58h6M51 58h6M21 59h6M30 59h3M36 59h6M51 59h6"/>
                        <path stroke="#ffe0d2"
                              d="M39 24h3M39 25h3M39 26h3M36 27h6M36 28h6M36 29h6M27 30h12M27 31h12M27 32h12M33 33h3M33 34h3M33 35h3M27 42h3M36 42h3M42 42h3M27 43h3M36 43h3M42 43h3M27 44h3M36 44h3M42 44h3M30 45h3M30 46h3M30 47h3M30 48h3M30 49h3M30 50h3M30 51h6M30 52h6M30 53h6M30 54h3M30 55h3M30 56h3"/>
                        <path stroke="#00c000"
                              d="M54 27h3M54 28h3M54 29h3M51 30h6M51 31h6M51 32h6M48 33h3M48 34h3M48 35h3M39 36h9M39 37h9M39 38h9M45 39h6M45 40h6M45 41h6"/>
                        <path stroke="#ed6f5c" d="M30 33h3M30 34h3M30 35h3"/>
                        <path stroke="#ff80b3" d="M30 39h6M30 40h6M30 41h6"/>
                        <path stroke="#dddddd"
                              d="M42 48h3M42 49h3M42 50h3M42 51h6M42 52h6M42 53h6M45 54h3M45 55h3M45 56h3M45 57h3M60 57h3M45 58h3M60 58h3M45 59h3M60 59h3M48 60h3M48 61h3M48 62h3M60 63h3M60 64h3M60 65h3M51 66h3M51 67h3M51 68h3"/>
                        <path stroke="#404040"
                              d="M42 60h3M42 61h3M42 62h3M30 63h3M39 63h6M30 64h3M39 64h6M30 65h3M39 65h6M30 66h6M39 66h6M30 67h6M39 67h6M30 68h6M39 68h6M27 69h6M42 69h6M27 70h6M42 70h6M27 71h6M42 71h6"/>
                        <path stroke="#ffff00" d="M57 60h6M57 61h6M57 62h6M48 63h6M48 64h6M48 65h6"/>
                        <path stroke="#010101" d="M45 66h3M45 67h3M45 68h3"/>
                    </g>
                </g>
                <g id="walking-[[${id}]]">
                    <g id="frame3-[[${id}]]">
                        <path stroke="rgba(255,255,255,0.00392156862745098)"
                              d="M45 0h9M45 1h9M45 2h9M21 3h3M48 3h3M21 4h3M48 4h3M21 5h3M48 5h3M54 18h3M54 19h3M54 20h3M18 30h3M18 31h3M18 32h3M18 33h3M51 33h6M18 34h3M51 34h6M18 35h3M51 35h6M18 36h3M54 36h3M18 37h3M54 37h3M18 38h3M54 38h3M18 39h3M54 39h3M18 40h3M54 40h3M18 41h3M54 41h3M18 42h3M54 42h3M18 43h3M54 43h3M18 44h3M54 44h3M21 45h3M21 46h3M21 47h3M21 48h3M21 49h3M21 50h3M18 51h3M63 51h3M18 52h3M63 52h3M18 53h3M63 53h3M18 54h3M18 55h3M18 56h3M57 63h3M57 64h3M57 65h3M57 66h9M57 67h9M57 68h9M30 69h3M30 70h3M30 71h3M42 72h3M42 73h3M42 74h3"/>
                        <path stroke="#000000"
                              d="M27 3h6M36 3h9M27 4h6M36 4h9M27 5h6M36 5h9M24 6h12M42 6h6M24 7h12M42 7h6M24 8h12M42 8h6M21 9h6M42 9h3M48 9h6M21 10h6M42 10h3M48 10h6M21 11h6M42 11h3M48 11h6M21 12h6M39 12h3M51 12h3M21 13h6M39 13h3M51 13h3M21 14h6M39 14h3M51 14h3M24 15h3M39 15h3M48 15h3M24 16h3M39 16h3M48 16h3M24 17h3M39 17h3M48 17h3M21 18h6M39 18h3M48 18h6M21 19h6M39 19h3M48 19h6M21 20h6M39 20h3M48 20h6M18 21h9M36 21h3M42 21h3M51 21h9M18 22h9M36 22h3M42 22h3M51 22h9M18 23h9M36 23h3M42 23h3M51 23h9M18 24h6M27 24h9M42 24h3M51 24h3M57 24h3M18 25h6M27 25h9M42 25h3M51 25h3M57 25h3M18 26h6M27 26h9M42 26h3M51 26h3M57 26h3M18 27h9M39 27h3M48 27h3M57 27h3M18 28h9M39 28h3M48 28h3M57 28h3M18 29h9M39 29h3M48 29h3M57 29h3M21 30h9M36 30h12M51 30h6M21 31h9M36 31h12M51 31h6M21 32h9M36 32h12M51 32h6M24 33h15M48 33h3M24 34h15M48 34h3M24 35h15M48 35h3M27 36h3M36 36h9M51 36h3M27 37h3M36 37h9M51 37h3M27 38h3M36 38h9M51 38h3M24 39h3M30 39h6M45 39h9M24 40h3M30 40h6M45 40h9M24 41h3M30 41h6M45 41h9M24 42h3M42 42h6M51 42h3M24 43h3M42 43h6M51 43h3M24 44h3M42 44h6M51 44h3M24 45h6M39 45h3M45 45h3M51 45h6M24 46h6M39 46h3M45 46h3M51 46h6M24 47h6M39 47h3M45 47h3M51 47h6M24 48h6M39 48h3M45 48h3M51 48h3M57 48h3M24 49h6M39 49h3M45 49h3M51 49h3M57 49h3M24 50h6M39 50h3M45 50h3M51 50h3M57 50h3M21 51h3M27 51h3M42 51h6M54 51h3M60 51h3M21 52h3M27 52h3M42 52h6M54 52h3M60 52h3M21 53h3M27 53h3M42 53h6M54 53h3M60 53h3M21 54h3M27 54h3M33 54h3M42 54h6M54 54h3M63 54h3M21 55h3M27 55h3M33 55h3M42 55h6M54 55h3M63 55h3M21 56h3M27 56h3M33 56h3M42 56h6M54 56h3M63 56h3M21 57h18M42 57h3M48 57h6M63 57h3M21 58h18M42 58h3M48 58h6M63 58h3M21 59h18M42 59h3M48 59h6M63 59h3M18 60h12M33 60h9M45 60h3M54 60h6M63 60h3M18 61h12M33 61h9M45 61h3M54 61h6M63 61h3M18 62h12M33 62h9M45 62h3M54 62h6M63 62h3M15 63h6M24 63h3M33 63h6M45 63h6M54 63h3M60 63h6M15 64h6M24 64h3M33 64h6M45 64h6M54 64h3M60 64h6M15 65h6M24 65h3M33 65h6M45 65h6M54 65h3M60 65h6M12 66h6M21 66h3M30 66h6M39 66h3M51 66h6M12 67h6M21 67h3M30 67h6M39 67h3M51 67h6M12 68h6M21 68h3M30 68h6M39 68h3M51 68h6M21 69h9M33 69h3M39 69h6M51 69h3M21 70h9M33 70h3M39 70h6M51 70h3M21 71h9M33 71h3M39 71h6M51 71h3M39 72h3M45 72h9M39 73h3M45 73h9M39 74h3M45 74h9"/>
                        <path stroke="#ff0000"
                              d="M36 6h6M36 7h6M36 8h6M27 9h15M45 9h3M27 10h15M45 10h3M27 11h15M45 11h3M27 12h12M42 12h9M27 13h12M42 13h9M27 14h12M42 14h9M27 15h12M42 15h6M27 16h12M42 16h6M27 17h12M42 17h6M27 18h12M42 18h6M27 19h12M42 19h6M27 20h12M42 20h6M27 21h9M45 21h6M27 22h9M45 22h6M27 23h9M45 23h6M24 24h3M45 24h6M24 25h3M45 25h6M24 26h3M45 26h6M42 27h6M42 28h6M42 29h6M39 39h3M39 40h3M39 41h3M27 42h3M33 42h9M48 42h3M27 43h3M33 43h9M48 43h3M27 44h3M33 44h9M48 44h3M33 45h6M48 45h3M33 46h6M48 46h3M33 47h6M48 47h3M36 48h3M48 48h3M36 49h3M48 49h3M36 50h3M48 50h3M24 51h3M33 51h9M48 51h6M24 52h3M33 52h9M48 52h6M24 53h3M33 53h9M48 53h6M24 54h3M30 54h3M36 54h6M48 54h6M24 55h3M30 55h3M36 55h6M48 55h6M24 56h3M30 56h3M36 56h6M48 56h6M39 57h3M39 58h3M39 59h3"/>
                        <path stroke="#ffe0d2"
                              d="M39 21h3M39 22h3M39 23h3M36 24h6M36 25h6M36 26h6M27 27h12M27 28h12M27 29h12M33 30h3M33 31h3M33 32h3M27 39h3M36 39h3M42 39h3M27 40h3M36 40h3M42 40h3M27 41h3M36 41h3M42 41h3M30 42h3M30 43h3M30 44h3M30 45h3M30 46h3M30 47h3M30 48h6M30 49h6M30 50h6M30 51h3M30 52h3M30 53h3"/>
                        <path stroke="#00c000"
                              d="M54 24h3M54 25h3M54 26h3M51 27h6M51 28h6M51 29h6M48 30h3M48 31h3M48 32h3M39 33h9M39 34h9M39 35h9M45 36h6M45 37h6M45 38h6"/>
                        <path stroke="#ed6f5c" d="M30 30h3M30 31h3M30 32h3"/>
                        <path stroke="#ff80b3" d="M30 36h6M30 37h6M30 38h6"/>
                        <path stroke="#dddddd"
                              d="M42 45h3M42 46h3M42 47h3M42 48h3M54 48h3M42 49h3M54 49h3M42 50h3M54 50h3M57 51h3M57 52h3M57 53h3M60 54h3M60 55h3M60 56h3M45 57h3M54 57h3M45 58h3M54 58h3M45 59h3M54 59h3M60 60h3M60 61h3M60 62h3M51 63h3M51 64h3M51 65h3"/>
                        <path stroke="#ffff00"
                              d="M57 54h3M57 55h3M57 56h3M57 57h6M57 58h6M57 59h6M48 60h6M48 61h6M48 62h6"/>
                        <path stroke="#404040"
                              d="M30 60h3M42 60h3M30 61h3M42 61h3M30 62h3M42 62h3M27 63h6M39 63h6M27 64h6M39 64h6M27 65h6M39 65h6M24 66h6M42 66h6M24 67h6M42 67h6M24 68h6M42 68h6M45 69h6M45 70h6M45 71h6"/>
                        <path stroke="#010101" d="M48 66h3M48 67h3M48 68h3"/>
                    </g>
                    <g id="frame4-[[${id}]]">
                        <path stroke="rgba(255,255,255,0.00392156862745098)"
                              d="M45 0h9M45 1h9M45 2h9M21 3h3M48 3h3M21 4h3M48 4h3M21 5h3M48 5h3M54 18h3M54 19h3M54 20h3M18 30h3M18 31h3M18 32h3M18 33h3M51 33h6M18 34h3M51 34h6M18 35h3M51 35h6M18 36h3M54 36h3M18 37h3M54 37h3M18 38h3M54 38h3M18 39h3M54 39h3M18 40h3M54 40h3M18 41h3M54 41h3M18 42h3M54 42h3M18 43h3M54 43h3M18 44h3M54 44h3M21 45h3M21 46h3M21 47h3M18 48h3M18 49h3M18 50h3M15 51h3M63 51h3M15 52h3M63 52h3M15 53h3M63 53h3M15 54h3M15 55h3M15 56h3M57 63h3M57 64h3M57 65h3M57 66h9M57 67h9M57 68h9M39 69h3M51 69h3M39 70h3M51 70h3M39 71h3M51 71h3M33 72h3M51 72h3M33 73h3M51 73h3M33 74h3M51 74h3"/>
                        <path stroke="#000000"
                              d="M27 3h6M36 3h9M27 4h6M36 4h9M27 5h6M36 5h9M24 6h12M42 6h6M24 7h12M42 7h6M24 8h12M42 8h6M21 9h6M42 9h3M48 9h6M21 10h6M42 10h3M48 10h6M21 11h6M42 11h3M48 11h6M21 12h6M39 12h3M51 12h3M21 13h6M39 13h3M51 13h3M21 14h6M39 14h3M51 14h3M24 15h3M39 15h3M48 15h3M24 16h3M39 16h3M48 16h3M24 17h3M39 17h3M48 17h3M21 18h6M39 18h3M48 18h6M21 19h6M39 19h3M48 19h6M21 20h6M39 20h3M48 20h6M18 21h9M36 21h3M42 21h3M51 21h9M18 22h9M36 22h3M42 22h3M51 22h9M18 23h9M36 23h3M42 23h3M51 23h9M18 24h6M27 24h9M42 24h3M51 24h3M57 24h3M18 25h6M27 25h9M42 25h3M51 25h3M57 25h3M18 26h6M27 26h9M42 26h3M51 26h3M57 26h3M18 27h9M39 27h3M48 27h3M57 27h3M18 28h9M39 28h3M48 28h3M57 28h3M18 29h9M39 29h3M48 29h3M57 29h3M21 30h9M36 30h12M51 30h6M21 31h9M36 31h12M51 31h6M21 32h9M36 32h12M51 32h6M24 33h15M48 33h3M24 34h15M48 34h3M24 35h15M48 35h3M27 36h3M36 36h9M51 36h3M27 37h3M36 37h9M51 37h3M27 38h3M36 38h9M51 38h3M24 39h3M30 39h6M45 39h9M24 40h3M30 40h6M45 40h9M24 41h3M30 41h6M45 41h9M24 42h3M42 42h6M51 42h3M24 43h3M42 43h6M51 43h3M24 44h3M42 44h6M51 44h3M24 45h6M39 45h3M45 45h3M51 45h6M24 46h6M39 46h3M45 46h3M51 46h6M24 47h6M39 47h3M45 47h3M51 47h6M21 48h3M27 48h3M39 48h3M48 48h3M54 48h6M21 49h3M27 49h3M39 49h3M48 49h3M54 49h6M21 50h3M27 50h3M39 50h3M48 50h3M54 50h6M18 51h3M27 51h3M42 51h3M48 51h3M57 51h6M18 52h3M27 52h3M42 52h3M48 52h3M57 52h6M18 53h3M27 53h3M42 53h3M48 53h3M57 53h6M18 54h3M27 54h3M33 54h3M42 54h3M48 54h3M57 54h3M63 54h3M18 55h3M27 55h3M33 55h3M42 55h3M48 55h3M57 55h3M63 55h3M18 56h3M27 56h3M33 56h3M42 56h3M48 56h3M57 56h3M63 56h3M18 57h12M33 57h9M45 57h12M63 57h3M18 58h12M33 58h9M45 58h12M63 58h3M18 59h12M33 59h9M45 59h12M63 59h3M15 60h6M24 60h15M45 60h3M54 60h6M63 60h3M15 61h6M24 61h15M45 61h3M54 61h6M63 61h3M15 62h6M24 62h15M45 62h3M54 62h6M63 62h3M12 63h6M24 63h6M33 63h6M48 63h3M54 63h3M60 63h6M12 64h6M24 64h6M33 64h6M48 64h3M54 64h3M60 64h6M12 65h6M24 65h6M33 65h6M48 65h3M54 65h3M60 65h6M9 66h6M27 66h3M36 66h6M48 66h9M9 67h6M27 67h3M36 67h6M48 67h9M9 68h6M27 68h3M36 68h6M48 68h9M24 69h3M33 69h6M42 69h9M24 70h3M33 70h6M42 70h9M24 71h3M33 71h6M42 71h9M24 72h9M36 72h3M24 73h9M36 73h3M24 74h9M36 74h3"/>
                        <path stroke="#ff0000"
                              d="M36 6h6M36 7h6M36 8h6M27 9h15M45 9h3M27 10h15M45 10h3M27 11h15M45 11h3M27 12h12M42 12h9M27 13h12M42 13h9M27 14h12M42 14h9M27 15h12M42 15h6M27 16h12M42 16h6M27 17h12M42 17h6M27 18h12M42 18h6M27 19h12M42 19h6M27 20h12M42 20h6M27 21h9M45 21h6M27 22h9M45 22h6M27 23h9M45 23h6M24 24h3M45 24h6M24 25h3M45 25h6M24 26h3M45 26h6M42 27h6M42 28h6M42 29h6M39 39h3M39 40h3M39 41h3M27 42h3M33 42h9M48 42h3M27 43h3M33 43h9M48 43h3M27 44h3M33 44h9M48 44h3M33 45h6M48 45h3M33 46h6M48 46h3M33 47h6M48 47h3M24 48h3M36 48h3M51 48h3M24 49h3M36 49h3M51 49h3M24 50h3M36 50h3M51 50h3M21 51h6M33 51h9M51 51h6M21 52h6M33 52h9M51 52h6M21 53h6M33 53h9M51 53h6M21 54h6M30 54h3M36 54h6M51 54h6M21 55h6M30 55h3M36 55h6M51 55h6M21 56h6M30 56h3M36 56h6M51 56h6M30 57h3M30 58h3M30 59h3"/>
                        <path stroke="#ffe0d2"
                              d="M39 21h3M39 22h3M39 23h3M36 24h6M36 25h6M36 26h6M27 27h12M27 28h12M27 29h12M33 30h3M33 31h3M33 32h3M27 39h3M36 39h3M42 39h3M27 40h3M36 40h3M42 40h3M27 41h3M36 41h3M42 41h3M30 42h3M30 43h3M30 44h3M30 45h3M30 46h3M30 47h3M30 48h6M30 49h6M30 50h6M30 51h3M30 52h3M30 53h3"/>
                        <path stroke="#00c000"
                              d="M54 24h3M54 25h3M54 26h3M51 27h6M51 28h6M51 29h6M48 30h3M48 31h3M48 32h3M39 33h9M39 34h9M39 35h9M45 36h6M45 37h6M45 38h6"/>
                        <path stroke="#ed6f5c" d="M30 30h3M30 31h3M30 32h3"/>
                        <path stroke="#ff80b3" d="M30 36h6M30 37h6M30 38h6"/>
                        <path stroke="#dddddd"
                              d="M42 45h3M42 46h3M42 47h3M42 48h6M42 49h6M42 50h6M45 51h3M45 52h3M45 53h3M45 54h3M60 54h3M45 55h3M60 55h3M45 56h3M60 56h3M57 57h3M57 58h3M57 59h3M60 60h3M60 61h3M60 62h3M51 63h3M51 64h3M51 65h3"/>
                        <path stroke="#404040"
                              d="M42 57h3M42 58h3M42 59h3M39 60h6M39 61h6M39 62h6M30 63h3M39 63h6M30 64h3M39 64h6M30 65h3M39 65h6M30 66h6M42 66h6M30 67h6M42 67h6M30 68h6M42 68h6M27 69h6M27 70h6M27 71h6"/>
                        <path stroke="#ffff00" d="M60 57h3M60 58h3M60 59h3M48 60h6M48 61h6M48 62h6"/>
                        <path stroke="#010101" d="M45 63h3M45 64h3M45 65h3"/>
                    </g>
                </g>
            </svg>
            <svg viewBox="0 0 100 30" width="100" height="30" x="0" y="0">
                <g id="username-[[${id}]]">
                    <rect x="0" y="0" width="100" height="20" fill="black" fill-opacity="0.8" rx="5"/>
                    <svg x="4" y="2.5" width="15" height="15" viewBox="0 0 100 100">
                        <path fill-rule="evenodd" clip-rule="evenodd"
                              d="M48.854 0C21.839 0 0 22 0 49.217c0 21.756 13.993 40.172 33.405 46.69 2.427.49 3.316-1.059 3.316-2.362 0-1.141-.08-5.052-.08-9.127-13.59 2.934-16.42-5.867-16.42-5.867-2.184-5.704-5.42-7.17-5.42-7.17-4.448-3.015.324-3.015.324-3.015 4.934.326 7.523 5.052 7.523 5.052 4.367 7.496 11.404 5.378 14.235 4.074.404-3.178 1.699-5.378 3.074-6.6-10.839-1.141-22.243-5.378-22.243-24.283 0-5.378 1.94-9.778 5.014-13.2-.485-1.222-2.184-6.275.486-13.038 0 0 4.125-1.304 13.426 5.052a46.97 46.97 0 0 1 12.214-1.63c4.125 0 8.33.571 12.213 1.63 9.302-6.356 13.427-5.052 13.427-5.052 2.67 6.763.97 11.816.485 13.038 3.155 3.422 5.015 7.822 5.015 13.2 0 18.905-11.404 23.06-22.324 24.283 1.78 1.548 3.316 4.481 3.316 9.126 0 6.6-.08 11.897-.08 13.526 0 1.304.89 2.853 3.316 2.364 19.412-6.52 33.405-24.935 33.405-46.691C97.707 22 75.788 0 48.854 0z"
                              fill="#fff"/>
                    </svg>
                    <text x="25" y="11" dominant-baseline="middle" style="fill:white" font-size="13">
                        [[${#strings.abbreviate(username, 12)}]]
                    </text>
                    <rect x="0" y="23" width="[[${exp}]]" height="2" fill="#48ff00" rx="1"/>
                </g>
            </svg>
        </g>
    </a>
    <style>
        #frame1-[[${id}]] {
        animation: 1s frameToggle infinite;
        }
        #frame2-[[${id}]] {
        animation: 1s frameToggle infinite reverse;
        }
        #frame3-[[${id}]] {
        animation: 1s frameToggle infinite;
        }
        #frame4-[[${id}]] {
        animation: 1s frameToggle infinite reverse;
        }
        #standing-[[${id}]] {
        animation: standingToggle [[${motion.duration}]]s infinite;
        }
        #walking-[[${id}]] {
        animation: walkingToggle [[${motion.duration}]]s infinite;
        }
        #body-[[${id}]] {
        animation: move-body-[[${id}]] [[${motion.duration}]]s infinite;
        }
        #username-[[${id}]] {
        animation: move-username-[[${id}]] [[${motion.duration}]]s infinite;
        }
        @keyframes move-body-[[${id}]] {
        0%, 10% {
        transform: translate([[${motion.positions[0].x}]]%, [[${y}]]%) scaleX([[${motion.positions[0].direction}]]);
        }
        20%, 30% {
        transform: translate([[${motion.positions[1].x}]]%, [[${y}]]%) scaleX([[${motion.positions[1].direction}]]);
        }
        40%, 50% {
        transform: translate([[${motion.positions[2].x}]]%, [[${y}]]%) scaleX([[${motion.positions[2].direction}]]);
        }
        50.01% {
        transform: translate([[${motion.positions[3].x}]]%, [[${y}]]%) scaleX([[${motion.positions[3].direction}]]);
        }
        60%, 70% {
        transform: translate([[${motion.positions[4].x}]]%, [[${y}]]%) scaleX([[${motion.positions[4].direction}]]);
        }
        80%, 100% {
        transform: translate([[${motion.positions[5].x}]]%, [[${y}]]%) scaleX([[${motion.positions[5].direction}]]);
        }
        }
        @keyframes move-username-[[${id}]] {
        0%, 10% {
        transform: scaleX([[${motion.positions[0].direction}]])
        translateX([[${motion.positions[0].direction > 0 ? 0: -100}]]%);
        }
        20%, 30% {
        transform: scaleX([[${motion.positions[1].direction}]])
        translateX([[${motion.positions[1].direction > 0 ? 0: -100}]]%);
        }
        40%, 50% {
        transform: scaleX([[${motion.positions[2].direction}]])
        translateX([[${motion.positions[2].direction > 0 ? 0: -100}]]%);
        }
        50.01% {
        transform: scaleX([[${motion.positions[3].direction}]])
        translateX([[${motion.positions[3].direction > 0 ? 0: -100}]]%);
        }
        60%, 70% {
        transform: scaleX([[${motion.positions[4].direction}]])
        translateX([[${motion.positions[4].direction > 0 ? 0: -100}]]%);
        }
        80%, 100% {
        transform: scaleX([[${motion.positions[5].direction}]])
        translateX([[${motion.positions[5].direction > 0 ? 0: -100}]]%);
        }
        }
    </style>
</svg>
