<svg fill="none" overflow="visible" xmlns="http://www.w3.org/2000/svg">
    <a href="https://github.com/[[${username}]]">
        <g id="body-[[${id}]]">
            <svg viewBox="0 0 100 100" width="100" height="100" x="3" y="20">
                <g id="standing-[[${id}]]">
                    <g id="frame1-[[${id}]]">
                        <path stroke="#000000"
                              d="M33 6h6M45 6h6M33 7h6M45 7h6M33 8h6M45 8h6M24 9h3M33 9h3M39 9h3M45 9h3M51 9h3M24 10h3M33 10h3M39 10h3M45 10h3M51 10h3M24 11h3M33 11h3M39 11h3M45 11h3M51 11h3M24 12h21M48 12h3M54 12h3M24 13h21M48 13h3M54 13h3M24 14h21M48 14h3M54 14h3M24 15h3M33 15h9M45 15h6M57 15h3M24 16h3M33 16h9M45 16h6M57 16h3M24 17h3M33 17h9M45 17h6M57 17h3M24 18h18M45 18h6M57 18h3M24 19h18M45 19h6M57 19h3M24 20h18M45 20h6M57 20h3M24 21h3M36 21h3M45 21h6M60 21h6M24 22h3M36 22h3M45 22h6M60 22h6M24 23h3M36 23h3M45 23h6M60 23h6M21 24h3M33 24h3M39 24h9M60 24h3M66 24h3M21 25h3M33 25h3M39 25h9M60 25h3M66 25h3M21 26h3M33 26h3M39 26h9M60 26h3M66 26h3M21 27h3M33 27h15M60 27h3M66 27h3M21 28h3M33 28h15M60 28h3M66 28h3M21 29h3M33 29h15M60 29h3M66 29h3M21 30h3M36 30h3M42 30h6M57 30h3M69 30h3M21 31h3M36 31h3M42 31h6M57 31h3M69 31h3M21 32h3M36 32h3M42 32h6M57 32h3M69 32h3M18 33h9M30 33h6M48 33h3M54 33h6M69 33h3M18 34h9M30 34h6M48 34h3M54 34h6M69 34h3M18 35h9M30 35h6M48 35h3M54 35h6M69 35h3M18 36h6M27 36h3M33 36h3M48 36h6M69 36h3M18 37h6M27 37h3M33 37h3M48 37h6M69 37h3M18 38h6M27 38h3M33 38h3M48 38h6M69 38h3M18 39h6M33 39h3M48 39h3M66 39h9M18 40h6M33 40h3M48 40h3M66 40h9M18 41h6M33 41h3M48 41h3M66 41h9M18 42h12M36 42h3M51 42h6M60 42h9M72 42h3M18 43h12M36 43h3M51 43h6M60 43h9M72 43h3M18 44h12M36 44h3M51 44h6M60 44h9M72 44h3M21 45h6M30 45h6M39 45h15M57 45h6M72 45h3M21 46h6M30 46h6M39 46h15M57 46h6M72 46h3M21 47h6M30 47h6M39 47h15M57 47h6M72 47h3M24 48h9M36 48h3M42 48h3M54 48h3M69 48h3M24 49h9M36 49h3M42 49h3M54 49h3M69 49h3M24 50h9M36 50h3M42 50h3M54 50h3M69 50h3M24 51h3M33 51h3M42 51h9M54 51h3M66 51h3M24 52h3M33 52h3M42 52h9M54 52h3M66 52h3M24 53h3M33 53h3M42 53h9M54 53h3M66 53h3M24 54h3M30 54h3M36 54h3M45 54h3M51 54h21M24 55h3M30 55h3M36 55h3M45 55h3M51 55h21M24 56h3M30 56h3M36 56h3M45 56h3M51 56h21M24 57h6M39 57h6M51 57h3M69 57h3M24 58h6M39 58h6M51 58h3M69 58h3M24 59h6M39 59h6M51 59h3M69 59h3M24 60h6M39 60h3M45 60h6M54 60h6M66 60h3M24 61h6M39 61h3M45 61h6M54 61h6M66 61h3M24 62h6M39 62h3M45 62h6M54 62h6M66 62h3M27 63h3M39 63h9M51 63h3M57 63h9M27 64h3M39 64h9M51 64h3M57 64h9M27 65h3M39 65h9M51 65h3M57 65h9M27 66h3M39 66h3M48 66h3M54 66h3M60 66h3M27 67h3M39 67h3M48 67h3M54 67h3M60 67h3M27 68h3M39 68h3M48 68h3M54 68h3M60 68h3M27 69h15M51 69h3M57 69h3M27 70h15M51 70h3M57 70h3M27 71h15M51 71h3M57 71h3M27 72h12M51 72h6M27 73h12M51 73h6M27 74h12M51 74h6M36 75h18M36 76h18M36 77h18"/>
                        <path stroke="#ffdf00"
                              d="M36 9h3M48 9h3M36 10h3M48 10h3M36 11h3M48 11h3M51 12h3M51 13h3M51 14h3M27 15h6M51 15h6M27 16h6M51 16h6M27 17h6M51 17h6M51 18h6M51 19h6M51 20h6M51 21h9M51 22h9M51 23h9M24 24h3M48 24h12M63 24h3M24 25h3M48 25h12M63 25h3M24 26h3M48 26h12M63 26h3M24 27h6M48 27h12M63 27h3M24 28h6M48 28h12M63 28h3M24 29h6M48 29h12M63 29h3M24 30h3M48 30h9M60 30h9M24 31h3M48 31h9M60 31h9M24 32h3M48 32h9M60 32h9M42 33h3M51 33h3M60 33h9M42 34h3M51 34h3M60 34h9M42 35h3M51 35h3M60 35h9M42 36h6M54 36h15M42 37h6M54 37h15M42 38h6M54 38h15M24 39h3M30 39h3M51 39h15M24 40h3M30 40h3M51 40h15M24 41h3M30 41h3M51 41h15M33 42h3M57 42h3M69 42h3M33 43h3M57 43h3M69 43h3M33 44h3M57 44h3M69 44h3M54 45h3M63 45h9M54 46h3M63 46h9M54 47h3M63 47h9M51 48h3M57 48h12M51 49h3M57 49h12M51 50h3M57 50h12M30 51h3M36 51h3M57 51h9M30 52h3M36 52h3M57 52h9M30 53h3M36 53h3M57 53h9M33 54h3M39 54h6M33 55h3M39 55h6M33 56h3M39 56h6M36 57h3M54 57h15M36 58h3M54 58h15M36 59h3M54 59h15M30 60h9M51 60h3M60 60h6M30 61h9M51 61h3M60 61h6M30 62h9M51 62h3M60 62h6M36 63h3M54 63h3M36 64h3M54 64h3M36 65h3M54 65h3M30 66h3M36 66h3M57 66h3M30 67h3M36 67h3M57 67h3M30 68h3M36 68h3M57 68h3"/>
                        <path stroke="#ffffff"
                              d="M42 15h3M42 16h3M42 17h3M42 18h3M42 19h3M42 20h3M39 21h6M39 22h6M39 23h6M36 24h3M36 25h3M36 26h3M54 69h3M54 70h3M54 71h3"/>
                        <path stroke="#0066e3"
                              d="M27 21h9M27 22h9M27 23h9M27 24h6M27 25h6M27 26h6M30 27h3M30 28h3M30 29h3M27 30h9M27 31h9M27 32h9M27 33h3M39 33h3M45 33h3M27 34h3M39 34h3M45 34h3M27 35h3M39 35h3M45 35h3M39 36h3M39 37h3M39 38h3M39 39h9M39 40h9M39 41h9M33 48h3M45 48h6M33 49h3M45 49h6M33 50h3M45 50h6M51 51h3M51 52h3M51 53h3M42 66h6M42 67h6M42 68h6M42 69h9M42 70h9M42 71h9"/>
                        <path stroke="#dfdfdf"
                              d="M39 30h3M39 31h3M39 32h3M36 33h3M36 34h3M36 35h3M24 36h3M30 36h3M36 36h3M24 37h3M30 37h3M36 37h3M24 38h3M30 38h3M36 38h3M27 39h3M36 39h3M27 40h3M36 40h3M27 41h3M36 41h3M30 42h3M39 42h12M30 43h3M39 43h12M30 44h3M39 44h12M27 45h3M36 45h3M27 46h3M36 46h3M27 47h3M36 47h3M39 48h3M39 49h3M39 50h3M27 51h3M39 51h3M27 52h3M39 52h3M27 53h3M39 53h3M27 54h3M48 54h3M27 55h3M48 55h3M27 56h3M48 56h3M45 57h6M45 58h6M45 59h6M42 60h3M42 61h3M42 62h3M39 72h12M39 73h12M39 74h12"/>
                        <path stroke="#c00000"
                              d="M30 57h6M30 58h6M30 59h6M30 63h6M30 64h6M30 65h6M33 66h3M33 67h3M33 68h3"/>
                    </g>
                    <g id="frame2-[[${id}]]">
                        <path stroke="#000000"
                              d="M30 6h6M48 6h6M30 7h6M48 7h6M30 8h6M48 8h6M24 9h3M30 9h3M36 9h6M48 9h3M54 9h3M24 10h3M30 10h3M36 10h6M48 10h3M54 10h3M24 11h3M30 11h3M36 11h6M48 11h3M54 11h3M24 12h12M39 12h6M51 12h3M57 12h3M24 13h12M39 13h6M51 13h3M57 13h3M24 14h12M39 14h6M51 14h3M57 14h3M24 15h3M33 15h3M39 15h3M45 15h3M51 15h3M60 15h3M24 16h3M33 16h3M39 16h3M45 16h3M51 16h3M60 16h3M24 17h3M33 17h3M39 17h3M45 17h3M51 17h3M60 17h3M24 18h18M45 18h3M51 18h3M60 18h3M24 19h18M45 19h3M51 19h3M60 19h3M24 20h18M45 20h3M51 20h3M60 20h3M24 21h3M36 21h3M45 21h3M51 21h3M63 21h6M24 22h3M36 22h3M45 22h3M51 22h3M63 22h6M24 23h3M36 23h3M45 23h3M51 23h3M63 23h6M21 24h3M33 24h3M39 24h6M48 24h3M63 24h3M69 24h3M21 25h3M33 25h3M39 25h6M48 25h3M63 25h3M69 25h3M21 26h3M33 26h3M39 26h6M48 26h3M63 26h3M69 26h3M21 27h3M33 27h18M63 27h3M69 27h3M21 28h3M33 28h18M63 28h3M69 28h3M21 29h3M33 29h18M63 29h3M69 29h3M21 30h3M36 30h3M42 30h6M60 30h3M72 30h3M21 31h3M36 31h3M42 31h6M60 31h3M72 31h3M21 32h3M36 32h3M42 32h6M60 32h3M72 32h3M18 33h9M30 33h6M48 33h3M57 33h6M72 33h3M18 34h9M30 34h6M48 34h3M57 34h6M72 34h3M18 35h9M30 35h6M48 35h3M57 35h6M72 35h3M18 36h6M27 36h3M33 36h3M48 36h9M72 36h3M18 37h6M27 37h3M33 37h3M48 37h9M72 37h3M18 38h6M27 38h3M33 38h3M48 38h9M72 38h3M18 39h6M33 39h3M48 39h3M69 39h9M18 40h6M33 40h3M48 40h3M69 40h9M18 41h6M33 41h3M48 41h3M69 41h9M18 42h12M36 42h3M51 42h6M63 42h9M75 42h3M18 43h12M36 43h3M51 43h6M63 43h9M75 43h3M18 44h12M36 44h3M51 44h6M63 44h9M75 44h3M21 45h6M30 45h6M39 45h15M57 45h9M75 45h3M21 46h6M30 46h6M39 46h15M57 46h9M75 46h3M21 47h6M30 47h6M39 47h15M57 47h9M75 47h3M24 48h9M36 48h3M42 48h3M54 48h3M72 48h3M24 49h9M36 49h3M42 49h3M54 49h3M72 49h3M24 50h9M36 50h3M42 50h3M54 50h3M72 50h3M24 51h3M33 51h3M42 51h9M54 51h3M69 51h3M24 52h3M33 52h3M42 52h9M54 52h3M69 52h3M24 53h3M33 53h3M42 53h9M54 53h3M69 53h3M24 54h3M30 54h3M36 54h3M45 54h3M51 54h3M57 54h18M24 55h3M30 55h3M36 55h3M45 55h3M51 55h3M57 55h18M24 56h3M30 56h3M36 56h3M45 56h3M51 56h3M57 56h18M24 57h6M39 57h6M51 57h3M72 57h3M24 58h6M39 58h6M51 58h3M72 58h3M24 59h6M39 59h6M51 59h3M72 59h3M24 60h6M39 60h3M45 60h6M54 60h6M69 60h3M24 61h6M39 61h3M45 61h6M54 61h6M69 61h3M24 62h6M39 62h3M45 62h6M54 62h6M69 62h3M27 63h3M39 63h9M51 63h3M60 63h9M27 64h3M39 64h9M51 64h3M60 64h9M27 65h3M39 65h9M51 65h3M60 65h9M27 66h3M39 66h3M48 66h3M54 66h3M63 66h3M27 67h3M39 67h3M48 67h3M54 67h3M63 67h3M27 68h3M39 68h3M48 68h3M54 68h3M63 68h3M27 69h15M51 69h3M57 69h6M27 70h15M51 70h3M57 70h6M27 71h15M51 71h3M57 71h6M27 72h12M51 72h6M27 73h12M51 73h6M27 74h12M51 74h6M36 75h18M36 76h18M36 77h18"/>
                        <path stroke="#ffdf00"
                              d="M33 9h3M51 9h3M33 10h3M51 10h3M33 11h3M51 11h3M36 12h3M54 12h3M36 13h3M54 13h3M36 14h3M54 14h3M27 15h6M36 15h3M54 15h6M27 16h6M36 16h3M54 16h6M27 17h6M36 17h3M54 17h6M54 18h6M54 19h6M54 20h6M54 21h9M54 22h9M54 23h9M24 24h3M51 24h12M66 24h3M24 25h3M51 25h12M66 25h3M24 26h3M51 26h12M66 26h3M24 27h6M51 27h12M66 27h3M24 28h6M51 28h12M66 28h3M24 29h6M51 29h12M66 29h3M24 30h3M48 30h12M63 30h9M24 31h3M48 31h12M63 31h9M24 32h3M48 32h12M63 32h9M42 33h3M51 33h6M63 33h9M42 34h3M51 34h6M63 34h9M42 35h3M51 35h6M63 35h9M42 36h6M57 36h15M42 37h6M57 37h15M42 38h6M57 38h15M24 39h3M30 39h3M51 39h18M24 40h3M30 40h3M51 40h18M24 41h3M30 41h3M51 41h18M33 42h3M57 42h6M72 42h3M33 43h3M57 43h6M72 43h3M33 44h3M57 44h6M72 44h3M54 45h3M66 45h9M54 46h3M66 46h9M54 47h3M66 47h9M51 48h3M57 48h15M51 49h3M57 49h15M51 50h3M57 50h15M30 51h3M36 51h3M57 51h12M30 52h3M36 52h3M57 52h12M30 53h3M36 53h3M57 53h12M33 54h3M39 54h6M54 54h3M33 55h3M39 55h6M54 55h3M33 56h3M39 56h6M54 56h3M36 57h3M54 57h18M36 58h3M54 58h18M36 59h3M54 59h18M30 60h9M51 60h3M60 60h9M30 61h9M51 61h3M60 61h9M30 62h9M51 62h3M60 62h9M36 63h3M54 63h6M36 64h3M54 64h6M36 65h3M54 65h6M30 66h3M36 66h3M57 66h6M30 67h3M36 67h3M57 67h6M30 68h3M36 68h3M57 68h6"/>
                        <path stroke="#ffffff"
                              d="M42 15h3M42 16h3M42 17h3M42 18h3M42 19h3M42 20h3M39 21h6M39 22h6M39 23h6M36 24h3M36 25h3M36 26h3M54 69h3M54 70h3M54 71h3"/>
                        <path stroke="#0066e3"
                              d="M27 21h9M27 22h9M27 23h9M27 24h6M27 25h6M27 26h6M30 27h3M30 28h3M30 29h3M27 30h9M27 31h9M27 32h9M27 33h3M39 33h3M45 33h3M27 34h3M39 34h3M45 34h3M27 35h3M39 35h3M45 35h3M39 36h3M39 37h3M39 38h3M39 39h9M39 40h9M39 41h9M33 48h3M45 48h6M33 49h3M45 49h6M33 50h3M45 50h6M51 51h3M51 52h3M51 53h3M42 66h6M42 67h6M42 68h6M42 69h9M42 70h9M42 71h9"/>
                        <path stroke="#dfdfdf"
                              d="M39 30h3M39 31h3M39 32h3M36 33h3M36 34h3M36 35h3M24 36h3M30 36h3M36 36h3M24 37h3M30 37h3M36 37h3M24 38h3M30 38h3M36 38h3M27 39h3M36 39h3M27 40h3M36 40h3M27 41h3M36 41h3M30 42h3M39 42h12M30 43h3M39 43h12M30 44h3M39 44h12M27 45h3M36 45h3M27 46h3M36 46h3M27 47h3M36 47h3M39 48h3M39 49h3M39 50h3M27 51h3M39 51h3M27 52h3M39 52h3M27 53h3M39 53h3M27 54h3M48 54h3M27 55h3M48 55h3M27 56h3M48 56h3M45 57h6M45 58h6M45 59h6M42 60h3M42 61h3M42 62h3M39 72h12M39 73h12M39 74h12"/>
                        <path stroke="#c00000"
                              d="M30 57h6M30 58h6M30 59h6M30 63h6M30 64h6M30 65h6M33 66h3M33 67h3M33 68h3"/>
                    </g>
                </g>
                <g id="walking-[[${id}]]">
                    <g id="frame3-[[${id}]]">
                        <path stroke="#000000"
                              d="M24 6h6M51 6h6M24 7h6M51 7h6M24 8h6M51 8h6M24 9h3M30 9h3M45 9h3M51 9h3M57 9h3M24 10h3M30 10h3M45 10h3M51 10h3M57 10h3M24 11h3M30 11h3M45 11h3M51 11h3M57 11h3M27 12h12M45 12h6M54 12h3M60 12h3M27 13h12M45 13h6M54 13h3M60 13h3M27 14h12M45 14h6M54 14h3M60 14h3M27 15h6M39 15h3M45 15h3M51 15h6M63 15h3M27 16h6M39 16h3M45 16h3M51 16h6M63 16h3M27 17h6M39 17h3M45 17h3M51 17h6M63 17h3M27 18h21M51 18h6M63 18h3M27 19h21M51 19h6M63 19h3M27 20h21M51 20h6M63 20h3M27 21h6M42 21h3M51 21h6M66 21h6M27 22h6M42 22h3M51 22h6M66 22h6M27 23h6M42 23h3M51 23h6M66 23h6M24 24h6M39 24h3M45 24h9M66 24h3M72 24h3M24 25h6M39 25h3M45 25h9M66 25h3M72 25h3M24 26h6M39 26h3M45 26h9M66 26h3M72 26h3M24 27h6M39 27h15M66 27h3M72 27h3M24 28h6M39 28h15M66 28h3M72 28h3M24 29h6M39 29h15M66 29h3M72 29h3M21 30h9M45 30h6M54 30h6M63 30h3M75 30h3M21 31h9M45 31h6M54 31h6M63 31h3M75 31h3M21 32h9M45 32h6M54 32h6M63 32h3M75 32h3M21 33h3M27 33h6M36 33h6M45 33h3M60 33h6M75 33h3M21 34h3M27 34h6M36 34h6M45 34h3M60 34h6M75 34h3M21 35h3M27 35h6M36 35h6M45 35h3M60 35h6M75 35h3M18 36h3M24 36h6M33 36h3M42 36h6M60 36h3M75 36h3M18 37h3M24 37h6M33 37h3M42 37h6M60 37h3M75 37h3M18 38h3M24 38h6M33 38h3M42 38h6M60 38h3M75 38h3M18 39h3M24 39h6M45 39h3M60 39h3M72 39h9M18 40h3M24 40h6M45 40h3M60 40h3M72 40h9M18 41h3M24 41h6M45 41h3M60 41h3M72 41h9M18 42h3M27 42h9M42 42h3M48 42h3M63 42h12M78 42h3M18 43h3M27 43h9M42 43h3M48 43h3M63 43h12M78 43h3M18 44h3M27 44h9M42 44h3M48 44h3M63 44h12M78 44h3M21 45h6M30 45h3M36 45h9M48 45h21M78 45h3M21 46h6M30 46h3M36 46h9M48 46h21M78 46h3M21 47h6M30 47h3M36 47h9M48 47h21M78 47h3M21 48h3M27 48h12M42 48h6M54 48h3M60 48h3M75 48h3M21 49h3M27 49h12M42 49h6M54 49h3M60 49h3M75 49h3M21 50h3M27 50h12M42 50h6M54 50h3M60 50h3M75 50h3M18 51h3M27 51h6M36 51h3M45 51h9M63 51h3M72 51h3M18 52h3M27 52h6M36 52h3M45 52h9M63 52h3M72 52h3M18 53h3M27 53h6M36 53h3M45 53h9M63 53h3M72 53h3M18 54h3M24 54h3M33 54h3M45 54h3M51 54h9M63 54h15M18 55h3M24 55h3M33 55h3M45 55h3M51 55h9M63 55h15M18 56h3M24 56h3M33 56h3M45 56h3M51 56h9M63 56h15M18 57h9M30 57h3M36 57h3M48 57h3M54 57h3M60 57h3M75 57h3M18 58h9M30 58h3M36 58h3M48 58h3M54 58h3M60 58h3M75 58h3M18 59h9M30 59h3M36 59h3M48 59h3M54 59h3M60 59h3M75 59h3M21 60h9M39 60h6M48 60h6M60 60h3M72 60h3M21 61h9M39 61h6M48 61h6M60 61h3M72 61h3M21 62h9M39 62h6M48 62h6M60 62h3M72 62h3M24 63h6M39 63h3M45 63h6M54 63h6M63 63h9M24 64h6M39 64h3M45 64h6M54 64h6M63 64h9M24 65h6M39 65h3M45 65h6M54 65h6M63 65h9M27 66h3M39 66h9M51 66h9M66 66h3M27 67h3M39 67h9M51 67h9M66 67h3M27 68h3M39 68h9M51 68h9M66 68h3M24 69h3M39 69h3M48 69h3M54 69h3M60 69h6M24 70h3M39 70h3M48 70h3M54 70h3M60 70h6M24 71h3M39 71h3M48 71h3M54 71h3M60 71h6M21 72h3M30 72h12M51 72h3M21 73h3M30 73h12M51 73h3M21 74h3M30 74h12M51 74h3M21 75h12M36 75h18M21 76h12M36 76h18M21 77h12M36 77h18"/>
                        <path stroke="#ffdf00"
                              d="M27 9h3M54 9h3M27 10h3M54 10h3M27 11h3M54 11h3M57 12h3M57 13h3M57 14h3M33 15h6M57 15h6M33 16h6M57 16h6M33 17h6M57 17h6M57 18h6M57 19h6M57 20h6M57 21h9M57 22h9M57 23h9M33 24h3M54 24h12M69 24h3M33 25h3M54 25h12M69 25h3M33 26h3M54 26h12M69 26h3M30 27h9M54 27h12M69 27h3M30 28h9M54 28h12M69 28h3M30 29h9M54 29h12M69 29h3M33 30h3M60 30h3M66 30h9M33 31h3M60 31h3M66 31h9M33 32h3M60 32h3M66 32h9M54 33h3M66 33h9M54 34h3M66 34h9M54 35h3M66 35h9M54 36h6M63 36h12M54 37h6M63 37h12M54 38h6M63 38h12M30 39h3M36 39h3M63 39h9M30 40h3M36 40h3M63 40h9M30 41h3M36 41h3M63 41h9M39 42h3M45 42h3M75 42h3M39 43h3M45 43h3M75 43h3M39 44h3M45 44h3M75 44h3M45 45h3M69 45h9M45 46h3M69 46h9M45 47h3M69 47h9M24 48h3M48 48h6M57 48h3M63 48h12M24 49h3M48 49h6M57 49h3M63 49h12M24 50h3M48 50h6M57 50h3M63 50h12M60 51h3M66 51h6M60 52h3M66 52h6M60 53h3M66 53h6M30 54h3M36 54h3M30 55h3M36 55h3M30 56h3M36 56h3M33 57h3M39 57h6M63 57h12M33 58h3M39 58h6M63 58h12M33 59h3M39 59h6M63 59h12M36 60h3M45 60h3M63 60h9M36 61h3M45 61h3M63 61h9M36 62h3M45 62h3M63 62h9M30 63h9M60 63h3M30 64h9M60 64h3M30 65h9M60 65h3M36 66h3M60 66h6M36 67h3M60 67h6M36 68h3M60 68h6M30 69h3M36 69h3M30 70h3M36 70h3M30 71h3M36 71h3"/>
                        <path stroke="#ffffff"
                              d="M48 15h3M48 16h3M48 17h3M48 18h3M48 19h3M48 20h3M45 21h6M45 22h6M45 23h6M42 24h3M42 25h3M42 26h3M51 69h3M51 70h3M51 71h3"/>
                        <path stroke="#0066e3"
                              d="M33 21h9M33 22h9M33 23h9M30 24h3M36 24h3M30 25h3M36 25h3M30 26h3M36 26h3M30 30h3M36 30h9M30 31h3M36 31h9M30 32h3M36 32h9M33 33h3M42 33h3M51 33h3M57 33h3M33 34h3M42 34h3M51 34h3M57 34h3M33 35h3M42 35h3M51 35h3M57 35h3M51 36h3M51 37h3M51 38h3M51 39h9M51 40h9M51 41h9M21 51h6M33 51h3M54 51h6M21 52h6M33 52h3M54 52h6M21 53h6M33 53h3M54 53h6M21 54h3M60 54h3M21 55h3M60 55h3M21 56h3M60 56h3M27 69h3M42 69h6M27 70h3M42 70h6M27 71h3M42 71h6"/>
                        <path stroke="#dfdfdf"
                              d="M51 30h3M51 31h3M51 32h3M24 33h3M48 33h3M24 34h3M48 34h3M24 35h3M48 35h3M21 36h3M30 36h3M36 36h6M48 36h3M21 37h3M30 37h3M36 37h6M48 37h3M21 38h3M30 38h3M36 38h6M48 38h3M21 39h3M33 39h3M39 39h6M48 39h3M21 40h3M33 40h3M39 40h6M48 40h3M21 41h3M33 41h3M39 41h6M48 41h3M21 42h6M36 42h3M51 42h12M21 43h6M36 43h3M51 43h12M21 44h6M36 44h3M51 44h12M33 45h3M33 46h3M33 47h3M39 48h3M39 49h3M39 50h3M39 51h6M39 52h6M39 53h6M27 54h3M39 54h6M27 55h3M39 55h6M27 56h3M39 56h6M27 57h3M45 57h3M57 57h3M27 58h3M45 58h3M57 58h3M27 59h3M45 59h3M57 59h3M54 60h6M54 61h6M54 62h6M42 63h3M42 64h3M42 65h3M24 72h6M42 72h9M24 73h6M42 73h9M24 74h6M42 74h9"/>
                        <path stroke="#c00000"
                              d="M30 60h6M30 61h6M30 62h6M30 66h6M30 67h6M30 68h6M33 69h3M33 70h3M33 71h3"/>
                    </g>
                    <g id="frame4-[[${id}]]">
                        <path stroke="#000000"
                              d="M21 3h6M54 3h6M21 4h6M54 4h6M21 5h6M54 5h6M21 6h3M27 6h6M45 6h3M54 6h3M60 6h3M21 7h3M27 7h6M45 7h3M54 7h3M60 7h3M21 8h3M27 8h6M45 8h3M54 8h3M60 8h3M24 9h3M30 9h9M45 9h6M57 9h3M63 9h3M24 10h3M30 10h9M45 10h6M57 10h3M63 10h3M24 11h3M30 11h9M45 11h6M57 11h3M63 11h3M24 12h3M30 12h3M39 12h3M45 12h3M51 12h3M57 12h3M66 12h3M24 13h3M30 13h3M39 13h3M45 13h3M51 13h3M57 13h3M66 13h3M24 14h3M30 14h3M39 14h3M45 14h3M51 14h3M57 14h3M66 14h3M24 15h3M30 15h18M51 15h3M57 15h3M66 15h3M24 16h3M30 16h18M51 16h3M57 16h3M66 16h3M24 17h3M30 17h18M51 17h3M57 17h3M66 17h3M24 18h3M30 18h3M42 18h3M51 18h3M57 18h3M69 18h6M24 19h3M30 19h3M42 19h3M51 19h3M57 19h3M69 19h6M24 20h3M30 20h3M42 20h3M51 20h3M57 20h3M69 20h6M21 21h3M27 21h3M39 21h3M45 21h6M54 21h3M69 21h3M75 21h3M21 22h3M27 22h3M39 22h3M45 22h6M54 22h3M69 22h3M75 22h3M21 23h3M27 23h3M39 23h3M45 23h6M54 23h3M69 23h3M75 23h3M21 24h3M27 24h3M39 24h18M69 24h3M75 24h3M21 25h3M27 25h3M39 25h18M69 25h3M75 25h3M21 26h3M27 26h3M39 26h18M69 26h3M75 26h3M21 27h9M45 27h6M54 27h6M66 27h3M78 27h3M21 28h9M45 28h6M54 28h6M66 28h3M78 28h3M21 29h9M45 29h6M54 29h6M66 29h3M78 29h3M21 30h3M27 30h6M36 30h6M45 30h3M60 30h9M78 30h3M21 31h3M27 31h6M36 31h6M45 31h3M60 31h9M78 31h3M21 32h3M27 32h6M36 32h6M45 32h3M60 32h9M78 32h3M18 33h3M24 33h6M33 33h3M42 33h6M60 33h3M78 33h3M18 34h3M24 34h6M33 34h3M42 34h6M60 34h3M78 34h3M18 35h3M24 35h6M33 35h3M42 35h6M60 35h3M78 35h3M18 36h3M24 36h6M45 36h3M60 36h3M75 36h9M18 37h3M24 37h6M45 37h3M60 37h3M75 37h9M18 38h3M24 38h6M45 38h3M60 38h3M75 38h9M18 39h3M27 39h9M42 39h3M48 39h3M63 39h3M69 39h9M81 39h3M18 40h3M27 40h9M42 40h3M48 40h3M63 40h3M69 40h9M81 40h3M18 41h3M27 41h9M42 41h3M48 41h3M63 41h3M69 41h9M81 41h3M21 42h6M30 42h3M36 42h9M48 42h24M81 42h3M21 43h6M30 43h3M36 43h9M48 43h24M81 43h3M21 44h6M30 44h3M36 44h9M48 44h24M81 44h3M21 45h3M27 45h12M42 45h6M54 45h3M60 45h3M78 45h3M21 46h3M27 46h12M42 46h6M54 46h3M60 46h3M78 46h3M21 47h3M27 47h12M42 47h6M54 47h3M60 47h3M78 47h3M18 48h3M27 48h6M36 48h3M45 48h9M63 48h3M75 48h3M18 49h3M27 49h6M36 49h3M45 49h9M63 49h3M75 49h3M18 50h3M27 50h6M36 50h3M45 50h9M63 50h3M75 50h3M18 51h3M24 51h3M33 51h3M45 51h3M51 51h9M63 51h18M18 52h3M24 52h3M33 52h3M45 52h3M51 52h9M63 52h18M18 53h3M24 53h3M33 53h3M45 53h3M51 53h9M63 53h18M18 54h9M30 54h3M36 54h3M48 54h3M54 54h3M60 54h3M78 54h3M18 55h9M30 55h3M36 55h3M48 55h3M54 55h3M60 55h3M78 55h3M18 56h9M30 56h3M36 56h3M48 56h3M54 56h3M60 56h3M78 56h3M21 57h9M39 57h6M48 57h6M60 57h6M75 57h3M21 58h9M39 58h6M48 58h6M60 58h6M75 58h3M21 59h9M39 59h6M48 59h6M60 59h6M75 59h3M24 60h6M39 60h3M45 60h6M54 60h6M66 60h9M24 61h6M39 61h3M45 61h6M54 61h6M66 61h9M24 62h6M39 62h3M45 62h6M54 62h6M66 62h9M27 63h3M39 63h9M60 63h3M69 63h3M27 64h3M39 64h9M60 64h3M69 64h3M27 65h3M39 65h9M60 65h3M69 65h3M27 66h3M39 66h3M45 66h3M51 66h6M63 66h6M27 67h3M39 67h3M45 67h3M51 67h6M63 67h6M27 68h3M39 68h3M45 68h3M51 68h6M63 68h6M24 69h3M30 69h12M48 69h3M54 69h3M24 70h3M30 70h12M48 70h3M54 70h3M24 71h3M30 71h12M48 71h3M54 71h3M21 72h3M33 72h6M51 72h3M21 73h3M33 73h6M51 73h3M21 74h3M33 74h6M51 74h3M21 75h12M36 75h18M21 76h12M36 76h18M21 77h12M36 77h18"/>
                        <path stroke="#ffdf00"
                              d="M24 6h3M57 6h3M24 7h3M57 7h3M24 8h3M57 8h3M27 9h3M60 9h3M27 10h3M60 10h3M27 11h3M60 11h3M27 12h3M33 12h6M60 12h6M27 13h3M33 13h6M60 13h6M27 14h3M33 14h6M60 14h6M27 15h3M60 15h6M27 16h3M60 16h6M27 17h3M60 17h6M27 18h3M60 18h9M27 19h3M60 19h9M27 20h3M60 20h9M24 21h3M33 21h3M57 21h12M72 21h3M24 22h3M33 22h3M57 22h12M72 22h3M24 23h3M33 23h3M57 23h12M72 23h3M24 24h3M30 24h9M57 24h12M72 24h3M24 25h3M30 25h9M57 25h12M72 25h3M24 26h3M30 26h9M57 26h12M72 26h3M33 27h3M60 27h6M69 27h9M33 28h3M60 28h6M69 28h9M33 29h3M60 29h6M69 29h9M54 30h3M69 30h9M54 31h3M69 31h9M54 32h3M69 32h9M54 33h6M63 33h15M54 34h6M63 34h15M54 35h6M63 35h15M30 36h3M36 36h3M63 36h12M30 37h3M36 37h3M63 37h12M30 38h3M36 38h3M63 38h12M39 39h3M45 39h3M66 39h3M78 39h3M39 40h3M45 40h3M66 40h3M78 40h3M39 41h3M45 41h3M66 41h3M78 41h3M45 42h3M72 42h9M45 43h3M72 43h9M45 44h3M72 44h9M24 45h3M48 45h6M57 45h3M63 45h15M24 46h3M48 46h6M57 46h3M63 46h15M24 47h3M48 47h6M57 47h3M63 47h15M60 48h3M66 48h9M60 49h3M66 49h9M60 50h3M66 50h9M30 51h3M36 51h3M30 52h3M36 52h3M30 53h3M36 53h3M33 54h3M39 54h6M63 54h15M33 55h3M39 55h6M63 55h15M33 56h3M39 56h6M63 56h15M36 57h3M45 57h3M66 57h9M36 58h3M45 58h3M66 58h9M36 59h3M45 59h3M66 59h9M30 60h9M60 60h6M30 61h9M60 61h6M30 62h9M60 62h6M36 63h3M63 63h6M36 64h3M63 64h6M36 65h3M63 65h6M30 66h3M36 66h3M30 67h3M36 67h3M30 68h3M36 68h3"/>
                        <path stroke="#ffffff"
                              d="M48 12h3M48 13h3M48 14h3M48 15h3M48 16h3M48 17h3M45 18h6M45 19h6M45 20h6M42 21h3M42 22h3M42 23h3M51 69h3M51 70h3M51 71h3"/>
                        <path stroke="#0066e3"
                              d="M33 18h9M33 19h9M33 20h9M30 21h3M36 21h3M30 22h3M36 22h3M30 23h3M36 23h3M30 27h3M36 27h9M30 28h3M36 28h9M30 29h3M36 29h9M33 30h3M42 30h3M51 30h3M57 30h3M33 31h3M42 31h3M51 31h3M57 31h3M33 32h3M42 32h3M51 32h3M57 32h3M51 33h3M51 34h3M51 35h3M51 36h9M51 37h9M51 38h9M21 48h6M33 48h3M54 48h6M21 49h6M33 49h3M54 49h6M21 50h6M33 50h3M54 50h6M21 51h3M60 51h3M21 52h3M60 52h3M21 53h3M60 53h3M42 66h3M42 67h3M42 68h3M27 69h3M42 69h6M27 70h3M42 70h6M27 71h3M42 71h6M30 72h3M30 73h3M30 74h3"/>
                        <path stroke="#dfdfdf"
                              d="M51 27h3M51 28h3M51 29h3M24 30h3M48 30h3M24 31h3M48 31h3M24 32h3M48 32h3M21 33h3M30 33h3M36 33h6M48 33h3M21 34h3M30 34h3M36 34h6M48 34h3M21 35h3M30 35h3M36 35h6M48 35h3M21 36h3M33 36h3M39 36h6M48 36h3M21 37h3M33 37h3M39 37h6M48 37h3M21 38h3M33 38h3M39 38h6M48 38h3M21 39h6M36 39h3M51 39h12M21 40h6M36 40h3M51 40h12M21 41h6M36 41h3M51 41h12M33 42h3M33 43h3M33 44h3M39 45h3M39 46h3M39 47h3M39 48h6M39 49h6M39 50h6M27 51h3M39 51h6M27 52h3M39 52h6M27 53h3M39 53h6M27 54h3M45 54h3M57 54h3M27 55h3M45 55h3M57 55h3M27 56h3M45 56h3M57 56h3M54 57h6M54 58h6M54 59h6M42 60h3M42 61h3M42 62h3M24 72h6M39 72h12M24 73h6M39 73h12M24 74h6M39 74h12"/>
                        <path stroke="#c00000"
                              d="M30 57h6M30 58h6M30 59h6M30 63h6M30 64h6M30 65h6M33 66h3M33 67h3M33 68h3"/>
                    </g>
                </g>
            </svg>
            <svg viewBox="0 0 100 30" width="100" height="30" x="0" y="0">
                <g id="username-[[${id}]]">
                    <rect x="0" y="0" width="100" height="20" fill="black" fill-opacity="0.8" rx="5"/>
                    <svg x="4" y="2.5" width="15" height="15" viewBox="0 0 100 100">
                        <path fill-rule="evenodd" clip-rule="evenodd"
                              d="M48.854 0C21.839 0 0 22 0 49.217c0 21.756 13.993 40.172 33.405 46.69 2.427.49 3.316-1.059 3.316-2.362 0-1.141-.08-5.052-.08-9.127-13.59 2.934-16.42-5.867-16.42-5.867-2.184-5.704-5.42-7.17-5.42-7.17-4.448-3.015.324-3.015.324-3.015 4.934.326 7.523 5.052 7.523 5.052 4.367 7.496 11.404 5.378 14.235 4.074.404-3.178 1.699-5.378 3.074-6.6-10.839-1.141-22.243-5.378-22.243-24.283 0-5.378 1.94-9.778 5.014-13.2-.485-1.222-2.184-6.275.486-13.038 0 0 4.125-1.304 13.426 5.052a46.97 46.97 0 0 1 12.214-1.63c4.125 0 8.33.571 12.213 1.63 9.302-6.356 13.427-5.052 13.427-5.052 2.67 6.763.97 11.816.485 13.038 3.155 3.422 5.015 7.822 5.015 13.2 0 18.905-11.404 23.06-22.324 24.283 1.78 1.548 3.316 4.481 3.316 9.126 0 6.6-.08 11.897-.08 13.526 0 1.304.89 2.853 3.316 2.364 19.412-6.52 33.405-24.935 33.405-46.691C97.707 22 75.788 0 48.854 0z"
                              fill="#fff"/>
                    </svg>
                    <text x="25" y="11" dominant-baseline="middle" style="fill:white" font-size="13">
                        [[${#strings.abbreviate(username, 12)}]]
                    </text>
                    <rect x="0" y="23" width="[[${exp}]]" height="2" fill="#48ff00" rx="1"/>
                </g>
            </svg>
        </g>
    </a>
    <style>
        #frame1-[[${id}]] {
        animation: 1s frameToggle infinite;
        }
        #frame2-[[${id}]] {
        animation: 1s frameToggle infinite reverse;
        }
        #frame3-[[${id}]] {
        animation: 1s frameToggle infinite;
        }
        #frame4-[[${id}]] {
        animation: 1s frameToggle infinite reverse;
        }
        #standing-[[${id}]] {
        animation: standingToggle [[${motion.duration}]]s infinite;
        }
        #walking-[[${id}]] {
        animation: walkingToggle [[${motion.duration}]]s infinite;
        }
        #body-[[${id}]] {
        animation: move-body-[[${id}]] [[${motion.duration}]]s infinite;
        }
        #username-[[${id}]] {
        animation: move-username-[[${id}]] [[${motion.duration}]]s infinite;
        }
        @keyframes move-body-[[${id}]] {
        0%, 10% {
        transform: translate([[${motion.positions[0].x}]]%, [[${y}]]%) scaleX([[${motion.positions[0].direction}]]);
        }
        20%, 30% {
        transform: translate([[${motion.positions[1].x}]]%, [[${y}]]%) scaleX([[${motion.positions[1].direction}]]);
        }
        40%, 50% {
        transform: translate([[${motion.positions[2].x}]]%, [[${y}]]%) scaleX([[${motion.positions[2].direction}]]);
        }
        50.01% {
        transform: translate([[${motion.positions[3].x}]]%, [[${y}]]%) scaleX([[${motion.positions[3].direction}]]);
        }
        60%, 70% {
        transform: translate([[${motion.positions[4].x}]]%, [[${y}]]%) scaleX([[${motion.positions[4].direction}]]);
        }
        80%, 100% {
        transform: translate([[${motion.positions[5].x}]]%, [[${y}]]%) scaleX([[${motion.positions[5].direction}]]);
        }
        }
        @keyframes move-username-[[${id}]] {
        0%, 10% {
        transform: scaleX([[${motion.positions[0].direction}]])
        translateX([[${motion.positions[0].direction > 0 ? 0: -100}]]%);
        }
        20%, 30% {
        transform: scaleX([[${motion.positions[1].direction}]])
        translateX([[${motion.positions[1].direction > 0 ? 0: -100}]]%);
        }
        40%, 50% {
        transform: scaleX([[${motion.positions[2].direction}]])
        translateX([[${motion.positions[2].direction > 0 ? 0: -100}]]%);
        }
        50.01% {
        transform: scaleX([[${motion.positions[3].direction}]])
        translateX([[${motion.positions[3].direction > 0 ? 0: -100}]]%);
        }
        60%, 70% {
        transform: scaleX([[${motion.positions[4].direction}]])
        translateX([[${motion.positions[4].direction > 0 ? 0: -100}]]%);
        }
        80%, 100% {
        transform: scaleX([[${motion.positions[5].direction}]])
        translateX([[${motion.positions[5].direction > 0 ? 0: -100}]]%);
        }
        }
    </style>
</svg>
