<svg fill="none" overflow="visible" xmlns="http://www.w3.org/2000/svg">
    <a href="https://github.com/[[${username}]]">
        <g id="body-[[${id}]]">
            <svg viewBox="0 0 100 100" width="100" height="100" x="27" y="39">
                <g id="standing-[[${id}]]">
                    <g id="frame1-[[${id}]]">
                        <path stroke="#000000"
                              d="M9 0h9M27 0h9M9 1h9M27 1h9M9 2h9M27 2h9M3 3h6M18 3h3M24 3h3M36 3h6M3 4h6M18 4h3M24 4h3M36 4h6M3 5h6M18 5h3M24 5h3M36 5h6M9 6h3M18 6h9M33 6h3M9 7h3M18 7h9M33 7h3M9 8h3M18 8h9M33 8h3M12 9h6M21 9h3M27 9h6M12 10h6M21 10h3M27 10h6M12 11h6M21 11h3M27 11h6M15 12h6M24 12h6M15 13h6M24 13h6M15 14h6M24 14h6M12 15h3M30 15h3M12 16h3M30 16h3M12 17h3M30 17h3M9 18h3M24 18h3M33 18h3M9 19h3M24 19h3M33 19h3M9 20h3M24 20h3M33 20h3M9 21h6M21 21h6M33 21h3M9 22h6M21 22h6M33 22h3M9 23h6M21 23h6M33 23h3M9 24h3M33 24h3M9 25h3M33 25h3M9 26h3M33 26h3M9 27h3M33 27h3M9 28h3M33 28h3M9 29h3M33 29h3M6 30h3M12 30h9M27 30h6M36 30h3M6 31h3M12 31h9M27 31h6M36 31h3M6 32h3M12 32h9M27 32h6M36 32h3M6 33h9M21 33h9M33 33h6M6 34h9M21 34h9M33 34h6M6 35h9M21 35h9M33 35h6"/>
                        <path stroke="#59e40e"
                              d="M9 3h9M27 3h9M9 4h9M27 4h9M9 5h9M27 5h9M12 6h6M27 6h6M12 7h6M27 7h6M12 8h6M27 8h6M21 12h3M21 13h3M21 14h3M15 15h15M15 16h15M15 17h15M30 18h3M30 19h3M30 20h3M30 21h3M30 22h3M30 23h3M30 24h3M30 25h3M30 26h3M30 27h3M30 28h3M30 29h3"/>
                        <path stroke="#ffffff" d="M12 18h3M21 18h3M12 19h3M21 19h3M12 20h3M21 20h3"/>
                        <path stroke="#fff4d0"
                              d="M15 18h6M27 18h3M15 19h6M27 19h3M15 20h6M27 20h3M15 21h6M27 21h3M15 22h6M27 22h3M15 23h6M27 23h3M12 24h18M12 25h18M12 26h18M12 27h18M12 28h18M12 29h18M9 30h3M21 30h6M33 30h3M9 31h3M21 31h6M33 31h3M9 32h3M21 32h6M33 32h3"/>
                    </g>
                    <g id="frame2-[[${id}]]">
                        <path stroke="#000000"
                              d="M9 3h9M27 3h9M9 4h9M27 4h9M9 5h9M27 5h9M6 6h3M18 6h3M24 6h3M36 6h3M6 7h3M18 7h3M24 7h3M36 7h3M6 8h3M18 8h3M24 8h3M36 8h3M3 9h6M15 9h15M36 9h6M3 10h6M15 10h15M36 10h6M3 11h6M15 11h15M36 11h6M9 12h6M21 12h3M30 12h6M9 13h6M21 13h3M30 13h6M9 14h6M21 14h3M30 14h6M15 15h6M24 15h6M15 16h6M24 16h6M15 17h6M24 17h6M12 18h3M30 18h3M12 19h3M30 19h3M12 20h3M30 20h3M9 21h3M24 21h3M33 21h3M9 22h3M24 22h3M33 22h3M9 23h3M24 23h3M33 23h3M9 24h6M21 24h6M33 24h3M9 25h6M21 25h6M33 25h3M9 26h6M21 26h6M33 26h3M9 27h3M33 27h3M9 28h3M33 28h3M9 29h3M33 29h3M6 30h3M12 30h9M27 30h6M36 30h3M6 31h3M12 31h9M27 31h6M36 31h3M6 32h3M12 32h9M27 32h6M36 32h3M6 33h9M21 33h9M33 33h6M6 34h9M21 34h9M33 34h6M6 35h9M21 35h9M33 35h6"/>
                        <path stroke="#59e40e"
                              d="M9 6h9M27 6h9M9 7h9M27 7h9M9 8h9M27 8h9M9 9h6M30 9h6M9 10h6M30 10h6M9 11h6M30 11h6M21 15h3M21 16h3M21 17h3M15 18h15M15 19h15M15 20h15M30 21h3M30 22h3M30 23h3M30 24h3M30 25h3M30 26h3M30 27h3M30 28h3M30 29h3"/>
                        <path stroke="#ffffff" d="M12 21h3M21 21h3M12 22h3M21 22h3M12 23h3M21 23h3"/>
                        <path stroke="#fff4d0"
                              d="M15 21h6M27 21h3M15 22h6M27 22h3M15 23h6M27 23h3M15 24h6M27 24h3M15 25h6M27 25h3M15 26h6M27 26h3M12 27h18M12 28h18M12 29h18M9 30h3M21 30h6M33 30h3M9 31h3M21 31h6M33 31h3M9 32h3M21 32h6M33 32h3"/>
                    </g>
                </g>
                <g id="walking-[[${id}]]">
                    <g id="frame3-[[${id}]]">
                        <path stroke="#000000"
                              d="M12 3h9M24 3h9M12 4h9M24 4h9M12 5h9M24 5h9M9 6h3M18 6h6M33 6h3M9 7h3M18 7h6M33 7h3M9 8h3M18 8h6M33 8h3M6 9h6M15 9h12M33 9h6M6 10h6M15 10h12M33 10h6M6 11h6M15 11h12M33 11h6M12 12h6M21 12h3M27 12h6M12 13h6M21 13h3M27 13h6M12 14h6M21 14h3M27 14h6M15 15h6M24 15h6M15 16h6M24 16h6M15 17h6M24 17h6M12 18h3M30 18h3M12 19h3M30 19h3M12 20h3M30 20h3M9 21h3M21 21h3M33 21h3M9 22h3M21 22h3M33 22h3M9 23h3M21 23h3M33 23h3M9 24h3M18 24h6M33 24h3M9 25h3M18 25h6M33 25h3M9 26h3M18 26h6M33 26h3M9 27h3M33 27h3M9 28h3M33 28h3M9 29h3M33 29h3M9 30h9M24 30h12M9 31h9M24 31h12M9 32h9M24 32h12M9 33h18M30 33h6M9 34h18M30 34h6M9 35h18M30 35h6"/>
                        <path stroke="#59e40e"
                              d="M12 6h6M24 6h9M12 7h6M24 7h9M12 8h6M24 8h9M12 9h3M27 9h6M12 10h3M27 10h6M12 11h3M27 11h6M21 15h3M21 16h3M21 17h3M15 18h15M15 19h15M15 20h15M27 21h6M27 22h6M27 23h6M27 24h6M27 25h6M27 26h6M30 27h3M30 28h3M30 29h3"/>
                        <path stroke="#fff4d0"
                              d="M12 21h6M24 21h3M12 22h6M24 22h3M12 23h6M24 23h3M12 24h6M24 24h3M12 25h6M24 25h3M12 26h6M24 26h3M12 27h18M12 28h18M12 29h18M18 30h6M18 31h6M18 32h6"/>
                        <path stroke="#ffffff" d="M18 21h3M18 22h3M18 23h3"/>
                    </g>
                    <g id="frame4-[[${id}]]">
                        <path stroke="#000000"
                              d="M9 3h9M27 3h9M9 4h9M27 4h9M9 5h9M27 5h9M6 6h3M18 6h3M24 6h3M36 6h3M6 7h3M18 7h3M24 7h3M36 7h3M6 8h3M18 8h3M24 8h3M36 8h3M3 9h6M15 9h15M36 9h6M3 10h6M15 10h15M36 10h6M3 11h6M15 11h15M36 11h6M9 12h6M21 12h3M30 12h6M9 13h6M21 13h3M30 13h6M9 14h6M21 14h3M30 14h6M15 15h6M24 15h6M15 16h6M24 16h6M15 17h6M24 17h6M12 18h3M30 18h3M12 19h3M30 19h3M12 20h3M30 20h3M9 21h3M24 21h3M33 21h3M9 22h3M24 22h3M33 22h3M9 23h3M24 23h3M33 23h3M9 24h6M21 24h6M33 24h3M9 25h6M21 25h6M33 25h3M9 26h6M21 26h6M33 26h3M9 27h3M33 27h3M9 28h3M33 28h3M9 29h3M33 29h3M6 30h3M12 30h9M27 30h6M36 30h3M6 31h3M12 31h9M27 31h6M36 31h3M6 32h3M12 32h9M27 32h6M36 32h3M6 33h9M21 33h9M33 33h6M6 34h9M21 34h9M33 34h6M6 35h9M21 35h9M33 35h6"/>
                        <path stroke="#59e40e"
                              d="M9 6h9M27 6h9M9 7h9M27 7h9M9 8h9M27 8h9M9 9h6M30 9h6M9 10h6M30 10h6M9 11h6M30 11h6M21 15h3M21 16h3M21 17h3M15 18h15M15 19h15M15 20h15M30 21h3M30 22h3M30 23h3M30 24h3M30 25h3M30 26h3M30 27h3M30 28h3M30 29h3"/>
                        <path stroke="#ffffff" d="M12 21h3M21 21h3M12 22h3M21 22h3M12 23h3M21 23h3"/>
                        <path stroke="#fff4d0"
                              d="M15 21h6M27 21h3M15 22h6M27 22h3M15 23h6M27 23h3M15 24h6M27 24h3M15 25h6M27 25h3M15 26h6M27 26h3M12 27h18M12 28h18M12 29h18M9 30h3M21 30h6M33 30h3M9 31h3M21 31h6M33 31h3M9 32h3M21 32h6M33 32h3"/>
                    </g>
                </g>
            </svg>
            <svg viewBox="0 0 100 30" width="100" height="30" x="0" y="0">
                <g id="username-[[${id}]]">
                    <rect x="0" y="0" width="100" height="20" fill="black" fill-opacity="0.8" rx="5"/>
                    <svg x="4" y="2.5" width="15" height="15" viewBox="0 0 100 100">
                        <path fill-rule="evenodd" clip-rule="evenodd"
                              d="M48.854 0C21.839 0 0 22 0 49.217c0 21.756 13.993 40.172 33.405 46.69 2.427.49 3.316-1.059 3.316-2.362 0-1.141-.08-5.052-.08-9.127-13.59 2.934-16.42-5.867-16.42-5.867-2.184-5.704-5.42-7.17-5.42-7.17-4.448-3.015.324-3.015.324-3.015 4.934.326 7.523 5.052 7.523 5.052 4.367 7.496 11.404 5.378 14.235 4.074.404-3.178 1.699-5.378 3.074-6.6-10.839-1.141-22.243-5.378-22.243-24.283 0-5.378 1.94-9.778 5.014-13.2-.485-1.222-2.184-6.275.486-13.038 0 0 4.125-1.304 13.426 5.052a46.97 46.97 0 0 1 12.214-1.63c4.125 0 8.33.571 12.213 1.63 9.302-6.356 13.427-5.052 13.427-5.052 2.67 6.763.97 11.816.485 13.038 3.155 3.422 5.015 7.822 5.015 13.2 0 18.905-11.404 23.06-22.324 24.283 1.78 1.548 3.316 4.481 3.316 9.126 0 6.6-.08 11.897-.08 13.526 0 1.304.89 2.853 3.316 2.364 19.412-6.52 33.405-24.935 33.405-46.691C97.707 22 75.788 0 48.854 0z"
                              fill="#fff"/>
                    </svg>
                    <text x="25" y="11" dominant-baseline="middle" style="fill:white" font-size="13">
                        [[${#strings.abbreviate(username, 12)}]]
                    </text>
                    <rect x="0" y="23" width="[[${exp}]]" height="2" fill="#48ff00" rx="1"/>
                </g>
            </svg>
        </g>
    </a>
    <style>
        #frame1-[[${id}]] {
        animation: 1s frameToggle infinite;
        }
        #frame2-[[${id}]] {
        animation: 1s frameToggle infinite reverse;
        }
        #frame3-[[${id}]] {
        animation: 1s frameToggle infinite;
        }
        #frame4-[[${id}]] {
        animation: 1s frameToggle infinite reverse;
        }
        #standing-[[${id}]] {
        animation: standingToggle [[${motion.duration}]]s infinite;
        }
        #walking-[[${id}]] {
        animation: walkingToggle [[${motion.duration}]]s infinite;
        }
        #body-[[${id}]] {
        animation: move-body-[[${id}]] [[${motion.duration}]]s infinite;
        }
        #username-[[${id}]] {
        animation: move-username-[[${id}]] [[${motion.duration}]]s infinite;
        }
        @keyframes move-body-[[${id}]] {
        0%, 10% {
        transform: translate([[${motion.positions[0].x}]]%, [[${y}]]%) scaleX([[${motion.positions[0].direction}]]);
        }
        20%, 30% {
        transform: translate([[${motion.positions[1].x}]]%, [[${y}]]%) scaleX([[${motion.positions[1].direction}]]);
        }
        40%, 50% {
        transform: translate([[${motion.positions[2].x}]]%, [[${y}]]%) scaleX([[${motion.positions[2].direction}]]);
        }
        50.01% {
        transform: translate([[${motion.positions[3].x}]]%, [[${y}]]%) scaleX([[${motion.positions[3].direction}]]);
        }
        60%, 70% {
        transform: translate([[${motion.positions[4].x}]]%, [[${y}]]%) scaleX([[${motion.positions[4].direction}]]);
        }
        80%, 100% {
        transform: translate([[${motion.positions[5].x}]]%, [[${y}]]%) scaleX([[${motion.positions[5].direction}]]);
        }
        }
        @keyframes move-username-[[${id}]] {
        0%, 10% {
        transform: scaleX([[${motion.positions[0].direction}]])
        translateX([[${motion.positions[0].direction > 0 ? 0: -100}]]%);
        }
        20%, 30% {
        transform: scaleX([[${motion.positions[1].direction}]])
        translateX([[${motion.positions[1].direction > 0 ? 0: -100}]]%);
        }
        40%, 50% {
        transform: scaleX([[${motion.positions[2].direction}]])
        translateX([[${motion.positions[2].direction > 0 ? 0: -100}]]%);
        }
        50.01% {
        transform: scaleX([[${motion.positions[3].direction}]])
        translateX([[${motion.positions[3].direction > 0 ? 0: -100}]]%);
        }
        60%, 70% {
        transform: scaleX([[${motion.positions[4].direction}]])
        translateX([[${motion.positions[4].direction > 0 ? 0: -100}]]%);
        }
        80%, 100% {
        transform: scaleX([[${motion.positions[5].direction}]])
        translateX([[${motion.positions[5].direction > 0 ? 0: -100}]]%);
        }
        }
    </style>
</svg>
