<svg fill="none" overflow="visible" xmlns="http://www.w3.org/2000/svg">
    <a href="https://github.com/[[${username}]]">
        <g id="body-[[${id}]]">
            <svg viewBox="0 0 100 100" width="100" height="100" x="15" y="27">
                <g id="standing-[[${id}]]">
                    <g id="frame1-[[${id}]]">
                        <path stroke="rgba(255,255,255,0.00392156862745098)"
                              d="M9 0h15M30 0h12M51 0h18M9 1h15M30 1h12M51 1h18M9 2h15M30 2h12M51 2h18M6 3h15M30 3h9M51 3h18M6 4h15M30 4h9M51 4h18M6 5h15M30 5h9M51 5h18M6 6h12M27 6h9M6 7h12M27 7h9M6 8h12M27 8h9M6 9h12M27 9h3M48 9h3M57 9h12M6 10h12M27 10h3M48 10h3M57 10h12M6 11h12M27 11h3M48 11h3M57 11h12M6 12h12M27 12h3M60 12h9M6 13h12M27 13h3M60 13h9M6 14h12M27 14h3M60 14h9M6 15h15M60 15h9M6 16h15M60 16h9M6 17h15M60 17h9M6 18h15M60 18h9M6 19h15M60 19h9M6 20h15M60 20h9M6 21h12M63 21h6M6 22h12M63 22h6M6 23h12M63 23h6M6 24h12M63 24h6M6 25h12M63 25h6M6 26h12M63 26h6M6 27h12M66 27h3M6 28h12M66 28h3M6 29h12M66 29h3M6 30h12M6 31h12M6 32h12M6 33h12M6 34h12M6 35h12M6 36h9M66 36h3M6 37h9M66 37h3M6 38h9M66 38h3M6 39h6M63 39h6M6 40h6M63 40h6M6 41h6M63 41h6M6 42h3M63 42h6M6 43h3M63 43h6M6 44h3M63 44h6M24 45h6M60 45h9M24 46h6M60 46h9M24 47h6M60 47h9M21 48h6M60 48h9M21 49h6M60 49h9M21 50h6M60 50h9M12 51h12M42 51h3M63 51h6M12 52h12M42 52h3M63 52h6M12 53h12M42 53h3M63 53h6M6 54h18M42 54h3M63 54h6M6 55h18M42 55h3M63 55h6M6 56h18M42 56h3M63 56h6"/>
                        <path stroke="#000000"
                              d="M24 0h6M42 0h9M24 1h6M42 1h9M24 2h6M42 2h9M21 3h3M27 3h3M39 3h3M48 3h3M21 4h3M27 4h3M39 4h3M48 4h3M21 5h3M27 5h3M39 5h3M48 5h3M18 6h3M24 6h3M36 6h3M42 6h6M18 7h3M24 7h3M36 7h3M42 7h6M18 8h3M24 8h3M36 8h3M42 8h6M18 9h3M24 9h3M33 9h3M39 9h3M51 9h6M18 10h3M24 10h3M33 10h3M39 10h3M51 10h6M18 11h3M24 11h3M33 11h3M39 11h3M51 11h6M18 12h3M24 12h3M33 12h3M39 12h12M57 12h3M18 13h3M24 13h3M33 13h3M39 13h12M57 13h3M18 14h3M24 14h3M33 14h3M39 14h12M57 14h3M21 15h21M51 15h9M21 16h21M51 16h9M21 17h21M51 17h9M21 18h6M33 18h3M42 18h3M57 18h3M21 19h6M33 19h3M42 19h3M57 19h3M21 20h6M33 20h3M42 20h3M57 20h3M18 21h6M39 21h9M60 21h3M18 22h6M39 22h9M60 22h3M18 23h6M39 23h9M60 23h3M18 24h3M36 24h3M45 24h3M54 24h9M18 25h3M36 25h3M45 25h3M54 25h9M18 26h3M36 26h3M45 26h3M54 26h9M18 27h3M36 27h3M45 27h3M51 27h3M60 27h6M18 28h3M36 28h3M45 28h3M51 28h3M60 28h6M18 29h3M36 29h3M45 29h3M51 29h3M60 29h6M18 30h3M24 30h9M36 30h3M45 30h3M51 30h3M60 30h9M18 31h3M24 31h9M36 31h3M45 31h3M51 31h3M60 31h9M18 32h3M24 32h9M36 32h3M45 32h3M51 32h3M60 32h9M18 33h9M33 33h3M39 33h9M54 33h6M63 33h6M18 34h9M33 34h3M39 34h9M54 34h6M63 34h6M18 35h9M33 35h3M39 35h9M54 35h6M63 35h6M15 36h9M27 36h3M36 36h3M42 36h12M63 36h3M15 37h9M27 37h3M36 37h3M42 37h12M63 37h3M15 38h9M27 38h3M36 38h3M42 38h12M63 38h3M12 39h3M24 39h18M51 39h3M60 39h3M12 40h3M24 40h18M51 40h3M60 40h3M12 41h3M24 41h18M51 41h3M60 41h3M9 42h6M24 42h6M36 42h9M51 42h6M60 42h3M9 43h6M24 43h6M36 43h9M51 43h6M60 43h3M9 44h6M24 44h6M36 44h9M51 44h6M60 44h3M6 45h3M15 45h3M21 45h3M30 45h9M45 45h6M57 45h3M6 46h3M15 46h3M21 46h3M30 46h9M45 46h6M57 46h3M6 47h3M15 47h3M21 47h3M30 47h9M45 47h6M57 47h3M6 48h3M12 48h9M27 48h6M36 48h3M42 48h9M57 48h3M6 49h3M12 49h9M27 49h6M36 49h3M42 49h9M57 49h3M6 50h3M12 50h9M27 50h6M36 50h3M42 50h9M57 50h3M6 51h6M24 51h3M30 51h3M36 51h6M45 51h3M51 51h3M57 51h6M6 52h6M24 52h3M30 52h3M36 52h6M45 52h3M51 52h3M57 52h6M6 53h6M24 53h3M30 53h3M36 53h6M45 53h3M51 53h3M57 53h6M24 54h18M45 54h18M24 55h18M45 55h18M24 56h18M45 56h18"/>
                        <path stroke="#ffcc00"
                              d="M24 3h3M42 3h6M24 4h3M42 4h6M24 5h3M42 5h6M21 6h3M39 6h3M21 7h3M39 7h3M21 8h3M39 8h3M21 9h3M36 9h3M21 10h3M36 10h3M21 11h3M36 11h3M21 12h3M36 12h3M21 13h3M36 13h3M21 14h3M36 14h3"/>
                        <path stroke="#525252"
                              d="M51 12h6M51 13h6M51 14h6M24 21h3M33 21h3M24 22h3M33 22h3M24 23h3M33 23h3M24 27h3M33 27h3M54 27h6M24 28h3M33 28h3M54 28h6M24 29h3M33 29h3M54 29h6M54 30h6M54 31h6M54 32h6M36 33h3M36 34h3M36 35h3M39 36h3M39 37h3M39 38h3M9 45h6M39 45h6M9 46h6M39 46h6M9 47h6M39 47h6M9 48h3M39 48h3M9 49h3M39 49h3M9 50h3M39 50h3M27 51h3M48 51h3M54 51h3M27 52h3M48 52h3M54 52h3M27 53h3M48 53h3M54 53h3"/>
                        <path stroke="#ff0026"
                              d="M42 15h9M42 16h9M42 17h9M27 18h6M36 18h6M45 18h12M27 19h6M36 19h6M45 19h12M27 20h6M36 20h6M45 20h12M27 21h6M36 21h3M48 21h12M27 22h6M36 22h3M48 22h12M27 23h6M36 23h3M48 23h12M24 24h12M48 24h6M24 25h12M48 25h6M24 26h12M48 26h6M27 27h6M48 27h3M27 28h6M48 28h3M27 29h6M48 29h3M33 30h3M48 30h3M33 31h3M48 31h3M33 32h3M48 32h3M48 33h6M60 33h3M48 34h6M60 34h3M48 35h6M60 35h3M54 36h9M54 37h9M54 38h9M15 39h9M42 39h9M54 39h6M15 40h9M42 40h9M54 40h6M15 41h9M42 41h9M54 41h6M15 42h9M45 42h6M57 42h3M15 43h9M45 43h6M57 43h3M15 44h9M45 44h6M57 44h3M18 45h3M51 45h6M18 46h3M51 46h6M18 47h3M51 47h6M33 48h3M51 48h6M33 49h3M51 49h6M33 50h3M51 50h6M33 51h3M33 52h3M33 53h3"/>
                        <path stroke="#ffffff" d="M21 24h3M39 24h3M21 25h3M39 25h3M21 26h3M39 26h3"/>
                        <path stroke="#00ff00"
                              d="M42 24h3M42 25h3M42 26h3M21 27h3M39 27h6M21 28h3M39 28h6M21 29h3M39 29h6M21 30h3M39 30h6M21 31h3M39 31h6M21 32h3M39 32h6"/>
                        <path stroke="#929e49"
                              d="M27 33h6M27 34h6M27 35h6M24 36h3M30 36h6M24 37h3M30 37h6M24 38h3M30 38h6M30 42h6M30 43h6M30 44h6"/>
                    </g>
                    <g id="frame2-[[${id}]]">
                        <path stroke="rgba(255,255,255,0.00392156862745098)"
                              d="M9 0h9M30 0h6M51 0h18M9 1h9M30 1h6M51 1h18M9 2h9M30 2h6M51 2h18M6 3h18M30 3h12M51 3h18M6 4h18M30 4h12M51 4h18M6 5h18M30 5h12M51 5h18M6 6h15M30 6h9M6 7h15M30 7h9M6 8h15M30 8h9M6 9h12M27 9h3M48 9h3M57 9h12M6 10h12M27 10h3M48 10h3M57 10h12M6 11h12M27 11h3M48 11h3M57 11h12M6 12h12M27 12h3M60 12h9M6 13h12M27 13h3M60 13h9M6 14h12M27 14h3M60 14h9M6 15h12M27 15h3M60 15h9M6 16h12M27 16h3M60 16h9M6 17h12M27 17h3M60 17h9M6 18h15M60 18h9M6 19h15M60 19h9M6 20h15M60 20h9M6 21h15M63 21h6M6 22h15M63 22h6M6 23h15M63 23h6M6 24h12M63 24h6M6 25h12M63 25h6M6 26h12M63 26h6M6 27h12M66 27h3M6 28h12M66 28h3M6 29h12M66 29h3M6 30h12M6 31h12M6 32h12M6 33h12M6 34h12M6 35h12M6 36h6M66 36h3M6 37h6M66 37h3M6 38h6M66 38h3M3 39h6M63 39h6M3 40h6M63 40h6M3 41h6M63 41h6M3 42h3M63 42h6M3 43h3M63 43h6M3 44h3M63 44h6M24 45h6M60 45h9M24 46h6M60 46h9M24 47h6M60 47h9M18 48h3M24 48h3M60 48h9M18 49h3M24 49h3M60 49h9M18 50h3M24 50h3M60 50h9M9 51h12M63 51h6M9 52h12M63 52h6M9 53h12M63 53h6M3 54h18M42 54h3M63 54h6M3 55h18M42 55h3M63 55h6M3 56h18M42 56h3M63 56h6"/>
                        <path stroke="#000000"
                              d="M24 3h6M42 3h9M24 4h6M42 4h9M24 5h6M42 5h9M21 6h3M27 6h3M39 6h3M48 6h3M21 7h3M27 7h3M39 7h3M48 7h3M21 8h3M27 8h3M39 8h3M48 8h3M18 9h3M24 9h3M36 9h3M42 9h6M51 9h6M18 10h3M24 10h3M36 10h3M42 10h6M51 10h6M18 11h3M24 11h3M36 11h3M42 11h6M51 11h6M18 12h3M24 12h3M33 12h3M39 12h12M57 12h3M18 13h3M24 13h3M33 13h3M39 13h12M57 13h3M18 14h3M24 14h3M33 14h3M39 14h12M57 14h3M18 15h3M24 15h3M30 15h6M39 15h3M51 15h9M18 16h3M24 16h3M30 16h6M39 16h3M51 16h9M18 17h3M24 17h3M30 17h6M39 17h3M51 17h9M21 18h21M57 18h3M21 19h21M57 19h3M21 20h21M57 20h3M21 21h6M33 21h3M42 21h3M60 21h3M21 22h6M33 22h3M42 22h3M60 22h3M21 23h6M33 23h3M42 23h3M60 23h3M18 24h6M39 24h9M54 24h9M18 25h6M39 25h9M54 25h9M18 26h6M39 26h9M54 26h9M18 27h3M36 27h3M45 27h3M51 27h3M60 27h6M18 28h3M36 28h3M45 28h3M51 28h3M60 28h6M18 29h3M36 29h3M45 29h3M51 29h3M60 29h6M18 30h3M36 30h3M45 30h3M51 30h3M60 30h9M18 31h3M36 31h3M45 31h3M51 31h3M60 31h9M18 32h3M36 32h3M45 32h3M51 32h3M60 32h9M18 33h3M24 33h9M36 33h3M45 33h3M54 33h6M63 33h6M18 34h3M24 34h9M36 34h3M45 34h3M54 34h6M63 34h6M18 35h3M24 35h9M36 35h3M45 35h3M54 35h6M63 35h6M12 36h15M33 36h3M39 36h18M63 36h3M12 37h15M33 37h3M39 37h18M63 37h3M12 38h15M33 38h3M39 38h18M63 38h3M9 39h3M21 39h3M27 39h3M36 39h3M42 39h3M54 39h3M60 39h3M9 40h3M21 40h3M27 40h3M36 40h3M42 40h3M54 40h3M60 40h3M9 41h3M21 41h3M27 41h3M36 41h3M42 41h3M54 41h3M60 41h3M6 42h6M21 42h27M54 42h3M60 42h3M6 43h6M21 43h27M54 43h3M60 43h3M6 44h6M21 44h27M54 44h3M60 44h3M3 45h3M12 45h3M18 45h3M30 45h12M48 45h6M57 45h3M3 46h3M12 46h3M18 46h3M30 46h12M48 46h6M57 46h3M3 47h3M12 47h3M18 47h3M30 47h12M48 47h6M57 47h3M3 48h3M9 48h9M27 48h6M39 48h3M45 48h6M57 48h3M3 49h3M9 49h9M27 49h6M39 49h3M45 49h6M57 49h3M3 50h3M9 50h9M27 50h6M39 50h3M45 50h6M57 50h3M3 51h6M24 51h3M30 51h3M39 51h9M51 51h3M57 51h6M3 52h6M24 52h3M30 52h3M39 52h9M51 52h3M57 52h6M3 53h6M24 53h3M30 53h3M39 53h9M51 53h3M57 53h6M24 54h18M45 54h18M24 55h18M45 55h18M24 56h18M45 56h18"/>
                        <path stroke="#ffcc00"
                              d="M24 6h3M42 6h6M24 7h3M42 7h6M24 8h3M42 8h6M21 9h3M39 9h3M21 10h3M39 10h3M21 11h3M39 11h3M21 12h3M36 12h3M21 13h3M36 13h3M21 14h3M36 14h3M21 15h3M36 15h3M21 16h3M36 16h3M21 17h3M36 17h3"/>
                        <path stroke="#525252"
                              d="M51 12h6M51 13h6M51 14h6M24 24h3M33 24h3M24 25h3M33 25h3M24 26h3M33 26h3M54 27h6M54 28h6M54 29h6M24 30h3M33 30h3M54 30h6M24 31h3M33 31h3M54 31h6M24 32h3M33 32h3M54 32h6M36 36h3M36 37h3M36 38h3M39 39h3M39 40h3M39 41h3M6 45h6M42 45h6M6 46h6M42 46h6M6 47h6M42 47h6M6 48h3M42 48h3M6 49h3M42 49h3M6 50h3M42 50h3M27 51h3M48 51h3M54 51h3M27 52h3M48 52h3M54 52h3M27 53h3M48 53h3M54 53h3"/>
                        <path stroke="#ff0026"
                              d="M42 15h9M42 16h9M42 17h9M42 18h15M42 19h15M42 20h15M27 21h6M36 21h6M45 21h15M27 22h6M36 22h6M45 22h15M27 23h6M36 23h6M45 23h15M27 24h6M36 24h3M48 24h6M27 25h6M36 25h3M48 25h6M27 26h6M36 26h3M48 26h6M24 27h12M48 27h3M24 28h12M48 28h3M24 29h12M48 29h3M27 30h6M48 30h3M27 31h6M48 31h3M27 32h6M48 32h3M33 33h3M48 33h6M60 33h3M33 34h3M48 34h6M60 34h3M33 35h3M48 35h6M60 35h3M57 36h6M57 37h6M57 38h6M12 39h9M45 39h9M57 39h3M12 40h9M45 40h9M57 40h3M12 41h9M45 41h9M57 41h3M12 42h9M48 42h6M57 42h3M12 43h9M48 43h6M57 43h3M12 44h9M48 44h6M57 44h3M15 45h3M54 45h3M15 46h3M54 46h3M15 47h3M54 47h3M33 48h6M51 48h6M33 49h6M51 49h6M33 50h6M51 50h6M33 51h6M33 52h6M33 53h6"/>
                        <path stroke="#ffffff" d="M21 27h3M39 27h3M21 28h3M39 28h3M21 29h3M39 29h3"/>
                        <path stroke="#00ff00"
                              d="M42 27h3M42 28h3M42 29h3M21 30h3M39 30h6M21 31h3M39 31h6M21 32h3M39 32h6M21 33h3M39 33h6M21 34h3M39 34h6M21 35h3M39 35h6"/>
                        <path stroke="#929e49"
                              d="M27 36h6M27 37h6M27 38h6M24 39h3M30 39h6M24 40h3M30 40h6M24 41h3M30 41h6"/>
                    </g>
                </g>
                <g id="walking-[[${id}]]">
                    <g id="frame3-[[${id}]]">
                        <path stroke="rgba(255,255,255,0.00392156862745098)"
                              d="M9 0h15M30 0h12M51 0h18M9 1h15M30 1h12M51 1h18M9 2h15M30 2h12M51 2h18M6 3h15M30 3h9M51 3h18M6 4h15M30 4h9M51 4h18M6 5h15M30 5h9M51 5h18M6 6h12M27 6h9M6 7h12M27 7h9M6 8h12M27 8h9M6 9h12M27 9h3M48 9h3M57 9h12M6 10h12M27 10h3M48 10h3M57 10h12M6 11h12M27 11h3M48 11h3M57 11h12M6 12h12M27 12h3M60 12h9M6 13h12M27 13h3M60 13h9M6 14h12M27 14h3M60 14h9M6 15h15M60 15h9M6 16h15M60 16h9M6 17h15M60 17h9M6 18h15M60 18h9M6 19h15M60 19h9M6 20h15M60 20h9M6 21h12M63 21h6M6 22h12M63 22h6M6 23h12M63 23h6M6 24h12M63 24h6M6 25h12M63 25h6M6 26h12M63 26h6M6 27h12M66 27h3M6 28h12M66 28h3M6 29h12M66 29h3M6 30h12M6 31h12M6 32h12M6 33h12M6 34h12M6 35h12M6 36h9M66 36h3M6 37h9M66 37h3M6 38h9M66 38h3M6 39h6M63 39h6M6 40h6M63 40h6M6 41h6M63 41h6M6 42h3M63 42h6M6 43h3M63 43h6M6 44h3M63 44h6M24 45h6M60 45h9M24 46h6M60 46h9M24 47h6M60 47h9M24 48h6M63 48h6M24 49h6M63 49h6M24 50h6M63 50h6M12 51h9M24 51h3M63 51h6M12 52h9M24 52h3M63 52h6M12 53h9M24 53h3M63 53h6M9 54h18M45 54h3M9 55h18M45 55h3M9 56h18M45 56h3"/>
                        <path stroke="#000000"
                              d="M24 0h6M42 0h9M24 1h6M42 1h9M24 2h6M42 2h9M21 3h3M27 3h3M39 3h3M48 3h3M21 4h3M27 4h3M39 4h3M48 4h3M21 5h3M27 5h3M39 5h3M48 5h3M18 6h3M24 6h3M36 6h3M42 6h6M18 7h3M24 7h3M36 7h3M42 7h6M18 8h3M24 8h3M36 8h3M42 8h6M18 9h3M24 9h3M33 9h3M39 9h3M51 9h6M18 10h3M24 10h3M33 10h3M39 10h3M51 10h6M18 11h3M24 11h3M33 11h3M39 11h3M51 11h6M18 12h3M24 12h3M33 12h3M39 12h12M57 12h3M18 13h3M24 13h3M33 13h3M39 13h12M57 13h3M18 14h3M24 14h3M33 14h3M39 14h12M57 14h3M21 15h21M51 15h9M21 16h21M51 16h9M21 17h21M51 17h9M21 18h6M33 18h3M42 18h3M57 18h3M21 19h6M33 19h3M42 19h3M57 19h3M21 20h6M33 20h3M42 20h3M57 20h3M18 21h6M39 21h9M60 21h3M18 22h6M39 22h9M60 22h3M18 23h6M39 23h9M60 23h3M18 24h3M36 24h3M45 24h3M54 24h9M18 25h3M36 25h3M45 25h3M54 25h9M18 26h3M36 26h3M45 26h3M54 26h9M18 27h3M36 27h3M45 27h3M51 27h3M60 27h6M18 28h3M36 28h3M45 28h3M51 28h3M60 28h6M18 29h3M36 29h3M45 29h3M51 29h3M60 29h6M18 30h3M24 30h9M36 30h3M45 30h3M51 30h3M60 30h9M18 31h3M24 31h9M36 31h3M45 31h3M51 31h3M60 31h9M18 32h3M24 32h9M36 32h3M45 32h3M51 32h3M60 32h9M18 33h9M33 33h3M39 33h9M54 33h6M63 33h6M18 34h9M33 34h3M39 34h9M54 34h6M63 34h6M18 35h9M33 35h3M39 35h9M54 35h6M63 35h6M15 36h9M27 36h3M36 36h3M42 36h12M63 36h3M15 37h9M27 37h3M36 37h3M42 37h12M63 37h3M15 38h9M27 38h3M36 38h3M42 38h12M63 38h3M12 39h3M24 39h18M51 39h6M60 39h3M12 40h3M24 40h18M51 40h6M60 40h3M12 41h3M24 41h18M51 41h6M60 41h3M9 42h6M24 42h6M36 42h9M51 42h3M57 42h6M9 43h6M24 43h6M36 43h9M51 43h3M57 43h6M9 44h6M24 44h6M36 44h9M51 44h3M57 44h6M6 45h3M15 45h3M21 45h3M30 45h9M45 45h6M57 45h3M6 46h3M15 46h3M21 46h3M30 46h9M45 46h6M57 46h3M6 47h3M15 47h3M21 47h3M30 47h9M45 47h6M57 47h3M6 48h3M12 48h9M30 48h9M42 48h6M51 48h3M57 48h6M6 49h3M12 49h9M30 49h9M42 49h6M51 49h3M57 49h6M6 50h3M12 50h9M30 50h9M42 50h6M51 50h3M57 50h6M6 51h6M27 51h3M33 51h30M6 52h6M27 52h3M33 52h30M6 53h6M27 53h3M33 53h30M27 54h18M27 55h18M27 56h18"/>
                        <path stroke="#ffcc00"
                              d="M24 3h3M42 3h6M24 4h3M42 4h6M24 5h3M42 5h6M21 6h3M39 6h3M21 7h3M39 7h3M21 8h3M39 8h3M21 9h3M36 9h3M21 10h3M36 10h3M21 11h3M36 11h3M21 12h3M36 12h3M21 13h3M36 13h3M21 14h3M36 14h3"/>
                        <path stroke="#525252"
                              d="M51 12h6M51 13h6M51 14h6M24 21h3M33 21h3M24 22h3M33 22h3M24 23h3M33 23h3M24 27h3M33 27h3M54 27h6M24 28h3M33 28h3M54 28h6M24 29h3M33 29h3M54 29h6M54 30h6M54 31h6M54 32h6M36 33h3M36 34h3M36 35h3M39 36h3M39 37h3M39 38h3M9 45h6M39 45h6M9 46h6M39 46h6M9 47h6M39 47h6M9 48h3M39 48h3M48 48h3M54 48h3M9 49h3M39 49h3M48 49h3M54 49h3M9 50h3M39 50h3M48 50h3M54 50h3M30 51h3M30 52h3M30 53h3"/>
                        <path stroke="#ff0026"
                              d="M42 15h9M42 16h9M42 17h9M27 18h6M36 18h6M45 18h12M27 19h6M36 19h6M45 19h12M27 20h6M36 20h6M45 20h12M27 21h6M36 21h3M48 21h12M27 22h6M36 22h3M48 22h12M27 23h6M36 23h3M48 23h12M24 24h12M48 24h6M24 25h12M48 25h6M24 26h12M48 26h6M27 27h6M48 27h3M27 28h6M48 28h3M27 29h6M48 29h3M33 30h3M48 30h3M33 31h3M48 31h3M33 32h3M48 32h3M48 33h6M60 33h3M48 34h6M60 34h3M48 35h6M60 35h3M54 36h9M54 37h9M54 38h9M15 39h9M42 39h9M57 39h3M15 40h9M42 40h9M57 40h3M15 41h9M42 41h9M57 41h3M15 42h9M45 42h6M54 42h3M15 43h9M45 43h6M54 43h3M15 44h9M45 44h6M54 44h3M18 45h3M51 45h6M18 46h3M51 46h6M18 47h3M51 47h6"/>
                        <path stroke="#ffffff" d="M21 24h3M39 24h3M21 25h3M39 25h3M21 26h3M39 26h3"/>
                        <path stroke="#00ff00"
                              d="M42 24h3M42 25h3M42 26h3M21 27h3M39 27h6M21 28h3M39 28h6M21 29h3M39 29h6M21 30h3M39 30h6M21 31h3M39 31h6M21 32h3M39 32h6"/>
                        <path stroke="#929e49"
                              d="M27 33h6M27 34h6M27 35h6M24 36h3M30 36h6M24 37h3M30 37h6M24 38h3M30 38h6M30 42h6M30 43h6M30 44h6"/>
                    </g>
                    <g id="frame4-[[${id}]]">
                        <path stroke="rgba(255,255,255,0.00392156862745098)"
                              d="M9 0h15M30 0h12M51 0h18M9 1h15M30 1h12M51 1h18M9 2h15M30 2h12M51 2h18M6 3h15M30 3h9M51 3h18M6 4h15M30 4h9M51 4h18M6 5h15M30 5h9M51 5h18M6 6h12M27 6h9M6 7h12M27 7h9M6 8h12M27 8h9M6 9h12M27 9h3M48 9h3M57 9h12M6 10h12M27 10h3M48 10h3M57 10h12M6 11h12M27 11h3M48 11h3M57 11h12M6 12h12M27 12h3M60 12h9M6 13h12M27 13h3M60 13h9M6 14h12M27 14h3M60 14h9M6 15h15M60 15h9M6 16h15M60 16h9M6 17h15M60 17h9M6 18h15M60 18h9M6 19h15M60 19h9M6 20h15M60 20h9M6 21h12M63 21h6M6 22h12M63 22h6M6 23h12M63 23h6M6 24h12M63 24h6M6 25h12M63 25h6M6 26h12M63 26h6M9 27h9M66 27h3M9 28h9M66 28h3M9 29h9M66 29h3M9 30h9M9 31h9M9 32h9M9 33h9M9 34h9M9 35h9M9 36h9M66 36h3M9 37h9M66 37h3M9 38h9M66 38h3M9 39h6M63 39h6M9 40h6M63 40h6M9 41h6M63 41h6M9 42h3M63 42h6M9 43h3M63 43h6M9 44h3M63 44h6M60 45h9M60 46h9M60 47h9M63 48h9M63 49h9M63 50h9M15 51h9M66 51h6M15 52h9M66 52h6M15 53h9M66 53h6M9 54h15M66 54h6M9 55h15M66 55h6M9 56h15M66 56h6"/>
                        <path stroke="#000000"
                              d="M24 0h6M42 0h9M24 1h6M42 1h9M24 2h6M42 2h9M21 3h3M27 3h3M39 3h3M48 3h3M21 4h3M27 4h3M39 4h3M48 4h3M21 5h3M27 5h3M39 5h3M48 5h3M18 6h3M24 6h3M36 6h3M42 6h6M18 7h3M24 7h3M36 7h3M42 7h6M18 8h3M24 8h3M36 8h3M42 8h6M18 9h3M24 9h3M33 9h3M39 9h3M51 9h6M18 10h3M24 10h3M33 10h3M39 10h3M51 10h6M18 11h3M24 11h3M33 11h3M39 11h3M51 11h6M18 12h3M24 12h3M33 12h3M39 12h12M57 12h3M18 13h3M24 13h3M33 13h3M39 13h12M57 13h3M18 14h3M24 14h3M33 14h3M39 14h12M57 14h3M21 15h21M51 15h9M21 16h21M51 16h9M21 17h21M51 17h9M21 18h6M33 18h3M42 18h3M57 18h3M21 19h6M33 19h3M42 19h3M57 19h3M21 20h6M33 20h3M42 20h3M57 20h3M18 21h3M36 21h6M45 21h3M60 21h3M18 22h3M36 22h6M45 22h3M60 22h3M18 23h3M36 23h6M45 23h3M60 23h3M18 24h3M33 24h3M42 24h6M54 24h9M18 25h3M33 25h3M42 25h6M54 25h9M18 26h3M33 26h3M42 26h6M54 26h9M18 27h3M33 27h3M42 27h6M51 27h3M60 27h6M18 28h3M33 28h3M42 28h6M51 28h3M60 28h6M18 29h3M33 29h3M42 29h6M51 29h3M60 29h6M18 30h3M24 30h6M33 30h3M42 30h6M51 30h3M60 30h9M18 31h3M24 31h6M33 31h3M42 31h6M51 31h3M60 31h9M18 32h3M24 32h6M33 32h3M42 32h6M51 32h3M60 32h9M18 33h6M30 33h3M36 33h6M45 33h3M54 33h6M63 33h6M18 34h6M30 34h3M36 34h6M45 34h3M54 34h6M63 34h6M18 35h6M30 35h3M36 35h6M45 35h3M54 35h6M63 35h6M18 36h9M33 36h3M39 36h12M63 36h3M18 37h9M33 37h3M39 37h12M63 37h3M18 38h9M33 38h3M39 38h12M63 38h3M15 39h3M24 39h15M48 39h6M60 39h3M15 40h3M24 40h15M48 40h6M60 40h3M15 41h3M24 41h15M48 41h6M60 41h3M12 42h6M27 42h3M36 42h6M48 42h9M60 42h3M12 43h6M27 43h3M36 43h6M48 43h9M60 43h3M12 44h6M27 44h3M36 44h6M48 44h9M60 44h3M9 45h3M18 45h3M24 45h12M42 45h9M57 45h3M9 46h3M18 46h3M24 46h12M42 46h9M57 46h3M9 47h3M18 47h3M24 47h12M42 47h9M57 47h3M9 48h3M15 48h12M30 48h6M39 48h3M48 48h3M60 48h3M9 49h3M15 49h12M30 49h6M39 49h3M48 49h3M60 49h3M9 50h3M15 50h12M30 50h6M39 50h3M48 50h3M60 50h3M9 51h6M24 51h18M48 51h3M54 51h3M60 51h6M9 52h6M24 52h18M48 52h3M54 52h3M60 52h6M9 53h6M24 53h18M48 53h3M54 53h3M60 53h6M48 54h18M48 55h18M48 56h18"/>
                        <path stroke="#ffcc00"
                              d="M24 3h3M42 3h6M24 4h3M42 4h6M24 5h3M42 5h6M21 6h3M39 6h3M21 7h3M39 7h3M21 8h3M39 8h3M21 9h3M36 9h3M21 10h3M36 10h3M21 11h3M36 11h3M21 12h3M36 12h3M21 13h3M36 13h3M21 14h3M36 14h3"/>
                        <path stroke="#525252"
                              d="M51 12h6M51 13h6M51 14h6M21 21h3M30 21h3M21 22h3M30 22h3M21 23h3M30 23h3M21 27h3M30 27h3M54 27h6M21 28h3M30 28h3M54 28h6M21 29h3M30 29h3M54 29h6M54 30h6M54 31h6M54 32h6M33 33h3M33 34h3M33 35h3M36 36h3M36 37h3M36 38h3M12 45h6M36 45h6M12 46h6M36 46h6M12 47h6M36 47h6M12 48h3M27 48h3M36 48h3M12 49h3M27 49h3M36 49h3M12 50h3M27 50h3M36 50h3M51 51h3M57 51h3M51 52h3M57 52h3M51 53h3M57 53h3"/>
                        <path stroke="#ff0026"
                              d="M42 15h9M42 16h9M42 17h9M27 18h6M36 18h6M45 18h12M27 19h6M36 19h6M45 19h12M27 20h6M36 20h6M45 20h12M24 21h6M33 21h3M42 21h3M48 21h12M24 22h6M33 22h3M42 22h3M48 22h12M24 23h6M33 23h3M42 23h3M48 23h12M21 24h12M48 24h6M21 25h12M48 25h6M21 26h12M48 26h6M24 27h6M48 27h3M24 28h6M48 28h3M24 29h6M48 29h3M21 30h3M30 30h3M48 30h3M21 31h3M30 31h3M48 31h3M21 32h3M30 32h3M48 32h3M42 33h3M48 33h6M60 33h3M42 34h3M48 34h6M60 34h3M42 35h3M48 35h6M60 35h3M51 36h12M51 37h12M51 38h12M18 39h6M39 39h9M54 39h6M18 40h6M39 40h9M54 40h6M18 41h6M39 41h9M54 41h6M18 42h9M42 42h6M57 42h3M18 43h9M42 43h6M57 43h3M18 44h9M42 44h6M57 44h3M21 45h3M51 45h6M21 46h3M51 46h6M21 47h3M51 47h6M51 48h9M51 49h9M51 50h9"/>
                        <path stroke="#ffffff" d="M36 24h3M36 25h3M36 26h3"/>
                        <path stroke="#00ff00"
                              d="M39 24h3M39 25h3M39 26h3M36 27h6M36 28h6M36 29h6M36 30h6M36 31h6M36 32h6"/>
                        <path stroke="#929e49"
                              d="M24 33h6M24 34h6M24 35h6M27 36h6M27 37h6M27 38h6M30 42h6M30 43h6M30 44h6"/>
                    </g>
                </g>
            </svg>
            <svg viewBox="0 0 100 30" width="100" height="30" x="0" y="0">
                <g id="username-[[${id}]]">
                    <rect x="0" y="0" width="100" height="20" fill="black" fill-opacity="0.8" rx="5"/>
                    <svg x="4" y="2.5" width="15" height="15" viewBox="0 0 100 100">
                        <path fill-rule="evenodd" clip-rule="evenodd"
                              d="M48.854 0C21.839 0 0 22 0 49.217c0 21.756 13.993 40.172 33.405 46.69 2.427.49 3.316-1.059 3.316-2.362 0-1.141-.08-5.052-.08-9.127-13.59 2.934-16.42-5.867-16.42-5.867-2.184-5.704-5.42-7.17-5.42-7.17-4.448-3.015.324-3.015.324-3.015 4.934.326 7.523 5.052 7.523 5.052 4.367 7.496 11.404 5.378 14.235 4.074.404-3.178 1.699-5.378 3.074-6.6-10.839-1.141-22.243-5.378-22.243-24.283 0-5.378 1.94-9.778 5.014-13.2-.485-1.222-2.184-6.275.486-13.038 0 0 4.125-1.304 13.426 5.052a46.97 46.97 0 0 1 12.214-1.63c4.125 0 8.33.571 12.213 1.63 9.302-6.356 13.427-5.052 13.427-5.052 2.67 6.763.97 11.816.485 13.038 3.155 3.422 5.015 7.822 5.015 13.2 0 18.905-11.404 23.06-22.324 24.283 1.78 1.548 3.316 4.481 3.316 9.126 0 6.6-.08 11.897-.08 13.526 0 1.304.89 2.853 3.316 2.364 19.412-6.52 33.405-24.935 33.405-46.691C97.707 22 75.788 0 48.854 0z"
                              fill="#fff"/>
                    </svg>
                    <text x="25" y="11" dominant-baseline="middle" style="fill:white" font-size="13">
                        [[${#strings.abbreviate(username, 12)}]]
                    </text>
                    <rect x="0" y="23" width="[[${exp}]]" height="2" fill="#48ff00" rx="1"/>
                </g>
            </svg>
        </g>
    </a>
    <style>
        #frame1-[[${id}]] {
        animation: 1s frameToggle infinite;
        }
        #frame2-[[${id}]] {
        animation: 1s frameToggle infinite reverse;
        }
        #frame3-[[${id}]] {
        animation: 1s frameToggle infinite;
        }
        #frame4-[[${id}]] {
        animation: 1s frameToggle infinite reverse;
        }
        #standing-[[${id}]] {
        animation: standingToggle [[${motion.duration}]]s infinite;
        }
        #walking-[[${id}]] {
        animation: walkingToggle [[${motion.duration}]]s infinite;
        }
        #body-[[${id}]] {
        animation: move-body-[[${id}]] [[${motion.duration}]]s infinite;
        }
        #username-[[${id}]] {
        animation: move-username-[[${id}]] [[${motion.duration}]]s infinite;
        }
        @keyframes move-body-[[${id}]] {
        0%, 10% {
        transform: translate([[${motion.positions[0].x}]]%, [[${y}]]%) scaleX([[${motion.positions[0].direction}]]);
        }
        20%, 30% {
        transform: translate([[${motion.positions[1].x}]]%, [[${y}]]%) scaleX([[${motion.positions[1].direction}]]);
        }
        40%, 50% {
        transform: translate([[${motion.positions[2].x}]]%, [[${y}]]%) scaleX([[${motion.positions[2].direction}]]);
        }
        50.01% {
        transform: translate([[${motion.positions[3].x}]]%, [[${y}]]%) scaleX([[${motion.positions[3].direction}]]);
        }
        60%, 70% {
        transform: translate([[${motion.positions[4].x}]]%, [[${y}]]%) scaleX([[${motion.positions[4].direction}]]);
        }
        80%, 100% {
        transform: translate([[${motion.positions[5].x}]]%, [[${y}]]%) scaleX([[${motion.positions[5].direction}]]);
        }
        }
        @keyframes move-username-[[${id}]] {
        0%, 10% {
        transform: scaleX([[${motion.positions[0].direction}]])
        translateX([[${motion.positions[0].direction > 0 ? 0: -100}]]%);
        }
        20%, 30% {
        transform: scaleX([[${motion.positions[1].direction}]])
        translateX([[${motion.positions[1].direction > 0 ? 0: -100}]]%);
        }
        40%, 50% {
        transform: scaleX([[${motion.positions[2].direction}]])
        translateX([[${motion.positions[2].direction > 0 ? 0: -100}]]%);
        }
        50.01% {
        transform: scaleX([[${motion.positions[3].direction}]])
        translateX([[${motion.positions[3].direction > 0 ? 0: -100}]]%);
        }
        60%, 70% {
        transform: scaleX([[${motion.positions[4].direction}]])
        translateX([[${motion.positions[4].direction > 0 ? 0: -100}]]%);
        }
        80%, 100% {
        transform: scaleX([[${motion.positions[5].direction}]])
        translateX([[${motion.positions[5].direction > 0 ? 0: -100}]]%);
        }
        }
    </style>
</svg>
