<svg fill="none" overflow="visible" xmlns="http://www.w3.org/2000/svg">
    <a href="https://github.com/[[${username}]]">
        <g id="body-[[${id}]]">
            <svg viewBox="0 0 100 100" width="100" height="100" x="32" y="37">
                <g id="standing-[[${id}]]">
                    <g id="frame1-[[${id}]]">
                        <path stroke="#000000"
                              d="M15 3h6M27 3h9M15 4h6M27 4h9M15 5h6M27 5h9M9 6h9M21 6h6M33 6h3M9 7h9M21 7h6M33 7h3M9 8h9M21 8h6M33 8h3M6 9h3M12 9h9M27 9h6M6 10h3M12 10h9M27 10h6M6 11h3M12 11h9M27 11h6M6 12h3M24 12h6M6 13h3M24 13h6M6 14h3M24 14h6M3 15h3M27 15h3M3 16h3M27 16h3M3 17h3M27 17h3M3 18h3M21 18h3M30 18h3M3 19h3M21 19h3M30 19h3M3 20h3M21 20h3M30 20h3M0 21h9M18 21h6M30 21h3M0 22h9M18 22h6M30 22h3M0 23h9M18 23h6M30 23h3M0 24h3M30 24h3M0 25h3M30 25h3M0 26h3M30 26h3M0 27h3M9 27h3M18 27h3M30 27h3M0 28h3M9 28h3M18 28h3M30 28h3M0 29h3M9 29h3M18 29h3M30 29h3M3 30h6M12 30h6M24 30h3M30 30h3M3 31h6M12 31h6M24 31h3M30 31h3M3 32h6M12 32h6M24 32h3M30 32h3M3 33h3M9 33h12M24 33h6M3 34h3M9 34h12M24 34h6M3 35h3M9 35h12M24 35h6M6 36h3M21 36h6M6 37h3M21 37h6M6 38h3M21 38h6"/>
                        <path stroke="#ffe8f0"
                              d="M27 6h6M27 7h6M27 8h6M9 9h3M21 9h6M9 10h3M21 10h6M9 11h3M21 11h6M9 12h15M9 13h15M9 14h15M6 15h21M6 16h21M6 17h21M9 18h9M24 18h6M9 19h9M24 19h6M9 20h9M24 20h6M9 21h9M24 21h6M9 22h9M24 22h6M9 23h9M24 23h6M3 24h27M3 25h27M3 26h27M3 27h6M12 27h6M21 27h9M3 28h6M12 28h6M21 28h9M3 29h6M12 29h6M21 29h9M9 30h3M18 30h6M27 30h3M9 31h3M18 31h6M27 31h3M9 32h3M18 32h6M27 32h3M6 33h3M21 33h3M6 34h3M21 34h3M6 35h3M21 35h3"/>
                        <path stroke="#ffffff" d="M6 18h3M18 18h3M6 19h3M18 19h3M6 20h3M18 20h3"/>
                    </g>
                    <g id="frame2-[[${id}]]">
                        <path stroke="#000000"
                              d="M12 6h6M21 6h9M12 7h6M21 7h9M12 8h6M21 8h9M9 9h12M30 9h9M9 10h12M30 10h9M9 11h12M30 11h9M6 12h3M24 12h12M6 13h3M24 13h12M6 14h3M24 14h12M3 15h3M27 15h6M3 16h3M27 16h6M3 17h3M27 17h6M3 18h3M21 18h3M30 18h3M3 19h3M21 19h3M30 19h3M3 20h3M21 20h3M30 20h3M0 21h9M18 21h6M30 21h3M0 22h9M18 22h6M30 22h3M0 23h9M18 23h6M30 23h3M0 24h3M30 24h3M0 25h3M30 25h3M0 26h3M30 26h3M0 27h3M9 27h3M18 27h3M30 27h3M0 28h3M9 28h3M18 28h3M30 28h3M0 29h3M9 29h3M18 29h3M30 29h3M3 30h6M12 30h6M24 30h3M30 30h3M3 31h6M12 31h6M24 31h3M30 31h3M3 32h6M12 32h6M24 32h3M30 32h3M6 33h12M21 33h12M6 34h12M21 34h12M6 35h12M21 35h12M9 36h3M18 36h6M9 37h3M18 37h6M9 38h3M18 38h6"/>
                        <path stroke="#ffe8f0"
                              d="M21 9h9M21 10h9M21 11h9M9 12h15M9 13h15M9 14h15M6 15h21M6 16h21M6 17h21M9 18h9M24 18h6M9 19h9M24 19h6M9 20h9M24 20h6M9 21h9M24 21h6M9 22h9M24 22h6M9 23h9M24 23h6M3 24h27M3 25h27M3 26h27M3 27h6M12 27h6M21 27h9M3 28h6M12 28h6M21 28h9M3 29h6M12 29h6M21 29h9M9 30h3M18 30h6M27 30h3M9 31h3M18 31h6M27 31h3M9 32h3M18 32h6M27 32h3M18 33h3M18 34h3M18 35h3"/>
                        <path stroke="#ffffff" d="M6 18h3M18 18h3M6 19h3M18 19h3M6 20h3M18 20h3"/>
                    </g>
                </g>
                <g id="walking-[[${id}]]">
                    <g id="frame3-[[${id}]]">
                        <path stroke="#000000"
                              d="M9 3h9M21 3h9M9 4h9M21 4h9M9 5h9M21 5h9M6 6h3M12 6h15M30 6h3M6 7h3M12 7h15M30 7h3M6 8h3M12 8h15M30 8h3M6 9h3M24 9h12M6 10h3M24 10h12M6 11h3M24 11h12M3 12h3M27 12h3M3 13h3M27 13h3M3 14h3M27 14h3M3 15h3M21 15h3M30 15h3M3 16h3M21 16h3M30 16h3M3 17h3M21 17h3M30 17h3M0 18h9M18 18h6M30 18h3M0 19h9M18 19h6M30 19h3M0 20h9M18 20h6M30 20h3M0 21h3M30 21h3M0 22h3M30 22h3M0 23h3M30 23h3M0 24h3M30 24h3M0 25h3M30 25h3M0 26h3M30 26h3M0 27h3M9 27h3M18 27h3M30 27h3M0 28h3M9 28h3M18 28h3M30 28h3M0 29h3M9 29h3M18 29h3M30 29h3M3 30h6M12 30h6M24 30h3M30 30h3M3 31h6M12 31h6M24 31h3M30 31h3M3 32h6M12 32h6M24 32h3M30 32h3M3 33h3M9 33h12M24 33h6M3 34h3M9 34h12M24 34h6M3 35h3M9 35h12M24 35h6M6 36h3M21 36h6M6 37h3M21 37h6M6 38h3M21 38h6"/>
                        <path stroke="#ffe8f0"
                              d="M9 6h3M27 6h3M9 7h3M27 7h3M9 8h3M27 8h3M9 9h15M9 10h15M9 11h15M6 12h21M6 13h21M6 14h21M9 15h9M24 15h6M9 16h9M24 16h6M9 17h9M24 17h6M9 18h9M24 18h6M9 19h9M24 19h6M9 20h9M24 20h6M3 21h27M3 22h27M3 23h27M3 24h27M3 25h27M3 26h27M3 27h6M12 27h6M21 27h9M3 28h6M12 28h6M21 28h9M3 29h6M12 29h6M21 29h9M9 30h3M18 30h6M27 30h3M9 31h3M18 31h6M27 31h3M9 32h3M18 32h6M27 32h3M6 33h3M21 33h3M6 34h3M21 34h3M6 35h3M21 35h3"/>
                        <path stroke="#ffffff" d="M6 15h3M18 15h3M6 16h3M18 16h3M6 17h3M18 17h3"/>
                    </g>
                    <g id="frame4-[[${id}]]">
                        <path stroke="#000000"
                              d="M15 3h6M27 3h9M15 4h6M27 4h9M15 5h6M27 5h9M9 6h9M21 6h6M33 6h3M9 7h9M21 7h6M33 7h3M9 8h9M21 8h6M33 8h3M6 9h3M12 9h9M27 9h6M6 10h3M12 10h9M27 10h6M6 11h3M12 11h9M27 11h6M6 12h3M24 12h6M6 13h3M24 13h6M6 14h3M24 14h6M3 15h3M27 15h3M3 16h3M27 16h3M3 17h3M27 17h3M3 18h3M21 18h3M30 18h3M3 19h3M21 19h3M30 19h3M3 20h3M21 20h3M30 20h3M0 21h9M18 21h6M30 21h3M0 22h9M18 22h6M30 22h3M0 23h9M18 23h6M30 23h3M0 24h3M30 24h3M0 25h3M30 25h3M0 26h3M30 26h3M0 27h3M9 27h3M18 27h3M30 27h3M0 28h3M9 28h3M18 28h3M30 28h3M0 29h3M9 29h3M18 29h3M30 29h3M3 30h6M12 30h6M24 30h3M30 30h3M3 31h6M12 31h6M24 31h3M30 31h3M3 32h6M12 32h6M24 32h3M30 32h3M3 33h3M9 33h12M24 33h6M3 34h3M9 34h12M24 34h6M3 35h3M9 35h12M24 35h6M6 36h3M21 36h6M6 37h3M21 37h6M6 38h3M21 38h6"/>
                        <path stroke="#ffe8f0"
                              d="M27 6h6M27 7h6M27 8h6M9 9h3M21 9h6M9 10h3M21 10h6M9 11h3M21 11h6M9 12h15M9 13h15M9 14h15M6 15h21M6 16h21M6 17h21M9 18h9M24 18h6M9 19h9M24 19h6M9 20h9M24 20h6M9 21h9M24 21h6M9 22h9M24 22h6M9 23h9M24 23h6M3 24h27M3 25h27M3 26h27M3 27h6M12 27h6M21 27h9M3 28h6M12 28h6M21 28h9M3 29h6M12 29h6M21 29h9M9 30h3M18 30h6M27 30h3M9 31h3M18 31h6M27 31h3M9 32h3M18 32h6M27 32h3M6 33h3M21 33h3M6 34h3M21 34h3M6 35h3M21 35h3"/>
                        <path stroke="#ffffff" d="M6 18h3M18 18h3M6 19h3M18 19h3M6 20h3M18 20h3"/>
                    </g>
                </g>
            </svg>
            <svg viewBox="0 0 100 30" width="100" height="30" x="0" y="0">
                <g id="username-[[${id}]]">
                    <rect x="0" y="0" width="100" height="20" fill="black" fill-opacity="0.8" rx="5"/>
                    <svg x="4" y="2.5" width="15" height="15" viewBox="0 0 100 100">
                        <path fill-rule="evenodd" clip-rule="evenodd"
                              d="M48.854 0C21.839 0 0 22 0 49.217c0 21.756 13.993 40.172 33.405 46.69 2.427.49 3.316-1.059 3.316-2.362 0-1.141-.08-5.052-.08-9.127-13.59 2.934-16.42-5.867-16.42-5.867-2.184-5.704-5.42-7.17-5.42-7.17-4.448-3.015.324-3.015.324-3.015 4.934.326 7.523 5.052 7.523 5.052 4.367 7.496 11.404 5.378 14.235 4.074.404-3.178 1.699-5.378 3.074-6.6-10.839-1.141-22.243-5.378-22.243-24.283 0-5.378 1.94-9.778 5.014-13.2-.485-1.222-2.184-6.275.486-13.038 0 0 4.125-1.304 13.426 5.052a46.97 46.97 0 0 1 12.214-1.63c4.125 0 8.33.571 12.213 1.63 9.302-6.356 13.427-5.052 13.427-5.052 2.67 6.763.97 11.816.485 13.038 3.155 3.422 5.015 7.822 5.015 13.2 0 18.905-11.404 23.06-22.324 24.283 1.78 1.548 3.316 4.481 3.316 9.126 0 6.6-.08 11.897-.08 13.526 0 1.304.89 2.853 3.316 2.364 19.412-6.52 33.405-24.935 33.405-46.691C97.707 22 75.788 0 48.854 0z"
                              fill="#fff"/>
                    </svg>
                    <text x="25" y="11" dominant-baseline="middle" style="fill:white" font-size="13">
                        [[${#strings.abbreviate(username, 12)}]]
                    </text>
                    <rect x="0" y="23" width="[[${exp}]]" height="2" fill="#48ff00" rx="1"/>
                </g>
            </svg>
        </g>
    </a>
    <style>
        #frame1-[[${id}]] {
        animation: 1s frameToggle infinite;
        }
        #frame2-[[${id}]] {
        animation: 1s frameToggle infinite reverse;
        }
        #frame3-[[${id}]] {
        animation: 1s frameToggle infinite;
        }
        #frame4-[[${id}]] {
        animation: 1s frameToggle infinite reverse;
        }
        #standing-[[${id}]] {
        animation: standingToggle [[${motion.duration}]]s infinite;
        }
        #walking-[[${id}]] {
        animation: walkingToggle [[${motion.duration}]]s infinite;
        }
        #body-[[${id}]] {
        animation: move-body-[[${id}]] [[${motion.duration}]]s infinite;
        }
        #username-[[${id}]] {
        animation: move-username-[[${id}]] [[${motion.duration}]]s infinite;
        }
        @keyframes move-body-[[${id}]] {
        0%, 10% {
        transform: translate([[${motion.positions[0].x}]]%, [[${y}]]%) scaleX([[${motion.positions[0].direction}]]);
        }
        20%, 30% {
        transform: translate([[${motion.positions[1].x}]]%, [[${y}]]%) scaleX([[${motion.positions[1].direction}]]);
        }
        40%, 50% {
        transform: translate([[${motion.positions[2].x}]]%, [[${y}]]%) scaleX([[${motion.positions[2].direction}]]);
        }
        50.01% {
        transform: translate([[${motion.positions[3].x}]]%, [[${y}]]%) scaleX([[${motion.positions[3].direction}]]);
        }
        60%, 70% {
        transform: translate([[${motion.positions[4].x}]]%, [[${y}]]%) scaleX([[${motion.positions[4].direction}]]);
        }
        80%, 100% {
        transform: translate([[${motion.positions[5].x}]]%, [[${y}]]%) scaleX([[${motion.positions[5].direction}]]);
        }
        }
        @keyframes move-username-[[${id}]] {
        0%, 10% {
        transform: scaleX([[${motion.positions[0].direction}]])
        translateX([[${motion.positions[0].direction > 0 ? 0: -100}]]%);
        }
        20%, 30% {
        transform: scaleX([[${motion.positions[1].direction}]])
        translateX([[${motion.positions[1].direction > 0 ? 0: -100}]]%);
        }
        40%, 50% {
        transform: scaleX([[${motion.positions[2].direction}]])
        translateX([[${motion.positions[2].direction > 0 ? 0: -100}]]%);
        }
        50.01% {
        transform: scaleX([[${motion.positions[3].direction}]])
        translateX([[${motion.positions[3].direction > 0 ? 0: -100}]]%);
        }
        60%, 70% {
        transform: scaleX([[${motion.positions[4].direction}]])
        translateX([[${motion.positions[4].direction > 0 ? 0: -100}]]%);
        }
        80%, 100% {
        transform: scaleX([[${motion.positions[5].direction}]])
        translateX([[${motion.positions[5].direction > 0 ? 0: -100}]]%);
        }
        }
    </style>
</svg>
