<svg fill="none" overflow="visible" xmlns="http://www.w3.org/2000/svg">
    <a href="https://github.com/[[${username}]]">
        <g id="body-[[${id}]]">
            <svg viewBox="0 0 100 100" width="100" height="100" x="0" y="18">
                <g id="standing-[[${id}]]">
                    <g id="frame1-[[${id}]]">
                        <path stroke="#000000"
                              d="M13 0h6M67 0h6M13 1h6M67 1h6M13 2h6M67 2h6M7 3h6M19 3h6M34 3h6M46 3h6M61 3h6M73 3h6M7 4h6M19 4h6M34 4h6M46 4h6M61 4h6M73 4h6M7 5h6M19 5h6M34 5h6M46 5h6M61 5h6M73 5h6M7 6h3M22 6h3M31 6h3M37 6h3M46 6h3M52 6h3M61 6h3M76 6h3M7 7h3M22 7h3M31 7h3M37 7h3M46 7h3M52 7h3M61 7h3M76 7h3M7 8h3M22 8h3M31 8h3M37 8h3M46 8h3M52 8h3M61 8h3M76 8h3M4 9h3M25 9h6M34 9h18M55 9h6M79 9h3M4 10h3M25 10h6M34 10h18M55 10h6M79 10h3M4 11h3M25 11h6M34 11h18M55 11h6M79 11h3M4 12h3M25 12h6M34 12h3M49 12h3M55 12h6M79 12h3M4 13h3M25 13h6M34 13h3M49 13h3M55 13h6M79 13h3M4 14h3M25 14h6M34 14h3M49 14h3M55 14h6M79 14h3M7 15h3M22 15h3M28 15h6M46 15h3M55 15h9M76 15h3M7 16h3M22 16h3M28 16h6M46 16h3M55 16h9M76 16h3M7 17h3M22 17h3M28 17h6M46 17h3M55 17h9M76 17h3M7 18h6M19 18h6M28 18h6M37 18h18M61 18h6M73 18h6M7 19h6M19 19h6M28 19h6M37 19h18M61 19h6M73 19h6M7 20h6M19 20h6M28 20h6M37 20h18M61 20h6M73 20h6M13 21h6M22 21h6M31 21h6M49 21h3M55 21h18M13 22h6M22 22h6M31 22h6M49 22h3M55 22h18M13 23h6M22 23h6M31 23h6M49 23h3M55 23h18M22 24h6M40 24h9M52 24h3M64 24h6M73 24h3M22 25h6M40 25h9M52 25h3M64 25h6M73 25h3M22 26h6M40 26h9M52 26h3M64 26h6M73 26h3M19 27h12M34 27h3M43 27h3M61 27h18M19 28h12M34 28h3M43 28h3M61 28h18M19 29h12M34 29h3M43 29h3M61 29h18M19 30h9M55 30h6M64 30h3M76 30h6M19 31h9M55 31h6M64 31h3M76 31h6M19 32h9M55 32h6M64 32h3M76 32h6M16 33h3M22 33h3M46 33h3M52 33h3M61 33h3M79 33h6M16 34h3M22 34h3M46 34h3M52 34h3M61 34h3M79 34h6M16 35h3M22 35h3M46 35h3M52 35h3M61 35h3M79 35h6M16 36h3M22 36h27M52 36h3M61 36h3M79 36h6M16 37h3M22 37h27M52 37h3M61 37h3M79 37h6M16 38h3M22 38h27M52 38h3M61 38h3M79 38h6M16 39h3M22 39h3M28 39h3M37 39h3M43 39h3M49 39h3M61 39h3M79 39h3M16 40h3M22 40h3M28 40h3M37 40h3M43 40h3M49 40h3M61 40h3M79 40h3M16 41h3M22 41h3M28 41h3M37 41h3M43 41h3M49 41h3M61 41h3M79 41h3M16 42h3M25 42h6M40 42h6M49 42h3M61 42h3M79 42h3M16 43h3M25 43h6M40 43h6M49 43h3M61 43h3M79 43h3M16 44h3M25 44h6M40 44h6M49 44h3M61 44h3M79 44h3M16 45h6M28 45h6M49 45h3M64 45h3M76 45h6M16 46h6M28 46h6M49 46h3M64 46h3M76 46h6M16 47h6M28 47h6M49 47h3M64 47h3M76 47h6M13 48h9M28 48h3M46 48h3M67 48h9M82 48h3M13 49h9M28 49h3M46 49h3M67 49h9M82 49h3M13 50h9M28 50h3M46 50h3M67 50h9M82 50h3M13 51h3M19 51h3M31 51h3M46 51h3M64 51h12M82 51h3M13 52h3M19 52h3M31 52h3M46 52h3M64 52h12M82 52h3M13 53h3M19 53h3M31 53h3M46 53h3M64 53h12M82 53h3M10 54h3M19 54h3M25 54h3M31 54h3M46 54h3M52 54h3M58 54h3M64 54h3M70 54h3M85 54h3M10 55h3M19 55h3M25 55h3M31 55h3M46 55h3M52 55h3M58 55h3M64 55h3M70 55h3M85 55h3M10 56h3M19 56h3M25 56h3M31 56h3M46 56h3M52 56h3M58 56h3M64 56h3M70 56h3M85 56h3M10 57h3M19 57h15M49 57h18M70 57h3M85 57h3M10 58h3M19 58h15M49 58h18M70 58h3M85 58h3M10 59h3M19 59h15M49 59h18M70 59h3M85 59h3M7 60h3M19 60h6M28 60h3M34 60h21M64 60h6M85 60h3M7 61h3M19 61h6M28 61h3M34 61h21M64 61h6M85 61h3M7 62h3M19 62h6M28 62h3M34 62h21M64 62h6M85 62h3M7 63h3M25 63h3M34 63h3M52 63h3M64 63h3M85 63h3M7 64h3M25 64h3M34 64h3M52 64h3M64 64h3M85 64h3M7 65h3M25 65h3M34 65h3M52 65h3M64 65h3M85 65h3M7 66h3M25 66h3M37 66h3M52 66h3M64 66h3M85 66h3M7 67h3M25 67h3M37 67h3M52 67h3M64 67h3M85 67h3M7 68h3M25 68h3M37 68h3M52 68h3M64 68h3M85 68h3M7 69h3M19 69h3M25 69h6M34 69h6M49 69h12M64 69h3M70 69h3M85 69h9M7 70h3M19 70h3M25 70h6M34 70h6M49 70h12M64 70h3M70 70h3M85 70h9M7 71h3M19 71h3M25 71h6M34 71h6M49 71h12M64 71h3M70 71h3M85 71h9M7 72h3M22 72h3M37 72h3M49 72h6M67 72h3M82 72h3M94 72h3M7 73h3M22 73h3M37 73h3M49 73h6M67 73h3M82 73h3M94 73h3M7 74h3M22 74h3M37 74h3M49 74h6M67 74h3M82 74h3M94 74h3M10 75h12M25 75h6M37 75h3M49 75h9M61 75h24M97 75h3M10 76h12M25 76h6M37 76h3M49 76h9M61 76h24M97 76h3M10 77h12M25 77h6M37 77h3M49 77h9M61 77h24M97 77h3M13 78h3M22 78h3M31 78h3M37 78h15M58 78h3M67 78h3M76 78h3M85 78h15M13 79h3M22 79h3M31 79h3M37 79h15M58 79h3M67 79h3M76 79h3M85 79h15M13 80h3M22 80h3M31 80h3M37 80h15M58 80h3M67 80h3M76 80h3M85 80h15M13 81h30M49 81h30M13 82h30M49 82h30M13 83h30M49 83h30"/>
                        <path stroke="#688579"
                              d="M13 3h6M67 3h6M13 4h6M67 4h6M13 5h6M67 5h6M10 6h12M34 6h3M49 6h3M64 6h12M10 7h12M34 7h3M49 7h3M64 7h12M10 8h12M34 8h3M49 8h3M64 8h12M7 9h12M22 9h3M31 9h3M52 9h3M61 9h12M76 9h3M7 10h12M22 10h3M31 10h3M52 10h3M61 10h12M76 10h3M7 11h12M22 11h3M31 11h3M52 11h3M61 11h12M76 11h3M7 12h3M13 12h3M19 12h3M31 12h3M52 12h3M61 12h3M67 12h3M73 12h3M7 13h3M13 13h3M19 13h3M31 13h3M52 13h3M61 13h3M67 13h3M73 13h3M7 14h3M13 14h3M19 14h3M31 14h3M52 14h3M61 14h3M67 14h3M73 14h3M10 15h3M16 15h3M49 15h6M64 15h3M70 15h3M10 16h3M16 16h3M49 16h6M64 16h3M70 16h3M10 17h3M16 17h3M49 17h6M64 17h3M70 17h3M13 18h3M67 18h3M13 19h3M67 19h3M13 20h3M67 20h3M70 30h6M70 31h6M70 32h6M67 33h3M76 33h3M67 34h3M76 34h3M67 35h3M76 35h3M67 36h3M73 36h3M67 37h3M73 37h3M67 38h3M73 38h3M67 39h3M73 39h3M67 40h3M73 40h3M67 41h3M73 41h3M67 42h3M76 42h3M67 43h3M76 43h3M67 44h3M76 44h3M70 45h6M70 46h6M70 47h6"/>
                        <path stroke="#3e3e3e"
                              d="M19 9h3M73 9h3M19 10h3M73 10h3M19 11h3M73 11h3M10 12h3M16 12h3M22 12h3M37 12h3M64 12h3M70 12h3M76 12h3M10 13h3M16 13h3M22 13h3M37 13h3M64 13h3M70 13h3M76 13h3M10 14h3M16 14h3M22 14h3M37 14h3M64 14h3M70 14h3M76 14h3M13 15h3M19 15h3M25 15h3M34 15h12M67 15h3M73 15h3M13 16h3M19 16h3M25 16h3M34 16h12M67 16h3M73 16h3M13 17h3M19 17h3M25 17h3M34 17h12M67 17h3M73 17h3M16 18h3M25 18h3M34 18h3M70 18h3M16 19h3M25 19h3M34 19h3M70 19h3M16 20h3M25 20h3M34 20h3M70 20h3M52 21h3M52 22h3M52 23h3M46 27h3M46 28h3M46 29h3M37 30h9M37 31h9M37 32h9M28 33h3M28 34h3M28 35h3M46 45h3M46 46h3M46 47h3M31 48h3M40 48h6M76 48h6M31 49h3M40 49h6M76 49h6M31 50h3M40 50h6M76 50h6M34 51h6M34 52h6M34 53h6M13 54h3M37 54h6M73 54h9M13 55h3M37 55h6M73 55h9M13 56h3M37 56h6M73 56h9M13 57h6M34 57h3M43 57h6M79 57h6M13 58h6M34 58h3M43 58h6M79 58h6M13 59h6M34 59h3M43 59h6M79 59h6M22 63h3M40 63h3M46 63h6M67 63h6M22 64h3M40 64h3M46 64h6M67 64h6M22 65h3M40 65h3M46 65h6M67 65h6M10 66h15M67 66h18M10 67h15M67 67h18M10 68h15M67 68h18M10 69h9M22 69h3M67 69h3M73 69h12M10 70h9M22 70h3M67 70h3M73 70h12M10 71h9M22 71h3M67 71h3M73 71h12M10 72h12M70 72h12M10 73h12M70 73h12M10 74h12M70 74h12"/>
                        <path stroke="#ff0000" d="M40 12h9M40 13h9M40 14h9"/>
                        <path stroke="#e0ab13"
                              d="M55 18h6M55 19h6M55 20h6M70 24h3M70 25h3M70 26h3M61 30h3M61 31h3M61 32h3M19 33h3M55 33h6M19 34h3M55 34h6M19 35h3M55 35h6M19 36h3M55 36h6M19 37h3M55 37h6M19 38h3M55 38h6M19 39h3M52 39h9M19 40h3M52 40h9M19 41h3M52 41h9M19 42h6M52 42h9M19 43h6M52 43h9M19 44h6M52 44h9M22 45h6M52 45h12M22 46h6M52 46h12M22 47h6M52 47h12M22 48h6M49 48h18M22 49h6M49 49h18M22 50h6M49 50h18M25 51h3M52 51h3M58 51h3M25 52h3M52 52h3M58 52h3M25 53h3M52 53h3M58 53h3"/>
                        <path stroke="#e7eaed"
                              d="M28 21h3M37 21h12M28 22h3M37 22h12M28 23h3M37 23h12M28 24h12M49 24h3M55 24h9M28 25h12M49 25h3M55 25h9M28 26h12M49 26h3M55 26h9M31 27h3M49 27h12M31 28h3M49 28h12M31 29h3M49 29h12M28 30h9M46 30h9M28 31h9M46 31h9M28 32h9M46 32h9M25 33h3M31 33h15M49 33h3M25 34h3M31 34h15M49 34h3M25 35h3M31 35h15M49 35h3M49 36h3M49 37h3M49 38h3M31 39h6M46 39h3M31 40h6M46 40h3M31 41h6M46 41h3M31 42h9M46 42h3M31 43h9M46 43h3M31 44h9M46 44h3M34 45h12M34 46h12M34 47h12M34 48h6M34 49h6M34 50h6M16 51h3M40 51h6M76 51h6M16 52h3M40 52h6M76 52h6M16 53h3M40 53h6M76 53h6M16 54h3M34 54h3M43 54h3M82 54h3M16 55h3M34 55h3M43 55h3M82 55h3M16 56h3M34 56h3M43 56h3M82 56h3M37 57h6M73 57h6M37 58h6M73 58h6M37 59h6M73 59h6M10 60h9M31 60h3M55 60h9M70 60h15M10 61h9M31 61h3M55 61h9M70 61h15M10 62h9M31 62h3M55 62h9M70 62h15M10 63h12M28 63h6M55 63h9M73 63h12M10 64h12M28 64h6M55 64h9M73 64h12M10 65h12M28 65h6M55 65h9M73 65h12M28 66h9M55 66h9M28 67h9M55 67h9M28 68h9M55 68h9M31 69h3M61 69h3M31 70h3M61 70h3M31 71h3M61 71h3M25 72h12M55 72h12M85 72h6M25 73h12M55 73h12M85 73h6M25 74h12M55 74h12M85 74h6M22 75h3M31 75h6M58 75h3M85 75h3M22 76h3M31 76h6M58 76h3M85 76h3M22 77h3M31 77h6M58 77h3M85 77h3M34 78h3M34 79h3M34 80h3"/>
                        <path stroke="#ffffff"
                              d="M37 27h3M37 28h3M37 29h3M91 72h3M91 73h3M91 74h3M88 75h9M88 76h9M88 77h9"/>
                        <path stroke="#0087ff" d="M40 27h3M40 28h3M40 29h3"/>
                        <path stroke="#ffe000"
                              d="M67 30h3M67 31h3M67 32h3M64 33h3M70 33h6M64 34h3M70 34h6M64 35h3M70 35h6M64 36h3M70 36h3M76 36h3M64 37h3M70 37h3M76 37h3M64 38h3M70 38h3M76 38h3M64 39h3M70 39h3M76 39h3M64 40h3M70 40h3M76 40h3M64 41h3M70 41h3M76 41h3M64 42h3M70 42h6M64 43h3M70 43h6M64 44h3M70 44h6M67 45h3M67 46h3M67 47h3"/>
                        <path stroke="#f0e5c0"
                              d="M25 39h3M40 39h3M25 40h3M40 40h3M25 41h3M40 41h3M22 54h3M28 54h3M49 54h3M55 54h3M61 54h3M22 55h3M28 55h3M49 55h3M55 55h3M61 55h3M22 56h3M28 56h3M49 56h3M55 56h3M61 56h3M16 78h6M25 78h6M52 78h6M61 78h6M70 78h6M16 79h6M25 79h6M52 79h6M61 79h6M70 79h6M16 80h6M25 80h6M52 80h6M61 80h6M70 80h6"/>
                        <path stroke="#808080"
                              d="M22 51h3M28 51h3M49 51h3M55 51h3M61 51h3M22 52h3M28 52h3M49 52h3M55 52h3M61 52h3M22 53h3M28 53h3M49 53h3M55 53h3M61 53h3"/>
                        <path stroke="#c4c4c4" d="M37 63h3M43 63h3M37 64h3M43 64h3M37 65h3M43 65h3"/>
                        <path stroke="#ff3600"
                              d="M40 66h12M40 67h12M40 68h12M40 69h9M40 70h9M40 71h9M40 72h9M40 73h9M40 74h9M40 75h9M40 76h9M40 77h9"/>
                    </g>
                    <g id="frame2-[[${id}]]">
                        <path stroke="#000000"
                              d="M13 3h6M67 3h6M13 4h6M67 4h6M13 5h6M67 5h6M7 6h6M19 6h6M34 6h6M46 6h6M61 6h6M73 6h6M7 7h6M19 7h6M34 7h6M46 7h6M61 7h6M73 7h6M7 8h6M19 8h6M34 8h6M46 8h6M61 8h6M73 8h6M7 9h3M22 9h3M31 9h3M37 9h3M46 9h3M52 9h3M61 9h3M76 9h3M7 10h3M22 10h3M31 10h3M37 10h3M46 10h3M52 10h3M61 10h3M76 10h3M7 11h3M22 11h3M31 11h3M37 11h3M46 11h3M52 11h3M61 11h3M76 11h3M4 12h3M25 12h6M34 12h18M55 12h6M79 12h3M4 13h3M25 13h6M34 13h18M55 13h6M79 13h3M4 14h3M25 14h6M34 14h18M55 14h6M79 14h3M4 15h3M25 15h6M34 15h3M49 15h3M55 15h6M79 15h3M4 16h3M25 16h6M34 16h3M49 16h3M55 16h6M79 16h3M4 17h3M25 17h6M34 17h3M49 17h3M55 17h6M79 17h3M7 18h3M22 18h3M28 18h6M46 18h3M55 18h9M76 18h3M7 19h3M22 19h3M28 19h6M46 19h3M55 19h9M76 19h3M7 20h3M22 20h3M28 20h6M46 20h3M55 20h9M76 20h3M7 21h6M19 21h6M28 21h6M37 21h18M61 21h6M73 21h6M7 22h6M19 22h6M28 22h6M37 22h18M61 22h6M73 22h6M7 23h6M19 23h6M28 23h6M37 23h18M61 23h6M73 23h6M13 24h6M22 24h6M31 24h6M49 24h3M55 24h18M13 25h6M22 25h6M31 25h6M49 25h3M55 25h18M13 26h6M22 26h6M31 26h6M49 26h3M55 26h18M22 27h6M40 27h9M52 27h3M64 27h6M73 27h3M22 28h6M40 28h9M52 28h3M64 28h6M73 28h3M22 29h6M40 29h9M52 29h3M64 29h6M73 29h3M19 30h12M34 30h3M43 30h3M61 30h18M19 31h12M34 31h3M43 31h3M61 31h18M19 32h12M34 32h3M43 32h3M61 32h18M19 33h9M55 33h6M64 33h3M76 33h6M19 34h9M55 34h6M64 34h3M76 34h6M19 35h9M55 35h6M64 35h3M76 35h6M16 36h3M22 36h3M46 36h3M52 36h3M61 36h3M79 36h6M16 37h3M22 37h3M46 37h3M52 37h3M61 37h3M79 37h6M16 38h3M22 38h3M46 38h3M52 38h3M61 38h3M79 38h6M16 39h3M22 39h27M52 39h3M61 39h3M79 39h6M16 40h3M22 40h27M52 40h3M61 40h3M79 40h6M16 41h3M22 41h27M52 41h3M61 41h3M79 41h6M16 42h3M22 42h3M28 42h3M37 42h3M43 42h3M49 42h3M61 42h3M79 42h3M16 43h3M22 43h3M28 43h3M37 43h3M43 43h3M49 43h3M61 43h3M79 43h3M16 44h3M22 44h3M28 44h3M37 44h3M43 44h3M49 44h3M61 44h3M79 44h3M16 45h3M25 45h6M40 45h6M49 45h3M61 45h3M79 45h3M16 46h3M25 46h6M40 46h6M49 46h3M61 46h3M79 46h3M16 47h3M25 47h6M40 47h6M49 47h3M61 47h3M79 47h3M16 48h6M28 48h6M49 48h3M64 48h3M76 48h6M16 49h6M28 49h6M49 49h3M64 49h3M76 49h6M16 50h6M28 50h6M49 50h3M64 50h3M76 50h6M16 51h6M28 51h3M46 51h3M67 51h9M79 51h3M16 52h6M28 52h3M46 52h3M67 52h9M79 52h3M16 53h6M28 53h3M46 53h3M67 53h9M79 53h3M16 54h6M31 54h3M46 54h3M64 54h9M79 54h3M16 55h6M31 55h3M46 55h3M64 55h9M79 55h3M16 56h6M31 56h3M46 56h3M64 56h9M79 56h3M13 57h3M19 57h3M25 57h3M31 57h3M46 57h3M52 57h3M58 57h3M64 57h6M82 57h3M13 58h3M19 58h3M25 58h3M31 58h3M46 58h3M52 58h3M58 58h3M64 58h6M82 58h3M13 59h3M19 59h3M25 59h3M31 59h3M46 59h3M52 59h3M58 59h3M64 59h6M82 59h3M13 60h3M19 60h15M49 60h21M82 60h3M13 61h3M19 61h15M49 61h21M82 61h3M13 62h3M19 62h15M49 62h21M82 62h3M10 63h3M22 63h6M34 63h21M64 63h3M82 63h3M10 64h3M22 64h6M34 64h21M64 64h3M82 64h3M10 65h3M22 65h6M34 65h21M64 65h3M82 65h3M10 66h3M25 66h3M37 66h3M52 66h3M61 66h3M82 66h6M10 67h3M25 67h3M37 67h3M52 67h3M61 67h3M82 67h6M10 68h3M25 68h3M37 68h3M52 68h3M61 68h3M82 68h6M10 69h3M25 69h6M34 69h6M49 69h15M82 69h3M88 69h6M10 70h3M25 70h6M34 70h6M49 70h15M82 70h3M88 70h6M10 71h3M25 71h6M34 71h6M49 71h15M82 71h3M88 71h6M10 72h3M22 72h3M37 72h3M49 72h6M61 72h3M67 72h3M82 72h3M94 72h3M10 73h3M22 73h3M37 73h3M49 73h6M61 73h3M67 73h3M82 73h3M94 73h3M10 74h3M22 74h3M37 74h3M49 74h6M61 74h3M67 74h3M82 74h3M94 74h3M10 75h3M16 75h6M25 75h6M37 75h3M49 75h9M61 75h6M79 75h6M97 75h3M10 76h3M16 76h6M25 76h6M37 76h3M49 76h9M61 76h6M79 76h6M97 76h3M10 77h3M16 77h6M25 77h6M37 77h3M49 77h9M61 77h6M79 77h6M97 77h3M13 78h3M22 78h3M31 78h3M37 78h15M58 78h3M64 78h18M85 78h15M13 79h3M22 79h3M31 79h3M37 79h15M58 79h3M64 79h18M85 79h15M13 80h3M22 80h3M31 80h3M37 80h15M58 80h3M64 80h18M85 80h15M13 81h30M49 81h30M13 82h30M49 82h30M13 83h30M49 83h30"/>
                        <path stroke="#688478"
                              d="M13 6h6M67 6h6M13 7h6M67 7h6M13 8h6M67 8h6M10 9h12M34 9h3M49 9h3M64 9h12M10 10h12M34 10h3M49 10h3M64 10h12M10 11h12M34 11h3M49 11h3M64 11h12M7 12h12M22 12h3M31 12h3M52 12h3M61 12h12M76 12h3M7 13h12M22 13h3M31 13h3M52 13h3M61 13h12M76 13h3M7 14h12M22 14h3M31 14h3M52 14h3M61 14h12M76 14h3M7 15h3M13 15h3M19 15h3M31 15h3M52 15h3M61 15h3M67 15h3M73 15h3M7 16h3M13 16h3M19 16h3M31 16h3M52 16h3M61 16h3M67 16h3M73 16h3M7 17h3M13 17h3M19 17h3M31 17h3M52 17h3M61 17h3M67 17h3M73 17h3M10 18h3M16 18h3M49 18h6M64 18h3M70 18h3M10 19h3M16 19h3M49 19h6M64 19h3M70 19h3M10 20h3M16 20h3M49 20h6M64 20h3M70 20h3M13 21h3M67 21h3M13 22h3M67 22h3M13 23h3M67 23h3M70 33h6M70 34h6M70 35h6M67 36h3M76 36h3M67 37h3M76 37h3M67 38h3M76 38h3M67 39h3M73 39h3M67 40h3M73 40h3M67 41h3M73 41h3M67 42h3M73 42h3M67 43h3M73 43h3M67 44h3M73 44h3M67 45h3M76 45h3M67 46h3M76 46h3M67 47h3M76 47h3M70 48h6M70 49h6M70 50h6"/>
                        <path stroke="#404040"
                              d="M19 12h3M73 12h3M19 13h3M73 13h3M19 14h3M73 14h3M10 15h3M16 15h3M22 15h3M37 15h3M64 15h3M70 15h3M76 15h3M10 16h3M16 16h3M22 16h3M37 16h3M64 16h3M70 16h3M76 16h3M10 17h3M16 17h3M22 17h3M37 17h3M64 17h3M70 17h3M76 17h3M13 18h3M19 18h3M25 18h3M34 18h12M67 18h3M73 18h3M13 19h3M19 19h3M25 19h3M34 19h12M67 19h3M73 19h3M13 20h3M19 20h3M25 20h3M34 20h12M67 20h3M73 20h3M16 21h3M25 21h3M34 21h3M70 21h3M16 22h3M25 22h3M34 22h3M70 22h3M16 23h3M25 23h3M34 23h3M70 23h3M52 24h3M52 25h3M52 26h3M46 30h3M46 31h3M46 32h3M37 33h9M37 34h9M37 35h9M28 36h3M28 37h3M28 38h3M46 48h3M46 49h3M46 50h3M31 51h3M40 51h6M76 51h3M31 52h3M40 52h6M76 52h3M31 53h3M40 53h6M76 53h3M34 54h6M34 55h6M34 56h6M16 57h3M37 57h6M70 57h9M16 58h3M37 58h6M70 58h9M16 59h3M37 59h6M70 59h9M16 60h3M34 60h3M43 60h6M76 60h6M16 61h3M34 61h3M43 61h6M76 61h6M16 62h3M34 62h3M43 62h6M76 62h6M64 66h6M64 67h6M64 68h6M13 69h12M64 69h18M13 70h12M64 70h18M13 71h12M64 71h18M13 72h9M64 72h3M70 72h12M13 73h9M64 73h3M70 73h12M13 74h9M64 74h3M70 74h12M13 75h3M67 75h12M13 76h3M67 76h12M13 77h3M67 77h12"/>
                        <path stroke="#ff0000" d="M40 15h9M40 16h9M40 17h9"/>
                        <path stroke="#dfa91a"
                              d="M55 21h6M55 22h6M55 23h6M70 27h3M70 28h3M70 29h3M61 33h3M61 34h3M61 35h3M19 36h3M55 36h6M19 37h3M55 37h6M19 38h3M55 38h6M19 39h3M55 39h6M19 40h3M55 40h6M19 41h3M55 41h6M19 42h3M52 42h9M19 43h3M52 43h9M19 44h3M52 44h9M19 45h6M52 45h9M19 46h6M52 46h9M19 47h6M52 47h9M22 48h6M52 48h12M22 49h6M52 49h12M22 50h6M52 50h12M22 51h6M49 51h18M22 52h6M49 52h18M22 53h6M49 53h18M25 54h3M52 54h3M58 54h3M25 55h3M52 55h3M58 55h3M25 56h3M52 56h3M58 56h3"/>
                        <path stroke="#e6e9ec"
                              d="M28 24h3M37 24h12M28 25h3M37 25h12M28 26h3M37 26h12M28 27h12M49 27h3M55 27h9M28 28h12M49 28h3M55 28h9M28 29h12M49 29h3M55 29h9M31 30h3M49 30h12M31 31h3M49 31h12M31 32h3M49 32h12M28 33h9M46 33h9M28 34h9M46 34h9M28 35h9M46 35h9M25 36h3M31 36h15M49 36h3M25 37h3M31 37h15M49 37h3M25 38h3M31 38h15M49 38h3M49 39h3M49 40h3M49 41h3M31 42h6M46 42h3M31 43h6M46 43h3M31 44h6M46 44h3M31 45h9M46 45h3M31 46h9M46 46h3M31 47h9M46 47h3M34 48h12M34 49h12M34 50h12M34 51h6M34 52h6M34 53h6M40 54h6M73 54h6M40 55h6M73 55h6M40 56h6M73 56h6M34 57h3M43 57h3M79 57h3M34 58h3M43 58h3M79 58h3M34 59h3M43 59h3M79 59h3M37 60h6M70 60h6M37 61h6M70 61h6M37 62h6M70 62h6M13 63h9M28 63h6M55 63h9M67 63h15M13 64h9M28 64h6M55 64h9M67 64h15M13 65h9M28 65h6M55 65h9M67 65h15M13 66h12M28 66h9M55 66h6M70 66h12M13 67h12M28 67h9M55 67h6M70 67h12M13 68h12M28 68h9M55 68h6M70 68h12M31 69h3M85 69h3M31 70h3M85 70h3M31 71h3M85 71h3M25 72h12M55 72h6M85 72h6M25 73h12M55 73h6M85 73h6M25 74h12M55 74h6M85 74h6M22 75h3M31 75h6M58 75h3M85 75h3M22 76h3M31 76h6M58 76h3M85 76h3M22 77h3M31 77h6M58 77h3M85 77h3M34 78h3M34 79h3M34 80h3"/>
                        <path stroke="#ffffff"
                              d="M37 30h3M37 31h3M37 32h3M91 72h3M91 73h3M91 74h3M88 75h9M88 76h9M88 77h9"/>
                        <path stroke="#0086ff" d="M40 30h3M40 31h3M40 32h3"/>
                        <path stroke="#ffdf00"
                              d="M67 33h3M67 34h3M67 35h3M64 36h3M70 36h6M64 37h3M70 37h6M64 38h3M70 38h6M64 39h3M70 39h3M76 39h3M64 40h3M70 40h3M76 40h3M64 41h3M70 41h3M76 41h3M64 42h3M70 42h3M76 42h3M64 43h3M70 43h3M76 43h3M64 44h3M70 44h3M76 44h3M64 45h3M70 45h6M64 46h3M70 46h6M64 47h3M70 47h6M67 48h3M67 49h3M67 50h3"/>
                        <path stroke="#f0e4bf"
                              d="M25 42h3M40 42h3M25 43h3M40 43h3M25 44h3M40 44h3M22 57h3M28 57h3M49 57h3M55 57h3M61 57h3M22 58h3M28 58h3M49 58h3M55 58h3M61 58h3M22 59h3M28 59h3M49 59h3M55 59h3M61 59h3M16 78h6M25 78h6M52 78h6M61 78h3M16 79h6M25 79h6M52 79h6M61 79h3M16 80h6M25 80h6M52 80h6M61 80h3"/>
                        <path stroke="#7f7f7f"
                              d="M22 54h3M28 54h3M49 54h3M55 54h3M61 54h3M22 55h3M28 55h3M49 55h3M55 55h3M61 55h3M22 56h3M28 56h3M49 56h3M55 56h3M61 56h3"/>
                        <path stroke="#ff3900"
                              d="M40 66h12M40 67h12M40 68h12M40 69h9M40 70h9M40 71h9M40 72h9M40 73h9M40 74h9M40 75h9M40 76h9M40 77h9"/>
                    </g>
                </g>
                <g id="walking-[[${id}]]">
                    <g id="frame3-[[${id}]]">
                        <path stroke="#000000"
                              d="M13 0h6M67 0h6M13 1h6M67 1h6M13 2h6M67 2h6M7 3h6M19 3h6M34 3h6M46 3h6M61 3h6M73 3h6M7 4h6M19 4h6M34 4h6M46 4h6M61 4h6M73 4h6M7 5h6M19 5h6M34 5h6M46 5h6M61 5h6M73 5h6M7 6h3M22 6h3M31 6h3M37 6h3M46 6h3M52 6h3M61 6h3M76 6h3M7 7h3M22 7h3M31 7h3M37 7h3M46 7h3M52 7h3M61 7h3M76 7h3M7 8h3M22 8h3M31 8h3M37 8h3M46 8h3M52 8h3M61 8h3M76 8h3M4 9h3M25 9h6M34 9h18M55 9h6M79 9h3M4 10h3M25 10h6M34 10h18M55 10h6M79 10h3M4 11h3M25 11h6M34 11h18M55 11h6M79 11h3M4 12h3M25 12h6M34 12h3M49 12h3M55 12h6M79 12h3M4 13h3M25 13h6M34 13h3M49 13h3M55 13h6M79 13h3M4 14h3M25 14h6M34 14h3M49 14h3M55 14h6M79 14h3M7 15h3M22 15h3M28 15h6M46 15h3M55 15h9M76 15h3M7 16h3M22 16h3M28 16h6M46 16h3M55 16h9M76 16h3M7 17h3M22 17h3M28 17h6M46 17h3M55 17h9M76 17h3M7 18h6M19 18h6M28 18h6M37 18h18M61 18h6M73 18h6M7 19h6M19 19h6M28 19h6M37 19h18M61 19h6M73 19h6M7 20h6M19 20h6M28 20h6M37 20h18M61 20h6M73 20h6M13 21h6M22 21h6M31 21h6M49 21h3M55 21h18M13 22h6M22 22h6M31 22h6M49 22h3M55 22h18M13 23h6M22 23h6M31 23h6M49 23h3M55 23h18M22 24h6M40 24h9M52 24h3M64 24h6M73 24h3M22 25h6M40 25h9M52 25h3M64 25h6M73 25h3M22 26h6M40 26h9M52 26h3M64 26h6M73 26h3M19 27h12M34 27h3M43 27h3M61 27h18M19 28h12M34 28h3M43 28h3M61 28h18M19 29h12M34 29h3M43 29h3M61 29h18M19 30h9M55 30h6M64 30h3M76 30h6M19 31h9M55 31h6M64 31h3M76 31h6M19 32h9M55 32h6M64 32h3M76 32h6M16 33h3M22 33h3M46 33h3M52 33h3M61 33h3M79 33h6M16 34h3M22 34h3M46 34h3M52 34h3M61 34h3M79 34h6M16 35h3M22 35h3M46 35h3M52 35h3M61 35h3M79 35h6M16 36h3M22 36h27M52 36h3M61 36h3M79 36h6M16 37h3M22 37h27M52 37h3M61 37h3M79 37h6M16 38h3M22 38h27M52 38h3M61 38h3M79 38h6M16 39h3M22 39h3M28 39h3M37 39h3M43 39h3M49 39h3M61 39h3M79 39h3M16 40h3M22 40h3M28 40h3M37 40h3M43 40h3M49 40h3M61 40h3M79 40h3M16 41h3M22 41h3M28 41h3M37 41h3M43 41h3M49 41h3M61 41h3M79 41h3M16 42h3M25 42h6M40 42h6M49 42h3M61 42h3M79 42h3M16 43h3M25 43h6M40 43h6M49 43h3M61 43h3M79 43h3M16 44h3M25 44h6M40 44h6M49 44h3M61 44h3M79 44h3M16 45h6M28 45h6M49 45h3M64 45h3M76 45h6M16 46h6M28 46h6M49 46h3M64 46h3M76 46h6M16 47h6M28 47h6M49 47h3M64 47h3M76 47h6M13 48h9M28 48h3M46 48h3M67 48h9M82 48h3M13 49h9M28 49h3M46 49h3M67 49h9M82 49h3M13 50h9M28 50h3M46 50h3M67 50h9M82 50h3M13 51h3M19 51h3M31 51h3M46 51h3M64 51h12M82 51h3M13 52h3M19 52h3M31 52h3M46 52h3M64 52h12M82 52h3M13 53h3M19 53h3M31 53h3M46 53h3M64 53h12M82 53h3M10 54h3M19 54h3M25 54h3M31 54h3M46 54h3M52 54h3M58 54h3M64 54h3M70 54h3M85 54h3M10 55h3M19 55h3M25 55h3M31 55h3M46 55h3M52 55h3M58 55h3M64 55h3M70 55h3M85 55h3M10 56h3M19 56h3M25 56h3M31 56h3M46 56h3M52 56h3M58 56h3M64 56h3M70 56h3M85 56h3M10 57h3M19 57h15M49 57h18M70 57h3M85 57h3M10 58h3M19 58h15M49 58h18M70 58h3M85 58h3M10 59h3M19 59h15M49 59h18M70 59h3M85 59h3M7 60h3M19 60h6M28 60h3M34 60h21M64 60h6M85 60h3M7 61h3M19 61h6M28 61h3M34 61h21M64 61h6M85 61h3M7 62h3M19 62h6M28 62h3M34 62h21M64 62h6M85 62h3M7 63h3M25 63h3M34 63h3M52 63h3M64 63h3M85 63h3M7 64h3M25 64h3M34 64h3M52 64h3M64 64h3M85 64h3M7 65h3M25 65h3M34 65h3M52 65h3M64 65h3M85 65h3M7 66h3M25 66h3M37 66h3M52 66h6M64 66h3M85 66h3M7 67h3M25 67h3M37 67h3M52 67h6M64 67h3M85 67h3M7 68h3M25 68h3M37 68h3M52 68h6M64 68h3M85 68h3M7 69h3M19 69h3M25 69h6M37 69h3M49 69h3M64 69h3M70 69h3M85 69h9M7 70h3M19 70h3M25 70h6M37 70h3M49 70h3M64 70h3M70 70h3M85 70h9M7 71h3M19 71h3M25 71h6M37 71h3M49 71h3M64 71h3M70 71h3M85 71h9M7 72h3M22 72h6M37 72h3M49 72h6M58 72h6M67 72h3M82 72h3M94 72h3M7 73h3M22 73h6M37 73h3M49 73h6M58 73h6M67 73h3M82 73h3M94 73h3M7 74h3M22 74h6M37 74h3M49 74h6M58 74h6M67 74h3M82 74h3M94 74h3M10 75h15M28 75h6M37 75h3M46 75h3M55 75h3M64 75h3M70 75h15M97 75h3M10 76h15M28 76h6M37 76h3M46 76h3M55 76h3M64 76h3M70 76h15M97 76h3M10 77h15M28 77h6M37 77h3M46 77h3M55 77h3M64 77h3M70 77h15M97 77h3M16 78h3M25 78h3M34 78h42M85 78h15M16 79h3M25 79h3M34 79h42M85 79h15M16 80h3M25 80h3M34 80h42M85 80h15M16 81h30M16 82h30M16 83h30"/>
                        <path stroke="#688478"
                              d="M13 3h6M67 3h6M13 4h6M67 4h6M13 5h6M67 5h6M10 6h12M34 6h3M49 6h3M64 6h12M10 7h12M34 7h3M49 7h3M64 7h12M10 8h12M34 8h3M49 8h3M64 8h12M7 9h12M22 9h3M31 9h3M52 9h3M61 9h12M76 9h3M7 10h12M22 10h3M31 10h3M52 10h3M61 10h12M76 10h3M7 11h12M22 11h3M31 11h3M52 11h3M61 11h12M76 11h3M7 12h3M13 12h3M19 12h3M31 12h3M52 12h3M61 12h3M67 12h3M73 12h3M7 13h3M13 13h3M19 13h3M31 13h3M52 13h3M61 13h3M67 13h3M73 13h3M7 14h3M13 14h3M19 14h3M31 14h3M52 14h3M61 14h3M67 14h3M73 14h3M10 15h3M16 15h3M49 15h6M64 15h3M70 15h3M10 16h3M16 16h3M49 16h6M64 16h3M70 16h3M10 17h3M16 17h3M49 17h6M64 17h3M70 17h3M13 18h3M67 18h3M13 19h3M67 19h3M13 20h3M67 20h3M70 30h6M70 31h6M70 32h6M67 33h3M76 33h3M67 34h3M76 34h3M67 35h3M76 35h3M67 36h3M73 36h3M67 37h3M73 37h3M67 38h3M73 38h3M67 39h3M73 39h3M67 40h3M73 40h3M67 41h3M73 41h3M67 42h3M76 42h3M67 43h3M76 43h3M67 44h3M76 44h3M70 45h6M70 46h6M70 47h6"/>
                        <path stroke="#404040"
                              d="M19 9h3M73 9h3M19 10h3M73 10h3M19 11h3M73 11h3M10 12h3M16 12h3M22 12h3M37 12h3M64 12h3M70 12h3M76 12h3M10 13h3M16 13h3M22 13h3M37 13h3M64 13h3M70 13h3M76 13h3M10 14h3M16 14h3M22 14h3M37 14h3M64 14h3M70 14h3M76 14h3M13 15h3M19 15h3M25 15h3M34 15h12M67 15h3M73 15h3M13 16h3M19 16h3M25 16h3M34 16h12M67 16h3M73 16h3M13 17h3M19 17h3M25 17h3M34 17h12M67 17h3M73 17h3M16 18h3M25 18h3M34 18h3M70 18h3M16 19h3M25 19h3M34 19h3M70 19h3M16 20h3M25 20h3M34 20h3M70 20h3M52 21h3M52 22h3M52 23h3M46 27h3M46 28h3M46 29h3M37 30h9M37 31h9M37 32h9M28 33h3M28 34h3M28 35h3M46 45h3M46 46h3M46 47h3M31 48h3M40 48h6M76 48h6M31 49h3M40 49h6M76 49h6M31 50h3M40 50h6M76 50h6M34 51h6M34 52h6M34 53h6M13 54h3M37 54h6M73 54h9M13 55h3M37 55h6M73 55h9M13 56h3M37 56h6M73 56h9M13 57h6M34 57h3M43 57h6M79 57h6M13 58h6M34 58h3M43 58h6M79 58h6M13 59h6M34 59h3M43 59h6M79 59h6M22 63h3M40 63h3M46 63h6M67 63h6M22 64h3M40 64h3M46 64h6M67 64h6M22 65h3M40 65h3M46 65h6M67 65h6M10 66h15M67 66h18M10 67h15M67 67h18M10 68h15M67 68h18M10 69h9M22 69h3M67 69h3M73 69h12M10 70h9M22 70h3M67 70h3M73 70h12M10 71h9M22 71h3M67 71h3M73 71h12M10 72h12M70 72h12M10 73h12M70 73h12M10 74h12M70 74h12"/>
                        <path stroke="#ff0000" d="M40 12h9M40 13h9M40 14h9"/>
                        <path stroke="#dfa91a"
                              d="M55 18h6M55 19h6M55 20h6M70 24h3M70 25h3M70 26h3M61 30h3M61 31h3M61 32h3M19 33h3M55 33h6M19 34h3M55 34h6M19 35h3M55 35h6M19 36h3M55 36h6M19 37h3M55 37h6M19 38h3M55 38h6M19 39h3M52 39h9M19 40h3M52 40h9M19 41h3M52 41h9M19 42h6M52 42h9M19 43h6M52 43h9M19 44h6M52 44h9M22 45h6M52 45h12M22 46h6M52 46h12M22 47h6M52 47h12M22 48h6M49 48h18M22 49h6M49 49h18M22 50h6M49 50h18M25 51h3M52 51h3M58 51h3M25 52h3M52 52h3M58 52h3M25 53h3M52 53h3M58 53h3"/>
                        <path stroke="#e6e9ec"
                              d="M28 21h3M37 21h12M28 22h3M37 22h12M28 23h3M37 23h12M28 24h12M49 24h3M55 24h9M28 25h12M49 25h3M55 25h9M28 26h12M49 26h3M55 26h9M31 27h3M49 27h12M31 28h3M49 28h12M31 29h3M49 29h12M28 30h9M46 30h9M28 31h9M46 31h9M28 32h9M46 32h9M25 33h3M31 33h15M49 33h3M25 34h3M31 34h15M49 34h3M25 35h3M31 35h15M49 35h3M49 36h3M49 37h3M49 38h3M31 39h6M46 39h3M31 40h6M46 40h3M31 41h6M46 41h3M31 42h9M46 42h3M31 43h9M46 43h3M31 44h9M46 44h3M34 45h12M34 46h12M34 47h12M34 48h6M34 49h6M34 50h6M16 51h3M40 51h6M76 51h6M16 52h3M40 52h6M76 52h6M16 53h3M40 53h6M76 53h6M16 54h3M34 54h3M43 54h3M82 54h3M16 55h3M34 55h3M43 55h3M82 55h3M16 56h3M34 56h3M43 56h3M82 56h3M37 57h6M73 57h6M37 58h6M73 58h6M37 59h6M73 59h6M10 60h9M31 60h3M55 60h9M70 60h15M10 61h9M31 61h3M55 61h9M70 61h15M10 62h9M31 62h3M55 62h9M70 62h15M10 63h12M28 63h6M55 63h9M73 63h12M10 64h12M28 64h6M55 64h9M73 64h12M10 65h12M28 65h6M55 65h9M73 65h12M28 66h9M58 66h6M28 67h9M58 67h6M28 68h9M58 68h6M31 69h6M52 69h12M31 70h6M52 70h12M31 71h6M52 71h12M28 72h9M55 72h3M64 72h3M85 72h6M28 73h9M55 73h3M64 73h3M85 73h6M28 74h9M55 74h3M64 74h3M85 74h6M25 75h3M34 75h3M85 75h3M25 76h3M34 76h3M85 76h3M25 77h3M34 77h3M85 77h3"/>
                        <path stroke="#ffffff"
                              d="M37 27h3M37 28h3M37 29h3M91 72h3M91 73h3M91 74h3M88 75h9M88 76h9M88 77h9"/>
                        <path stroke="#0086ff" d="M40 27h3M40 28h3M40 29h3"/>
                        <path stroke="#ffdf00"
                              d="M67 30h3M67 31h3M67 32h3M64 33h3M70 33h6M64 34h3M70 34h6M64 35h3M70 35h6M64 36h3M70 36h3M76 36h3M64 37h3M70 37h3M76 37h3M64 38h3M70 38h3M76 38h3M64 39h3M70 39h3M76 39h3M64 40h3M70 40h3M76 40h3M64 41h3M70 41h3M76 41h3M64 42h3M70 42h6M64 43h3M70 43h6M64 44h3M70 44h6M67 45h3M67 46h3M67 47h3"/>
                        <path stroke="#f0e4bf"
                              d="M25 39h3M40 39h3M25 40h3M40 40h3M25 41h3M40 41h3M22 54h3M28 54h3M49 54h3M55 54h3M61 54h3M22 55h3M28 55h3M49 55h3M55 55h3M61 55h3M22 56h3M28 56h3M49 56h3M55 56h3M61 56h3M49 75h6M58 75h6M67 75h3M49 76h6M58 76h6M67 76h3M49 77h6M58 77h6M67 77h3M19 78h6M28 78h6M19 79h6M28 79h6M19 80h6M28 80h6"/>
                        <path stroke="#7f7f7f"
                              d="M22 51h3M28 51h3M49 51h3M55 51h3M61 51h3M22 52h3M28 52h3M49 52h3M55 52h3M61 52h3M22 53h3M28 53h3M49 53h3M55 53h3M61 53h3"/>
                        <path stroke="#c3c3c3" d="M37 63h3M43 63h3M37 64h3M43 64h3M37 65h3M43 65h3"/>
                        <path stroke="#ff3900"
                              d="M40 66h12M40 67h12M40 68h12M40 69h9M40 70h9M40 71h9M40 72h9M40 73h9M40 74h9M40 75h6M40 76h6M40 77h6"/>
                    </g>
                    <g id="frame4-[[${id}]]">
                        <path stroke="#000000"
                              d="M13 0h6M67 0h6M13 1h6M67 1h6M13 2h6M67 2h6M7 3h6M19 3h6M34 3h6M46 3h6M61 3h6M73 3h6M7 4h6M19 4h6M34 4h6M46 4h6M61 4h6M73 4h6M7 5h6M19 5h6M34 5h6M46 5h6M61 5h6M73 5h6M7 6h3M22 6h3M31 6h3M37 6h3M46 6h3M52 6h3M61 6h3M76 6h3M7 7h3M22 7h3M31 7h3M37 7h3M46 7h3M52 7h3M61 7h3M76 7h3M7 8h3M22 8h3M31 8h3M37 8h3M46 8h3M52 8h3M61 8h3M76 8h3M4 9h3M25 9h6M34 9h18M55 9h6M79 9h3M4 10h3M25 10h6M34 10h18M55 10h6M79 10h3M4 11h3M25 11h6M34 11h18M55 11h6M79 11h3M4 12h3M25 12h6M34 12h3M49 12h3M55 12h6M79 12h3M4 13h3M25 13h6M34 13h3M49 13h3M55 13h6M79 13h3M4 14h3M25 14h6M34 14h3M49 14h3M55 14h6M79 14h3M7 15h3M22 15h3M28 15h6M46 15h3M55 15h9M76 15h3M7 16h3M22 16h3M28 16h6M46 16h3M55 16h9M76 16h3M7 17h3M22 17h3M28 17h6M46 17h3M55 17h9M76 17h3M7 18h6M19 18h6M28 18h6M37 18h18M61 18h6M73 18h6M7 19h6M19 19h6M28 19h6M37 19h18M61 19h6M73 19h6M7 20h6M19 20h6M28 20h6M37 20h18M61 20h6M73 20h6M13 21h6M22 21h6M31 21h6M49 21h3M55 21h18M13 22h6M22 22h6M31 22h6M49 22h3M55 22h18M13 23h6M22 23h6M31 23h6M49 23h3M55 23h18M22 24h6M40 24h9M52 24h3M64 24h6M73 24h3M22 25h6M40 25h9M52 25h3M64 25h6M73 25h3M22 26h6M40 26h9M52 26h3M64 26h6M73 26h3M19 27h12M34 27h3M43 27h3M61 27h18M19 28h12M34 28h3M43 28h3M61 28h18M19 29h12M34 29h3M43 29h3M61 29h18M19 30h9M55 30h6M64 30h3M76 30h6M19 31h9M55 31h6M64 31h3M76 31h6M19 32h9M55 32h6M64 32h3M76 32h6M16 33h3M22 33h3M46 33h3M52 33h3M61 33h3M79 33h6M16 34h3M22 34h3M46 34h3M52 34h3M61 34h3M79 34h6M16 35h3M22 35h3M46 35h3M52 35h3M61 35h3M79 35h6M16 36h3M22 36h27M52 36h3M61 36h3M79 36h6M16 37h3M22 37h27M52 37h3M61 37h3M79 37h6M16 38h3M22 38h27M52 38h3M61 38h3M79 38h6M16 39h3M22 39h3M28 39h3M37 39h3M43 39h3M49 39h3M61 39h3M79 39h3M16 40h3M22 40h3M28 40h3M37 40h3M43 40h3M49 40h3M61 40h3M79 40h3M16 41h3M22 41h3M28 41h3M37 41h3M43 41h3M49 41h3M61 41h3M79 41h3M16 42h3M25 42h6M40 42h6M49 42h3M61 42h3M79 42h3M16 43h3M25 43h6M40 43h6M49 43h3M61 43h3M79 43h3M16 44h3M25 44h6M40 44h6M49 44h3M61 44h3M79 44h3M16 45h6M28 45h6M49 45h3M64 45h3M76 45h6M16 46h6M28 46h6M49 46h3M64 46h3M76 46h6M16 47h6M28 47h6M49 47h3M64 47h3M76 47h6M16 48h6M28 48h3M46 48h3M67 48h9M79 48h3M16 49h6M28 49h3M46 49h3M67 49h9M79 49h3M16 50h6M28 50h3M46 50h3M67 50h9M79 50h3M16 51h6M31 51h3M46 51h3M64 51h12M79 51h3M16 52h6M31 52h3M46 52h3M64 52h12M79 52h3M16 53h6M31 53h3M46 53h3M64 53h12M79 53h3M13 54h3M19 54h3M25 54h3M31 54h3M46 54h3M52 54h3M58 54h3M64 54h6M82 54h3M13 55h3M19 55h3M25 55h3M31 55h3M46 55h3M52 55h3M58 55h3M64 55h6M82 55h3M13 56h3M19 56h3M25 56h3M31 56h3M46 56h3M52 56h3M58 56h3M64 56h6M82 56h3M13 57h3M19 57h15M49 57h21M82 57h3M13 58h3M19 58h15M49 58h21M82 58h3M13 59h3M19 59h15M49 59h21M82 59h3M10 60h3M19 60h6M28 60h3M34 60h21M64 60h3M82 60h3M10 61h3M19 61h6M28 61h3M34 61h21M64 61h3M82 61h3M10 62h3M19 62h6M28 62h3M34 62h21M64 62h3M82 62h3M10 63h3M25 63h3M34 63h3M52 63h3M61 63h3M82 63h3M10 64h3M25 64h3M34 64h3M52 64h3M61 64h3M82 64h3M10 65h3M25 65h3M34 65h3M52 65h3M61 65h3M82 65h3M10 66h3M25 66h6M34 66h6M52 66h3M61 66h3M82 66h3M10 67h3M25 67h6M34 67h6M52 67h3M61 67h3M82 67h3M10 68h3M25 68h6M34 68h6M52 68h3M61 68h3M82 68h3M10 69h3M22 69h3M37 69h3M49 69h15M67 69h3M82 69h12M10 70h3M22 70h3M37 70h3M49 70h15M67 70h3M82 70h12M10 71h3M22 71h3M37 71h3M49 71h15M67 71h3M82 71h12M10 72h12M25 72h6M37 72h3M49 72h6M64 72h3M79 72h3M94 72h3M10 73h12M25 73h6M37 73h3M49 73h6M64 73h3M79 73h3M94 73h3M10 74h12M25 74h6M37 74h3M49 74h6M64 74h3M79 74h3M94 74h3M13 75h3M22 75h3M31 75h3M37 75h3M49 75h9M61 75h24M97 75h3M13 76h3M22 76h3M31 76h3M37 76h3M49 76h9M61 76h24M97 76h3M13 77h3M22 77h3M31 77h3M37 77h3M49 77h9M61 77h24M97 77h3M13 78h39M58 78h3M67 78h3M76 78h3M85 78h15M13 79h39M58 79h3M67 79h3M76 79h3M85 79h15M13 80h39M58 80h3M67 80h3M76 80h3M85 80h15M49 81h30M49 82h30M49 83h30"/>
                        <path stroke="#688478"
                              d="M13 3h6M67 3h6M13 4h6M67 4h6M13 5h6M67 5h6M10 6h12M34 6h3M49 6h3M64 6h12M10 7h12M34 7h3M49 7h3M64 7h12M10 8h12M34 8h3M49 8h3M64 8h12M7 9h12M22 9h3M31 9h3M52 9h3M61 9h12M76 9h3M7 10h12M22 10h3M31 10h3M52 10h3M61 10h12M76 10h3M7 11h12M22 11h3M31 11h3M52 11h3M61 11h12M76 11h3M7 12h3M13 12h3M19 12h3M31 12h3M52 12h3M61 12h3M67 12h3M73 12h3M7 13h3M13 13h3M19 13h3M31 13h3M52 13h3M61 13h3M67 13h3M73 13h3M7 14h3M13 14h3M19 14h3M31 14h3M52 14h3M61 14h3M67 14h3M73 14h3M10 15h3M16 15h3M49 15h6M64 15h3M70 15h3M10 16h3M16 16h3M49 16h6M64 16h3M70 16h3M10 17h3M16 17h3M49 17h6M64 17h3M70 17h3M13 18h3M67 18h3M13 19h3M67 19h3M13 20h3M67 20h3M70 30h6M70 31h6M70 32h6M67 33h3M76 33h3M67 34h3M76 34h3M67 35h3M76 35h3M67 36h3M73 36h3M67 37h3M73 37h3M67 38h3M73 38h3M67 39h3M73 39h3M67 40h3M73 40h3M67 41h3M73 41h3M67 42h3M76 42h3M67 43h3M76 43h3M67 44h3M76 44h3M70 45h6M70 46h6M70 47h6"/>
                        <path stroke="#404040"
                              d="M19 9h3M73 9h3M19 10h3M73 10h3M19 11h3M73 11h3M10 12h3M16 12h3M22 12h3M37 12h3M64 12h3M70 12h3M76 12h3M10 13h3M16 13h3M22 13h3M37 13h3M64 13h3M70 13h3M76 13h3M10 14h3M16 14h3M22 14h3M37 14h3M64 14h3M70 14h3M76 14h3M13 15h3M19 15h3M25 15h3M34 15h12M67 15h3M73 15h3M13 16h3M19 16h3M25 16h3M34 16h12M67 16h3M73 16h3M13 17h3M19 17h3M25 17h3M34 17h12M67 17h3M73 17h3M16 18h3M25 18h3M34 18h3M70 18h3M16 19h3M25 19h3M34 19h3M70 19h3M16 20h3M25 20h3M34 20h3M70 20h3M52 21h3M52 22h3M52 23h3M46 27h3M46 28h3M46 29h3M37 30h9M37 31h9M37 32h9M28 33h3M28 34h3M28 35h3M46 45h3M46 46h3M46 47h3M31 48h3M40 48h6M76 48h3M31 49h3M40 49h6M76 49h3M31 50h3M40 50h6M76 50h3M34 51h6M34 52h6M34 53h6M16 54h3M37 54h6M70 54h9M16 55h3M37 55h6M70 55h9M16 56h3M37 56h6M70 56h9M16 57h3M34 57h3M43 57h6M76 57h6M16 58h3M34 58h3M43 58h6M76 58h6M16 59h3M34 59h3M43 59h6M76 59h6M40 63h3M46 63h6M64 63h6M40 64h3M46 64h6M64 64h6M40 65h3M46 65h6M64 65h6M13 66h12M64 66h18M13 67h12M64 67h18M13 68h12M64 68h18M13 69h9M64 69h3M70 69h12M13 70h9M64 70h3M70 70h12M13 71h9M64 71h3M70 71h12M67 72h12M67 73h12M67 74h12"/>
                        <path stroke="#ff0000" d="M40 12h9M40 13h9M40 14h9"/>
                        <path stroke="#dfa91a"
                              d="M55 18h6M55 19h6M55 20h6M70 24h3M70 25h3M70 26h3M61 30h3M61 31h3M61 32h3M19 33h3M55 33h6M19 34h3M55 34h6M19 35h3M55 35h6M19 36h3M55 36h6M19 37h3M55 37h6M19 38h3M55 38h6M19 39h3M52 39h9M19 40h3M52 40h9M19 41h3M52 41h9M19 42h6M52 42h9M19 43h6M52 43h9M19 44h6M52 44h9M22 45h6M52 45h12M22 46h6M52 46h12M22 47h6M52 47h12M22 48h6M49 48h18M22 49h6M49 49h18M22 50h6M49 50h18M25 51h3M52 51h3M58 51h3M25 52h3M52 52h3M58 52h3M25 53h3M52 53h3M58 53h3"/>
                        <path stroke="#e6e9ec"
                              d="M28 21h3M37 21h12M28 22h3M37 22h12M28 23h3M37 23h12M28 24h12M49 24h3M55 24h9M28 25h12M49 25h3M55 25h9M28 26h12M49 26h3M55 26h9M31 27h3M49 27h12M31 28h3M49 28h12M31 29h3M49 29h12M28 30h9M46 30h9M28 31h9M46 31h9M28 32h9M46 32h9M25 33h3M31 33h15M49 33h3M25 34h3M31 34h15M49 34h3M25 35h3M31 35h15M49 35h3M49 36h3M49 37h3M49 38h3M31 39h6M46 39h3M31 40h6M46 40h3M31 41h6M46 41h3M31 42h9M46 42h3M31 43h9M46 43h3M31 44h9M46 44h3M34 45h12M34 46h12M34 47h12M34 48h6M34 49h6M34 50h6M40 51h6M76 51h3M40 52h6M76 52h3M40 53h6M76 53h3M34 54h3M43 54h3M79 54h3M34 55h3M43 55h3M79 55h3M34 56h3M43 56h3M79 56h3M37 57h6M70 57h6M37 58h6M70 58h6M37 59h6M70 59h6M13 60h6M31 60h3M55 60h9M67 60h15M13 61h6M31 61h3M55 61h9M67 61h15M13 62h6M31 62h3M55 62h9M67 62h15M13 63h12M28 63h6M55 63h6M70 63h12M13 64h12M28 64h6M55 64h6M70 64h12M13 65h12M28 65h6M55 65h6M70 65h12M31 66h3M55 66h6M31 67h3M55 67h6M31 68h3M55 68h6M25 69h12M25 70h12M25 71h12M22 72h3M31 72h6M55 72h9M82 72h9M22 73h3M31 73h6M55 73h9M82 73h9M22 74h3M31 74h6M55 74h9M82 74h9M34 75h3M58 75h3M85 75h3M34 76h3M58 76h3M85 76h3M34 77h3M58 77h3M85 77h3"/>
                        <path stroke="#ffffff"
                              d="M37 27h3M37 28h3M37 29h3M91 72h3M91 73h3M91 74h3M88 75h9M88 76h9M88 77h9"/>
                        <path stroke="#0086ff" d="M40 27h3M40 28h3M40 29h3"/>
                        <path stroke="#ffdf00"
                              d="M67 30h3M67 31h3M67 32h3M64 33h3M70 33h6M64 34h3M70 34h6M64 35h3M70 35h6M64 36h3M70 36h3M76 36h3M64 37h3M70 37h3M76 37h3M64 38h3M70 38h3M76 38h3M64 39h3M70 39h3M76 39h3M64 40h3M70 40h3M76 40h3M64 41h3M70 41h3M76 41h3M64 42h3M70 42h6M64 43h3M70 43h6M64 44h3M70 44h6M67 45h3M67 46h3M67 47h3"/>
                        <path stroke="#f0e4bf"
                              d="M25 39h3M40 39h3M25 40h3M40 40h3M25 41h3M40 41h3M22 54h3M28 54h3M49 54h3M55 54h3M61 54h3M22 55h3M28 55h3M49 55h3M55 55h3M61 55h3M22 56h3M28 56h3M49 56h3M55 56h3M61 56h3M16 75h6M25 75h6M16 76h6M25 76h6M16 77h6M25 77h6M52 78h6M61 78h6M70 78h6M52 79h6M61 79h6M70 79h6M52 80h6M61 80h6M70 80h6"/>
                        <path stroke="#7f7f7f"
                              d="M22 51h3M28 51h3M49 51h3M55 51h3M61 51h3M22 52h3M28 52h3M49 52h3M55 52h3M61 52h3M22 53h3M28 53h3M49 53h3M55 53h3M61 53h3"/>
                        <path stroke="#c3c3c3" d="M37 63h3M43 63h3M37 64h3M43 64h3M37 65h3M43 65h3"/>
                        <path stroke="#ff3900"
                              d="M40 66h12M40 67h12M40 68h12M40 69h9M40 70h9M40 71h9M40 72h9M40 73h9M40 74h9M40 75h9M40 76h9M40 77h9"/>
                    </g>
                </g>
            </svg>
            <svg viewBox="0 0 100 30" width="100" height="30" x="0" y="0">
                <g id="username-[[${id}]]">
                    <rect x="0" y="0" width="100" height="20" fill="black" fill-opacity="0.8" rx="5"/>
                    <svg x="4" y="2.5" width="15" height="15" viewBox="0 0 100 100">
                        <path fill-rule="evenodd" clip-rule="evenodd"
                              d="M48.854 0C21.839 0 0 22 0 49.217c0 21.756 13.993 40.172 33.405 46.69 2.427.49 3.316-1.059 3.316-2.362 0-1.141-.08-5.052-.08-9.127-13.59 2.934-16.42-5.867-16.42-5.867-2.184-5.704-5.42-7.17-5.42-7.17-4.448-3.015.324-3.015.324-3.015 4.934.326 7.523 5.052 7.523 5.052 4.367 7.496 11.404 5.378 14.235 4.074.404-3.178 1.699-5.378 3.074-6.6-10.839-1.141-22.243-5.378-22.243-24.283 0-5.378 1.94-9.778 5.014-13.2-.485-1.222-2.184-6.275.486-13.038 0 0 4.125-1.304 13.426 5.052a46.97 46.97 0 0 1 12.214-1.63c4.125 0 8.33.571 12.213 1.63 9.302-6.356 13.427-5.052 13.427-5.052 2.67 6.763.97 11.816.485 13.038 3.155 3.422 5.015 7.822 5.015 13.2 0 18.905-11.404 23.06-22.324 24.283 1.78 1.548 3.316 4.481 3.316 9.126 0 6.6-.08 11.897-.08 13.526 0 1.304.89 2.853 3.316 2.364 19.412-6.52 33.405-24.935 33.405-46.691C97.707 22 75.788 0 48.854 0z"
                              fill="#fff"/>
                    </svg>
                    <text x="25" y="11" dominant-baseline="middle" style="fill:white" font-size="13">
                        [[${#strings.abbreviate(username, 12)}]]
                    </text>
                    <rect x="0" y="23" width="[[${exp}]]" height="2" fill="#48ff00" rx="1"/>
                </g>
            </svg>
        </g>
    </a>
    <style>
        #frame1-[[${id}]] {
        animation: 1s frameToggle infinite;
        }
        #frame2-[[${id}]] {
        animation: 1s frameToggle infinite reverse;
        }
        #frame3-[[${id}]] {
        animation: 1s frameToggle infinite;
        }
        #frame4-[[${id}]] {
        animation: 1s frameToggle infinite reverse;
        }
        #standing-[[${id}]] {
        animation: standingToggle [[${motion.duration}]]s infinite;
        }
        #walking-[[${id}]] {
        animation: walkingToggle [[${motion.duration}]]s infinite;
        }
        #body-[[${id}]] {
        animation: move-body-[[${id}]] [[${motion.duration}]]s infinite;
        }
        #username-[[${id}]] {
        animation: move-username-[[${id}]] [[${motion.duration}]]s infinite;
        }
        @keyframes move-body-[[${id}]] {
        0%, 10% {
        transform: translate([[${motion.positions[0].x}]]%, [[${y}]]%) scaleX([[${motion.positions[0].direction}]]);
        }
        20%, 30% {
        transform: translate([[${motion.positions[1].x}]]%, [[${y}]]%) scaleX([[${motion.positions[1].direction}]]);
        }
        40%, 50% {
        transform: translate([[${motion.positions[2].x}]]%, [[${y}]]%) scaleX([[${motion.positions[2].direction}]]);
        }
        50.01% {
        transform: translate([[${motion.positions[3].x}]]%, [[${y}]]%) scaleX([[${motion.positions[3].direction}]]);
        }
        60%, 70% {
        transform: translate([[${motion.positions[4].x}]]%, [[${y}]]%) scaleX([[${motion.positions[4].direction}]]);
        }
        80%, 100% {
        transform: translate([[${motion.positions[5].x}]]%, [[${y}]]%) scaleX([[${motion.positions[5].direction}]]);
        }
        }
        @keyframes move-username-[[${id}]] {
        0%, 10% {
        transform: scaleX([[${motion.positions[0].direction}]])
        translateX([[${motion.positions[0].direction > 0 ? 0: -100}]]%);
        }
        20%, 30% {
        transform: scaleX([[${motion.positions[1].direction}]])
        translateX([[${motion.positions[1].direction > 0 ? 0: -100}]]%);
        }
        40%, 50% {
        transform: scaleX([[${motion.positions[2].direction}]])
        translateX([[${motion.positions[2].direction > 0 ? 0: -100}]]%);
        }
        50.01% {
        transform: scaleX([[${motion.positions[3].direction}]])
        translateX([[${motion.positions[3].direction > 0 ? 0: -100}]]%);
        }
        60%, 70% {
        transform: scaleX([[${motion.positions[4].direction}]])
        translateX([[${motion.positions[4].direction > 0 ? 0: -100}]]%);
        }
        80%, 100% {
        transform: scaleX([[${motion.positions[5].direction}]])
        translateX([[${motion.positions[5].direction > 0 ? 0: -100}]]%);
        }
        }
    </style>
</svg>
