<svg fill="none" overflow="visible" xmlns="http://www.w3.org/2000/svg">
    <a href="https://github.com/[[${username}]]">
        <g id="body-[[${id}]]">
            <g id="standing-[[${id}]]">
                <g id="frame1-[[${id}]]">
                    <path stroke="#000000"
                          d="M27 18h6M51 18h6M27 19h6M51 19h6M27 20h6M51 20h6M27 21h3M33 21h18M54 21h3M27 22h3M33 22h18M54 22h3M27 23h3M33 23h18M54 23h3M18 24h6M27 24h6M45 24h3M54 24h3M18 25h6M27 25h6M45 25h3M54 25h3M18 26h6M27 26h6M45 26h3M54 26h3M18 27h3M24 27h6M39 27h9M51 27h3M60 27h6M18 28h3M24 28h6M39 28h9M51 28h3M60 28h6M18 29h3M24 29h6M39 29h9M51 29h3M60 29h6M18 30h3M27 30h3M36 30h3M42 30h18M66 30h3M18 31h3M27 31h3M36 31h3M42 31h18M66 31h3M18 32h3M27 32h3M36 32h3M42 32h18M66 32h3M21 33h6M33 33h3M42 33h3M54 33h6M69 33h3M21 34h6M33 34h3M42 34h3M54 34h6M69 34h3M21 35h6M33 35h3M42 35h3M54 35h6M69 35h3M15 36h9M33 36h12M48 36h9M60 36h15M15 37h9M33 37h12M48 37h9M60 37h15M15 38h9M33 38h12M48 38h9M60 38h15M15 39h3M21 39h3M30 39h9M45 39h3M54 39h6M63 39h3M69 39h6M15 40h3M21 40h3M30 40h9M45 40h3M54 40h6M63 40h3M69 40h6M15 41h3M21 41h3M30 41h9M45 41h3M54 41h6M63 41h3M69 41h6M18 42h15M39 42h15M57 42h3M66 42h3M75 42h3M18 43h15M39 43h15M57 43h3M66 43h3M75 43h3M18 44h15M39 44h15M57 44h3M66 44h3M75 44h3M18 45h3M24 45h18M45 45h6M54 45h3M66 45h3M75 45h3M18 46h3M24 46h18M45 46h6M54 46h3M66 46h3M75 46h3M18 47h3M24 47h18M45 47h6M54 47h3M66 47h3M75 47h3M18 48h3M24 48h3M30 48h9M45 48h9M63 48h3M75 48h3M18 49h3M24 49h3M30 49h9M45 49h9M63 49h3M75 49h3M18 50h3M24 50h3M30 50h9M45 50h9M63 50h3M75 50h3M21 51h6M33 51h3M48 51h15M66 51h3M75 51h3M21 52h6M33 52h3M48 52h15M66 52h3M75 52h3M21 53h6M33 53h3M48 53h15M66 53h3M75 53h3M18 54h12M36 54h3M42 54h15M69 54h6M18 55h12M36 55h3M42 55h15M69 55h6M18 56h12M36 56h3M42 56h15M69 56h6M15 57h3M21 57h12M39 57h3M48 57h3M54 57h3M69 57h3M15 58h3M21 58h12M39 58h3M48 58h3M54 58h3M69 58h3M15 59h3M21 59h12M39 59h3M48 59h3M54 59h3M69 59h3M12 60h3M18 60h3M27 60h12M45 60h3M51 60h3M57 60h3M72 60h3M12 61h3M18 61h3M27 61h12M45 61h3M51 61h3M57 61h3M72 61h3M12 62h3M18 62h3M27 62h12M45 62h3M51 62h3M57 62h3M72 62h3M9 63h3M15 63h3M21 63h6M30 63h3M42 63h3M48 63h21M72 63h6M9 64h3M15 64h3M21 64h6M30 64h3M42 64h3M48 64h21M72 64h6M9 65h3M15 65h3M21 65h6M30 65h3M42 65h3M48 65h21M72 65h6M9 66h12M27 66h6M39 66h3M48 66h3M60 66h6M69 66h9M9 67h12M27 67h6M39 67h3M48 67h3M60 67h6M69 67h9M9 68h12M27 68h6M39 68h3M48 68h3M60 68h6M69 68h9M6 69h6M15 69h9M30 69h3M39 69h3M48 69h3M57 69h9M72 69h6M6 70h6M15 70h9M30 70h3M39 70h3M48 70h3M57 70h9M72 70h6M6 71h6M15 71h9M30 71h3M39 71h3M48 71h3M57 71h9M72 71h6M6 72h6M18 72h6M30 72h15M48 72h3M57 72h3M66 72h3M72 72h6M6 73h6M18 73h6M30 73h15M48 73h3M57 73h3M66 73h3M72 73h6M6 74h6M18 74h6M30 74h15M48 74h3M57 74h3M66 74h3M72 74h6M6 75h12M21 75h3M30 75h3M36 75h3M45 75h3M51 75h3M60 75h3M66 75h3M72 75h3M6 76h12M21 76h3M30 76h3M36 76h3M45 76h3M51 76h3M60 76h3M66 76h3M72 76h3M6 77h12M21 77h3M30 77h3M36 77h3M45 77h3M51 77h3M60 77h3M66 77h3M72 77h3M6 78h3M12 78h3M24 78h9M39 78h3M48 78h3M54 78h9M69 78h6M6 79h3M12 79h3M24 79h9M39 79h3M48 79h3M54 79h9M69 79h6M6 80h3M12 80h3M24 80h9M39 80h3M48 80h3M54 80h9M69 80h6M18 81h9M39 81h3M48 81h3M57 81h12M18 82h9M39 82h3M48 82h3M57 82h12M18 83h9M39 83h3M48 83h3M57 83h12M15 84h3M21 84h3M27 84h3M39 84h3M45 84h3M54 84h3M60 84h3M69 84h3M15 85h3M21 85h3M27 85h3M39 85h3M45 85h3M54 85h3M60 85h3M69 85h3M15 86h3M21 86h3M27 86h3M39 86h3M45 86h3M54 86h3M60 86h3M69 86h3M15 87h27M45 87h27M15 88h27M45 88h27M15 89h27M45 89h27"/>
                    <path stroke="#dfdfdf"
                          d="M30 21h3M51 21h3M30 22h3M51 22h3M30 23h3M51 23h3M33 24h12M48 24h6M33 25h12M48 25h6M33 26h12M48 26h6M21 27h3M30 27h9M48 27h3M21 28h3M30 28h9M48 28h3M21 29h3M30 29h9M48 29h3M21 30h6M30 30h6M21 31h6M30 31h6M21 32h6M30 32h6M27 33h6M45 33h9M27 34h6M45 34h9M27 35h6M45 35h9M24 36h9M45 36h3M24 37h9M45 37h3M24 38h9M45 38h3M24 39h6M39 39h6M24 40h6M39 40h6M24 41h6M39 41h6M42 45h3M42 46h3M42 47h3M27 48h3M39 48h6M27 49h3M39 49h6M27 50h3M39 50h6M27 51h6M39 51h9M27 52h6M39 52h9M27 53h6M39 53h9M30 54h3M39 54h3M30 55h3M39 55h3M30 56h3M39 56h3M33 57h3M42 57h6M33 58h3M42 58h6M33 59h3M42 59h6M21 60h6M39 60h6M21 61h6M39 61h6M21 62h6M39 62h6M18 63h3M33 63h9M18 64h3M33 64h9M18 65h3M33 65h9M21 66h6M51 66h9M21 67h6M51 67h9M21 68h6M51 68h9M27 69h3M33 69h6M51 69h3M27 70h3M33 70h6M51 70h3M27 71h3M33 71h6M51 71h3M27 72h3M51 72h3M27 73h3M51 73h3M27 74h3M51 74h3M24 75h6M54 75h6M24 76h6M54 76h6M24 77h6M54 77h6"/>
                    <path stroke="#00ff00" d="M39 30h3M39 31h3M39 32h3M39 33h3M39 34h3M39 35h3"/>
                    <path stroke="#ffff00"
                          d="M60 30h6M60 31h6M60 32h6M66 33h3M66 34h3M66 35h3M57 36h3M57 37h3M57 38h3M18 39h3M60 39h3M66 39h3M18 40h3M60 40h3M66 40h3M18 41h3M60 41h3M66 41h3M60 42h6M72 42h3M60 43h6M72 43h3M60 44h6M72 44h3M21 45h3M57 45h9M72 45h3M21 46h3M57 46h9M72 46h3M21 47h3M57 47h9M72 47h3M21 48h3M54 48h9M72 48h3M21 49h3M54 49h9M72 49h3M21 50h3M54 50h9M72 50h3M63 51h3M72 51h3M63 52h3M72 52h3M63 53h3M72 53h3M57 54h12M57 55h12M57 56h12M18 57h3M57 57h12M18 58h3M57 58h12M18 59h3M57 59h12M15 60h3M60 60h12M15 61h3M60 61h12M15 62h3M60 62h12M12 63h3M69 63h3M12 64h3M69 64h3M12 65h3M69 65h3"/>
                    <path stroke="#ffffff"
                          d="M36 33h3M36 34h3M36 35h3M66 66h3M66 67h3M66 68h3M66 69h6M66 70h6M66 71h6M69 72h3M69 73h3M69 74h3M69 75h3M69 76h3M69 77h3M18 84h3M24 84h3M57 84h3M63 84h6M18 85h3M24 85h3M57 85h3M63 85h6M18 86h3M24 86h3M57 86h3M63 86h6"/>
                    <path stroke="#4040ff"
                          d="M60 33h6M60 34h6M60 35h6M33 42h6M69 42h3M33 43h6M69 43h3M33 44h6M69 44h3M69 45h3M69 46h3M69 47h3M66 48h6M66 49h6M66 50h6M69 51h3M69 52h3M69 53h3"/>
                    <path stroke="#ff0000"
                          d="M48 39h6M48 40h6M48 41h6M54 42h3M54 43h3M54 44h3M51 45h3M51 46h3M51 47h3M36 51h3M36 52h3M36 53h3M33 54h3M33 55h3M33 56h3M36 57h3M36 58h3M36 59h3M33 66h6M33 67h6M33 68h6M24 69h3M54 69h3M24 70h3M54 70h3M24 71h3M54 71h3M24 72h3M54 72h3M24 73h3M54 73h3M24 74h3M54 74h3"/>
                    <path stroke="#f99b00"
                          d="M48 60h3M48 61h3M48 62h3M27 63h3M45 63h3M27 64h3M45 64h3M27 65h3M45 65h3M42 66h6M42 67h6M42 68h6M12 69h3M42 69h6M12 70h3M42 70h6M12 71h3M42 71h6M12 72h6M45 72h3M12 73h6M45 73h3M12 74h6M45 74h3M33 75h3M48 75h3M33 76h3M48 76h3M33 77h3M48 77h3M33 78h6M51 78h3M33 79h6M51 79h3M33 80h6M51 80h3M27 81h12M51 81h6M27 82h12M51 82h6M27 83h12M51 83h6M30 84h9M48 84h6M30 85h9M48 85h6M30 86h9M48 86h6"/>
                </g>
                <g id="frame2-[[${id}]]">
                    <path stroke="rgba(255,255,255,0.00392156862745098)"
                          d="M21 15h6M33 15h18M21 16h6M33 16h18M21 17h6M33 17h18M18 18h9M18 19h9M18 20h9M24 21h3M24 22h3M24 23h3M54 24h3M54 25h3M54 26h3M18 30h3M18 31h3M18 32h3"/>
                    <path stroke="#000000"
                          d="M27 15h6M51 15h6M27 16h6M51 16h6M27 17h6M51 17h6M27 18h3M33 18h18M54 18h3M27 19h3M33 19h18M54 19h3M27 20h3M33 20h18M54 20h3M18 21h6M27 21h6M45 21h3M54 21h3M18 22h6M27 22h6M45 22h3M54 22h3M18 23h6M27 23h6M45 23h3M54 23h3M18 24h3M24 24h6M39 24h9M51 24h3M18 25h3M24 25h6M39 25h9M51 25h3M18 26h3M24 26h6M39 26h9M51 26h3M18 27h3M27 27h3M36 27h3M42 27h15M60 27h6M18 28h3M27 28h3M36 28h3M42 28h15M60 28h6M18 29h3M27 29h3M36 29h3M42 29h15M60 29h6M21 30h6M33 30h3M42 30h3M54 30h6M66 30h3M21 31h6M33 31h3M42 31h3M54 31h6M66 31h3M21 32h6M33 32h3M42 32h3M54 32h6M66 32h3M15 33h9M33 33h12M48 33h9M60 33h12M15 34h9M33 34h12M48 34h9M60 34h12M15 35h9M33 35h12M48 35h9M60 35h12M15 36h3M21 36h3M30 36h9M45 36h3M54 36h6M63 36h3M69 36h6M15 37h3M21 37h3M30 37h9M45 37h3M54 37h6M63 37h3M69 37h6M15 38h3M21 38h3M30 38h9M45 38h3M54 38h6M63 38h3M69 38h6M18 39h15M39 39h15M57 39h3M66 39h3M72 39h3M18 40h15M39 40h15M57 40h3M66 40h3M72 40h3M18 41h15M39 41h15M57 41h3M66 41h3M72 41h3M18 42h3M24 42h18M45 42h6M54 42h3M66 42h3M75 42h3M18 43h3M24 43h18M45 43h6M54 43h3M66 43h3M75 43h3M18 44h3M24 44h18M45 44h6M54 44h3M66 44h3M75 44h3M18 45h3M24 45h3M30 45h9M45 45h9M63 45h6M75 45h3M18 46h3M24 46h3M30 46h9M45 46h9M63 46h6M75 46h3M18 47h3M24 47h3M30 47h9M45 47h9M63 47h6M75 47h3M21 48h6M33 48h3M48 48h18M69 48h3M75 48h3M21 49h6M33 49h3M48 49h18M69 49h3M75 49h3M21 50h6M33 50h3M48 50h18M69 50h3M75 50h3M15 51h15M36 51h3M42 51h12M57 51h3M72 51h6M15 52h15M36 52h3M42 52h12M57 52h3M72 52h6M15 53h15M36 53h3M42 53h12M57 53h3M72 53h6M12 54h3M18 54h15M39 54h3M48 54h3M57 54h3M72 54h3M12 55h3M18 55h15M39 55h3M48 55h3M57 55h3M72 55h3M12 56h3M18 56h15M39 56h3M48 56h3M57 56h3M72 56h3M9 57h3M15 57h3M24 57h15M45 57h3M51 57h3M60 57h3M75 57h3M9 58h3M15 58h3M24 58h15M45 58h3M51 58h3M60 58h3M75 58h3M9 59h3M15 59h3M24 59h15M45 59h3M51 59h3M60 59h3M75 59h3M6 60h3M12 60h3M24 60h9M42 60h3M54 60h3M63 60h9M75 60h6M6 61h3M12 61h3M24 61h9M42 61h3M54 61h3M63 61h9M75 61h6M6 62h3M12 62h3M24 62h9M42 62h3M54 62h3M63 62h9M75 62h6M6 63h12M21 63h6M30 63h3M39 63h3M48 63h12M66 63h3M72 63h9M6 64h12M21 64h6M30 64h3M39 64h3M48 64h12M66 64h3M72 64h9M6 65h12M21 65h6M30 65h3M39 65h3M48 65h12M66 65h3M72 65h9M3 66h6M12 66h3M18 66h3M27 66h6M39 66h3M48 66h3M60 66h3M66 66h3M75 66h6M3 67h6M12 67h3M18 67h3M27 67h6M39 67h3M48 67h3M60 67h3M66 67h3M75 67h6M3 68h6M12 68h3M18 68h3M27 68h6M39 68h3M48 68h3M60 68h3M66 68h3M75 68h6M3 69h6M15 69h9M30 69h12M48 69h3M57 69h6M69 69h3M75 69h6M3 70h6M15 70h9M30 70h12M48 70h3M57 70h6M69 70h3M75 70h6M3 71h6M15 71h9M30 71h12M48 71h3M57 71h6M69 71h3M75 71h6M3 72h12M21 72h3M30 72h3M36 72h3M42 72h3M48 72h3M57 72h3M69 72h3M75 72h3M3 73h12M21 73h3M30 73h3M36 73h3M42 73h3M48 73h3M57 73h3M69 73h3M75 73h3M3 74h12M21 74h3M30 74h3M36 74h3M42 74h3M48 74h3M57 74h3M69 74h3M75 74h3M3 75h3M9 75h3M21 75h3M30 75h3M36 75h3M45 75h3M51 75h3M60 75h3M72 75h6M3 76h3M9 76h3M21 76h3M30 76h3M36 76h3M45 76h3M51 76h3M60 76h3M72 76h6M3 77h3M9 77h3M21 77h3M30 77h3M36 77h3M45 77h3M51 77h3M60 77h3M72 77h6M24 78h9M39 78h3M48 78h3M54 78h9M24 79h9M39 79h3M48 79h3M54 79h9M24 80h9M39 80h3M48 80h3M54 80h9M18 81h9M39 81h3M48 81h3M57 81h12M18 82h9M39 82h3M48 82h3M57 82h12M18 83h9M39 83h3M48 83h3M57 83h12M15 84h3M21 84h3M27 84h3M39 84h3M45 84h3M54 84h3M60 84h3M69 84h3M15 85h3M21 85h3M27 85h3M39 85h3M45 85h3M54 85h3M60 85h3M69 85h3M15 86h3M21 86h3M27 86h3M39 86h3M45 86h3M54 86h3M60 86h3M69 86h3M15 87h27M45 87h27M15 88h27M45 88h27M15 89h27M45 89h27"/>
                    <path stroke="#dfdfdf"
                          d="M30 18h3M51 18h3M30 19h3M51 19h3M30 20h3M51 20h3M33 21h12M48 21h6M33 22h12M48 22h6M33 23h12M48 23h6M21 24h3M30 24h9M48 24h3M21 25h3M30 25h9M48 25h3M21 26h3M30 26h9M48 26h3M21 27h6M30 27h6M21 28h6M30 28h6M21 29h6M30 29h6M27 30h6M45 30h9M27 31h6M45 31h9M27 32h6M45 32h9M24 33h9M45 33h3M24 34h9M45 34h3M24 35h9M45 35h3M24 36h6M39 36h6M24 37h6M39 37h6M24 38h6M39 38h6M42 42h3M42 43h3M42 44h3M27 45h3M39 45h6M27 46h3M39 46h6M27 47h3M39 47h6M27 48h6M39 48h9M27 49h6M39 49h9M27 50h6M39 50h9M30 51h3M39 51h3M30 52h3M39 52h3M30 53h3M39 53h3M33 54h3M42 54h6M33 55h3M42 55h6M33 56h3M42 56h6M18 57h6M39 57h6M18 58h6M39 58h6M18 59h6M39 59h6M15 60h9M33 60h9M15 61h9M33 61h9M15 62h9M33 62h9M18 63h3M18 64h3M18 65h3M21 66h6M33 66h6M51 66h9M21 67h6M33 67h6M51 67h9M21 68h6M33 68h6M51 68h9M27 69h3M51 69h3M27 70h3M51 70h3M27 71h3M51 71h3M27 72h3M51 72h3M27 73h3M51 73h3M27 74h3M51 74h3M24 75h6M54 75h6M24 76h6M54 76h6M24 77h6M54 77h6"/>
                    <path stroke="#00ff00" d="M39 27h3M39 28h3M39 29h3M39 30h3M39 31h3M39 32h3"/>
                    <path stroke="#ffffff"
                          d="M36 30h3M36 31h3M36 32h3M69 63h3M69 64h3M69 65h3M69 66h6M69 67h6M69 68h6M72 69h3M72 70h3M72 71h3M72 72h3M72 73h3M72 74h3M18 84h3M24 84h3M57 84h3M63 84h6M18 85h3M24 85h3M57 85h3M63 85h6M18 86h3M24 86h3M57 86h3M63 86h6"/>
                    <path stroke="#ffff00"
                          d="M60 30h6M60 31h6M60 32h6M57 33h3M57 34h3M57 35h3M18 36h3M60 36h3M66 36h3M18 37h3M60 37h3M66 37h3M18 38h3M60 38h3M66 38h3M60 39h6M69 39h3M60 40h6M69 40h3M60 41h6M69 41h3M21 42h3M57 42h9M72 42h3M21 43h3M57 43h9M72 43h3M21 44h3M57 44h9M72 44h3M21 45h3M54 45h9M72 45h3M21 46h3M54 46h9M72 46h3M21 47h3M54 47h9M72 47h3M66 48h3M72 48h3M66 49h3M72 49h3M66 50h3M72 50h3M60 51h12M60 52h12M60 53h12M15 54h3M60 54h12M15 55h3M60 55h12M15 56h3M60 56h12M12 57h3M63 57h12M12 58h3M63 58h12M12 59h3M63 59h12M9 60h3M72 60h3M9 61h3M72 61h3M9 62h3M72 62h3"/>
                    <path stroke="#ff0000"
                          d="M48 36h6M48 37h6M48 38h6M54 39h3M54 40h3M54 41h3M51 42h3M51 43h3M51 44h3M36 48h3M36 49h3M36 50h3M33 51h3M33 52h3M33 53h3M36 54h3M36 55h3M36 56h3M33 63h6M33 64h6M33 65h6M24 69h3M54 69h3M24 70h3M54 70h3M24 71h3M54 71h3M24 72h3M54 72h3M24 73h3M54 73h3M24 74h3M54 74h3"/>
                    <path stroke="#4040ff"
                          d="M33 39h6M33 40h6M33 41h6M69 42h3M69 43h3M69 44h3M69 45h3M69 46h3M69 47h3"/>
                    <path stroke="#f99b00"
                          d="M48 57h3M48 58h3M48 59h3M45 60h9M45 61h9M45 62h9M27 63h3M42 63h6M27 64h3M42 64h6M27 65h3M42 65h6M9 66h3M15 66h3M42 66h6M9 67h3M15 67h3M42 67h6M9 68h3M15 68h3M42 68h6M9 69h6M42 69h6M9 70h6M42 70h6M9 71h6M42 71h6M33 72h3M45 72h3M33 73h3M45 73h3M33 74h3M45 74h3M33 75h3M48 75h3M33 76h3M48 76h3M33 77h3M48 77h3M33 78h6M51 78h3M33 79h6M51 79h3M33 80h6M51 80h3M27 81h12M51 81h6M27 82h12M51 82h6M27 83h12M51 83h6M30 84h9M48 84h6M30 85h9M48 85h6M30 86h9M48 86h6"/>
                </g>
            </g>
            <g id="walking-[[${id}]]">
                <g id="frame3-[[${id}]]">
                    <path stroke="rgba(255,255,255,0.00392156862745098)"
                          d="M21 15h6M33 15h18M21 16h6M33 16h18M21 17h6M33 17h18M18 18h9M18 19h9M18 20h9M24 21h3M24 22h3M24 23h3M54 24h3M54 25h3M54 26h3M18 30h3M18 31h3M18 32h3"/>
                    <path stroke="#000000"
                          d="M27 15h6M51 15h6M27 16h6M51 16h6M27 17h6M51 17h6M27 18h3M33 18h18M54 18h3M27 19h3M33 19h18M54 19h3M27 20h3M33 20h18M54 20h3M18 21h6M27 21h6M45 21h3M54 21h3M18 22h6M27 22h6M45 22h3M54 22h3M18 23h6M27 23h6M45 23h3M54 23h3M18 24h3M24 24h6M39 24h9M51 24h3M18 25h3M24 25h6M39 25h9M51 25h3M18 26h3M24 26h6M39 26h9M51 26h3M18 27h3M27 27h3M36 27h3M42 27h15M60 27h6M18 28h3M27 28h3M36 28h3M42 28h15M60 28h6M18 29h3M27 29h3M36 29h3M42 29h15M60 29h6M21 30h6M33 30h3M42 30h3M54 30h6M66 30h3M21 31h6M33 31h3M42 31h3M54 31h6M66 31h3M21 32h6M33 32h3M42 32h3M54 32h6M66 32h3M15 33h9M33 33h12M48 33h9M60 33h12M15 34h9M33 34h12M48 34h9M60 34h12M15 35h9M33 35h12M48 35h9M60 35h12M15 36h3M21 36h3M30 36h9M45 36h3M54 36h6M63 36h3M69 36h6M15 37h3M21 37h3M30 37h9M45 37h3M54 37h6M63 37h3M69 37h6M15 38h3M21 38h3M30 38h9M45 38h3M54 38h6M63 38h3M69 38h6M18 39h15M39 39h15M57 39h3M66 39h3M72 39h3M18 40h15M39 40h15M57 40h3M66 40h3M72 40h3M18 41h15M39 41h15M57 41h3M66 41h3M72 41h3M18 42h3M24 42h18M45 42h6M54 42h3M66 42h3M75 42h3M18 43h3M24 43h18M45 43h6M54 43h3M66 43h3M75 43h3M18 44h3M24 44h18M45 44h6M54 44h3M66 44h3M75 44h3M18 45h3M24 45h3M30 45h9M45 45h9M63 45h6M75 45h3M18 46h3M24 46h3M30 46h9M45 46h9M63 46h6M75 46h3M18 47h3M24 47h3M30 47h9M45 47h9M63 47h6M75 47h3M21 48h6M33 48h3M48 48h18M69 48h3M75 48h3M21 49h6M33 49h3M48 49h18M69 49h3M75 49h3M21 50h6M33 50h3M48 50h18M69 50h3M75 50h3M15 51h15M36 51h3M42 51h12M57 51h3M72 51h6M15 52h15M36 52h3M42 52h12M57 52h3M72 52h6M15 53h15M36 53h3M42 53h12M57 53h3M72 53h6M12 54h3M18 54h15M39 54h3M48 54h3M57 54h3M72 54h3M12 55h3M18 55h15M39 55h3M48 55h3M57 55h3M72 55h3M12 56h3M18 56h15M39 56h3M48 56h3M57 56h3M72 56h3M9 57h3M15 57h3M24 57h15M45 57h3M51 57h3M60 57h3M75 57h3M9 58h3M15 58h3M24 58h15M45 58h3M51 58h3M60 58h3M75 58h3M9 59h3M15 59h3M24 59h15M45 59h3M51 59h3M60 59h3M75 59h3M6 60h3M12 60h3M24 60h9M42 60h15M63 60h9M75 60h6M6 61h3M12 61h3M24 61h9M42 61h15M63 61h9M75 61h6M6 62h3M12 62h3M24 62h9M42 62h15M63 62h9M75 62h6M6 63h12M21 63h12M39 63h3M45 63h3M57 63h3M66 63h3M72 63h9M6 64h12M21 64h12M39 64h3M45 64h3M57 64h3M66 64h3M72 64h9M6 65h12M21 65h12M39 65h3M45 65h3M57 65h3M66 65h3M72 65h9M3 66h6M12 66h3M18 66h6M30 66h3M39 66h3M45 66h3M54 66h6M66 66h3M75 66h6M3 67h6M12 67h3M18 67h6M30 67h3M39 67h3M45 67h3M54 67h6M66 67h3M75 67h6M3 68h6M12 68h3M18 68h6M30 68h3M39 68h3M45 68h3M54 68h6M66 68h3M75 68h6M3 69h6M15 69h3M21 69h6M33 69h9M45 69h3M54 69h3M69 69h3M75 69h6M3 70h6M15 70h3M21 70h6M33 70h9M45 70h3M54 70h3M69 70h3M75 70h6M3 71h6M15 71h3M21 71h6M33 71h9M45 71h3M54 71h3M69 71h3M75 71h6M3 72h12M24 72h3M33 72h3M39 72h6M48 72h3M57 72h3M69 72h3M75 72h3M3 73h12M24 73h3M33 73h3M39 73h6M48 73h3M57 73h3M69 73h3M75 73h3M3 74h12M24 74h3M33 74h3M39 74h6M48 74h3M57 74h3M69 74h3M75 74h3M3 75h3M9 75h3M24 75h3M33 75h3M39 75h3M45 75h3M51 75h9M72 75h6M3 76h3M9 76h3M24 76h3M33 76h3M39 76h3M45 76h3M51 76h9M72 76h6M3 77h3M9 77h3M24 77h3M33 77h3M39 77h3M45 77h3M51 77h9M72 77h6M27 78h9M42 78h6M54 78h12M27 79h9M42 79h6M54 79h12M27 80h9M42 80h6M54 80h12M21 81h9M42 81h3M51 81h3M57 81h3M66 81h3M21 82h9M42 82h3M51 82h3M57 82h3M66 82h3M21 83h9M42 83h3M51 83h3M57 83h3M66 83h3M18 84h3M24 84h3M30 84h3M42 84h27M18 85h3M24 85h3M30 85h3M42 85h27M18 86h3M24 86h3M30 86h3M42 86h27M18 87h27M18 88h27M18 89h27"/>
                    <path stroke="#dfdfdf"
                          d="M30 18h3M51 18h3M30 19h3M51 19h3M30 20h3M51 20h3M33 21h12M48 21h6M33 22h12M48 22h6M33 23h12M48 23h6M21 24h3M30 24h9M48 24h3M21 25h3M30 25h9M48 25h3M21 26h3M30 26h9M48 26h3M21 27h6M30 27h6M21 28h6M30 28h6M21 29h6M30 29h6M27 30h6M45 30h9M27 31h6M45 31h9M27 32h6M45 32h9M24 33h9M45 33h3M24 34h9M45 34h3M24 35h9M45 35h3M24 36h6M39 36h6M24 37h6M39 37h6M24 38h6M39 38h6M42 42h3M42 43h3M42 44h3M27 45h3M39 45h6M27 46h3M39 46h6M27 47h3M39 47h6M27 48h6M39 48h9M27 49h6M39 49h9M27 50h6M39 50h9M30 51h3M39 51h3M30 52h3M39 52h3M30 53h3M39 53h3M33 54h3M42 54h6M33 55h3M42 55h6M33 56h3M42 56h6M18 57h6M39 57h6M18 58h6M39 58h6M18 59h6M39 59h6M15 60h9M33 60h9M15 61h9M33 61h9M15 62h9M33 62h9M18 63h3M48 63h9M18 64h3M48 64h9M18 65h3M48 65h9M24 66h6M33 66h6M48 66h3M24 67h6M33 67h6M48 67h3M24 68h6M33 68h6M48 68h3M30 69h3M48 69h3M30 70h3M48 70h3M30 71h3M48 71h3M30 72h3M51 72h6M30 73h3M51 73h6M30 74h3M51 74h6M27 75h6M27 76h6M27 77h6"/>
                    <path stroke="#00ff00" d="M39 27h3M39 28h3M39 29h3M39 30h3M39 31h3M39 32h3"/>
                    <path stroke="#ffffff"
                          d="M36 30h3M36 31h3M36 32h3M69 63h3M69 64h3M69 65h3M69 66h6M69 67h6M69 68h6M72 69h3M72 70h3M72 71h3M72 72h3M72 73h3M72 74h3M54 81h3M60 81h6M54 82h3M60 82h6M54 83h3M60 83h6M21 84h3M27 84h3M21 85h3M27 85h3M21 86h3M27 86h3"/>
                    <path stroke="#ffff00"
                          d="M60 30h6M60 31h6M60 32h6M57 33h3M57 34h3M57 35h3M18 36h3M60 36h3M66 36h3M18 37h3M60 37h3M66 37h3M18 38h3M60 38h3M66 38h3M60 39h6M69 39h3M60 40h6M69 40h3M60 41h6M69 41h3M21 42h3M57 42h9M72 42h3M21 43h3M57 43h9M72 43h3M21 44h3M57 44h9M72 44h3M21 45h3M54 45h9M72 45h3M21 46h3M54 46h9M72 46h3M21 47h3M54 47h9M72 47h3M66 48h3M72 48h3M66 49h3M72 49h3M66 50h3M72 50h3M60 51h12M60 52h12M60 53h12M15 54h3M60 54h12M15 55h3M60 55h12M15 56h3M60 56h12M12 57h3M63 57h12M12 58h3M63 58h12M12 59h3M63 59h12M9 60h3M72 60h3M9 61h3M72 61h3M9 62h3M72 62h3"/>
                    <path stroke="#ff0000"
                          d="M48 36h6M48 37h6M48 38h6M54 39h3M54 40h3M54 41h3M51 42h3M51 43h3M51 44h3M36 48h3M36 49h3M36 50h3M33 51h3M33 52h3M33 53h3M36 54h3M36 55h3M36 56h3M33 63h6M33 64h6M33 65h6M51 66h3M51 67h3M51 68h3M27 69h3M51 69h3M27 70h3M51 70h3M27 71h3M51 71h3M27 72h3M27 73h3M27 74h3"/>
                    <path stroke="#4040ff"
                          d="M33 39h6M33 40h6M33 41h6M69 42h3M69 43h3M69 44h3M69 45h3M69 46h3M69 47h3"/>
                    <path stroke="#f99b00"
                          d="M48 57h3M48 58h3M48 59h3M42 63h3M42 64h3M42 65h3M9 66h3M15 66h3M42 66h3M9 67h3M15 67h3M42 67h3M9 68h3M15 68h3M42 68h3M9 69h6M42 69h3M9 70h6M42 70h3M9 71h6M42 71h3M36 72h3M45 72h3M36 73h3M45 73h3M36 74h3M45 74h3M36 75h3M48 75h3M36 76h3M48 76h3M36 77h3M48 77h3M36 78h6M48 78h6M36 79h6M48 79h6M36 80h6M48 80h6M30 81h12M45 81h6M30 82h12M45 82h6M30 83h12M45 83h6M33 84h9M33 85h9M33 86h9"/>
                </g>
                <g id="frame4-[[${id}]]">
                    <path stroke="rgba(255,255,255,0.00392156862745098)"
                          d="M21 15h6M33 15h18M21 16h6M33 16h18M21 17h6M33 17h18M18 18h9M18 19h9M18 20h9M24 21h3M24 22h3M24 23h3M54 24h3M54 25h3M54 26h3M18 30h3M18 31h3M18 32h3"/>
                    <path stroke="#000000"
                          d="M27 15h6M51 15h6M27 16h6M51 16h6M27 17h6M51 17h6M27 18h3M33 18h18M54 18h3M27 19h3M33 19h18M54 19h3M27 20h3M33 20h18M54 20h3M18 21h6M27 21h6M45 21h3M54 21h3M18 22h6M27 22h6M45 22h3M54 22h3M18 23h6M27 23h6M45 23h3M54 23h3M18 24h3M24 24h6M39 24h9M51 24h3M18 25h3M24 25h6M39 25h9M51 25h3M18 26h3M24 26h6M39 26h9M51 26h3M18 27h3M27 27h3M36 27h3M42 27h15M60 27h6M18 28h3M27 28h3M36 28h3M42 28h15M60 28h6M18 29h3M27 29h3M36 29h3M42 29h15M60 29h6M21 30h6M33 30h3M42 30h3M54 30h6M66 30h3M21 31h6M33 31h3M42 31h3M54 31h6M66 31h3M21 32h6M33 32h3M42 32h3M54 32h6M66 32h3M15 33h9M33 33h12M48 33h9M60 33h12M15 34h9M33 34h12M48 34h9M60 34h12M15 35h9M33 35h12M48 35h9M60 35h12M15 36h3M21 36h3M30 36h9M45 36h3M54 36h6M63 36h3M69 36h6M15 37h3M21 37h3M30 37h9M45 37h3M54 37h6M63 37h3M69 37h6M15 38h3M21 38h3M30 38h9M45 38h3M54 38h6M63 38h3M69 38h6M18 39h15M39 39h15M57 39h3M66 39h3M72 39h3M18 40h15M39 40h15M57 40h3M66 40h3M72 40h3M18 41h15M39 41h15M57 41h3M66 41h3M72 41h3M18 42h3M24 42h18M45 42h6M54 42h3M66 42h3M75 42h3M18 43h3M24 43h18M45 43h6M54 43h3M66 43h3M75 43h3M18 44h3M24 44h18M45 44h6M54 44h3M66 44h3M75 44h3M18 45h3M24 45h3M30 45h9M45 45h9M63 45h3M75 45h3M18 46h3M24 46h3M30 46h9M45 46h9M63 46h3M75 46h3M18 47h3M24 47h3M30 47h9M45 47h9M63 47h3M75 47h3M21 48h6M33 48h3M48 48h18M75 48h3M21 49h6M33 49h3M48 49h18M75 49h3M21 50h6M33 50h3M48 50h18M75 50h3M21 51h9M36 51h3M42 51h12M66 51h3M75 51h3M21 52h9M36 52h3M42 52h12M66 52h3M75 52h3M21 53h9M36 53h3M42 53h12M66 53h3M75 53h3M15 54h18M39 54h3M48 54h6M66 54h3M72 54h3M15 55h18M39 55h3M48 55h6M66 55h3M72 55h3M15 56h18M39 56h3M48 56h6M66 56h3M72 56h3M15 57h3M21 57h3M27 57h12M45 57h3M51 57h6M69 57h3M15 58h3M21 58h3M27 58h12M45 58h3M51 58h6M69 58h3M15 59h3M21 59h3M27 59h12M45 59h3M51 59h6M69 59h3M12 60h3M18 60h15M42 60h3M54 60h12M69 60h6M12 61h3M18 61h15M42 61h3M54 61h12M69 61h6M12 62h3M18 62h15M42 62h3M54 62h12M69 62h6M12 63h6M24 63h3M30 63h3M39 63h3M51 63h12M66 63h9M12 64h6M24 64h3M30 64h3M39 64h3M51 64h12M66 64h9M12 65h6M24 65h3M30 65h3M39 65h3M51 65h12M66 65h9M9 66h12M27 66h6M39 66h3M51 66h3M63 66h3M69 66h6M9 67h12M27 67h6M39 67h3M51 67h3M63 67h3M69 67h6M9 68h12M27 68h6M39 68h3M51 68h3M63 68h3M69 68h6M9 69h6M18 69h3M27 69h3M33 69h12M51 69h3M60 69h6M69 69h6M9 70h6M18 70h3M27 70h3M33 70h12M51 70h3M60 70h6M69 70h6M9 71h6M18 71h3M27 71h3M33 71h12M51 71h3M60 71h6M69 71h6M9 72h12M27 72h3M33 72h3M45 72h3M51 72h3M60 72h6M69 72h3M9 73h12M27 73h3M33 73h3M45 73h3M51 73h3M60 73h6M69 73h3M9 74h12M27 74h3M33 74h3M45 74h3M51 74h3M60 74h6M69 74h3M9 75h3M15 75h3M21 75h9M36 75h3M48 75h3M54 75h3M63 75h9M9 76h3M15 76h3M21 76h9M36 76h3M48 76h3M54 76h3M63 76h9M9 77h3M15 77h3M21 77h9M36 77h3M48 77h3M54 77h3M63 77h9M15 78h9M36 78h3M51 78h3M57 78h9M15 79h9M36 79h3M51 79h3M57 79h9M15 80h9M36 80h3M51 80h3M57 80h9M12 81h3M18 81h3M24 81h3M36 81h3M51 81h3M60 81h12M12 82h3M18 82h3M24 82h3M36 82h3M51 82h3M60 82h12M12 83h3M18 83h3M24 83h3M36 83h3M51 83h3M60 83h12M12 84h27M48 84h3M57 84h3M63 84h3M72 84h3M12 85h27M48 85h3M57 85h3M63 85h3M72 85h3M12 86h27M48 86h3M57 86h3M63 86h3M72 86h3M48 87h27M48 88h27M48 89h27"/>
                    <path stroke="#dfdfdf"
                          d="M30 18h3M51 18h3M30 19h3M51 19h3M30 20h3M51 20h3M33 21h12M48 21h6M33 22h12M48 22h6M33 23h12M48 23h6M21 24h3M30 24h9M48 24h3M21 25h3M30 25h9M48 25h3M21 26h3M30 26h9M48 26h3M21 27h6M30 27h6M21 28h6M30 28h6M21 29h6M30 29h6M27 30h6M45 30h9M27 31h6M45 31h9M27 32h6M45 32h9M24 33h9M45 33h3M24 34h9M45 34h3M24 35h9M45 35h3M24 36h6M39 36h6M24 37h6M39 37h6M24 38h6M39 38h6M42 42h3M42 43h3M42 44h3M27 45h3M39 45h6M27 46h3M39 46h6M27 47h3M39 47h6M27 48h6M39 48h9M27 49h6M39 49h9M27 50h6M39 50h9M30 51h3M39 51h3M30 52h3M39 52h3M30 53h3M39 53h3M33 54h3M42 54h6M33 55h3M42 55h6M33 56h3M42 56h6M24 57h3M39 57h6M24 58h3M39 58h6M24 59h3M39 59h6M33 60h9M33 61h9M33 62h9M18 63h6M18 64h6M18 65h6M24 66h3M33 66h6M54 66h9M24 67h3M33 67h6M54 67h9M24 68h3M33 68h6M54 68h9M24 69h3M54 69h3M24 70h3M54 70h3M24 71h3M54 71h3M21 72h6M54 72h3M21 73h6M54 73h3M21 74h6M54 74h3M57 75h6M57 76h6M57 77h6"/>
                    <path stroke="#00ff00" d="M39 27h3M39 28h3M39 29h3M39 30h3M39 31h3M39 32h3"/>
                    <path stroke="#ffffff"
                          d="M36 30h3M36 31h3M36 32h3M63 63h3M63 64h3M63 65h3M66 66h3M66 67h3M66 68h3M66 69h3M66 70h3M66 71h3M66 72h3M66 73h3M66 74h3M15 81h3M21 81h3M15 82h3M21 82h3M15 83h3M21 83h3M60 84h3M66 84h6M60 85h3M66 85h6M60 86h3M66 86h6"/>
                    <path stroke="#ffff00"
                          d="M60 30h6M60 31h6M60 32h6M57 33h3M57 34h3M57 35h3M18 36h3M60 36h3M66 36h3M18 37h3M60 37h3M66 37h3M18 38h3M60 38h3M66 38h3M60 39h6M69 39h3M60 40h6M69 40h3M60 41h6M69 41h3M21 42h3M57 42h9M72 42h3M21 43h3M57 43h9M72 43h3M21 44h3M57 44h9M72 44h3M21 45h3M54 45h9M72 45h3M21 46h3M54 46h9M72 46h3M21 47h3M54 47h9M72 47h3M72 48h3M72 49h3M72 50h3M54 51h12M72 51h3M54 52h12M72 52h3M54 53h12M72 53h3M54 54h12M69 54h3M54 55h12M69 55h3M54 56h12M69 56h3M18 57h3M57 57h12M18 58h3M57 58h12M18 59h3M57 59h12M15 60h3M66 60h3M15 61h3M66 61h3M15 62h3M66 62h3"/>
                    <path stroke="#ff0000"
                          d="M48 36h6M48 37h6M48 38h6M54 39h3M54 40h3M54 41h3M51 42h3M51 43h3M51 44h3M36 48h3M36 49h3M36 50h3M33 51h3M33 52h3M33 53h3M36 54h3M36 55h3M36 56h3M33 63h6M33 64h6M33 65h6M21 66h3M21 67h3M21 68h3M21 69h3M57 69h3M21 70h3M57 70h3M21 71h3M57 71h3M57 72h3M57 73h3M57 74h3"/>
                    <path stroke="#4040ff"
                          d="M33 39h6M33 40h6M33 41h6M69 42h3M69 43h3M69 44h3M66 45h6M66 46h6M66 47h6M66 48h6M66 49h6M66 50h6M69 51h3M69 52h3M69 53h3"/>
                    <path stroke="#f99b00"
                          d="M48 57h3M48 58h3M48 59h3M45 60h9M45 61h9M45 62h9M27 63h3M42 63h9M27 64h3M42 64h9M27 65h3M42 65h9M42 66h9M42 67h9M42 68h9M15 69h3M30 69h3M45 69h6M15 70h3M30 70h3M45 70h6M15 71h3M30 71h3M45 71h6M30 72h3M48 72h3M30 73h3M48 73h3M30 74h3M48 74h3M30 75h6M51 75h3M30 76h6M51 76h3M30 77h6M51 77h3M24 78h12M54 78h3M24 79h12M54 79h3M24 80h12M54 80h3M27 81h9M54 81h6M27 82h9M54 82h6M27 83h9M54 83h6M51 84h6M51 85h6M51 86h6"/>
                </g>
            </g>
            <svg viewBox="0 0 100 30" width="100" height="30" x="0" y="-20">
                <g id="username-[[${id}]]">
                    <rect x="0" y="0" width="100" height="20" fill="black" fill-opacity="0.8" rx="5"/>
                    <svg x="4" y="2.5" width="15" height="15" viewBox="0 0 100 100">
                        <path fill-rule="evenodd" clip-rule="evenodd"
                              d="M48.854 0C21.839 0 0 22 0 49.217c0 21.756 13.993 40.172 33.405 46.69 2.427.49 3.316-1.059 3.316-2.362 0-1.141-.08-5.052-.08-9.127-13.59 2.934-16.42-5.867-16.42-5.867-2.184-5.704-5.42-7.17-5.42-7.17-4.448-3.015.324-3.015.324-3.015 4.934.326 7.523 5.052 7.523 5.052 4.367 7.496 11.404 5.378 14.235 4.074.404-3.178 1.699-5.378 3.074-6.6-10.839-1.141-22.243-5.378-22.243-24.283 0-5.378 1.94-9.778 5.014-13.2-.485-1.222-2.184-6.275.486-13.038 0 0 4.125-1.304 13.426 5.052a46.97 46.97 0 0 1 12.214-1.63c4.125 0 8.33.571 12.213 1.63 9.302-6.356 13.427-5.052 13.427-5.052 2.67 6.763.97 11.816.485 13.038 3.155 3.422 5.015 7.822 5.015 13.2 0 18.905-11.404 23.06-22.324 24.283 1.78 1.548 3.316 4.481 3.316 9.126 0 6.6-.08 11.897-.08 13.526 0 1.304.89 2.853 3.316 2.364 19.412-6.52 33.405-24.935 33.405-46.691C97.707 22 75.788 0 48.854 0z"
                              fill="#fff"/>
                    </svg>
                    <text x="25" y="11" dominant-baseline="middle" style="fill:white" textLength="70"
                          lengthAdjust="spacing">
                        [[${username}]]
                    </text>
                    <rect x="0" y="23" width="[[${exp}]]" height="2" fill="#48ff00" rx="1"/>
                </g>
            </svg>
        </g>
    </a>
    <style>
        #frame1-[[${id}]] {
        animation: 1s frameToggle infinite;
        }
        #frame2-[[${id}]] {
        animation: 1s frameToggle infinite reverse;
        }
        #frame3-[[${id}]] {
        animation: 1s frameToggle infinite;
        }
        #frame4-[[${id}]] {
        animation: 1s frameToggle infinite reverse;
        }
        #standing-[[${id}]] {
        animation: standingToggle [[${motion.duration}]]s infinite;
        }
        #walking-[[${id}]] {
        animation: walkingToggle [[${motion.duration}]]s infinite;
        }
        #body-[[${id}]] {
        animation: move-body-[[${id}]] [[${motion.duration}]]s infinite;
        }
        #username-[[${id}]] {
        animation: move-username-[[${id}]] [[${motion.duration}]]s infinite;
        }
        @keyframes move-body-[[${id}]] {
        0%, 10% {
        transform: translate([[${motion.positions[0].x}]]%, [[${y}]]%) scaleX([[${motion.positions[0].direction}]]);
        }
        20%, 30% {
        transform: translate([[${motion.positions[1].x}]]%, [[${y}]]%) scaleX([[${motion.positions[1].direction}]]);
        }
        40%, 50% {
        transform: translate([[${motion.positions[2].x}]]%, [[${y}]]%) scaleX([[${motion.positions[2].direction}]]);
        }
        50.01% {
        transform: translate([[${motion.positions[3].x}]]%, [[${y}]]%) scaleX([[${motion.positions[3].direction}]]);
        }
        60%, 70% {
        transform: translate([[${motion.positions[4].x}]]%, [[${y}]]%) scaleX([[${motion.positions[4].direction}]]);
        }
        80%, 100% {
        transform: translate([[${motion.positions[5].x}]]%, [[${y}]]%) scaleX([[${motion.positions[5].direction}]]);
        }
        }
        @keyframes move-username-[[${id}]] {
        0%, 10% {
        transform: scaleX([[${motion.positions[0].direction}]])
        translateX([[${motion.positions[0].direction > 0 ? 0: -100}]]%);
        }
        20%, 30% {
        transform: scaleX([[${motion.positions[1].direction}]])
        translateX([[${motion.positions[1].direction > 0 ? 0: -100}]]%);
        }
        40%, 50% {
        transform: scaleX([[${motion.positions[2].direction}]])
        translateX([[${motion.positions[2].direction > 0 ? 0: -100}]]%);
        }
        50.01% {
        transform: scaleX([[${motion.positions[3].direction}]])
        translateX([[${motion.positions[3].direction > 0 ? 0: -100}]]%);
        }
        60%, 70% {
        transform: scaleX([[${motion.positions[4].direction}]])
        translateX([[${motion.positions[4].direction > 0 ? 0: -100}]]%);
        }
        80%, 100% {
        transform: scaleX([[${motion.positions[5].direction}]])
        translateX([[${motion.positions[5].direction > 0 ? 0: -100}]]%);
        }
        }
    </style>
</svg>
