<svg fill="none" overflow="visible" xmlns="http://www.w3.org/2000/svg">
    <a href="https://github.com/[[${username}]]">
        <g id="body-[[${id}]]">
            <svg viewBox="0 0 100 100" width="100" height="100" x="15" y="25">
                <g id="standing-[[${id}]]">
                    <g id="frame1-[[${id}]]">
                        <path stroke="#000000"
                              d="M24 0h9M36 0h9M24 1h9M36 1h9M24 2h9M36 2h9M21 3h9M33 3h3M39 3h3M21 4h9M33 4h3M39 4h3M21 5h9M33 5h3M39 5h3M21 6h3M27 6h6M39 6h3M21 7h3M27 7h6M39 7h3M21 8h3M27 8h6M39 8h3M18 9h3M36 9h15M18 10h3M36 10h15M18 11h3M36 11h15M15 12h3M48 12h3M15 13h3M48 13h3M15 14h3M48 14h3M9 15h9M30 15h6M45 15h3M51 15h6M9 16h9M30 16h6M45 16h3M51 16h6M9 17h9M30 17h6M45 17h3M51 17h6M6 18h3M33 18h3M42 18h9M54 18h3M6 19h3M33 19h3M42 19h9M54 19h3M6 20h3M33 20h3M42 20h9M54 20h3M6 21h9M27 21h6M48 21h3M54 21h3M6 22h9M27 22h6M48 22h3M54 22h3M6 23h9M27 23h6M48 23h3M54 23h3M6 24h6M39 24h24M6 25h6M39 25h24M6 26h6M39 26h24M9 27h18M36 27h6M51 27h3M60 27h3M9 28h18M36 28h6M51 28h3M60 28h3M9 29h18M36 29h6M51 29h3M60 29h3M12 30h6M30 30h6M42 30h3M51 30h9M12 31h6M30 31h6M42 31h3M51 31h9M12 32h6M30 32h6M42 32h3M51 32h9M15 33h15M33 33h3M39 33h15M60 33h3M15 34h15M33 34h3M39 34h15M60 34h3M15 35h15M33 35h3M39 35h15M60 35h3M24 36h3M30 36h3M36 36h3M42 36h9M54 36h9M24 37h3M30 37h3M36 37h3M42 37h9M54 37h9M24 38h3M30 38h3M36 38h3M42 38h9M54 38h9M21 39h3M27 39h3M33 39h3M42 39h6M54 39h3M21 40h3M27 40h3M33 40h3M42 40h6M54 40h3M21 41h3M27 41h3M33 41h3M42 41h6M54 41h3M18 42h24M45 42h3M54 42h3M18 43h24M45 43h3M54 43h3M18 44h24M45 44h3M54 44h3M15 45h3M24 45h6M36 45h3M42 45h6M51 45h6M15 46h3M24 46h6M36 46h3M42 46h6M51 46h6M15 47h3M24 47h6M36 47h3M42 47h6M51 47h6M15 48h12M30 48h15M48 48h3M54 48h3M15 49h12M30 49h15M48 49h3M54 49h3M15 50h12M30 50h15M48 50h3M54 50h3M18 51h12M33 51h3M39 51h15M18 52h12M33 52h3M39 52h15M18 53h12M33 53h3M39 53h15M18 54h6M30 54h3M39 54h3M51 54h3M18 55h6M30 55h3M39 55h3M51 55h3M18 56h6M30 56h3M39 56h3M51 56h3M15 57h3M21 57h3M30 57h3M36 57h3M42 57h3M48 57h3M54 57h3M15 58h3M21 58h3M30 58h3M36 58h3M42 58h3M48 58h3M54 58h3M15 59h3M21 59h3M30 59h3M36 59h3M42 59h3M48 59h3M54 59h3M15 60h18M36 60h21M15 61h18M36 61h21M15 62h18M36 62h21"/>
                        <path stroke="#6c42ff"
                              d="M36 3h3M36 4h3M36 5h3M24 6h3M33 6h6M24 7h3M33 7h6M24 8h3M33 8h6M21 9h3M21 10h3M21 11h3M18 12h3M30 12h6M42 12h6M18 13h3M30 13h6M42 13h6M18 14h3M30 14h6M42 14h6M27 15h3M36 15h3M27 16h3M36 16h3M27 17h3M36 17h3M9 18h6M24 18h3M39 18h3M51 18h3M9 19h6M24 19h3M39 19h3M51 19h3M9 20h6M24 20h3M39 20h3M51 20h3M15 21h3M36 21h6M45 21h3M51 21h3M15 22h3M36 22h6M45 22h3M51 22h3M15 23h3M36 23h6M45 23h3M51 23h3M33 24h3M33 25h3M33 26h3M33 27h3M57 27h3M33 28h3M57 28h3M33 29h3M57 29h3M57 33h3M57 34h3M57 35h3M24 39h3M39 39h3M24 40h3M39 40h3M24 41h3M39 41h3"/>
                        <path stroke="#eef2ff"
                              d="M24 9h12M24 10h12M24 11h12M21 12h9M36 12h6M21 13h9M36 13h6M21 14h9M36 14h6M18 15h9M39 15h6M18 16h9M39 16h6M18 17h9M39 17h6M15 18h9M27 18h3M36 18h3M15 19h9M27 19h3M36 19h3M15 20h9M27 20h3M36 20h3M18 21h9M33 21h3M42 21h3M18 22h9M33 22h3M42 22h3M18 23h9M33 23h3M42 23h3M12 24h21M36 24h3M12 25h21M36 25h3M12 26h21M36 26h3M27 27h6M54 27h3M27 28h6M54 28h3M27 29h6M54 29h3M18 30h12M18 31h12M18 32h12M30 33h3M54 33h3M30 34h3M54 34h3M30 35h3M54 35h3M27 36h3M39 36h3M27 37h3M39 37h3M27 38h3M39 38h3M36 39h3M36 40h3M36 41h3M42 42h3M42 43h3M42 44h3M18 45h3M18 46h3M18 47h3M45 48h3M51 48h3M45 49h3M51 49h3M45 50h3M51 50h3M24 54h6M42 54h9M24 55h6M42 55h9M24 56h6M42 56h9M27 57h3M27 58h3M27 59h3"/>
                        <path stroke="#ffa828" d="M30 18h3M30 19h3M30 20h3"/>
                        <path stroke="#8c4c14"
                              d="M42 27h9M42 28h9M42 29h9M36 30h6M45 30h6M36 31h6M45 31h6M36 32h6M45 32h6M36 33h3M36 34h3M36 35h3M33 36h3M33 37h3M33 38h3M30 39h3M48 39h6M30 40h3M48 40h6M30 41h3M48 41h6M51 42h3M51 43h3M51 44h3M27 48h3M27 49h3M27 50h3"/>
                        <path stroke="#404040"
                              d="M51 36h3M51 37h3M51 38h3M48 42h3M48 43h3M48 44h3M48 45h3M48 46h3M48 47h3"/>
                        <path stroke="#ec00a5"
                              d="M21 45h3M39 45h3M21 46h3M39 46h3M21 47h3M39 47h3M18 57h3M24 57h3M39 57h3M45 57h3M51 57h3M18 58h3M24 58h3M39 58h3M45 58h3M51 58h3M18 59h3M24 59h3M39 59h3M45 59h3M51 59h3"/>
                        <path stroke="#0042bb" d="M30 45h6M30 46h6M30 47h6M30 51h3M30 52h3M30 53h3"/>
                    </g>
                    <g id="frame2-[[${id}]]">
                        <path stroke="#000000"
                              d="M24 3h9M36 3h9M24 4h9M36 4h9M24 5h9M36 5h9M21 6h9M33 6h3M39 6h3M21 7h9M33 7h3M39 7h3M21 8h9M33 8h3M39 8h3M21 9h3M27 9h6M39 9h3M21 10h3M27 10h6M39 10h3M21 11h3M27 11h6M39 11h3M18 12h3M36 12h15M18 13h3M36 13h15M18 14h3M36 14h15M15 15h3M48 15h3M15 16h3M48 16h3M15 17h3M48 17h3M9 18h9M30 18h6M45 18h3M51 18h6M9 19h9M30 19h6M45 19h3M51 19h6M9 20h9M30 20h6M45 20h3M51 20h6M6 21h3M33 21h3M42 21h9M54 21h3M6 22h3M33 22h3M42 22h9M54 22h3M6 23h3M33 23h3M42 23h9M54 23h3M6 24h9M27 24h6M48 24h3M54 24h3M6 25h9M27 25h6M48 25h3M54 25h3M6 26h9M27 26h6M48 26h3M54 26h3M6 27h6M39 27h24M6 28h6M39 28h24M6 29h6M39 29h24M9 30h18M36 30h6M51 30h3M60 30h3M9 31h18M36 31h6M51 31h3M60 31h3M9 32h18M36 32h6M51 32h3M60 32h3M12 33h6M30 33h6M42 33h3M51 33h9M12 34h6M30 34h6M42 34h3M51 34h9M12 35h6M30 35h6M42 35h3M51 35h9M15 36h15M33 36h3M39 36h15M60 36h3M15 37h15M33 37h3M39 37h15M60 37h3M15 38h15M33 38h3M39 38h15M60 38h3M24 39h3M30 39h3M36 39h3M42 39h9M54 39h9M24 40h3M30 40h3M36 40h3M42 40h9M54 40h9M24 41h3M30 41h3M36 41h3M42 41h9M54 41h9M21 42h3M27 42h3M33 42h3M42 42h6M54 42h3M21 43h3M27 43h3M33 43h3M42 43h6M54 43h3M21 44h3M27 44h3M33 44h3M42 44h6M54 44h3M18 45h24M45 45h3M54 45h3M18 46h24M45 46h3M54 46h3M18 47h24M45 47h3M54 47h3M15 48h3M24 48h6M36 48h3M42 48h6M51 48h6M15 49h3M24 49h6M36 49h3M42 49h6M51 49h6M15 50h3M24 50h6M36 50h3M42 50h6M51 50h6M15 51h12M30 51h15M48 51h3M54 51h3M15 52h12M30 52h15M48 52h3M54 52h3M15 53h12M30 53h15M48 53h3M54 53h3M18 54h12M33 54h3M39 54h15M18 55h12M33 55h3M39 55h15M18 56h12M33 56h3M39 56h15M15 57h3M21 57h3M30 57h3M36 57h3M42 57h3M48 57h3M54 57h3M15 58h3M21 58h3M30 58h3M36 58h3M42 58h3M48 58h3M54 58h3M15 59h3M21 59h3M30 59h3M36 59h3M42 59h3M48 59h3M54 59h3M15 60h18M36 60h21M15 61h18M36 61h21M15 62h18M36 62h21"/>
                        <path stroke="#6c42ff"
                              d="M36 6h3M36 7h3M36 8h3M24 9h3M33 9h6M24 10h3M33 10h6M24 11h3M33 11h6M21 12h3M21 13h3M21 14h3M18 15h3M30 15h6M42 15h6M18 16h3M30 16h6M42 16h6M18 17h3M30 17h6M42 17h6M27 18h3M36 18h3M27 19h3M36 19h3M27 20h3M36 20h3M9 21h6M24 21h3M39 21h3M51 21h3M9 22h6M24 22h3M39 22h3M51 22h3M9 23h6M24 23h3M39 23h3M51 23h3M15 24h3M36 24h6M45 24h3M51 24h3M15 25h3M36 25h6M45 25h3M51 25h3M15 26h3M36 26h6M45 26h3M51 26h3M33 27h3M33 28h3M33 29h3M33 30h3M57 30h3M33 31h3M57 31h3M33 32h3M57 32h3M57 36h3M57 37h3M57 38h3M24 42h3M39 42h3M24 43h3M39 43h3M24 44h3M39 44h3"/>
                        <path stroke="#eef2ff"
                              d="M24 12h12M24 13h12M24 14h12M21 15h9M36 15h6M21 16h9M36 16h6M21 17h9M36 17h6M18 18h9M39 18h6M18 19h9M39 19h6M18 20h9M39 20h6M15 21h9M27 21h3M36 21h3M15 22h9M27 22h3M36 22h3M15 23h9M27 23h3M36 23h3M18 24h9M33 24h3M42 24h3M18 25h9M33 25h3M42 25h3M18 26h9M33 26h3M42 26h3M12 27h21M36 27h3M12 28h21M36 28h3M12 29h21M36 29h3M27 30h6M54 30h3M27 31h6M54 31h3M27 32h6M54 32h3M18 33h12M18 34h12M18 35h12M30 36h3M54 36h3M30 37h3M54 37h3M30 38h3M54 38h3M27 39h3M39 39h3M27 40h3M39 40h3M27 41h3M39 41h3M36 42h3M36 43h3M36 44h3M42 45h3M42 46h3M42 47h3M18 48h3M18 49h3M18 50h3M45 51h3M51 51h3M45 52h3M51 52h3M45 53h3M51 53h3M27 57h3M27 58h3M27 59h3"/>
                        <path stroke="#ffa828" d="M30 21h3M30 22h3M30 23h3"/>
                        <path stroke="#8c4c14"
                              d="M42 30h9M42 31h9M42 32h9M36 33h6M45 33h6M36 34h6M45 34h6M36 35h6M45 35h6M36 36h3M36 37h3M36 38h3M33 39h3M33 40h3M33 41h3M30 42h3M48 42h6M30 43h3M48 43h6M30 44h3M48 44h6M51 45h3M51 46h3M51 47h3M27 51h3M27 52h3M27 53h3"/>
                        <path stroke="#404040"
                              d="M51 39h3M51 40h3M51 41h3M48 45h3M48 46h3M48 47h3M48 48h3M48 49h3M48 50h3"/>
                        <path stroke="#ec00a5"
                              d="M21 48h3M39 48h3M21 49h3M39 49h3M21 50h3M39 50h3M18 57h3M24 57h3M39 57h3M45 57h3M51 57h3M18 58h3M24 58h3M39 58h3M45 58h3M51 58h3M18 59h3M24 59h3M39 59h3M45 59h3M51 59h3"/>
                        <path stroke="#0042bb" d="M30 48h6M30 49h6M30 50h6M30 54h3M30 55h3M30 56h3"/>
                    </g>
                </g>
                <g id="walking-[[${id}]]">
                    <g id="frame3-[[${id}]]">
                        <path stroke="#000000"
                              d="M27 0h18M27 1h18M27 2h18M24 3h12M39 3h3M24 4h12M39 4h3M24 5h12M39 5h3M21 6h3M27 6h6M39 6h3M21 7h3M27 7h6M39 7h3M21 8h3M27 8h6M39 8h3M18 9h3M36 9h15M18 10h3M36 10h15M18 11h3M36 11h15M15 12h3M48 12h3M15 13h3M48 13h3M15 14h3M48 14h3M9 15h9M27 15h6M45 15h3M51 15h6M9 16h9M27 16h6M45 16h3M51 16h6M9 17h9M27 17h6M45 17h3M51 17h6M6 18h3M30 18h3M42 18h9M54 18h3M6 19h3M30 19h3M42 19h9M54 19h3M6 20h3M30 20h3M42 20h9M54 20h3M6 21h9M24 21h6M48 21h3M54 21h3M6 22h9M24 22h6M48 22h3M54 22h3M6 23h9M24 23h6M48 23h3M54 23h3M6 24h6M39 24h24M6 25h6M39 25h24M6 26h6M39 26h24M9 27h18M36 27h6M51 27h3M60 27h3M9 28h18M36 28h6M51 28h3M60 28h3M9 29h18M36 29h6M51 29h3M60 29h3M12 30h6M30 30h6M42 30h3M51 30h9M12 31h6M30 31h6M42 31h3M51 31h9M12 32h6M30 32h6M42 32h3M51 32h9M15 33h15M33 33h3M39 33h15M60 33h3M15 34h15M33 34h3M39 34h15M60 34h3M15 35h15M33 35h3M39 35h15M60 35h3M24 36h3M30 36h3M36 36h3M42 36h6M51 36h12M24 37h3M30 37h3M36 37h3M42 37h6M51 37h12M24 38h3M30 38h3M36 38h3M42 38h6M51 38h12M24 39h6M33 39h3M39 39h6M51 39h3M24 40h6M33 40h3M39 40h6M51 40h3M24 41h6M33 41h3M39 41h6M51 41h3M21 42h18M42 42h3M51 42h3M21 43h18M42 43h3M51 43h3M21 44h18M42 44h3M51 44h3M18 45h3M27 45h3M33 45h3M39 45h6M48 45h6M18 46h3M27 46h3M33 46h3M39 46h6M48 46h6M18 47h3M27 47h3M33 47h3M39 47h6M48 47h6M18 48h24M45 48h3M51 48h3M18 49h24M45 49h3M51 49h3M18 50h24M45 50h3M51 50h3M18 51h6M30 51h21M18 52h6M30 52h21M18 53h6M30 53h21M15 54h3M21 54h3M30 54h3M39 54h3M51 54h3M15 55h3M21 55h3M30 55h3M39 55h3M51 55h3M15 56h3M21 56h3M30 56h3M39 56h3M51 56h3M15 57h18M36 57h3M42 57h3M48 57h3M54 57h3M15 58h18M36 58h3M42 58h3M48 58h3M54 58h3M15 59h18M36 59h3M42 59h3M48 59h3M54 59h3M36 60h21M36 61h21M36 62h21"/>
                        <path stroke="#6c42ff"
                              d="M36 3h3M36 4h3M36 5h3M24 6h3M33 6h6M24 7h3M33 7h6M24 8h3M33 8h6M21 9h3M21 10h3M21 11h3M18 12h3M27 12h6M42 12h6M18 13h3M27 13h6M42 13h6M18 14h3M27 14h6M42 14h6M24 15h3M33 15h3M24 16h3M33 16h3M24 17h3M33 17h3M9 18h6M21 18h3M36 18h3M51 18h3M9 19h6M21 19h3M36 19h3M51 19h3M9 20h6M21 20h3M36 20h3M51 20h3M15 21h3M33 21h6M45 21h3M51 21h3M15 22h3M33 22h6M45 22h3M51 22h3M15 23h3M33 23h6M45 23h3M51 23h3M30 24h3M30 25h3M30 26h3M33 27h3M57 27h3M33 28h3M57 28h3M33 29h3M57 29h3M57 33h3M57 34h3M57 35h3"/>
                        <path stroke="#eef2ff"
                              d="M24 9h12M24 10h12M24 11h12M21 12h6M33 12h9M21 13h6M33 13h9M21 14h6M33 14h9M18 15h6M36 15h9M18 16h6M36 16h9M18 17h6M36 17h9M15 18h6M24 18h3M33 18h3M39 18h3M15 19h6M24 19h3M33 19h3M39 19h3M15 20h6M24 20h3M33 20h3M39 20h3M18 21h6M30 21h3M39 21h6M18 22h6M30 22h3M39 22h6M18 23h6M30 23h3M39 23h6M12 24h18M33 24h6M12 25h18M33 25h6M12 26h18M33 26h6M27 27h6M54 27h3M27 28h6M54 28h3M27 29h6M54 29h3M18 30h12M18 31h12M18 32h12M30 33h3M54 33h3M30 34h3M54 34h3M30 35h3M54 35h3M27 36h3M39 36h3M27 37h3M39 37h3M27 38h3M39 38h3M36 39h3M36 40h3M36 41h3M39 42h3M39 43h3M39 44h3M21 45h3M21 46h3M21 47h3M42 48h3M48 48h3M42 49h3M48 49h3M42 50h3M48 50h3M24 51h6M24 52h6M24 53h6M27 54h3M42 54h9M27 55h3M42 55h9M27 56h3M42 56h9"/>
                        <path stroke="#ffa828" d="M27 18h3M27 19h3M27 20h3"/>
                        <path stroke="#8c4c14"
                              d="M42 27h9M42 28h9M42 29h9M36 30h6M45 30h6M36 31h6M45 31h6M36 32h6M45 32h6M36 33h3M36 34h3M36 35h3M33 36h3M33 37h3M33 38h3M30 39h3M45 39h6M30 40h3M45 40h6M30 41h3M45 41h6M48 42h3M48 43h3M48 44h3"/>
                        <path stroke="#404040"
                              d="M48 36h3M48 37h3M48 38h3M45 42h3M45 43h3M45 44h3M45 45h3M45 46h3M45 47h3"/>
                        <path stroke="#ec00a5"
                              d="M24 45h3M36 45h3M24 46h3M36 46h3M24 47h3M36 47h3M18 54h3M24 54h3M18 55h3M24 55h3M18 56h3M24 56h3M39 57h3M45 57h3M51 57h3M39 58h3M45 58h3M51 58h3M39 59h3M45 59h3M51 59h3"/>
                        <path stroke="#0042bb" d="M30 45h3M30 46h3M30 47h3"/>
                    </g>
                    <g id="frame4-[[${id}]]">
                        <path stroke="#000000"
                              d="M24 0h9M36 0h9M24 1h9M36 1h9M24 2h9M36 2h9M21 3h9M33 3h3M39 3h3M21 4h9M33 4h3M39 4h3M21 5h9M33 5h3M39 5h3M21 6h3M27 6h6M39 6h3M21 7h3M27 7h6M39 7h3M21 8h3M27 8h6M39 8h3M18 9h3M36 9h15M18 10h3M36 10h15M18 11h3M36 11h15M15 12h3M48 12h3M15 13h3M48 13h3M15 14h3M48 14h3M9 15h9M30 15h6M45 15h3M51 15h6M9 16h9M30 16h6M45 16h3M51 16h6M9 17h9M30 17h6M45 17h3M51 17h6M6 18h3M33 18h3M42 18h9M54 18h3M6 19h3M33 19h3M42 19h9M54 19h3M6 20h3M33 20h3M42 20h9M54 20h3M6 21h9M27 21h6M48 21h3M54 21h3M6 22h9M27 22h6M48 22h3M54 22h3M6 23h9M27 23h6M48 23h3M54 23h3M6 24h6M39 24h24M6 25h6M39 25h24M6 26h6M39 26h24M9 27h18M36 27h6M51 27h3M60 27h3M9 28h18M36 28h6M51 28h3M60 28h3M9 29h18M36 29h6M51 29h3M60 29h3M12 30h6M30 30h6M42 30h3M51 30h9M12 31h6M30 31h6M42 31h3M51 31h9M12 32h6M30 32h6M42 32h3M51 32h9M15 33h15M33 33h3M39 33h15M60 33h3M15 34h15M33 34h3M39 34h15M60 34h3M15 35h15M33 35h3M39 35h15M60 35h3M24 36h3M30 36h3M36 36h3M42 36h9M54 36h9M24 37h3M30 37h3M36 37h3M42 37h9M54 37h9M24 38h3M30 38h3M36 38h3M42 38h9M54 38h9M21 39h3M27 39h3M33 39h3M42 39h6M54 39h3M21 40h3M27 40h3M33 40h3M42 40h6M54 40h3M21 41h3M27 41h3M33 41h3M42 41h6M54 41h3M18 42h24M45 42h3M54 42h3M18 43h24M45 43h3M54 43h3M18 44h24M45 44h3M54 44h3M15 45h3M24 45h6M36 45h3M42 45h6M51 45h6M15 46h3M24 46h6M36 46h3M42 46h6M51 46h6M15 47h3M24 47h6M36 47h3M42 47h6M51 47h6M15 48h12M30 48h15M48 48h3M54 48h3M15 49h12M30 49h15M48 49h3M54 49h3M15 50h12M30 50h15M48 50h3M54 50h3M18 51h12M33 51h6M42 51h12M18 52h12M33 52h6M42 52h12M18 53h12M33 53h6M42 53h12M21 54h6M30 54h6M39 54h3M45 54h3M51 54h3M21 55h6M30 55h6M39 55h3M45 55h3M51 55h3M21 56h6M30 56h6M39 56h3M45 56h3M51 56h3M18 57h3M24 57h3M33 57h21M18 58h3M24 58h3M33 58h21M18 59h3M24 59h3M33 59h21M18 60h18M18 61h18M18 62h18"/>
                        <path stroke="#6c42ff"
                              d="M36 3h3M36 4h3M36 5h3M24 6h3M33 6h6M24 7h3M33 7h6M24 8h3M33 8h6M21 9h3M21 10h3M21 11h3M18 12h3M30 12h6M42 12h6M18 13h3M30 13h6M42 13h6M18 14h3M30 14h6M42 14h6M27 15h3M36 15h3M27 16h3M36 16h3M27 17h3M36 17h3M9 18h6M24 18h3M39 18h3M51 18h3M9 19h6M24 19h3M39 19h3M51 19h3M9 20h6M24 20h3M39 20h3M51 20h3M15 21h3M36 21h6M45 21h3M51 21h3M15 22h3M36 22h6M45 22h3M51 22h3M15 23h3M36 23h6M45 23h3M51 23h3M33 24h3M33 25h3M33 26h3M33 27h3M57 27h3M33 28h3M57 28h3M33 29h3M57 29h3M57 33h3M57 34h3M57 35h3M24 39h3M39 39h3M24 40h3M39 40h3M24 41h3M39 41h3"/>
                        <path stroke="#eef2ff"
                              d="M24 9h12M24 10h12M24 11h12M21 12h9M36 12h6M21 13h9M36 13h6M21 14h9M36 14h6M18 15h9M39 15h6M18 16h9M39 16h6M18 17h9M39 17h6M15 18h9M27 18h3M36 18h3M15 19h9M27 19h3M36 19h3M15 20h9M27 20h3M36 20h3M18 21h9M33 21h3M42 21h3M18 22h9M33 22h3M42 22h3M18 23h9M33 23h3M42 23h3M12 24h21M36 24h3M12 25h21M36 25h3M12 26h21M36 26h3M27 27h6M54 27h3M27 28h6M54 28h3M27 29h6M54 29h3M18 30h12M18 31h12M18 32h12M30 33h3M54 33h3M30 34h3M54 34h3M30 35h3M54 35h3M27 36h3M39 36h3M27 37h3M39 37h3M27 38h3M39 38h3M36 39h3M36 40h3M36 41h3M42 42h3M42 43h3M42 44h3M18 45h3M18 46h3M18 47h3M45 48h3M51 48h3M45 49h3M51 49h3M45 50h3M51 50h3M39 51h3M39 52h3M39 53h3M27 54h3M27 55h3M27 56h3M30 57h3M30 58h3M30 59h3"/>
                        <path stroke="#ffa828" d="M30 18h3M30 19h3M30 20h3"/>
                        <path stroke="#8c4c14"
                              d="M42 27h9M42 28h9M42 29h9M36 30h6M45 30h6M36 31h6M45 31h6M36 32h6M45 32h6M36 33h3M36 34h3M36 35h3M33 36h3M33 37h3M33 38h3M30 39h3M48 39h6M30 40h3M48 40h6M30 41h3M48 41h6M51 42h3M51 43h3M51 44h3M27 48h3M27 49h3M27 50h3"/>
                        <path stroke="#404040"
                              d="M51 36h3M51 37h3M51 38h3M48 42h3M48 43h3M48 44h3M48 45h3M48 46h3M48 47h3"/>
                        <path stroke="#ec00a5"
                              d="M21 45h3M39 45h3M21 46h3M39 46h3M21 47h3M39 47h3M36 54h3M42 54h3M48 54h3M36 55h3M42 55h3M48 55h3M36 56h3M42 56h3M48 56h3M21 57h3M27 57h3M21 58h3M27 58h3M21 59h3M27 59h3"/>
                        <path stroke="#0042bb" d="M30 45h6M30 46h6M30 47h6M30 51h3M30 52h3M30 53h3"/>
                    </g>
                </g>
            </svg>
            <svg viewBox="0 0 100 30" width="100" height="30" x="0" y="0">
                <g id="username-[[${id}]]">
                    <rect x="0" y="0" width="100" height="20" fill="black" fill-opacity="0.8" rx="5"/>
                    <svg x="4" y="2.5" width="15" height="15" viewBox="0 0 100 100">
                        <path fill-rule="evenodd" clip-rule="evenodd"
                              d="M48.854 0C21.839 0 0 22 0 49.217c0 21.756 13.993 40.172 33.405 46.69 2.427.49 3.316-1.059 3.316-2.362 0-1.141-.08-5.052-.08-9.127-13.59 2.934-16.42-5.867-16.42-5.867-2.184-5.704-5.42-7.17-5.42-7.17-4.448-3.015.324-3.015.324-3.015 4.934.326 7.523 5.052 7.523 5.052 4.367 7.496 11.404 5.378 14.235 4.074.404-3.178 1.699-5.378 3.074-6.6-10.839-1.141-22.243-5.378-22.243-24.283 0-5.378 1.94-9.778 5.014-13.2-.485-1.222-2.184-6.275.486-13.038 0 0 4.125-1.304 13.426 5.052a46.97 46.97 0 0 1 12.214-1.63c4.125 0 8.33.571 12.213 1.63 9.302-6.356 13.427-5.052 13.427-5.052 2.67 6.763.97 11.816.485 13.038 3.155 3.422 5.015 7.822 5.015 13.2 0 18.905-11.404 23.06-22.324 24.283 1.78 1.548 3.316 4.481 3.316 9.126 0 6.6-.08 11.897-.08 13.526 0 1.304.89 2.853 3.316 2.364 19.412-6.52 33.405-24.935 33.405-46.691C97.707 22 75.788 0 48.854 0z"
                              fill="#fff"/>
                    </svg>
                     <text x="25" y="11" dominant-baseline="middle" style="fill:white" font-size="13">
                        [[${#strings.abbreviate(username, 12)}]]
                    </text>
                    <rect x="0" y="23" width="[[${exp}]]" height="2" fill="#48ff00" rx="1"/>
                </g>
            </svg>
        </g>
    </a>
    <style>
        #frame1-[[${id}]] {
        animation: 1s frameToggle infinite;
        }
        #frame2-[[${id}]] {
        animation: 1s frameToggle infinite reverse;
        }
        #frame3-[[${id}]] {
        animation: 1s frameToggle infinite;
        }
        #frame4-[[${id}]] {
        animation: 1s frameToggle infinite reverse;
        }
        #standing-[[${id}]] {
        animation: standingToggle [[${motion.duration}]]s infinite;
        }
        #walking-[[${id}]] {
        animation: walkingToggle [[${motion.duration}]]s infinite;
        }
        #body-[[${id}]] {
        animation: move-body-[[${id}]] [[${motion.duration}]]s infinite;
        }
        #username-[[${id}]] {
        animation: move-username-[[${id}]] [[${motion.duration}]]s infinite;
        }
        @keyframes move-body-[[${id}]] {
        0%, 10% {
        transform: translate([[${motion.positions[0].x}]]%, [[${y}]]%) scaleX([[${motion.positions[0].direction}]]);
        }
        20%, 30% {
        transform: translate([[${motion.positions[1].x}]]%, [[${y}]]%) scaleX([[${motion.positions[1].direction}]]);
        }
        40%, 50% {
        transform: translate([[${motion.positions[2].x}]]%, [[${y}]]%) scaleX([[${motion.positions[2].direction}]]);
        }
        50.01% {
        transform: translate([[${motion.positions[3].x}]]%, [[${y}]]%) scaleX([[${motion.positions[3].direction}]]);
        }
        60%, 70% {
        transform: translate([[${motion.positions[4].x}]]%, [[${y}]]%) scaleX([[${motion.positions[4].direction}]]);
        }
        80%, 100% {
        transform: translate([[${motion.positions[5].x}]]%, [[${y}]]%) scaleX([[${motion.positions[5].direction}]]);
        }
        }
        @keyframes move-username-[[${id}]] {
        0%, 10% {
        transform: scaleX([[${motion.positions[0].direction}]])
        translateX([[${motion.positions[0].direction > 0 ? 0: -100}]]%);
        }
        20%, 30% {
        transform: scaleX([[${motion.positions[1].direction}]])
        translateX([[${motion.positions[1].direction > 0 ? 0: -100}]]%);
        }
        40%, 50% {
        transform: scaleX([[${motion.positions[2].direction}]])
        translateX([[${motion.positions[2].direction > 0 ? 0: -100}]]%);
        }
        50.01% {
        transform: scaleX([[${motion.positions[3].direction}]])
        translateX([[${motion.positions[3].direction > 0 ? 0: -100}]]%);
        }
        60%, 70% {
        transform: scaleX([[${motion.positions[4].direction}]])
        translateX([[${motion.positions[4].direction > 0 ? 0: -100}]]%);
        }
        80%, 100% {
        transform: scaleX([[${motion.positions[5].direction}]])
        translateX([[${motion.positions[5].direction > 0 ? 0: -100}]]%);
        }
        }
    </style>
</svg>
