<svg fill="none" overflow="visible" xmlns="http://www.w3.org/2000/svg">
    <a href="https://github.com/[[${username}]]">
        <g id="body-[[${id}]]">
            <svg viewBox="0 0 100 100" width="100" height="100" x="35" y="45">
                <g id="frame1-[[${id}]]">
                    <path stroke="#000000"
                          d="M12 0h3M12 1h3M12 2h3M6 3h3M18 3h6M6 4h3M18 4h6M6 5h3M18 5h6M3 6h3M9 6h6M24 6h3M3 7h3M9 7h6M24 7h3M3 8h3M9 8h6M24 8h3M3 9h6M12 9h6M3 10h6M12 10h6M3 11h6M12 11h6M0 12h6M9 12h3M18 12h3M0 13h6M9 13h3M18 13h3M0 14h6M9 14h3M18 14h3M0 15h3M6 15h3M12 15h6M27 15h3M0 16h3M6 16h3M12 16h6M27 16h3M0 17h3M6 17h3M12 17h6M27 17h3M0 18h3M6 18h6M15 18h6M24 18h3M0 19h3M6 19h6M15 19h6M24 19h3M0 20h3M6 20h6M15 20h6M24 20h3M0 21h6M12 21h3M24 21h3M0 22h6M12 22h3M24 22h3M0 23h6M12 23h3M24 23h3M0 24h3M12 24h3M18 24h6M0 25h3M12 25h3M18 25h6M0 26h3M12 26h3M18 26h6M6 27h3M15 27h6M6 28h3M15 28h6M6 29h3M15 29h6"/>
                    <path stroke="#010101"
                          d="M9 3h3M9 4h3M9 5h3M9 15h3M9 16h3M9 17h3M6 21h6M6 22h6M6 23h6M6 24h3M6 25h3M6 26h3M3 27h3M9 27h3M3 28h3M9 28h3M3 29h3M9 29h3"/>
                    <path stroke="#030303" d="M15 6h3M15 7h3M15 8h3M21 18h3M21 19h3M21 20h3"/>
                    <path stroke="#ffffff"
                          d="M9 9h3M9 10h3M9 11h3M6 12h3M12 12h6M6 13h3M12 13h6M6 14h3M12 14h6M18 15h6M18 16h6M18 17h6M18 21h6M18 22h6M18 23h6M3 24h3M9 24h3M15 24h3M3 25h3M9 25h3M15 25h3M3 26h3M9 26h3M15 26h3"/>
                    <path stroke="#020202"
                          d="M18 9h3M18 10h3M18 11h3M21 12h3M21 13h3M21 14h3M3 15h3M24 15h3M3 16h3M24 16h3M3 17h3M24 17h3M15 21h3M15 22h3M15 23h3"/>
                    <path stroke="#c0c0ff" d="M3 18h3M12 18h3M3 19h3M12 19h3M3 20h3M12 20h3"/>
                    <path stroke="#040404" d="M12 27h3M12 28h3M12 29h3"/>
                </g>
                <g id="frame2-[[${id}]]">
                    <path stroke="#000000"
                          d="M6 0h3M6 1h3M6 2h3M3 3h3M15 3h6M3 4h3M15 4h6M3 5h3M15 5h6M3 6h6M21 6h6M3 7h6M21 7h6M3 8h6M21 8h6M6 9h3M12 9h6M6 10h3M12 10h6M6 11h3M12 11h6M0 12h6M18 12h3M0 13h6M18 13h3M0 14h6M18 14h3M0 15h3M6 15h3M12 15h6M0 16h3M6 16h3M12 16h6M0 17h3M6 17h3M12 17h6M0 18h3M6 18h6M15 18h6M24 18h3M0 19h3M6 19h6M15 19h6M24 19h3M0 20h3M6 20h6M15 20h6M24 20h3M0 21h6M12 21h3M24 21h6M0 22h6M12 22h3M24 22h6M0 23h6M12 23h3M24 23h6M0 24h3M12 24h3M18 24h6M0 25h3M12 25h3M18 25h6M0 26h3M12 26h3M18 26h6M6 27h3M15 27h6M6 28h3M15 28h6M6 29h3M15 29h6"/>
                    <path stroke="#010101"
                          d="M9 0h3M9 1h3M9 2h3M9 12h3M9 13h3M9 14h3M9 15h3M9 16h3M9 17h3M6 21h6M6 22h6M6 23h6M6 24h3M6 25h3M6 26h3M3 27h3M9 27h3M3 28h3M9 28h3M3 29h3M9 29h3"/>
                    <path stroke="#030303" d="M9 6h3M15 6h3M9 7h3M15 7h3M9 8h3M15 8h3M21 18h3M21 19h3M21 20h3"/>
                    <path stroke="#020202"
                          d="M3 9h3M18 9h3M3 10h3M18 10h3M3 11h3M18 11h3M21 12h3M21 13h3M21 14h3M3 15h3M24 15h3M3 16h3M24 16h3M3 17h3M24 17h3M15 21h3M15 22h3M15 23h3"/>
                    <path stroke="#ffffff"
                          d="M9 9h3M9 10h3M9 11h3M6 12h3M12 12h6M6 13h3M12 13h6M6 14h3M12 14h6M18 15h6M18 16h6M18 17h6M18 21h6M18 22h6M18 23h6M3 24h3M9 24h3M15 24h3M3 25h3M9 25h3M15 25h3M3 26h3M9 26h3M15 26h3"/>
                    <path stroke="#c0c0ff" d="M3 18h3M12 18h3M3 19h3M12 19h3M3 20h3M12 20h3"/>
                    <path stroke="#040404" d="M12 27h3M12 28h3M12 29h3"/>
                </g>
            </svg>
            <svg viewBox="0 0 100 30" width="100" height="30" x="0" y="0">
                <g id="username-[[${id}]]">
                    <rect x="0" y="0" width="100" height="20" fill="black" fill-opacity="0.8" rx="5"/>
                    <svg x="4" y="2.5" width="15" height="15" viewBox="0 0 100 100">
                        <path fill-rule="evenodd" clip-rule="evenodd"
                              d="M48.854 0C21.839 0 0 22 0 49.217c0 21.756 13.993 40.172 33.405 46.69 2.427.49 3.316-1.059 3.316-2.362 0-1.141-.08-5.052-.08-9.127-13.59 2.934-16.42-5.867-16.42-5.867-2.184-5.704-5.42-7.17-5.42-7.17-4.448-3.015.324-3.015.324-3.015 4.934.326 7.523 5.052 7.523 5.052 4.367 7.496 11.404 5.378 14.235 4.074.404-3.178 1.699-5.378 3.074-6.6-10.839-1.141-22.243-5.378-22.243-24.283 0-5.378 1.94-9.778 5.014-13.2-.485-1.222-2.184-6.275.486-13.038 0 0 4.125-1.304 13.426 5.052a46.97 46.97 0 0 1 12.214-1.63c4.125 0 8.33.571 12.213 1.63 9.302-6.356 13.427-5.052 13.427-5.052 2.67 6.763.97 11.816.485 13.038 3.155 3.422 5.015 7.822 5.015 13.2 0 18.905-11.404 23.06-22.324 24.283 1.78 1.548 3.316 4.481 3.316 9.126 0 6.6-.08 11.897-.08 13.526 0 1.304.89 2.853 3.316 2.364 19.412-6.52 33.405-24.935 33.405-46.691C97.707 22 75.788 0 48.854 0z"
                              fill="#fff"/>
                    </svg>
                    <text x="25" y="11" dominant-baseline="middle" style="fill:white" font-size="13">
                        [[${#strings.abbreviate(username, 12)}]]
                    </text>
                    <rect x="0" y="23" width="[[${exp}]]" height="2" fill="#48ff00" rx="1"/>
                </g>
            </svg>
        </g>
    </a>
    <style>
        #frame1-[[${id}]] {
        animation: 1s frameToggle infinite;
        }
        #frame2-[[${id}]] {
        animation: 1s frameToggle infinite reverse;
        }
        #body-[[${id}]] {
        animation: move-body-[[${id}]] [[${motion.duration}]]s infinite;
        }
        #username-[[${id}]] {
        animation: move-username-[[${id}]] [[${motion.duration}]]s infinite;
        }
        @keyframes move-body-[[${id}]] {
        0%, 10% {
        transform: translate([[${motion.positions[0].x}]]%, [[${y}]]%) scaleX([[${motion.positions[0].direction}]]);
        }
        20%, 30% {
        transform: translate([[${motion.positions[1].x}]]%, [[${y}]]%) scaleX([[${motion.positions[1].direction}]]);
        }
        40%, 50% {
        transform: translate([[${motion.positions[2].x}]]%, [[${y}]]%) scaleX([[${motion.positions[2].direction}]]);
        }
        50.01% {
        transform: translate([[${motion.positions[3].x}]]%, [[${y}]]%) scaleX([[${motion.positions[3].direction}]]);
        }
        60%, 70% {
        transform: translate([[${motion.positions[4].x}]]%, [[${y}]]%) scaleX([[${motion.positions[4].direction}]]);
        }
        80%, 100% {
        transform: translate([[${motion.positions[5].x}]]%, [[${y}]]%) scaleX([[${motion.positions[5].direction}]]);
        }
        }
        @keyframes move-username-[[${id}]] {
        0%, 10% {
        transform: scaleX([[${motion.positions[0].direction}]])
        translateX([[${motion.positions[0].direction > 0 ? 0: -100}]]%);
        }
        20%, 30% {
        transform: scaleX([[${motion.positions[1].direction}]])
        translateX([[${motion.positions[1].direction > 0 ? 0: -100}]]%);
        }
        40%, 50% {
        transform: scaleX([[${motion.positions[2].direction}]])
        translateX([[${motion.positions[2].direction > 0 ? 0: -100}]]%);
        }
        50.01% {
        transform: scaleX([[${motion.positions[3].direction}]])
        translateX([[${motion.positions[3].direction > 0 ? 0: -100}]]%);
        }
        60%, 70% {
        transform: scaleX([[${motion.positions[4].direction}]])
        translateX([[${motion.positions[4].direction > 0 ? 0: -100}]]%);
        }
        80%, 100% {
        transform: scaleX([[${motion.positions[5].direction}]])
        translateX([[${motion.positions[5].direction > 0 ? 0: -100}]]%);
        }
        }
    </style>
</svg>
