<svg fill="none" overflow="visible" xmlns="http://www.w3.org/2000/svg">
    <a href="https://github.com/[[${username}]]">
        <g id="body-[[${id}]]">
            <svg viewBox="0 0 100 100" width="100" height="100" x="0" y="4">
                <g id="standing-[[${id}]]">
                    <g id="frame1-[[${id}]]">
                        <path stroke="#000000"
                              d="M64 21h12M64 22h12M64 23h12M43 24h6M61 24h6M73 24h3M43 25h6M61 25h6M73 25h3M43 26h6M61 26h6M73 26h3M28 27h6M40 27h3M46 27h3M55 27h6M64 27h3M70 27h9M85 27h12M28 28h6M40 28h3M46 28h3M55 28h6M64 28h3M70 28h9M85 28h12M28 29h6M40 29h3M46 29h3M55 29h6M64 29h3M70 29h9M85 29h12M28 30h3M34 30h6M43 30h3M49 30h6M61 30h12M79 30h6M94 30h3M28 31h3M34 31h6M43 31h3M49 31h6M61 31h12M79 31h6M94 31h3M28 32h3M34 32h6M43 32h3M49 32h6M61 32h12M79 32h6M94 32h3M28 33h3M37 33h3M43 33h6M52 33h3M58 33h3M73 33h3M79 33h3M91 33h3M28 34h3M37 34h3M43 34h6M52 34h3M58 34h3M73 34h3M79 34h3M91 34h3M28 35h3M37 35h3M43 35h6M52 35h3M58 35h3M73 35h3M79 35h3M91 35h3M31 36h3M40 36h12M55 36h12M76 36h6M88 36h3M31 37h3M40 37h12M55 37h12M76 37h6M88 37h3M31 38h3M40 38h12M55 38h12M76 38h6M88 38h3M31 39h3M40 39h3M49 39h6M58 39h6M67 39h3M82 39h3M88 39h3M31 40h3M40 40h3M49 40h6M58 40h6M67 40h3M82 40h3M88 40h3M31 41h3M40 41h3M49 41h6M58 41h6M67 41h3M82 41h3M88 41h3M28 42h3M34 42h9M61 42h3M70 42h6M85 42h12M28 43h3M34 43h9M61 43h3M70 43h6M85 43h12M28 44h3M34 44h9M61 44h3M70 44h6M85 44h12M22 45h9M46 45h6M58 45h9M76 45h3M85 45h6M97 45h3M22 46h9M46 46h6M58 46h9M76 46h3M85 46h6M97 46h3M22 47h9M46 47h6M58 47h9M76 47h3M85 47h6M97 47h3M19 48h3M25 48h3M43 48h3M61 48h15M79 48h3M85 48h3M91 48h9M19 49h3M25 49h3M43 49h3M61 49h15M79 49h3M85 49h3M91 49h9M19 50h3M25 50h3M43 50h3M61 50h15M79 50h3M85 50h3M91 50h9M16 51h3M25 51h15M43 51h3M55 51h6M64 51h6M76 51h6M85 51h3M91 51h3M16 52h3M25 52h15M43 52h3M55 52h6M64 52h6M76 52h6M85 52h3M91 52h3M16 53h3M25 53h15M43 53h3M55 53h6M64 53h6M76 53h6M85 53h3M91 53h3M16 54h3M25 54h3M40 54h3M58 54h3M67 54h6M76 54h6M88 54h6M16 55h3M25 55h3M40 55h3M58 55h3M67 55h6M76 55h6M88 55h6M16 56h3M25 56h3M40 56h3M58 56h3M67 56h6M76 56h6M88 56h6M13 57h3M25 57h3M43 57h6M52 57h3M58 57h9M73 57h9M88 57h6M13 58h3M25 58h3M43 58h6M52 58h3M58 58h9M73 58h9M88 58h6M13 59h3M25 59h3M43 59h6M52 59h3M58 59h9M73 59h9M88 59h6M13 60h3M25 60h6M40 60h3M49 60h3M55 60h3M64 60h3M79 60h6M91 60h3M13 61h3M25 61h6M40 61h3M49 61h3M55 61h3M64 61h3M79 61h6M91 61h3M13 62h3M25 62h6M40 62h3M49 62h3M55 62h3M64 62h3M79 62h6M91 62h3M13 63h3M25 63h3M31 63h12M49 63h3M55 63h3M61 63h6M73 63h12M91 63h3M13 64h3M25 64h3M31 64h12M49 64h3M55 64h3M61 64h6M73 64h12M91 64h3M13 65h3M25 65h3M31 65h12M49 65h3M55 65h3M61 65h6M73 65h12M91 65h3M10 66h3M25 66h9M43 66h3M49 66h12M64 66h9M82 66h3M91 66h3M10 67h3M25 67h9M43 67h3M49 67h12M64 67h9M82 67h3M91 67h3M10 68h3M25 68h9M43 68h3M49 68h12M64 68h9M82 68h3M91 68h3M10 69h3M28 69h18M49 69h9M64 69h3M82 69h3M91 69h3M10 70h3M28 70h18M49 70h9M64 70h3M82 70h3M91 70h3M10 71h3M28 71h18M49 71h9M64 71h3M82 71h3M91 71h3M10 72h3M28 72h12M46 72h6M64 72h9M76 72h9M88 72h3M10 73h3M28 73h12M46 73h6M64 73h9M76 73h9M88 73h3M10 74h3M28 74h12M46 74h6M64 74h9M76 74h9M88 74h3M7 75h3M13 75h3M28 75h3M37 75h3M43 75h3M52 75h9M64 75h3M70 75h6M79 75h6M88 75h3M7 76h3M13 76h3M28 76h3M37 76h3M43 76h3M52 76h9M64 76h3M70 76h6M79 76h6M88 76h3M7 77h3M13 77h3M28 77h3M37 77h3M43 77h3M52 77h9M64 77h3M70 77h6M79 77h6M88 77h3M7 78h3M13 78h3M28 78h30M61 78h3M70 78h3M79 78h9M91 78h3M7 79h3M13 79h3M28 79h30M61 79h3M70 79h3M79 79h9M91 79h3M7 80h3M13 80h3M28 80h30M61 80h3M70 80h3M79 80h9M91 80h3M10 81h21M37 81h6M52 81h3M58 81h6M67 81h6M76 81h3M82 81h3M91 81h3M10 82h21M37 82h6M52 82h3M58 82h6M67 82h6M76 82h3M82 82h3M91 82h3M10 83h21M37 83h6M52 83h3M58 83h6M67 83h6M76 83h3M82 83h3M91 83h3M7 84h3M31 84h6M40 84h3M52 84h3M61 84h33M7 85h3M31 85h6M40 85h3M52 85h3M61 85h33M7 86h3M31 86h6M40 86h3M52 86h3M61 86h33M7 87h48M61 87h21M7 88h48M61 88h21M7 89h48M61 89h21"/>
                        <path stroke="#2f681c"
                              d="M67 24h6M67 25h6M67 26h6M67 27h3M67 28h3M67 29h3M85 30h9M85 31h9M85 32h9M61 33h12M82 33h9M61 34h12M82 34h9M61 35h12M82 35h9M67 36h9M82 36h6M67 37h9M82 37h6M67 38h9M82 38h6M70 39h12M85 39h3M70 40h12M85 40h3M70 41h12M85 41h3M76 42h9M76 43h9M76 44h9M79 45h6M91 45h6M79 46h6M91 46h6M79 47h6M91 47h6M82 48h3M82 49h3M82 50h3M82 51h3M82 52h3M82 53h3M82 54h6M82 55h6M82 56h6M82 57h6M82 58h6M82 59h6M85 60h6M85 61h6M85 62h6M85 63h6M85 64h6M85 65h6M85 66h6M85 67h6M85 68h6M85 69h6M85 70h6M85 71h6M85 72h3M85 73h3M85 74h3M85 75h3M85 76h3M85 77h3"/>
                        <path stroke="#ff7b24"
                              d="M43 27h3M61 27h3M43 28h3M61 28h3M43 29h3M61 29h3M40 30h3M55 30h6M40 31h3M55 31h6M40 32h3M55 32h6M40 33h3M55 33h3M40 34h3M55 34h3M40 35h3M55 35h3M52 36h3M52 37h3M52 38h3M43 39h6M55 39h3M43 40h6M55 40h3M43 41h6M55 41h3M31 42h3M43 42h18M31 43h3M43 43h18M31 44h3M43 44h18M31 45h15M52 45h6M31 46h15M52 46h6M31 47h15M52 47h6M28 48h15M52 48h9M28 49h15M52 49h9M28 50h15M52 50h9M40 51h3M52 51h3M40 52h3M52 52h3M40 53h3M52 53h3M43 54h15M43 55h15M43 56h15M49 57h3M55 57h3M49 58h3M55 58h3M49 59h3M55 59h3M52 60h3M52 61h3M52 62h3M52 63h3M52 64h3M52 65h3M73 66h9M73 67h9M73 68h9M67 69h15M67 70h15M67 71h15M73 72h3M73 73h3M73 74h3M58 78h3M88 78h3M58 79h3M88 79h3M58 80h3M88 80h3M43 81h9M85 81h6M43 82h9M85 82h6M43 83h9M85 83h6M43 84h9M43 85h9M43 86h9"/>
                        <path stroke="#f8ebcb"
                              d="M31 30h3M31 31h3M31 32h3M31 33h6M31 34h6M31 35h6M34 36h6M34 37h6M34 38h6M34 39h6M64 39h3M34 40h6M64 40h3M34 41h6M64 41h3M64 42h6M64 43h6M64 44h6M67 45h9M67 46h9M67 47h9M76 48h3M76 49h3M76 50h3M43 60h6M43 61h6M43 62h6M28 63h3M43 63h6M28 64h3M43 64h6M28 65h3M43 65h6M46 66h3M46 67h3M46 68h3M46 69h3M46 70h3M46 71h3M67 75h3M76 75h3M67 76h3M76 76h3M67 77h3M76 77h3M64 78h6M73 78h6M64 79h6M73 79h6M64 80h6M73 80h6M64 81h3M73 81h3M79 81h3M64 82h3M73 82h3M79 82h3M64 83h3M73 83h3M79 83h3M37 84h3M37 85h3M37 86h3"/>
                        <path stroke="#848c94"
                              d="M73 30h6M73 31h6M73 32h6M49 33h3M76 33h3M49 34h3M76 34h3M49 35h3M76 35h3M22 48h3M88 48h3M22 49h3M88 49h3M22 50h3M88 50h3M19 51h6M70 51h6M88 51h3M19 52h6M70 52h6M88 52h3M19 53h6M70 53h6M88 53h3M19 54h6M73 54h3M19 55h6M73 55h3M19 56h6M73 56h3M16 57h6M16 58h6M16 59h6M16 60h6M16 61h6M16 62h6M16 63h6M16 64h6M16 65h6M13 66h9M13 67h9M13 68h9M13 69h9M25 69h3M13 70h9M25 70h3M13 71h9M25 71h3M13 72h12M13 73h12M13 74h12M10 75h3M16 75h6M10 76h3M16 76h6M10 77h3M16 77h6M10 78h3M16 78h6M10 79h3M16 79h6M10 80h3M16 80h6M10 84h15M10 85h15M10 86h15"/>
                        <path stroke="#ffffff" d="M46 48h3M46 49h3M46 50h3"/>
                        <path stroke="#0066ff" d="M49 48h3M49 49h3M49 50h3M46 51h6M46 52h6M46 53h6"/>
                        <path stroke="#642c1c" d="M61 51h3M61 52h3M61 53h3M61 54h6M61 55h6M61 56h6"/>
                        <path stroke="#363636" d="M28 54h9M28 55h9M28 56h9M31 57h3M31 58h3M31 59h3"/>
                        <path stroke="#74accc"
                              d="M37 54h3M37 55h3M37 56h3M28 57h3M34 57h9M67 57h6M28 58h3M34 58h9M67 58h6M28 59h3M34 59h9M67 59h6M31 60h9M67 60h12M31 61h9M67 61h12M31 62h9M67 62h12M67 63h6M67 64h6M67 65h6M34 66h9M61 66h3M34 67h9M61 67h3M34 68h9M61 68h3M58 69h6M58 70h6M58 71h6M40 72h6M52 72h12M40 73h6M52 73h12M40 74h6M52 74h12M40 75h3M46 75h6M61 75h3M40 76h3M46 76h6M61 76h3M40 77h3M46 77h6M61 77h3"/>
                        <path stroke="#545a61"
                              d="M22 57h3M22 58h3M22 59h3M22 60h3M22 61h3M22 62h3M22 63h3M22 64h3M22 65h3M22 66h3M22 67h3M22 68h3M22 69h3M22 70h3M22 71h3M25 72h3M25 73h3M25 74h3M22 75h6M31 75h6M22 76h6M31 76h6M22 77h6M31 77h6M22 78h6M22 79h6M22 80h6M25 84h6M25 85h6M25 86h6"/>
                        <path stroke="#ccd4d4" d="M58 60h6M58 61h6M58 62h6M58 63h3M58 64h3M58 65h3"/>
                    </g>
                    <g id="frame2-[[${id}]]">
                        <path stroke="#000000"
                              d="M43 21h6M61 21h15M43 22h6M61 22h15M43 23h6M61 23h15M28 24h6M40 24h3M46 24h3M55 24h6M64 24h3M73 24h3M28 25h6M40 25h3M46 25h3M55 25h6M64 25h3M73 25h3M28 26h6M40 26h3M46 26h3M55 26h6M64 26h3M73 26h3M28 27h3M34 27h6M43 27h3M49 27h6M61 27h3M70 27h9M85 27h12M28 28h3M34 28h6M43 28h3M49 28h6M61 28h3M70 28h9M85 28h12M28 29h3M34 29h6M43 29h3M49 29h6M61 29h3M70 29h9M85 29h12M28 30h3M37 30h3M43 30h6M52 30h3M58 30h15M79 30h6M94 30h3M28 31h3M37 31h3M43 31h6M52 31h3M58 31h15M79 31h6M94 31h3M28 32h3M37 32h3M43 32h6M52 32h3M58 32h15M79 32h6M94 32h3M31 33h3M40 33h12M55 33h3M73 33h3M79 33h3M91 33h3M31 34h3M40 34h12M55 34h3M73 34h3M79 34h3M91 34h3M31 35h3M40 35h12M55 35h3M73 35h3M79 35h3M91 35h3M31 36h3M40 36h3M49 36h6M58 36h9M76 36h6M88 36h3M31 37h3M40 37h3M49 37h6M58 37h9M76 37h6M88 37h3M31 38h3M40 38h3M49 38h6M58 38h9M76 38h6M88 38h3M28 39h3M34 39h9M61 39h3M67 39h3M82 39h3M88 39h3M28 40h3M34 40h9M61 40h3M67 40h3M82 40h3M88 40h3M28 41h3M34 41h9M61 41h3M67 41h3M82 41h3M88 41h3M28 42h3M46 42h6M58 42h6M70 42h6M85 42h12M28 43h3M46 43h6M58 43h6M70 43h6M85 43h12M28 44h3M46 44h6M58 44h6M70 44h6M85 44h12M19 45h9M43 45h3M61 45h6M76 45h3M85 45h6M97 45h3M19 46h9M43 46h3M61 46h6M76 46h3M85 46h6M97 46h3M19 47h9M43 47h3M61 47h6M76 47h3M85 47h6M97 47h3M16 48h3M25 48h15M43 48h3M55 48h21M79 48h3M85 48h3M91 48h9M16 49h3M25 49h15M43 49h3M55 49h21M79 49h3M85 49h3M91 49h9M16 50h3M25 50h15M43 50h3M55 50h21M79 50h3M85 50h3M91 50h9M13 51h3M25 51h3M40 51h3M58 51h3M64 51h6M76 51h6M85 51h3M91 51h3M13 52h3M25 52h3M40 52h3M58 52h3M64 52h6M76 52h6M85 52h3M91 52h3M13 53h3M25 53h3M40 53h3M58 53h3M64 53h6M76 53h6M85 53h3M91 53h3M13 54h3M25 54h3M43 54h6M52 54h3M58 54h3M67 54h6M76 54h6M88 54h6M13 55h3M25 55h3M43 55h6M52 55h3M58 55h3M67 55h6M76 55h6M88 55h6M13 56h3M25 56h3M43 56h6M52 56h3M58 56h3M67 56h6M76 56h6M88 56h6M10 57h3M25 57h6M40 57h3M49 57h3M55 57h3M61 57h6M73 57h9M88 57h6M10 58h3M25 58h6M40 58h3M49 58h3M55 58h3M61 58h6M73 58h9M88 58h6M10 59h3M25 59h6M40 59h3M49 59h3M55 59h3M61 59h6M73 59h9M88 59h6M10 60h3M25 60h3M31 60h12M49 60h3M55 60h3M64 60h3M79 60h6M91 60h3M10 61h3M25 61h3M31 61h12M49 61h3M55 61h3M64 61h3M79 61h6M91 61h3M10 62h3M25 62h3M31 62h12M49 62h3M55 62h3M64 62h3M79 62h6M91 62h3M10 63h3M25 63h9M43 63h3M49 63h9M61 63h3M67 63h3M76 63h12M91 63h3M10 64h3M25 64h9M43 64h3M49 64h9M61 64h3M67 64h3M76 64h12M91 64h3M10 65h3M25 65h9M43 65h3M49 65h9M61 65h3M67 65h3M76 65h12M91 65h3M7 66h3M28 66h18M49 66h3M58 66h3M67 66h9M85 66h3M91 66h3M7 67h3M28 67h18M49 67h3M58 67h3M67 67h9M85 67h3M91 67h3M7 68h3M28 68h18M49 68h3M58 68h3M67 68h9M85 68h3M91 68h3M7 69h3M28 69h6M37 69h3M46 69h12M67 69h3M85 69h3M91 69h3M7 70h3M28 70h6M37 70h3M46 70h12M67 70h3M85 70h3M91 70h3M7 71h3M28 71h6M37 71h3M46 71h12M67 71h3M85 71h3M91 71h3M7 72h3M25 72h12M46 72h6M67 72h9M79 72h12M7 73h3M25 73h12M46 73h6M67 73h9M79 73h12M7 74h3M25 74h12M46 74h6M67 74h9M79 74h12M4 75h3M10 75h3M25 75h3M34 75h3M43 75h3M52 75h9M67 75h3M73 75h6M82 75h9M4 76h3M10 76h3M25 76h3M34 76h3M43 76h3M52 76h9M67 76h3M73 76h6M82 76h9M4 77h3M10 77h3M25 77h3M34 77h3M43 77h3M52 77h9M67 77h3M73 77h6M82 77h9M4 78h3M10 78h3M25 78h12M40 78h18M61 78h6M73 78h3M82 78h6M91 78h3M4 79h3M10 79h3M25 79h12M40 79h18M61 79h6M73 79h3M82 79h6M91 79h3M4 80h3M10 80h3M25 80h12M40 80h18M61 80h6M73 80h3M82 80h6M91 80h3M7 81h21M37 81h6M52 81h3M58 81h9M70 81h6M79 81h3M85 81h3M91 81h3M7 82h21M37 82h6M52 82h3M58 82h9M70 82h6M79 82h3M85 82h3M91 82h3M7 83h21M37 83h6M52 83h3M58 83h9M70 83h6M79 83h3M85 83h3M91 83h3M4 84h3M28 84h3M34 84h3M40 84h3M52 84h3M61 84h3M67 84h3M73 84h21M4 85h3M28 85h3M34 85h3M40 85h3M52 85h3M61 85h3M67 85h3M73 85h21M4 86h3M28 86h3M34 86h3M40 86h3M52 86h3M61 86h3M67 86h3M73 86h21M4 87h27M34 87h21M61 87h21M4 88h27M34 88h21M61 88h21M4 89h27M34 89h21M61 89h21"/>
                        <path stroke="#ff7b24"
                              d="M43 24h3M61 24h3M43 25h3M61 25h3M43 26h3M61 26h3M40 27h3M55 27h6M40 28h3M55 28h6M40 29h3M55 29h6M40 30h3M55 30h3M40 31h3M55 31h3M40 32h3M55 32h3M52 33h3M52 34h3M52 35h3M43 36h6M55 36h3M43 37h6M55 37h3M43 38h6M55 38h3M31 39h3M43 39h18M31 40h3M43 40h18M31 41h3M43 41h18M31 42h15M52 42h6M31 43h15M52 43h6M31 44h15M52 44h6M28 45h15M52 45h9M28 46h15M52 46h9M28 47h15M52 47h9M40 48h3M52 48h3M40 49h3M52 49h3M40 50h3M52 50h3M43 51h15M43 52h15M43 53h15M49 54h3M55 54h3M49 55h3M55 55h3M49 56h3M55 56h3M52 57h3M52 58h3M52 59h3M52 60h3M52 61h3M52 62h3M76 66h9M76 67h9M76 68h9M70 69h15M70 70h15M70 71h15M76 72h3M76 73h3M76 74h3M58 78h3M88 78h3M58 79h3M88 79h3M58 80h3M88 80h3M43 81h9M88 81h3M43 82h9M88 82h3M43 83h9M88 83h3M43 84h9M64 84h3M43 85h9M64 85h3M43 86h9M64 86h3"/>
                        <path stroke="#2f681c"
                              d="M67 24h6M67 25h6M67 26h6M64 27h6M64 28h6M64 29h6M85 30h9M85 31h9M85 32h9M58 33h15M82 33h9M58 34h15M82 34h9M58 35h15M82 35h9M67 36h9M82 36h6M67 37h9M82 37h6M67 38h9M82 38h6M70 39h12M85 39h3M70 40h12M85 40h3M70 41h12M85 41h3M76 42h9M76 43h9M76 44h9M79 45h6M91 45h6M79 46h6M91 46h6M79 47h6M91 47h6M82 48h3M82 49h3M82 50h3M82 51h3M82 52h3M82 53h3M82 54h6M82 55h6M82 56h6M82 57h6M82 58h6M82 59h6M85 60h6M85 61h6M85 62h6M88 63h3M88 64h3M88 65h3M88 66h3M88 67h3M88 68h3M88 69h3M88 70h3M88 71h3"/>
                        <path stroke="#f8ebcb"
                              d="M31 27h3M31 28h3M31 29h3M31 30h6M31 31h6M31 32h6M34 33h6M34 34h6M34 35h6M34 36h6M34 37h6M34 38h6M64 39h3M64 40h3M64 41h3M64 42h6M64 43h6M64 44h6M67 45h9M67 46h9M67 47h9M76 48h3M76 49h3M76 50h3M43 57h6M43 58h6M43 59h6M28 60h3M43 60h6M28 61h3M43 61h6M28 62h3M43 62h6M46 63h3M46 64h3M46 65h3M46 66h3M46 67h3M46 68h3M70 75h3M79 75h3M70 76h3M79 76h3M70 77h3M79 77h3M67 78h6M76 78h6M67 79h6M76 79h6M67 80h6M76 80h6M67 81h3M76 81h3M82 81h3M67 82h3M76 82h3M82 82h3M67 83h3M76 83h3M82 83h3M37 84h3M70 84h3M37 85h3M70 85h3M37 86h3M70 86h3"/>
                        <path stroke="#848c94"
                              d="M49 30h3M73 30h6M49 31h3M73 31h6M49 32h3M73 32h6M76 33h3M76 34h3M76 35h3M19 48h3M88 48h3M19 49h3M88 49h3M19 50h3M88 50h3M16 51h6M70 51h6M88 51h3M16 52h6M70 52h6M88 52h3M16 53h6M70 53h6M88 53h3M16 54h6M73 54h3M16 55h6M73 55h3M16 56h6M73 56h3M13 57h6M13 58h6M13 59h6M13 60h6M13 61h6M13 62h6M13 63h6M13 64h6M13 65h6M10 66h9M22 66h3M10 67h9M22 67h3M10 68h9M22 68h3M10 69h9M22 69h3M10 70h9M22 70h3M10 71h9M22 71h3M10 72h12M10 73h12M10 74h12M7 75h3M13 75h6M7 76h3M13 76h6M7 77h3M13 77h6M7 78h3M13 78h6M7 79h3M13 79h6M7 80h3M13 80h6M7 84h15M7 85h15M7 86h15"/>
                        <path stroke="#ffffff" d="M46 45h3M46 46h3M46 47h3M34 69h3M34 70h3M34 71h3"/>
                        <path stroke="#0066ff" d="M49 45h3M49 46h3M49 47h3M46 48h6M46 49h6M46 50h6"/>
                        <path stroke="#545a61"
                              d="M22 48h3M22 49h3M22 50h3M22 51h3M22 52h3M22 53h3M22 54h3M22 55h3M22 56h3M19 57h6M19 58h6M19 59h6M19 60h6M19 61h6M19 62h6M19 63h6M19 64h6M19 65h6M19 66h3M25 66h3M19 67h3M25 67h3M19 68h3M25 68h3M19 69h3M25 69h3M19 70h3M25 70h3M19 71h3M25 71h3M22 72h3M22 73h3M22 74h3M19 75h6M28 75h6M19 76h6M28 76h6M19 77h6M28 77h6M19 78h6M19 79h6M19 80h6M22 84h6M22 85h6M22 86h6"/>
                        <path stroke="#363636" d="M28 51h9M28 52h9M28 53h9M31 54h3M31 55h3M31 56h3"/>
                        <path stroke="#74accc"
                              d="M37 51h3M37 52h3M37 53h3M28 54h3M34 54h9M28 55h3M34 55h9M28 56h3M34 56h9M31 57h9M67 57h6M31 58h9M67 58h6M31 59h9M67 59h6M67 60h12M67 61h12M67 62h12M34 63h9M64 63h3M70 63h6M34 64h9M64 64h3M70 64h6M34 65h9M64 65h3M70 65h6M61 66h6M61 67h6M61 68h6M40 69h6M58 69h9M40 70h6M58 70h9M40 71h6M58 71h9M37 72h9M52 72h15M37 73h9M52 73h15M37 74h9M52 74h15M37 75h6M46 75h6M61 75h6M37 76h6M46 76h6M61 76h6M37 77h6M46 77h6M61 77h6M37 78h3M37 79h3M37 80h3"/>
                        <path stroke="#642c1c"
                              d="M61 51h3M61 52h3M61 53h3M61 54h6M61 55h6M61 56h6M52 66h6M52 67h6M52 68h6"/>
                        <path stroke="#ccd4d4"
                              d="M58 57h3M58 58h3M58 59h3M58 60h6M58 61h6M58 62h6M58 63h3M58 64h3M58 65h3"/>
                    </g>
                </g>
                <g id="walking-[[${id}]]">
                    <g id="frame3-[[${id}]]">
                        <path stroke="#000000"
                              d="M43 21h6M61 21h15M43 22h6M61 22h15M43 23h6M61 23h15M28 24h6M40 24h3M46 24h3M55 24h6M64 24h3M73 24h3M28 25h6M40 25h3M46 25h3M55 25h6M64 25h3M73 25h3M28 26h6M40 26h3M46 26h3M55 26h6M64 26h3M73 26h3M28 27h3M34 27h6M43 27h3M49 27h6M61 27h3M70 27h9M85 27h12M28 28h3M34 28h6M43 28h3M49 28h6M61 28h3M70 28h9M85 28h12M28 29h3M34 29h6M43 29h3M49 29h6M61 29h3M70 29h9M85 29h12M28 30h3M37 30h3M43 30h6M52 30h3M58 30h15M79 30h6M94 30h3M28 31h3M37 31h3M43 31h6M52 31h3M58 31h15M79 31h6M94 31h3M28 32h3M37 32h3M43 32h6M52 32h3M58 32h15M79 32h6M94 32h3M31 33h3M40 33h12M55 33h3M73 33h3M79 33h3M91 33h3M31 34h3M40 34h12M55 34h3M73 34h3M79 34h3M91 34h3M31 35h3M40 35h12M55 35h3M73 35h3M79 35h3M91 35h3M31 36h3M40 36h3M49 36h6M58 36h9M76 36h6M88 36h3M31 37h3M40 37h3M49 37h6M58 37h9M76 37h6M88 37h3M31 38h3M40 38h3M49 38h6M58 38h9M76 38h6M88 38h3M28 39h3M34 39h9M61 39h3M67 39h3M82 39h3M88 39h3M28 40h3M34 40h9M61 40h3M67 40h3M82 40h3M88 40h3M28 41h3M34 41h9M61 41h3M67 41h3M82 41h3M88 41h3M28 42h3M46 42h6M58 42h6M70 42h6M85 42h12M28 43h3M46 43h6M58 43h6M70 43h6M85 43h12M28 44h3M46 44h6M58 44h6M70 44h6M85 44h12M19 45h9M43 45h3M61 45h6M76 45h3M85 45h6M97 45h3M19 46h9M43 46h3M61 46h6M76 46h3M85 46h6M97 46h3M19 47h9M43 47h3M61 47h6M76 47h3M85 47h6M97 47h3M16 48h3M25 48h15M43 48h3M55 48h21M79 48h3M85 48h3M91 48h9M16 49h3M25 49h15M43 49h3M55 49h21M79 49h3M85 49h3M91 49h9M16 50h3M25 50h15M43 50h3M55 50h21M79 50h3M85 50h3M91 50h9M13 51h3M25 51h3M40 51h3M58 51h3M64 51h6M76 51h6M85 51h3M91 51h3M13 52h3M25 52h3M40 52h3M58 52h3M64 52h6M76 52h6M85 52h3M91 52h3M13 53h3M25 53h3M40 53h3M58 53h3M64 53h6M76 53h6M85 53h3M91 53h3M13 54h3M25 54h3M43 54h6M52 54h3M58 54h3M67 54h6M76 54h6M88 54h6M13 55h3M25 55h3M43 55h6M52 55h3M58 55h3M67 55h6M76 55h6M88 55h6M13 56h3M25 56h3M43 56h6M52 56h3M58 56h3M67 56h6M76 56h6M88 56h6M10 57h3M25 57h6M40 57h3M49 57h3M55 57h3M61 57h6M73 57h9M88 57h6M10 58h3M25 58h6M40 58h3M49 58h3M55 58h3M61 58h6M73 58h9M88 58h6M10 59h3M25 59h6M40 59h3M49 59h3M55 59h3M61 59h6M73 59h9M88 59h6M10 60h3M25 60h3M31 60h12M49 60h3M55 60h3M64 60h3M79 60h6M91 60h3M10 61h3M25 61h3M31 61h12M49 61h3M55 61h3M64 61h3M79 61h6M91 61h3M10 62h3M25 62h3M31 62h12M49 62h3M55 62h3M64 62h3M79 62h6M91 62h3M10 63h3M25 63h9M43 63h3M49 63h9M61 63h3M67 63h3M76 63h12M91 63h3M10 64h3M25 64h9M43 64h3M49 64h9M61 64h3M67 64h3M76 64h12M91 64h3M10 65h3M25 65h9M43 65h3M49 65h9M61 65h3M67 65h3M76 65h12M91 65h3M7 66h3M28 66h18M49 66h3M58 66h3M67 66h9M85 66h3M91 66h3M7 67h3M28 67h18M49 67h3M58 67h3M67 67h9M85 67h3M91 67h3M7 68h3M28 68h18M49 68h3M58 68h3M67 68h9M85 68h3M91 68h3M7 69h3M28 69h6M37 69h3M46 69h12M67 69h3M85 69h3M91 69h3M7 70h3M28 70h6M37 70h3M46 70h12M67 70h3M85 70h3M91 70h3M7 71h3M28 71h6M37 71h3M46 71h12M67 71h3M85 71h3M91 71h3M7 72h3M25 72h12M46 72h6M67 72h9M79 72h12M7 73h3M25 73h12M46 73h6M67 73h9M79 73h12M7 74h3M25 74h12M46 74h6M67 74h9M79 74h12M4 75h3M10 75h3M25 75h3M34 75h3M43 75h3M52 75h9M67 75h3M73 75h6M82 75h9M4 76h3M10 76h3M25 76h3M34 76h3M43 76h3M52 76h9M67 76h3M73 76h6M82 76h9M4 77h3M10 77h3M25 77h3M34 77h3M43 77h3M52 77h9M67 77h3M73 77h6M82 77h9M4 78h3M10 78h3M25 78h12M40 78h18M61 78h6M73 78h3M82 78h6M91 78h3M4 79h3M10 79h3M25 79h12M40 79h18M61 79h6M73 79h3M82 79h6M91 79h3M4 80h3M10 80h3M25 80h12M40 80h18M61 80h6M73 80h3M82 80h6M91 80h3M7 81h21M37 81h9M55 81h6M64 81h3M70 81h6M79 81h3M85 81h3M91 81h3M7 82h21M37 82h9M55 82h6M64 82h3M70 82h6M79 82h3M85 82h3M91 82h3M7 83h21M37 83h9M55 83h6M64 83h3M70 83h6M79 83h3M85 83h3M91 83h3M4 84h3M28 84h3M37 84h3M43 84h3M55 84h39M4 85h3M28 85h3M37 85h3M43 85h3M55 85h39M4 86h3M28 86h3M37 86h3M43 86h3M55 86h39M4 87h27M37 87h21M4 88h27M37 88h21M4 89h27M37 89h21"/>
                        <path stroke="#ff7b24"
                              d="M43 24h3M61 24h3M43 25h3M61 25h3M43 26h3M61 26h3M40 27h3M55 27h6M40 28h3M55 28h6M40 29h3M55 29h6M40 30h3M55 30h3M40 31h3M55 31h3M40 32h3M55 32h3M52 33h3M52 34h3M52 35h3M43 36h6M55 36h3M43 37h6M55 37h3M43 38h6M55 38h3M31 39h3M43 39h18M31 40h3M43 40h18M31 41h3M43 41h18M31 42h15M52 42h6M31 43h15M52 43h6M31 44h15M52 44h6M28 45h15M52 45h9M28 46h15M52 46h9M28 47h15M52 47h9M40 48h3M52 48h3M40 49h3M52 49h3M40 50h3M52 50h3M43 51h15M43 52h15M43 53h15M49 54h3M55 54h3M49 55h3M55 55h3M49 56h3M55 56h3M52 57h3M52 58h3M52 59h3M52 60h3M52 61h3M52 62h3M76 66h9M76 67h9M76 68h9M70 69h15M70 70h15M70 71h15M76 72h3M76 73h3M76 74h3M58 78h3M88 78h3M58 79h3M88 79h3M58 80h3M88 80h3M46 81h9M61 81h3M88 81h3M46 82h9M61 82h3M88 82h3M46 83h9M61 83h3M88 83h3M46 84h9M46 85h9M46 86h9"/>
                        <path stroke="#2f681c"
                              d="M67 24h6M67 25h6M67 26h6M64 27h6M64 28h6M64 29h6M85 30h9M85 31h9M85 32h9M58 33h15M82 33h9M58 34h15M82 34h9M58 35h15M82 35h9M67 36h9M82 36h6M67 37h9M82 37h6M67 38h9M82 38h6M70 39h12M85 39h3M70 40h12M85 40h3M70 41h12M85 41h3M76 42h9M76 43h9M76 44h9M79 45h6M91 45h6M79 46h6M91 46h6M79 47h6M91 47h6M82 48h3M82 49h3M82 50h3M82 51h3M82 52h3M82 53h3M82 54h6M82 55h6M82 56h6M82 57h6M82 58h6M82 59h6M85 60h6M85 61h6M85 62h6M88 63h3M88 64h3M88 65h3M88 66h3M88 67h3M88 68h3M88 69h3M88 70h3M88 71h3"/>
                        <path stroke="#f8ebcb"
                              d="M31 27h3M31 28h3M31 29h3M31 30h6M31 31h6M31 32h6M34 33h6M34 34h6M34 35h6M34 36h6M34 37h6M34 38h6M64 39h3M64 40h3M64 41h3M64 42h6M64 43h6M64 44h6M67 45h9M67 46h9M67 47h9M76 48h3M76 49h3M76 50h3M43 57h6M43 58h6M43 59h6M28 60h3M43 60h6M28 61h3M43 61h6M28 62h3M43 62h6M46 63h3M46 64h3M46 65h3M46 66h3M46 67h3M46 68h3M70 75h3M79 75h3M70 76h3M79 76h3M70 77h3M79 77h3M67 78h6M76 78h6M67 79h6M76 79h6M67 80h6M76 80h6M67 81h3M76 81h3M82 81h3M67 82h3M76 82h3M82 82h3M67 83h3M76 83h3M82 83h3M40 84h3M40 85h3M40 86h3"/>
                        <path stroke="#848c94"
                              d="M49 30h3M73 30h6M49 31h3M73 31h6M49 32h3M73 32h6M76 33h3M76 34h3M76 35h3M19 48h3M88 48h3M19 49h3M88 49h3M19 50h3M88 50h3M16 51h6M70 51h6M88 51h3M16 52h6M70 52h6M88 52h3M16 53h6M70 53h6M88 53h3M16 54h6M73 54h3M16 55h6M73 55h3M16 56h6M73 56h3M13 57h6M13 58h6M13 59h6M13 60h6M13 61h6M13 62h6M13 63h6M13 64h6M13 65h6M10 66h9M22 66h3M10 67h9M22 67h3M10 68h9M22 68h3M10 69h9M22 69h3M10 70h9M22 70h3M10 71h9M22 71h3M10 72h12M10 73h12M10 74h12M7 75h3M13 75h6M7 76h3M13 76h6M7 77h3M13 77h6M7 78h3M13 78h6M7 79h3M13 79h6M7 80h3M13 80h6M7 84h15M7 85h15M7 86h15"/>
                        <path stroke="rgba(255,255,255,0.00392156862745098)"
                              d="M7 42h21M7 43h21M7 44h21M4 45h15M4 46h15M4 47h15M4 48h12M4 49h12M4 50h12M4 51h9M4 52h9M4 53h9M4 54h9M4 55h9M4 56h9M4 57h6M4 58h6M4 59h6M4 60h6M4 61h6M4 62h6M4 63h6M4 64h6M4 65h6M4 66h3M4 67h3M4 68h3M4 69h3M4 70h3M4 71h3M4 72h3M4 73h3M4 74h3M4 81h3M28 81h3M34 81h3M4 82h3M28 82h3M34 82h3M4 83h3M28 83h3M34 83h3M34 84h3M34 85h3M34 86h3M34 87h3M34 88h3M34 89h3"/>
                        <path stroke="#ffffff" d="M46 45h3M46 46h3M46 47h3M34 69h3M34 70h3M34 71h3"/>
                        <path stroke="#0066ff" d="M49 45h3M49 46h3M49 47h3M46 48h6M46 49h6M46 50h6"/>
                        <path stroke="#545a61"
                              d="M22 48h3M22 49h3M22 50h3M22 51h3M22 52h3M22 53h3M22 54h3M22 55h3M22 56h3M19 57h6M19 58h6M19 59h6M19 60h6M19 61h6M19 62h6M19 63h6M19 64h6M19 65h6M19 66h3M25 66h3M19 67h3M25 67h3M19 68h3M25 68h3M19 69h3M25 69h3M19 70h3M25 70h3M19 71h3M25 71h3M22 72h3M22 73h3M22 74h3M19 75h6M28 75h6M19 76h6M28 76h6M19 77h6M28 77h6M19 78h6M19 79h6M19 80h6M22 84h6M22 85h6M22 86h6"/>
                        <path stroke="#363636" d="M28 51h9M28 52h9M28 53h9M31 54h3M31 55h3M31 56h3"/>
                        <path stroke="#74accc"
                              d="M37 51h3M37 52h3M37 53h3M28 54h3M34 54h9M28 55h3M34 55h9M28 56h3M34 56h9M31 57h9M67 57h6M31 58h9M67 58h6M31 59h9M67 59h6M67 60h12M67 61h12M67 62h12M34 63h9M64 63h3M70 63h6M34 64h9M64 64h3M70 64h6M34 65h9M64 65h3M70 65h6M61 66h6M61 67h6M61 68h6M40 69h6M58 69h9M40 70h6M58 70h9M40 71h6M58 71h9M37 72h9M52 72h15M37 73h9M52 73h15M37 74h9M52 74h15M37 75h6M46 75h6M61 75h6M37 76h6M46 76h6M61 76h6M37 77h6M46 77h6M61 77h6M37 78h3M37 79h3M37 80h3"/>
                        <path stroke="#642c1c"
                              d="M61 51h3M61 52h3M61 53h3M61 54h6M61 55h6M61 56h6M52 66h6M52 67h6M52 68h6"/>
                        <path stroke="#ccd4d4"
                              d="M58 57h3M58 58h3M58 59h3M58 60h6M58 61h6M58 62h6M58 63h3M58 64h3M58 65h3"/>
                    </g>
                    <g id="frame4-[[${id}]]">
                        <path stroke="#000000"
                              d="M43 21h6M61 21h15M43 22h6M61 22h15M43 23h6M61 23h15M28 24h6M40 24h3M46 24h3M55 24h6M64 24h3M73 24h3M28 25h6M40 25h3M46 25h3M55 25h6M64 25h3M73 25h3M28 26h6M40 26h3M46 26h3M55 26h6M64 26h3M73 26h3M28 27h3M34 27h6M43 27h3M49 27h6M61 27h3M70 27h9M85 27h12M28 28h3M34 28h6M43 28h3M49 28h6M61 28h3M70 28h9M85 28h12M28 29h3M34 29h6M43 29h3M49 29h6M61 29h3M70 29h9M85 29h12M28 30h3M37 30h3M43 30h6M52 30h3M58 30h15M79 30h6M94 30h3M28 31h3M37 31h3M43 31h6M52 31h3M58 31h15M79 31h6M94 31h3M28 32h3M37 32h3M43 32h6M52 32h3M58 32h15M79 32h6M94 32h3M31 33h3M40 33h12M55 33h3M73 33h3M79 33h3M91 33h3M31 34h3M40 34h12M55 34h3M73 34h3M79 34h3M91 34h3M31 35h3M40 35h12M55 35h3M73 35h3M79 35h3M91 35h3M31 36h3M40 36h3M49 36h6M58 36h9M76 36h6M88 36h3M31 37h3M40 37h3M49 37h6M58 37h9M76 37h6M88 37h3M31 38h3M40 38h3M49 38h6M58 38h9M76 38h6M88 38h3M28 39h3M34 39h9M61 39h3M67 39h3M82 39h3M88 39h3M28 40h3M34 40h9M61 40h3M67 40h3M82 40h3M88 40h3M28 41h3M34 41h9M61 41h3M67 41h3M82 41h3M88 41h3M28 42h3M46 42h6M58 42h6M70 42h6M85 42h12M28 43h3M46 43h6M58 43h6M70 43h6M85 43h12M28 44h3M46 44h6M58 44h6M70 44h6M85 44h12M22 45h6M43 45h3M61 45h6M76 45h3M85 45h6M97 45h3M22 46h6M43 46h3M61 46h6M76 46h3M85 46h6M97 46h3M22 47h6M43 47h3M61 47h6M76 47h3M85 47h6M97 47h3M19 48h3M25 48h15M43 48h3M55 48h21M79 48h3M85 48h3M91 48h9M19 49h3M25 49h15M43 49h3M55 49h21M79 49h3M85 49h3M91 49h9M19 50h3M25 50h15M43 50h3M55 50h21M79 50h3M85 50h3M91 50h9M16 51h3M25 51h3M40 51h3M58 51h3M64 51h6M76 51h6M85 51h3M91 51h3M16 52h3M25 52h3M40 52h3M58 52h3M64 52h6M76 52h6M85 52h3M91 52h3M16 53h3M25 53h3M40 53h3M58 53h3M64 53h6M76 53h6M85 53h3M91 53h3M16 54h3M25 54h3M43 54h6M52 54h3M58 54h3M67 54h6M76 54h6M88 54h6M16 55h3M25 55h3M43 55h6M52 55h3M58 55h3M67 55h6M76 55h6M88 55h6M16 56h3M25 56h3M43 56h6M52 56h3M58 56h3M67 56h6M76 56h6M88 56h6M13 57h3M25 57h6M40 57h3M49 57h3M55 57h3M61 57h6M73 57h9M88 57h6M13 58h3M25 58h6M40 58h3M49 58h3M55 58h3M61 58h6M73 58h9M88 58h6M13 59h3M25 59h6M40 59h3M49 59h3M55 59h3M61 59h6M73 59h9M88 59h6M13 60h3M25 60h3M31 60h12M49 60h3M55 60h3M64 60h3M79 60h6M91 60h3M13 61h3M25 61h3M31 61h12M49 61h3M55 61h3M64 61h3M79 61h6M91 61h3M13 62h3M25 62h3M31 62h12M49 62h3M55 62h3M64 62h3M79 62h6M91 62h3M13 63h3M25 63h9M43 63h3M49 63h9M61 63h6M73 63h12M91 63h3M13 64h3M25 64h9M43 64h3M49 64h9M61 64h6M73 64h12M91 64h3M13 65h3M25 65h9M43 65h3M49 65h9M61 65h6M73 65h12M91 65h3M10 66h3M28 66h18M49 66h3M58 66h3M64 66h9M82 66h3M91 66h3M10 67h3M28 67h18M49 67h3M58 67h3M64 67h9M82 67h3M91 67h3M10 68h3M28 68h18M49 68h3M58 68h3M64 68h9M82 68h3M91 68h3M10 69h3M28 69h9M40 69h3M46 69h12M64 69h3M82 69h3M91 69h3M10 70h3M28 70h9M40 70h3M46 70h12M64 70h3M82 70h3M91 70h3M10 71h3M28 71h9M40 71h3M46 71h12M64 71h3M82 71h3M91 71h3M10 72h3M28 72h12M46 72h6M64 72h9M76 72h9M88 72h3M10 73h3M28 73h12M46 73h6M64 73h9M76 73h9M88 73h3M10 74h3M28 74h12M46 74h6M64 74h9M76 74h9M88 74h3M7 75h3M13 75h3M28 75h3M37 75h3M43 75h18M64 75h3M70 75h6M79 75h6M88 75h3M7 76h3M13 76h3M28 76h3M37 76h3M43 76h18M64 76h3M70 76h6M79 76h6M88 76h3M7 77h3M13 77h3M28 77h3M37 77h3M43 77h18M64 77h3M70 77h6M79 77h6M88 77h3M7 78h3M13 78h3M28 78h15M52 78h6M61 78h3M70 78h3M79 78h9M91 78h3M7 79h3M13 79h3M28 79h15M52 79h6M61 79h3M70 79h3M79 79h9M91 79h3M7 80h3M13 80h3M28 80h15M52 80h6M61 80h3M70 80h3M79 80h9M91 80h3M10 81h21M34 81h3M40 81h3M52 81h3M58 81h6M67 81h6M76 81h3M82 81h3M91 81h3M10 82h21M34 82h3M40 82h3M52 82h3M58 82h6M67 82h6M76 82h3M82 82h3M91 82h3M10 83h21M34 83h3M40 83h3M52 83h3M58 83h6M67 83h6M76 83h3M82 83h3M91 83h3M7 84h3M31 84h24M61 84h33M7 85h3M31 85h24M61 85h33M7 86h3M31 86h24M61 86h33M7 87h27M61 87h21M7 88h27M61 88h21M7 89h27M61 89h21"/>
                        <path stroke="#ff7b24"
                              d="M43 24h3M61 24h3M43 25h3M61 25h3M43 26h3M61 26h3M40 27h3M55 27h6M40 28h3M55 28h6M40 29h3M55 29h6M40 30h3M55 30h3M40 31h3M55 31h3M40 32h3M55 32h3M52 33h3M52 34h3M52 35h3M43 36h6M55 36h3M43 37h6M55 37h3M43 38h6M55 38h3M31 39h3M43 39h18M31 40h3M43 40h18M31 41h3M43 41h18M31 42h15M52 42h6M31 43h15M52 43h6M31 44h15M52 44h6M28 45h15M52 45h9M28 46h15M52 46h9M28 47h15M52 47h9M40 48h3M52 48h3M40 49h3M52 49h3M40 50h3M52 50h3M43 51h15M43 52h15M43 53h15M49 54h3M55 54h3M49 55h3M55 55h3M49 56h3M55 56h3M52 57h3M52 58h3M52 59h3M52 60h3M52 61h3M52 62h3M73 66h9M73 67h9M73 68h9M67 69h15M67 70h15M67 71h15M73 72h3M73 73h3M73 74h3M43 78h9M58 78h3M88 78h3M43 79h9M58 79h3M88 79h3M43 80h9M58 80h3M88 80h3M43 81h9M85 81h6M43 82h9M85 82h6M43 83h9M85 83h6"/>
                        <path stroke="#2f681c"
                              d="M67 24h6M67 25h6M67 26h6M64 27h6M64 28h6M64 29h6M85 30h9M85 31h9M85 32h9M58 33h15M82 33h9M58 34h15M82 34h9M58 35h15M82 35h9M67 36h9M82 36h6M67 37h9M82 37h6M67 38h9M82 38h6M70 39h12M85 39h3M70 40h12M85 40h3M70 41h12M85 41h3M76 42h9M76 43h9M76 44h9M79 45h6M91 45h6M79 46h6M91 46h6M79 47h6M91 47h6M82 48h3M82 49h3M82 50h3M82 51h3M82 52h3M82 53h3M82 54h6M82 55h6M82 56h6M82 57h6M82 58h6M82 59h6M85 60h6M85 61h6M85 62h6M85 63h6M85 64h6M85 65h6M85 66h6M85 67h6M85 68h6M85 69h6M85 70h6M85 71h6M85 72h3M85 73h3M85 74h3M85 75h3M85 76h3M85 77h3"/>
                        <path stroke="#f8ebcb"
                              d="M31 27h3M31 28h3M31 29h3M31 30h6M31 31h6M31 32h6M34 33h6M34 34h6M34 35h6M34 36h6M34 37h6M34 38h6M64 39h3M64 40h3M64 41h3M64 42h6M64 43h6M64 44h6M67 45h9M67 46h9M67 47h9M76 48h3M76 49h3M76 50h3M43 57h6M43 58h6M43 59h6M28 60h3M43 60h6M28 61h3M43 61h6M28 62h3M43 62h6M46 63h3M46 64h3M46 65h3M46 66h3M46 67h3M46 68h3M67 75h3M76 75h3M67 76h3M76 76h3M67 77h3M76 77h3M64 78h6M73 78h6M64 79h6M73 79h6M64 80h6M73 80h6M37 81h3M64 81h3M73 81h3M79 81h3M37 82h3M64 82h3M73 82h3M79 82h3M37 83h3M64 83h3M73 83h3M79 83h3"/>
                        <path stroke="#848c94"
                              d="M49 30h3M73 30h6M49 31h3M73 31h6M49 32h3M73 32h6M76 33h3M76 34h3M76 35h3M22 48h3M88 48h3M22 49h3M88 49h3M22 50h3M88 50h3M19 51h6M70 51h6M88 51h3M19 52h6M70 52h6M88 52h3M19 53h6M70 53h6M88 53h3M19 54h6M73 54h3M19 55h6M73 55h3M19 56h6M73 56h3M16 57h6M16 58h6M16 59h6M16 60h6M16 61h6M16 62h6M16 63h6M16 64h6M16 65h6M13 66h9M25 66h3M13 67h9M25 67h3M13 68h9M25 68h3M13 69h9M25 69h3M13 70h9M25 70h3M13 71h9M25 71h3M13 72h12M13 73h12M13 74h12M10 75h3M16 75h6M10 76h3M16 76h6M10 77h3M16 77h6M10 78h3M16 78h6M10 79h3M16 79h6M10 80h3M16 80h6M10 84h15M10 85h15M10 86h15"/>
                        <path stroke="rgba(255,255,255,0.00392156862745098)"
                              d="M10 42h18M10 43h18M10 44h18M7 45h15M7 46h15M7 47h15M7 48h12M7 49h12M7 50h12M7 51h9M7 52h9M7 53h9M7 54h9M7 55h9M7 56h9M7 57h6M7 58h6M7 59h6M7 60h6M7 61h6M7 62h6M7 63h6M7 64h6M7 65h6M7 66h3M7 67h3M7 68h3M7 69h3M7 70h3M7 71h3M7 72h3M91 72h3M7 73h3M91 73h3M7 74h3M91 74h3M91 75h3M91 76h3M91 77h3M7 81h3M31 81h3M7 82h3M31 82h3M7 83h3M31 83h3"/>
                        <path stroke="#ffffff" d="M46 45h3M46 46h3M46 47h3"/>
                        <path stroke="#0066ff" d="M49 45h3M49 46h3M49 47h3M46 48h6M46 49h6M46 50h6"/>
                        <path stroke="#363636" d="M28 51h9M28 52h9M28 53h9M31 54h3M31 55h3M31 56h3"/>
                        <path stroke="#74accc"
                              d="M37 51h3M37 52h3M37 53h3M28 54h3M34 54h9M28 55h3M34 55h9M28 56h3M34 56h9M31 57h9M67 57h6M31 58h9M67 58h6M31 59h9M67 59h6M67 60h12M67 61h12M67 62h12M34 63h9M67 63h6M34 64h9M67 64h6M34 65h9M67 65h6M61 66h3M61 67h3M61 68h3M43 69h3M58 69h6M43 70h3M58 70h6M43 71h3M58 71h6M40 72h6M52 72h12M40 73h6M52 73h12M40 74h6M52 74h12M40 75h3M61 75h3M40 76h3M61 76h3M40 77h3M61 77h3"/>
                        <path stroke="#642c1c"
                              d="M61 51h3M61 52h3M61 53h3M61 54h6M61 55h6M61 56h6M52 66h6M52 67h6M52 68h6"/>
                        <path stroke="#545a61"
                              d="M22 57h3M22 58h3M22 59h3M22 60h3M22 61h3M22 62h3M22 63h3M22 64h3M22 65h3M22 66h3M22 67h3M22 68h3M22 69h3M22 70h3M22 71h3M25 72h3M25 73h3M25 74h3M22 75h6M31 75h6M22 76h6M31 76h6M22 77h6M31 77h6M22 78h6M22 79h6M22 80h6M25 84h6M25 85h6M25 86h6"/>
                        <path stroke="#ccd4d4"
                              d="M58 57h3M58 58h3M58 59h3M58 60h6M58 61h6M58 62h6M58 63h3M58 64h3M58 65h3"/>
                    </g>
                </g>
            </svg>
            <svg viewBox="0 0 100 30" width="100" height="30" x="0" y="0">
                <g id="username-[[${id}]]">
                    <rect x="0" y="0" width="100" height="20" fill="black" fill-opacity="0.8" rx="5"/>
                    <svg x="4" y="2.5" width="15" height="15" viewBox="0 0 100 100">
                        <path fill-rule="evenodd" clip-rule="evenodd"
                              d="M48.854 0C21.839 0 0 22 0 49.217c0 21.756 13.993 40.172 33.405 46.69 2.427.49 3.316-1.059 3.316-2.362 0-1.141-.08-5.052-.08-9.127-13.59 2.934-16.42-5.867-16.42-5.867-2.184-5.704-5.42-7.17-5.42-7.17-4.448-3.015.324-3.015.324-3.015 4.934.326 7.523 5.052 7.523 5.052 4.367 7.496 11.404 5.378 14.235 4.074.404-3.178 1.699-5.378 3.074-6.6-10.839-1.141-22.243-5.378-22.243-24.283 0-5.378 1.94-9.778 5.014-13.2-.485-1.222-2.184-6.275.486-13.038 0 0 4.125-1.304 13.426 5.052a46.97 46.97 0 0 1 12.214-1.63c4.125 0 8.33.571 12.213 1.63 9.302-6.356 13.427-5.052 13.427-5.052 2.67 6.763.97 11.816.485 13.038 3.155 3.422 5.015 7.822 5.015 13.2 0 18.905-11.404 23.06-22.324 24.283 1.78 1.548 3.316 4.481 3.316 9.126 0 6.6-.08 11.897-.08 13.526 0 1.304.89 2.853 3.316 2.364 19.412-6.52 33.405-24.935 33.405-46.691C97.707 22 75.788 0 48.854 0z"
                              fill="#fff"/>
                    </svg>
                    <text x="25" y="11" dominant-baseline="middle" style="fill:white" font-size="13">
                        [[${#strings.abbreviate(username, 12)}]]
                    </text>
                    <rect x="0" y="23" width="[[${exp}]]" height="2" fill="#48ff00" rx="1"/>
                </g>
            </svg>
        </g>
    </a>
    <style>
        #frame1-[[${id}]] {
        animation: 1s frameToggle infinite;
        }
        #frame2-[[${id}]] {
        animation: 1s frameToggle infinite reverse;
        }
        #frame3-[[${id}]] {
        animation: 1s frameToggle infinite;
        }
        #frame4-[[${id}]] {
        animation: 1s frameToggle infinite reverse;
        }
        #standing-[[${id}]] {
        animation: standingToggle [[${motion.duration}]]s infinite;
        }
        #walking-[[${id}]] {
        animation: walkingToggle [[${motion.duration}]]s infinite;
        }
        #body-[[${id}]] {
        animation: move-body-[[${id}]] [[${motion.duration}]]s infinite;
        }
        #username-[[${id}]] {
        animation: move-username-[[${id}]] [[${motion.duration}]]s infinite;
        }
        @keyframes move-body-[[${id}]] {
        0%, 10% {
        transform: translate([[${motion.positions[0].x}]]%, [[${y}]]%) scaleX([[${motion.positions[0].direction}]]);
        }
        20%, 30% {
        transform: translate([[${motion.positions[1].x}]]%, [[${y}]]%) scaleX([[${motion.positions[1].direction}]]);
        }
        40%, 50% {
        transform: translate([[${motion.positions[2].x}]]%, [[${y}]]%) scaleX([[${motion.positions[2].direction}]]);
        }
        50.01% {
        transform: translate([[${motion.positions[3].x}]]%, [[${y}]]%) scaleX([[${motion.positions[3].direction}]]);
        }
        60%, 70% {
        transform: translate([[${motion.positions[4].x}]]%, [[${y}]]%) scaleX([[${motion.positions[4].direction}]]);
        }
        80%, 100% {
        transform: translate([[${motion.positions[5].x}]]%, [[${y}]]%) scaleX([[${motion.positions[5].direction}]]);
        }
        }
        @keyframes move-username-[[${id}]] {
        0%, 10% {
        transform: scaleX([[${motion.positions[0].direction}]])
        translateX([[${motion.positions[0].direction > 0 ? 0: -100}]]%);
        }
        20%, 30% {
        transform: scaleX([[${motion.positions[1].direction}]])
        translateX([[${motion.positions[1].direction > 0 ? 0: -100}]]%);
        }
        40%, 50% {
        transform: scaleX([[${motion.positions[2].direction}]])
        translateX([[${motion.positions[2].direction > 0 ? 0: -100}]]%);
        }
        50.01% {
        transform: scaleX([[${motion.positions[3].direction}]])
        translateX([[${motion.positions[3].direction > 0 ? 0: -100}]]%);
        }
        60%, 70% {
        transform: scaleX([[${motion.positions[4].direction}]])
        translateX([[${motion.positions[4].direction > 0 ? 0: -100}]]%);
        }
        80%, 100% {
        transform: scaleX([[${motion.positions[5].direction}]])
        translateX([[${motion.positions[5].direction > 0 ? 0: -100}]]%);
        }
        }
    </style>
</svg>
